<?xml version="1.0" encoding="iso-8859-1"?>
<!-- Generator: Adobe Illustrator 19.0.0, SVG Export Plug-In . SVG Version: 6.00 Build 0)  -->
<svg version="1.1" id="Layer_1" xmlns="http://www.w3.org/2000/svg" xmlns:xlink="http://www.w3.org/1999/xlink" x="0px" y="0px"
	 viewBox="0 0 512 512" style="enable-background:new 0 0 512 512;" xml:space="preserve">
<path style="fill:#E8C1B5;" d="M95.961,388.699H78.844C35.37,388.699,0,353.253,0,309.684v-46.106
	c0-77.351,62.791-140.28,139.973-140.28h173.502c6.522,0,11.81,5.3,11.81,11.837c0,6.537-5.288,11.837-11.81,11.837H139.973
	c-64.157,0-116.351,52.31-116.351,116.606v46.106c0,30.516,24.772,55.343,55.222,55.343h17.119c6.522,0,11.81,5.3,11.81,11.837
	S102.485,388.699,95.961,388.699z"/>
<g>
	<path style="fill:#3F5666;" d="M478.056,278.665c-1.608,5.177-4.658,8.813-8.073,11.363c-9.311,6.954-22.907,3.003-27.057-7.866
		c-1.521-3.983-2.155-8.687-0.751-13.922c0.846-3.157,2.535-6.68,4.714-10.315c9.323-15.56,33.112-8.65,32.689,9.494
		C479.479,271.66,479.025,275.544,478.056,278.665z"/>
	<path style="fill:#3F5666;" d="M512,363.521v0.474c0,13.648-11.037,24.707-24.651,24.707H81.77
		c-23.402,0-41.003-21.372-36.594-44.396c17.98-94.089,93.539-158.175,197.642-158.175c119.765,0,177.184,91.252,177.184,91.252
		h3.902c25.352,0,48.98,12.903,62.701,34.287l11.943,18.599l6.813,10.594C509.693,347.619,512,355.484,512,363.521z"/>
</g>
<path style="fill:#2F3F4A;" d="M71.763,344.303c17.186-89.941,86.991-152.453,184.044-157.792
	c-4.249-0.239-8.571-0.377-12.989-0.377c-104.103,0-179.664,64.08-197.642,158.169c-4.409,23.032,13.193,44.399,36.594,44.399
	h26.588C84.956,388.702,67.354,367.335,71.763,344.303z"/>
<path style="fill:#E8C1B5;" d="M512,363.521v0.475c0,13.643-11.037,24.706-24.651,24.706h-11.727
	c-7.038-32.224,10.65-50.167,22.927-58.431l6.813,10.597C509.693,347.62,512,355.485,512,363.521z"/>
<g>
	<path style="fill:#2F3F4A;" d="M248.778,360.824v27.878h-26.269v-27.878c0-24.944-15.652-47.201-39.095-55.573l0,0
		c-3.013-1.076-1.766-5.593,1.372-4.966l16.241,3.241c26.646,5.319,46.77,28.04,47.718,55.228
		C248.767,359.443,248.778,360.133,248.778,360.824z"/>
	<path style="fill:#2F3F4A;" d="M438.951,388.702h-29.373c0-20.833-13.064-39.411-32.65-46.403l-7.111-2.541
		c-2.457-0.878-1.463-4.558,1.101-4.078l35.382,6.619c9.788,3.495,17.947,9.893,23.67,18.007
		C435.685,368.43,438.951,378.28,438.951,388.702z"/>
	<ellipse style="fill:#2F3F4A;" cx="449.034" cy="319.08" rx="7.377" ry="7.387"/>
</g>
<g>
	<path style="fill:#E8C1B5;" d="M248.498,381.161v3.215c0,2.395-1.93,4.326-4.323,4.326h-74.04c-2.382,0-4.311-1.931-4.311-4.326
		v-3.215c0-13.928,11.274-25.213,25.19-25.213h32.294C237.213,355.948,248.498,367.233,248.498,381.161z"/>
	<path style="fill:#E8C1B5;" d="M433.584,381.161v3.215c0,2.395-1.94,4.326-4.323,4.326h-74.04c-2.382,0-4.311-1.931-4.311-4.326
		v-3.215c0-13.928,11.274-25.213,25.19-25.213h32.283C422.298,355.948,433.584,367.233,433.584,381.161z"/>
</g>
<path style="fill:#3F5666;" d="M448.62,265.631c1.086,5.992-0.065,11.201-2.141,15.52c-5.661,11.775-21.248,14.927-31.019,6.269
	c-3.581-3.173-6.653-7.526-7.972-13.469c-0.795-3.583-0.943-7.972-0.659-12.726c1.208-20.348,28.477-25.867,37.47-7.584
	C446.4,257.915,447.964,262.018,448.62,265.631z"/>
<path style="fill:#E8C1B5;" d="M441.715,269.355c0.701,3.873-0.042,7.239-1.383,10.03c-3.658,7.61-13.732,9.648-20.046,4.052
	c-2.314-2.051-4.3-4.864-5.151-8.704c-0.514-2.316-0.609-5.151-0.426-8.224c0.781-13.15,18.404-16.717,24.215-4.901
	C440.281,264.369,441.292,267.021,441.715,269.355z"/>
<g>
	<path style="fill:#C97E67;" d="M204.261,376.198v12.504h-16.169v-12.504c0-4.477,3.622-8.092,8.084-8.092
		S204.261,371.72,204.261,376.198z"/>
	<path style="fill:#C97E67;" d="M226.896,376.198v12.504h-16.169v-12.504c0-4.477,3.622-8.092,8.084-8.092
		S226.896,371.72,226.896,376.198z"/>
	<path style="fill:#C97E67;" d="M372.844,388.702v-12.504c0-4.477,3.611-8.092,8.084-8.092c4.463,0,8.084,3.614,8.084,8.092v12.504
		H372.844z"/>
	<path style="fill:#C97E67;" d="M411.648,376.198v12.504h-16.169v-12.504c0-4.477,3.611-8.092,8.084-8.092
		C408.026,368.106,411.648,371.72,411.648,376.198z"/>
</g>
<g>
</g>
<g>
</g>
<g>
</g>
<g>
</g>
<g>
</g>
<g>
</g>
<g>
</g>
<g>
</g>
<g>
</g>
<g>
</g>
<g>
</g>
<g>
</g>
<g>
</g>
<g>
</g>
<g>
</g>
</svg>
