<?xml version="1.0" encoding="iso-8859-1"?>
<!-- Generator: Adobe Illustrator 19.0.0, SVG Export Plug-In . SVG Version: 6.00 Build 0)  -->
<svg version="1.1" id="Layer_1" xmlns="http://www.w3.org/2000/svg" xmlns:xlink="http://www.w3.org/1999/xlink" x="0px" y="0px"
	 viewBox="0 0 512.001 512.001" style="enable-background:new 0 0 512.001 512.001;" xml:space="preserve">
<path style="fill:#FBD476;" d="M189.829,108.666c0,0-0.323,8.488-4.635,17.385c-2.662,5.522-6.866,11.195-13.474,15.088
	c-7.028,4.152-16.783,6.288-30.31,4.077c-31.959-5.241-33.318-36.605-30.979-55.899c1.078-8.909,2.942-15.25,2.942-15.25
	c2.76-0.496,5.422-0.916,7.977-1.262C189.829,63.648,189.829,108.666,189.829,108.666z"/>
<g>
	<path style="fill:#CCA75E;" d="M189.829,403.335c0,0,0,45.049-68.565,35.849c-2.533-0.345-5.163-0.755-7.89-1.251
		c0,0-1.929-6.536-2.997-15.67c-2.263-19.326-0.701-50.279,31.032-55.478c13.366-2.189,23.045-0.13,30.052,3.926
		c6.683,3.85,10.94,9.523,13.646,15.056C189.495,394.728,189.829,403.335,189.829,403.335z"/>
	<path style="fill:#CCA75E;" d="M185.194,126.052c-2.662,5.522-6.866,11.195-13.474,15.088c-1.229-1.585-1.876-3.613-1.66-5.759
		c0.388-3.786-1.423-10.526-6.284-16.393c-3.664-4.432-10.445-9.912-21.914-10.893c-16.449-1.402-26.182-9.987-31.432-18.777
		c1.078-8.909,2.942-15.25,2.942-15.25c2.76-0.496,5.422-0.916,7.977-1.262c0.022,0.086,0.032,0.183,0.043,0.28
		c0.248,1.812,2.878,17.267,21.849,18.896c17.041,1.457,27.346,9.868,32.983,16.673
		C180.548,113.886,183.664,120.011,185.194,126.052z"/>
</g>
<g>
	<path style="fill:#FBD476;" d="M185.108,385.766c-1.563,5.932-4.635,11.939-8.882,17.062c-5.637,6.805-15.942,15.228-32.983,16.684
		c-19.014,1.618-21.612,17.137-21.849,18.896c-0.032,0.27-0.075,0.529-0.13,0.776c-2.533-0.345-5.163-0.755-7.89-1.251
		c0,0-1.929-6.536-2.997-15.67c5.228-8.812,14.972-17.461,31.485-18.874c11.469-0.981,18.249-6.461,21.914-10.882
		c4.861-5.867,6.673-12.608,6.284-16.393c-0.194-1.984,0.345-3.883,1.401-5.403C178.145,374.561,182.402,380.234,185.108,385.766z"
		/>
	<path style="fill:#FBD476;" d="M93.758,265.526c0,0-2.727,66.746-62.762,63.747c-60.035-2.999-20.583-63.747,15.437-63.747
		c-36.021,0-75.472-60.749-15.437-63.747S93.758,265.526,93.758,265.526z"/>
</g>
<path style="fill:#CCA75E;" d="M55.875,265.844c-0.005-0.219-0.006-0.439-0.002-0.659c0.02-1.029-0.566-1.984-1.528-2.352
	c-25.638-9.816-46.183-43.837-21.999-56.429c2.327-1.211,1.425-4.76-1.194-4.634c-0.052,0.002-0.103,0.005-0.156,0.007
	c-60.035,2.998-20.583,63.747,15.437,63.747c-36.021,0-75.472,60.749-15.437,63.748c0.052,0.002,0.104,0.005,0.156,0.007
	c2.62,0.125,3.521-3.422,1.194-4.634c-24.185-12.592-3.638-46.615,22-56.43C55.316,267.846,55.902,266.882,55.875,265.844z"/>
<path style="fill:#FBD476;" d="M474.782,256c0,10.235-0.905,20.287-2.652,30.069c-1.628,9.114-3.977,17.99-7.006,26.596
	c-26.02,74.137-101.721,127.76-191.056,127.76c-29.114,0-56.772-5.695-81.737-15.951c-12.073-4.939-23.498-10.946-34.169-17.892
	C106.842,373.169,73.352,318.176,73.352,256c0-101.854,89.864-184.424,200.714-184.424C384.917,71.576,474.782,154.147,474.782,256z
	"/>
<path style="fill:#E1E9F2;" d="M465.124,312.665c-26.02,74.137-101.721,127.76-191.056,127.76c-29.114,0-56.772-5.695-81.737-15.951
	c26.02-74.137,101.721-127.749,191.056-127.749C412.49,296.725,440.159,302.419,465.124,312.665z"/>
<path style="fill:#CCA75E;" d="M95.832,256c0-98.388,83.853-178.772,189.476-184.131c-3.722-0.189-7.469-0.294-11.242-0.294
	c-110.853,0-200.718,82.57-200.718,184.424s89.864,184.424,200.718,184.424c3.773,0,7.52-0.104,11.242-0.294
	C179.685,434.772,95.832,354.388,95.832,256z"/>
<ellipse style="fill:#E1E9F2;" cx="387.992" cy="215.835" rx="31.763" ry="31.778"/>
<circle style="fill:#B06750;" cx="396.08" cy="215.824" r="8.084"/>
<g>
	<circle style="fill:#C97E67;" cx="310.2" cy="152.2" r="8.084"/>
	<circle style="fill:#C97E67;" cx="356.228" cy="136.015" r="8.084"/>
	<circle style="fill:#C97E67;" cx="296.553" cy="201.676" r="8.084"/>
	<circle style="fill:#C97E67;" cx="231.101" cy="136.015" r="8.084"/>
	<circle style="fill:#C97E67;" cx="282.144" cy="116.914" r="8.084"/>
	<circle style="fill:#C97E67;" cx="239.189" cy="188.145" r="8.084"/>
	<circle style="fill:#C97E67;" cx="205.428" cy="229.596" r="8.084"/>
	<circle style="fill:#C97E67;" cx="157.843" cy="193.589" r="8.084"/>
	<path style="fill:#C97E67;" d="M496.21,256h-47.073v19.17c0,10.17,8.241,18.415,18.406,18.415h39.36
		c2.815,0,5.097-2.283,5.097-5.099v-16.687C512.001,263.073,504.931,256,496.21,256z"/>
</g>
<path style="fill:#E8C1B5;" d="M496.21,256h-47.073v-19.17c0-10.17,8.241-18.415,18.406-18.415h39.36
	c2.815,0,5.097,2.283,5.097,5.099v16.686C512.001,248.928,504.931,256,496.21,256z"/>
<path style="fill:#B06750;" d="M489.106,293.587h-21.558c-10.175,0-18.41-8.251-18.41-18.421V256h21.558v19.166
	C470.696,285.336,478.931,293.587,489.106,293.587z"/>
<path style="fill:#CCA295;" d="M489.106,218.414c-10.175,0-18.41,8.251-18.41,18.421V256h-21.558v-19.166
	c0-10.17,8.235-18.421,18.41-18.421H489.106z"/>
<g>
</g>
<g>
</g>
<g>
</g>
<g>
</g>
<g>
</g>
<g>
</g>
<g>
</g>
<g>
</g>
<g>
</g>
<g>
</g>
<g>
</g>
<g>
</g>
<g>
</g>
<g>
</g>
<g>
</g>
</svg>
