<?xml version="1.0" encoding="iso-8859-1"?>
<!-- Generator: Adobe Illustrator 19.0.0, SVG Export Plug-In . SVG Version: 6.00 Build 0)  -->
<svg version="1.1" id="Layer_1" xmlns="http://www.w3.org/2000/svg" xmlns:xlink="http://www.w3.org/1999/xlink" x="0px" y="0px"
	 viewBox="0 0 512 512" style="enable-background:new 0 0 512 512;" xml:space="preserve">
<path style="fill:#7FD3E3;" d="M512,110.872c0,9.82-2.652,19.016-7.286,26.92c-4.635,7.904-11.254,14.504-19.164,19.124
	c-7.89,4.609-17.063,7.246-26.872,7.246c-1.778,0-3.384,0.721-4.56,1.884c-1.154,1.163-1.876,2.778-1.876,4.555v69.549
	c0,73.114-59.306,132.378-132.463,132.378H42.986v-23.354c0-75.988,61.634-137.59,137.668-137.59h136.526
	c22.323,0,40.421-18.079,40.421-40.389v-3.79c0-38.786,31.452-70.228,70.268-70.228h70.419C505.866,97.175,512,103.313,512,110.872z
	"/>
<g>
	<path style="fill:#349FB5;" d="M202.215,211.583h-21.558c-76.036,0-137.676,61.603-137.676,137.593v23.355h21.558v-23.355
		C64.539,273.185,126.179,211.583,202.215,211.583z"/>
	<path style="fill:#349FB5;" d="M379.155,171.195v-3.789c0-38.788,31.462-70.231,70.274-70.231H427.87
		c-38.811,0-70.274,31.444-70.274,70.231v3.789c0,22.305-18.093,40.387-40.411,40.387h21.558
		C361.062,211.583,379.155,193.5,379.155,171.195z"/>
</g>
<path style="fill:#FBD476;" d="M498.292,97.175c7.57,0,13.708,6.134,13.708,13.7l0,0c0,19.635-10.63,36.797-26.457,46.036
	c-0.722-14.116-3.395-32.109-12.145-35.996c-8.571-3.809-10.382-14.986-10.373-23.74H498.292z"/>
<path style="fill:#E1E9F2;" d="M452.241,184.932v55.218c0,73.114-59.306,132.378-132.463,132.378H155.756l0,0
	c0-16.347,13.266-29.6,29.631-29.6h124.476c62.525,0,113.212-50.634,113.212-113.093V214.07
	C423.074,197.977,436.132,184.932,452.241,184.932L452.241,184.932z"/>
<ellipse style="fill:#3F5666;" cx="435.054" cy="119.212" rx="8.084" ry="8.076"/>
<path style="fill:#3DBAD4;" d="M40.617,362.259h93.145c2.38,0,4.309,1.929,4.309,4.309v1.089c0,26.049-21.117,47.167-47.166,47.167
	H4.784c-2.642,0-4.784-2.142-4.784-4.784v-7.164C0,380.445,18.185,362.259,40.617,362.259z"/>
<path style="fill:#349FB5;" d="M21.558,410.043v-7.187c0-22.42,18.195-40.595,40.638-40.595H40.638
	C18.195,362.259,0,380.435,0,402.856v7.187c0,2.64,2.143,4.781,4.787,4.781h21.558C23.7,414.824,21.558,412.683,21.558,410.043z"/>
<path style="fill:#7FD3E3;" d="M370.959,312.889v48.262h46.804c25.534,0,46.234,20.687,46.234,46.206v3.176
	c0,2.369-1.922,4.29-4.292,4.29H338.426c-17.017,0-30.812-13.786-30.812-30.793v-51.226L370.959,312.889z"/>
<path style="fill:#349FB5;" d="M329.172,384.031v-30.314c0-9.764-9.49-16.718-18.813-13.787l0,0
	c-1.633,0.513-2.745,2.026-2.745,3.738v40.364c0,17.007,13.801,30.793,30.826,30.793h21.544
	C342.967,414.824,329.172,401.038,329.172,384.031z"/>
<g>
</g>
<g>
</g>
<g>
</g>
<g>
</g>
<g>
</g>
<g>
</g>
<g>
</g>
<g>
</g>
<g>
</g>
<g>
</g>
<g>
</g>
<g>
</g>
<g>
</g>
<g>
</g>
<g>
</g>
</svg>
