<?xml version="1.0" encoding="iso-8859-1"?>
<!-- Generator: Adobe Illustrator 19.0.0, SVG Export Plug-In . SVG Version: 6.00 Build 0)  -->
<svg version="1.1" id="Layer_1" xmlns="http://www.w3.org/2000/svg" xmlns:xlink="http://www.w3.org/1999/xlink" x="0px" y="0px"
	 viewBox="0 0 511.998 511.998" style="enable-background:new 0 0 511.998 511.998;" xml:space="preserve">
<path style="fill:#2F3F4A;" d="M51.197,182.556c0,0-36.217,0.778-49.744,32.32S73.888,188.536,51.197,182.556z"/>
<g>
	<path style="fill:#232F38;" d="M100.665,316.419l4.925,75.187c0.144,2.195,1.599,3.884,3.345,3.884h53.162
		c2.115,0,3.856-2.097,3.952-4.761l0.155-4.257c0.146-4.05-1.204-7.957-3.657-10.577l-7.89-8.43
		c-2.895-3.093-4.22-7.933-3.454-12.619l7.918-48.478L100.665,316.419z"/>
	<path style="fill:#232F38;" d="M300.352,278.882l-26.219,79.733c-0.634,1.928,0.095,4.071,1.73,5.091l14.892,9.288
		c1.121,0.699,1.85,1.956,1.947,3.356l0.999,14.593c0.168,2.454-1.623,4.546-3.891,4.546H232.5c-2.316,0-4.122-2.174-3.881-4.673
		l11.255-116.696L300.352,278.882z"/>
</g>
<g>
	<path style="fill:#3F5666;" d="M476.118,244.604l-42.837,1.525c-19.13,0.681-37.724,6.499-53.826,16.844l-25.417,16.329
		l9.95,77.078c0.171,1.354,0.981,2.536,2.194,3.183l20.394,10.954c1.254,0.677,2.083,1.94,2.204,3.355l1.537,17.006
		c0.223,2.475-1.739,4.608-4.227,4.608h-51.422c-1.851,0-3.478-1.192-4.045-2.951l-25.085-78.846l-20.405-17.572
		c-44.52,22.28-117.401,37.032-151.695,35.531l-40.65-0.385c-39.536-2.471-67.421-32.135-67.421-71.722v-3.186
		c0-65.4,53.052-118.416,118.495-118.416h258.799l36.898-1.162c12.053,1.741,20.219,26.274,28.18,35.484l18.949,5.007
		c15.309,4.045,25.796,18.115,25.291,33.932l-0.018,0.565C511.356,230.823,495.172,245.65,476.118,244.604z"/>
	<path style="fill:#3F5666;" d="M400.72,252.451c0,0-46.262,10.488-74.273-21.618"/>
</g>
<ellipse style="fill:#232F38;" cx="438.701" cy="169.095" rx="8.084" ry="8.079"/>
<path style="fill:#3F5666;" d="M378.255,150.048c0,0-7.998-28.005,11.537-32.856c11.692-2.904,22.292,3.129,20.714,23.235
	L378.255,150.048z"/>
<path style="fill:#232F38;" d="M383.806,142.413c0,0-4.607-16.133,6.646-18.927c6.735-1.673,12.842,1.802,11.933,13.385
	L383.806,142.413z"/>
<path style="fill:#3F5666;" d="M41.459,196.745C20.24,223.513,17.451,329.629,17.451,329.629v61.628
	c0,2.337,1.409,4.233,3.146,4.233h51.425c3.096,0,5.559-3.494,5.395-7.654l-0.256-6.491c-0.141-3.583-1.55-6.859-3.787-8.812l0,0
	c-3.511-3.065-4.789-9.158-2.985-14.239l2.614-7.366c0,0,20.582-39.507,45.587-68.558L41.459,196.745z"/>
<g>
	<path style="fill:#2F3F4A;" d="M41.457,196.742c-4.279,7.325-7.793,15.167-10.434,23.386
		C33.868,210.227,37.317,201.976,41.457,196.742z"/>
	<path style="fill:#2F3F4A;" d="M164.714,137.938c-52.956,0-97.787,34.717-112.974,82.609
		c-11.641,40.837-13.442,109.087-13.442,109.087v61.626c0,2.337,1.401,4.233,3.147,4.233H20.599c-1.736,0-3.147-1.895-3.147-4.233
		v-61.626c0,0,1.369-52.104,9.486-92.499c1.196-5.957,2.544-11.656,4.053-16.901c0.01-0.032,0.022-0.074,0.032-0.108
		c2.64-8.219,6.154-16.061,10.434-23.386c20.545-35.17,58.713-58.804,102.41-58.804h20.847V137.938z"/>
	<path style="fill:#2F3F4A;" d="M30.99,220.234c-1.509,5.246-2.857,10.944-4.053,16.901
		C27.875,231.352,29.233,225.706,30.99,220.234z"/>
	<path style="fill:#2F3F4A;" d="M351.47,392.534l-23.649-74.329c-0.939-2.954-2.681-5.588-5.03-7.612l-8.591-7.399
		c-4.901-4.22-11.786-5.24-17.705-2.631c-1.358,0.599-2.737,1.191-4.13,1.777l13.175,11.347l25.086,78.846
		c0.566,1.759,2.194,2.951,4.045,2.951h20.845C353.664,395.484,352.036,394.292,351.47,392.534z"/>
</g>
<g>
</g>
<g>
</g>
<g>
</g>
<g>
</g>
<g>
</g>
<g>
</g>
<g>
</g>
<g>
</g>
<g>
</g>
<g>
</g>
<g>
</g>
<g>
</g>
<g>
</g>
<g>
</g>
<g>
</g>
</svg>
