<?xml version="1.0" encoding="iso-8859-1"?>
<!-- Generator: Adobe Illustrator 19.0.0, SVG Export Plug-In . SVG Version: 6.00 Build 0)  -->
<svg version="1.1" id="Layer_1" xmlns="http://www.w3.org/2000/svg" xmlns:xlink="http://www.w3.org/1999/xlink" x="0px" y="0px"
	 viewBox="0 0 512 512" style="enable-background:new 0 0 512 512;" xml:space="preserve">
<g>
	<path style="fill:#7A4533;" d="M466.789,215.577c-1.755,4.583-4.724,7.688-7.96,9.793c-8.822,5.738-20.884,1.373-24.002-8.687
		c-1.143-3.687-1.442-7.974,0.132-12.62c0.949-2.801,2.681-5.886,4.862-9.043c9.334-13.509,30.438-5.878,28.999,10.487
		C468.483,209.332,467.848,212.814,466.789,215.577z"/>
	<path style="fill:#7A4533;" d="M382.658,351.538l-31.425,32.74c-6.931,7.167-4.389,19.084,4.862,22.79l0.527,0.211
		c3.78,1.514,6.259,5.181,6.259,9.257l0,0c0,3.671-2.972,6.647-6.637,6.647h-46.581c-13.71,0-22.188-14.967-15.153-26.751
		l33.471-63.242L382.658,351.538z"/>
	<path style="fill:#7A4533;" d="M141.262,326.686l30.237,76.597c4.741,12.01,16.329,19.9,29.226,19.9h40.765
		c5.948,0,10.769-4.828,10.769-10.784l0,0c0-3.577-1.771-6.921-4.729-8.928l-4.755-2.035c-10.579-4.528-18.452-13.727-21.302-24.888
		l-7.5-29.378L141.262,326.686z"/>
</g>
<path style="fill:#F2E5CB;" d="M109.297,319.293c-16.643-4.932-50.316-18.89-74.817-47.547
	c-5.476-6.433-10.499-13.589-14.778-21.545c-3.859-7.177-7.103-15.025-9.518-23.574c-0.432-1.5-0.83-3.001-1.229-4.522
	c-2.123-8.01-3.881-16.257-5.26-24.513c-1.671-9.886-2.792-19.796-3.33-29.401c-0.485-8.765-0.496-17.282,0.022-25.279
	c1.961-30.169,11.361-52.89,30.181-54.013c22.28-1.328,29.944,13.384,34.007,45.269c0.938,7.339,1.671,15.587,2.36,24.762
	c0,0.065,0.01,0.14,0.01,0.205c0.55,7.329,1.056,15.241,1.606,23.746c0.41,6.575,0.852,13.504,1.336,20.778
	c0.097,1.544,0.237,3.054,0.41,4.544c0.992,8.841,3.062,16.644,5.939,23.531c3.589,8.603,8.462,15.77,14.088,21.76
	c19.628,20.897,48.408,27.277,64.189,29.22c10.23,1.263,18.917,8.463,21.386,18.489
	C181.732,324.851,144.393,329.687,109.297,319.293z"/>
<path style="fill:#D1C1A1;" d="M131.395,319.293c-16.643-4.932-50.316-18.89-74.817-47.547
	c-5.476-6.432-10.499-13.589-14.778-21.544c-3.859-7.177-7.103-15.026-9.518-23.574c-0.432-1.499-0.83-3-1.229-4.522
	c-2.123-8.009-3.881-16.255-5.26-24.513c-1.671-9.887-2.792-19.797-3.33-29.401c-0.485-8.766-0.496-17.282,0.021-25.28
	c1.66-25.528,8.648-45.72,22.16-52.009c-3.902-1.671-8.537-2.333-14.076-2.003c-18.821,1.122-28.22,23.844-30.182,54.012
	c-0.517,7.998-0.507,16.514-0.021,25.28c0.539,9.606,1.659,19.515,3.33,29.401c1.379,8.257,3.137,16.503,5.26,24.513
	c0.399,1.522,0.797,3.022,1.229,4.522c2.415,8.548,5.659,16.398,9.518,23.574c4.279,7.955,9.302,15.111,14.778,21.544
	c24.501,28.657,58.175,42.615,74.817,47.547c15.62,4.626,31.681,6.234,44.187,4.51C146.306,322.999,138.8,321.486,131.395,319.293z"
	/>
<path style="fill:#B8674D;" d="M66.948,159.131l-44.636,6.072L0.366,168.19c-0.485-8.769-0.496-17.278,0.022-25.282
	c1.961-30.169,11.361-52.884,30.181-54.006c5.54-0.335,10.175,0.334,14.066,1.995c11.803,5.049,16.891,19.308,19.941,43.273
	c0.938,7.334,1.671,15.586,2.36,24.755C66.937,158.99,66.948,159.066,66.948,159.131z"/>
<path style="fill:#91523D;" d="M44.636,90.898c-13.506,6.299-20.49,26.491-22.151,52.011c-0.464,7.085-0.507,14.583-0.172,22.295
	l-21.946,2.987c-0.485-8.769-0.496-17.278,0.022-25.282C2.35,112.739,11.75,90.024,30.57,88.903
	C36.11,88.568,40.745,89.236,44.636,90.898z"/>
<g>
	<path style="fill:#B8674D;" d="M70.302,208.203L8.953,222.102c-2.115-8.011-3.877-16.254-5.254-24.515l64.849-14.703
		c0.419,6.571,0.853,13.497,1.345,20.776C69.991,205.203,70.131,206.715,70.302,208.203z"/>
	<path style="fill:#B8674D;" d="M90.321,253.495L34.486,271.74c-5.486-6.428-10.507-13.579-14.779-21.544l56.531-18.463
		C79.831,240.335,84.705,247.508,90.321,253.495z"/>
	<path style="fill:#B8674D;" d="M507.764,269.578l-7.713,4.24c-8.446,4.648-18.056,19.856-27.665,19.169l-21.859-1.573
		l-24.58,77.214l10.308,25.175c1.43,3.518,4.235,6.291,7.759,7.712l14.403,5.767c3.78,1.514,6.259,5.172,6.259,9.249
		c0,1.841-0.745,3.507-1.942,4.706c-1.199,1.2-2.862,1.946-4.7,1.946h-36.367c-7.818,0-15.298-3.215-20.685-8.889l-43.335-45.666
		H136.492c-21.879,0-39.574-41.942,0.241-78.169c20.862-18.982,76.336-26.177,107.281-26.177h101.604
		c8.246,0,55.152-30.854,55.152-30.854c4.63-11.766,15.973-19.501,28.607-19.501h3.222c14.961,0,29.352,5.708,40.264,15.96
		l22.057,20.725l11.598,4.066C513.196,257.008,513.964,266.165,507.764,269.578z"/>
</g>
<g>
	<path style="fill:#91523D;" d="M423.616,414.295l-30.734-32.387c-8.046-8.478-19.217-13.279-30.901-13.279h-4.336l43.335,45.666
		c5.386,5.673,12.867,8.889,20.685,8.889h22.636C436.483,423.184,429.003,419.967,423.616,414.295z"/>
	<path style="fill:#91523D;" d="M160.823,291.915c20.862-18.982,74.881-27.632,105.825-27.632h-22.636
		c-30.946,0-86.418,7.194-107.281,26.176c-39.816,36.227-22.119,78.169-0.241,78.169h22.636
		C137.248,368.628,121.009,328.143,160.823,291.915z"/>
</g>
<ellipse style="fill:#7A4533;" cx="454.437" cy="247.045" rx="8.084" ry="8.09"/>
<path style="fill:#B8674D;" d="M118.697,317.452l-29.495,83.771c-3.774,10.722,4.169,21.961,15.522,21.961h39.159
	c5.794,0,10.492-4.704,10.492-10.506v-2.085c0-2.523-0.907-4.963-2.556-6.872l0,0c-3.493-4.044-2.419-10.277,2.226-12.915
	l76.821-43.636L118.697,317.452z"/>
<path style="fill:#91523D;" d="M111.838,401.223l27.564-78.285l-20.705-5.485l-29.495,83.769
	c-3.775,10.722,4.169,21.961,15.522,21.961h22.636C116.007,423.184,108.063,411.945,111.838,401.223z"/>
<path style="fill:#B8674D;" d="M437.08,205.189c0.876,4.83-0.052,9.027-1.726,12.507c-4.566,9.49-17.138,12.03-25.018,5.052
	c-2.888-2.558-5.367-6.066-6.429-10.854c-0.642-2.888-0.76-6.424-0.532-10.256c0.974-16.399,22.968-20.847,30.223-6.112
	C435.29,198.97,436.552,202.277,437.08,205.189z"/>
<path style="fill:#7A4533;" d="M431.835,206.995c0.601,3.316-0.036,6.199-1.186,8.589c-3.136,6.517-11.769,8.261-17.18,3.47
	c-1.983-1.756-3.685-4.165-4.416-7.454c-0.44-1.983-0.521-4.412-0.366-7.043c0.669-11.262,15.773-14.315,20.754-4.197
	C430.607,202.725,431.473,204.995,431.835,206.995z"/>
<g>
</g>
<g>
</g>
<g>
</g>
<g>
</g>
<g>
</g>
<g>
</g>
<g>
</g>
<g>
</g>
<g>
</g>
<g>
</g>
<g>
</g>
<g>
</g>
<g>
</g>
<g>
</g>
<g>
</g>
</svg>
