<?xml version="1.0" encoding="iso-8859-1"?>
<!-- Generator: Adobe Illustrator 19.0.0, SVG Export Plug-In . SVG Version: 6.00 Build 0)  -->
<svg version="1.1" id="Layer_1" xmlns="http://www.w3.org/2000/svg" xmlns:xlink="http://www.w3.org/1999/xlink" x="0px" y="0px"
	 viewBox="0 0 512 512" style="enable-background:new 0 0 512 512;" xml:space="preserve">
<path style="fill:#3F5666;" d="M121.761,222.697H73.575c-24.369,0-44.124,19.741-44.124,44.094v44.819l0,0
	C13.186,311.608,0,298.432,0,282.177v-26.109c0-31.755,25.761-57.498,57.538-57.498H97.62
	C110.952,198.571,121.761,209.372,121.761,222.697L121.761,222.697z"/>
<g>
	<path style="fill:#825732;" d="M319.351,434.067l-3.303,16.723c-0.428,2.178-2.329,3.741-4.543,3.741h-49.194
		c-2.793,0-4.972-2.408-4.705-5.176l2.689-27.828l13.814-142.834l62.532-23.601L301.457,414.3c-0.116,0.556-0.139,1.112-0.046,1.656
		c0.162,1.228,0.822,2.34,1.854,3.092l14.266,10.376C318.992,430.477,319.711,432.295,319.351,434.067z"/>
	<path style="fill:#825732;" d="M211.692,454.53h-39.621c-1.703,0-3.268-0.914-4.102-2.385l-15.332-26.925l-22.007-38.645
		c-0.185-0.324-0.325-0.683-0.428-1.042l-11.114-39.073l-10.581-42.397l81.48-15.344l-16.862,81.377
		c-0.173,0.811-0.127,1.645,0.139,2.431l13.768,41.829c0.023,0.082,0.057,0.162,0.093,0.243c0.405,1.066,1.193,1.934,2.19,2.467
		l20.06,10.515c1.193,0.626,2.051,1.725,2.388,3.034l4.508,18.042C217.023,451.646,214.763,454.53,211.692,454.53z"/>
</g>
<g>
	<path style="fill:#F2E5CB;" d="M211.692,454.53h-39.621c-1.703,0-3.268-0.914-4.102-2.385l-15.332-26.925l34.488-10.619
		c0.405,1.066,1.193,1.934,2.19,2.467l20.06,10.515c1.193,0.626,2.051,1.725,2.388,3.034l4.508,18.042
		C217.023,451.646,214.763,454.53,211.692,454.53z"/>
	<path style="fill:#F2E5CB;" d="M319.351,434.067l-3.303,16.723c-0.428,2.178-2.329,3.741-4.543,3.741h-49.194
		c-2.793,0-4.972-2.408-4.705-5.176l2.689-27.828l41.117-5.57c0.162,1.228,0.822,2.34,1.854,3.092l14.266,10.376
		C318.992,430.477,319.711,432.295,319.351,434.067z"/>
</g>
<path style="fill:#FBB071;" d="M512,127.617v3.691c0,15.44-10.327,45.732-25.783,45.732l-14.218,0.613l-43.182,1.86
	c-0.996,0.043-1.946,0.428-2.689,1.092l-52.338,46.733c-0.804,0.717-1.319,1.708-1.425,2.778
	c-1.007,10.097-0.863,20.27,0.424,30.338l21.31,148.419c0.043,0.344,0.13,0.678,0.237,0.99c0.377,1.023,1.078,1.883,2.016,2.452
	l22.658,13.343c1.423,0.851,2.296,2.389,2.296,4.057l-3.018,20.089c0,2.604-2.123,4.724-4.732,4.724h-49.756
	c-2.178,0-4.086-1.507-4.581-3.627l-6.931-28.891l-22.98-95.8c-0.485-2.066-2.307-3.54-4.43-3.627l-169.962-7.478
	c-1.251-0.053-2.468,0.398-3.384,1.249l-62.334,57.837c-0.874,0.807-2.026,1.27-3.222,1.27H46.512c-2.613,0-4.732,2.115-4.732,4.724
	v37.769c0,0.495,0.075,0.979,0.227,1.432c0.292,0.926,0.874,1.743,1.66,2.335l10.94,8.199c0.874,0.657,1.498,1.582,1.746,2.626
	l4.042,16.108c0.732,2.992-1.509,5.875-4.581,5.875H16.988c-2.607,0-4.721-2.11-4.721-4.714V348.957
	c0-1.829,1.046-3.497,2.705-4.272l32.358-15.161c1.66-0.774,2.727-2.443,2.727-4.272v-64.273c0-38.437,28.607-70.88,66.754-75.711
	l1.456-0.409l129.379-36.284c6.564-1.84,12.827-4.574,18.626-8.156c24.199-14.914,91.126-55.869,99.478-57.59h51.782
	c8.17,0,15.996,3.26,21.752,9.05l6.661,6.693c5.745,5.789,13.582,17.959,21.741,17.959l4.376,0.711l35.301,5.746
	C509.93,122.989,512,125.067,512,127.617z"/>
<g>
	<path style="fill:#CC894F;" d="M118.267,184.862l-0.302,0.248c-32.476,16.722-46.08,34.574-46.08,75.387v68.276
		c0,1.936-1.067,3.713-2.727,4.541l-32.358,16.098c-1.66,0.818-2.705,2.593-2.705,4.542V454.53H16.988
		c-2.608,0-4.721-2.109-4.721-4.724V348.958c0-1.829,1.046-3.497,2.705-4.272l32.358-15.161c1.66-0.774,2.727-2.443,2.727-4.272
		v-64.273c0-38.437,28.607-70.88,66.754-75.711L118.267,184.862z"/>
	<path style="fill:#CC894F;" d="M374.115,431.542l-22.98-101.755c-0.485-2.196-2.307-3.764-4.43-3.856l-17.831-0.833
		c0.185,0.349,0.341,0.716,0.434,1.113l22.98,95.8l6.931,28.889c0.495,2.12,2.403,3.63,4.581,3.63h15.508L374.115,431.542z"/>
</g>
<g>
	<path style="fill:#F2E5CB;" d="M55.812,454.53H16.98c-2.607,0-4.717-2.119-4.717-4.725v-26.647l29.748-3.775
		c0.289,0.927,0.869,1.749,1.657,2.34l10.94,8.199c0.869,0.649,1.495,1.575,1.75,2.629l4.033,16.108
		C61.132,451.646,58.884,454.53,55.812,454.53z"/>
	<path style="fill:#F2E5CB;" d="M421.308,429.713l-3.025,20.092c0,2.606-2.121,4.725-4.728,4.725h-49.75
		c-2.179,0-4.091-1.506-4.589-3.625l-6.93-28.894l42.055-12.148c0.371,1.019,1.077,1.888,2.017,2.456l22.655,13.341
		C420.427,426.517,421.308,428.057,421.308,429.713z"/>
</g>
<path style="fill:#3F5666;" d="M512,127.618v3.683c0,15.446-10.327,45.735-25.783,45.735l-14.218,0.614
	c-1.574-19.281-0.874-43.042,0.065-60.406l35.301,5.742C509.93,122.987,512,125.066,512,127.618z"/>
<g>
	<ellipse style="fill:#825732;" cx="431" cy="113.591" rx="8.084" ry="8.071"/>
	<ellipse style="fill:#825732;" cx="297.117" cy="158.249" rx="8.084" ry="8.071"/>
	<ellipse style="fill:#825732;" cx="193.264" cy="198.624" rx="8.084" ry="8.071"/>
	<ellipse style="fill:#825732;" cx="222.584" cy="241.141" rx="8.084" ry="8.071"/>
	<ellipse style="fill:#825732;" cx="254.046" cy="198.624" rx="8.084" ry="8.071"/>
	<ellipse style="fill:#825732;" cx="305.194" cy="201.769" rx="8.084" ry="8.071"/>
	<ellipse style="fill:#825732;" cx="340.877" cy="158.249" rx="8.084" ry="8.071"/>
	<ellipse style="fill:#825732;" cx="162.461" cy="238.31" rx="8.084" ry="8.071"/>
</g>
<path style="fill:#FBB071;" d="M348.174,57.792l35.557,19.971c11.517,5.583,15.936,22.874,10.184,39.854l-2.17,6.407
	c-1.906,5.627-7.734,7.888-11.076,4.298l-40.402-26.145C324.79,86.625,336.304,53.87,348.174,57.792z"/>
<path style="fill:#825732;" d="M355.181,73.123l20.261,11.38c6.562,3.181,9.08,13.033,5.802,22.709l-1.236,3.651
	c-1.086,3.206-4.406,4.494-6.311,2.449l-23.021-14.897C341.857,89.552,348.418,70.888,355.181,73.123z"/>
<g>
</g>
<g>
</g>
<g>
</g>
<g>
</g>
<g>
</g>
<g>
</g>
<g>
</g>
<g>
</g>
<g>
</g>
<g>
</g>
<g>
</g>
<g>
</g>
<g>
</g>
<g>
</g>
<g>
</g>
</svg>
