<?xml version="1.0" encoding="iso-8859-1"?>
<!-- Generator: Adobe Illustrator 19.0.0, SVG Export Plug-In . SVG Version: 6.00 Build 0)  -->
<svg version="1.1" id="Layer_1" xmlns="http://www.w3.org/2000/svg" xmlns:xlink="http://www.w3.org/1999/xlink" x="0px" y="0px"
	 viewBox="0 0 512 512" style="enable-background:new 0 0 512 512;" xml:space="preserve">
<path style="fill:#FF5845;" d="M410.075,139.84c-25.061-9.346-47.654-14.634-67.821-17.061c-5.917-0.712-11.619-1.177-17.116-1.424
	c-19.564-0.895-36.497,0.95-50.845,4.176c-5.712,1.284-11.016,2.785-15.92,4.414c-30.428,10.155-45.271,25.436-45.271,25.436
	c-11.781-25.662-37.64-33.831-50.338-36.346c-3.244-0.648-4.592-4.565-2.415-7.069c11.361-13.057,24.726-23.03,38.965-30.605
	c5.907-3.141,11.965-5.87,18.087-8.245c18.077-6.992,36.746-10.824,53.884-12.787c8.214-0.939,16.072-1.457,23.347-1.673
	c23.864-0.734,41.488,1.63,44.711,2.104c0.355,0.043,0.69,0.14,1.024,0.27C395.48,83.378,410.075,139.84,410.075,139.84z"/>
<g>
	<path style="fill:#B53C2F;" d="M274.293,125.53c-5.712,1.284-11.016,2.785-15.92,4.414c-8.02-11.515-29.006-32.321-59.058-48.584
		c5.907-3.141,11.965-5.87,18.087-8.245c27.163,16.619,47.546,36.799,55.888,50.062C273.753,123.922,274.088,124.72,274.293,125.53z
		"/>
	<path style="fill:#B53C2F;" d="M342.254,122.778c-5.917-0.712-11.619-1.177-17.116-1.424
		c-6.521-13.597-25.018-39.185-53.852-61.026c8.214-0.939,16.072-1.457,23.347-1.673c19.768,17.656,39.806,41.202,47.136,60.411
		C342.232,120.286,342.383,121.558,342.254,122.778z"/>
</g>
<g>
	<path style="fill:#FF5845;" d="M468.287,239.051c-1.441,4.042,2.041,8.105,6.246,7.266c14.462-2.886,41.943-11.385,36.844-33.835
		C505.271,185.593,476.882,214.938,468.287,239.051z"/>
	<path style="fill:#FF5845;" d="M468.287,253.805c-1.441-4.042,2.041-8.105,6.246-7.266c14.462,2.886,41.943,11.385,36.844,33.835
		C505.271,307.262,476.882,277.917,468.287,253.805z"/>
</g>
<path style="fill:#FBD476;" d="M396.524,331.452c-0.732-1.339-2.033-2.257-3.54-2.49c-8.901-1.374-41.9-3.236-60.69,39.891
	c-16.724,38.387-27.851,63.468-32.157,73.135c-1.148,2.578,0.101,5.569,2.726,6.604c13.713,5.407,54.218,16.055,80.875-32.599
	C411.118,366.024,400.541,338.798,396.524,331.452z"/>
<path style="fill:#CCA75E;" d="M326.308,448.593c-2.625-1.034-3.874-4.026-2.726-6.604c4.306-9.666,15.433-34.747,32.157-73.134
	c10.984-25.211,26.822-35.045,39.865-38.593c-0.713-0.682-1.619-1.144-2.62-1.299c-8.901-1.374-41.9-3.236-60.69,39.891
	c-16.724,38.387-27.851,63.468-32.157,73.135c-1.148,2.578,0.101,5.569,2.726,6.604c7.014,2.766,21.038,6.898,36.633,3.77
	C334.017,451.35,329.455,449.834,326.308,448.593z"/>
<path style="fill:#FBD476;" d="M219.128,338.804l49.84,27.724c0,0-47.236,45.86-105.179,21.369c-2.459-1.04-3.567-3.913-2.49-6.357
	C167.688,367.049,190.123,322.67,219.128,338.804z"/>
<path style="fill:#CCA75E;" d="M189.658,387.897c-2.459-1.039-3.567-3.913-2.49-6.357c4.34-9.844,16.088-33.476,32.269-42.565
	l-0.307-0.17c-29.005-16.134-51.44,28.245-57.83,42.735c-1.077,2.443,0.031,5.317,2.49,6.357c17.233,7.284,33.52,8.344,47.898,6.239
	C204.579,393.077,197.21,391.089,189.658,387.897z"/>
<path style="fill:#FBD476;" d="M146.72,235.63c0,0-24.516,81.282-105.126,90.001c-3.414,0.371-6.457-2.18-6.781-5.596
	c-1.869-20.344-4.372-84.405,38.404-84.405c-41.205,0-83.157-88.654-71.121-113.073c0.758-1.536,2.369-2.486,4.077-2.365
	C85.966,125.844,146.72,235.63,146.72,235.63z"/>
<path style="fill:#CCA75E;" d="M80.161,235.858c-0.005-0.127-0.007-0.255-0.006-0.382c0.009-3.493-1.893-6.688-4.719-8.74
	c-30.99-22.496-55.884-81.421-48.128-102.607c-6.869-2.054-13.923-3.426-21.134-3.937c-1.708-0.121-3.321,0.829-4.078,2.367
	c-12.033,24.422,29.919,113.07,71.122,113.07c-42.776,0-40.274,64.061-38.404,84.405c0.325,3.417,3.368,5.967,6.781,5.596
	c6.927-0.749,13.429-2.045,19.547-3.768c-0.239-0.569-0.398-1.184-0.459-1.829c-1.451-15.796-3.279-57.941,15.998-75.995
	C78.951,241.912,80.276,238.967,80.161,235.858z"/>
<path style="fill:#FF5845;" d="M484.183,241.667c0,29.454-16.709,59.722-44.411,84.175c-34.261,30.246-85.322,51.604-142.352,51.604
	c-95.114,0-173.622-115.457-185.272-133.438c-0.925-1.427-0.925-3.256,0-4.683c11.65-17.98,90.158-133.425,185.272-133.425
	c22.146,0,43.399,3.226,63.107,8.935C432.622,135.726,484.183,189.931,484.183,241.667z"/>
<path style="fill:#FBD476;" d="M482.379,258.639c-11.379-1.778-23.121-2.734-35.129-2.734c-80.383,0-148.902,82.452-175.231,118.845
	c8.307,1.738,16.785,2.696,25.403,2.696c57.028,0,108.089-21.359,142.352-51.604C462.167,306.074,477.373,282.505,482.379,258.639z"
	/>
<path style="fill:#B53C2F;" d="M139.366,244.123c-0.925-1.497-0.925-3.415,0-4.913c9.886-16.004,67.919-105.613,143.385-132.39
	c-88.412,10.822-159.556,115.459-170.602,132.505c-0.925,1.427-0.925,3.256,0,4.683c11.045,17.046,82.191,121.696,170.605,132.517
	C207.286,349.748,149.252,260.129,139.366,244.123z"/>
<ellipse style="fill:#F2E5CB;" cx="410.071" cy="207.35" rx="23.256" ry="23.272"/>
<ellipse style="fill:#451712;" cx="413.697" cy="207.329" rx="8.084" ry="8.094"/>
<path style="fill:#B53C2F;" d="M429.843,294.084c-1.111-16.706-42.512-37.156-60.266-45.173
	c-20.028-9.044-32.714-25.166-37.705-47.904c-3.881-17.655-1.498-32.892-1.476-33.076c0.722-4.403-2.253-8.558-6.651-9.292
	c-4.408-0.734-8.569,2.256-9.303,6.659c-0.118,0.723-2.889,18,1.509,38.601c5.972,27.918,22.216,48.585,46.974,59.774
	c43.267,19.533,50.251,31.274,50.952,32.666c0.787,3.68,4.064,6.378,7.89,6.378c0.183,0,0.367-0.011,0.55-0.022
	C426.771,302.404,430.145,298.54,429.843,294.084z"/>
<g>
</g>
<g>
</g>
<g>
</g>
<g>
</g>
<g>
</g>
<g>
</g>
<g>
</g>
<g>
</g>
<g>
</g>
<g>
</g>
<g>
</g>
<g>
</g>
<g>
</g>
<g>
</g>
<g>
</g>
</svg>
