<?xml version="1.0" encoding="iso-8859-1"?>
<!-- Generator: Adobe Illustrator 19.0.0, SVG Export Plug-In . SVG Version: 6.00 Build 0)  -->
<svg version="1.1" id="Layer_1" xmlns="http://www.w3.org/2000/svg" xmlns:xlink="http://www.w3.org/1999/xlink" x="0px" y="0px"
	 viewBox="0 0 512 512" style="enable-background:new 0 0 512 512;" xml:space="preserve">
<path style="fill:#3F5666;" d="M256.004,133.318c0,0-25.654-31.579-55.632-40.072c-4.291-1.215-8.499,2.157-8.176,6.603
	c0.563,7.746,1.951,19.932,5.365,32.41c7.854,28.705,48.285,30.466,58.018,2.342C255.724,134.176,255.866,133.749,256.004,133.318z"
	/>
<path style="fill:#C97E67;" d="M242.584,134.449c-1.265-1.525-15.645-18.512-32.316-23.216c-2.485-0.701-4.908,1.273-4.72,3.847
	c0.333,4.579,1.161,11.828,3.218,19.213c4.641,16.655,28.121,17.243,33.704,0.88c0.054-0.158,0.107-0.318,0.159-0.478
	C242.657,134.611,242.641,134.517,242.584,134.449z"/>
<path style="fill:#3F5666;" d="M256.004,133.318c0,0,25.654-31.579,55.632-40.072c4.291-1.215,8.499,2.157,8.176,6.603
	c-0.563,7.746-1.951,19.932-5.365,32.41c-7.854,28.705-48.285,30.466-58.018,2.342C256.283,134.176,256.141,133.749,256.004,133.318
	z"/>
<path style="fill:#C97E67;" d="M269.424,134.449c1.265-1.525,15.645-18.512,32.316-23.216c2.485-0.701,4.908,1.273,4.72,3.847
	c-0.333,4.579-1.161,11.828-3.218,19.213c-4.641,16.655-28.121,17.243-33.704,0.88c-0.054-0.158-0.107-0.318-0.159-0.478
	C269.349,134.611,269.366,134.517,269.424,134.449z"/>
<path style="fill:#3F5666;" d="M510.118,127.127c-22.116,15.087-61.18,50.549-54.792,109.904c0.353,3.199,0.823,6.452,1.444,9.791
	c0.247,1.337-0.909,2.515-2.247,2.301c-3.97-0.631-8.249-1.07-12.754-1.262c-40.723-1.798-98.982,17.003-97.098,111.478
	c-54.739-6.922-75.924,27.511-86.806,58.35c-0.31,0.877-1.091,1.316-1.862,1.316c-0.77,0-1.552-0.439-1.862-1.316
	c-10.882-30.839-32.067-65.273-86.806-58.35c0.845-42.556-10.507-69.757-26.963-86.642c-0.268-0.278-0.545-0.557-0.823-0.813
	c-2.718-2.718-5.575-5.147-8.517-7.33c-1.188-0.866-2.387-1.712-3.606-2.504c-1.209-0.792-2.44-1.53-3.67-2.258
	c-1.241-0.706-2.504-1.391-3.755-2.032c-15.386-7.844-32.323-10.316-47.206-9.984c-0.514,0-1.017,0.021-1.53,0.043
	c-0.331,0.01-0.653,0.021-0.974,0.031c-0.161,0.011-0.31,0.011-0.471,0.022c-0.909,0.032-1.797,0.096-2.685,0.161
	c-0.823,0.053-1.637,0.127-2.45,0.203c-1.07,0.086-2.14,0.204-3.178,0.332c-0.696,0.074-1.37,0.16-2.044,0.267
	c-0.664,0.085-1.305,0.182-1.936,0.288l-0.032,0.01c-1.358,0.193-2.493-0.995-2.247-2.343l0.032-0.171
	c0.214-1.135,0.406-2.258,0.567-3.371c0.171-1.048,0.321-2.087,0.46-3.114c0.118-0.92,0.235-1.84,0.331-2.76
	c0.022-0.097,0.032-0.204,0.043-0.3c0.032-0.289,0.053-0.578,0.086-0.867c0.032-0.417,0.075-0.823,0.118-1.23
	c0.192-2.097,0.321-4.173,0.406-6.206c0.032-0.963,0.064-1.915,0.075-2.846c0.77-52.712-34.785-84.685-55.488-98.798
	c-3.563-2.429-1.701-8.005,2.6-7.812l118.798,5.221c2.15,0.086,4.269,0.609,6.228,1.519l126.394,58.681l0.01,0.01l0.096,0.043
	l129.475-60.105l122.05-5.371C511.829,119.123,513.681,124.697,510.118,127.127z"/>
<path style="fill:#232F38;" d="M256.004,184.899v234.105c-0.77,0-1.552-0.439-1.862-1.316
	c-10.882-30.839-32.067-65.273-86.806-58.35c0.845-42.556-10.507-69.757-26.963-86.642c-0.267-0.278-0.545-0.557-0.823-0.813
	c-2.718-2.718-5.575-5.147-8.517-7.33c-1.188-0.866-2.387-1.712-3.606-2.504c-1.209-0.792-2.44-1.53-3.67-2.258
	c-1.241-0.706-2.504-1.391-3.755-2.032c-15.386-7.844-32.323-10.316-47.206-9.984c-0.514,0-1.017,0.021-1.53,0.043
	c-0.331,0.01-0.653,0.021-0.974,0.031c-0.161,0.011-0.31,0.011-0.471,0.022c-0.909,0.032-1.797,0.096-2.685,0.161
	c-0.823,0.053-1.637,0.127-2.45,0.203c-1.07,0.086-2.14,0.204-3.178,0.332c-0.696,0.074-1.37,0.16-2.044,0.267
	c-0.664,0.085-1.305,0.182-1.936,0.288l-0.032,0.01c-1.358,0.193-2.493-0.995-2.247-2.343l0.032-0.171
	c0.214-1.135,0.406-2.258,0.567-3.371c0.171-1.048,0.321-2.087,0.46-3.114c0.118-0.92,0.235-1.84,0.331-2.76
	c0.022-0.097,0.032-0.204,0.043-0.3c0.032-0.289,0.053-0.578,0.086-0.867c0.032-0.417,0.075-0.823,0.118-1.23
	c0.192-2.097,0.321-4.173,0.406-6.206c0.032-0.963,0.064-1.915,0.075-2.846c0.77-52.712-34.785-84.685-55.488-98.798
	c-3.563-2.429-1.701-8.005,2.6-7.812l118.798,5.221c2.15,0.086,4.269,0.609,6.228,1.519l126.394,58.681l0.01,0.01
	C255.961,184.77,256.004,184.834,256.004,184.899z"/>
<path style="fill:#182026;" d="M169.238,167.342L70.292,247.85c-4.522,0.192-8.823,0.643-12.807,1.274
	c-1.341,0.212-2.49-0.963-2.243-2.298c0.614-3.32,1.091-6.575,1.436-9.753l101.863-82.883c3.63-2.963,8.967-2.408,11.93,1.221
	C173.421,159.041,172.878,164.39,169.238,167.342z"/>
<path style="fill:#232F38;" d="M454.525,249.124c-3.966-0.628-8.253-1.07-12.754-1.261l-98.956-80.52
	c-3.641-2.952-4.184-8.301-1.233-11.931c2.962-3.63,8.3-4.185,11.93-1.221l101.817,82.838c0.346,3.199,0.823,6.463,1.439,9.799
	C457.014,248.16,455.865,249.336,454.525,249.124z"/>
<g>
	<path style="fill:#E8C1B5;" d="M135.019,135.454c13.238,16.11,40.211,34.345,68.242,49.431c0,0,20.729,14.766,52.741-0.096
		l-117.081-54.36C135.774,128.968,132.816,132.773,135.019,135.454z"/>
	<path style="fill:#E8C1B5;" d="M376.987,135.454c-13.238,16.11-40.211,34.345-68.242,49.431c0,0-20.729,14.766-52.741-0.096
		l117.081-54.36C376.233,128.968,379.191,132.773,376.987,135.454z"/>
</g>
<path style="fill:#2F3F4A;" d="M256.02,308.339h-0.031c-29.119,0-52.726-23.606-52.726-52.726v-70.712
	c0-29.119,23.606-52.726,52.726-52.726h0.031c29.119,0,52.726,23.606,52.726,52.726v70.712
	C308.745,284.733,285.139,308.339,256.02,308.339z"/>
<path style="fill:#233038;" d="M225.878,255.611v-70.708c0-38.002,17.742-46.333,41.433-51.503
	c-3.638-0.794-7.414-1.225-11.29-1.225h-0.036c-29.118,0-52.723,23.607-52.723,52.729v70.708c0,29.12,23.605,52.727,52.723,52.727
	h0.036c3.877,0,7.652-0.429,11.29-1.225C243.621,301.943,225.878,298.985,225.878,255.611z"/>
<circle style="fill:#C97E67;" cx="256" cy="191.415" r="8.481"/>
<g>
	<path style="fill:#E8C1B5;" d="M206.332,278.596l-52.064,93.592c-1.899,3.413,2.715,6.672,5.301,3.746l71.007-80.353
		c3.439-3.891,4.677-9.304,3.105-14.251c-0.037-0.116-0.074-0.231-0.113-0.347C229.464,268.711,212.622,267.288,206.332,278.596z"/>
	<path style="fill:#E8C1B5;" d="M305.676,278.596l52.064,93.592c1.899,3.413-2.715,6.672-5.301,3.746l-71.007-80.353
		c-3.439-3.891-4.677-9.304-3.105-14.251c0.037-0.116,0.074-0.231,0.113-0.347C282.543,268.711,299.386,267.288,305.676,278.596z"/>
</g>
<g>
</g>
<g>
</g>
<g>
</g>
<g>
</g>
<g>
</g>
<g>
</g>
<g>
</g>
<g>
</g>
<g>
</g>
<g>
</g>
<g>
</g>
<g>
</g>
<g>
</g>
<g>
</g>
<g>
</g>
</svg>
