<?xml version="1.0" encoding="iso-8859-1"?>
<!-- Generator: Adobe Illustrator 19.0.0, SVG Export Plug-In . SVG Version: 6.00 Build 0)  -->
<svg version="1.1" id="Layer_1" xmlns="http://www.w3.org/2000/svg" xmlns:xlink="http://www.w3.org/1999/xlink" x="0px" y="0px"
	 viewBox="0 0 512.001 512.001" style="enable-background:new 0 0 512.001 512.001;" xml:space="preserve">
<path style="fill:#E8C1B5;" d="M512.001,343.885v0.77c0,14.8-11.975,26.806-26.735,26.806H273.463
	c57.632,0,46.604-87.598,85.74-99.006c39.137-11.418,57.266-21.766,57.266-21.766c11.868,0,10.556,18.566,21.004,23.404
	c13.768,6.356,25.7,16.565,34.152,29.749l20.907,9.919C504.2,319.283,511.926,330.947,512.001,343.885z"/>
<path style="fill:#CCA295;" d="M417.77,272.455c4.859-1.417,9.392-2.818,13.608-4.185c-4.535-7.257-6.056-17.581-14.908-17.581
	c0,0-18.129,10.349-57.266,21.766c-39.137,11.408-28.108,99.006-85.74,99.006h58.566
	C389.661,371.461,378.633,283.863,417.77,272.455z"/>
<path style="fill:#F2E5CB;" d="M416.47,250.689c0,0,11.399,20.695-27.738,32.114c-39.137,11.407-20.993,88.659-78.625,88.659H45.466
	c-25.369,0-44.452-23.178-39.681-48.166l-2.241-0.43c-4.266-0.819-4.85-6.711-0.823-8.346c7.815-3.171,18.373-5.628,19.745-10.282
	c2.209-7.47-17.333-22.569-14.429-29.6c2.968-7.17,27.418-3.937,31.078-10.615c3.725-6.785-12.093-25.768-7.695-32.018
	c4.45-6.304,27.557,2.332,32.669-3.381c5.113-5.725-5.955-27.822-0.203-32.916c5.731-5.073,26.244,8.667,32.573,4.259
	c6.254-4.367,0.522-28.421,7.332-32.093c6.681-3.605,23.586,14.405,30.78,11.493c7.023-2.846,6.649-27.576,14.12-29.727
	c7.268-2.087,20.064,19.068,27.727,17.667c7.428-1.348,11.911-25.672,19.691-26.357c7.502-0.653,16.18,22.515,23.992,22.515
	c5.891,0,12.455-23.307,18.068-22.922c5.881,0.406,9.146,24.419,14.717,25.211c5.838,0.823,15.646-21.307,21.142-20.097
	c5.764,1.252,5.475,25.49,10.875,27.095c5.646,1.691,18.645-18.716,23.896-16.705c5.508,2.119,1.611,26.036,6.692,28.433
	c5.347,2.526,21.239-15.699,26.116-12.938c5.176,2.932-2.209,26.014,2.434,29.117c4.984,3.316,23.341-12.402,27.717-9.01
	c4.781,3.713-5.795,25.522-1.729,29.16c4.622,4.141,25.017-8.807,28.699-4.998c4.579,4.72-9.019,24.815-5.891,28.582
	c5.051,6.075,15.826-0.544,23.101-1.801c3.045-0.526,5.005,3.159,2.926,5.45L416.47,250.689z"/>
<path style="fill:#D1C1A1;" d="M26.651,329.693c0.32-0.824,0.585-1.66,1.365-2.076c6.543-3.482,12.575-8.619,15.127-17.269
	c2.191-7.408,0.858-14.073-1.82-19.939c-0.595-1.302,0.054-2.859,1.396-3.354c5.992-2.21,11.611-5.926,15.297-12.65
	c3.66-6.668,3.82-13.364,2.516-19.589c-0.297-1.418,0.713-2.762,2.145-2.966c7.29-1.041,13.151-3.997,17.473-8.828
	c5.02-5.62,6.695-12.045,6.855-18.344c0.037-1.457,1.334-2.532,2.783-2.396c1.061,0.099,2.128,0.153,3.203,0.153
	c7.407,0,12.673-2.585,15.784-4.753c6.232-4.35,9.332-10.277,10.913-16.423c0.358-1.393,1.825-2.051,3.212-1.678
	c5.694,1.534,15.073-1.311,19.923-7.91c12.227-16.635,2.984-36.281,5.87-42.031c-7.471,2.15-7.097,26.88-14.12,29.727
	c-7.193,2.911-24.098-15.099-30.78-11.494c-6.81,3.672-1.078,27.727-7.332,32.093c-6.329,4.409-26.841-9.331-32.573-4.258
	c-5.752,5.093,5.315,27.19,0.203,32.916c-5.113,5.715-28.219-2.923-32.669,3.381c-4.397,6.248,11.42,25.233,7.695,32.017
	c-3.66,6.678-28.112,3.446-31.078,10.616c-2.903,7.031,16.639,22.13,14.429,29.6c-1.372,4.654-11.931,7.111-19.745,10.282
	c-4.027,1.633-3.443,7.526,0.823,8.345l2.241,0.43c-4.354,22.804,11.163,44.091,33.189,47.639
	C31.297,361.287,22.763,339.714,26.651,329.693z"/>
<ellipse style="fill:#997970;" cx="444.73" cy="317.314" rx="8.084" ry="8.093"/>
<path style="fill:#E8C1B5;" d="M422.377,265.654l0.348,0.377c10.017,10.869,9.359,27.829-1.489,37.881l-2.837,2.629
	c-3.937,3.649-10.011,3.686-13.988,0.08c-15.133-13.723-19.134-29.512-19.018-42.608c0.069-7.818,7.513-13.456,15.062-11.501l0,0
	C408.866,254.686,416.473,259.25,422.377,265.654z"/>
<path style="fill:#C97E67;" d="M415.313,271.362l0.195,0.211c5.617,6.094,5.247,15.603-0.835,21.24l-1.591,1.474
	c-2.208,2.046-5.613,2.067-7.843,0.045c-8.486-7.695-10.729-16.547-10.663-23.891c0.039-4.383,4.213-7.545,8.446-6.448l0,0
	C407.738,265.211,412.003,267.77,415.313,271.362z"/>
<g>
	<path style="fill:#B5A78B;" d="M53.62,340.118c-0.413,0-0.831-0.031-1.252-0.097l-20.634-3.21c-4.412-0.687-7.432-4.823-6.747-9.24
		c0.686-4.418,4.813-7.438,9.23-6.755l20.634,3.21c4.412,0.687,7.432,4.823,6.747,9.24C60.978,337.262,57.537,340.118,53.62,340.118
		z"/>
	<path style="fill:#B5A78B;" d="M64.278,304.806c-1.092,0-2.201-0.223-3.263-0.693l-20.99-9.285
		c-4.083-1.808-5.932-6.585-4.127-10.674c1.806-4.087,6.58-5.935,10.662-4.132l20.99,9.285c4.083,1.808,5.932,6.585,4.127,10.674
		C70.342,303.005,67.381,304.806,64.278,304.806z"/>
	<path style="fill:#B5A78B;" d="M80.995,274.128c-1.542,0-3.102-0.442-4.482-1.364l-17.816-11.908
		c-3.714-2.482-4.714-7.508-2.234-11.225c2.479-3.717,7.497-4.718,11.212-2.236l17.816,11.908c3.714,2.482,4.714,7.508,2.234,11.225
		C86.168,272.864,83.606,274.128,80.995,274.128z"/>
	<path style="fill:#B5A78B;" d="M104.165,249.198c-2.353,0-4.685-1.023-6.283-2.994L83.267,228.17
		c-2.813-3.471-2.283-8.568,1.185-11.384c3.466-2.819,8.559-2.284,11.371,1.186l14.615,18.035c2.813,3.471,2.283,8.568-1.185,11.384
		C107.755,248.607,105.953,249.198,104.165,249.198z"/>
	<path style="fill:#B5A78B;" d="M128.597,229.416c-3.074,0-6.011-1.764-7.365-4.748l-9.168-20.207
		c-1.846-4.07-0.048-8.868,4.018-10.715c4.066-1.844,8.858-0.047,10.704,4.022l9.168,20.207c1.846,4.07,0.048,8.868-4.018,10.715
		C130.851,229.183,129.715,229.416,128.597,229.416z"/>
	<path style="fill:#B5A78B;" d="M162.107,217.057c-3.742,0-7.1-2.615-7.903-6.427l-5.146-24.459
		c-0.921-4.374,1.876-8.666,6.244-9.587c4.369-0.921,8.656,1.878,9.576,6.251l5.146,24.459c0.921,4.374-1.876,8.666-6.244,9.587
		C163.22,216.999,162.659,217.057,162.107,217.057z"/>
	<path style="fill:#B5A78B;" d="M197.691,209.207c-4.465,0-8.084-3.623-8.084-8.093v-24.256c0-4.47,3.62-8.093,8.084-8.093
		s8.084,3.623,8.084,8.093v24.256C205.775,205.584,202.155,209.207,197.691,209.207z"/>
	<path style="fill:#B5A78B;" d="M234.912,210.992c-0.127,0-0.255-0.003-0.385-0.008c-4.46-0.21-7.906-3.998-7.697-8.463l1.05-22.456
		c0.209-4.466,3.974-7.887,8.453-7.706c4.46,0.21,7.906,3.998,7.697,8.463l-1.05,22.456
		C242.779,207.612,239.202,210.992,234.912,210.992z"/>
	<path style="fill:#B5A78B;" d="M263.871,214.203c-0.332,0-0.668-0.021-1.006-0.064c-4.43-0.55-7.577-4.592-7.026-9.028l2.68-21.605
		c0.55-4.437,4.582-7.593,9.019-7.034c4.43,0.55,7.577,4.592,7.026,9.028l-2.68,21.605
		C271.375,211.202,267.892,214.203,263.871,214.203z"/>
	<path style="fill:#B5A78B;" d="M288.153,220.917c-0.907,0-1.829-0.154-2.731-0.479c-4.203-1.51-6.385-6.145-4.877-10.352
		l7.013-19.555c1.509-4.208,6.137-6.397,10.34-4.882c4.203,1.51,6.385,6.145,4.877,10.352l-7.013,19.555
		C294.577,218.86,291.469,220.917,288.153,220.917z"/>
	<path style="fill:#B5A78B;" d="M312.591,230.611c-1.402,0-2.823-0.366-4.118-1.134c-3.839-2.281-5.104-7.247-2.826-11.091
		l9.726-16.408c2.279-3.845,7.236-5.112,11.078-2.831c3.839,2.281,5.104,7.247,2.826,11.091l-9.726,16.408
		C318.042,229.196,315.352,230.611,312.591,230.611z"/>
	<path style="fill:#B5A78B;" d="M337.706,245.589c-1.721,0-3.455-0.546-4.925-1.68c-3.538-2.725-4.199-7.806-1.476-11.35
		l10.465-13.613c2.723-3.542,7.799-4.205,11.337-1.477c3.538,2.725,4.199,7.806,1.476,11.35l-10.465,13.613
		C342.526,244.503,340.129,245.589,337.706,245.589z"/>
</g>
<g>
</g>
<g>
</g>
<g>
</g>
<g>
</g>
<g>
</g>
<g>
</g>
<g>
</g>
<g>
</g>
<g>
</g>
<g>
</g>
<g>
</g>
<g>
</g>
<g>
</g>
<g>
</g>
<g>
</g>
</svg>
