<?xml version="1.0" encoding="iso-8859-1"?>
<!-- Generator: Adobe Illustrator 19.0.0, SVG Export Plug-In . SVG Version: 6.00 Build 0)  -->
<svg version="1.1" id="Layer_1" xmlns="http://www.w3.org/2000/svg" xmlns:xlink="http://www.w3.org/1999/xlink" x="0px" y="0px"
	 viewBox="0 0 511.999 511.999" style="enable-background:new 0 0 511.999 511.999;" xml:space="preserve">
<g>
	<path style="fill:#FBD476;" d="M385.554,425.481c-2.311,0-4.605-0.983-6.206-2.891l-27.953-33.323
		c-2.87-3.422-2.421-8.52,1.004-11.388c3.424-2.868,8.528-2.419,11.399,1.003l27.953,33.323c2.87,3.422,2.421,8.52-1.004,11.388
		C389.232,424.862,387.388,425.481,385.554,425.481z"/>
	<path style="fill:#FBD476;" d="M339.215,437.67c-0.24,0-0.481-0.01-0.724-0.032c-4.451-0.395-7.74-4.32-7.345-8.767l3.728-41.988
		c0.395-4.448,4.335-7.736,8.775-7.338c4.451,0.395,7.74,4.32,7.345,8.767l-3.728,41.988
		C346.892,434.504,343.36,437.67,339.215,437.67z"/>
	<path style="fill:#FBD476;" d="M405.728,382.097c-0.239,0-0.48-0.01-0.723-0.032l-42.073-3.721
		c-4.451-0.394-7.741-4.318-7.347-8.766c0.394-4.448,4.33-7.732,8.773-7.34l42.073,3.721c4.451,0.394,7.741,4.318,7.347,8.766
		C413.406,378.929,409.874,382.097,405.728,382.097z"/>
	<path style="fill:#FBD476;" d="M100.414,109.05c-2.583,0-5.121-1.233-6.688-3.524L69.182,69.628
		c-2.52-3.686-1.573-8.717,2.117-11.235c3.69-2.519,8.725-1.573,11.245,2.115l24.544,35.897c2.52,3.686,1.573,8.717-2.117,11.236
		C103.575,108.593,101.985,109.05,100.414,109.05z"/>
	<path style="fill:#FBD476;" d="M115.354,106.981c-0.498,0-1.004-0.046-1.512-0.142c-4.391-0.83-7.278-5.058-6.448-9.445
		l7.837-41.421c0.831-4.386,5.06-7.267,9.453-6.442c4.391,0.83,7.278,5.058,6.448,9.445l-7.837,41.421
		C122.562,104.277,119.166,106.981,115.354,106.981z"/>
	<path style="fill:#FBD476;" d="M93.041,122.177c-0.497,0-1.002-0.046-1.509-0.141l-41.504-7.821
		c-4.392-0.828-7.28-5.055-6.451-9.443c0.829-4.386,5.058-7.272,9.451-6.446l41.504,7.821c4.392,0.828,7.28,5.055,6.451,9.443
		C100.251,119.47,96.855,122.177,93.041,122.177z"/>
	<path style="fill:#FBD476;" d="M352.011,109.152c-1.572,0-3.161-0.457-4.557-1.41c-3.691-2.518-4.637-7.548-2.117-11.236
		l24.544-35.897c2.52-3.686,7.555-4.635,11.245-2.115c3.691,2.518,4.637,7.548,2.117,11.235l-24.544,35.897
		C357.133,107.919,354.595,109.152,352.011,109.152z"/>
	<path style="fill:#FBD476;" d="M337.071,107.084c-3.813,0-7.208-2.704-7.941-6.584l-7.837-41.421
		c-0.83-4.388,2.057-8.616,6.448-9.445c4.393-0.829,8.624,2.054,9.453,6.442l7.837,41.421c0.83,4.388-2.057,8.616-6.448,9.445
		C338.075,107.038,337.569,107.084,337.071,107.084z"/>
	<path style="fill:#FBD476;" d="M359.384,122.279c-3.814,0-7.21-2.706-7.942-6.587c-0.829-4.388,2.061-8.615,6.451-9.443
		l41.504-7.821c4.394-0.824,8.623,2.058,9.451,6.446c0.829,4.388-2.061,8.615-6.451,9.443l-41.504,7.821
		C360.386,122.232,359.881,122.279,359.384,122.279z"/>
	<path style="fill:#FBD476;" d="M60.125,427.37c-1.834,0-3.677-0.62-5.193-1.888c-3.425-2.868-3.874-7.967-1.004-11.388
		l27.953-33.323c2.87-3.423,7.973-3.871,11.399-1.003c3.425,2.868,3.874,7.967,1.004,11.388L66.33,424.479
		C64.73,426.387,62.435,427.37,60.125,427.37z"/>
	<path style="fill:#FBD476;" d="M106.464,439.559c-4.145,0-7.677-3.166-8.05-7.371L94.686,390.2
		c-0.395-4.447,2.893-8.372,7.345-8.767c4.44-0.399,8.379,2.89,8.775,7.338l3.728,41.988c0.395,4.447-2.893,8.372-7.345,8.767
		C106.946,439.549,106.703,439.559,106.464,439.559z"/>
	<path style="fill:#FBD476;" d="M39.951,383.985c-4.146,0-7.678-3.167-8.05-7.372c-0.394-4.447,2.895-8.372,7.347-8.766
		l42.073-3.721c4.449-0.394,8.379,2.892,8.773,7.34c0.394,4.447-2.895,8.372-7.347,8.766l-42.073,3.721
		C40.432,383.975,40.19,383.985,39.951,383.985z"/>
</g>
<path style="fill:#B53C2F;" d="M219.403,176.651c0.444,4.844-1.843,9.294-5.595,11.857c-1.765,1.206-3.855,1.994-6.131,2.205
	l-12.867,1.46c-27.589,2.524-54.453-10.092-70.104-32.904l-10.477-15.27c-3.856-0.983-7.365-3.314-9.789-6.845L95.96,124.49
	c-2.179-3.175-3.117-6.832-2.93-10.395c0.257-5.101,2.82-10.027,7.38-13.129c7.723-5.265,18.269-3.288,23.559,4.423
	c0.006,0.009,0.006,0.009,0.013,0.018l8.479,12.664c2.274,3.332,3.19,7.187,2.886,10.921l10.746,15.662
	c10.349,15.084,28.115,23.427,46.36,21.762l12.861-1.469C212.449,164.304,218.754,169.544,219.403,176.651z"/>
<path style="fill:#FF5845;" d="M231.737,320.4c-0.917-4.777,0.922-9.43,4.403-12.349c1.637-1.373,3.64-2.361,5.886-2.794
	l12.661-2.713c27.208-5.213,55.182,4.714,73,25.883l11.928,14.171c3.934,0.602,7.656,2.577,10.413,5.854l9.683,11.773
	c2.48,2.947,3.773,6.494,3.937,10.058c0.246,5.101-1.821,10.255-6.054,13.788c-7.169,5.996-17.857,5.06-23.88-2.096
	c-0.007-0.008-0.007-0.008-0.014-0.017l-9.683-11.773c-2.589-3.094-3.881-6.84-3.946-10.587l-12.233-14.535
	c-11.781-13.999-30.282-20.562-48.275-17.12l-12.654,2.72C239.87,332.008,233.08,327.41,231.737,320.4z"/>
<path style="fill:#B53C2F;" d="M213.942,322.289c0.917-4.777-0.922-9.43-4.403-12.349c-1.637-1.373-3.64-2.361-5.886-2.794
	l-12.661-2.713c-27.208-5.213-55.182,4.714-73,25.883l-11.928,14.171c-3.934,0.602-7.656,2.577-10.413,5.853l-9.683,11.773
	c-2.48,2.947-3.773,6.494-3.937,10.058c-0.246,5.101,1.821,10.255,6.054,13.788c7.169,5.996,17.857,5.06,23.88-2.096
	c0.007-0.008,0.007-0.008,0.014-0.017l9.683-11.773c2.589-3.094,3.881-6.84,3.946-10.587l12.233-14.535
	c11.781-13.999,30.282-20.562,48.275-17.12l12.654,2.721C205.809,333.897,212.598,329.298,213.942,322.289z"/>
<g>
	<path style="fill:#FF5845;" d="M233.022,176.755c-0.444,4.844,1.843,9.294,5.595,11.858c1.765,1.206,3.855,1.994,6.131,2.205
		l12.867,1.46c27.589,2.524,54.453-10.092,70.104-32.904l10.477-15.27c3.856-0.983,7.366-3.314,9.789-6.845l8.479-12.664
		c2.179-3.175,3.117-6.832,2.93-10.395c-0.257-5.101-2.82-10.027-7.38-13.129c-7.723-5.265-18.269-3.288-23.559,4.423
		c-0.006,0.009-0.006,0.009-0.013,0.018l-8.479,12.664c-2.274,3.332-3.19,7.187-2.886,10.921l-10.746,15.662
		c-10.349,15.084-28.115,23.427-46.36,21.762l-12.861-1.469C239.976,164.406,233.671,169.647,233.022,176.755z"/>
	<ellipse style="fill:#FF5845;" cx="224.872" cy="186.085" rx="8.1" ry="8.084"/>
	<path style="fill:#FF5845;" d="M166.384,269.288c0.01,8.224,0.281,16.309,0.886,24.069c0.994,12.827,2.884,24.77,5.951,35.042
		c0.464,1.541,0.95,3.05,1.469,4.516c5.141,14.594,9.04,25.675,12,34.082c-1.328,4.71-1.803,9.723-1.242,14.821
		c3.424,49.4,27.606,85.11,62.178,106.484c10.249,6.349,21.407,11.426,33.211,15.22c24.107,7.782,50.902,10.24,78.065,7.233
		c34.81-3.859,65.742-13.689,90.388-40.711c23.793-26.064,31.548-56.933,30.792-91.285c-0.162-7.62,0.907-42.824-9.515-41.25
		c-11.675,1.778-8.241,32.196-9.504,41.25c-3.931,28.326-14.279,53.419-38.795,70.493c-23.814,16.577-47.543,16.19-74.696,13.807
		c-9.418-0.819-18.814-2.263-27.746-4.656c-12.129-3.255-23.394-8.257-32.703-15.823c-10.033-8.149-17.788-19.294-21.881-34.471
		c-3.1-11.469-2.775-25.126-4.483-37.327c3.089-8.784,7.387-20.965,13.338-37.866c0.518-1.466,1.004-2.975,1.459-4.516
		c3.078-10.283,4.969-22.226,5.962-35.042c0.605-7.76,0.875-15.845,0.886-24.069c0.01-11.544-0.486-23.39-1.328-35.031
		c-0.583-8.17-1.34-16.244-2.214-24.069c-1.372-12.578-3.034-24.489-4.698-35.042c-3.586-22.614-7.236-39.008-8.414-42.372
		c-3.597-10.175,5.983-23.929,10.185-46.651c4.191-22.733-16.179-29.307-20.38-58.012c-4.191-28.704-31.159-28.111-31.159-28.111
		s-26.969-0.592-31.159,28.111c-4.19,28.704-24.571,35.279-20.369,58.012c4.19,22.722,13.781,36.475,10.185,46.651
		c-1.188,3.364-4.839,19.758-8.424,42.372c-1.663,10.552-3.315,22.463-4.698,35.042c-0.875,7.825-1.631,15.899-2.214,24.069
		C166.869,245.908,166.372,257.743,166.384,269.288z"/>
</g>
<g>
	<path style="fill:#B53C2F;" d="M443.843,449.251c20.085-13.987,30.655-33.358,35.984-55.478c0.285-4.927,0.366-9.932,0.253-15.016
		c-0.162-7.62,0.907-42.825-9.515-41.25c-11.675,1.778-8.241,32.196-9.504,41.25c-3.931,28.326-14.279,53.419-38.795,70.493
		c-13.815,9.617-27.601,13.519-42.043,14.639C402.862,465.221,423.322,463.535,443.843,449.251z"/>
	<path style="fill:#B53C2F;" d="M302.412,503.522c-11.805-3.794-22.962-8.871-33.211-15.219
		c-34.573-21.374-58.754-57.085-62.178-106.484c-0.561-5.098-0.087-10.11,1.242-14.821c-2.959-8.407-6.859-19.488-12-34.082
		c-0.518-1.466-1.004-2.975-1.469-4.516c-3.068-10.272-4.957-22.216-5.951-35.042c-0.605-7.76-0.875-15.845-0.886-24.069
		c-0.01-11.544,0.486-23.38,1.328-35.031c0.583-8.17,1.34-16.244,2.214-24.069c1.382-12.578,3.034-24.489,4.698-35.042
		c3.586-22.614,7.236-39.008,8.424-42.372c3.597-10.175-5.995-23.929-10.185-46.651c-4.202-22.733,16.179-29.307,20.369-58.012
		c2.411-16.513,12.355-23.321,20.37-26.133c-5.919-2.076-10.789-1.978-10.789-1.978s-26.969-0.594-31.159,28.111
		c-4.19,28.704-24.571,35.279-20.369,58.012c4.19,22.722,13.781,36.475,10.185,46.651c-1.188,3.364-4.839,19.758-8.424,42.372
		c-1.663,10.552-3.315,22.463-4.698,35.042c-0.875,7.825-1.631,15.899-2.214,24.069c-0.842,11.652-1.34,23.487-1.328,35.031
		c0.01,8.224,0.281,16.309,0.886,24.069c0.994,12.827,2.884,24.77,5.951,35.042c0.464,1.541,0.95,3.05,1.469,4.516
		c5.141,14.595,9.04,25.675,12,34.082c-1.328,4.71-1.803,9.723-1.242,14.821c3.424,49.4,27.606,85.109,62.178,106.484
		c10.249,6.349,21.407,11.425,33.211,15.219c20.696,6.681,43.376,9.426,66.566,8.169
		C331.788,510.835,316.63,508.112,302.412,503.522z"/>
</g>
<g>
	<ellipse style="fill:#FBD476;" cx="224.872" cy="186.085" rx="8.1" ry="8.084"/>
	<ellipse style="fill:#FBD476;" cx="196.231" cy="72.088" rx="8.092" ry="8.084"/>
	<ellipse style="fill:#FBD476;" cx="253.93" cy="72.088" rx="8.092" ry="8.084"/>
	<ellipse style="fill:#FBD476;" cx="200.348" cy="220.117" rx="8.092" ry="8.084"/>
	<ellipse style="fill:#FBD476;" cx="248.539" cy="220.117" rx="8.092" ry="8.084"/>
	<ellipse style="fill:#FBD476;" cx="208.435" cy="145.25" rx="8.092" ry="8.084"/>
	<ellipse style="fill:#FBD476;" cx="240.441" cy="145.25" rx="8.092" ry="8.084"/>
	<ellipse style="fill:#FBD476;" cx="226.7" cy="249.583" rx="8.092" ry="8.084"/>
	<ellipse style="fill:#FBD476;" cx="224.903" cy="358.451" rx="8.092" ry="8.084"/>
	<ellipse style="fill:#FBD476;" cx="219.501" cy="406.109" rx="8.092" ry="8.084"/>
	<ellipse style="fill:#FBD476;" cx="252.018" cy="446.348" rx="8.092" ry="8.084"/>
	<ellipse style="fill:#FBD476;" cx="290.857" cy="477.956" rx="8.092" ry="8.084"/>
	<ellipse style="fill:#FBD476;" cx="200.348" cy="280.073" rx="8.092" ry="8.084"/>
	<ellipse style="fill:#FBD476;" cx="250.221" cy="280.073" rx="8.092" ry="8.084"/>
</g>
<g>
</g>
<g>
</g>
<g>
</g>
<g>
</g>
<g>
</g>
<g>
</g>
<g>
</g>
<g>
</g>
<g>
</g>
<g>
</g>
<g>
</g>
<g>
</g>
<g>
</g>
<g>
</g>
<g>
</g>
</svg>
