<?xml version="1.0" encoding="iso-8859-1"?>
<!-- Generator: Adobe Illustrator 19.0.0, SVG Export Plug-In . SVG Version: 6.00 Build 0)  -->
<svg version="1.1" id="Layer_1" xmlns="http://www.w3.org/2000/svg" xmlns:xlink="http://www.w3.org/1999/xlink" x="0px" y="0px"
	 viewBox="0 0 512 512" style="enable-background:new 0 0 512 512;" xml:space="preserve">
<path style="fill:#91523D;" d="M74.699,234.679c-14.355-0.471-53.834,2.678-74.312,48.474c-1.207,2.698,0.534,5.797,3.468,6.145
	c11.383,1.349,37.201,2.489,52.205-11.961c13.947-13.433,20.198-29.067,22.651-37.014C79.558,237.579,77.568,234.773,74.699,234.679
	z"/>
<g>
	<path style="fill:#7A4533;" d="M327.932,485.765l-3.073,16.14c-0.363,1.922-1.928,3.303-3.742,3.303h-36.214
		c-2.491,0-4.438-2.336-4.199-5.037l2.023-25.465l12.723-160.259l47.849-22.973l-33.214,176.679
		c-0.095,0.509-0.106,1.018-0.019,1.516c0.182,1.215,0.859,2.296,1.88,2.929l14.125,8.703
		C327.512,482.192,328.266,483.989,327.932,485.765z"/>
	<path style="fill:#7A4533;" d="M111.908,409.141v56.217c0,0.956,0.322,1.869,0.904,2.586c0.29,0.374,0.644,0.685,1.06,0.945
		l16.853,10.417c0.997,0.623,1.693,1.641,1.901,2.794l3.312,18.206c0.467,2.555-1.495,4.902-4.08,4.902H90.992
		c-2.293,0-4.15-1.86-4.15-4.155V386.78l12.886-70.071l82.55,15.578l-44.143,72.893c-0.716,1.183-1.955,1.95-3.332,2.064
		L111.908,409.141z"/>
</g>
<g>
	<path style="fill:#FBB071;" d="M131.855,505.207h-40.86c-2.295,0-4.153-1.859-4.153-4.155V472.43l25.97-4.487
		c0.29,0.374,0.644,0.685,1.06,0.945l16.853,10.417c0.997,0.623,1.693,1.641,1.901,2.794l3.312,18.206
		C136.403,502.86,134.44,505.207,131.855,505.207z"/>
	<path style="fill:#FBB071;" d="M327.932,485.765l-3.073,16.14c-0.363,1.922-1.928,3.303-3.742,3.303h-36.214
		c-2.491,0-4.438-2.336-4.199-5.037l2.023-25.465l27.339-5.037c0.182,1.215,0.859,2.296,1.88,2.929l14.125,8.703
		C327.512,482.192,328.266,483.989,327.932,485.765z"/>
</g>
<path style="fill:#B8674D;" d="M512,109.829v19.754c0,15.74-14.196,27.682-29.706,24.974l-52.019-9.073
	c0,0,5.724,94.603-5.217,144.563h-0.01c-2.328,10.681-5.432,19.322-9.518,24.566c-2.792,3.592-5.508,9.569-8.095,17.131
	c-14.314,41.837-24.781,131.994-24.781,131.994c0.065,0.508,0.215,0.994,0.442,1.435c0.28,0.539,0.679,1.004,1.164,1.381
	l21.547,16.419c1.304,0.993,1.898,2.666,1.52,4.273l-3.546,14.77c-0.442,1.878-2.102,3.193-4.031,3.193h-38.718
	c-2.113,0-3.977-1.456-4.463-3.528l-5.821-28.179l-1.671-112.792c-0.474-2.006-2.242-3.451-4.301-3.517l-206.913-7.303
	c-1.207-0.043-2.393,0.399-3.287,1.24l-60.643,56.315c-0.852,0.798-1.973,1.23-3.137,1.23H50.79c-2.544,0-4.603,2.061-4.603,4.596
	v56.315c0,0.744,0.194,1.477,0.529,2.115c0.302,0.604,0.754,1.143,1.314,1.563l10.639,7.984c0.841,0.636,1.456,1.554,1.703,2.557
	l3.924,15.696c0.722,2.903-1.456,5.707-4.451,5.707h-37.77c-2.544,0-4.592-2.061-4.592-4.595V382.868c0-1.79,1.024-3.408,2.63-4.164
	l13.107-14.759c1.606-0.766,2.64-2.384,2.64-4.153V297.21c0-37.436,27.82-69.012,64.932-73.727l157.901,1.435
	c31.852,0.29,60.341-19.775,70.806-49.864l25.32-72.842c5.185-14.888,19.219-24.866,34.978-24.866h28.047
	c7.944,0,15.565,3.171,21.159,8.802l6.478,6.527c5.594,5.631,13.215,8.802,21.148,8.802h37.014
	C508.259,101.478,512,105.212,512,109.829z"/>
<g>
	<path style="fill:#91523D;" d="M39.454,387.833c0-1.883,1.028-3.59,2.637-4.39l13.104-15.557c1.609-0.799,2.637-2.508,2.637-4.379
		v-65.978c0-33.904,20.553-63.239,49.878-73.985l-6.913-0.064c-37.111,4.715-64.939,36.297-64.939,73.727v62.583
		c0,1.775-1.028,3.396-2.637,4.155l-13.104,14.757c-1.609,0.758-2.637,2.378-2.637,4.165v117.751c0,2.535,2.055,4.59,4.59,4.59
		h17.384V387.833z"/>
	<path style="fill:#91523D;" d="M351.472,168.752l25.327-76.796c1.803-5.469,4.685-10.308,8.338-14.294
		c-13.811,1.75-25.653,11.146-30.313,24.549l-25.327,72.845c-7.783,22.386-25.546,39.214-47.244,46.249
		C313.463,220.906,341.184,199.947,351.472,168.752z"/>
	<path style="fill:#91523D;" d="M372.725,483.383l2.088-108.106c0.161-8.332-6.543-15.174-14.87-15.174h-11.062
		c0.077,0.199,0.149,0.398,0.2,0.61l1.671,112.786l5.815,28.176c0.488,2.077,2.347,3.532,4.465,3.532h15.966L372.725,483.383z"/>
</g>
<g>
	<path style="fill:#FBB071;" d="M407.323,487.24l-3.541,14.779c-0.446,1.869-2.108,3.188-4.04,3.188h-38.71
		c-2.118,0-3.977-1.454-4.465-3.531l-5.815-28.176l32.346-8.329c0.28,0.54,0.675,1.007,1.163,1.381l21.546,16.419
		C407.115,483.968,407.706,485.64,407.323,487.24z"/>
	<path style="fill:#FBB071;" d="M59.845,505.207H22.07c-2.544,0-4.589-2.056-4.589-4.601v-24.552l29.24-4.351
		c0.301,0.602,0.747,1.142,1.308,1.558l10.643,7.986c0.841,0.633,1.453,1.547,1.703,2.555l3.925,15.703
		C65.016,502.402,62.836,505.207,59.845,505.207z"/>
</g>
<path style="fill:#F2E5CB;" d="M421.531,302.755c-1.715,4.864-3.705,8.907-6.004,11.856c-2.792,3.592-5.508,9.569-8.095,17.131
	c0,0-45.993,10.356-62.658,25.45l-197.06-6.959c12.266-12.082,35.538-29.775,67.325-30.66
	C262.693,318.236,355.758,324.58,421.531,302.755z"/>
<g>
	<ellipse style="fill:#7A4533;" cx="428.105" cy="108.741" rx="8.084" ry="8.092"/>
	<path style="fill:#7A4533;" d="M425.046,290.046c-0.884,4.078-1.886,7.854-3.018,11.273c-0.162,0.486-0.334,0.961-0.495,1.435
		c-65.773,21.825-158.839,15.481-206.493,16.819c-31.787,0.885-55.059,18.578-67.325,30.66l-9.852-0.345
		c0,0,28.672-40.468,77.177-41.826C263.546,306.704,359.111,313.306,425.046,290.046z"/>
</g>
<g>
	<path style="fill:#F2E5CB;" d="M421.532,302.755L421.532,302.755c0.166-0.473,0.334-0.945,0.495-1.435
		C421.866,301.806,421.693,302.28,421.532,302.755z"/>
	<path style="fill:#F2E5CB;" d="M373.641,85.91V57.582c0-11.205-9.076-20.29-20.272-20.29h-97.908
		c-15.236,0-30.148-4.403-42.944-12.682l-15.276-9.883c-3.755-2.429-1.785-8.268,2.673-7.922l61.923,4.811
		c2.926,0.228,5.859,0.341,8.794,0.341h94.115c22.929,0,41.518,18.592,41.518,41.525v27.742c0,6.5-5.265,11.77-11.759,11.77h-13.785
		C376.81,92.994,373.641,89.822,373.641,85.91z"/>
</g>
<path style="fill:#91523D;" d="M343.882,50.054l20.365,6.266c13.095,4.029,20.72,19.657,17.577,36.021l-1.186,6.174
	c-1.042,5.422-6.794,8.112-10.932,5.112l-23.569-17.09C327.158,73.637,330.701,47.604,343.882,50.054z"/>
<path style="fill:#FBB071;" d="M350.005,59.322l12.28,3.778c7.895,2.429,12.494,11.852,10.598,21.719l-0.715,3.723
	c-0.628,3.269-4.097,4.891-6.592,3.082l-14.212-10.306C339.922,73.543,342.057,57.845,350.005,59.322z"/>
<g>
</g>
<g>
</g>
<g>
</g>
<g>
</g>
<g>
</g>
<g>
</g>
<g>
</g>
<g>
</g>
<g>
</g>
<g>
</g>
<g>
</g>
<g>
</g>
<g>
</g>
<g>
</g>
<g>
</g>
</svg>
