<?xml version="1.0" encoding="iso-8859-1"?>
<!-- Generator: Adobe Illustrator 19.0.0, SVG Export Plug-In . SVG Version: 6.00 Build 0)  -->
<svg version="1.1" id="Layer_1" xmlns="http://www.w3.org/2000/svg" xmlns:xlink="http://www.w3.org/1999/xlink" x="0px" y="0px"
	 viewBox="0 0 512.001 512.001" style="enable-background:new 0 0 512.001 512.001;" xml:space="preserve">
<g>
	<path style="fill:#628FA3;" d="M372.292,378.171l-27.64,44.11l14.196,3.024c1.862,0.397,3.194,2.045,3.194,3.953v10.259
		c0,2.232-1.806,4.041-4.032,4.041H305.97c-5.465,0-9.348-5.331-7.681-10.546l19.181-60.006L372.292,378.171z"/>
	<path style="fill:#628FA3;" d="M136.906,368.069l5.917,71.779c0.172,2.095,1.921,3.708,4.019,3.708h56.267
		c2.227,0,4.032-1.809,4.032-4.041v-11.21c0-1.858-1.264-3.476-3.064-3.923l-13.235-3.281l16.299-62.63L136.906,368.069z"/>
	<path style="fill:#628FA3;" d="M437.578,227.682c1.592-4.674,4.708-16.777-1.262-27.133c-1.96-3.401-6.123-4.815-9.806-3.472
		c-8.31,3.028-22.797,10.445-24.317,25.677c-0.17,1.705,0.712,3.336,2.24,4.105c4.918,2.472,16.905,7.247,30.372,3.44
		C436.101,229.932,437.142,228.961,437.578,227.682z"/>
</g>
<path style="fill:#3F5666;" d="M106.523,293.202c-16.219-4.809-49.034-18.424-72.911-46.373
	c-5.347-6.269-10.241-13.243-14.403-21.01c-3.764-7-6.932-14.652-9.283-22.986c-0.416-1.462-0.81-2.928-1.198-4.413
	c-2.061-7.813-3.778-15.852-5.12-23.908c-1.628-9.638-2.719-19.298-3.25-28.664c-0.474-8.554-0.481-16.86,0.019-24.658
	c1.912-29.417,11.074-51.577,29.417-52.671c21.711-1.297,29.187,13.05,33.141,44.143c0.924,7.21,1.647,15.316,2.319,24.351
	c0.53,7.146,1.03,14.857,1.557,23.16c0.409,6.408,0.831,13.162,1.31,20.262c0.096,1.505,0.233,2.979,0.398,4.43
	c0.962,8.624,2.978,16.23,5.786,22.947c3.501,8.388,8.253,15.383,13.726,21.223c19.138,20.373,47.183,26.596,62.566,28.49
	c9.961,1.232,18.434,8.258,20.837,18.031C177.12,298.623,140.725,303.341,106.523,293.202z"/>
<g>
	<path style="fill:#F2E5CB;" d="M65.251,137.014l-64.895,8.835c-0.474-8.554-0.481-16.86,0.019-24.658l62.558-8.528
		C63.857,119.873,64.58,127.979,65.251,137.014z"/>
	<path style="fill:#F2E5CB;" d="M68.518,184.866L8.726,198.421c-2.061-7.813-3.778-15.852-5.12-23.908l63.203-14.339
		c0.409,6.408,0.831,13.162,1.31,20.262C68.216,181.941,68.353,183.415,68.518,184.866z"/>
	<path style="fill:#F2E5CB;" d="M88.029,229.036L33.612,246.83c-5.347-6.269-10.241-13.243-14.403-21.01l55.095-18.006
		C77.805,216.202,82.556,223.196,88.029,229.036z"/>
</g>
<path style="fill:#91BED4;" d="M510.104,266.401l-11.694,13.421c-7.545,8.666-18.238,13.926-29.706,14.628l-13.442,0.809
	c-4.064,0.248-8.095,0.754-12.061,1.541c-8.462,1.649-16.674,4.506-24.382,8.472l-1.347,0.679
	c-5.476,1.304-10.154,4.398-13.452,8.581c-1.261,1.606-2.328,3.363-3.159,5.239c0,0.01,0,0.01,0,0.01
	c-1.347,3.029-2.08,6.371-2.08,9.841v43.463l24.274,50.598c0.647,1.336,1.973,2.22,3.439,2.285l15.845,0.765
	c2.156,0.097,3.848,1.876,3.848,4.031v8.753c0,2.231-1.811,4.043-4.031,4.043H398.63c-2.565,0-4.99-1.229-6.511-3.299
	l-16.524-22.593c-11.587-15.824-29.998-25.18-49.594-25.18H161.393c-8.214,13.409-13.894,24.555-14.843,29.125l14.066,2.587
	c2.135,0.388,3.579,2.403,3.255,4.56l-1.681,11.351c-0.292,1.983-1.994,3.449-3.988,3.449H80.389c-2.231,0-4.031-1.811-4.031-4.043
	v-58.833c0,0-11.134-163.187,110.915-163.187h217.617l23.66,0.194c6.198,0.054,12.148,2.2,16.934,6.026
	c1.056,0.841,2.058,1.768,2.986,2.78l3.848,4.15c4.408,4.754,9.431,8.839,14.886,12.148c7.998,4.84,16.966,8.052,26.365,9.356
	l11.846,1.649C511.418,254.64,514.103,261.82,510.104,266.401z"/>
<path style="fill:#F2E5CB;" d="M404.018,314.53c-1.261,1.606-2.328,3.364-3.159,5.239c0,0.01,0,0.01,0,0.01
	c-1.347,3.029-2.08,6.371-2.08,9.841v43.463c0,0-30.44-2.565-72.779,19.403H198.29c0,0,14.239-28.543,58.066-28.543
	C300.194,363.942,359.824,364.082,404.018,314.53z"/>
<g>
	<path style="fill:#628FA3;" d="M98.199,439.517v-58.832c0,0-11.13-163.191,110.915-163.191h-21.842
		c-122.045,0-110.915,163.191-110.915,163.191v58.832c0,2.232,1.806,4.041,4.032,4.041h21.841
		C100.005,443.558,98.199,441.749,98.199,439.517z"/>
	<path style="fill:#628FA3;" d="M413.958,440.255l-16.524-22.587c-11.584-15.829-30.002-25.184-49.59-25.184h-21.842
		c19.588,0,38.007,9.355,49.59,25.184l16.524,22.587c1.522,2.071,3.941,3.303,6.513,3.303h21.842
		C417.899,443.558,415.48,442.325,413.958,440.255z"/>
</g>
<path style="fill:#3F5666;" d="M467.204,242.794c-7.438,11.62-16.546,29.255-24.004,54.004c-8.462,1.649-16.674,4.506-24.382,8.472
	l-1.347,0.679c-5.476,1.304-10.154,4.398-13.452,8.581c-1.261,1.606-2.328,3.363-3.159,5.239
	c0.172-0.992,10.725-63.318,44.624-96.054c1.056,0.841,2.058,1.768,2.986,2.78l3.848,4.15
	C456.726,235.4,461.749,239.485,467.204,242.794z"/>
<circle style="fill:#2F3F4A;" cx="441.794" cy="254.849" r="8.084"/>
<path style="fill:#91BED4;" d="M415.606,214.624c-2.282-4.377-8.888-14.981-20.491-17.782c-3.811-0.921-7.701,1.127-9.269,4.727
	c-3.537,8.121-8.156,23.749,1.811,35.351c1.116,1.299,2.903,1.783,4.512,1.203c5.177-1.867,18.438-5.947,24.965-18.348
	C417.761,218.58,416.23,215.821,415.606,214.624z"/>
<path style="fill:#F2E5CB;" d="M408.648,215.861c-1.299-2.491-5.058-8.525-11.661-10.12c-2.168-0.523-4.382,0.642-5.275,2.691
	c-2.012,4.622-4.641,13.516,1.03,20.117c0.635,0.739,1.652,1.015,2.567,0.684c2.947-1.063,10.493-3.384,14.207-10.442
	C409.874,218.112,409.003,216.542,408.648,215.861z"/>
<g>
</g>
<g>
</g>
<g>
</g>
<g>
</g>
<g>
</g>
<g>
</g>
<g>
</g>
<g>
</g>
<g>
</g>
<g>
</g>
<g>
</g>
<g>
</g>
<g>
</g>
<g>
</g>
<g>
</g>
</svg>
