<?xml version="1.0" encoding="iso-8859-1"?>
<!-- Generator: Adobe Illustrator 19.0.0, SVG Export Plug-In . SVG Version: 6.00 Build 0)  -->
<svg version="1.1" id="Layer_1" xmlns="http://www.w3.org/2000/svg" xmlns:xlink="http://www.w3.org/1999/xlink" x="0px" y="0px"
	 viewBox="0 0 512 512" style="enable-background:new 0 0 512 512;" xml:space="preserve">
<g>
	<path style="fill:#825732;" d="M105.954,512c-27.517,0-49.904-23.434-49.904-52.239v-26.566c0-4.396,3.563-7.959,7.957-7.959
		s7.957,3.563,7.957,7.959v26.566c0,20.028,15.248,36.322,33.989,36.322s33.988-16.293,33.988-36.322v-62.897
		c0-4.396,3.563-7.959,7.957-7.959c4.394,0,7.957,3.563,7.957,7.959v62.897C155.857,488.566,133.47,512,105.954,512z"/>
	<path style="fill:#825732;" d="M147.9,365.075c-4.395,0-7.957-3.563-7.957-7.959V210.191c0-4.396,3.563-7.959,7.957-7.959
		s7.957,3.563,7.957,7.959v146.925C155.857,361.512,152.295,365.075,147.9,365.075z"/>
	<path style="fill:#825732;" d="M69.454,392.52c-30.231,0-54.826-25.765-54.826-57.434v-84.747c0-4.396,3.563-7.959,7.957-7.959
		s7.957,3.563,7.957,7.959v84.747c0,22.893,17.456,41.517,38.912,41.517s38.912-18.625,38.912-41.517V210.191
		c0-4.396,3.563-7.959,7.957-7.959c4.395,0,7.957,3.563,7.957,7.959v124.896C124.281,366.755,99.685,392.52,69.454,392.52z"/>
	<path style="fill:#825732;" d="M406.046,512c-27.517,0-49.903-23.434-49.903-52.239V210.191c0-4.396,3.563-7.959,7.957-7.959
		c4.394,0,7.957,3.563,7.957,7.959v249.571c0,20.028,15.247,36.322,33.99,36.322s33.989-16.293,33.989-36.322v-26.566
		c0-4.396,3.563-7.959,7.957-7.959s7.957,3.563,7.957,7.959v26.566C455.951,488.566,433.564,512,406.046,512z"/>
	<path style="fill:#825732;" d="M442.546,392.52c-30.231,0-54.826-25.765-54.826-57.434V210.191c0-4.396,3.563-7.959,7.957-7.959
		c4.395,0,7.957,3.563,7.957,7.959v124.896c0,22.893,17.456,41.517,38.912,41.517s38.912-18.625,38.912-41.517v-84.747
		c0-4.396,3.563-7.959,7.957-7.959c4.394,0,7.957,3.563,7.957,7.959v84.747C497.371,366.755,472.777,392.52,442.546,392.52z"/>
</g>
<g>
	<path style="fill:#F2E5CB;" d="M212.311,486.448c-11.178,0-16.809-14.233-8.95-22.623c2.774-2.962,4.748-6.537,4.748-11.622
		c0-17.125-22.372-17.125-22.372-34.25c0-17.125,22.372-17.125,22.372-34.251c0-17.127-22.372-17.127-22.372-34.254
		c0-17.127,22.372-17.127,22.372-34.255s-22.372-17.128-22.372-34.256s22.372-17.128,22.372-34.255
		c0-17.13-22.372-17.13-22.372-34.26c0-14.316,15.625-16.668,20.76-27.053c2.181-4.411,6.471-7.207,11.184-7.207l0,0
		c11.178,0,16.809,14.233,8.95,22.623c-2.774,2.962-4.748,6.537-4.748,11.622c0,17.125,22.372,17.125,22.372,34.25
		s-22.372,17.125-22.372,34.251c0,17.127,22.372,17.127,22.372,34.254c0,17.127-22.372,17.127-22.372,34.255
		s22.372,17.128,22.372,34.256s-22.372,17.128-22.372,34.255c0,17.13,22.372,17.13,22.372,34.26
		c0,14.316-15.626,16.668-20.76,27.053C221.315,483.652,217.024,486.448,212.311,486.448L212.311,486.448z"/>
	<path style="fill:#F2E5CB;" d="M294.32,486.448c-11.178,0-16.809-14.233-8.95-22.623c2.774-2.962,4.748-6.537,4.748-11.622
		c0-17.125-22.372-17.125-22.372-34.25c0-17.125,22.372-17.125,22.372-34.251c0-17.127-22.372-17.127-22.372-34.254
		c0-17.127,22.372-17.127,22.372-34.255s-22.372-17.128-22.372-34.256s22.372-17.128,22.372-34.255
		c0-17.13-22.372-17.13-22.372-34.26c0-14.316,15.625-16.668,20.76-27.053c2.181-4.411,6.471-7.207,11.184-7.207l0,0
		c11.178,0,16.809,14.233,8.95,22.623c-2.774,2.962-4.748,6.537-4.748,11.622c0,17.125,22.372,17.125,22.372,34.25
		s-22.372,17.125-22.372,34.251c0,17.127,22.372,17.127,22.372,34.254c0,17.127-22.372,17.127-22.372,34.255
		s22.372,17.128,22.372,34.256s-22.372,17.128-22.372,34.255c0,17.13,22.372,17.13,22.372,34.26
		c0,14.316-15.626,16.668-20.76,27.053C303.323,483.652,299.033,486.448,294.32,486.448L294.32,486.448z"/>
</g>
<path style="fill:#7FD3E3;" d="M428.269,181.696c0,7.876-3.021,14.997-7.909,20.145c-4.878,5.161-11.622,8.349-19.084,8.349H110.724
	c-14.912,0-26.993-12.753-26.993-28.493c0-7.865,3.021-14.986,7.909-20.133c0.749-0.804,1.555-1.547,2.394-2.244
	c-13.02-12.965-20.37-27.691-20.37-43.302C73.663,64.002,155.301,0,256,0s182.337,64.002,182.337,116.018
	c0,15.611-7.35,30.337-20.37,43.302C424.242,164.528,428.269,172.615,428.269,181.696z"/>
<path style="fill:#349FB5;" d="M104.951,181.696c0-7.864,3.021-14.986,7.909-20.133c0.749-0.805,1.555-1.549,2.394-2.244
	c-13.02-12.965-20.37-27.691-20.37-43.302c0-50.175,75.967-111.496,171.727-115.772C263.098,0.089,259.562,0,256,0
	C155.301,0,73.663,64.002,73.663,116.017c0,15.611,7.35,30.337,20.37,43.302c-0.839,0.696-1.645,1.441-2.394,2.244
	c-4.888,5.147-7.909,12.268-7.909,20.133c0,15.741,12.081,28.494,26.993,28.494h21.22
	C117.032,210.191,104.951,197.438,104.951,181.696z"/>
<g>
	<circle style="fill:#357E8C;" cx="132.242" cy="113.058" r="7.957"/>
	<circle style="fill:#357E8C;" cx="312.916" cy="105.096" r="7.957"/>
	<circle style="fill:#357E8C;" cx="297.002" cy="48.588" r="7.957"/>
	<circle style="fill:#357E8C;" cx="223.64" cy="44.241" r="7.957"/>
	<circle style="fill:#357E8C;" cx="190.924" cy="89.182" r="7.957"/>
	<circle style="fill:#357E8C;" cx="381.649" cy="93.424" r="7.957"/>
	<circle style="fill:#357E8C;" cx="247.515" cy="128.972" r="7.957"/>
</g>
<g>
</g>
<g>
</g>
<g>
</g>
<g>
</g>
<g>
</g>
<g>
</g>
<g>
</g>
<g>
</g>
<g>
</g>
<g>
</g>
<g>
</g>
<g>
</g>
<g>
</g>
<g>
</g>
<g>
</g>
</svg>
