<?xml version="1.0" encoding="iso-8859-1"?>
<!-- Generator: Adobe Illustrator 19.0.0, SVG Export Plug-In . SVG Version: 6.00 Build 0)  -->
<svg version="1.1" id="Layer_1" xmlns="http://www.w3.org/2000/svg" xmlns:xlink="http://www.w3.org/1999/xlink" x="0px" y="0px"
	 viewBox="0 0 512.002 512.002" style="enable-background:new 0 0 512.002 512.002;" xml:space="preserve">
<g>
	<path style="fill:#FBD476;" d="M296.227,337.657l-31.507,57.229c-2.733,4.965-1.344,11.188,3.243,14.519l38.337,27.845
		c1.911,1.388,4.212,2.135,6.573,2.135h15.801c11.905,0,23.054,5.831,29.84,15.605l2.208,3.18c2.916,4.201-0.092,9.945-5.208,9.945
		h-50.654c-7.532,0-14.881-2.309-21.058-6.617l-40.024-27.913c-15.486-10.8-20.661-31.342-12.139-48.182l32.561-64.34
		L296.227,337.657z"/>
	<path style="fill:#FBD476;" d="M447.364,78.906v47.442c0,3.291,3.367,5.512,6.396,4.216l55.458-23.72
		c3.711-1.587,3.711-6.846,0-8.433L453.76,74.69C450.731,73.395,447.364,75.615,447.364,78.906z"/>
</g>
<path style="fill:#7FD3E3;" d="M411.496,43.888L411.496,43.888c-25.252,0-45.723,20.458-45.723,45.693v117.137
	c0,1.435-0.716,2.776-1.908,3.576l-207.965,139.46h170.397c72.316,0,130.94-58.586,130.94-130.857v-71.229l-0.019,0.019V89.581
	C457.219,64.346,436.747,43.888,411.496,43.888z"/>
<path style="fill:#349FB5;" d="M387.331,206.718V89.581c0-21.524,14.895-39.56,34.944-44.404c-3.458-0.835-7.065-1.289-10.779-1.289
	l0,0c-25.252,0-45.723,20.458-45.723,45.693v117.137c0,1.436-0.716,2.776-1.908,3.576l-207.964,139.46h21.558l207.964-139.459
	C386.615,209.495,387.331,208.154,387.331,206.718z"/>
<ellipse style="fill:#357E8C;" cx="415.139" cy="82.473" rx="8.084" ry="8.075"/>
<path style="fill:#FF5845;" d="M367.422,269.504c-0.539,0.398-1.089,0.786-1.66,1.173l-158.17,109.384
	c-10.769,7.451-25.546,4.759-33.005-6.008l-3.536-5.103c-3.364-4.845-8.192-8.054-13.474-9.433
	c-6.467-1.701-13.614-0.678-19.543,3.425l-10.477,7.257c-5.39,3.725-11.793,4.91-17.753,3.823c-0.732-0.13-1.456-0.302-2.166-0.495
	c-5.206-1.465-9.981-4.717-13.258-9.572c-3.147-4.673-7.74-7.764-12.805-9.142c-6.618-1.841-14.044-0.775-20.103,3.414L44.15,370.21
	c-10.779,7.451-25.546,4.76-32.995-5.998L0.818,349.288c-1.444-2.089-0.927-4.942,1.164-6.384l279.801-193.497
	c0.572-0.398,1.121-0.775,1.681-1.141c18.044-11.77,39.429-14.644,58.875-9.594c0.087,0.021,0.162,0.043,0.237,0.064
	c16.438,4.307,31.454,14.289,41.876,29.33C407.251,200.992,399.554,245.967,367.422,269.504z"/>
<g>
	<path style="fill:#B53C2F;" d="M343.138,138.898c-7.222,1.971-14.271,5.06-20.868,9.368c-0.56,0.366-1.111,0.742-1.681,1.141
		L40.787,342.904c-2.091,1.443-2.608,4.297-1.164,6.384l6.726,9.712l192.286-129.142c3.708-2.497,8.731-1.507,11.221,2.186
		c2.49,3.704,1.509,8.721-2.198,11.209L81.575,354.813c-6.618-1.841-14.044-0.775-20.103,3.414L44.15,370.21
		c-10.779,7.451-25.546,4.76-32.995-5.998L0.818,349.288c-1.444-2.089-0.927-4.942,1.164-6.384l279.801-193.497
		c0.572-0.398,1.121-0.775,1.681-1.141c18.044-11.77,39.429-14.644,58.875-9.594c0.087,0.021,0.162,0.043,0.237,0.064
		C342.771,138.801,342.954,138.844,343.138,138.898z"/>
	<path style="fill:#B53C2F;" d="M322.862,248.831L157.578,359.518c-6.467-1.701-13.614-0.678-19.543,3.425l-10.477,7.257
		c-5.39,3.725-11.793,4.91-17.753,3.823c-0.732-0.13-1.456-0.302-2.166-0.495l206.223-138.111c3.708-2.487,8.731-1.496,11.221,2.207
		C327.562,241.326,326.57,246.344,322.862,248.831z"/>
</g>
<g>
</g>
<g>
</g>
<g>
</g>
<g>
</g>
<g>
</g>
<g>
</g>
<g>
</g>
<g>
</g>
<g>
</g>
<g>
</g>
<g>
</g>
<g>
</g>
<g>
</g>
<g>
</g>
<g>
</g>
</svg>
