<?xml version="1.0" encoding="iso-8859-1"?>
<!-- Generator: Adobe Illustrator 19.0.0, SVG Export Plug-In . SVG Version: 6.00 Build 0)  -->
<svg version="1.1" id="Layer_1" xmlns="http://www.w3.org/2000/svg" xmlns:xlink="http://www.w3.org/1999/xlink" x="0px" y="0px"
	 viewBox="0 0 512 512" style="enable-background:new 0 0 512 512;" xml:space="preserve">
<path style="fill:#7FD3E3;" d="M489.64,108.136c-11.69,0.416-20.786,10.375-20.786,22.068v85.333c0,8.286-6.72,15.004-15.009,15.004
	h-50.193V71.221c0-11.693-9.096-21.652-20.786-22.068c-12.273-0.437-22.36,9.38-22.36,21.551v98.627h-36.839
	c-8.999,0-16.294-7.292-16.294-16.288v-46.314c0-11.693-9.096-21.652-20.786-22.068c-12.273-0.437-22.36,9.38-22.36,21.551v46.613
	c0,32.937,26.71,59.638,59.658,59.638h36.621v118.909c0,20.035-16.247,36.276-36.289,36.276h-40.684v-87.19
	c0-11.693-9.096-21.652-20.786-22.068c-12.273-0.437-22.36,9.38-22.36,21.551v48.647h-56.603c-17.9,0-32.412-14.506-32.412-32.4
	v-47.804h24.408c37.566,0,68.02-30.442,68.02-67.996V84.883c0-11.693-9.096-21.652-20.786-22.068
	c-12.273-0.437-22.36,9.38-22.36,21.551v92.443c0,15.708-12.738,28.442-28.453,28.442h-20.829V50.816
	c0-11.693-9.096-21.652-20.786-22.068c-12.273-0.437-22.36,9.38-22.36,21.551v197.195H67.962c-13.706,0-24.816-11.106-24.816-24.807
	v-77.688c0-11.693-9.096-21.652-20.786-22.068C10.087,122.495,0,132.311,0,144.483v77.284c0,38.03,30.84,68.86,68.884,68.86h39.342
	v11.901c0,38.212,30.989,69.19,69.214,69.19h62.948v89.466c0,11.693,9.096,21.652,20.786,22.068
	c12.273,0.437,22.36-9.38,22.36-21.551v-50.923h46.984c40.392,0,73.136-32.732,73.136-73.11v-63.996h58.697
	c27.42,0,49.649-22.221,49.649-49.632v-94.352C512,117.516,501.913,107.699,489.64,108.136z"/>
<g>
	<path style="fill:#349FB5;" d="M380.988,70.704c0-8.175,4.562-15.271,11.269-18.929c-2.806-1.55-5.982-2.501-9.389-2.623
		c-12.273-0.437-22.36,9.38-22.36,21.551v98.627h9.701c5.953,0,10.779-4.822,10.779-10.771L380.988,70.704L380.988,70.704z"/>
	<path style="fill:#349FB5;" d="M264.279,154.865c1.078,31.99,27.344,57.596,59.607,57.596h20.48
		c-32.949,0-59.658-26.701-59.658-59.638V106.21c0-8.175,4.562-15.271,11.27-18.929c-2.806-1.55-5.982-2.501-9.389-2.623
		c-11.933-0.424-21.769,8.85-22.309,20.55v49.657H264.279z"/>
	<path style="fill:#349FB5;" d="M489.334,219.77v-89.566c0-8.285,4.577-15.68,11.397-19.447c-3.417-1.862-7.38-2.846-11.6-2.599
		c-11.486,0.675-20.276,10.548-20.276,22.044v85.333c0,8.286-6.72,15.004-15.009,15.004h24.71
		C484.508,230.541,489.334,225.718,489.334,219.77z"/>
	<path style="fill:#349FB5;" d="M260.867,279.938c0-8.175,4.562-15.272,11.269-18.929c-2.806-1.55-5.982-2.501-9.389-2.623
		c-12.273-0.437-22.36,9.38-22.36,21.551v48.646h9.701c5.953,0,10.779-4.822,10.779-10.771V279.938L260.867,279.938z"/>
	<path style="fill:#349FB5;" d="M344.684,367.646c20.049,0,36.303-16.241,36.303-36.276V223.231c0-5.949-4.826-10.771-10.779-10.771
		h-9.701v118.908c0,20.035-16.247,36.276-36.289,36.276h20.466V367.646z"/>
	<path style="fill:#349FB5;" d="M221.133,176.81V84.367c0-8.176,4.562-15.272,11.269-18.929c-2.806-1.55-5.982-2.501-9.389-2.623
		c-12.273-0.437-22.36,9.38-22.36,21.551v92.443c0,15.708-12.738,28.442-28.453,28.442h20.48
		C208.394,205.251,221.133,192.518,221.133,176.81z"/>
	<path style="fill:#349FB5;" d="M260.867,461.182v-78.695c0-5.949-4.826-10.771-10.779-10.771h-9.701v89.466
		c0,11.495,8.79,21.366,20.274,22.044c4.22,0.249,8.186-0.736,11.603-2.598C265.445,476.862,260.867,469.467,260.867,461.182z"/>
	<path style="fill:#349FB5;" d="M128.706,302.527v-1.131c0-5.949-4.826-10.771-10.779-10.771h-9.701v11.901
		c0,38.212,30.989,69.189,69.214,69.189h20.48C159.695,371.716,128.706,340.739,128.706,302.527z"/>
	<path style="fill:#349FB5;" d="M128.706,50.3c0-8.175,4.562-15.272,11.27-18.929c-2.806-1.55-5.982-2.501-9.389-2.623
		c-12.273-0.437-22.36,9.38-22.36,21.551v197.195h9.701c5.953,0,10.779-4.822,10.779-10.771V50.3H128.706z"/>
	<path style="fill:#349FB5;" d="M20.48,221.765v-77.284c0-8.175,4.562-15.272,11.269-18.929c-2.806-1.55-5.982-2.5-9.389-2.623
		C10.087,122.494,0,132.311,0,144.482v77.284c0,38.03,30.84,68.86,68.884,68.86h20.48C51.32,290.625,20.48,259.796,20.48,221.765z"
		/>
</g>
<g>
	<ellipse style="fill:#357E8C;" cx="128.805" cy="68.649" rx="8.084" ry="8.078"/>
	<ellipse style="fill:#357E8C;" cx="182.167" cy="225.227" rx="8.084" ry="8.078"/>
	<ellipse style="fill:#357E8C;" cx="222.041" cy="118.136" rx="8.084" ry="8.078"/>
	<ellipse style="fill:#357E8C;" cx="128.805" cy="247.525" rx="8.084" ry="8.078"/>
	<ellipse style="fill:#357E8C;" cx="182.167" cy="348.63" rx="8.084" ry="8.078"/>
	<ellipse style="fill:#357E8C;" cx="261.392" cy="284.358" rx="8.084" ry="8.078"/>
	<ellipse style="fill:#357E8C;" cx="285.372" cy="107.634" rx="8.084" ry="8.078"/>
	<ellipse style="fill:#357E8C;" cx="379.873" cy="191.153" rx="8.084" ry="8.078"/>
	<ellipse style="fill:#357E8C;" cx="382.036" cy="99.557" rx="8.084" ry="8.078"/>
	<ellipse style="fill:#357E8C;" cx="490.36" cy="130.288" rx="8.084" ry="8.078"/>
	<ellipse style="fill:#357E8C;" cx="392.808" cy="252.541" rx="8.084" ry="8.078"/>
	<ellipse style="fill:#357E8C;" cx="371.785" cy="364.784" rx="8.084" ry="8.078"/>
	<ellipse style="fill:#357E8C;" cx="261.841" cy="372.861" rx="8.084" ry="8.078"/>
	<ellipse style="fill:#357E8C;" cx="59.284" cy="269.823" rx="8.084" ry="8.078"/>
	<circle style="fill:#357E8C;" cx="27.69" cy="165.961" r="7.837"/>
</g>
<g>
</g>
<g>
</g>
<g>
</g>
<g>
</g>
<g>
</g>
<g>
</g>
<g>
</g>
<g>
</g>
<g>
</g>
<g>
</g>
<g>
</g>
<g>
</g>
<g>
</g>
<g>
</g>
<g>
</g>
</svg>
