<?xml version="1.0" encoding="iso-8859-1"?>
<!-- Generator: Adobe Illustrator 19.0.0, SVG Export Plug-In . SVG Version: 6.00 Build 0)  -->
<svg version="1.1" id="Layer_1" xmlns="http://www.w3.org/2000/svg" xmlns:xlink="http://www.w3.org/1999/xlink" x="0px" y="0px"
	 viewBox="0 0 512.001 512.001" style="enable-background:new 0 0 512.001 512.001;" xml:space="preserve">
<path style="fill:#3F5666;" d="M71.749,194.341c0,0-66.354,2.052-71.736,76.133c-0.262,3.615,3.778,5.947,6.756,3.879
	c8.166-5.672,21.97-16.485,33.784-31.746C71.749,233.584,68.206,215.567,71.749,194.341z"/>
<path style="fill:#2F3F4A;" d="M410.235,177.374l26.51-17.742c5.579-3.733,12.852,1.274,11.352,7.815l-7.139,31.113
	c-2.094,9.128-12.748,13.258-20.452,7.929l-10.441-7.222C402.384,193.951,402.471,182.57,410.235,177.374z"/>
<path style="fill:#25323B;" d="M322.99,375.994c0.614,1.154,0.669,2.534,0.151,3.741l-3.43,7.935
	c-0.691,1.574-2.243,2.599-3.97,2.599h-43.381c-3.398,0-5.587-3.601-4.023-6.619l7.486-23.406l15.608-48.806h52.365l-26.156,50.542
	c-0.205,0.388-0.345,0.798-0.41,1.218c-0.183,0.938-0.032,1.93,0.432,2.792L322.99,375.994z"/>
<path style="fill:#243038;" d="M323.142,379.735l-3.43,7.935c-0.691,1.574-2.243,2.599-3.97,2.599h-43.381
	c-3.398,0-5.587-3.601-4.023-6.619l7.486-23.406l41.407,2.954c-0.183,0.938-0.032,1.93,0.432,2.792l5.328,10.005
	C323.606,377.148,323.659,378.528,323.142,379.735z"/>
<path style="fill:#25323B;" d="M124.411,390.268H87.825c-2.039,0-3.84-1.369-4.379-3.331l-6.633-24.15L58.65,296.602l58.233-9.348
	l-2.977,71.275c-0.022,0.485,0.043,0.959,0.194,1.413c0.097,0.345,0.237,0.669,0.41,0.971l13.612,22.834
	C129.837,386.625,127.766,390.268,124.411,390.268z"/>
<path style="fill:#243038;" d="M124.411,390.268H87.825c-2.039,0-3.84-1.369-4.379-3.331l-6.633-24.15l37.287-2.846
	c0.097,0.345,0.237,0.669,0.41,0.971l13.612,22.834C129.837,386.625,127.766,390.268,124.411,390.268z"/>
<path style="fill:#3F5666;" d="M510.783,277.961l-17.376,18.554c-0.928,0.981-2.233,1.51-3.581,1.434l-23.276-1.336l-70.842-4.075
	c-1.52-0.087-2.987,0.592-3.893,1.822l-19.209,27.592c-0.585,0.84-0.853,1.861-0.753,2.881l2.683,27.692
	c0.065,0.647,0.183,1.283,0.377,1.898c0.356,1.208,0.949,2.34,1.747,3.321c4.228,5.239,14.561,18.037,18.681,22.953
	c1.068,1.283,1.305,3.062,0.604,4.571l-1.155,2.49c-0.701,1.531-2.233,2.512-3.915,2.512H354.71c-1.639,0-3.16-0.884-3.958-2.318
	l-14.238-25.4l-16.222-28.948H90.415l-57.273-19.665v-28.634c0-61.949,44.869-114.776,106.025-124.813l38.894-6.382
	c16.287-2.684,32.671-4.237,49.043-4.689c2.179-0.054,4.012-1.628,4.369-3.773l3.366-20.117c0.539-3.224,4.207-4.841,6.946-3.062
	l46.897,30.489l0.01,0.01l5.577-25.788c0.766-3.58,5.253-4.809,7.755-2.124l35.853,38.467h0.01l3.117-19.104
	c0.626-3.849,5.479-5.164,7.97-2.167l29.553,35.643l26.339,5.059c8.97,1.723,17.272,5.948,23.945,12.186l47.997,44.865l33.76,31.545
	C512.39,273.261,512.488,276.128,510.783,277.961z"/>
<g>
	<path style="fill:#2F3F4A;" d="M59.522,285.303c0-53.548,33.529-100.275,82.12-118.446c5.607-2.097,10.883-4.981,15.574-8.7
		c0.335-0.265,0.671-0.531,1.008-0.794l-19.058,3.127C78.011,170.526,33.142,223.354,33.142,285.303v28.634l57.273,19.665
		l-11.196-10.738l-19.696-8.927C59.522,313.938,59.522,285.303,59.522,285.303z"/>
	<path style="fill:#2F3F4A;" d="M377.134,387.951l-14.238-25.4l-4.265-7.611c-7.384-13.176-21.312-21.337-36.417-21.337h-1.921
		l16.222,28.947l14.238,25.4c0.798,1.434,2.319,2.318,3.958,2.318h26.381C379.453,390.268,377.932,389.384,377.134,387.951z"/>
</g>
<path style="fill:#C97E67;" d="M510.783,277.961l-17.376,18.554c-0.928,0.981-2.233,1.51-3.581,1.434l-23.276-1.336
	c0-0.01,0-0.01,0-0.01l10.246-56.601h0.01l33.76,31.545C512.39,273.261,512.488,276.128,510.783,277.961z"/>
<g>
	<path style="fill:#243038;" d="M395.946,385.266l-1.155,2.49c-0.701,1.531-2.233,2.512-3.915,2.512h-36.165
		c-1.639,0-3.16-0.884-3.958-2.318l-14.238-25.4l38.398-8.129c0.356,1.208,0.949,2.34,1.747,3.321
		c4.228,5.239,14.561,18.037,18.681,22.953C396.41,381.978,396.647,383.757,395.946,385.266z"/>
	<circle style="fill:#243038;" cx="434.417" cy="237.724" r="8.09"/>
</g>
<path style="fill:#3F5666;" d="M381.556,172.74l18.367-26.075c3.865-5.487,12.453-3.424,13.402,3.218l4.516,31.6
	c1.325,9.271-7.134,16.949-16.239,14.741l-12.339-2.993C380.184,191.029,376.176,180.376,381.556,172.74z"/>
<path style="fill:#C97E67;" d="M389.604,173.175l9.671-13.729c2.035-2.889,6.557-1.803,7.056,1.695l2.378,16.639
	c0.698,4.882-3.756,8.924-8.55,7.761l-6.497-1.576C388.882,182.805,386.772,177.196,389.604,173.175z"/>
<path style="fill:#3F5666;" d="M125.954,298.618l-64.747,64.449c-0.712,0.712-1.133,1.606-1.24,2.566
	c-0.075,0.679,0.01,1.391,0.27,2.07l6.558,16.679c1.111,2.824-0.981,5.887-4.012,5.887H22.744c-2.75,0-4.875-2.426-4.497-5.153
	l3.408-24.732l13.18-95.791L125.954,298.618z"/>
<path style="fill:#2F3F4A;" d="M45.032,385.115l3.408-24.732l11.585-86.385l-25.189-9.406l-13.18,95.791l-3.408,24.732
	c-0.377,2.727,1.747,5.153,4.497,5.153h26.785C46.779,390.268,44.653,387.842,45.032,385.115z"/>
<path style="fill:#243038;" d="M62.781,390.268H22.744c-2.75,0-4.875-2.426-4.497-5.153l3.408-24.732l38.311,5.251
	c-0.075,0.679,0.01,1.391,0.27,2.07l6.558,16.679C67.904,387.207,65.811,390.268,62.781,390.268z"/>
<g>
</g>
<g>
</g>
<g>
</g>
<g>
</g>
<g>
</g>
<g>
</g>
<g>
</g>
<g>
</g>
<g>
</g>
<g>
</g>
<g>
</g>
<g>
</g>
<g>
</g>
<g>
</g>
<g>
</g>
</svg>
