<?xml version="1.0" encoding="iso-8859-1"?>
<!-- Generator: Adobe Illustrator 19.0.0, SVG Export Plug-In . SVG Version: 6.00 Build 0)  -->
<svg version="1.1" id="Layer_1" xmlns="http://www.w3.org/2000/svg" xmlns:xlink="http://www.w3.org/1999/xlink" x="0px" y="0px"
	 viewBox="0 0 512.001 512.001" style="enable-background:new 0 0 512.001 512.001;" xml:space="preserve">
<path style="fill:#232F38;" d="M217.6,475.723h-14.398l-27.103-88.284h-71.882l19.388,87.19
	c4.508,20.271,22.499,34.694,43.278,34.694h0.377h35.94h31.227c2.603,0,4.714-2.109,4.714-4.71v-7.36
	C239.142,485.361,229.498,475.723,217.6,475.723z"/>
<g>
	<path style="fill:#3F5666;" d="M436.581,0h-18.995c-50.953,0-97.146,29.958-117.874,76.475L247.05,194.603h-50.518
		c-92.103,0-166.752,74.603-166.752,166.634v103.215c0,25.107,20.366,45.46,45.489,45.46h57.62c2.603,0,4.714-2.11,4.714-4.71v-7.36
		c0-11.894-9.651-21.527-21.541-21.527h-14.401v-64.592H247.05h25.665c89.062,0,161.25-72.142,161.25-161.135V58.492h41.833V39.191
		C475.797,17.546,458.24,0,436.581,0z"/>
	<path style="fill:#3F5666;" d="M472.181,52.405c0,0,0.589,24.141,7.07,31.796c0,0,11.783,36.31-11.588,41.805
		c-23.371,5.495-47.725-2.355-47.725-2.355V52.405H472.181z"/>
</g>
<path style="fill:#232F38;" d="M293.037,315.692l15.667,118.445c0.287,0.684,0.436,1.42,0.436,2.163v24.322
	c0,1.259,0.425,2.482,1.208,3.469l6.727,8.492c2.203,2.78,1.29,6.881-1.884,8.467l-22.875,11.43
	c-1.894,0.947-3.091,2.882-3.091,4.999v8.934c0,3.087,2.504,5.588,5.592,5.588h67.174c3.089,0,5.592-2.501,5.592-5.588v-94.349
	v-97.637L293.037,315.692z"/>
<g>
	<path style="fill:#2F3F4A;" d="M51.325,464.452V361.237c0-92.031,74.651-166.634,166.752-166.634h-21.545
		c-92.103,0-166.752,74.603-166.752,166.634v103.215c0,25.107,20.366,45.46,45.489,45.46h21.545
		C71.691,509.912,51.325,489.559,51.325,464.452z"/>
	<path style="fill:#2F3F4A;" d="M475.797,39.191v19.301h-41.833v192.094c0,88.993-72.188,161.135-161.25,161.135H247.05V194.602
		l52.662-118.128C320.44,29.958,366.632,0,417.586,0h18.995C458.24,0,475.797,17.547,475.797,39.191z"/>
</g>
<path style="fill:#232F38;" d="M436.581,0h-18.995c-50.953,0-97.146,29.959-117.874,76.475L247.05,194.603v0.063h7.707
	c8.723,0,16.623-5.151,20.146-13.135l46.354-105.055c20.527-46.065,66.03-75.873,116.396-76.448C437.296,0.018,436.94,0,436.581,0z"
	/>
<circle style="fill:#1E2930;" cx="454.312" cy="77.5" r="8.079"/>
<path style="fill:#2F3F4A;" d="M323.953,197.841l73.046,236.296c0.287,0.684,0.436,1.42,0.436,2.163v24.322
	c0,1.259,0.425,2.482,1.208,3.469l6.727,8.492c2.203,2.78,1.29,6.881-1.884,8.467l-22.875,11.43
	c-1.894,0.947-3.091,2.882-3.091,4.999v8.934c0,3.087,2.504,5.588,5.592,5.588h67.174c3.089,0,5.592-2.501,5.592-5.588v-94.349
	l-21.914-240.915L323.953,197.841z"/>
<path style="fill:#232F38;" d="M399.694,506.412v-8.931c0-2.119,1.196-4.055,3.091-5.002l22.878-11.431
	c3.17-1.584,4.081-5.686,1.88-8.466l-6.727-8.492c-0.782-0.987-1.208-2.21-1.208-3.469v-24.322c0-0.743-0.148-1.478-0.436-2.163
	l-70.897-229.708c-2.016-6.53-8.76-10.364-15.398-8.754l0,0c-4.836,1.173-7.68,6.186-6.21,10.942l70.332,227.519
	c0.287,0.684,0.436,1.42,0.436,2.163v24.322c0,1.259,0.425,2.482,1.207,3.468l6.727,8.492c2.202,2.779,1.29,6.881-1.88,8.465
	l-22.881,11.433c-1.892,0.946-3.088,2.881-3.088,4.997v8.934c0,3.087,2.5,5.588,5.585,5.588h22.18
	C402.198,512,399.694,509.497,399.694,506.412z"/>
<g>
</g>
<g>
</g>
<g>
</g>
<g>
</g>
<g>
</g>
<g>
</g>
<g>
</g>
<g>
</g>
<g>
</g>
<g>
</g>
<g>
</g>
<g>
</g>
<g>
</g>
<g>
</g>
<g>
</g>
</svg>
