<?xml version="1.0" encoding="iso-8859-1"?>
<!-- Generator: Adobe Illustrator 19.0.0, SVG Export Plug-In . SVG Version: 6.00 Build 0)  -->
<svg version="1.1" id="Layer_1" xmlns="http://www.w3.org/2000/svg" xmlns:xlink="http://www.w3.org/1999/xlink" x="0px" y="0px"
	 viewBox="0 0 512 512" style="enable-background:new 0 0 512 512;" xml:space="preserve">
<path style="fill:#2F3F4A;" d="M149.289,288.935L149.289,288.935c-47.029,0-85.154-38.157-85.154-85.224v-87.908
	c0-32.794-26.563-59.379-59.33-59.379H4.311C1.93,56.423,0,58.355,0,60.738v138.377c0,82.518,66.839,149.412,149.289,149.412l0,0
	V288.935z"/>
<path style="fill:#E1E9F2;" d="M28.564,132.463v64.309c0,67.301,53.813,122.017,120.724,123.413v-31.252l0,0
	c-47.029,0-85.154-38.155-85.154-85.224v-87.908c0-32.793-26.563-59.378-59.33-59.378H4.311C1.93,56.423,0,58.355,0,60.738V92.49
	C16.613,98.168,28.564,113.913,28.564,132.463z"/>
<g>
	<path style="fill:#25323B;" d="M361.896,393.65l-26.171,41.774l13.442,2.863c1.764,0.375,3.024,1.936,3.024,3.743v9.715
		c0,2.114-1.709,3.826-3.818,3.826h-49.275c-5.174,0-8.851-5.049-7.272-9.988l18.161-56.828L361.896,393.65z"/>
	<path style="fill:#25323B;" d="M139.022,384.083l5.603,67.977c0.164,1.984,1.818,3.512,3.806,3.512h53.276
		c2.109,0,3.818-1.714,3.818-3.826v-10.616c0-1.76-1.197-3.292-2.902-3.715l-12.531-3.108l15.433-59.313L139.022,384.083z"/>
</g>
<path style="fill:#3F5666;" d="M510.212,287.801l-11.07,12.708c-7.158,8.199-17.278,13.194-28.133,13.852
	c0,0-66.647,2.61-79.063,19.019c-3.05,4.034-4.97,8.954-4.97,14.294v41.145l22.98,47.92c0.614,1.284,1.865,2.115,3.255,2.18
	l15.015,0.723c2.026,0.087,3.632,1.779,3.632,3.808v8.307c0,2.103-1.703,3.819-3.816,3.819h-41.208
	c-2.436,0-4.732-1.165-6.166-3.128l-15.65-21.392c-10.972-14.995-28.402-23.852-46.954-23.852H162.202
	c-7.772,12.708-13.15,23.258-14.044,27.584l13.312,2.449c2.026,0.367,3.396,2.287,3.082,4.326l-1.596,10.756
	c-0.27,1.866-1.886,3.258-3.773,3.258H85.509c-2.113,0-3.816-1.715-3.816-3.819v-35.859c0,0-3.557-51.997,16.017-95.677
	c14.164-31.62,40.475-58.87,89.002-58.87h174.339c0.56,0,1.111-0.108,1.628-0.324l43.3-17.671c3.04-1.24,6.284-1.866,9.571-1.834
	l17.43,0.14c7.168,0.065,13.991,3.086,18.874,8.339l3.644,3.937c1.714,1.866,3.536,3.604,5.443,5.232
	c9.475,8.123,21.137,13.409,33.609,15.135l11.21,1.564C511.451,276.657,513.984,283.454,510.212,287.801z"/>
<g>
	<path style="fill:#2F3F4A;" d="M103.248,418.981c0,0-3.552-54.382,16.024-100.057c10.89-25.416,28.964-48.124,58.78-57.275
		c-43.041,3.051-67.039,28.889-80.338,58.571c-19.575,43.676-16.024,95.678-16.024,95.678v35.852c0,2.107,1.704,3.825,3.817,3.825
		h17.741V418.981z"/>
	<path style="fill:#2F3F4A;" d="M386.579,434.834c-10.971-15.682-28.403-24.946-46.958-24.946h-4.138
		c11.703,3.679,22.106,11.009,29.538,21.168l15.646,21.388c1.439,1.964,3.736,3.129,6.165,3.129h14.256L386.579,434.834z"/>
</g>
<path style="fill:#3F5666;" d="M162.207,407.205c0.171-0.297,0.353-0.583,0.535-0.88c8.066-13.097,18.586-28.346,29.324-41.376"/>
<path style="fill:#E1E9F2;" d="M460.941,259.17c-5.907,1.942-14.508,3.841-25.687,4.995c-42.286,4.391-52.374,24.845-82.545,29.451
	c-30.17,4.607-165.069-16.959-210.815,6.645c-16.988,8.771-32.056,15.546-44.184,19.958c14.164-31.62,40.475-58.87,89.002-58.87
	h174.339c0.56,0,1.111-0.108,1.628-0.324l43.3-17.671c3.04-1.24,6.284-1.866,9.571-1.834l17.43,0.14
	c7.168,0.065,13.991,3.086,18.874,8.339l3.644,3.937C457.212,255.804,459.033,257.542,460.941,259.17z"/>
<ellipse style="fill:#25323B;" cx="446.777" cy="280.846" rx="8.084" ry="8.091"/>
<path style="fill:#3F5666;" d="M410.061,247.012c-4.667,0.062-16.43,1.123-23.752,9.75c-2.404,2.834-2.341,7.003,0.025,9.87
	c5.335,6.466,16.54,17.059,30.582,13.578c1.572-0.39,2.744-1.696,2.942-3.307c0.638-5.183,1.08-17.415-6.588-28.244
	C412.532,247.617,411.337,246.996,410.061,247.012z"/>
<path style="fill:#2F3F4A;" d="M408.179,253.137c-2.813,0.038-9.904,0.677-14.317,5.878c-1.449,1.708-1.411,4.221,0.015,5.95
	c3.216,3.897,9.97,10.283,18.435,8.185c0.948-0.235,1.654-1.023,1.773-1.994c0.385-3.124,0.651-10.498-3.971-17.025
	C409.668,253.501,408.948,253.126,408.179,253.137z"/>
<g>
</g>
<g>
</g>
<g>
</g>
<g>
</g>
<g>
</g>
<g>
</g>
<g>
</g>
<g>
</g>
<g>
</g>
<g>
</g>
<g>
</g>
<g>
</g>
<g>
</g>
<g>
</g>
<g>
</g>
</svg>
