<?xml version="1.0" encoding="iso-8859-1"?>
<!-- Generator: Adobe Illustrator 19.0.0, SVG Export Plug-In . SVG Version: 6.00 Build 0)  -->
<svg version="1.1" id="Layer_1" xmlns="http://www.w3.org/2000/svg" xmlns:xlink="http://www.w3.org/1999/xlink" x="0px" y="0px"
	 viewBox="0 0 512 512" style="enable-background:new 0 0 512 512;" xml:space="preserve">
<g>
	<path style="fill:#C97E67;" d="M449.424,197.647c-4.436,14.308-19.086,17.664-24.351,18.415c-1.229,0.176-2.461-0.184-3.405-0.993
		c-4.046-3.464-14.625-14.166-10.752-28.636c3.436-12.836,19.8-31.322,28.603-40.579c2.411-2.535,6.656-1.299,7.344,2.137
		C449.373,160.544,453.359,184.956,449.424,197.647z"/>
	<path style="fill:#C97E67;" d="M353.309,257.963v20.999c0,13.543,3.575,26.845,10.36,38.559l5.639,9.734
		c0.771,1.331,2.192,2.151,3.729,2.151h40.076c1.904,0,3.283-1.82,2.771-3.657l0,0c-1.693-6.073-6.596-10.704-12.735-12.03
		l-15.079-3.257l16.976-52.5H353.309z"/>
</g>
<path style="fill:#7D4F40;" d="M185.398,257.963v20.999c0,13.543,3.575,26.845,10.36,38.559l5.639,9.734
	c0.771,1.331,2.192,2.151,3.729,2.151h40.076c1.904,0,3.283-1.82,2.771-3.657l0,0c-1.693-6.073-6.596-10.704-12.735-12.03
	l-15.079-3.257l16.976-52.5H185.398z"/>
<path style="fill:#C97E67;" d="M112.64,257.963v20.999c0,13.543,3.575,26.845,10.36,38.559l5.639,9.734
	c0.771,1.331,2.192,2.151,3.729,2.151h40.076c1.904,0,3.283-1.82,2.771-3.657l0,0c-1.693-6.073-6.596-10.704-12.735-12.03
	l-15.079-3.257l16.976-52.5H112.64z"/>
<g>
	<path style="fill:#B06750;" d="M131.234,278.962v-20.999H112.64v21.012c0,13.535,3.573,26.829,10.354,38.535l5.647,9.746
		c0.771,1.331,2.192,2.151,3.729,2.151h16.11l-6.886-11.886C134.808,305.808,131.234,292.505,131.234,278.962z"/>
	<path style="fill:#B06750;" d="M371.902,278.975v-21.012h-18.594v20.999c0,13.543,3.575,26.845,10.36,38.559l5.639,9.734
		c0.771,1.331,2.192,2.151,3.729,2.151h16.111l-6.892-11.897C375.475,305.803,371.902,292.509,371.902,278.975z"/>
</g>
<path style="fill:#7D4F40;" d="M309.295,257.963l-9.521,11.899c-9.103,14.261-14.033,35.942-7.252,47.648l5.647,9.746
	c0.771,1.331,2.192,2.151,3.729,2.151h40.076c1.904,0,3.283-1.82,2.771-3.657l0,0c-1.693-6.073-6.596-10.704-12.735-12.03
	l-0.076-0.073c-5.955-5.708-6.88-14.907-2.18-21.689l23.556-33.995h-44.015V257.963z"/>
<path style="fill:#E8C1B5;" d="M512,259.79c0,2.699-1.056,5.399-3.255,7.428c-1.854,1.695-4.279,2.646-6.78,2.646h-130.48
	l-2.166-74.674l28.737,5.571l23.132,4.492c9.938,2.893,19.499,7.007,28.445,12.244l57.376,33.568
	C510.286,252.978,512,256.379,512,259.79z"/>
<path style="fill:#C7917F;" d="M412.597,269.864h-41.11l-2.166-74.674l28.737,5.571
	C405.364,217.098,412.984,241.133,412.597,269.864z"/>
<ellipse style="fill:#5E3C30;" cx="445.168" cy="238.404" rx="8.084" ry="8.098"/>
<g>
	<path style="fill:#C97E67;" d="M230.13,374.739c0,5.982-4.828,10.829-10.779,10.829H68.446c-13.053,0-25.277-3.693-35.668-10.096
		c-4.624-2.85-8.893-6.23-12.708-10.063c-10.607-10.646-17.753-24.769-19.596-40.49C0.162,322.264,0,319.564,0,316.822
		c0-2.743,0.162-5.442,0.474-8.098c1.347-11.521,5.552-22.188,11.878-31.248c3.104-4.46,6.726-8.53,10.779-12.104
		c9.916-8.843,22.398-14.814,36.152-16.671c2.997-0.411,6.057-0.615,9.162-0.615h63.596c5.95,0,10.779,4.848,10.779,10.819
		c0,5.982-4.828,10.829-10.779,10.829H68.446c-3.115,0-6.166,0.302-9.108,0.897c-7.858,1.555-15.015,5.096-20.944,10.074
		c-4.128,3.476-7.653,7.634-10.39,12.319c-2.802,4.772-4.786,10.084-5.756,15.732c-0.452,2.624-0.69,5.312-0.69,8.066
		s0.237,5.442,0.69,8.066c1.638,9.48,6.101,17.999,12.493,24.64c3.741,3.887,8.127,7.126,13,9.534
		c6.252,3.11,13.28,4.859,20.707,4.859h150.905C225.302,363.92,230.13,368.767,230.13,374.739z"/>
	<path style="fill:#C97E67;" d="M391.47,269.864H105.827c0-47.573,23.056-89.725,58.551-115.823
		c4.753-3.488,9.723-6.695,14.896-9.578c0.42-0.237,0.841-0.475,1.272-0.702c18.432-10.063,39.322-16.174,61.527-17.178h0.01
		c2.178-0.097,4.366-0.152,6.564-0.152c3.222,0,6.424,0.108,9.593,0.324c19.219,1.274,37.414,6.381,53.808,14.554
		c0.927,0.464,1.843,0.929,2.76,1.415c4.624,2.429,9.098,5.107,13.409,8.011C366.365,176.489,391.47,220.229,391.47,269.864z"/>
</g>
<g>
	<path style="fill:#B06750;" d="M267.077,142.036c27.07,0,52.38,6.741,73.95,18.448c-24.904-21.234-57.148-34.05-92.377-34.05
		c-78.88,0-142.821,64.212-142.821,143.428h18.428C124.256,199.263,188.197,142.036,267.077,142.036z"/>
	<path style="fill:#B06750;" d="M416.507,187.646c2.666,14.745-8.773,24.531-13.094,27.646c-1.008,0.727-2.266,0.981-3.476,0.704
		c-5.183-1.189-19.495-5.755-22.733-20.383c-2.872-12.975,3.109-36.969,6.642-49.267c0.968-3.368,5.301-4.246,7.495-1.52
		C399.354,154.784,414.142,174.568,416.507,187.646z"/>
</g>
<g>
	<rect x="177.309" y="363.918" style="fill:#5E3C30;" width="16.169" height="21.648"/>
	<rect x="130.299" y="363.918" style="fill:#5E3C30;" width="16.169" height="21.648"/>
	<rect x="83.268" y="363.918" style="fill:#5E3C30;" width="16.169" height="21.648"/>
	<path style="fill:#5E3C30;" d="M75.453,248.086v21.648h-7.006c-3.115,0-6.166,0.302-9.108,0.897
		c-0.043-0.292-0.054-0.583-0.054-0.885v-21.044c2.997-0.411,6.057-0.615,9.162-0.615H75.453z"/>
	<path style="fill:#5E3C30;" d="M47.74,359.061c-0.28,0.453-0.604,0.897-0.981,1.296l-13.981,15.117
		c-4.624-2.85-8.893-6.23-12.708-10.063c0.022-0.043,0.065-0.075,0.097-0.119l14.573-15.764
		C38.48,353.413,42.868,356.652,47.74,359.061z"/>
	<path style="fill:#5E3C30;" d="M38.395,280.705c-4.128,3.476-7.653,7.634-10.39,12.319c-0.377-0.259-0.722-0.551-1.056-0.885
		l-14.595-14.663c3.104-4.46,6.726-8.53,10.779-12.104L38.395,280.705z"/>
	<path style="fill:#5E3C30;" d="M21.558,316.822c0,2.753,0.237,5.442,0.69,8.066c-0.194,0.022-0.388,0.032-0.582,0.032H0.474
		C0.162,322.264,0,319.564,0,316.822c0-2.743,0.162-5.442,0.474-8.098h21.192c0.194,0,0.388,0.01,0.582,0.032
		C21.794,311.38,21.558,314.069,21.558,316.822z"/>
	<path style="fill:#5E3C30;" d="M180.547,143.763v126.101h-16.169V154.041c4.753-3.488,9.723-6.695,14.896-9.578
		C179.696,144.227,180.116,143.99,180.547,143.763z"/>
	<path style="fill:#5E3C30;" d="M328.219,150.737v119.127H312.05V141.311c0.927,0.464,1.843,0.929,2.76,1.415
		C319.434,145.156,323.907,147.834,328.219,150.737z"/>
	<path style="fill:#5E3C30;" d="M258.242,126.757v143.107h-16.169v-143.28h0.01c2.178-0.097,4.366-0.152,6.564-0.152
		C251.872,126.433,255.073,126.541,258.242,126.757z"/>
</g>
<g>
</g>
<g>
</g>
<g>
</g>
<g>
</g>
<g>
</g>
<g>
</g>
<g>
</g>
<g>
</g>
<g>
</g>
<g>
</g>
<g>
</g>
<g>
</g>
<g>
</g>
<g>
</g>
<g>
</g>
</svg>
