<?xml version="1.0" encoding="iso-8859-1"?>
<!-- Generator: Adobe Illustrator 19.0.0, SVG Export Plug-In . SVG Version: 6.00 Build 0)  -->
<svg version="1.1" id="Layer_1" xmlns="http://www.w3.org/2000/svg" xmlns:xlink="http://www.w3.org/1999/xlink" x="0px" y="0px"
	 viewBox="0 0 512.001 512.001" style="enable-background:new 0 0 512.001 512.001;" xml:space="preserve">
<path style="fill:#80693A;" d="M375.317,32.964c-4.399,0-7.965-3.563-7.965-7.959V7.959c0-4.396,3.566-7.959,7.965-7.959
	c4.4,0,7.965,3.563,7.965,7.959v17.048C383.283,29.402,379.717,32.964,375.317,32.964z"/>
<path style="fill:#AB8C4F;" d="M311.335,497.193l-2.34,12.29c-0.276,1.463-1.468,2.515-2.848,2.515h-27.574
	c-1.896,0-3.379-1.779-3.197-3.836l1.54-19.392l9.686-122.04l36.431-17.494L297.745,483.78c-0.073,0.388-0.08,0.775-0.015,1.155
	c0.138,0.926,0.654,1.748,1.432,2.23l10.755,6.628C311.015,494.472,311.589,495.841,311.335,497.193z"/>
<path style="fill:#3F5666;" d="M311.335,497.193l-2.34,12.29c-0.276,1.463-1.468,2.515-2.848,2.515h-27.574
	c-1.896,0-3.379-1.779-3.197-3.836l1.54-19.392l20.815-3.836c0.138,0.926,0.654,1.748,1.431,2.23l10.755,6.628
	C311.015,494.472,311.589,495.841,311.335,497.193z"/>
<path style="fill:#AB8C4F;" d="M146.856,438.844v42.811c0,0.727,0.246,1.423,0.688,1.97c0.222,0.284,0.49,0.521,0.807,0.72
	l12.831,7.933c0.759,0.474,1.288,1.25,1.447,2.127l2.522,13.864c0.355,1.946-1.139,3.733-3.108,3.733h-31.11
	c-1.747,0-3.163-1.416-3.163-3.164v-87.02l9.812-53.361l62.853,11.863l-34.479,56.943L146.856,438.844z"/>
<g>
	<path style="fill:#3F5666;" d="M162.043,512h-31.11c-1.747,0-3.163-1.416-3.163-3.164v-21.797l19.773-3.417
		c0.222,0.284,0.49,0.521,0.807,0.72l12.831,7.933c0.759,0.474,1.288,1.25,1.447,2.127l2.522,13.864
		C165.506,510.212,164.012,512,162.043,512z"/>
	<path style="fill:#3F5666;" d="M118.525,305.986c-10.93-0.358-40.988,2.04-56.581,36.913c-0.918,2.055,0.406,4.415,2.64,4.679
		c8.666,1.027,28.325,1.895,39.748-9.108c10.619-10.23,15.378-22.135,17.247-28.187
		C122.224,308.195,120.709,306.058,118.525,305.986z"/>
</g>
<path style="fill:#FBD476;" d="M450.352,49.742v15.041c0,11.986-9.931,17.011-22.627,19.022
	c-12.688,2.011-39.607-6.913-39.607-6.913s-29.471,268.446-28.47,276.32l-6.648,127.204c0.049,0.387,0.164,0.764,0.336,1.092
	c0.213,0.411,0.517,0.772,0.886,1.051l16.406,12.504c0.993,0.763,1.444,2.035,1.157,3.251l-2.7,11.256
	c-0.336,1.42-1.601,2.43-3.077,2.43h-29.471c-1.608,0-3.028-1.109-3.398-2.693l-4.431-21.453l-1.272-85.892
	c-0.362-1.535-1.707-2.635-3.275-2.677l-157.541-5.566c-0.92-0.032-1.822,0.304-2.504,0.945l-46.173,42.889
	c-0.649,0.6-1.502,0.935-2.389,0.935h-15.231c-1.937,0-3.505,1.568-3.505,3.497v42.889c0,0.566,0.139,1.116,0.402,1.609
	c0.23,0.46,0.575,0.87,1.001,1.19l8.1,6.075c0.641,0.484,1.108,1.183,1.297,1.946l2.987,11.962c0.55,2.208-1.116,4.343-3.39,4.343
	H78.449c-1.929,0-3.488-1.568-3.488-3.498v-89.668c0-1.363,0.779-2.594,2.003-3.169l9.98-11.239c1.223-0.583,2.01-1.814,2.01-3.169
	v-47.658c0-28.496,21.182-52.551,49.439-56.139l58.057,0.411c2.905-16.683,17.456-29.367,34.971-29.367h67.059
	c9.38-55.22,29.201-171.981,38.039-224.794c1.806-10.796,11.145-18.702,22.085-18.702h20.049c6.057,0,11.851,2.414,16.119,6.707
	l4.932,4.966c4.259,4.293,10.061,6.7,16.102,6.7h28.183C447.504,43.38,450.352,46.228,450.352,49.742z"/>
<g>
	<path style="fill:#CCA75E;" d="M358.447,43.708c1.75-10.469,10.591-18.197,21.101-18.658c-0.298-0.011-0.594-0.044-0.892-0.044
		h-20.049c-10.94,0-20.279,7.906-22.085,18.702c-8.839,52.814-28.658,169.575-38.039,224.795h12.957
		c5.18,0,9.603-3.726,10.469-8.828C331.763,201.643,350.055,93.854,358.447,43.708z"/>
	<path style="fill:#CCA75E;" d="M210.323,297.813c4.403,0.031,8.356-2.661,9.961-6.757c5.173-13.202,18.027-22.552,33.063-22.552
		H231.42c-17.459,0-31.971,12.607-34.939,29.212L210.323,297.813z"/>
	<path style="fill:#CCA75E;" d="M346.071,509.306l-4.431-21.453l2.229-83.56c-0.361-1.535-1.707-2.635-3.275-2.677l-13.487-0.494
		c0.14,0.262,0.258,0.539,0.328,0.839l1.272,85.892l4.431,21.453c0.37,1.584,1.789,2.694,3.398,2.694h12.932
		C347.86,512,346.44,510.891,346.071,509.306z"/>
	<path style="fill:#CCA75E;" d="M96.889,508.502V485.45c-0.032-0.19-0.071-0.38-0.071-0.576v-42.889
		c0-0.241,0.024-0.476,0.071-0.704v-22.448c0-1.364,0.779-2.594,2.003-3.169l9.98-11.239c1.223-0.583,2.01-1.815,2.01-3.169v-47.658
		c0-28.163,20.695-51.974,48.456-55.991l-20.944-0.148c-28.257,3.588-49.439,27.643-49.439,56.139v47.658
		c0,1.355-0.788,2.586-2.01,3.169l-9.98,11.239c-1.223,0.574-2.003,1.806-2.003,3.169v89.668c0,1.93,1.56,3.498,3.488,3.498h21.926
		C98.449,512,96.889,510.432,96.889,508.502z"/>
</g>
<g>
	<path style="fill:#3F5666;" d="M107.215,511.998H78.454c-1.937,0-3.494-1.566-3.494-3.504v-18.696l22.264-3.313
		c0.229,0.459,0.569,0.869,0.996,1.186l8.103,6.081c0.641,0.483,1.107,1.179,1.297,1.946l2.988,11.958
		C111.153,509.862,109.492,511.998,107.215,511.998z"/>
	<path style="fill:#3F5666;" d="M371.783,498.316l-2.696,11.255c-0.34,1.423-1.605,2.428-3.075,2.428h-29.474
		c-1.613,0-3.028-1.108-3.4-2.69l-4.427-21.456l24.627-6.343c0.213,0.412,0.514,0.767,0.885,1.052l16.405,12.504
		C371.624,495.825,372.075,497.098,371.783,498.316z"/>
	<ellipse style="fill:#3F5666;" cx="381.305" cy="47.156" rx="7.965" ry="7.959"/>
</g>
<g>
	<ellipse style="fill:#80693A;" cx="348.213" cy="83.832" rx="7.965" ry="7.959"/>
	<ellipse style="fill:#80693A;" cx="364.137" cy="122.567" rx="7.965" ry="7.959"/>
	<ellipse style="fill:#80693A;" cx="337.586" cy="157.581" rx="7.965" ry="7.959"/>
	<ellipse style="fill:#80693A;" cx="353.521" cy="197.904" rx="7.965" ry="7.959"/>
	<ellipse style="fill:#80693A;" cx="326.301" cy="233.451" rx="7.965" ry="7.959"/>
	<ellipse style="fill:#80693A;" cx="342.225" cy="285.978" rx="7.965" ry="7.959"/>
	<ellipse style="fill:#80693A;" cx="262.667" cy="299.238" rx="7.965" ry="7.959"/>
	<ellipse style="fill:#80693A;" cx="235.259" cy="331.609" rx="7.965" ry="7.959"/>
	<ellipse style="fill:#80693A;" cx="254.694" cy="363.969" rx="7.965" ry="7.959"/>
	<ellipse style="fill:#80693A;" cx="305.884" cy="319.091" rx="7.965" ry="7.959"/>
	<ellipse style="fill:#80693A;" cx="183.223" cy="327.053" rx="7.965" ry="7.959"/>
	<ellipse style="fill:#80693A;" cx="141.804" cy="335.015" rx="7.965" ry="7.959"/>
</g>
<path style="fill:#CCA75E;" d="M357.134,22.881c-4.483-5.656-11.22-11.912-20.439-14.777c-2.264-0.703-4.499,1.161-4.226,3.514
	c1.047,9.005,4.543,28.603,15.479,35.122c1.04,0.62,2.348,0.562,3.373-0.083c0.722-0.455,1.636-1.05,2.646-1.756
	C361.201,39.84,362.617,29.799,357.134,22.881z"/>
<path style="fill:#80693A;" d="M352.896,24.741c-2.703-3.411-6.765-7.183-12.325-8.91c-1.366-0.424-2.713,0.7-2.547,2.119
	c0.631,5.43,2.74,17.247,9.333,21.178c0.627,0.374,1.416,0.34,2.033-0.05c0.435-0.274,0.986-0.633,1.596-1.06
	C355.348,34.966,356.202,28.912,352.896,24.741z"/>
<g>
</g>
<g>
</g>
<g>
</g>
<g>
</g>
<g>
</g>
<g>
</g>
<g>
</g>
<g>
</g>
<g>
</g>
<g>
</g>
<g>
</g>
<g>
</g>
<g>
</g>
<g>
</g>
<g>
</g>
</svg>
