<?xml version="1.0" encoding="iso-8859-1"?>
<!-- Generator: Adobe Illustrator 19.0.0, SVG Export Plug-In . SVG Version: 6.00 Build 0)  -->
<svg version="1.1" id="Layer_1" xmlns="http://www.w3.org/2000/svg" xmlns:xlink="http://www.w3.org/1999/xlink" x="0px" y="0px"
	 viewBox="0 0 512.001 512.001" style="enable-background:new 0 0 512.001 512.001;" xml:space="preserve">
<path style="fill:#FF5845;" d="M406.343,48.724h99.695c4.78,0,7.611,5.345,4.921,9.293l0,0c-14.26,20.94-37.59,33.909-62.917,34.977
	l-55.414,2.335c-1.79,0.075-3.437-0.958-4.144-2.603c-3.01-6.999-8.229-26.271,15.363-43.212
	C404.571,48.994,405.451,48.724,406.343,48.724z"/>
<path style="fill:#B3D2F2;" d="M131.398,268.588H36.824C16.486,268.588,0,252.101,0,231.764l0,0c0-4.409,3.575-7.983,7.983-7.983
	h123.414v44.807H131.398z"/>
<path style="fill:#E1E9F2;" d="M397.538,223.777h0.078v25.359c0,92.13-74.258,167.952-166.47,167.997
	c-92.024,0.045-166.637-74.473-166.637-166.405c0-7.442,3.022-14.182,7.906-19.062c4.873-4.868,11.619-7.888,19.068-7.888H264.84
	l35.137-172.767c4.337-10.328,11.33-19.085,20.049-25.68c0.022-0.011,0.033-0.022,0.055-0.045
	c10.583-7.966,23.685-12.757,37.635-13.269h0.011c2.397,0.089,4.762,0.334,7.07,0.736c25.491,4.345,44.884,26.527,44.884,53.222
	c0,13.754-5.149,26.311-13.624,35.842c-6.048,6.802-8.791,15.925-7.914,24.982L397.538,223.777z"/>
<g>
	<path style="fill:#B3D2F2;" d="M213.932,415.541c-0.153-1.785-1.336-3.292-3.071-3.742
		c-71.682-18.575-124.615-83.642-124.615-161.071c0-7.442,3.022-14.182,7.906-19.063c4.873-4.868,11.619-7.888,19.068-7.888H91.484
		c-7.449,0-14.195,3.02-19.068,7.888c-4.884,4.881-7.906,11.62-7.906,19.063c0,86.156,65.533,157.018,149.514,165.544
		C213.984,416.03,213.953,415.786,213.932,415.541z"/>
	<path style="fill:#B3D2F2;" d="M321.715,51.011c4.337-10.328,11.33-19.084,20.049-25.68c0.022-0.011,0.033-0.023,0.055-0.045
		c7.64-5.751,16.597-9.836,26.235-11.862c-1.075-0.253-2.158-0.485-3.256-0.672c-2.308-0.401-4.673-0.646-7.07-0.736h-0.011
		c-13.95,0.512-27.052,5.303-37.635,13.269c-0.022,0.022-0.033,0.033-0.055,0.045c-8.72,6.595-15.712,15.352-20.049,25.68
		L264.84,223.777h21.738L321.715,51.011z"/>
</g>
<ellipse style="fill:#96BDE6;" cx="366.487" cy="45.751" rx="8.084" ry="8.079"/>
<path style="fill:#FBD476;" d="M295.593,499.985h-113.57c-3.016,0-5.461-2.442-5.461-5.455v-63.747h28.732v37.394
	c0,3.012,2.445,5.455,5.461,5.455h67.632c12.035,0,21.791,9.748,21.791,21.773l0,0C300.178,497.934,298.125,499.985,295.593,499.985
	z"/>
<path style="fill:#E1E9F2;" d="M160.43,400.399l5.835,42.347c0.372,2.7,2.681,4.711,5.409,4.711h41.17
	c2.757,0,5.081-2.054,5.419-4.788l5.27-42.716c2.34-18.958-12.464-35.681-31.581-35.681l0,0
	C172.655,364.271,157.798,381.297,160.43,400.399z"/>
<path style="fill:#B3D2F2;" d="M187.958,442.745l-5.835-42.347c-2.11-15.315,7.026-29.285,20.674-34.227
	c-3.375-1.221-7.022-1.901-10.845-1.901l0,0c-19.299,0-34.155,17.027-31.522,36.127l5.835,42.347c0.372,2.7,2.681,4.711,5.409,4.711
	h21.693C190.64,447.457,188.33,445.445,187.958,442.745z"/>
<path style="fill:#CEDFF2;" d="M344.463,250.734c0,19.196-3.255,37.627-9.238,54.786c-5.982,17.16-14.703,33.038-25.632,47.117
	c-17.193,22.136-43.698,35.052-71.745,35.052h-58.53c-15.37-0.01-27.81-12.442-27.81-27.803v-17.601H128.97
	c-15.36,0-27.81-12.442-27.81-27.781v-31.109H81.079c-15.37,0-27.82-12.442-27.82-27.781v-31.832h264.235
	C332.39,223.782,344.463,235.847,344.463,250.734z"/>
<path style="fill:#96BDE6;" d="M287.614,342.047c0.13,4.567-3.536,8.327-8.084,8.327H173.066v9.512
	c0,15.361,12.45,27.803,27.82,27.803h-21.569c-15.37-0.01-27.81-12.442-27.81-27.803v-17.601H128.97
	c-15.36,0-27.81-12.442-27.81-27.781v-31.109H81.079c-15.37,0-27.82-12.442-27.82-27.781v-31.832h21.558v31.832
	c0,7.702,3.147,14.671,8.214,19.702h143.392c4.538,0,8.214,3.749,8.074,8.327c-0.13,4.427-3.988,7.831-8.419,7.831H122.719v23.031
	c0,7.702,3.147,14.671,8.214,19.712h148.264C283.616,334.216,287.474,337.62,287.614,342.047z"/>
<g>
</g>
<g>
</g>
<g>
</g>
<g>
</g>
<g>
</g>
<g>
</g>
<g>
</g>
<g>
</g>
<g>
</g>
<g>
</g>
<g>
</g>
<g>
</g>
<g>
</g>
<g>
</g>
<g>
</g>
</svg>
