<?xml version="1.0" encoding="iso-8859-1"?>
<!-- Generator: Adobe Illustrator 19.0.0, SVG Export Plug-In . SVG Version: 6.00 Build 0)  -->
<svg version="1.1" id="Layer_1" xmlns="http://www.w3.org/2000/svg" xmlns:xlink="http://www.w3.org/1999/xlink" x="0px" y="0px"
	 viewBox="0 0 512.001 512.001" style="enable-background:new 0 0 512.001 512.001;" xml:space="preserve">
<path style="fill:#3F5666;" d="M281.201,449.307h-89.7c-2.381,0-4.312-1.929-4.312-4.309v-50.352h22.693v29.536
	c0,2.38,1.931,4.309,4.312,4.309h53.417c9.505,0,17.212,7.7,17.212,17.197l0,0C284.822,447.687,283.201,449.307,281.201,449.307z"/>
<path style="fill:#FBB071;" d="M507.685,141.105H345.655V63.072l16.129-0.377h71.869c41.821,0,76.009,32.704,78.341,73.915
	C512.133,139.058,510.139,141.105,507.685,141.105z"/>
<polygon style="fill:#CC894F;" points="383.347,63.072 383.347,141.105 345.655,141.105 345.655,63.072 361.784,62.695 
	382.992,62.695 "/>
<path id="SVGCleanerId_0" style="fill:#3F5666;" d="M118.407,239.111L5.524,186.395c-2.707-1.264-5.769,0.876-5.508,3.85
	l1.433,16.317c0.742,8.456,6.231,15.756,14.152,18.823l12.321,4.772c1.527,0.591,2.517,2.075,2.476,3.71l-0.103,4.151
	c-0.274,11.025,7.568,20.59,18.44,22.494l69.671,12.195V239.111z"/>
<g>
	<path id="SVGCleanerId_0_1_" style="fill:#3F5666;" d="M118.407,239.111L5.524,186.395c-2.707-1.264-5.769,0.876-5.508,3.85
		l1.433,16.317c0.742,8.456,6.231,15.756,14.152,18.823l12.321,4.772c1.527,0.591,2.517,2.075,2.476,3.71l-0.103,4.151
		c-0.274,11.025,7.568,20.59,18.44,22.494l69.671,12.195V239.111z"/>
</g>
<path style="fill:#2F3F4A;" d="M80.015,265.85c-12.735-2.229-21.921-13.434-21.601-26.348l0.12-4.863
	c0.048-1.915-1.113-3.654-2.901-4.347L41.2,224.703c-9.279-3.593-15.708-12.144-16.577-22.049l-0.672-7.653l-18.428-8.606
	c-2.707-1.264-5.769,0.876-5.508,3.85l1.433,16.317c0.743,8.456,6.231,15.756,14.152,18.823l12.321,4.771
	c1.527,0.591,2.517,2.075,2.476,3.71l-0.103,4.151c-0.274,11.025,7.568,20.59,18.44,22.494l69.671,12.195v-0.137L80.015,265.85z"/>
<path style="fill:#F2E5CB;" d="M361.784,62.695v189.735c0,72.585-58.899,131.435-131.556,131.435
	c-72.645,0-131.544-58.85-131.544-131.435c0-5.882,2.382-11.203,6.242-15.049c3.86-3.857,9.186-6.237,15.062-6.237h164.903V121.77
	c-0.001-32.619,26.467-59.075,59.124-59.075H361.784z"/>
<path style="fill:#FBB071;" d="M120.844,252.429c0-5.882,2.382-11.203,6.242-15.049c3.86-3.857,9.186-6.237,15.062-6.237h-22.161
	c-5.875,0-11.202,2.38-15.062,6.237c-3.86,3.845-6.242,9.167-6.242,15.049c0,72.585,58.899,131.435,131.544,131.435
	c3.733,0,7.427-0.164,11.081-0.468C173.85,377.771,120.844,321.284,120.844,252.429z"/>
<path style="fill:#D1C1A1;" d="M307.052,121.77c0-31.141,24.13-56.648,54.733-58.897v-0.179h-17.767
	c-32.654,0-59.126,26.441-59.126,59.058v109.39h3.231c10.455,0,18.93-8.466,18.93-18.908V121.77H307.052z"/>
<g>
	<ellipse style="fill:#2F3F4A;" cx="335.821" cy="98.723" rx="8.086" ry="8.077"/>
	<path style="fill:#2F3F4A;" d="M174.446,370.647l4.608,33.448c0.294,2.133,2.118,3.721,4.273,3.721h32.517
		c2.178,0,4.013-1.622,4.28-3.781l4.163-33.74c1.847-14.973-9.844-28.183-24.944-28.183l0,0
		C184.101,342.111,172.367,355.56,174.446,370.647z"/>
</g>
<path style="fill:#3F5666;" d="M340.48,231.143c11.766,0,21.304,9.531,21.304,21.287l0,0c0,44.856-22.49,84.466-56.829,108.176
	h-73.605c-12.135,0-21.973-9.829-21.973-21.954v-13.907h-17.8c-12.129,0-21.962-9.824-21.962-21.943V278.23h-15.859
	c-12.14,0-21.973-9.824-21.973-21.944v-25.143H340.48z"/>
<path style="fill:#2F3F4A;" d="M310.224,316.674H196.321c-3.094-3.78-4.949-8.615-4.949-13.871v-16.498h77.174
	c4.539,0,8.209-3.731,8.083-8.305c-0.122-4.428-3.983-7.848-8.418-7.848H158.489c-3.094-3.78-4.949-8.605-4.949-13.871v-25.135
	h-21.757v25.135c0,9.908,6.555,18.275,15.579,21c2.017,0.613,4.172,0.948,6.394,0.948h11.547c2.381,0,4.312,1.929,4.312,4.308v3.769
	v16.498c0,10.575,7.493,19.406,17.465,21.484c1.456,0.29,2.954,0.452,4.496,0.452h13.488c2.381,0,4.312,1.929,4.312,4.308v3.78
	v5.826c0,12.121,9.838,21.947,21.973,21.947h21.757c-12.129,0-21.973-9.821-21.973-21.947v-5.826h79.362
	c4.811,0,8.644-4.203,8.02-9.13C317.999,319.624,314.335,316.674,310.224,316.674z"/>
<g>
</g>
<g>
</g>
<g>
</g>
<g>
</g>
<g>
</g>
<g>
</g>
<g>
</g>
<g>
</g>
<g>
</g>
<g>
</g>
<g>
</g>
<g>
</g>
<g>
</g>
<g>
</g>
<g>
</g>
</svg>
