<?xml version="1.0" encoding="iso-8859-1"?>
<!-- Generator: Adobe Illustrator 19.0.0, SVG Export Plug-In . SVG Version: 6.00 Build 0)  -->
<svg version="1.1" id="Layer_1" xmlns="http://www.w3.org/2000/svg" xmlns:xlink="http://www.w3.org/1999/xlink" x="0px" y="0px"
	 viewBox="0 0 512 512" style="enable-background:new 0 0 512 512;" xml:space="preserve">
<path style="fill:#628FA3;" d="M420.875,111.028h-12.227c-6.911,0-12.566-5.655-12.566-12.566V45.699
	c0-18.238,14.922-33.16,33.16-33.16h0.011c2.304,0,4.189,1.885,4.189,4.189v81.734C433.441,105.373,427.786,111.028,420.875,111.028
	z"/>
<g>
	<path style="fill:#476775;" d="M75.475,249.205L75.475,249.205c-29.628,0-55.227,20.711-61.42,49.693L0.094,364.232
		c-0.557,2.608,1.43,5.067,4.097,5.067l0,0c25.763,0,48.096-17.839,53.794-42.971L75.475,249.205z"/>
	<path style="fill:#476775;" d="M333.131,480.565l-2.986,15.685c-0.352,1.867-1.874,3.21-3.635,3.21h-35.192
		c-2.421,0-4.312-2.271-4.08-4.895l1.966-24.748l12.363-155.749l46.497-22.326l-32.276,171.706c-0.093,0.495-0.102,0.99-0.019,1.473
		c0.177,1.181,0.835,2.231,1.828,2.846l13.727,8.458C332.724,477.094,333.456,478.84,333.131,480.565z"/>
</g>
<path style="fill:#3F5666;" d="M333.131,480.565l-2.986,15.685c-0.352,1.867-1.874,3.21-3.635,3.21h-35.192
	c-2.421,0-4.312-2.271-4.08-4.895l1.966-24.748l26.567-4.895c0.177,1.181,0.835,2.231,1.828,2.846l13.727,8.458
	C332.724,477.094,333.456,478.84,333.131,480.565z"/>
<path style="fill:#476775;" d="M123.209,406.097v54.635c0,0.929,0.312,1.817,0.878,2.513c0.282,0.364,0.626,0.666,1.029,0.918
	l16.377,10.124c0.969,0.605,1.645,1.595,1.846,2.715l3.219,17.693c0.455,2.483-1.453,4.764-3.965,4.764h-39.706
	c-2.23,0-4.036-1.807-4.036-4.038V384.367l12.522-68.099l80.218,15.14l-44.004,72.672L123.209,406.097z"/>
<path style="fill:#3F5666;" d="M142.592,499.46h-39.705c-2.23,0-4.036-1.807-4.036-4.038v-27.817l25.236-4.36
	c0.282,0.364,0.626,0.666,1.029,0.918l16.377,10.124c0.969,0.605,1.645,1.595,1.846,2.715l3.219,17.693
	C147.012,497.179,145.105,499.46,142.592,499.46z"/>
<path style="fill:#91BED4;" d="M512,115.213v19.186c0,15.308-13.797,26.909-28.866,24.281l-16.212-0.399l-36.282-0.894
	c0,0-1.833,38.081,0.065,85.244c0.572,14.296-0.237,28.58-2.403,42.649v0.022c-2.188,14.37-5.789,28.537-10.735,42.283
	c-2.415,6.689-4.7,13.703-6.856,20.855c-15.565,51.634-24.404,110.711-24.404,110.711c0.065,0.506,0.205,0.98,0.432,1.4
	c0.27,0.517,0.657,0.98,1.132,1.336l20.932,15.954c1.272,0.98,1.843,2.607,1.476,4.159l-3.439,14.36
	c-0.432,1.82-2.048,3.102-3.924,3.102h-37.618c-2.058,0-3.869-1.411-4.344-3.437l-5.648-27.372l-1.628-109.623
	c-0.464-1.96-2.178-3.361-4.183-3.415l-201.071-7.099c-1.164-0.032-2.318,0.388-3.19,1.196l-58.928,54.735
	c-0.83,0.765-1.918,1.196-3.05,1.196H63.822c-2.48,0-4.473,2.003-4.473,4.482v54.724c0,0.722,0.183,1.433,0.507,2.046
	c0.29,0.593,0.732,1.11,1.283,1.519l10.337,7.767c0.819,0.604,1.412,1.498,1.649,2.479l3.816,15.253
	c0.701,2.822-1.412,5.548-4.323,5.548H35.915c-2.468,0-4.463-2.004-4.463-4.46V380.563c0-1.745,0.992-3.318,2.555-4.05l12.74-14.339
	c1.552-0.732,2.565-2.315,2.565-4.04v-60.822c0-36.368,27.034-67.07,63.1-71.649l153.438,1.4
	c30.947,0.281,58.638-19.218,68.802-48.465l23.293-67.006c0.884-2.532,1.994-4.934,3.299-7.197V45.718
	c0-18.248,14.929-33.18,33.178-33.18c1.154,0,2.198,0.474,2.964,1.228c0.754,0.765,1.229,1.811,1.229,2.962v66.909h21.892
	c7.718,0,15.123,3.092,20.555,8.564l6.294,6.345c5.443,5.472,12.848,8.542,20.555,8.542h35.97
	C508.368,107.089,512,110.72,512,115.213z"/>
<g>
	<path style="fill:#628FA3;" d="M286.464,226.536c30.952,0.297,58.637-20.194,68.807-50.936l23.295-70.414
		c0.88-2.663,1.991-5.186,3.3-7.564V35.963c0-8.868,3.195-16.987,8.43-23.157c-16.316,2.049-29.045,16.061-29.045,32.914v58.675
		c-1.309,2.263-2.42,4.662-3.3,7.198l-23.295,67.004c-9.047,26.021-31.956,44.311-58.692,47.839L286.464,226.536z"/>
	<path style="fill:#628FA3;" d="M52.065,387.842c0-1.828,0.995-3.48,2.556-4.251l12.737-15.074c1.561-0.771,2.566-2.434,2.566-4.239
		v-63.917c0-36.654,24.86-67.805,58.696-74.552l-16.213-0.148c-36.064,4.58-63.098,35.278-63.098,71.656v60.822
		c0,1.718-1.005,3.3-2.566,4.033l-12.737,14.343c-1.561,0.735-2.556,2.306-2.556,4.045v114.435c0,2.466,1.998,4.465,4.463,4.465
		h16.152C52.065,499.46,52.065,387.842,52.065,387.842z"/>
	<path style="fill:#628FA3;" d="M375.917,480.41l-1.624-115.194c-0.461-2.058-2.179-3.535-4.18-3.589l-16.406-0.609l1.595,107.63
		l5.656,27.377c0.471,2.022,2.283,3.437,4.336,3.437h14.367L375.917,480.41z"/>
</g>
<g>
	<path style="fill:#3F5666;" d="M72.616,499.46H35.908c-2.472,0-4.46-1.999-4.46-4.471v-23.86l28.414-4.229
		c0.293,0.585,0.726,1.11,1.272,1.514l10.342,7.762c0.817,0.615,1.413,1.504,1.655,2.483l3.814,15.261
		C77.641,496.735,75.522,499.46,72.616,499.46z"/>
	<path style="fill:#3F5666;" d="M410.279,481.999l-3.441,14.363c-0.434,1.817-2.048,3.099-3.925,3.099h-37.617
		c-2.058,0-3.865-1.413-4.338-3.431l-5.651-27.383l31.432-8.095c0.273,0.525,0.656,0.979,1.131,1.343l20.938,15.958
		C410.077,478.819,410.652,480.445,410.279,481.999z"/>
</g>
<g>
	<path style="fill:#F2E5CB;" d="M428.302,285.28v0.022c-2.188,14.37-5.789,28.537-10.735,42.283
		c-2.415,6.689-4.7,13.703-6.856,20.855l-0.324,0.076l-60.89,7.099l-201.071-7.099l10.127-7.563
		c21.452-16.021,47.513-24.678,74.293-24.678h106.897c20.731,0,41.131-5.19,59.339-15.096L428.302,285.28z"/>
	<path style="fill:#F2E5CB;" d="M512,115.208v19.194c0,15.308-13.795,26.907-28.867,24.277l-16.215-0.399l5.687-51.193h31.277
		C508.366,107.088,512,110.724,512,115.208z"/>
</g>
<circle style="fill:#3F5666;" cx="425.357" cy="111.156" r="8.084"/>
<g>
</g>
<g>
</g>
<g>
</g>
<g>
</g>
<g>
</g>
<g>
</g>
<g>
</g>
<g>
</g>
<g>
</g>
<g>
</g>
<g>
</g>
<g>
</g>
<g>
</g>
<g>
</g>
<g>
</g>
</svg>
