<?xml version="1.0" encoding="iso-8859-1"?>
<!-- Generator: Adobe Illustrator 19.0.0, SVG Export Plug-In . SVG Version: 6.00 Build 0)  -->
<svg version="1.1" id="Layer_1" xmlns="http://www.w3.org/2000/svg" xmlns:xlink="http://www.w3.org/1999/xlink" x="0px" y="0px"
	 viewBox="0 0 512 512" style="enable-background:new 0 0 512 512;" xml:space="preserve">
<path style="fill:#B53C2F;" d="M211.436,324.591l38.517,44.635c3.369,3.904,3.027,9.779-0.769,13.267l-62.343,57.25l12.335,26.507
	l69.192-63.212c15.227-13.911,16.267-37.559,2.32-52.755l-28.606-31.168L211.436,324.591z"/>
<path style="fill:#FF5845;" d="M182.765,306.595v193.253c0,2.383,1.93,4.315,4.311,4.315h48.32c2.601,0,4.709-2.111,4.709-4.715
	v-0.242c0-12.495-10.119-22.624-22.602-22.624h-0.02c-3.341,0-6.049-2.71-6.049-6.055V306.595H182.765z"/>
<path style="fill:#F2E5CB;" d="M325.16,327.718h26.102c44.873,0,81.25-36.389,81.25-81.276V67.396h56.319
	c12.797,0,23.17-10.376,23.17-23.176l0,0h-62.623V31.698c0-13.178-10.68-23.861-23.853-23.861h-3.308
	c-21.479,0-38.89,17.417-38.89,38.903v190.82c0,18.973-15.376,34.353-34.343,34.353h-23.822v55.805H325.16z"/>
<path style="fill:#D1C1A1;" d="M405.242,237.56V46.739c0-15.145,8.655-28.261,21.286-34.685c2.071-1.053,1.404-4.209-0.918-4.217
	c-0.028,0-0.057,0-0.086,0h-3.308c-21.479,0-38.89,17.417-38.89,38.903v190.82c0,18.973-15.376,34.353-34.343,34.353h21.917
	C389.866,271.913,405.242,256.532,405.242,237.56z"/>
<ellipse style="fill:#2F3F4A;" cx="421.46" cy="32.653" rx="8.084" ry="8.093"/>
<path style="fill:#F2E5CB;" d="M150.39,327.721H0v-1.069c0-19.644,15.92-35.569,35.558-35.569h114.831v36.638H150.39z"/>
<path style="fill:#3F5666;" d="M354.597,304.529v23.191H91.459c-6.395,0-12.191-2.594-16.391-6.796
	c-4.2-4.202-6.794-10-6.794-16.397c0-79.094,64.098-143.212,143.155-143.212c30.928,0,59.557,9.812,82.965,26.478
	C330.826,213.758,354.597,256.374,354.597,304.529z"/>
<path style="fill:#2F3F4A;" d="M92.528,304.529c0-75.004,57.643-136.532,131.021-142.694c-3.996-0.335-8.035-0.517-12.119-0.517
	c-79.057,0-143.155,64.117-143.155,143.212c0,6.397,2.593,12.194,6.794,16.397c4.2,4.202,9.997,6.796,16.391,6.796h24.253
	c-6.395,0-12.191-2.594-16.391-6.796C95.12,316.724,92.528,310.926,92.528,304.529z"/>
<path style="fill:#3F5666;" d="M354.597,304.529v23.191H96.211v-9.828c0-22.153,17.952-40.112,40.099-40.112h14.08
	c2.478,0,4.487-2.009,4.487-4.488l0,0c0-22.153,17.952-40.112,40.099-40.112h7.826c2.479,0,4.487-2.009,4.487-4.488v-0.787
	c0-22.153,17.952-40.112,40.099-40.112h47.008C330.826,213.758,354.597,256.374,354.597,304.529z"/>
<path style="fill:#2F3F4A;" d="M301.024,233.179c0,4.467-3.622,8.093-8.084,8.093h-95.426c-1.488,1.111-2.9,2.342-4.214,3.657
	c-6.456,6.463-10.725,15.117-11.587,24.762h65.461c4.473,0,8.084,3.614,8.084,8.093c0,4.467-3.611,8.093-8.084,8.093H138.844
	c-9.69,7.305-15.952,18.925-15.952,32.013v9.829H96.213v-9.829c0-17.317,10.962-32.067,26.322-37.678
	c4.301-1.576,8.936-2.427,13.776-2.427h14.077c1.239,0,2.36-0.507,3.169-1.317c0.819-0.809,1.314-1.931,1.314-3.172
	c0-1.219,0.054-2.417,0.162-3.604c1.412-15.818,12.008-29.002,26.419-34.16c4.226-1.532,8.784-2.352,13.527-2.352h7.825
	c2.468,0,4.484-2.007,4.484-4.489v-0.788c0-0.95,0.032-1.888,0.097-2.816c1.444-20.835,18.799-37.289,40.001-37.289h26.678
	c-21.202,0-38.557,16.454-40.001,37.289h58.875C297.402,225.088,301.024,228.712,301.024,233.179z"/>
<g>
</g>
<g>
</g>
<g>
</g>
<g>
</g>
<g>
</g>
<g>
</g>
<g>
</g>
<g>
</g>
<g>
</g>
<g>
</g>
<g>
</g>
<g>
</g>
<g>
</g>
<g>
</g>
<g>
</g>
</svg>
