<?xml version="1.0" encoding="iso-8859-1"?>
<!-- Generator: Adobe Illustrator 19.0.0, SVG Export Plug-In . SVG Version: 6.00 Build 0)  -->
<svg version="1.1" id="Layer_1" xmlns="http://www.w3.org/2000/svg" xmlns:xlink="http://www.w3.org/1999/xlink" x="0px" y="0px"
	 viewBox="0 0 512 512" style="enable-background:new 0 0 512 512;" xml:space="preserve">
<g>
	<path style="fill:#C97E67;" d="M310.88,357.214v22.431c0,0.787-0.01,1.563-0.022,2.339c-0.097,5.465-0.517,10.832-1.261,16.114
		c-1.273,9.086-3.461,17.882-6.491,26.29c-1.833,5.11-3.979,10.078-6.394,14.865c-4.097,8.095-8.992,15.715-14.588,22.755
		c-3.353,4.226-6.965,8.235-10.815,12.018c-6.404,6.316-13.467,11.976-21.046,16.891c-4.517,2.922-9.218,5.572-14.091,7.934
		c-8.044,3.913-16.54,7.018-25.381,9.226c-5.186,1.304-10.491,2.285-15.903,2.942c-5.262,0.647-10.631,0.981-16.065,0.981
		c-3.665,0-7.288-0.151-10.878-0.452c-5.435-0.442-10.782-1.218-16.011-2.307c-8.95-1.865-17.553-4.625-25.737-8.214
		c-4.96-2.156-9.769-4.625-14.393-7.362c-7.774-4.613-15.04-9.992-21.683-16.05c-3.989-3.633-7.763-7.502-11.289-11.587
		c-5.865-6.823-11.052-14.239-15.451-22.161c-2.609-4.688-4.949-9.561-6.976-14.584c-3.364-8.3-5.909-17.009-7.525-26.032
		c-0.959-5.26-1.596-10.617-1.898-16.06c-0.14-2.5-0.215-5.012-0.215-7.545v-93.636c0-9.151,7.397-16.567,16.529-16.567
		c9.122,0,16.518,7.416,16.518,16.567v93.636c0,1.229,0.022,2.458,0.075,3.676c0.194,5.465,0.831,10.822,1.887,16.028
		c1.089,5.379,2.609,10.596,4.529,15.619c1.919,5.066,4.259,9.928,6.965,14.563c2.728,4.7,5.844,9.162,9.294,13.333
		c3.428,4.15,7.192,8.02,11.257,11.576c4.075,3.557,8.442,6.791,13.067,9.648c4.561,2.835,9.358,5.303,14.373,7.362
		c4.949,2.048,10.102,3.698,15.407,4.926c5.186,1.186,10.523,1.973,15.979,2.306c2.049,0.13,4.107,0.194,6.178,0.194
		c3.397,0,6.76-0.172,10.071-0.517c5.423-0.539,10.728-1.541,15.871-2.942c5.251-1.423,10.329-3.277,15.202-5.519
		c4.916-2.263,9.617-4.915,14.071-7.922c4.507-3.04,8.744-6.446,12.68-10.175c3.914-3.697,7.525-7.707,10.793-11.996
		c3.288-4.301,6.232-8.882,8.776-13.7c2.523-4.721,4.658-9.68,6.383-14.821c1.715-5.088,3.03-10.359,3.892-15.78
		c0.841-5.163,1.273-10.455,1.273-15.855v-22.431c0-9.151,7.397-16.567,16.518-16.567
		C303.483,340.647,310.88,348.063,310.88,357.214z"/>
	<path style="fill:#C97E67;" d="M258.181,188.224h-64.922c-24.557,0-44.536-20.023-44.536-44.636v-20.331
		c0-5.488,4.439-9.936,9.913-9.936c5.474,0,9.913,4.448,9.913,9.936v20.331c0,13.655,11.084,24.764,24.709,24.764h64.922
		c5.474,0,9.913,4.448,9.913,9.936S263.656,188.224,258.181,188.224z"/>
	<path style="fill:#C97E67;" d="M326.109,188.224h64.922c24.557,0,44.536-20.023,44.536-44.636v-20.331
		c0-5.488-4.439-9.936-9.913-9.936s-9.913,4.448-9.913,9.936v20.331c0,13.655-11.084,24.764-24.709,24.764h-64.922
		c-5.474,0-9.913,4.448-9.913,9.936S320.635,188.224,326.109,188.224z"/>
</g>
<path style="fill:#FBB071;" d="M152.784,133.893h-6.527c-20.941,0-37.917-16.976-37.917-37.917V47.009
	C108.34,21.046,129.387,0,155.349,0h0.007c1.813,0,3.282,1.469,3.282,3.282V128.04C158.639,131.273,156.017,133.893,152.784,133.893
	z"/>
<path style="fill:#CC894F;" d="M129.852,95.981V47.003c0-19.497,11.874-36.218,28.787-43.337V3.282c0-1.812-1.469-3.282-3.282-3.282
	l0,0c-25.966,0-47.015,21.044-47.015,47.003v48.979c0,20.938,16.979,37.912,37.922,37.912h6.521c1.563,0,2.98-0.616,4.03-1.614
	C141.215,127.577,129.852,113.109,129.852,95.981z"/>
<path style="fill:#C97E67;" d="M163.18,130.934h5.065c16.246,0,29.416-13.17,29.416-29.416V63.529
	c0-20.142-16.329-36.47-36.47-36.47h-0.005c-1.406,0-2.546,1.14-2.546,2.546v96.788C158.639,128.901,160.672,130.934,163.18,130.934
	z"/>
<path style="fill:#B06750;" d="M180.202,126.393v-93.99c-5.538-3.39-12.049-5.346-19.017-5.346l0,0c-1.406,0-2.546,1.14-2.546,2.546
	v96.789c0,2.508,2.033,4.541,4.542,4.541h5.059c4.412,0,8.593-0.978,12.35-2.717C180.343,127.658,180.202,127.043,180.202,126.393z"
	/>
<g>
	<path style="fill:#B8674D;" d="M190.192,447.755c-0.786,0.116-1.597,0.139-2.422,0.057c-5.449-0.535-9.433-5.397-8.898-10.858
		l2.836-28.995c1.976-20.203,14.52-38.265,32.735-47.138l30.388-14.803c4.927-2.403,10.856-0.343,13.249,4.592
		c2.393,4.935,0.342,10.882-4.583,13.28l-30.388,14.803c-12.058,5.874-20.362,17.831-21.67,31.206l-2.836,28.995
		C198.15,443.528,194.589,447.106,190.192,447.755z"/>
	<path style="fill:#B8674D;" d="M152.693,375.207c-0.746-0.273-1.469-0.641-2.157-1.108c-4.535-3.074-5.725-9.252-2.656-13.797
		l16.287-24.131c11.349-16.813,30.968-26.695,51.2-25.79l33.753,1.511c5.473,0.242,9.705,4.887,9.462,10.37
		c-0.245,5.482-4.877,9.728-10.346,9.482l-33.753-1.511c-13.393-0.599-26.382,5.942-33.894,17.073l-16.287,24.131
		C161.7,375.294,156.867,376.737,152.693,375.207z"/>
	<path style="fill:#B8674D;" d="M140.729,316.012c-0.683-0.405-1.327-0.901-1.917-1.485c-3.895-3.856-3.934-10.147-0.086-14.051
		l20.428-20.727c14.234-14.442,35.329-20.548,55.053-15.937l32.904,7.693c5.336,1.244,8.645,6.589,7.403,11.933
		c-1.244,5.344-6.575,8.666-11.907,7.419l-32.904-7.693c-13.057-3.052-27.021,0.991-36.444,10.55l-20.428,20.727
		C149.567,317.753,144.552,318.282,140.729,316.012z"/>
	<path style="fill:#B8674D;" d="M140.879,257.108c-0.611-0.508-1.17-1.097-1.662-1.767c-3.245-4.419-2.302-10.639,2.108-13.892
		l23.41-17.27c16.312-12.033,38.1-14.758,56.861-7.113l31.299,12.754c5.076,2.066,7.512,7.863,5.45,12.946
		c-2.063,5.083-7.845,7.53-12.917,5.462l-31.299-12.754c-12.42-5.06-26.843-3.256-37.641,4.709l-23.41,17.269
		C149.337,260.213,144.301,259.95,140.879,257.108z"/>
	<path style="fill:#B8674D;" d="M394.099,447.755c0.786,0.116,1.597,0.139,2.422,0.057c5.449-0.535,9.433-5.397,8.898-10.858
		l-2.836-28.995c-1.976-20.203-14.52-38.265-32.735-47.138l-30.388-14.803c-4.927-2.403-10.857-0.343-13.249,4.592
		c-2.393,4.935-0.342,10.882,4.583,13.28l30.388,14.803c12.058,5.874,20.362,17.831,21.67,31.206l2.836,28.995
		C386.141,443.528,389.702,447.106,394.099,447.755z"/>
	<path style="fill:#B8674D;" d="M431.597,375.207c0.746-0.273,1.469-0.641,2.157-1.108c4.535-3.074,5.725-9.252,2.656-13.797
		l-16.287-24.131c-11.349-16.813-30.968-26.695-51.2-25.79l-33.753,1.511c-5.473,0.242-9.705,4.887-9.462,10.37
		c0.245,5.482,4.877,9.728,10.346,9.482l33.753-1.511c13.393-0.599,26.382,5.942,33.894,17.073l16.287,24.131
		C422.591,375.294,427.423,376.737,431.597,375.207z"/>
	<path style="fill:#B8674D;" d="M443.561,316.012c0.683-0.405,1.327-0.901,1.917-1.485c3.895-3.856,3.934-10.147,0.086-14.051
		l-20.428-20.727c-14.234-14.442-35.329-20.548-55.053-15.937l-32.904,7.693c-5.336,1.244-8.645,6.589-7.403,11.933
		c1.243,5.344,6.574,8.666,11.907,7.419l32.904-7.693c13.057-3.052,27.021,0.991,36.444,10.55l20.428,20.727
		C434.724,317.753,439.738,318.282,443.561,316.012z"/>
	<path style="fill:#B8674D;" d="M443.411,257.108c0.611-0.508,1.17-1.097,1.662-1.767c3.245-4.419,2.302-10.639-2.108-13.892
		l-23.41-17.27c-16.312-12.033-38.1-14.758-56.861-7.113l-31.299,12.754c-5.076,2.066-7.512,7.863-5.45,12.946
		c2.063,5.083,7.845,7.53,12.917,5.462l31.299-12.754c12.42-5.06,26.843-3.256,37.641,4.709l23.41,17.27
		C434.953,260.213,439.989,259.95,443.411,257.108z"/>
</g>
<g>
	<path style="fill:#91523D;" d="M310.858,381.984c-0.097,5.465-0.517,10.832-1.261,16.114l-32.701-2.555
		c-0.108-0.01-0.227-0.022-0.334-0.043c0.841-5.163,1.273-10.455,1.273-15.855v-0.227c0.108,0,0.215,0,0.324,0.01L310.858,381.984z"
		/>
	<path style="fill:#91523D;" d="M303.106,424.388c-1.833,5.11-3.979,10.078-6.394,14.865l-30.124-13
		c-0.108-0.043-0.205-0.086-0.302-0.15c2.523-4.721,4.658-9.68,6.383-14.821c0.108,0.043,0.215,0.087,0.324,0.13L303.106,424.388z"
		/>
	<path style="fill:#91523D;" d="M282.125,462.007c-3.353,4.226-6.965,8.235-10.815,12.018l-24.367-22
		c-0.075-0.065-0.15-0.14-0.227-0.227c3.914-3.697,7.525-7.707,10.793-11.996c0.097,0.065,0.183,0.15,0.27,0.227L282.125,462.007z"
		/>
	<path style="fill:#91523D;" d="M250.263,490.916c-4.517,2.922-9.218,5.572-14.091,7.934l-16.065-28.682
		c-0.054-0.087-0.097-0.183-0.14-0.27c4.916-2.263,9.617-4.915,14.071-7.922c0.065,0.097,0.13,0.194,0.183,0.302L250.263,490.916z"
		/>
	<path style="fill:#91523D;" d="M210.791,508.076c-5.186,1.304-10.491,2.285-15.903,2.942l-5.952-32.336
		c-0.022-0.108-0.032-0.215-0.043-0.323c5.423-0.539,10.728-1.541,15.871-2.942c0.032,0.108,0.054,0.227,0.075,0.334
		L210.791,508.076z"/>
	<path style="fill:#91523D;" d="M172.645,478.682c0,0.108-0.022,0.216-0.032,0.324l-4.669,32.541
		c-5.435-0.442-10.782-1.218-16.011-2.307l4.669-32.531c0.022-0.119,0.032-0.227,0.065-0.334
		C161.853,477.561,167.189,478.348,172.645,478.682z"/>
	<path style="fill:#91523D;" d="M141.259,471.45c-0.043,0.097-0.087,0.194-0.14,0.292l-14.922,29.286
		c-4.96-2.156-9.769-4.625-14.393-7.362l14.912-29.254c0.054-0.108,0.118-0.216,0.172-0.324
		C131.447,466.922,136.245,469.391,141.259,471.45z"/>
	<path style="fill:#91523D;" d="M113.819,454.441c-0.065,0.075-0.13,0.15-0.205,0.215l-23.493,22.96
		c-3.989-3.633-7.763-7.502-11.289-11.587l23.473-22.938c0.087-0.087,0.172-0.162,0.259-0.227
		C105.991,447.014,109.754,450.884,113.819,454.441z"/>
	<path style="fill:#91523D;" d="M86.303,414.968c-0.108,0.043-0.215,0.087-0.324,0.14l-29.575,14.174
		c2.027,5.023,4.367,9.895,6.976,14.584l29.597-14.186c0.097-0.043,0.194-0.097,0.292-0.15L86.303,414.968z"/>
	<path style="fill:#91523D;" d="M81.775,399.35c-0.108,0.022-0.215,0.043-0.323,0.054l-32.573,3.848
		c-0.959-5.26-1.596-10.617-1.898-16.06l32.573-3.837c0.118-0.01,0.227-0.022,0.334-0.032
		C80.082,388.786,80.718,394.143,81.775,399.35z"/>
	<rect x="46.766" y="347.376" style="fill:#91523D;" width="33.047" height="16.169"/>
</g>
<path style="fill:#C97E67;" d="M349.767,213.915v115.224c0,31.738-25.188,58.193-56.852,58.607
	c-32.174,0.421-58.391-25.589-58.391-57.739V213.915c0-31.896,25.799-57.753,57.622-57.753l0,0
	C323.969,156.162,349.767,182.019,349.767,213.915z"/>
<path style="fill:#B06750;" d="M256,330.007V213.915c0-28.216,20.195-51.691,46.884-56.736c-3.481-0.658-7.067-1.017-10.738-1.017
	l0,0c-31.823,0-57.622,25.857-57.622,57.753v116.092c0,32.152,26.216,58.16,58.391,57.739c3.38-0.044,6.68-0.402,9.89-1.015
	C276.154,381.659,256,358.196,256,330.007z"/>
<rect x="234.527" y="220.129" style="fill:#B85F44;" width="115.242" height="37.721"/>
<rect x="234.527" y="257.86" style="fill:#FBB071;" width="115.242" height="37.721"/>
<rect x="234.527" y="295.581" style="fill:#B85F44;" width="115.242" height="37.71"/>
<rect x="234.517" y="220.129" style="fill:#91523D;" width="21.564" height="37.721"/>
<rect x="234.517" y="257.849" style="fill:#CC894F;" width="21.564" height="37.721"/>
<rect x="234.517" y="295.581" style="fill:#91523D;" width="21.564" height="37.71"/>
<path style="fill:#C97E67;" d="M74.758,221.081h-23.72l5.098-52.624c0.379-3.913,3.39-6.777,6.763-6.777l0,0
	c3.372,0,6.383,2.864,6.763,6.777L74.758,221.081z"/>
<path style="fill:#FBB071;" d="M62.902,301.054h-0.007c-14.826,0-26.846-12.019-26.846-26.845v-46.47
	c0-9.711,7.872-17.582,17.582-17.582h18.531c9.711,0,17.582,7.872,17.582,17.582v46.47
	C89.746,289.035,77.728,301.054,62.902,301.054z"/>
<path style="fill:#CC894F;" d="M57.549,274.213v-46.476c0-9.208,7.084-16.75,16.099-17.505c-0.491-0.041-0.985-0.075-1.487-0.075
	H53.635c-9.712,0-17.586,7.871-17.586,17.58v46.476c0,14.824,12.021,26.841,26.849,26.841l0,0c3.823,0,7.457-0.805,10.75-2.244
	C64.172,294.664,57.549,285.214,57.549,274.213z"/>
<path style="fill:#FBB071;" d="M431.506,133.893h6.527c20.941,0,37.917-16.976,37.917-37.917V47.009
	C475.951,21.046,454.905,0,428.942,0h-0.007c-1.813,0-3.282,1.469-3.282,3.282V128.04
	C425.653,131.273,428.273,133.893,431.506,133.893z"/>
<path style="fill:#C97E67;" d="M421.112,130.934h-5.065c-16.246,0-29.416-13.17-29.416-29.416V63.529
	c0-20.142,16.329-36.47,36.47-36.47h0.005c1.406,0,2.546,1.14,2.546,2.546v96.788C425.653,128.901,423.619,130.934,421.112,130.934z
	"/>
<path style="fill:#B06750;" d="M404.089,126.393v-93.99c5.538-3.39,12.049-5.346,19.017-5.346l0,0c1.406,0,2.546,1.14,2.546,2.546
	v96.789c0,2.508-2.033,4.541-4.542,4.541h-5.059c-4.412,0-8.593-0.978-12.35-2.717C403.947,127.658,404.089,127.043,404.089,126.393
	z"/>
<path style="fill:#CC894F;" d="M454.439,95.981V47.003c0-19.497-11.874-36.218-28.787-43.337V3.282c0-1.812,1.469-3.282,3.282-3.282
	l0,0c25.966,0,47.015,21.044,47.015,47.003v48.979c0,20.938-16.979,37.912-37.922,37.912h-6.521c-1.563,0-2.98-0.616-4.03-1.614
	C443.075,127.577,454.439,113.109,454.439,95.981z"/>
<g>
</g>
<g>
</g>
<g>
</g>
<g>
</g>
<g>
</g>
<g>
</g>
<g>
</g>
<g>
</g>
<g>
</g>
<g>
</g>
<g>
</g>
<g>
</g>
<g>
</g>
<g>
</g>
<g>
</g>
</svg>
