<?xml version="1.0" encoding="iso-8859-1"?>
<!-- Generator: Adobe Illustrator 19.0.0, SVG Export Plug-In . SVG Version: 6.00 Build 0)  -->
<svg version="1.1" id="Layer_1" xmlns="http://www.w3.org/2000/svg" xmlns:xlink="http://www.w3.org/1999/xlink" x="0px" y="0px"
	 viewBox="0 0 512 512" style="enable-background:new 0 0 512 512;" xml:space="preserve">
<path style="fill:#57BACF;" d="M339.244,95.922l-27.133-25.872c-1.203-1.147-2.801-1.787-4.464-1.787H144.265
	c-31.722,0-61.537,12.428-83.968,34.978c-22.442,22.56-34.697,52.472-34.525,84.226c0.366,64.975,54.056,117.835,119.678,117.835
	h248.055c5.4,0,10.456,2.134,14.25,6.015c3.783,3.88,5.799,8.99,5.67,14.401c-0.248,10.725-9.442,19.445-20.48,19.445H75.053
	c-13.765,0-36.185,11.059-66.624,32.876C3.147,381.822,0,387.955,0,394.444s3.147,12.622,8.429,16.405
	c30.44,21.816,52.86,32.886,66.624,32.886h318.452c31.733,0,61.558-12.428,83.989-34.988c22.431-22.56,34.686-52.461,34.503-84.205
	c-0.377-64.964-54.067-117.813-119.678-117.813H144.265c-5.389,0-10.445-2.134-14.228-6.004c-3.794-3.88-5.821-9.011-5.691-14.433
	c0.248-10.725,9.432-19.456,20.48-19.456h119.204c2.156,0,4.17-1.075,5.371-2.865l16.122-24.039l4.128-0.744"/>
<path style="fill:#7FD3E3;" d="M133.033,416.081c-11.804,0-79.406-9.505-79.605-21.264c-0.205-12.101,67.994-22.006,80.097-22.006
	h259.263c26.107,0,47.892-20.733,48.289-46.839c0.405-26.572-21.09-48.319-47.568-48.319H145.262
	c-50.134,0-91.558-40.2-91.835-90.339c-0.278-50.347,40.579-91.395,90.838-91.395h290.158c12.767,0,32.231,16.688,31.321,29.423
	c-0.8,11.206-19.314,13.847-30.719,13.847H144.983c-26.114,0-47.901,20.747-48.287,46.861
	c-0.393,26.583,21.098,48.333,47.568,48.333h248.245c50.126,0,91.55,40.188,91.837,90.319c0.289,50.336-40.573,91.379-90.838,91.379
	H133.033z"/>
<g>
	<path style="fill:#349FB5;" d="M145.262,277.654h21.558c-50.134,0-91.558-40.201-91.835-90.34
		c-0.278-50.347,40.579-91.395,90.838-91.395h-21.558c-50.259,0-91.116,41.048-90.838,91.395
		C53.703,237.453,95.128,277.654,145.262,277.654z"/>
	<path style="fill:#349FB5;" d="M392.787,372.811h21.558c26.107,0,47.892-20.733,48.289-46.84
		c0.405-26.571-21.09-48.318-47.568-48.318h-21.558c26.478,0,47.974,21.746,47.568,48.318
		C440.679,352.078,418.894,372.811,392.787,372.811z"/>
	<path style="fill:#349FB5;" d="M74.986,394.817c-0.205-12.103,67.994-22.006,80.097-22.006h-21.558
		c-12.103,0-80.302,9.904-80.097,22.006c0.198,11.759,67.8,21.265,79.605,21.265h21.558
		C142.787,416.082,75.185,406.576,74.986,394.817z"/>
	<circle style="fill:#349FB5;" cx="423.794" cy="115.97" r="8.084"/>
</g>
<g>
</g>
<g>
</g>
<g>
</g>
<g>
</g>
<g>
</g>
<g>
</g>
<g>
</g>
<g>
</g>
<g>
</g>
<g>
</g>
<g>
</g>
<g>
</g>
<g>
</g>
<g>
</g>
<g>
</g>
</svg>
