<?xml version="1.0" encoding="iso-8859-1"?>
<!-- Generator: Adobe Illustrator 19.0.0, SVG Export Plug-In . SVG Version: 6.00 Build 0)  -->
<svg version="1.1" id="Layer_1" xmlns="http://www.w3.org/2000/svg" xmlns:xlink="http://www.w3.org/1999/xlink" x="0px" y="0px"
	 viewBox="0 0 512 512" style="enable-background:new 0 0 512 512;" xml:space="preserve">
<path style="fill:#DBA291;" d="M474.825,246.43c-1.762,5.662-5.101,9.637-8.841,12.426c-10.197,7.605-25.088,3.284-29.632-8.602
	c-1.666-4.356-2.36-9.5-0.822-15.224c0.927-3.451,2.776-7.305,5.162-11.28c10.21-17.014,36.263-9.458,35.8,10.382
	C476.383,238.769,475.887,243.016,474.825,246.43z"/>
<path style="fill:#FBB071;" d="M512,339.226v0.518c0,14.913-12.083,27.015-27.001,27.015H40.82
	c-25.622,0-44.894-23.362-40.076-48.55c19.693-102.904,102.443-172.968,216.452-172.968c131.158,0,194.053,99.78,194.053,99.78
	h4.268c27.766,0,53.636,14.123,68.662,37.496l13.086,20.347l7.458,11.594C509.477,321.84,512,330.43,512,339.226z"/>
<path style="fill:#CC894F;" d="M27.688,318.21c18.895-98.731,95.846-167.224,202.755-172.614c-4.338-0.227-8.75-0.355-13.249-0.355
	c-114.01,0-196.76,70.068-216.453,172.969c-4.818,25.186,14.454,48.549,40.076,48.549h26.947
	C42.143,366.759,22.87,343.396,27.688,318.21z"/>
<path style="fill:#E8C1B5;" d="M512,339.222v0.517c0,14.918-12.083,27.02-27.001,27.02H472.15
	c-7.707-35.239,11.674-54.859,25.115-63.898l7.458,11.595C509.477,321.834,512,330.431,512,339.222z"/>
<ellipse style="fill:#AD7443;" cx="455.586" cy="291.568" rx="8.084" ry="8.104"/>
<g>
	<path style="fill:#CC894F;" d="M399.835,366.756L399.835,366.756c0-22.779-14.317-43.096-35.76-50.744l-40.517-14.453
		c-2.429-0.866-1.574-4.506,0.985-4.182c22.454,2.841,58.145,7.959,69.426,13.011c16.887,7.564,30.9,33.498,32.696,56.37
		L399.835,366.756z"/>
	<path style="fill:#CC894F;" d="M216.516,329.344v37.415h-21.558v-30.483c0-27.284-17.149-51.619-42.825-60.771l-34.072-12.157
		c-2.441-0.87-1.558-4.536,1.008-4.18c23.572,3.281,61.281,12.978,78.044,28.623c6.466,6.035,11.133,13.477,14.268,19.68
		C214.805,314.243,216.516,321.752,216.516,329.344z"/>
</g>
<path style="fill:#E8C1B5;" d="M442.012,244.503c-0.464,1.643-1.067,3.188-1.768,4.647c-4.463,9.271-14.563,13.659-23.854,11.854
	c-3.622-0.702-7.125-2.355-10.122-5.003c-3.924-3.469-7.286-8.223-8.731-14.728c-0.874-3.912-1.024-8.709-0.722-13.918
	c1.326-22.249,31.194-28.279,41.035-8.288c2.307,4.669,4.021,9.164,4.732,13.107C443.414,236.711,443.057,240.829,442.012,244.503z"
	/>
<path style="fill:#DBA291;" d="M442.012,244.503c-0.464,1.643-1.067,3.188-1.768,4.647c-4.463,9.271-14.563,13.659-23.854,11.854
	c-0.205-0.172-0.42-0.346-0.625-0.53c-2.824-2.496-5.238-5.911-6.274-10.579c-0.625-2.81-0.744-6.257-0.517-9.995
	c0.949-15.982,22.398-20.315,29.469-5.954c1.649,3.36,2.878,6.581,3.395,9.411C441.915,243.746,441.968,244.125,442.012,244.503z"/>
<g>
</g>
<g>
</g>
<g>
</g>
<g>
</g>
<g>
</g>
<g>
</g>
<g>
</g>
<g>
</g>
<g>
</g>
<g>
</g>
<g>
</g>
<g>
</g>
<g>
</g>
<g>
</g>
<g>
</g>
</svg>
