<?xml version="1.0" encoding="iso-8859-1"?>
<!-- Generator: Adobe Illustrator 19.0.0, SVG Export Plug-In . SVG Version: 6.00 Build 0)  -->
<svg version="1.1" id="Layer_1" xmlns="http://www.w3.org/2000/svg" xmlns:xlink="http://www.w3.org/1999/xlink" x="0px" y="0px"
	 viewBox="0 0 512 512" style="enable-background:new 0 0 512 512;" xml:space="preserve">
<g>
	<path style="fill:#9EC767;" d="M141.916,15.182v20.763c0,2.963,3.029,4.967,5.765,3.814l24.609-10.382
		c3.378-1.425,3.378-6.203,0-7.628l-24.609-10.382C144.945,10.215,141.916,12.219,141.916,15.182z"/>
	<path style="fill:#9EC767;" d="M370.084,15.182v20.763c0,2.963-3.029,4.967-5.765,3.814L339.71,29.377
		c-3.378-1.425-3.378-6.203,0-7.628l24.609-10.382C367.055,10.215,370.084,12.219,370.084,15.182z"/>
</g>
<g>
	<path style="fill:#FBD476;" d="M220.745,134.461L220.745,134.461c-41.842,0-75.761-33.852-75.761-75.61V11.762V3.601
		c0-1.988-1.615-3.601-3.608-3.601l0,0c-12.952,0-23.45,10.478-23.45,23.403v40.16c0,55.489,45.073,100.472,100.673,100.472h2.146
		V134.461z"/>
	<path style="fill:#FBD476;" d="M291.255,134.461L291.255,134.461c41.842,0,75.761-33.852,75.761-75.61V11.762V3.601
		c0-1.988,1.615-3.601,3.608-3.601l0,0c12.952,0,23.45,10.478,23.45,23.403v40.16c0,55.489-45.073,100.472-100.673,100.472h-2.146
		L291.255,134.461L291.255,134.461z"/>
</g>
<path style="fill:#9EC767;" d="M338.225,215.425h-164.45v-20.639c0-45.366,36.776-82.143,82.143-82.143h0.165
	c45.366,0,82.143,36.776,82.143,82.143V215.425z"/>
<path style="fill:#89AD5C;" d="M266.781,113.361c-3.508-0.457-7.077-0.717-10.708-0.717h-0.146
	c-45.372,0-82.152,36.772-82.152,82.133v20.647h21.563v-20.647C195.338,153.047,226.473,118.611,266.781,113.361z"/>
<g>
	<path style="fill:#8AAD5A;" d="M187.814,270.691c-1.598,0-3.219-0.308-4.785-0.96l-79.407-33.047
		c-29.782-12.394-50.569-39.967-54.251-71.96l-9.906-86.076c-0.784-6.816,4.117-12.974,10.945-13.758
		c6.833-0.777,13.001,4.109,13.785,10.923l9.906,86.076c2.653,23.059,17.635,42.932,39.1,51.865l79.407,33.047
		c6.345,2.64,9.343,9.914,6.698,16.245C197.314,267.817,192.688,270.691,187.814,270.691z"/>
	<path style="fill:#8AAD5A;" d="M31.251,421.245c-1.71,0-3.448-0.354-5.11-1.101c-6.267-2.82-9.055-10.175-6.231-16.43l27.555-60.99
		c13.215-29.248,41.314-49.19,73.332-52.043l55.677-4.963c6.84-0.607,12.893,4.434,13.504,11.267
		c0.612,6.833-4.443,12.867-11.29,13.477l-55.677,4.963c-23.077,2.057-43.329,16.43-52.853,37.51l-27.554,60.991
		C40.528,418.522,35.996,421.245,31.251,421.245z"/>
	<path style="fill:#8AAD5A;" d="M83.48,512c-0.875,0-1.762-0.093-2.651-0.285c-6.719-1.454-10.983-8.069-9.525-14.773l15.404-70.852
		c5.159-23.729,20.043-44.568,40.839-57.174l65.068-39.443c5.875-3.559,13.531-1.694,17.1,4.169
		c3.568,5.863,1.698,13.503-4.178,17.066l-65.068,39.441c-14.987,9.086-25.716,24.106-29.434,41.208l-15.404,70.852
		C94.367,508.026,89.21,512,83.48,512z"/>
	<path style="fill:#8AAD5A;" d="M324.186,270.691c1.598,0,3.219-0.308,4.785-0.96l79.407-33.047
		c29.782-12.394,50.569-39.967,54.251-71.96l9.906-86.076c0.784-6.816-4.117-12.974-10.945-13.758
		c-6.833-0.777-13.001,4.109-13.785,10.923l-9.906,86.076c-2.653,23.059-17.635,42.932-39.1,51.865l-79.407,33.047
		c-6.345,2.64-9.343,9.914-6.698,16.245C314.686,267.817,319.312,270.691,324.186,270.691z"/>
	<path style="fill:#8AAD5A;" d="M480.749,421.245c1.71,0,3.448-0.354,5.11-1.101c6.267-2.82,9.055-10.175,6.231-16.43l-27.555-60.99
		c-13.215-29.248-41.314-49.19-73.332-52.043l-55.677-4.963c-6.84-0.607-12.893,4.434-13.504,11.267
		c-0.612,6.833,4.443,12.867,11.29,13.477l55.677,4.963c23.077,2.057,43.329,16.43,52.853,37.51l27.555,60.99
		C471.472,418.522,476.004,421.245,480.749,421.245z"/>
	<path style="fill:#8AAD5A;" d="M428.52,512c0.875,0,1.762-0.093,2.651-0.285c6.719-1.454,10.983-8.069,9.525-14.773l-15.404-70.852
		c-5.159-23.729-20.043-44.568-40.839-57.174l-65.068-39.443c-5.875-3.559-13.531-1.694-17.1,4.169
		c-3.568,5.863-1.698,13.503,4.177,17.066l65.068,39.441c14.987,9.086,25.716,24.106,29.434,41.208l15.404,70.852
		C417.633,508.026,422.79,512,428.52,512z"/>
	<path style="fill:#8AAD5A;" d="M350.907,238.8H161.093v-20.09c0-5.953,4.825-10.778,10.778-10.778h168.256
		c5.953,0,10.778,4.825,10.778,10.778v20.09H350.907z"/>
</g>
<path style="fill:#668042;" d="M193.436,207.932h-21.563c-5.954,0-10.78,4.824-10.78,10.777V238.8h21.563v-20.091
	C182.656,212.756,187.483,207.932,193.436,207.932z"/>
<path style="fill:#9EC767;" d="M355.578,239.013v127.968c0,52.234-40.29,95.07-91.491,99.134c-2.642,0.216-5.304,0.324-8,0.324
	h-0.172c-2.696,0-5.358-0.109-8-0.324c-51.201-4.064-91.491-46.899-91.491-99.134V239.013c0-2.296,1.854-4.15,4.15-4.15h190.853
	C353.723,234.862,355.578,236.716,355.578,239.013z"/>
<path style="fill:#89AD5C;" d="M177.989,366.974V239.01c0-2.289,1.856-4.144,4.145-4.144h-21.563c-2.289,0-4.145,1.855-4.145,4.144
	v127.966c0,54.931,44.541,99.463,99.486,99.463h0.177c3.613,0,7.18-0.197,10.693-0.574
	C216.866,460.53,177.989,418.295,177.989,366.974z"/>
<path style="fill:#668042;" d="M264.086,234.862v231.252c-2.641,0.216-5.304,0.324-8,0.324h-0.172c-2.696,0-5.358-0.109-8-0.324
	V234.862H264.086z"/>
<g>
</g>
<g>
</g>
<g>
</g>
<g>
</g>
<g>
</g>
<g>
</g>
<g>
</g>
<g>
</g>
<g>
</g>
<g>
</g>
<g>
</g>
<g>
</g>
<g>
</g>
<g>
</g>
<g>
</g>
</svg>
