<?xml version="1.0" encoding="iso-8859-1"?>
<!-- Generator: Adobe Illustrator 19.0.0, SVG Export Plug-In . SVG Version: 6.00 Build 0)  -->
<svg version="1.1" id="Layer_1" xmlns="http://www.w3.org/2000/svg" xmlns:xlink="http://www.w3.org/1999/xlink" x="0px" y="0px"
	 viewBox="0 0 512 512" style="enable-background:new 0 0 512 512;" xml:space="preserve">
<path style="fill:#9EC767;" d="M315.792,296.893h169.182c14.926,0,27.026,12.052,27.026,26.92v15.005
	c0,6.581-5.356,11.915-11.962,11.915H315.792V296.893z"/>
<ellipse style="fill:#668042;" cx="475.617" cy="324.253" rx="8.084" ry="8.068"/>
<path style="fill:#9EC767;" d="M12.473,296.893h137.896v53.839H41.58C18.616,350.733,0,332.19,0,309.317l0,0
	C0,302.455,5.584,296.893,12.473,296.893z"/>
<g>
	<path style="fill:#668042;" d="M428.781,385.404v12.838c0,2.233-1.817,4.044-4.059,4.044h-68.839c-2.242,0-4.059-1.811-4.059-4.044
		v-93.261c0-8.933,7.27-16.174,16.238-16.174h9.469c16.815,0,30.446,13.577,30.446,30.326v42.89
		C419.698,363.419,428.781,373.355,428.781,385.404z"/>
	<path style="fill:#668042;" d="M158.233,385.404v12.838c0,2.233-1.817,4.044-4.059,4.044H85.335c-2.242,0-4.059-1.811-4.059-4.044
		v-93.261c0-8.933,7.27-16.174,16.238-16.174h9.469c16.814,0,30.446,13.577,30.446,30.326v42.89
		C149.15,363.419,158.233,373.355,158.233,385.404z"/>
</g>
<path style="fill:#F2E5CB;" d="M333.694,356.7h-176.9c-20.457,0-37.041-16.584-37.041-37.041v-36.072h250.98v36.072
	C370.735,340.116,354.151,356.7,333.694,356.7z"/>
<path style="fill:#D1C1A1;" d="M141.312,319.698v-36.112h-21.558v36.112c0,20.435,16.601,37.001,37.079,37.001h21.558
	C157.913,356.7,141.312,340.133,141.312,319.698z"/>
<path style="fill:#8AAD5A;" d="M437.255,296.894H44.806c-4.74,0-8.474-4.024-8.089-8.734c0.711-8.592,2.507-22.855,7.104-39.686
	c1.055-3.862,2.253-7.865,3.623-11.968c13.528-40.465,43.447-90.462,109.565-113.731c23.251-8.189,50.967-13.06,84.021-13.06
	s60.77,4.871,84.021,13.06c66.118,23.27,96.037,73.266,109.565,113.731c1.37,4.103,2.567,8.106,3.623,11.968
	c4.598,16.831,6.394,31.094,7.104,39.686C445.729,292.87,441.995,296.894,437.255,296.894z"/>
<path style="fill:#9EC767;" d="M310.316,188.459l-3.644,16.224c-5.744,25.595-28.548,43.791-54.874,43.791h-21.535
	c-4.953,0-9.773-0.647-14.391-1.86c-19.912-5.246-35.815-21.147-40.482-41.931l-3.644-16.224c0,0,0-0.02-0.01-0.061
	c-0.213-0.93-0.396-1.849-0.558-2.77c-6.941-38.817,22.601-74.956,62.637-75.833c2.375-0.051,4.78-0.08,7.216-0.08
	s4.841,0.029,7.216,0.08C289.257,110.694,319.257,148.592,310.316,188.459z"/>
<path style="fill:#7A9950;" d="M237.834,246.615c-19.912-5.246-35.815-21.147-40.482-41.932l-3.644-16.224c0,0,0-0.02-0.01-0.06
	c-0.213-0.93-0.396-1.849-0.558-2.77c-6.722-37.589,20.769-72.666,58.872-75.645c-1.244-0.096-2.499-0.161-3.765-0.189
	c-2.375-0.051-4.779-0.08-7.215-0.08s-4.841,0.029-7.216,0.08c-40.036,0.878-69.579,37.017-62.637,75.835
	c0.163,0.921,0.345,1.84,0.558,2.77c0.01,0.04,0.01,0.06,0.01,0.06l3.644,16.224c4.669,20.785,20.571,36.685,40.482,41.932
	c4.617,1.213,9.439,1.859,14.391,1.859h21.535c0.086,0,0.17-0.005,0.257-0.005C247.162,248.454,242.399,247.813,237.834,246.615z"/>
<path style="fill:#9EC767;" d="M215.872,246.614c-0.517,0.324-1.969,0.98-4.221,1.86H43.822
	c9.266-33.974,29.919-78.391,75.933-107.706h0.01c38.576,1.981,49.109,34.905,51.413,44.862c0.163,0.921,0.345,1.84,0.558,2.77
	c0.01,0.041,0.01,0.061,0.01,0.061l3.644,16.224C180.058,225.467,195.96,241.367,215.872,246.614z"/>
<path style="fill:#7A9950;" d="M136.94,144.156c-4.999-1.83-10.681-3.055-17.176-3.389h-0.01
	C73.739,170.081,53.087,214.5,43.821,248.474h22.276C75.014,215.782,94.486,173.428,136.94,144.156z"/>
<path style="fill:#9EC767;" d="M266.189,246.614c0.517,0.324,1.969,0.98,4.221,1.86h167.828
	c-9.266-33.974-29.919-78.391-75.933-107.706h-0.01c-38.576,1.981-49.109,34.905-51.413,44.862c-0.163,0.921-0.345,1.84-0.558,2.77
	c-0.01,0.041-0.01,0.061-0.01,0.061l-3.644,16.224C302.004,225.467,286.1,241.367,266.189,246.614z"/>
<path style="fill:#7A9950;" d="M329.128,204.683l3.644-16.224c0,0,0-0.02,0.01-0.06c0.213-0.93,0.396-1.849,0.558-2.77
	c1.912-8.268,9.518-32.354,34.12-41.428c-1.685-1.163-3.395-2.313-5.153-3.432h-0.01c-38.576,1.981-49.109,34.905-51.413,44.862
	c-0.162,0.921-0.345,1.84-0.558,2.77c-0.01,0.04-0.01,0.06-0.01,0.06l-3.644,16.224c-4.669,20.785-20.571,36.685-40.482,41.932
	c0.517,0.324,1.969,0.98,4.221,1.859h22.456c-2.253-0.879-3.704-1.536-4.221-1.859C308.557,241.367,324.46,225.467,329.128,204.683z
	"/>
<path style="fill:#9EC767;" d="M171.177,185.629c0.366,1.537,0.517,2.528,0.558,2.77
	C171.522,187.469,171.34,186.549,171.177,185.629z"/>
<path style="fill:#8AAD5A;" d="M437.255,296.894H44.806c-4.74,0-8.474-4.024-8.089-8.734c0.711-8.592,2.507-22.855,7.104-39.686
	c1.055-3.862,2.253-7.865,3.623-11.968h387.171c1.37,4.103,2.567,8.106,3.623,11.968c4.598,16.831,6.394,31.094,7.104,39.686
	C445.729,292.87,441.995,296.894,437.255,296.894z"/>
<path style="fill:#668042;" d="M58.994,288.16c0.711-8.592,2.507-22.855,7.104-39.686c1.055-3.861,2.253-7.865,3.623-11.968H47.445
	c-1.37,4.104-2.567,8.107-3.623,11.968c-4.598,16.831-6.394,31.093-7.104,39.686c-0.386,4.711,3.349,8.734,8.089,8.734h22.276
	C62.344,296.894,58.608,292.87,58.994,288.16z"/>
<g>
</g>
<g>
</g>
<g>
</g>
<g>
</g>
<g>
</g>
<g>
</g>
<g>
</g>
<g>
</g>
<g>
</g>
<g>
</g>
<g>
</g>
<g>
</g>
<g>
</g>
<g>
</g>
<g>
</g>
</svg>
