<?xml version="1.0" encoding="iso-8859-1"?>
<!-- Generator: Adobe Illustrator 19.0.0, SVG Export Plug-In . SVG Version: 6.00 Build 0)  -->
<svg version="1.1" id="Layer_1" xmlns="http://www.w3.org/2000/svg" xmlns:xlink="http://www.w3.org/1999/xlink" x="0px" y="0px"
	 viewBox="0 0 512 512" style="enable-background:new 0 0 512 512;" xml:space="preserve">
<path style="fill:#2F3F4A;" d="M434.675,164.151c1.584-4.647,4.682-16.68-1.255-26.975c-1.95-3.381-6.09-4.787-9.753-3.452
	c-8.265,3.01-22.672,10.384-24.185,25.528c-0.169,1.695,0.707,3.318,2.228,4.081c4.892,2.459,16.814,7.206,30.208,3.419
	C433.207,166.386,434.241,165.422,434.675,164.151z"/>
<path style="fill:#FBB071;" d="M179.211,158.544c-0.136-2.336-2.114-4.141-4.448-4.043c-24.99,1.055-153.4,14.242-171.451,173.493
	l-3.295,38.037c-0.171,1.973,1.025,3.798,2.895,4.44c12.096,4.149,55.413,14.18,71.249-47.755
	c18.02-70.474,52.428-121.59,103.135-128.259c2.234-0.294,3.871-2.249,3.74-4.501L179.211,158.544z"/>
<path style="fill:#CC894F;" d="M22.183,366.032l3.295-38.037c8.454-74.586,39.572-122.664,72.838-152.813
	c-41.316,21.386-85.024,64.772-95.004,152.813l-3.295,38.037c-0.171,1.973,1.025,3.798,2.895,4.44
	c4.426,1.518,13.035,3.82,22.946,3.099C23.174,371.506,22.096,367.032,22.183,366.032z"/>
<g>
	<path style="fill:#25323B;" d="M373.046,313.765l-27.49,43.854l14.12,3.006c1.853,0.394,3.176,2.032,3.176,3.93v10.198
		c0,2.218-1.796,4.018-4.01,4.018h-51.759c-5.436,0-9.298-5.301-7.639-10.484l19.077-59.657L373.046,313.765z"/>
	<path style="fill:#25323B;" d="M138.934,303.722l5.885,71.361c0.171,2.084,1.91,3.686,3.997,3.686h55.962
		c2.215,0,4.01-1.798,4.01-4.018v-11.144c0-1.847-1.257-3.456-3.048-3.9l-13.164-3.262l16.211-62.265L138.934,303.722z"/>
</g>
<path style="fill:#3F5666;" d="M510.121,202.653l-11.632,13.336c-7.515,8.612-18.15,13.841-29.557,14.539l-13.358,0.806
	c-8.116,0.494-16.113,2.062-23.767,4.66c-4.278,1.449-8.458,3.221-12.49,5.293l-1.341,0.676c-5.446,1.299-10.099,4.371-13.368,8.525
	c-3.291,4.156-5.221,9.406-5.221,15.011v43.198l24.142,50.307c0.644,1.332,1.962,2.212,3.42,2.277l15.77,0.752
	c2.134,0.107,3.817,1.868,3.817,4.016v8.708c0,2.212-1.801,4.017-4.009,4.017h-43.29c-2.552,0-4.963-1.225-6.475-3.286
	l-16.435-22.453c-11.524-15.741-29.835-25.04-49.325-25.04H163.286c-8.169,13.336-13.819,24.418-14.762,28.949l13.99,2.577
	c2.123,0.387,3.559,2.395,3.238,4.532l-1.673,11.296c-0.289,1.965-1.983,3.425-3.966,3.425h-77.39c-2.209,0-4.009-1.805-4.009-4.017
	v-58.499c0,0-2.069-30.388,5.414-64.856c2.98-13.723,7.483-28.1,14.226-41.458c15.459-30.624,42.743-55.923,90.675-55.923h216.438
	l23.532,0.193c7.526,0.064,14.698,3.232,19.811,8.751l3.838,4.135c10.796,11.651,25.279,19.199,41.017,21.379l11.782,1.632
	C511.418,190.95,514.087,198.09,510.121,202.653z"/>
<g>
	<path style="fill:#2F3F4A;" d="M102.426,374.759v-58.5c0,0-2.069-30.388,5.414-64.857c2.98-13.723,7.483-28.1,14.226-41.458
		c15.459-30.625,42.743-55.922,90.675-55.922h-23.714c-47.932,0-75.216,25.298-90.675,55.922
		c-6.743,13.358-11.246,27.736-14.226,41.458c-7.483,34.468-5.414,64.857-5.414,64.857v58.5c0,2.212,1.801,4.017,4.009,4.017h23.714
		C104.227,378.775,102.426,376.971,102.426,374.759z"/>
	<path style="fill:#2F3F4A;" d="M416.476,375.49l-16.434-22.453c-11.524-15.741-29.835-25.04-49.325-25.04h-23.714
		c19.49,0,37.801,9.299,49.325,25.04l16.434,22.453c1.512,2.062,3.924,3.285,6.475,3.285h23.714
		C420.4,378.775,417.987,377.551,416.476,375.49z"/>
</g>
<path style="fill:#FBB071;" d="M431.804,235.989c-4.279,1.454-8.462,3.231-12.482,5.299l-1.347,0.678
	c-5.444,1.293-10.1,4.373-13.366,8.519c-3.287,4.158-5.217,9.413-5.217,15.013v24.135c-33.005,8.26-58.433,23.51-76.8,38.362H163.29
	l-58.842-56.94L84.13,251.401c2.975-13.721,7.48-28.098,14.228-41.452c6.079,1.766,13.129,3.543,21.212,5.223
	c19.014,3.963,43.784,7.388,75.366,8.842c64.695,2.961,87.741-41.066,95.889-69.992h46.91
	C361.806,201.903,402.852,225.101,431.804,235.989z"/>
<path style="fill:#CC894F;" d="M119.57,215.171c-5.39,11.837-9.141,24.287-11.728,36.23c-1.476,6.774-2.576,13.398-3.395,19.655
	L84.13,251.401c2.975-13.721,7.48-28.098,14.228-41.452C104.437,211.714,111.486,213.491,119.57,215.171z"/>
<ellipse style="fill:#2F3F4A;" cx="442.368" cy="186.514" rx="8.084" ry="8.077"/>
<path style="fill:#3F5666;" d="M416.125,151.168c-2.271-4.352-8.84-14.893-20.381-17.679c-3.79-0.915-7.66,1.121-9.219,4.7
	c-3.518,8.073-8.113,23.612,1.8,35.146c1.11,1.291,2.887,1.772,4.488,1.195c5.149-1.857,16.8-7.238,23.292-19.568
	C416.731,153.775,416.747,152.358,416.125,151.168z"/>
<path style="fill:#B8674D;" d="M408.104,152.541c-1.178-2.257-4.585-7.725-10.572-9.17c-1.965-0.474-3.973,0.581-4.783,2.438
	c-1.824,4.188-4.208,12.247,0.934,18.23c0.576,0.67,1.497,0.92,2.328,0.621c2.671-0.963,8.714-3.754,12.082-10.15
	C408.419,153.893,408.427,153.159,408.104,152.541z"/>
<g>
</g>
<g>
</g>
<g>
</g>
<g>
</g>
<g>
</g>
<g>
</g>
<g>
</g>
<g>
</g>
<g>
</g>
<g>
</g>
<g>
</g>
<g>
</g>
<g>
</g>
<g>
</g>
<g>
</g>
</svg>
