<?xml version="1.0" encoding="iso-8859-1"?>
<!-- Generator: Adobe Illustrator 19.0.0, SVG Export Plug-In . SVG Version: 6.00 Build 0)  -->
<svg version="1.1" id="Layer_1" xmlns="http://www.w3.org/2000/svg" xmlns:xlink="http://www.w3.org/1999/xlink" x="0px" y="0px"
	 viewBox="0 0 512 512" style="enable-background:new 0 0 512 512;" xml:space="preserve">
<path style="fill:#FBD476;" d="M84.116,255.075c0,0-5.183,68.752-66.941,65.663c-32.441-1.623-9.269-32.065-7.63-65.663
	c1.482-30.365-21.689-64.197,7.63-65.663C78.934,186.322,84.116,255.075,84.116,255.075z"/>
<path id="SVGCleanerId_0" style="fill:#7FD3E3;" d="M262.816,89.867l-155.882,0.388c-2.74,0.007-4.817,2.468-4.365,5.175
	c2.883,17.255,18.004,71.837,93.959,71.837c64.285,0,70.346-56.267,70.734-72.86C267.321,91.909,265.312,89.861,262.816,89.867z"/>
<g>
	<path id="SVGCleanerId_0_1_" style="fill:#7FD3E3;" d="M262.816,89.867l-155.882,0.388c-2.74,0.007-4.817,2.468-4.365,5.175
		c2.883,17.255,18.004,71.837,93.959,71.837c64.285,0,70.346-56.267,70.734-72.86C267.321,91.909,265.312,89.861,262.816,89.867z"/>
</g>
<path style="fill:#7FD3E3;" d="M262.816,400.66l-155.882-0.388c-2.74-0.007-4.817-2.468-4.365-5.175
	c2.883-17.255,18.004-71.837,93.959-71.837c64.285,0,70.346,56.267,70.734,72.86C267.321,398.62,265.312,400.666,262.816,400.66z"/>
<g>
	<path style="fill:#349FB5;" d="M218.086,162.805c-71.783,0-89.229-51.534-93.363-72.594l-17.789,0.045
		c-2.74,0.007-4.817,2.468-4.365,5.175c2.883,17.255,18.004,71.837,93.959,71.837c11.357,0,20.889-1.762,28.901-4.745
		C223.066,162.701,220.627,162.805,218.086,162.805z"/>
	<path style="fill:#349FB5;" d="M218.086,327.722c2.541,0,4.981,0.103,7.344,0.283c-8.012-2.983-17.544-4.745-28.901-4.745
		c-75.955,0-91.076,54.581-93.959,71.837c-0.452,2.707,1.625,5.169,4.365,5.176l17.789,0.044
		C128.857,379.257,146.302,327.722,218.086,327.722z"/>
</g>
<path style="fill:#FBD476;" d="M512,230.971v11.297c0,14.736-11.936,26.683-26.66,26.683h-14.014
	c-5.6,27.527-20.78,52.665-42.913,73.449c-37.845,35.524-95.983,58.275-161.185,58.275c-105.85,0-193.098-133.896-205.079-153.119
	c-0.874-1.401-0.874-3.173,0-4.575c11.981-19.224,99.23-153.12,205.08-153.12c22.044,0,43.279,2.6,63.194,7.409
	c66.099,15.985,117.684,56.353,136.035,107.029c0.222-0.011,0.433-0.011,0.654-0.011h18.227
	C500.064,204.288,512,216.235,512,230.971z"/>
<path style="fill:#CCA75E;" d="M84.772,247.554c-0.874-1.401-0.874-3.173,0-4.575c11.63-18.66,94.184-145.364,195.83-152.77
	c-4.424-0.213-8.876-0.349-13.373-0.349c-105.849,0-193.098,133.896-205.079,153.119c-0.874,1.401-0.874,3.173,0,4.575
	c11.981,19.223,99.229,153.119,205.079,153.119c4.545,0,9.052-0.122,13.523-0.34C179.038,393.043,96.406,266.224,84.772,247.554z"/>
<path style="fill:#7FD3E3;" d="M512,230.971v11.297c0,14.73-11.92,26.683-26.635,26.683h-14.038
	c-5.6,27.527-20.78,52.665-42.913,73.449c-50.52-73.249-83.253-50.521-126.543-117.961c-31.236-48.655,4.624-100.664,28.553-127.169
	c66.099,15.985,117.684,56.353,136.035,107.029c0.221-0.011,0.433-0.011,0.654-0.011h18.252C500.08,204.288,512,216.241,512,230.971
	z"/>
<ellipse style="fill:#E1E9F2;" cx="390.081" cy="203.89" rx="20.718" ry="20.755"/>
<ellipse style="fill:#3F5666;" cx="390.081" cy="203.89" rx="8.084" ry="8.092"/>
<path style="fill:#7FD3E3;" d="M367.287,313.738c-0.63-1.22-1.781-2.075-3.131-2.317c-7.975-1.427-37.606-3.81-55.42,34.611
	c-15.856,34.197-26.396,56.535-30.474,65.145c-1.088,2.297-0.027,5.016,2.31,6.003c12.215,5.161,48.408,15.612,73.415-27.615
	C379.671,345.17,370.742,320.436,367.287,313.738z"/>
<path style="fill:#349FB5;" d="M324.634,361.945c13.569-29.263,33.983-34.85,46.472-35.222c-0.874-6.414-2.655-10.727-3.82-12.984
	c-0.63-1.22-1.781-2.075-3.131-2.317c-7.975-1.427-37.606-3.81-55.42,34.611c-15.856,34.196-26.396,56.535-30.474,65.145
	c-1.088,2.297-0.027,5.016,2.31,6.003c3.605,1.522,9.3,3.506,16.177,4.435C301.918,410.663,311.431,390.42,324.634,361.945z"/>
<g>
</g>
<g>
</g>
<g>
</g>
<g>
</g>
<g>
</g>
<g>
</g>
<g>
</g>
<g>
</g>
<g>
</g>
<g>
</g>
<g>
</g>
<g>
</g>
<g>
</g>
<g>
</g>
<g>
</g>
</svg>
