<?xml version="1.0" encoding="iso-8859-1"?>
<!-- Generator: Adobe Illustrator 19.0.0, SVG Export Plug-In . SVG Version: 6.00 Build 0)  -->
<svg version="1.1" id="Layer_1" xmlns="http://www.w3.org/2000/svg" xmlns:xlink="http://www.w3.org/1999/xlink" x="0px" y="0px"
	 viewBox="0 0 512 512" style="enable-background:new 0 0 512 512;" xml:space="preserve">
<g>
	<path style="fill:#FBD476;" d="M475.406,402.239c-1.748,0-3.509-0.563-4.99-1.725l-34.231-26.832
		c-3.516-2.755-4.129-7.838-1.371-11.351s7.847-4.126,11.362-1.37l34.231,26.832c3.516,2.755,4.129,7.838,1.371,11.351
		C480.182,401.177,477.806,402.239,475.406,402.239z"/>
	<path style="fill:#FBD476;" d="M432.614,423.73c-4.036,0-7.529-3.013-8.024-7.118l-5.05-41.85
		c-0.534-4.432,2.629-8.458,7.066-8.993c4.434-0.53,8.469,2.626,9.003,7.059l5.05,41.85c0.534,4.432-2.629,8.458-7.066,8.993
		C433.264,423.711,432.938,423.73,432.614,423.73z"/>
	<path style="fill:#FBD476;" d="M444.229,360.674c-4.036,0-7.528-3.013-8.024-7.118c-0.534-4.432,2.629-8.46,7.066-8.993
		l41.905-5.045c4.435-0.534,8.469,2.626,9.003,7.059c0.534,4.434-2.629,8.46-7.066,8.993l-41.905,5.045
		C444.879,360.654,444.553,360.674,444.229,360.674z"/>
	<path style="fill:#FBD476;" d="M424.233,98.125c-1.572,0-3.159-0.456-4.555-1.407c-3.691-2.517-4.64-7.547-2.121-11.235
		l24.527-35.897c2.518-3.687,7.553-4.637,11.246-2.12c3.691,2.517,4.64,7.547,2.121,11.235l-24.527,35.897
		C429.357,96.891,426.817,98.125,424.233,98.125z"/>
	<path style="fill:#FBD476;" d="M409.303,96.056c-3.813,0-7.209-2.705-7.942-6.585l-7.833-41.421
		c-0.83-4.388,2.058-8.616,6.449-9.444c4.394-0.829,8.625,2.055,9.454,6.443l7.833,41.421c0.83,4.388-2.058,8.616-6.449,9.444
		C410.307,96.01,409.802,96.056,409.303,96.056z"/>
	<path style="fill:#FBD476;" d="M431.6,111.252c-3.813,0-7.21-2.706-7.942-6.586c-0.829-4.388,2.06-8.615,6.45-9.443l41.475-7.821
		c4.396-0.827,8.625,2.056,9.453,6.444c0.829,4.388-2.06,8.615-6.45,9.443l-41.475,7.821
		C432.603,111.205,432.099,111.252,431.6,111.252z"/>
	<path style="fill:#FBD476;" d="M145.613,58.913c-3.611,0-6.904-2.434-7.836-6.09L127.034,10.71
		c-1.103-4.326,1.512-8.727,5.843-9.83s8.736,1.511,9.84,5.838l10.744,42.114c1.103,4.326-1.512,8.727-5.843,9.83
		C146.947,58.832,146.274,58.913,145.613,58.913z"/>
	<path style="fill:#FBD476;" d="M160.347,62.07c-1.405,0-2.83-0.366-4.125-1.135c-3.842-2.28-5.106-7.24-2.824-11.079l21.553-36.242
		c2.283-3.838,7.247-5.102,11.091-2.821c3.842,2.28,5.106,7.24,2.824,11.079l-21.553,36.242
		C165.799,60.657,163.108,62.07,160.347,62.07z"/>
	<path style="fill:#FBD476;" d="M134.189,68.726c-1.404,0-2.827-0.366-4.123-1.134l-36.29-21.525
		c-3.843-2.28-5.109-7.239-2.826-11.079c2.281-3.838,7.244-5.103,11.09-2.824l36.29,21.525c3.843,2.28,5.109,7.239,2.826,11.079
		C139.642,67.312,136.95,68.726,134.189,68.726z"/>
	<path style="fill:#FBD476;" d="M74.598,380.005c-2.812,0-5.545-1.466-7.037-4.082c-2.213-3.879-0.86-8.815,3.023-11.027
		l37.8-21.528c3.881-2.211,8.824-0.86,11.038,3.02c2.213,3.879,0.86,8.815-3.023,11.027l-37.8,21.528
		C77.335,379.663,75.958,380.005,74.598,380.005z"/>
	<path style="fill:#FBD476;" d="M113.764,407.53c-0.707,0-1.426-0.093-2.142-0.289c-4.31-1.179-6.848-5.626-5.669-9.932
		l11.141-40.658c1.18-4.306,5.631-6.841,9.942-5.662c4.31,1.179,6.848,5.626,5.669,9.932l-11.141,40.658
		C120.58,405.171,117.32,407.53,113.764,407.53z"/>
	<path style="fill:#FBD476;" d="M111.533,343.454c-0.707,0-1.425-0.093-2.14-0.288l-40.71-11.127
		c-4.311-1.179-6.849-5.625-5.671-9.931c1.18-4.307,5.629-6.842,9.941-5.664l40.71,11.127c4.311,1.179,6.849,5.625,5.671,9.931
		C118.35,341.093,115.09,343.454,111.533,343.454z"/>
</g>
<path style="fill:#62803C;" d="M251.475,168.184c-1.243,4.703-4.916,8.103-9.317,9.231c-2.07,0.53-4.303,0.557-6.513-0.023
	l-32.644-8.618c-26.77-7.052-47.67-28.082-54.549-54.862l-4.605-17.926c-3.283-2.241-5.78-5.63-6.845-9.775l-3.622-14.796
	c-0.957-3.727-0.585-7.484,0.811-10.768c1.99-4.705,6.084-8.457,11.429-9.816c9.056-2.309,18.28,3.15,20.605,12.203
	c0.003,0.01,0.003,0.01,0.005,0.021l3.622,14.796c0.993,3.908,0.532,7.842-1.033,11.248l4.723,18.386
	c4.548,17.708,18.371,31.614,36.072,36.283l32.641,8.608C249.178,154.206,253.302,161.283,251.475,168.184z"/>
<path style="fill:#9EC767;" d="M284.559,164.127c-0.443,4.844,1.842,9.294,5.591,11.858c1.763,1.206,3.852,1.994,6.127,2.205
	l33.625,3.059c27.57,2.524,54.415-10.092,70.056-32.904l10.47-15.27c3.854-0.983,7.36-3.314,9.781-6.845l8.473-12.664
	c2.177-3.175,3.115-6.832,2.928-10.395c-0.257-5.101-2.818-10.027-7.375-13.129c-7.718-5.265-18.256-3.288-23.543,4.423
	c-0.006,0.009-0.006,0.009-0.013,0.018l-8.474,12.664c-2.272,3.332-3.188,7.187-2.884,10.921l-10.738,15.662
	c-10.342,15.084-28.096,23.427-46.328,21.762l-33.62-3.069C291.508,151.78,285.207,157.02,284.559,164.127z"/>
<path style="fill:#62803C;" d="M270.456,344.949c2.524-4.16,2.423-9.161,0.179-13.106c-1.055-1.856-2.587-3.478-4.54-4.664
	l-28.88-17.47c-23.672-14.338-53.338-14.751-77.409-1.094l-16.112,9.142c-3.895-0.802-8.071-0.243-11.796,1.87l-13.174,7.673
	c-3.35,1.901-5.798,4.777-7.194,8.061c-2.008,4.697-1.868,10.245,0.866,15.03c4.626,8.111,14.966,10.947,23.102,6.331
	c0.009-0.005,0.009-0.005,0.019-0.01l13.174-7.673c3.505-2.001,6.02-5.065,7.385-8.555l16.525-9.376
	c15.916-9.03,35.535-8.756,51.192,0.72l28.871,17.476C258.791,353.005,266.754,351.053,270.456,344.949z"/>
<g>
	<path style="fill:#9EC767;" d="M285.519,338.789c-1.886-4.485-1.052-9.416,1.747-12.99c1.317-1.681,3.07-3.063,5.175-3.949
		l31.133-13.052c25.522-10.716,54.927-6.78,76.732,10.255l14.596,11.403c3.971-0.224,8.019,0.941,11.394,3.578l11.906,9.52
		c3.035,2.371,5.033,5.575,5.933,9.028c1.297,4.94,0.343,10.408-3.064,14.74c-5.767,7.346-16.411,8.637-23.782,2.879
		c-0.008-0.006-0.008-0.006-0.017-0.014l-11.906-9.519c-3.172-2.492-5.211-5.891-6.05-9.543l-14.97-11.694
		c-14.418-11.263-33.865-13.866-50.743-6.785l-31.124,13.058C295.875,348.467,288.284,345.37,285.519,338.789z"/>
	<path style="fill:#9EC767;" d="M331.292,269.289c-0.01,8.224-0.281,16.308-0.885,24.069c-0.993,12.827-2.882,24.77-5.947,35.042
		c-0.464,1.541-0.95,3.05-1.468,4.516c-5.138,14.594-9.034,25.675-11.991,34.082c1.327,4.71,1.802,9.723,1.241,14.821
		c-3.422,49.4-27.586,85.11-62.135,106.485c-10.242,6.349-21.391,11.426-33.188,15.22c-24.09,7.782-50.867,10.24-78.011,7.233
		c-34.786-3.859-65.696-13.689-90.325-40.711c-23.777-26.063-31.526-56.933-30.77-91.285c0.162-7.62-0.907-42.824,9.509-41.25
		c11.667,1.778,8.235,32.196,9.498,41.25c3.929,28.326,14.268,53.419,38.768,70.493c23.799,16.577,47.51,16.19,74.643,13.807
		c9.411-0.819,18.801-2.263,27.726-4.656c12.121-3.255,23.378-8.257,32.681-15.823c10.027-8.149,17.776-19.294,21.867-34.471
		c3.098-11.469,2.774-25.126,4.479-37.327c-3.087-8.784-7.382-20.965-13.329-37.866c-0.518-1.466-1.004-2.975-1.458-4.516
		c-3.076-10.283-4.964-22.226-5.958-35.042c-0.604-7.76-0.875-15.845-0.885-24.069c-0.01-11.544,0.486-23.39,1.327-35.031
		c0.583-8.17,1.339-16.244,2.212-24.069c1.371-12.578,3.032-24.489,4.695-35.042c3.583-22.614,7.232-39.008,8.407-42.372
		c3.594-10.175-5.979-23.929-10.177-46.651c-4.188-22.733,16.168-29.307,20.366-58.012c4.188-28.704,31.138-28.111,31.138-28.111
		s26.95-0.592,31.137,28.111c4.188,28.704,24.554,35.279,20.356,58.012c-4.188,22.722-13.772,36.475-10.177,46.651
		c1.187,3.364,4.835,19.758,8.419,42.372c1.662,10.552,3.313,22.463,4.695,35.042c0.875,7.825,1.63,15.899,2.213,24.069
		C330.807,245.909,331.304,257.745,331.292,269.289z"/>
</g>
<g>
	<path style="fill:#89AD5C;" d="M172.53,463.06c9.411-0.819,18.801-2.263,27.727-4.657c12.121-3.255,23.378-8.257,32.68-15.823
		c10.027-8.149,17.776-19.294,21.867-34.47c1.786-6.613,2.435-13.954,2.991-21.324c0.831-11.013-0.645-22.071-4.314-32.49
		c-2.156-6.12-4.648-13.197-7.526-21.38c-0.518-1.466-1.004-2.975-1.458-4.516c-3.076-10.283-4.964-22.226-5.958-35.042
		c-0.604-7.76-0.874-15.845-0.885-24.069c-0.01-11.544,0.486-23.39,1.327-35.031c0.583-8.17,1.339-16.244,2.212-24.069
		c1.371-12.578,3.032-24.489,4.695-35.042c3.583-22.614,7.231-39.008,8.407-42.372c3.594-10.175-5.979-23.929-10.177-46.651
		c-4.188-22.733,16.168-29.307,20.366-58.012C266.855,11.854,276.528,5,284.471,2.107c-6.081-2.214-11.149-2.107-11.149-2.107
		s-26.95-0.592-31.138,28.111c-4.198,28.704-24.554,35.279-20.366,58.012c4.198,22.722,13.772,36.475,10.177,46.651
		c-1.177,3.364-4.824,19.758-8.407,42.372c-1.662,10.552-3.324,22.463-4.695,35.042c-0.874,7.825-1.63,15.899-2.212,24.069
		c-0.842,11.641-1.339,23.487-1.327,35.031c0.01,8.224,0.28,16.308,0.885,24.069c0.993,12.816,2.882,24.759,5.958,35.042
		c0.453,1.541,0.939,3.05,1.458,4.516c5.947,16.901,10.242,29.082,13.329,37.866c-1.705,12.202-1.381,25.858-4.478,37.327
		c-4.091,15.176-11.84,26.322-21.867,34.47c-9.304,7.567-20.56,12.568-32.681,15.823c-8.926,2.393-18.315,3.837-27.726,4.657
		c-3.606,0.317-7.15,0.596-10.643,0.807C150.133,464.715,161.023,464.069,172.53,463.06z"/>
	<path style="fill:#89AD5C;" d="M161.209,510.756c-34.786-3.859-65.696-13.689-90.325-40.711
		c-19.327-21.185-28.064-45.548-30.251-72.374c-1.668-6.097-2.911-12.419-3.812-18.912c-1.263-9.054,2.169-39.472-9.498-41.25
		c-10.416-1.574-9.347,33.63-9.509,41.25c-0.755,34.352,6.994,65.223,30.77,91.285c24.629,27.022,55.541,36.853,90.325,40.711
		c11.254,1.247,22.441,1.539,33.403,0.917C168.621,511.466,164.919,511.167,161.209,510.756z"/>
</g>
<g>
	<path style="fill:#FBD476;" d="M327.752,210.188H218.896c1.371-12.578,3.032-24.489,4.695-35.042h99.467
		C324.72,185.698,326.371,197.609,327.752,210.188z"/>
	<path style="fill:#FBD476;" d="M331.292,269.289H215.355c-0.01-11.544,0.486-23.39,1.327-35.031h113.282
		C330.807,245.909,331.304,257.745,331.292,269.289z"/>
	<path style="fill:#FBD476;" d="M330.407,293.357c-0.993,12.827-2.882,24.77-5.947,35.042H222.198
		c-3.076-10.283-4.964-22.226-5.958-35.042H330.407z"/>
</g>
<g>
	<path style="fill:#CCA75E;" d="M245.167,175.146c-1.661,10.552-3.323,22.463-4.694,35.043h-21.579
		c1.37-12.578,3.032-24.489,4.694-35.043H245.167z"/>
	<path style="fill:#CCA75E;" d="M238.262,234.257c-0.841,11.641-1.337,23.487-1.327,35.031h-21.579
		c-0.01-11.544,0.486-23.39,1.327-35.031L238.262,234.257L238.262,234.257z"/>
	<path style="fill:#CCA75E;" d="M243.776,328.4h-21.579c-3.075-10.283-4.963-22.226-5.956-35.043h21.579
		C238.812,306.174,240.7,318.117,243.776,328.4z"/>
</g>
<g>
	<path style="fill:#FBD476;" d="M250.109,488.304c-10.242,6.349-21.391,11.426-33.188,15.22l-38.962-45.121
		c12.121-3.255,23.378-8.257,32.681-15.823L250.109,488.304z"/>
	<ellipse style="fill:#FBD476;" cx="302.415" cy="74.553" rx="8.093" ry="8.084"/>
	<ellipse style="fill:#FBD476;" cx="244.716" cy="74.553" rx="8.093" ry="8.084"/>
</g>
<g>
</g>
<g>
</g>
<g>
</g>
<g>
</g>
<g>
</g>
<g>
</g>
<g>
</g>
<g>
</g>
<g>
</g>
<g>
</g>
<g>
</g>
<g>
</g>
<g>
</g>
<g>
</g>
<g>
</g>
</svg>
