<?xml version="1.0" encoding="iso-8859-1"?>
<!-- Generator: Adobe Illustrator 19.0.0, SVG Export Plug-In . SVG Version: 6.00 Build 0)  -->
<svg version="1.1" id="Layer_1" xmlns="http://www.w3.org/2000/svg" xmlns:xlink="http://www.w3.org/1999/xlink" x="0px" y="0px"
	 viewBox="0 0 512 512" style="enable-background:new 0 0 512 512;" xml:space="preserve">
<g>
	<path style="fill:#D1C1A1;" d="M188.05,47.724c0,0,5.664-27.083,35.687-39.067c6.232-2.488,13.271,0.899,15.393,7.259l0.528,1.581
		c1.155,3.461,0.635,7.253-1.399,10.282c-4.536,6.751-12.45,19.391-14.744,28.555L188.05,47.724z"/>
	<path style="fill:#D1C1A1;" d="M323.95,47.724c0,0-5.665-27.083-35.687-39.067c-6.232-2.488-13.271,0.899-15.393,7.259
		l-0.528,1.581c-1.155,3.461-0.635,7.253,1.399,10.282c4.536,6.751,12.45,19.391,14.743,28.555L323.95,47.724z"/>
</g>
<path style="fill:#7FD3E3;" d="M512,211.942v25.622c0,2.383-1.93,4.315-4.311,4.315h-48.505c0,0-141.926,39.113-183.9,81.048
	h-38.567c-41.974-41.934-183.9-81.048-183.9-81.048H4.311c-2.381,0-4.311-1.932-4.311-4.315v-25.622
	C0,118.79,75.582,43.289,168.82,43.289h174.36C436.418,43.289,512,118.79,512,211.942z"/>
<g>
	<path style="fill:#3BB5CF;" d="M305.155,281.026h-56.221c-28.557,0-51.706-23.15-51.706-51.706V94.991
		c0-28.557,23.15-51.706,51.706-51.706h56.221c28.556,0,51.706,23.15,51.706,51.706v134.33
		C356.862,257.877,333.712,281.026,305.155,281.026z"/>
	<path style="fill:#3BB5CF;" d="M195.229,43.289H168.82C75.582,43.289,0,118.79,0,211.942v25.622c0,2.383,1.93,4.315,4.311,4.315
		h22.096v-29.938C26.409,118.79,101.99,43.289,195.229,43.289z"/>
</g>
<path style="fill:#5CBFD1;" d="M256.009,504.163h-0.018c-10.642,0-19.27-8.628-19.27-19.27V260.72h38.558v224.173
	C275.278,495.536,266.652,504.163,256.009,504.163z"/>
<path style="fill:#349FB5;" d="M258.279,484.884V260.72h-21.558v224.164c0,10.648,8.624,19.279,19.261,19.279h0.037
	c3.986,0,7.688-1.212,10.76-3.287C261.651,497.412,258.279,491.542,258.279,484.884z"/>
<path style="fill:#F2E5CB;" d="M284.11,281.026h-56.221c-28.557,0-51.706-23.15-51.706-51.706V94.991
	c0-28.557,23.15-51.706,51.706-51.706h56.221c28.557,0,51.706,23.15,51.706,51.706v134.33
	C335.817,257.877,312.667,281.026,284.11,281.026z"/>
<path style="fill:#D1C1A1;" d="M197.903,229.294V95.017c0-28.571,23.138-51.732,51.681-51.732h-21.719
	c-28.542,0-51.681,23.161-51.681,51.732v134.278c0,28.571,23.138,51.732,51.681,51.732h21.719
	C221.041,281.026,197.903,257.865,197.903,229.294z"/>
<g>
	<ellipse style="fill:#6B6352;" cx="226.868" cy="98.513" rx="8.084" ry="8.093"/>
	<ellipse style="fill:#6B6352;" cx="285.132" cy="98.513" rx="8.084" ry="8.093"/>
	<path style="fill:#6B6352;" d="M231.747,131.794H194.56c-4.465,0-8.084-3.623-8.084-8.093c0-4.469,3.618-8.093,8.084-8.093h37.187
		c4.465,0,8.084,3.623,8.084,8.093C239.831,128.17,236.213,131.794,231.747,131.794z"/>
	<path style="fill:#6B6352;" d="M231.747,158.738H194.56c-4.465,0-8.084-3.623-8.084-8.093c0-4.469,3.618-8.093,8.084-8.093h37.187
		c4.465,0,8.084,3.623,8.084,8.093C239.831,155.115,236.213,158.738,231.747,158.738z"/>
	<path style="fill:#6B6352;" d="M231.747,185.681H194.56c-4.465,0-8.084-3.623-8.084-8.093c0-4.47,3.618-8.093,8.084-8.093h37.187
		c4.465,0,8.084,3.623,8.084,8.093C239.831,182.059,236.213,185.681,231.747,185.681z"/>
	<path style="fill:#6B6352;" d="M316.438,131.794h-37.187c-4.465,0-8.084-3.623-8.084-8.093c0-4.469,3.618-8.093,8.084-8.093h37.187
		c4.465,0,8.084,3.623,8.084,8.093C324.522,128.17,320.903,131.794,316.438,131.794z"/>
	<path style="fill:#6B6352;" d="M316.438,158.738h-37.187c-4.465,0-8.084-3.623-8.084-8.093c0-4.469,3.618-8.093,8.084-8.093h37.187
		c4.465,0,8.084,3.623,8.084,8.093C324.522,155.115,320.903,158.738,316.438,158.738z"/>
	<path style="fill:#6B6352;" d="M316.438,185.681h-37.187c-4.465,0-8.084-3.623-8.084-8.093c0-4.47,3.618-8.093,8.084-8.093h37.187
		c4.465,0,8.084,3.623,8.084,8.093C324.522,182.059,320.903,185.681,316.438,185.681z"/>
</g>
<g>
</g>
<g>
</g>
<g>
</g>
<g>
</g>
<g>
</g>
<g>
</g>
<g>
</g>
<g>
</g>
<g>
</g>
<g>
</g>
<g>
</g>
<g>
</g>
<g>
</g>
<g>
</g>
<g>
</g>
</svg>
