<?xml version="1.0" encoding="iso-8859-1"?>
<!-- Generator: Adobe Illustrator 19.0.0, SVG Export Plug-In . SVG Version: 6.00 Build 0)  -->
<svg version="1.1" id="Layer_1" xmlns="http://www.w3.org/2000/svg" xmlns:xlink="http://www.w3.org/1999/xlink" x="0px" y="0px"
	 viewBox="0 0 512 512" style="enable-background:new 0 0 512 512;" xml:space="preserve">
<g>
	<path style="fill:#FBB071;" d="M231.606,174.56L231.606,174.56c-13.416,0-24.394-10.978-24.394-24.394v-49.691
		c0-13.416,10.978-24.394,24.394-24.394l0,0c13.416,0,24.394,10.978,24.394,24.394v49.691
		C256,163.582,245.022,174.56,231.606,174.56z"/>
	<path style="fill:#FBB071;" d="M280.394,174.56L280.394,174.56c-13.417,0-24.394-10.978-24.394-24.394v-49.691
		c0-13.416,10.978-24.394,24.394-24.394l0,0c13.416,0,24.394,10.978,24.394,24.394v49.691
		C304.787,163.582,293.811,174.56,280.394,174.56z"/>
</g>
<g>
	<path style="fill:#CC894F;" d="M228.86,150.122v-49.603c0-9.551,5.546-17.865,13.57-21.878c-3.266-1.634-6.941-2.56-10.824-2.56
		l0,0c-13.416,0-24.394,10.997-24.394,24.437v49.604c0,13.441,10.978,24.437,24.394,24.437l0,0c3.882,0,7.557-0.926,10.824-2.56
		C234.406,167.986,228.86,159.673,228.86,150.122z"/>
	<path style="fill:#CC894F;" d="M277.647,150.122v-49.603c0-9.551,5.546-17.865,13.57-21.878c-3.266-1.634-6.941-2.56-10.824-2.56
		l0,0c-13.416,0-24.394,10.997-24.394,24.437v49.604c0,13.441,10.978,24.437,24.394,24.437l0,0c3.882,0,7.557-0.926,10.824-2.56
		C283.194,167.986,277.647,159.673,277.647,150.122z"/>
</g>
<g>
	<path style="fill:#7D4F40;" d="M95.814,512c-8.818,0-15.966-7.165-15.966-16.003V309.695c0-5.805,3.137-11.155,8.197-13.981
		l122.569-68.422c7.705-4.299,17.427-1.528,21.718,6.194c4.29,7.722,1.523,17.467-6.18,21.767l-114.371,63.845v176.898
		C111.78,504.835,104.632,512,95.814,512z"/>
	<path style="fill:#7D4F40;" d="M36.864,414.58c-8.818,0-15.966-7.165-15.966-16.003V263.792c0-7.362,5.011-13.775,12.143-15.537
		l178.544-44.133c8.561-2.116,17.214,3.124,19.325,11.705c2.111,8.581-3.118,17.253-11.679,19.369L52.83,276.327v122.25
		C52.83,407.416,45.682,414.58,36.864,414.58z"/>
	<path style="fill:#7D4F40;" d="M218.375,196.958c-3.719,0-7.453-1.295-10.478-3.934l-70.524-61.549
		c-3.482-3.04-5.482-7.441-5.482-12.069V16.003C131.891,7.165,139.039,0,147.857,0c8.818,0,15.966,7.165,15.966,16.003v96.118
		l65.043,56.765c6.65,5.804,7.347,15.913,1.556,22.577C227.266,195.097,222.833,196.958,218.375,196.958z"/>
	<path style="fill:#7D4F40;" d="M218.389,216.658c-1.498,0-3.022-0.213-4.532-0.66L68.415,172.912
		c-6.785-2.009-11.441-8.256-11.441-15.346V57.856c0-8.838,7.148-16.003,15.966-16.003s15.966,7.165,15.966,16.003v87.753
		l134.001,39.696c8.456,2.505,13.286,11.406,10.786,19.882C231.64,212.148,225.281,216.658,218.389,216.658z"/>
</g>
<g>
	<path style="fill:#C97E67;" d="M416.186,512c8.818,0,15.966-7.165,15.966-16.003V309.695c0-5.805-3.137-11.155-8.197-13.981
		l-122.569-68.422c-7.705-4.299-17.427-1.528-21.718,6.194c-4.29,7.722-1.523,17.467,6.18,21.767l114.371,63.845v176.898
		C400.22,504.835,407.368,512,416.186,512z"/>
	<path style="fill:#C97E67;" d="M475.136,414.58c8.818,0,15.966-7.165,15.966-16.003V263.792c0-7.362-5.011-13.775-12.143-15.537
		l-178.544-44.134c-8.561-2.116-17.214,3.124-19.325,11.705c-2.111,8.581,3.118,17.253,11.679,19.369l166.4,41.131v122.25
		C459.17,407.416,466.318,414.58,475.136,414.58z"/>
	<path style="fill:#C97E67;" d="M293.625,196.958c3.719,0,7.453-1.295,10.478-3.934l70.523-61.549
		c3.482-3.04,5.482-7.441,5.482-12.069V16.003C380.108,7.165,372.96,0,364.142,0s-15.966,7.165-15.966,16.003v96.118l-65.043,56.765
		c-6.65,5.804-7.347,15.913-1.556,22.577C284.734,195.097,289.167,196.958,293.625,196.958z"/>
	<path style="fill:#C97E67;" d="M293.611,216.658c1.498,0,3.022-0.213,4.532-0.66l145.442-43.084
		c6.785-2.009,11.441-8.256,11.441-15.346v-99.71c0-8.838-7.148-16.003-15.966-16.003c-8.818,0-15.966,7.165-15.966,16.003v87.753
		l-134.001,39.696c-8.456,2.505-13.286,11.406-10.786,19.882C280.36,212.148,286.718,216.658,293.611,216.658z"/>
	<path style="fill:#C97E67;" d="M289.09,309.695h-66.18c-18.716,0-34.029-15.313-34.029-34.029v-83.825
		c0-34.22,27.998-62.218,62.218-62.218h9.801c34.22,0,62.218,27.998,62.218,62.218v83.825
		C323.119,294.381,307.806,309.695,289.09,309.695z"/>
</g>
<path style="fill:#B06750;" d="M210.532,267.991v-76.096c0-32.267,24.831-58.997,56.294-61.986c-1.934-0.184-3.89-0.287-5.869-0.287
	h-9.912c-34.19,0-62.163,28.023-62.163,62.274v83.739c0,2.648,0.316,5.223,0.893,7.702
	C195.944,277.331,202.921,272.153,210.532,267.991z"/>
<ellipse style="fill:#FBB071;" cx="256" cy="351.692" rx="95.065" ry="95.284"/>
<path style="fill:#CC894F;" d="M182.582,351.692c0-48.956,36.837-89.281,84.243-94.668c-3.554-0.403-7.165-0.619-10.826-0.619
	c-52.505,0-95.069,42.661-95.069,95.286s42.564,95.287,95.069,95.287c3.661,0,7.272-0.215,10.826-0.619
	C219.419,440.973,182.582,400.647,182.582,351.692z"/>
<g>
</g>
<g>
</g>
<g>
</g>
<g>
</g>
<g>
</g>
<g>
</g>
<g>
</g>
<g>
</g>
<g>
</g>
<g>
</g>
<g>
</g>
<g>
</g>
<g>
</g>
<g>
</g>
<g>
</g>
</svg>
