<?xml version="1.0" encoding="iso-8859-1"?>
<!-- Generator: Adobe Illustrator 19.0.0, SVG Export Plug-In . SVG Version: 6.00 Build 0)  -->
<svg version="1.1" id="Layer_1" xmlns="http://www.w3.org/2000/svg" xmlns:xlink="http://www.w3.org/1999/xlink" x="0px" y="0px"
	 viewBox="0 0 512 512" style="enable-background:new 0 0 512 512;" xml:space="preserve">
<g>
	<path style="fill:#232F38;" d="M375.179,338.374l-27.068,43.116l13.903,2.955c1.824,0.388,3.128,1.999,3.128,3.863v10.027
		c0,2.182-1.768,3.95-3.95,3.95h-50.966c-5.352,0-9.154-5.211-7.522-10.308l18.784-58.653L375.179,338.374z"/>
	<path style="fill:#232F38;" d="M144.657,328.5l5.795,70.161c0.169,2.048,1.881,3.625,3.936,3.625h55.104
		c2.181,0,3.95-1.768,3.95-3.95v-10.957c0-1.816-1.238-3.398-3.001-3.834l-12.962-3.207l15.962-61.217L144.657,328.5z"/>
</g>
<path style="fill:#628FA3;" d="M510.149,229.125l-11.453,13.112c-7.4,8.477-17.872,13.618-29.093,14.305l-13.164,0.782
	c-12.446,0.76-24.606,4.096-35.701,9.785l-1.309,0.676c-5.362,1.277-9.944,4.297-13.174,8.382c-3.24,4.086-5.13,9.237-5.13,14.749
	v42.481l23.772,49.46c0.633,1.309,1.922,2.174,3.368,2.238l15.518,0.739c2.1,0.106,3.758,1.837,3.758,3.938v8.562
	c0,2.181-1.768,3.948-3.948,3.948h-42.616c-2.522,0-4.887-1.203-6.386-3.219l-16.182-22.085
	c-11.337-15.466-29.378-24.608-48.559-24.608H168.634c-8.044,13.111-13.596,23.996-14.525,28.462l13.765,2.523
	c2.1,0.391,3.505,2.365,3.198,4.466l-1.657,11.095c-0.285,1.942-1.953,3.368-3.906,3.368H89.303c-2.181,0-3.948-1.768-3.948-3.949
	V343.87c0-1.815-1.16-3.427-2.882-4.004l-40.704-13.633c-2.855-0.956-3.82-4.508-1.843-6.778l14.118-16.208
	c1.907-2.19,1.087-5.606-1.607-6.69l-29.555-11.899c-2.716-1.093-3.521-4.552-1.569-6.733l19.416-21.703
	c1.794-2.006,1.28-5.157-1.06-6.487l-37.53-21.34c-3.12-1.774-2.745-6.385,0.622-7.631l33.95-12.564
	c2.511-0.929,3.535-3.932,2.114-6.201L11.277,158c-1.945-3.105,0.718-7.045,4.325-6.398l51.404,9.23
	c2.856,0.513,5.366-1.94,4.918-4.808l-6.461-41.429c-0.514-3.296,2.815-5.858,5.868-4.518l65.545,28.761
	c2.26,0.992,4.885-0.158,5.688-2.491l7.531-21.853c0.906-2.628,4.059-3.679,6.36-2.12l51.861,35.135
	c2.464,1.669,5.835,0.334,6.488-2.569l3.598-15.99c0.707-3.143,4.532-4.369,6.933-2.221l35.718,31.923
	c2.103,1.88,5.423,1.208,6.63-1.342l8.837-18.666c1.253-2.646,4.751-3.245,6.813-1.168l42.128,42.439
	c0.887,0.893,2.126,1.345,3.38,1.23l11.235-1.024c1.906-0.173,3.457-1.607,3.779-3.494l3.498-20.472
	c0.455-2.66,3.254-4.217,5.753-3.201l22.378,9.104c2.099,0.854,4.498-0.101,5.436-2.165l10.134-22.311
	c1.134-2.495,4.306-3.266,6.457-1.57l32.853,25.888c1.718,1.353,4.184,1.171,5.684-0.419l4.05-4.292
	c2.028-2.15,5.581-1.604,6.87,1.056l23.942,49.388c7.104,3.864,14.905,6.44,23.034,7.569l11.602,1.605
	C511.426,217.629,514.055,224.65,510.149,229.125z"/>
<path style="fill:#476775;" d="M106.914,343.869c0-11.073-7.066-20.878-17.581-24.399l-12.929-4.33
	c-1.818-0.609-2.675-2.639-1.911-4.394c2.208-5.07,2.756-10.793,1.433-16.29c-1.945-8.073-7.709-14.746-15.422-17.851l-3.008-1.211
	c-1.797-0.724-2.331-3.007-1.041-4.45l0,0c4.598-5.139,7.224-11.84,6.885-18.72c-0.442-8.957-5.34-16.828-13-21.182l-0.007-0.004
	c-2.147-1.221-2.346-4.286-0.319-5.697c4.45-3.096,7.837-7.542,9.632-12.798c2.513-7.358,1.586-15.358-2.543-21.949l-1.675-2.675
	c-1.982-3.165,0.739-7.175,4.42-6.514l3.338,0.6c1.509,0.271,3.048,0.409,4.577,0.409c7.527,0,14.659-3.278,19.565-8.994
	c4.905-5.714,7.054-13.257,5.895-20.695l-0.386-2.475c-0.523-3.358,2.878-5.968,5.996-4.6l29.363,12.885
	c4.056,1.779,8.408,2.477,12.882,2.058c0.422-0.04,0.842-0.09,1.259-0.15c13.25-1.924,21.327-15.662,17.211-28.377l-6.56-20.263
	c-1.29,0.349-2.412,1.296-2.894,2.695l-7.534,21.86c-0.802,2.328-3.427,3.475-5.686,2.484l-65.545-28.761
	c-3.053-1.34-6.383,1.216-5.87,4.505l6.463,41.443c0.447,2.866-2.069,5.319-4.93,4.805l-51.391-9.226
	c-3.607-0.648-6.269,3.291-4.325,6.397l27.552,44.004c1.42,2.268,0.396,5.266-2.117,6.196L2.761,220.762
	c-3.37,1.248-3.747,5.855-0.624,7.63l37.532,21.34c2.34,1.331,2.855,4.482,1.06,6.487l-19.416,21.703
	c-1.954,2.184-1.145,5.64,1.575,6.735l29.55,11.897c2.694,1.084,3.514,4.501,1.607,6.69l-14.118,16.21
	c-1.977,2.27-1.011,5.821,1.843,6.778l40.704,13.633c1.722,0.577,2.882,2.186,2.882,3.998v54.472c0,2.181,1.771,3.948,3.956,3.948
	h17.601v-58.413H106.914z"/>
<path style="fill:#628FA3;" d="M168.638,352.364c0.178-0.306,0.366-0.602,0.553-0.908c8.342-13.517,19.223-29.256,30.33-42.704"/>
<path style="fill:#B8674D;" d="M510.145,229.13l-11.447,13.111c-7.405,8.476-17.871,13.617-29.092,14.295l-13.172,0.785
	c-12.438,0.764-24.597,4.098-35.699,9.789l-1.304,0.677c-5.368,1.27-9.948,4.292-13.172,8.379c-3.244,4.088-5.13,9.239-5.13,14.747
	v42.488l23.767,49.457c0.636,1.312,1.918,2.172,3.374,2.237l15.51,0.742c2.102,0.096,3.762,1.829,3.762,3.937v8.562
	c0,2.172-1.768,3.948-3.944,3.948h-42.619c-2.522,0-4.883-1.205-6.392-3.227l-16.179-22.083
	c-11.339-15.468-29.372-24.61-48.559-24.61H223.805c1.218-0.99,2.544-1.882,3.848-2.721c14.109-9.035,29.728-15.693,46.015-19.63
	c15.92-3.85,33.005-5.325,46.683-14.317c7.987-5.26,14.218-12.725,20.146-20.211c21.741-27.396,41.305-56.503,58.454-86.965
	c4.064-7.228,8.095-14.671,14.152-20.34c6.058-5.669,14.659-9.358,22.722-7.39c11.662,2.829,24.566,21.083,35.085,26.836
	c7.103,3.872,14.908,6.443,23.035,7.572l11.598,1.603C511.428,217.631,514.058,224.645,510.145,229.13z"/>
<ellipse style="fill:#232F38;" cx="430.351" cy="202.448" rx="8.084" ry="8.068"/>
<path style="fill:#91523D;" d="M359.238,358.757c-0.638,0.087-1.278,0.17-1.917,0.252c8.22,4.215,15.477,10.313,21.088,17.968
	l16.182,22.085c1.499,2.017,3.864,3.219,6.386,3.219h19.271c-5.525-9.606-10.37-17.376-14.871-23.661
	C394.877,363.966,377.125,356.336,359.238,358.757z"/>
<g>
	<path style="fill:#476775;" d="M198.69,202.447c-2.112,0-4.219-0.82-5.805-2.451l-21.724-22.357
		c-3.108-3.199-3.028-8.306,0.177-11.407c3.206-3.103,8.323-3.022,11.431,0.176l21.724,22.357c3.108,3.199,3.028,8.306-0.177,11.407
		C202.747,201.69,200.716,202.447,198.69,202.447z"/>
	<path style="fill:#476775;" d="M247.952,210.667c-2.831,0-5.578-1.486-7.06-4.125l-11.641-20.733
		c-2.182-3.887-0.794-8.803,3.101-10.981c3.897-2.178,8.822-0.792,11.004,3.095l11.641,20.733c2.182,3.887,0.794,8.803-3.101,10.981
		C250.645,210.335,249.29,210.667,247.952,210.667z"/>
	<path style="fill:#476775;" d="M297.126,217.427c-2.784,0-5.492-1.436-6.993-4.009l-11.346-19.44
		c-2.247-3.85-0.94-8.789,2.918-11.031c3.859-2.243,8.807-0.939,11.055,2.911l11.345,19.44c2.247,3.85,0.94,8.789-2.918,11.031
		C299.907,217.072,298.507,217.427,297.126,217.427z"/>
	<path style="fill:#476775;" d="M143.002,202.447c-1.642,0-3.296-0.496-4.727-1.529l-27.431-19.772
		c-3.618-2.609-4.434-7.651-1.82-11.263c2.615-3.612,7.669-4.424,11.287-1.816l27.431,19.772c3.618,2.609,4.434,7.651,1.82,11.263
		C147.981,201.287,145.51,202.447,143.002,202.447z"/>
	<path style="fill:#476775;" d="M116.785,224.106c-0.997,0-2.01-0.185-2.993-0.576L80.03,210.091
		c-4.147-1.651-6.168-6.344-4.514-10.482c1.654-4.139,6.358-6.153,10.503-4.505l33.762,13.438c4.147,1.651,6.168,6.344,4.514,10.482
		C123.033,222.184,119.995,224.106,116.785,224.106z"/>
	<path style="fill:#476775;" d="M117.458,283.398H85.736c-4.465,0-8.084-3.612-8.084-8.068c0-4.455,3.618-8.068,8.084-8.068h31.722
		c4.465,0,8.084,3.612,8.084,8.068C125.541,279.786,121.922,283.398,117.458,283.398z"/>
	<path style="fill:#476775;" d="M116.004,255.768c-0.515,0-1.038-0.049-1.562-0.152l-32.843-6.419
		c-4.382-0.857-7.238-5.095-6.38-9.468c0.859-4.372,5.107-7.22,9.488-6.367l32.843,6.419c4.382,0.857,7.238,5.095,6.38,9.468
		C123.174,253.098,119.792,255.768,116.004,255.768z"/>
	<path style="fill:#476775;" d="M179.865,268.384c-0.521,0-1.049-0.05-1.581-0.156l-33.307-6.591
		c-4.379-0.866-7.225-5.113-6.357-9.482c0.868-4.37,5.117-7.211,9.502-6.344l33.307,6.591c4.379,0.866,7.225,5.113,6.357,9.482
		C187.023,265.725,183.645,268.384,179.865,268.384z"/>
	<path style="fill:#476775;" d="M245.08,249.348c-1.601,0-3.219-0.473-4.631-1.46l-23.38-16.34
		c-3.657-2.556-4.545-7.586-1.984-11.236c2.561-3.649,7.603-4.537,11.26-1.98l23.38,16.34c3.657,2.556,4.545,7.586,1.984,11.236
		C250.137,248.149,247.629,249.348,245.08,249.348z"/>
	<path style="fill:#476775;" d="M188.761,238.453c-1.24,0-2.497-0.285-3.676-0.887l-26.089-13.321
		c-3.975-2.029-5.548-6.89-3.515-10.856c2.034-3.966,6.907-5.535,10.878-3.507l26.089,13.321c3.975,2.029,5.548,6.89,3.515,10.856
		C194.534,236.848,191.7,238.453,188.761,238.453z"/>
	<path style="fill:#476775;" d="M126.086,309.349c-3.967,0-7.429-2.916-7.996-6.95c-0.619-4.413,2.463-8.49,6.885-9.108
		l33.822-4.726c4.416-0.62,8.508,2.458,9.127,6.871c0.619,4.413-2.463,8.49-6.885,9.108l-33.822,4.726
		C126.839,309.323,126.46,309.349,126.086,309.349z"/>
</g>
<g>
</g>
<g>
</g>
<g>
</g>
<g>
</g>
<g>
</g>
<g>
</g>
<g>
</g>
<g>
</g>
<g>
</g>
<g>
</g>
<g>
</g>
<g>
</g>
<g>
</g>
<g>
</g>
<g>
</g>
</svg>
