<?xml version="1.0" encoding="iso-8859-1"?>
<!-- Generator: Adobe Illustrator 19.0.0, SVG Export Plug-In . SVG Version: 6.00 Build 0)  -->
<svg version="1.1" id="Layer_1" xmlns="http://www.w3.org/2000/svg" xmlns:xlink="http://www.w3.org/1999/xlink" x="0px" y="0px"
	 viewBox="0 0 512 512" style="enable-background:new 0 0 512 512;" xml:space="preserve">
<path style="fill:#FF5845;" d="M511.999,140.924c-0.162,17.299-14.454,31.159-31.754,31.159h-4.388c-1.703,0-3.255,0.69-4.366,1.812
	c-1.121,1.133-1.811,2.675-1.811,4.379c0,10.483-8.494,18.982-18.971,18.982h-35.775c-22.895,0-41.467,18.572-41.467,41.491v33.672
	c0,87.975-71.27,159.297-159.183,159.297H51.372c-24.846,0-45.551-17.644-50.326-41.07C0.356,387.302,0,383.85,0,380.313
	c0-89.011,36.055-169.575,94.348-227.903c58.293-58.326,138.81-94.403,227.748-94.403h7.377c0.956,0,1.779-0.635,2.067-1.546
	c5.252-16.669,20.827-28.771,39.222-28.771c22.711,0,41.122,18.432,41.122,41.156c0,0.655-0.014,1.309-0.046,1.96
	c-0.046,0.931,0.518,1.783,1.391,2.11l70.227,26.354c8.591,3.214,15.715,8.93,20.707,16.146
	C509.239,122.74,512.074,131.594,511.999,140.924z"/>
<path style="fill:#B53C2F;" d="M26.914,390.061c-0.69-3.391-1.046-6.892-1.046-10.479c0-90.276,36.055-171.986,94.348-231.142
	c41.055-41.663,93.143-72.108,151.424-86.485c-68.732,10.822-130.253,43.386-177.293,90.455C36.055,210.737,0,291.302,0,380.312
	c0,3.537,0.356,6.988,1.046,10.332c4.775,23.425,25.481,41.07,50.326,41.07h25.87C52.396,431.714,31.69,413.819,26.914,390.061z"/>
<g>
	<ellipse style="fill:#F2E5CB;" cx="372.067" cy="70.238" rx="22.636" ry="22.649"/>
	<path style="fill:#F2E5CB;" d="M475.857,172.082c-1.703,0-3.255,0.69-4.366,1.812c-1.121,1.133-1.811,2.675-1.811,4.379
		c0,10.483-8.494,18.982-18.971,18.982h-35.775c-22.895,0-41.467,18.572-41.467,41.491v33.672
		c0,87.975-71.27,159.297-159.183,159.297H51.372c-24.846,0-45.551-17.644-50.326-41.07c49.195-26.92,145.634-28.409,191.002-26.122
		c71.497,3.591,108.867-110.732,146.949-171.593C377.079,132.069,475.857,172.082,475.857,172.082z"/>
</g>
<g>
	<path style="fill:#D1C1A1;" d="M25.735,390.644c36.437-19.939,98.787-25.924,147.112-26.76
		c-49.524-0.88-128.752,3.203-171.801,26.76c4.775,23.425,25.481,41.07,50.326,41.07h24.69
		C51.217,431.714,30.51,414.07,25.735,390.644z"/>
	<path style="fill:#D1C1A1;" d="M216.738,364.523c71.497,3.591,108.867-110.732,146.949-171.593
		c13.969-22.325,36.106-31.068,58.539-33.2c-29.572-2.499-64.075,2.59-83.229,33.2c-35.947,57.448-71.265,162.514-135.244,171.096
		C208.424,364.153,212.779,364.322,216.738,364.523z"/>
</g>
<g>
	<ellipse style="fill:#451712;" cx="376.654" cy="72.662" rx="8.084" ry="8.077"/>
	<ellipse style="fill:#451712;" cx="200.14" cy="125.095" rx="8.084" ry="8.077"/>
	<ellipse style="fill:#451712;" cx="120.916" cy="211.006" rx="8.084" ry="8.077"/>
	<ellipse style="fill:#451712;" cx="146.516" cy="159.817" rx="8.084" ry="8.077"/>
	<ellipse style="fill:#451712;" cx="244.684" cy="173.557" rx="8.084" ry="8.077"/>
	<ellipse style="fill:#451712;" cx="187.517" cy="216.638" rx="8.084" ry="8.077"/>
	<ellipse style="fill:#451712;" cx="256" cy="121.657" rx="8.084" ry="8.077"/>
	<ellipse style="fill:#451712;" cx="195.605" cy="173.557" rx="8.084" ry="8.077"/>
</g>
<path style="fill:#FF5845;" d="M315.284,216.154l91.834,224.991h24.081c17.732,0,32.108,14.383,32.108,32.126v4.615
	c0,3.548-2.875,6.425-6.422,6.425h-76.771c-2.18,0-4.211-1.107-5.394-2.939L238.451,305.898L315.284,216.154z"/>
<path style="fill:#B53C2F;" d="M401.487,481.371L264.194,304.583c-6.044-7.782-17.716-8.061-24.125-0.576l0,0
	c-0.941,1.1-0.98,2.71-0.092,3.855L374.72,481.371c1.183,1.833,3.214,2.939,5.394,2.939h26.767
	C404.702,484.31,402.67,483.203,401.487,481.371z"/>
<path style="fill:#D44637;" d="M257.992,471.573v8.767c0,2.194-1.776,3.971-3.969,3.971H141.95C25.74,484.31,0,428.757,0,375.028
	c0-57.968,46.961-104.956,104.895-104.956s104.894,46.988,104.894,104.956c0,48.671-32.515,80.988-32.515,80.988h65.169
	C251.026,456.016,257.992,462.986,257.992,471.573z"/>
<path style="fill:#993328;" d="M22.154,375.028c0-54.224,41.092-98.837,93.817-104.374c-3.64-0.382-7.335-0.582-11.077-0.582
	C46.961,270.072,0,317.06,0,375.028C0,428.757,25.739,484.31,141.95,484.31h22.154C47.894,484.31,22.154,428.757,22.154,375.028z"/>
<g>
</g>
<g>
</g>
<g>
</g>
<g>
</g>
<g>
</g>
<g>
</g>
<g>
</g>
<g>
</g>
<g>
</g>
<g>
</g>
<g>
</g>
<g>
</g>
<g>
</g>
<g>
</g>
<g>
</g>
</svg>
