<?xml version="1.0" encoding="iso-8859-1"?>
<!-- Generator: Adobe Illustrator 19.0.0, SVG Export Plug-In . SVG Version: 6.00 Build 0)  -->
<svg version="1.1" id="Layer_1" xmlns="http://www.w3.org/2000/svg" xmlns:xlink="http://www.w3.org/1999/xlink" x="0px" y="0px"
	 viewBox="0 0 512 512" style="enable-background:new 0 0 512 512;" xml:space="preserve">
<path style="fill:#7D4F40;" d="M387.918,123.565c-2.218,0.107-4.054-1.708-3.952-3.924c0.493-10.711,4.073-38.625,27.974-38.662
	c17.151-0.027,29.884,11.541,22.173,37.821c-0.452,1.541-1.84,2.632-3.447,2.709L387.918,123.565z"/>
<path style="fill:#C97E67;" d="M508.745,207.21c-2.403,5.052-6.198,9.791-11.491,13.862c-22.258,17.157-43.914,45.839-70.171,37.309
	c0,0-1.778,22.09-13.182,50.104c-3.978,9.779-9.129,20.27-15.792,30.793c-19.381,30.642-51.512,61.553-104.62,75.802
	c0,0-84.992-15.327-110.215-100.219c-25.212-84.893,40.356-125.39,40.356-125.39c99.198-13.635,125.327-50.492,125.327-50.492
	s11.177-41.412,59.619-38.967c55.813,2.822,63.498,45.495,85.046,60.347c0.517,0.355,1.024,0.722,1.519,1.098
	C510.437,172.885,516.226,191.56,508.745,207.21z"/>
<path style="fill:#FBB071;" d="M508.749,207.215c-1.671-0.985-19.544-0.621-27.146-12.401c-9.12-14.13,0-27.004,13.538-33.357
	C510.441,172.885,516.226,191.555,508.749,207.215z"/>
<path style="fill:#B85F44;" d="M66.509,261.278v-128.55c0-18.339-14.889-33.206-33.255-33.206l0,0
	C14.889,99.522,0,114.389,0,132.728v137.605c0,47.309,38.407,85.66,85.786,85.66h58.081v-66.411H94.855
	C79.2,289.581,66.509,276.909,66.509,261.278z"/>
<path style="fill:#964E38;" d="M21.558,270.333V132.728c0-14.57,9.402-26.94,22.476-31.412c-3.381-1.157-7.005-1.794-10.779-1.794
	l0,0C14.889,99.522,0,114.389,0,132.728v137.605c0,47.309,38.407,85.66,85.786,85.66h21.558
	C59.966,355.993,21.558,317.642,21.558,270.333z"/>
<ellipse style="fill:#91523D;" cx="449.609" cy="146.871" rx="8.084" ry="8.078"/>
<path style="fill:#C97E67;" d="M369.968,142.386c-1.474,1.658-4.057,1.701-5.572,0.08c-7.327-7.838-24.819-29.903-8.142-46.998
	c11.967-12.267,29.153-13.276,42.587,10.597c0.788,1.4,0.6,3.153-0.468,4.355L369.968,142.386z"/>
<path style="fill:#FBB071;" d="M369.899,130.798c-0.902,1.015-2.482,1.041-3.408,0.049c-4.482-4.795-15.182-18.292-4.981-28.749
	c7.321-7.504,17.833-8.121,26.05,6.483c0.482,0.857,0.367,1.929-0.286,2.664L369.899,130.798z"/>
<path style="fill:#B06750;" d="M385.746,416.663v9.876c0,2.477-2.005,4.48-4.484,4.48H276.879
	c-143.49,0-160.38-62.63-160.38-123.214c0-61.618,47.158-112.228,107.401-117.808c3.654-0.355,7.362-0.528,11.114-0.528
	c65.449,0,118.504,52.979,118.504,118.336c0,54.876-36.734,91.312-36.734,91.312h51.405
	C377.878,399.119,385.746,406.98,385.746,416.663z"/>
<path style="fill:#B8674D;" d="M385.746,416.663v9.876c0,2.477-2.005,4.48-4.484,4.48H254.642
	c-143.478,0-160.38-62.63-160.38-123.214c0-65.355,53.065-118.336,118.514-118.336c3.751,0,7.46,0.172,11.124,0.528
	c60.244,5.59,107.39,56.2,107.39,117.808c0,54.876-36.734,91.312-36.734,91.312h73.631
	C377.878,399.119,385.746,406.98,385.746,416.663z"/>
<path style="fill:#91523D;" d="M115.825,307.807c0-61.729,47.331-112.406,107.732-117.845c-3.551-0.32-7.145-0.492-10.779-0.492
	c-65.454,0-118.511,52.978-118.511,118.337c0,60.578,16.896,123.213,160.377,123.213h21.558
	C132.721,431.02,115.825,368.385,115.825,307.807z"/>
<path style="fill:#B8674D;" d="M392.386,262.816l0.435,0.722c7.431,12.349,19.058,21.617,32.758,26.116l40.516,13.305
	c2.873,0.944,4.816,3.625,4.816,6.647v15.689c0,3.865-3.136,6.999-7.004,6.999h-14.22c-2.498,0-4.808-1.328-6.063-3.486
	l-6.26-10.766c-1.399-2.406-4.091-3.756-6.858-3.439l-26.548,3.043c-11.871,1.36-23.878-0.84-34.493-6.323l0,0
	c-10.585-5.467-13.748-19.109-6.646-28.67l15.251-20.531C381.732,257.195,389.222,257.559,392.386,262.816z"/>
<g>
</g>
<g>
</g>
<g>
</g>
<g>
</g>
<g>
</g>
<g>
</g>
<g>
</g>
<g>
</g>
<g>
</g>
<g>
</g>
<g>
</g>
<g>
</g>
<g>
</g>
<g>
</g>
<g>
</g>
</svg>
