<?xml version="1.0" encoding="iso-8859-1"?>
<!-- Generator: Adobe Illustrator 19.0.0, SVG Export Plug-In . SVG Version: 6.00 Build 0)  -->
<svg version="1.1" id="Layer_1" xmlns="http://www.w3.org/2000/svg" xmlns:xlink="http://www.w3.org/1999/xlink" x="0px" y="0px"
	 viewBox="0 0 512 512" style="enable-background:new 0 0 512 512;" xml:space="preserve">
<path style="fill:#FBD476;" d="M426.389,0h28.728c29.395,0,53.225,23.784,53.225,53.123l0,0c0,1.724-1.401,3.122-3.128,3.122
	h-78.825V0z"/>
<path style="fill:#CCA75E;" d="M455.117,0h-28.728v56.245h29.194V0.011C455.428,0.01,455.273,0,455.117,0z"/>
<path style="fill:#FBD476;" d="M287.795,366.253l-35.244,63.935c-3.057,5.547-1.503,12.498,3.628,16.22l42.885,31.109
	c2.137,1.551,4.711,2.385,7.354,2.385h17.674c13.317,0,25.788,6.514,33.38,17.433l2.47,3.553c3.262,4.693-0.102,11.111-5.825,11.111
	h-56.661c-8.425,0-16.647-2.58-23.556-7.393l-44.772-31.184c-17.323-12.065-23.112-35.015-13.578-53.829l36.423-71.879
	L287.795,366.253z"/>
<path style="fill:#FF5845;" d="M434.034,187.671v66.976c0,67.939-55.177,122.993-123.248,122.993H150.4l197.543-132.301V79.328
	c0-13.35,3.307-25.903,9.122-36.936c13.302-25.199,39.813-42.388,70.356-42.388h6.595V187.69L434.034,187.671z"/>
<path style="fill:#B53C2F;" d="M369.78,79.328c0-13.35,3.307-25.903,9.122-36.936c11.031-20.897,31.149-36.274,55.114-40.919V0.003
	h-6.595c-30.543,0-57.055,17.189-70.356,42.388c-5.815,11.033-9.122,23.586-9.122,36.936v163.71c0,1.438-0.717,2.782-1.912,3.582
	l-195.63,131.02h21.837l195.63-131.02c1.195-0.8,1.912-2.144,1.912-3.582V79.328z"/>
<path style="fill:#9EC767;" d="M434.023,0v112.849c-44.216-14.445-66.194-43-76.952-70.462C370.374,17.189,396.885,0,427.428,0
	H434.023z"/>
<path style="fill:#89AD5C;" d="M376.005,39.896c10.804-17.823,37.894-30.898,58.019-36.742V0h-6.595
	c-30.542,0-57.053,17.189-70.356,42.388c10.757,27.462,32.736,56.017,76.951,70.462V99.795
	c-24.677-14.911-49.32-35.799-58.258-55.852C375.182,42.632,375.261,41.123,376.005,39.896z"/>
<circle style="fill:#556B39;" cx="400.791" cy="39.344" r="8.088"/>
<path style="fill:#9EC767;" d="M349.496,302.21c-0.507,0.367-1.024,0.722-1.563,1.099l-148.871,102.82
	c-10.148,7.006-24.059,4.473-31.068-5.648l-3.332-4.797c-3.02-4.366-7.323-7.318-12.056-8.699
	c-6.255-1.833-13.243-0.938-19.012,3.05l-9.878,6.823c-5.069,3.504-11.097,4.613-16.704,3.6c-0.895-0.162-1.779-0.377-2.643-0.657
	c-4.68-1.445-8.918-4.441-11.873-8.818c-2.901-4.301-7.106-7.168-11.754-8.515c-6.308-1.833-13.426-0.863-19.217,3.137
	L45.22,396.869c-5.91,4.086-13.102,4.926-19.454,2.922h-0.01c-4.551-1.434-8.659-4.344-11.593-8.559l-9.737-14.034
	c-1.358-1.951-0.863-4.646,1.1-5.994l263.363-181.905c0.539-0.367,1.056-0.734,1.585-1.067
	c31.414-20.458,73.599-12.331,95.049,18.615C386.991,237.794,379.745,280.069,349.496,302.21z"/>
<g>
	<path style="fill:#89AD5C;" d="M52.408,391.236l-9.731-14.035c-1.357-1.958-0.868-4.645,1.094-5.999L307.14,189.3
		c0.535-0.369,1.054-0.728,1.584-1.071c5.942-3.869,12.27-6.711,18.771-8.574c-18.726-5.327-39.542-2.809-57.022,8.574
		c-0.531,0.343-1.049,0.702-1.584,1.071L5.52,371.202c-1.962,1.355-2.451,4.041-1.094,5.999l9.731,14.035
		c7.009,10.109,20.916,12.636,31.06,5.63l7.525-5.197C52.634,391.52,52.514,391.386,52.408,391.236z"/>
	<path style="fill:#89AD5C;" d="M237.021,277.946L80.741,382.469c-6.308-1.833-13.426-0.863-19.217,3.137L45.218,396.87
		c-5.91,4.086-13.102,4.926-19.454,2.922l202.262-135.286c3.709-2.48,8.735-1.488,11.215,2.231
		C241.733,270.444,240.73,275.466,237.021,277.946z"/>
	<path style="fill:#89AD5C;" d="M307.816,283.174L152.604,386.985c-6.255-1.833-13.243-0.938-19.012,3.05l-9.878,6.823
		c-5.069,3.504-11.097,4.613-16.704,3.6c-0.895-0.162-1.779-0.377-2.643-0.657l194.454-130.058c3.709-2.478,8.735-1.487,11.215,2.22
		C312.529,275.671,311.526,280.695,307.816,283.174z"/>
</g>
<g>
</g>
<g>
</g>
<g>
</g>
<g>
</g>
<g>
</g>
<g>
</g>
<g>
</g>
<g>
</g>
<g>
</g>
<g>
</g>
<g>
</g>
<g>
</g>
<g>
</g>
<g>
</g>
<g>
</g>
</svg>
