<?xml version="1.0" encoding="iso-8859-1"?>
<!-- Generator: Adobe Illustrator 19.0.0, SVG Export Plug-In . SVG Version: 6.00 Build 0)  -->
<svg version="1.1" id="Layer_1" xmlns="http://www.w3.org/2000/svg" xmlns:xlink="http://www.w3.org/1999/xlink" x="0px" y="0px"
	 viewBox="0 0 512 512" style="enable-background:new 0 0 512 512;" xml:space="preserve">
<path style="fill:#FBD476;" d="M282.885,130.538h57.569c0,0-19.201-63.603-82.337-70.428c-2.679-0.289-5.067,1.701-5.313,4.383
	C251.339,80.404,249.382,130.538,282.885,130.538z"/>
<path style="fill:#CCA75E;" d="M274.362,64.493c0.036-0.386,0.126-0.75,0.245-1.102c-5.13-1.519-10.618-2.647-16.488-3.281
	c-2.679-0.289-5.067,1.701-5.313,4.383c-1.465,15.911-3.422,66.045,30.082,66.045h21.558
	C270.94,130.538,272.897,80.405,274.362,64.493z"/>
<path style="fill:#FBD476;" d="M282.885,381.462h57.569c0,0-19.201,63.603-82.337,70.428c-2.679,0.289-5.067-1.701-5.313-4.383
	C251.339,431.596,249.382,381.462,282.885,381.462z"/>
<path style="fill:#CCA75E;" d="M274.362,447.507c-1.465-15.911-3.422-66.045,30.082-66.045h-21.558
	c-33.504,0-31.547,50.134-30.082,66.045c0.247,2.683,2.635,4.674,5.313,4.383c5.87-0.635,11.358-1.762,16.488-3.281
	C274.488,448.257,274.398,447.892,274.362,447.507z"/>
<path style="fill:#7FD3E3;" d="M88.303,255.333c0,0-19.202,63.611-82.336,70.434c-2.674,0.29-5.057-1.706-5.311-4.379
	c-1.464-15.921-3.424-66.055,30.078-66.055c-33.504,0-31.543-50.134-30.078-66.043c0.254-2.686,2.637-4.671,5.311-4.379
	C69.102,191.734,88.303,255.333,88.303,255.333z"/>
<path style="fill:#349FB5;" d="M36.509,255.143c-0.001-0.03-0.003-0.061-0.004-0.091c-0.122-2.912-1.258-5.652-3.224-7.806
	c-13.531-14.837-12.167-46.02-11.068-57.956c0.037-0.383,0.126-0.748,0.245-1.098c-5.131-1.519-10.62-2.647-16.491-3.281
	c-2.674-0.29-5.057,1.694-5.311,4.379c-1.464,15.909-3.424,66.043,30.078,66.043c-33.504,0-31.543,50.134-30.078,66.055
	c0.254,2.674,2.637,4.67,5.311,4.379c5.871-0.634,11.361-1.762,16.493-3.281c-0.119-0.351-0.209-0.715-0.246-1.098
	c-1.104-12.009-2.473-43.46,11.292-58.199C35.533,261.019,36.661,258.107,36.509,255.143z"/>
<path style="fill:#7FD3E3;" d="M512,255.333c0,29.713-20.157,60.248-53.576,84.916c-41.331,30.511-102.93,52.058-171.727,52.058
	c-114.174,0-208.514-115.323-223.289-134.334c-1.209-1.556-1.209-3.721,0-5.277c14.777-19.01,109.117-134.323,223.289-134.323
	c26.715,0,52.354,3.254,76.129,9.013C449.797,148.46,512,203.143,512,255.333z"/>
<path style="fill:#349FB5;" d="M90.148,257.972c-1.21-1.556-1.21-3.721,0-5.277c14.291-18.386,103.007-126.845,212.109-133.95
	c-5.142-0.243-10.329-0.373-15.56-0.373c-114.174,0-208.514,115.313-223.289,134.323c-1.209,1.556-1.209,3.721,0,5.277
	c14.776,19.011,109.116,134.335,223.289,134.335c5.205,0,10.361-0.138,15.477-0.379C193.11,384.773,104.434,276.353,90.148,257.972z
	"/>
<path style="fill:#FBD476;" d="M361.48,268.819c0.342-1.502-0.027-3.066-1.011-4.25c-5.81-6.993-29.51-30.481-72.556-10.477
	c-38.314,17.805-63.498,29.304-73.217,33.725c-2.592,1.179-3.648,4.275-2.355,6.813c6.75,13.26,30.249,48.405,82.937,29.492
	C349.393,304.696,359.606,277.055,361.48,268.819z"/>
<path style="fill:#CCA75E;" d="M315.574,314.767c-53.94,17.859-79.25-18.813-86.613-32.589c-0.129-0.239-0.215-0.487-0.304-0.734
	c-6.175,2.827-10.86,4.962-13.961,6.373c-2.592,1.179-3.648,4.275-2.355,6.813c6.75,13.26,30.249,48.405,82.937,29.491
	c9.51-3.414,17.659-7.081,24.65-10.852C318.507,313.774,317.06,314.275,315.574,314.767z"/>
<path style="fill:#FF5845;" d="M512,255.333c0,29.713-20.157,60.248-53.576,84.916c-81.743-85.17-95.694-166.77-95.598-212.862
	C449.797,148.46,512,203.143,512,255.333z"/>
<path style="fill:#B53C2F;" d="M384.862,133.608c-7.144-2.309-14.495-4.395-22.036-6.222
	c-0.096,46.093,13.853,127.694,95.598,212.862c4.43-3.271,8.621-6.647,12.569-10.108
	C400.898,252.359,385.988,178.646,384.862,133.608z"/>
<circle style="fill:#F2E5CB;" cx="437.415" cy="222.939" r="23.256"/>
<ellipse style="fill:#B53C2F;" cx="441.041" cy="222.981" rx="8.084" ry="8.074"/>
<g>
</g>
<g>
</g>
<g>
</g>
<g>
</g>
<g>
</g>
<g>
</g>
<g>
</g>
<g>
</g>
<g>
</g>
<g>
</g>
<g>
</g>
<g>
</g>
<g>
</g>
<g>
</g>
<g>
</g>
</svg>
