<?xml version="1.0" encoding="iso-8859-1"?>
<!-- Generator: Adobe Illustrator 19.0.0, SVG Export Plug-In . SVG Version: 6.00 Build 0)  -->
<svg version="1.1" id="Layer_1" xmlns="http://www.w3.org/2000/svg" xmlns:xlink="http://www.w3.org/1999/xlink" x="0px" y="0px"
	 viewBox="0 0 512.001 512.001" style="enable-background:new 0 0 512.001 512.001;" xml:space="preserve">
<g>
	<path style="fill:#D44637;" d="M366.062,394.171l-26.607,58.746l13.666,2.902c1.793,0.38,3.075,1.961,3.075,3.792v9.843
		c0,2.141-1.738,3.877-3.882,3.877h-50.099c-5.261,0-8.999-5.116-7.394-10.12l18.464-73.999L366.062,394.171z"/>
	<path style="fill:#D44637;" d="M184.506,400.9l5.697,68.873c0.166,2.01,1.848,3.558,3.869,3.558h54.166
		c2.144,0,3.882-1.736,3.882-3.877v-10.755c0-1.783-1.217-3.335-2.95-3.764l-26.832-3.148l15.69-60.094L184.506,400.9z"/>
</g>
<path style="fill:#FF5845;" d="M152.535,326.656L152.535,326.656c0,5.492-4.651,9.863-10.131,9.467
	c-24.304-1.755-86.767-13.427-125.397-85.071C5.105,228.978,0.362,205.101,0.02,181.545C-0.879,118.91,29.368,58.606,39.004,41.019
	c1.433-2.614,5.02-3.023,6.997-0.791c11.434,12.91,43.426,54.78,51.59,126.86v0.01c1.671,14.768,2.345,30.799,1.639,48.107
	c-2.984,72.912,33.436,96.42,47.707,102.803C150.349,319.534,152.535,322.921,152.535,326.656z"/>
<path style="fill:#B53C2F;" d="M39.642,251.051c-11.901-22.073-16.644-45.95-16.987-69.507C21.9,128.849,43.185,77.811,55.7,52.465
	c-3.876-5.398-7.248-9.469-9.688-12.224c-1.981-2.237-5.571-1.841-7.007,0.779C29.368,58.606-0.879,118.91,0.021,181.544
	c0.343,23.556,5.084,47.433,16.987,69.507c38.625,71.636,101.077,83.314,125.389,85.072c2.513,0.182,4.845-0.646,6.642-2.116
	C119.529,328.416,71.489,310.115,39.642,251.051z"/>
<path style="fill:#F2E5CB;" d="M97.591,167.088l-23.1-9.97c-2.01-0.867-4.352-0.093-5.446,1.802l-13.209,22.884
	c-1.321,2.288-4.374,2.861-6.436,1.207l-22.484-18.039c-1.553-1.246-3.757-1.267-5.334-0.051L0.021,181.544
	C-0.882,118.666,29.603,58.138,39.116,40.816c1.38-2.513,4.824-2.907,6.73-0.764C57.142,52.754,89.39,94.678,97.591,167.088z"/>
<path style="fill:#D1C1A1;" d="M55.696,52.469c-11.134,22.529-29.189,65.401-32.52,111.677c-0.572,0.152-1.111,0.399-1.596,0.776
	L0.023,181.546c-0.906-62.631,29.34-122.935,38.976-140.53c1.444-2.619,5.034-3.017,7.018-0.776
	C48.452,42.998,51.826,47.071,55.696,52.469z"/>
<path style="fill:#FF5845;" d="M512.001,247.086l-2.802,10.044c-4.15,10.216-19.746,13.973-21.936,14.113
	c0,0-9.032,0.675-14.71,9.071c-0.729,1.078-1.885,1.796-3.181,1.921l-32.388,3.117c-0.237,0.147-0.535,0.332-0.771,0.479
	c-6.025,9.721-36.487,59.747-39.613,63.698c-3.169,4.016-5.045,9.075-5.045,14.479v41.694l23.369,44.331
	c0.625,1.292,1.898,2.142,3.309,2.196l15.252,0.731c2.08,0.097,3.708,1.797,3.708,3.876v12.624c0,2.134-1.746,3.879-3.881,3.879
	h-41.897c-2.468,0-4.808-1.184-6.274-3.175l-15.899-21.67c-11.156-15.19-29.351-45.581-48.203-45.581H147.058
	c-7.912,12.875-16.416,44.978-17.333,49.359l32.563,2.487c2.058,0.366,3.449,2.304,3.137,4.371l-1.616,10.905
	c-0.28,1.895-1.918,3.305-3.848,3.305H85.058c-2.145,0-3.881-1.744-3.881-3.876v-56.464c0,0-10.725-156.58,106.776-156.58
	l142.304-2.024l91.901-44.718l22.776,0.194c7.286,0.054,14.228,3.1,19.176,8.44l3.719,3.995
	c10.445,11.227,24.468,18.527,39.699,20.637l0.647,0.043C510.32,243.158,511.979,244.933,512.001,247.086z"/>
<g>
	<path style="fill:#B53C2F;" d="M102.735,469.464v-56.463c0,0-5.47-91.433,34.248-143.659
		c-63.064,37.477-55.806,143.659-55.806,143.659v56.463c0,2.132,1.736,3.876,3.881,3.876h21.558
		C104.471,473.339,102.735,471.595,102.735,469.464z"/>
	<path style="fill:#B53C2F;" d="M406.701,470.163l-15.899-21.67c-11.156-15.19-29.351-43.751-48.203-43.751h-13.334
		c15.808,6.766,30.458,30.787,39.979,43.751l15.899,21.67c1.466,1.992,3.806,3.176,6.274,3.176h21.558
		C410.507,473.339,408.167,472.155,406.701,470.163z"/>
</g>
<g>
	<path style="fill:#F2E5CB;" d="M436.484,285.4c-0.086,0.14-0.172,0.29-0.27,0.43c-6.026,9.721-36.487,59.747-39.613,63.698
		c-3.169,4.016-5.045,9.075-5.045,14.479c-3.417-5.599-4.98-12.079-5.347-18.785c-1.509-28.431,18.659-53.481,46.608-59.09
		L436.484,285.4z"/>
	<path style="fill:#F2E5CB;" d="M321.04,402.916H147.057l11.082-23.39c0,0,111.787-4.404,136.307,0
		C318.965,383.93,321.04,402.916,321.04,402.916z"/>
</g>
<circle style="fill:#451712;" cx="448.628" cy="239.073" r="8.084"/>
<path style="fill:#FF5845;" d="M431.158,212.349c0,0-14.074-22.323-32.73-30.126c-2.681-1.121-5.659,0.716-5.797,3.615
	c-0.523,11.013-0.158,36.022,12.597,48.011C405.228,233.848,423.33,229.451,431.158,212.349z"/>
<path style="fill:#B53C2F;" d="M425.23,212.784c0,0-9.758-15.478-22.694-20.889c-1.859-0.777-3.924,0.496-4.02,2.507
	c-0.363,7.636-0.11,24.976,8.734,33.288C407.251,227.69,419.802,224.641,425.23,212.784z"/>
<g>
</g>
<g>
</g>
<g>
</g>
<g>
</g>
<g>
</g>
<g>
</g>
<g>
</g>
<g>
</g>
<g>
</g>
<g>
</g>
<g>
</g>
<g>
</g>
<g>
</g>
<g>
</g>
<g>
</g>
</svg>
