<?xml version="1.0" encoding="iso-8859-1"?>
<!-- Generator: Adobe Illustrator 19.0.0, SVG Export Plug-In . SVG Version: 6.00 Build 0)  -->
<svg version="1.1" id="Layer_1" xmlns="http://www.w3.org/2000/svg" xmlns:xlink="http://www.w3.org/1999/xlink" x="0px" y="0px"
	 viewBox="0 0 512.001 512.001" style="enable-background:new 0 0 512.001 512.001;" xml:space="preserve">
<g>
	<path style="fill:#7FD3E3;" d="M127.073,386.949c0,0,49.425-10.061,83.859,17.895c19.354,15.713-27.833,6.1-55.991,47.075
		c0,0-20.862,16.555-25.515,56.216c-0.231,1.973-1.787,3.571-3.758,3.762c-40.722,3.941-29.44-105.004-29.44-105.004
		S98.298,378.28,127.073,386.949z"/>
	<path style="fill:#7FD3E3;" d="M466.025,237.913c0,2.662-0.775,5.357-2.402,7.718c-4.06,5.874-11.956,7.61-18.084,3.966
		l-64.45-38.34c0,0,0,0-0.01-0.011c-125.552-65.557-198.511-17.3-218.835,1.294c-38.526,35.215-49.296,91.664-40.982,146.712v0.01
		c4.986,33.017,16.834,65.526,33.679,92.655C23.875,387.46,18.877,204.434,98.289,116.909
		c43.028-47.406,94.781-67.994,146.414-68.328c54.326-0.367,103.795,23.929,145.347,62.346
		c21.605,19.985,28.058,64.016,24.212,82.362l46.163,33.599C464.075,229.549,466.025,233.688,466.025,237.913z"/>
</g>
<path style="fill:#349FB5;" d="M120.108,116.913c40.239-44.343,88.118-65.218,136.396-68.01c-3.907-0.232-7.838-0.351-11.798-0.325
	c-51.638,0.339-103.392,20.925-146.413,68.335c-78.037,85.997-74.565,264.202,49.922,331.534c1.907,1.031,3.947-1.112,2.866-2.993
	c-0.471-0.821-0.938-1.647-1.401-2.476c-4.233-7.591-9.679-14.445-16.125-20.273C45.76,343.319,50.586,193.526,120.108,116.913z"/>
<ellipse style="fill:#3092A6;" cx="366.08" cy="162.89" rx="8.078" ry="8.084"/>
<path style="fill:#F2E5CB;" d="M381.078,211.247c-125.552-65.557-198.511-17.3-218.835,1.294
	c-38.526,35.215-49.296,91.664-40.982,146.712c-48.94-139.996,37.626-211.785,109.249-217.508
	C320.207,134.565,380.195,210.061,381.078,211.247z"/>
<path style="fill:#7FD3E3;" d="M245.049,149.194c0,0,34.255,93.529-41.603,95.592c0,0-24.741-2.081-9.593-31.173
	s14.687-70.14,28.818-73.957C243.416,134.053,245.049,149.194,245.049,149.194z"/>
<path style="fill:#349FB5;" d="M215.797,213.613c13.716-26.343,14.636-62.486,25.179-71.916c-3.137-2.762-8.65-4.649-18.305-2.041
	c-14.131,3.817-13.67,44.865-28.818,73.957s9.593,31.173,9.593,31.173c5.735-0.156,10.832-0.842,15.372-1.964
	C212.769,239.806,206.085,232.265,215.797,213.613z"/>
<path style="fill:#7FD3E3;" d="M332.718,77.972c-2.86-15.336-15.001-65.311-53.391-77.741c-2.539-0.822-5.257,0.627-5.952,3.211
	c-3.18,11.823-10.596,44.351-2.805,66.249c0.286,0.805,0.801,1.516,1.471,2.046c20.153,15.947,46.466,13.484,56.885,11.678
	C331.486,82.971,333.195,80.532,332.718,77.972z"/>
<path style="fill:#349FB5;" d="M293.403,71.736c-0.669-0.53-1.185-1.241-1.471-2.046c-7.053-19.819-1.646-48.346,1.801-62.348
	c-4.338-2.951-9.115-5.397-14.407-7.111c-2.539-0.822-5.257,0.627-5.952,3.211c-3.179,11.823-10.596,44.352-2.805,66.249
	c0.286,0.806,0.801,1.517,1.471,2.046c17.631,13.95,39.974,13.813,52.267,12.35C314.218,82.813,303.099,79.409,293.403,71.736z"/>
<g>
</g>
<g>
</g>
<g>
</g>
<g>
</g>
<g>
</g>
<g>
</g>
<g>
</g>
<g>
</g>
<g>
</g>
<g>
</g>
<g>
</g>
<g>
</g>
<g>
</g>
<g>
</g>
<g>
</g>
</svg>
