<?xml version="1.0" encoding="iso-8859-1"?>
<!-- Generator: Adobe Illustrator 19.0.0, SVG Export Plug-In . SVG Version: 6.00 Build 0)  -->
<svg version="1.1" id="Layer_1" xmlns="http://www.w3.org/2000/svg" xmlns:xlink="http://www.w3.org/1999/xlink" x="0px" y="0px"
	 viewBox="0 0 512 512" style="enable-background:new 0 0 512 512;" xml:space="preserve">
<path style="fill:#FBD476;" d="M512,205.025c0,8.901-0.862,17.954-2.5,27.083c-0.894,5-2.016,10.023-3.364,15.044
	c-0.474,1.789-0.981,3.589-1.519,5.389c-3.794,12.814-8.957,25.682-15.252,38.409c-1.876,3.826-3.869,7.63-5.95,11.424
	c-0.841,1.531-1.693,3.05-2.565,4.58C428.624,398.462,322.56,479.086,256,479.086S83.376,398.462,31.152,306.954
	c-0.874-1.531-1.725-3.05-2.565-4.58c-2.08-3.794-4.074-7.597-5.95-11.424c-6.294-12.727-11.458-25.596-15.252-38.409
	c-0.539-1.799-1.046-3.6-1.519-5.389c-1.347-5.022-2.468-10.045-3.364-15.044C0.862,222.979,0,213.926,0,205.025
	c0-1.326,0.01-2.64,0.043-3.944c0.043-2.306,0.14-4.569,0.259-6.812c0.367-6.563,1.078-12.9,2.123-19.011v-0.01
	c1.703-10.077,4.301-19.55,7.728-28.452c1.034-2.727,2.166-5.389,3.364-8.007c4.128-9.021,9.151-17.406,14.993-25.176
	C71.088,56.904,156.984,32.914,256,32.914s184.912,23.99,227.49,80.699c5.842,7.77,10.865,16.155,14.993,25.176
	c1.207,2.619,2.328,5.291,3.363,8.018c3.427,8.903,6.026,18.364,7.728,28.441v0.01c1.046,6.111,1.756,12.447,2.123,19.011
	c0.119,2.241,0.215,4.506,0.259,6.812C511.99,202.384,512,203.699,512,205.025z"/>
<g>
	<path style="fill:#FBB071;" d="M512,205.025c0,8.901-0.862,17.954-2.5,27.083c-0.894,5-2.016,10.023-3.364,15.044
		c-0.474,1.789-0.981,3.589-1.519,5.389c-3.794,12.814-8.957,25.682-15.252,38.409c-1.876,3.826-3.869,7.63-5.95,11.424
		c-0.841,1.531-1.693,3.05-2.565,4.58C428.624,398.462,322.56,479.086,256,479.086S83.376,398.462,31.152,306.954
		c-0.874-1.531-1.725-3.05-2.565-4.58c-2.08-3.794-4.074-7.597-5.95-11.424c-6.294-12.727-11.458-25.596-15.252-38.409
		c-0.539-1.799-1.046-3.6-1.519-5.389c-1.347-5.022-2.468-10.045-3.364-15.044C0.862,222.979,0,213.926,0,205.025
		c0-1.326,0.01-2.64,0.043-3.944c0.043-2.306,0.14-4.569,0.259-6.812c0.367-6.563,1.078-12.9,2.123-19.011v-0.01
		c1.703-10.077,4.301-19.55,7.728-28.452c1.034-2.727,2.166-5.389,3.364-8.007C64.08,90.927,153.772,70.441,256,70.441
		s191.92,20.487,242.483,68.348c1.207,2.619,2.328,5.291,3.363,8.018c3.427,8.903,6.026,18.364,7.728,28.441v0.01
		c1.046,6.111,1.756,12.447,2.123,19.011c0.119,2.241,0.215,4.506,0.259,6.812C511.99,202.384,512,203.699,512,205.025z"/>
	<path style="fill:#FBB071;" d="M512,205.028c0,13.782-2.058,27.909-5.859,42.128c-4.909,18.429-12.734,37.018-22.723,55.222
		C432.165,395.756,323.669,479.086,256,479.086S79.835,395.756,28.582,302.379c-9.989-18.204-17.814-36.793-22.723-55.222
		C2.058,232.937,0,218.81,0,205.028c0-3.654,0.106-7.241,0.303-10.763c46.99-58.069,143.848-82.601,255.697-82.601
		s208.706,24.532,255.697,82.601C511.894,197.787,512,201.374,512,205.028z"/>
	<path style="fill:#FBB071;" d="M506.141,247.156c-4.909,18.429-12.734,37.018-22.723,55.222
		C432.165,395.756,323.669,479.086,256,479.086S79.835,395.756,28.582,302.379c-9.989-18.204-17.814-36.793-22.723-55.222
		C48.31,183.394,144.337,156.651,256,156.651S463.69,183.394,506.141,247.156z"/>
	<path style="fill:#FBB071;" d="M483.418,302.379C432.165,395.756,323.669,479.086,256,479.086S79.835,395.756,28.582,302.379
		C68.447,240.841,155.289,214.957,256,214.957S443.553,240.841,483.418,302.379z"/>
</g>
<path style="fill:#CCA75E;" d="M50.033,302.378c-9.989-18.204-17.814-36.793-22.723-55.222c-3.8-14.22-5.859-28.346-5.859-42.128
	c0-3.654,0.106-7.242,0.303-10.763c1.161-20.681,5.727-39.123,13.21-55.474C68.152,66.323,158.823,34.94,266.726,33.01
	c-3.558-0.064-7.132-0.096-10.726-0.096c-112.587,0-208.204,31.02-242.487,105.876c-7.483,16.351-12.048,34.793-13.21,55.474
	C0.106,197.786,0,201.374,0,205.028c0,13.783,2.058,27.909,5.859,42.128c4.909,18.43,12.734,37.018,22.723,55.222
	C79.835,395.756,188.331,479.086,256,479.086c3.47,0,7.053-0.231,10.726-0.66C198.799,470.5,98.657,390.967,50.033,302.378z"/>
<g>
	<path style="fill:#CC894F;" d="M50.033,302.378c-9.989-18.204-17.814-36.793-22.723-55.222c-3.8-14.22-5.859-28.346-5.859-42.128
		c0-3.654,0.106-7.242,0.303-10.763c1.161-20.681,5.727-39.123,13.21-55.474c48.789-46.178,134.008-66.875,231.761-68.274
		c-3.56-0.05-7.132-0.083-10.726-0.083c-102.229,0-191.921,20.496-242.487,68.355c-7.483,16.351-12.048,34.793-13.21,55.474
		C0.106,197.786,0,201.374,0,205.028c0,13.783,2.058,27.909,5.859,42.128c4.909,18.43,12.734,37.018,22.723,55.222
		C79.835,395.756,188.331,479.086,256,479.086c3.47,0,7.053-0.231,10.726-0.66C198.799,470.5,98.657,390.967,50.033,302.378z"/>
	<path style="fill:#CC894F;" d="M50.033,302.378c-9.989-18.204-17.814-36.793-22.723-55.222c-3.8-14.22-5.859-28.346-5.859-42.128
		c0-3.654,0.106-7.242,0.303-10.763c45.481-56.204,137.68-80.99,244.971-82.524c-3.559-0.05-7.135-0.077-10.726-0.077
		c-111.848,0-208.706,24.531-255.697,82.6C0.106,197.786,0,201.374,0,205.028c0,13.783,2.058,27.909,5.859,42.128
		c4.909,18.43,12.734,37.018,22.723,55.222C79.835,395.756,188.331,479.086,256,479.086c3.47,0,7.053-0.231,10.726-0.66
		C198.799,470.5,98.657,390.967,50.033,302.378z"/>
	<path style="fill:#CC894F;" d="M50.033,302.378c-9.989-18.204-17.814-36.793-22.723-55.222
		c41.085-61.711,132.356-88.745,239.415-90.421c-3.558-0.055-7.134-0.085-10.726-0.085c-111.663,0-207.69,26.744-250.141,90.506
		c4.909,18.43,12.734,37.018,22.723,55.222C79.835,395.756,188.331,479.086,256,479.086c3.47,0,7.053-0.231,10.726-0.66
		C198.799,470.5,98.657,390.967,50.033,302.378z"/>
	<path style="fill:#CC894F;" d="M50.033,302.378c38.442-59.342,120.571-85.524,216.692-87.318
		c-3.557-0.066-7.131-0.103-10.726-0.103c-100.71,0-187.553,25.883-227.418,87.42C79.835,395.756,188.331,479.086,256,479.086
		c3.47,0,7.053-0.231,10.726-0.66C198.799,470.5,98.657,390.967,50.033,302.378z"/>
</g>
<g>
	<path style="fill:#A86022;" d="M501.847,146.806c-1.616-0.204-3.202-0.894-4.495-2.1c-23.757-22.093-57.494-38.992-100.255-50.222
		C356.784,83.89,309.313,78.523,256,78.523S155.216,83.89,114.903,94.484c-42.76,11.23-76.498,28.129-100.255,50.222
		c-1.283,1.195-2.867,1.896-4.495,2.09c1.034-2.727,2.166-5.389,3.364-8.007c4.128-9.021,9.151-17.406,14.993-25.176
		C69.2,87.155,138.66,62.357,256,62.357s186.8,24.798,227.49,51.255c5.842,7.77,10.865,16.155,14.993,25.176
		C499.69,141.407,500.811,144.08,501.847,146.806z"/>
	<path style="fill:#A86022;" d="M511.957,201.08c-0.69-0.442-1.336-1.002-1.886-1.67c-21.881-26.565-56.018-46.913-101.463-60.481
		c-42.653-12.729-93.993-19.184-152.608-19.184s-109.956,6.454-152.608,19.183c-45.444,13.568-79.58,33.915-101.463,60.481
		c-0.55,0.669-1.196,1.228-1.886,1.67c0.043-2.306,0.14-4.569,0.259-6.812c0.367-6.563,1.078-12.9,2.123-19.011v-0.01
		c23.509-22.331,55.824-39.703,96.343-51.806c44.15-13.179,97.053-19.86,157.232-19.86s113.082,6.681,157.232,19.861
		c40.518,12.103,72.834,29.474,96.343,51.806v0.01c1.046,6.111,1.756,12.447,2.123,19.011
		C511.817,196.51,511.913,198.774,511.957,201.08z"/>
	<path style="fill:#A86022;" d="M509.5,232.107c-0.894,5-2.016,10.023-3.364,15.044c-0.474,1.789-0.981,3.589-1.519,5.389
		c-0.237-0.27-0.452-0.55-0.657-0.852C465.952,195.605,377.888,164.728,256,164.728S46.048,195.605,8.042,251.689
		c-0.205,0.302-0.42,0.582-0.657,0.852c-0.539-1.799-1.046-3.6-1.519-5.389c-1.347-5.022-2.468-10.045-3.364-15.044
		c21.956-26.856,54.595-47.613,97.205-61.785c43.385-14.442,95.976-21.759,156.295-21.759s112.91,7.317,156.295,21.759
		C454.904,184.494,487.542,205.25,509.5,232.107z"/>
	<path style="fill:#A86022;" d="M489.364,290.95c-1.876,3.826-3.869,7.63-5.95,11.424c-0.841,1.531-1.693,3.05-2.565,4.58
		c-0.032-0.043-0.054-0.087-0.086-0.13c-18.422-27.945-48.193-49.348-88.474-63.618c-37.791-13.375-83.644-20.163-136.289-20.163
		s-98.498,6.79-136.289,20.163c-40.281,14.269-70.052,35.673-88.474,63.618c-0.032,0.043-0.054,0.087-0.086,0.13
		c-0.874-1.531-1.725-3.05-2.565-4.58c-2.08-3.794-4.074-7.597-5.95-11.424c20.545-27.535,51.34-48.701,91.675-62.98
		c39.526-14,87.202-21.091,141.689-21.091s102.163,7.092,141.689,21.091C438.024,242.249,468.82,263.415,489.364,290.95z"/>
</g>
<g>
</g>
<g>
</g>
<g>
</g>
<g>
</g>
<g>
</g>
<g>
</g>
<g>
</g>
<g>
</g>
<g>
</g>
<g>
</g>
<g>
</g>
<g>
</g>
<g>
</g>
<g>
</g>
<g>
</g>
</svg>
