<?xml version="1.0" encoding="iso-8859-1"?>
<!-- Generator: Adobe Illustrator 19.0.0, SVG Export Plug-In . SVG Version: 6.00 Build 0)  -->
<svg version="1.1" id="Layer_1" xmlns="http://www.w3.org/2000/svg" xmlns:xlink="http://www.w3.org/1999/xlink" x="0px" y="0px"
	 viewBox="0 0 512 512" style="enable-background:new 0 0 512 512;" xml:space="preserve">
<path style="fill:#825732;" d="M235.654,401.255h52.229v102.397c0,4.61,3.737,8.348,8.347,8.348h99.58
	c2.308,0,4.179-1.871,4.179-4.18v-3.785c0-14.724-11.934-26.658-26.654-26.658h-34.572c-6.773,0-12.264-5.492-12.264-12.266V352.526
	c0-31.581-25.598-57.183-57.174-57.183h-7.656c-34.935,0-63.255,28.325-63.255,63.265v5.401
	C198.414,384.58,215.087,401.255,235.654,401.255z"/>
<path style="fill:#C97E67;" d="M370.694,63.596h-27.487V24.318C343.207,10.888,354.094,0,367.525,0h0.001
	c1.75,0,3.168,1.419,3.168,3.168L370.694,63.596L370.694,63.596z"/>
<path style="fill:#FBB071;" d="M461.845,92.343v7.383c0,7.588-6.153,13.744-13.741,13.744h-39.93
	c-10.475,0-18.99,8.472-19.043,18.949l-0.679,129.8c-0.043,6.736-0.495,13.43-1.347,20.06c-0.884,6.866-2.209,13.646-3.955,20.33
	c-2.004,7.62-4.559,15.112-7.641,22.388c-2.231,5.26-4.742,10.402-7.522,15.414c-20.811,37.554-60.374,60.848-103.31,60.848H162.863
	v-90.457c0-33.5,13.59-63.843,35.543-85.801s52.302-35.538,85.819-35.538c6.628,0,12.426-4.441,14.161-10.844l25.995-96.084V19.758
	c0-5.465,2.209-10.402,5.788-13.969C333.747,2.21,338.683,0,344.136,0c3.589,0,6.498,2.91,6.498,6.499v45.875
	c1.422-0.215,2.878-0.345,4.354-0.345h24.497c10.896,0,20.811,6.262,25.488,16.092l4.569,9.593
	c2.403,5.055,7.501,8.267,13.095,8.267h32.848C459,85.984,461.845,88.829,461.845,92.343z"/>
<g>
	<path style="fill:#CC894F;" d="M305.209,185.195c6.763,0,12.679-4.531,14.45-11.062l26.524-98.019V12.072
		c0-3.656,0.984-7.072,2.679-10.023C347.676,0.79,345.999,0,344.134,0c-5.454,0-10.392,2.21-13.97,5.789
		c-3.568,3.567-5.778,8.504-5.778,13.969v62.776l-26,96.084c-0.762,2.81-2.306,5.24-4.358,7.084
		C297.711,185.372,301.439,185.195,305.209,185.195z"/>
	<path style="fill:#CC894F;" d="M217.666,221.448c14.367-14.366,32.257-25.209,52.258-31.144
		c-27.799,3.262-52.73,15.909-71.517,34.696c-21.957,21.956-35.54,52.299-35.54,85.801v90.457h18.543v-92.279
		C181.41,274.802,195.265,243.848,217.666,221.448z"/>
</g>
<g>
	<path style="fill:#C97E67;" d="M192.834,401.255H148.87c-54.431,0-98.715-44.282-98.715-98.712v-84.78
		c0-7.739,6.274-14.013,14.013-14.013s14.013,6.274,14.013,14.013v84.78c0,38.977,31.711,70.685,70.688,70.685h43.964
		c7.74,0,14.013,6.274,14.013,14.013C206.847,394.982,200.573,401.255,192.834,401.255z"/>
	<path style="fill:#C97E67;" d="M461.845,92.343v7.383c0,7.588-6.155,13.744-13.744,13.744h-13.269V85.984h20.653
		C458.999,85.984,461.845,88.829,461.845,92.343z"/>
</g>
<path style="fill:#CC894F;" d="M387.104,282.279c-0.872,6.78-2.177,13.474-3.89,20.07c-0.022,0.086-0.043,0.172-0.065,0.259
	c-2.004,7.62-4.559,15.112-7.641,22.388c-13.817-1.111-25.111-12.665-25.111-26.764v-54.832c0.53-0.191,1.072-0.374,1.627-0.549
	c2.105-0.66,4.372-0.796,6.504-0.228c7.985,2.13,13.866,9.409,13.866,18.065V277.3c0,2.75,2.229,4.98,4.979,4.98h9.731V282.279z"/>
<circle style="fill:#825732;" cx="390.865" cy="85.985" r="8.083"/>
<path style="fill:#EDA264;" d="M411.472,326.731v19.456c0,5.156-4.179,9.335-9.333,9.335h-0.01c-5.154,0-9.333-4.18-9.333-9.335
	v-6.704c0-2.649-2.147-4.796-4.796-4.796h-2.274c-2.66,0-4.773-2.179-4.796-4.839c-0.011-1.309-0.548-2.489-1.401-3.353
	c-0.862-0.862-2.069-1.401-3.384-1.401H352.1c-14.832,0-26.857-12.026-26.857-26.861v-24.371c0-9.151,4.516-17.72,12.06-22.895
	l6.561-4.502c0.711-0.488,1.452-0.916,2.232-1.283c1.276-0.6,2.735-1.227,4.302-1.782v53.97c0,2.75,2.229,4.98,4.979,4.98h31.718
	C400.566,302.35,411.472,313.269,411.472,326.731z"/>
<path style="fill:#FBB071;" d="M200.101,401.255h52.237v102.397c0,4.61,3.737,8.348,8.347,8.348h99.58
	c2.308,0,4.179-1.871,4.179-4.18v-3.785c0-14.724-11.934-26.658-26.654-26.658h-34.572c-6.773,0-12.264-5.492-12.264-12.266V352.526
	c0-31.581-25.598-57.183-57.174-57.183h-7.656c-34.935,0-63.255,28.325-63.255,63.265v5.408
	C162.869,384.583,179.539,401.255,200.101,401.255z"/>
<g>
	<path style="fill:#CC894F;" d="M184.423,364.017v-5.408c0-32.522,24.545-59.299,56.119-62.853
		c-2.224-0.262-4.481-0.413-6.774-0.413h-7.632c-34.942,0-63.268,28.325-63.268,63.265v5.408c0,20.566,16.672,37.238,37.24,37.238
		h21.554C201.097,401.255,184.423,384.583,184.423,364.017z"/>
	<path style="fill:#CC894F;" d="M273.893,503.652v-86.576c0-8.737-7.082-15.821-15.818-15.821h-1.425
		c-2.381,0-4.311,1.93-4.311,4.311v98.085c0,4.61,3.737,8.348,8.347,8.348h21.556C277.63,512,273.893,508.262,273.893,503.652z"/>
</g>
<g>
</g>
<g>
</g>
<g>
</g>
<g>
</g>
<g>
</g>
<g>
</g>
<g>
</g>
<g>
</g>
<g>
</g>
<g>
</g>
<g>
</g>
<g>
</g>
<g>
</g>
<g>
</g>
<g>
</g>
</svg>
