<?xml version="1.0" encoding="iso-8859-1"?>
<!-- Generator: Adobe Illustrator 19.0.0, SVG Export Plug-In . SVG Version: 6.00 Build 0)  -->
<svg version="1.1" id="Layer_1" xmlns="http://www.w3.org/2000/svg" xmlns:xlink="http://www.w3.org/1999/xlink" x="0px" y="0px"
	 viewBox="0 0 512 512" style="enable-background:new 0 0 512 512;" xml:space="preserve">
<path style="fill:#C97E67;" d="M397.923,80.964V34.481c0-1.154,0.935-2.09,2.09-2.09h2.85c10.666,0,19.312,8.644,19.312,19.308
	v39.232L397.923,80.964z"/>
<path style="fill:#E8C1B5;" d="M512,135.068v5.421c0,1.552-0.205,3.071-0.592,4.515c-1.8,6.8-7.61,12.048-14.908,12.899
	l-45.983,5.377c0,0-50.079,18.805-67.325,0c-17.246-18.815-6.532-59.065-6.532-59.065V33.933c0-0.852,0.69-1.541,1.541-1.541
	c6.306,0,12.008,2.554,16.136,6.681c4.128,4.127,6.683,9.828,6.683,16.122V74.29l35.57,6.821c7.76,1.476,14.346,6.552,17.775,13.676
	c1.454,3.018,3.482,5.689,5.929,7.867c2.458,2.188,5.335,3.901,8.504,4.989l31.399,10.851C507.257,120.94,512,127.589,512,135.068z"
	/>
<circle style="fill:#3F5666;" cx="444.332" cy="112.295" r="8.084"/>
<path style="fill:#CCA295;" d="M511.408,145.003c-1.8,6.8-7.61,12.048-14.908,12.899l-45.983,5.377c0,0-50.079,18.805-67.325,0
	c-17.246-18.815-6.532-59.065-6.532-59.065V33.933c0-0.858,0.704-1.541,1.562-1.541c6.298,0.005,11.991,2.559,16.115,6.681
	c4.128,4.127,6.683,9.828,6.683,16.122v29.199c0,3.609,2.927,6.536,6.537,6.536l0,0c3.61,0,6.537,2.926,6.537,6.536v5.516
	c0,12.097,9.81,21.904,21.909,21.904h12.427c7.825,0,14.169,6.341,14.169,14.165l0,0c0,3.288,2.667,5.955,5.956,5.955h42.851
	V145.003z"/>
<path style="fill:#B3D2F2;" d="M48.39,260.603c0.006-4.603-3.724-8.337-8.329-8.337H30.69l0,0C13.74,252.266,0,266,0,282.942v46.669
	c0,15.904,12.898,28.797,28.81,28.797h11.122c4.594,0,8.322-3.72,8.329-8.312L48.39,260.603z"/>
<path style="fill:#3F5666;" d="M152.964,469.178v8.275c0,1.19-0.965,2.156-2.156,2.156h-34.427c-1.19,0-2.156-0.964-2.156-2.156
	v-68.416h24.349v44.756C146.615,454.321,152.964,461.012,152.964,469.178z"/>
<path style="fill:#91AAC4;" d="M102.744,426.246h23.809c19.071,0,34.533-15.454,34.533-34.517v-33.32H91.71v56.808
	C91.71,421.308,96.65,426.246,102.744,426.246z"/>
<path style="fill:#3F5666;" d="M299.86,469.178v8.275c0,1.19-0.966,2.156-2.156,2.156h-34.428c-1.19,0-2.156-0.964-2.156-2.156
	v-9.298c0-0.29,0.01-0.582,0.032-0.872c0,0-0.01,0,0-0.01c-0.324-2.155-0.054-4.428,0.884-6.583l23.617-54.194l22.323,9.719
	l-16.988,39.002C296.228,457.671,299.86,463.004,299.86,469.178z"/>
<path style="fill:#91AAC4;" d="M280.995,426.069l6.886,2.998c18.984,8.263,41.078-0.368,49.426-19.307l25.866-58.689l-63.606-27.688
	l-31.117,70.601C263.02,406.306,268.644,420.693,280.995,426.069z"/>
<g>
	<path style="fill:#3F5666;" d="M93.238,469.178v8.275c0,1.19-0.965,2.156-2.156,2.156H56.654c-1.19,0-2.156-0.964-2.156-2.156
		v-68.416h24.349v44.756C86.89,454.321,93.238,461.012,93.238,469.178z"/>
	<path style="fill:#3F5666;" d="M396.762,469.178v8.275c0,1.19-0.966,2.156-2.156,2.156h-34.428c-1.19,0-2.156-0.964-2.156-2.156
		v-68.416h24.349v44.756C390.414,454.321,396.762,461.012,396.762,469.178z"/>
</g>
<path style="fill:#E1E9F2;" d="M450.528,160.488v136.369c0,31.288-18.744,58.212-45.638,70.14v24.737
	c0,19.059-15.468,34.51-34.536,34.51h-8.322c-14.648,0-26.527-11.873-26.527-26.515v-26.16H103.004v18.166
	c0,19.059-15.468,34.51-34.536,34.51H44.657c-6.09,0-11.037-4.934-11.037-11.022V257.1c0-43.107,34.966-78.059,78.114-78.059h189.99
	c15.252,0,29.114-8.889,35.473-22.744l18.971-41.351c3.007-6.54,9.54-10.731,16.718-10.731h8.03c5.228,0,9.788,3.588,11.005,8.674
	l2.415,10.041c3.449,14.308,16.254,24.382,30.979,24.382h12.029C444.621,147.311,450.528,153.216,450.528,160.488z"/>
<g>
	<path style="fill:#B3D2F2;" d="M358.756,156.297l18.971-41.351c1.882-4.092,5.144-7.264,9.081-9.066
		c-1.731-1.057-3.752-1.665-5.89-1.665h-8.03c-7.178,0-13.711,4.191-16.718,10.731l-18.971,41.351
		c-6.359,13.855-20.221,22.744-35.473,22.744h21.558C338.534,179.042,352.396,170.153,358.756,156.297z"/>
	<path style="fill:#B3D2F2;" d="M55.177,415.221V257.1c0-43.107,34.966-78.059,78.114-78.059h-21.558
		c-43.148,0-78.114,34.952-78.114,78.059v158.121c0,6.088,4.948,11.022,11.037,11.022h21.559
		C60.126,426.244,55.177,421.309,55.177,415.221z"/>
	<path style="fill:#B3D2F2;" d="M357.064,399.728v-21.849c0-2.38-1.93-4.31-4.311-4.31h-17.246v26.16
		c0,14.644,11.874,26.515,26.522,26.515h8.327c2.424,0,4.79-0.252,7.073-0.727C365.751,422.737,357.064,412.248,357.064,399.728z"/>
	<circle style="fill:#B3D2F2;" cx="292.582" cy="297.649" r="8.084"/>
	<circle style="fill:#B3D2F2;" cx="266.376" cy="225.3" r="8.084"/>
	<circle style="fill:#B3D2F2;" cx="227.976" cy="265.226" r="8.084"/>
	<circle style="fill:#B3D2F2;" cx="118.606" cy="249.552" r="8.084"/>
	<circle style="fill:#B3D2F2;" cx="322.288" cy="246.878" r="8.084"/>
	<circle style="fill:#B3D2F2;" cx="368.577" cy="279.99" r="8.084"/>
	<circle style="fill:#B3D2F2;" cx="386.424" cy="225.3" r="8.084"/>
	<circle style="fill:#B3D2F2;" cx="186.472" cy="225.3" r="8.084"/>
	<circle style="fill:#B3D2F2;" cx="161.081" cy="284.034" r="8.084"/>
	<circle style="fill:#B3D2F2;" cx="83.456" cy="300.638" r="8.084"/>
</g>
<g>
</g>
<g>
</g>
<g>
</g>
<g>
</g>
<g>
</g>
<g>
</g>
<g>
</g>
<g>
</g>
<g>
</g>
<g>
</g>
<g>
</g>
<g>
</g>
<g>
</g>
<g>
</g>
<g>
</g>
</svg>
