<?xml version="1.0" encoding="iso-8859-1"?>
<!-- Generator: Adobe Illustrator 19.0.0, SVG Export Plug-In . SVG Version: 6.00 Build 0)  -->
<svg version="1.1" id="Layer_1" xmlns="http://www.w3.org/2000/svg" xmlns:xlink="http://www.w3.org/1999/xlink" x="0px" y="0px"
	 viewBox="0 0 512 512" style="enable-background:new 0 0 512 512;" xml:space="preserve">
<path style="fill:#FBD476;" d="M155.751,262.095c0,6.707-5.429,12.142-12.129,12.142H116.1C52.082,274.237,0,222.1,0,158.017
	c0-34.646,15.221-65.81,39.328-87.116C59.806,52.795,86.704,41.796,116.1,41.796h26.121c6.7,0,12.129,5.435,12.129,12.142
	s-5.429,12.142-12.129,12.142H116.1c-24.033,0-45.92,9.284-62.305,24.445c-18.151,16.81-29.536,40.846-29.536,67.491
	c0,50.691,41.202,91.936,91.841,91.936h27.523C150.322,249.953,155.751,255.388,155.751,262.095z"/>
<path style="fill:#3F5666;" d="M154.351,53.938c0,6.707-5.429,12.142-12.129,12.142h-26.121c-24.033,0-45.92,9.284-62.305,24.445
	L39.328,70.899C59.806,52.795,86.704,41.796,116.1,41.796h26.121C148.922,41.796,154.351,47.23,154.351,53.938z"/>
<g>
	<path style="fill:#AB8C4F;" d="M400.331,451.219l-3.058,15.515c-0.397,2.02-2.158,3.47-4.208,3.47h-45.562
		c-2.587,0-4.605-2.235-4.357-4.802l2.49-25.818l12.794-132.519l51.492-6.964L383.76,432.878c-0.108,0.516-0.129,1.031-0.043,1.536
		c0.15,1.139,0.762,2.17,1.717,2.868l13.213,9.627C399.997,447.888,400.663,449.576,400.331,451.219z"/>
	<path style="fill:#AB8C4F;" d="M261.048,470.204h-36.697c-1.578,0-3.027-0.848-3.799-2.213l-14.2-24.98l-20.382-35.854
		c-0.171-0.301-0.301-0.634-0.397-0.966L175.28,369.94l-9.799-39.334l75.464-14.236l-15.617,75.499
		c-0.161,0.752-0.118,1.526,0.129,2.256l12.751,38.809c0.021,0.075,0.053,0.15,0.086,0.226c0.375,0.988,1.105,1.794,2.028,2.288
		l18.579,9.755c1.105,0.58,1.9,1.601,2.211,2.815l4.175,16.739C265.985,467.529,263.892,470.204,261.048,470.204z"/>
</g>
<g>
	<path style="fill:#F2E5CB;" d="M261.048,470.204h-36.697c-1.578,0-3.027-0.848-3.799-2.213l-14.2-24.98l31.941-9.852
		c0.375,0.988,1.105,1.794,2.028,2.288l18.579,9.755c1.105,0.58,1.9,1.601,2.211,2.815l4.175,16.739
		C265.985,467.529,263.892,470.204,261.048,470.204z"/>
	<path style="fill:#F2E5CB;" d="M400.331,451.219l-3.058,15.515c-0.397,2.02-2.158,3.47-4.208,3.47h-45.562
		c-2.587,0-4.605-2.235-4.357-4.802l2.49-25.818l38.081-5.168c0.15,1.139,0.762,2.17,1.717,2.868l13.213,9.627
		C399.997,447.888,400.663,449.576,400.331,451.219z"/>
</g>
<path style="fill:#FBD476;" d="M510.116,135.696c1.186,0.796,1.884,2.139,1.884,3.568v19.551c0,17.514-14.186,31.704-31.669,31.704
	l-31.356,2.795c0,0,18.217,46.229,18.852,83.091c0.108,5.687-0.215,11.137-1.089,16.176c-0.797,4.683-2.08,9-3.946,12.777
	c-0.992,1.997-1.843,4.155-2.577,6.442c-1.552,4.802-2.587,10.176-3.19,15.927c-0.604,5.763-0.797,11.902-0.669,18.194
	c0.011,0.831,0.043,1.673,0.065,2.514c0.152,4.511,0.452,9.076,0.874,13.63c0.495,5.439,1.154,10.867,1.918,16.122
	c0.797,5.558,1.714,10.932,2.652,15.96c3.622,19.391,7.696,33.69,7.696,33.69c0.043,0.324,0.119,0.636,0.216,0.928
	c0.345,0.938,1.002,1.748,1.876,2.277l20.975,12.378c1.314,0.798,2.135,2.224,2.135,3.755l-2.802,18.647
	c0,2.417-1.973,4.381-4.386,4.381h-46.07c-2.027,0-3.794-1.392-4.258-3.367l-6.414-26.805c0,0-13.711-53.265-24.436-101.706
	c-0.087-0.389-0.227-0.755-0.399-1.09c-0.852-1.619-2.652-2.558-4.538-2.234c-72.974,12.766-114.85-5.222-114.85-5.222
	s-80.616,9.907-83.504,11.266c-0.032,0.022-0.054,0.032-0.054,0.032l-25.578,33.604c-10.628,13.964-27.163,22.165-44.701,22.165
	h-24.716c-2.417,0-4.376,1.961-4.376,4.381v35.039c0,0.464,0.075,0.906,0.216,1.327c0.27,0.863,0.797,1.629,1.531,2.169
	l10.132,7.608c0.809,0.604,1.379,1.468,1.616,2.439l3.741,14.945c0.69,2.773-1.401,5.449-4.236,5.449H80.713
	c-2.411,0-4.366-1.957-4.366-4.371v-93.586c0-1.695,0.979-3.236,2.511-3.955l29.966-14.061c1.531-0.723,2.522-2.266,2.522-3.96
	v-59.632c0-30.064,18.82-56.167,45.896-66.311c5.045-1.9,10.38-3.237,15.932-3.938l0.259-0.032l28.209-3.583l16.092-2.04
	l24.188-3.065l16.029-2.04l24.899-3.162l16.126-2.05l12.374-1.564c3.082-0.389,6.09-1.025,9.001-1.91
	c0.065-0.01,0.13-0.032,0.194-0.054c0.022-0.01,0.043-0.01,0.065-0.022c5.12-1.564,9.938-3.863,14.336-6.777
	c4.183-2.784,7.965-6.119,11.254-9.939c3.536-4.079,6.489-8.708,8.721-13.77c0.41-0.917,0.797-1.845,1.154-2.795l9.506-14.515
	l8.861-13.543l22.992-35.125l20.847-1.619l30.365-2.364c12.773-0.993,25.126,4.91,32.348,15.496c2.64,3.874,4.344,6.745,4.344,6.745
	C487.355,122.665,504.298,131.789,510.116,135.696z"/>
<g>
	<path style="fill:#CCA75E;" d="M456.429,466.842l-6.419-26.807c0,0-13.712-53.272-24.431-101.712
		c-0.497-2.249-2.671-3.714-4.937-3.318c-5.041,0.882-9.927,1.612-14.667,2.216c0.184,0.343,0.34,0.704,0.427,1.101
		c10.719,48.44,24.431,101.712,24.431,101.712l6.419,26.807c0.462,1.966,2.232,3.362,4.251,3.362h19.177
		C458.661,470.204,456.89,468.807,456.429,466.842z"/>
	<path style="fill:#CCA75E;" d="M95.519,465.831V362.84c0-1.073,0.393-2.086,1.068-2.867l-17.733,8.323
		c-1.535,0.72-2.512,2.267-2.512,3.964v93.572c0,2.415,1.956,4.373,4.369,4.373h19.177
		C97.474,470.204,95.519,468.246,95.519,465.831z"/>
	<path style="fill:#CCA75E;" d="M191.204,218.104l-18.028,2.287c-35.333,4.481-61.833,34.586-61.833,70.245v59.63
		c0,1.072-0.395,2.082-1.072,2.864l17.733-8.323c1.535-0.72,2.515-2.264,2.515-3.961v-50.211c0-34.602,24.955-63.964,58.717-69.769
		c1.289-0.222,2.098-1.436,1.97-2.74L191.204,218.104z"/>
	<path style="fill:#CCA75E;" d="M416.795,102.903l-41.537,64.685c-4.247,11.212-11.921,20.513-21.634,26.805
		c-6.92,4.489-15.101,6.658-23.347,6.496c-3.244-0.054-6.489-0.054-9.733,0c0.022-0.01,0.043-0.01,0.065-0.022
		c16.147-4.953,29.351-17.136,35.463-33.28l41.359-63.182L416.795,102.903z"/>
</g>
<g>
	<path style="fill:#F2E5CB;" d="M512,155.254v3.561c0,17.514-14.186,31.704-31.669,31.704l-31.356,2.795
		c0,0,30.666,77.837,13.819,112.044c-5.422,10.996-6.91,26.632-6.371,43.078c-20.663-18.658-49.486-11.104-50.424-11.201
		c-0.852-1.619-2.652-2.558-4.538-2.234c-72.974,12.766-114.85-5.222-114.85-5.222s-80.616,9.907-83.504,11.266
		c2.166-1.565,68.78-49.24,95.652-37.208c27.303,12.237,61.073,8.633,109.083-1.436c47.998-10.069,26.01-83.448,16.524-109.346
		c-9.486-25.899,22.42-28.057,64.814-30.722C499.54,161.685,506.858,158.977,512,155.254z"/>
	<path style="fill:#F2E5CB;" d="M116.677,470.204H80.711c-2.415,0-4.369-1.966-4.369-4.383v-24.722l27.552-3.503
		c0.269,0.86,0.805,1.623,1.535,2.17l10.132,7.607c0.805,0.602,1.384,1.462,1.621,2.439l3.736,14.945
		C121.604,467.529,119.522,470.204,116.677,470.204z"/>
	<path style="fill:#F2E5CB;" d="M494.76,447.18l-2.801,18.641c0,2.418-1.964,4.383-4.379,4.383h-46.077
		c-2.018,0-3.789-1.397-4.251-3.362l-6.419-26.807l38.951-11.27c0.344,0.946,0.998,1.751,1.867,2.278l20.983,12.378
		C493.944,444.214,494.76,445.643,494.76,447.18z"/>
</g>
<ellipse style="fill:#2C3D47;" cx="463.464" cy="130.696" rx="8.084" ry="8.094"/>
<g>
	<path style="fill:#3F5666;" d="M217.81,215.749v58.488c0,4.468-3.622,8.094-8.084,8.094s-8.084-3.626-8.084-8.094v-57.463
		l16.092-2.04C217.789,215.069,217.81,215.404,217.81,215.749z"/>
	<path style="fill:#3F5666;" d="M256.83,277.518c-0.28,0.022-0.56,0.043-0.841,0.043c-4.096,0-7.6-3.097-8.03-7.262l-6.036-58.628
		l16.029-2.04c0.022,0.065,0.022,0.13,0.032,0.194l6.057,58.812C264.504,273.082,261.271,277.054,256.83,277.518z"/>
	<path style="fill:#3F5666;" d="M309.917,273.752c-0.732,0.205-1.466,0.302-2.178,0.302c-3.546,0-6.791-2.352-7.782-5.925
		l-16.869-60.495c-0.108-0.389-0.183-0.777-0.237-1.165l16.126-2.05l16.546,59.362C316.728,268.086,314.218,272.543,309.917,273.752
		z"/>
	<path style="fill:#3F5666;" d="M354.347,259.01c-1.056,0.453-2.145,0.669-3.222,0.669c-3.115,0-6.09-1.823-7.416-4.867
		l-23.229-53.546c-0.043-0.108-0.087-0.216-0.13-0.324c0.065-0.01,0.13-0.032,0.194-0.054c0.022-0.01,0.043-0.01,0.065-0.022
		c5.12-1.564,9.938-3.863,14.336-6.777c0.14,0.237,0.259,0.486,0.367,0.734l23.228,53.534
		C360.318,252.461,358.443,257.23,354.347,259.01z"/>
	<path style="fill:#3F5666;" d="M394.262,226.216c-1.541,1.359-3.449,2.04-5.357,2.04c-2.231,0-4.452-0.928-6.058-2.73
		l-36.649-41.374c3.536-4.079,6.489-8.708,8.721-13.77c0.83,0.432,1.596,1.025,2.253,1.77l37.78,42.636
		C397.904,218.134,397.604,223.249,394.262,226.216z"/>
	<path style="fill:#3F5666;" d="M422.685,183.883c-1.585,2.212-4.075,3.399-6.596,3.399c-1.616,0-3.255-0.496-4.678-1.511
		l-45.832-32.697l8.861-13.543c0.087,0.054,0.172,0.108,0.259,0.172l46.09,32.891C424.421,175.186,425.272,180.246,422.685,183.883z
		"/>
	<path style="fill:#3F5666;" d="M173.552,222.246l-2.436,44.157c-0.237,4.306-3.804,7.64-8.062,7.64c-0.152,0-0.302,0-0.452-0.01
		c-4.452-0.249-7.869-4.057-7.62-8.525l2.263-41.179c5.045-1.9,10.38-3.237,15.932-3.938l0.259-0.032
		C173.552,220.972,173.585,221.598,173.552,222.246z"/>
	<path style="fill:#3F5666;" d="M467.828,276.406c0.108,5.687-0.215,11.137-1.089,16.176l-38.255-0.648
		c-4.463-0.075-8.02-3.755-7.955-8.223c0.075-4.467,3.804-8.007,8.224-7.964l39.052,0.658
		C467.818,276.406,467.818,276.406,467.828,276.406z"/>
	<path style="fill:#3F5666;" d="M460.218,311.801c-1.552,4.802-2.587,10.176-3.19,15.927h-30.428c-4.463,0-8.084-3.626-8.084-8.094
		s3.622-8.094,8.084-8.094h31.636C458.924,311.542,459.582,311.628,460.218,311.801z"/>
	<path style="fill:#3F5666;" d="M457.296,362.067l-20.792,1.932c-0.259,0.022-0.507,0.032-0.754,0.032
		c-4.128,0-7.653-3.151-8.042-7.349c-0.41-4.446,2.857-8.396,7.308-8.805l20.922-1.932c0.14-0.01,0.28-0.022,0.42-0.022
		c0.011,0.831,0.043,1.673,0.065,2.514C456.574,352.948,456.876,357.512,457.296,362.067z"/>
	<path style="fill:#3F5666;" d="M444.048,396.783c-3.928,0-7.373-2.87-7.982-6.876c-0.672-4.419,2.362-8.546,6.777-9.219
		l16.399-2.498c4.397-0.673,8.535,2.364,9.209,6.783c0.672,4.419-2.362,8.546-6.777,9.219l-16.399,2.498
		C444.863,396.753,444.454,396.783,444.048,396.783z"/>
</g>
<path style="fill:#FBD476;" d="M392.685,88.019l16.661,8.091c10.712,5.201,14.822,21.313,9.472,37.135l-2.019,5.969
	c-1.773,5.242-7.194,7.35-10.302,4.004l-21.168-13.843C370.936,114.883,381.645,84.365,392.685,88.019z"/>
<path style="fill:#F2E5CB;" d="M395.094,97.71l10.883,5.284c6.997,3.398,9.681,13.92,6.187,24.254l-1.319,3.9
	c-1.158,3.424-4.699,4.8-6.729,2.615l-13.826-9.041C380.887,115.257,387.883,95.324,395.094,97.71z"/>
<g>
</g>
<g>
</g>
<g>
</g>
<g>
</g>
<g>
</g>
<g>
</g>
<g>
</g>
<g>
</g>
<g>
</g>
<g>
</g>
<g>
</g>
<g>
</g>
<g>
</g>
<g>
</g>
<g>
</g>
</svg>
