<?xml version="1.0" encoding="iso-8859-1"?>
<!-- Generator: Adobe Illustrator 19.0.0, SVG Export Plug-In . SVG Version: 6.00 Build 0)  -->
<svg version="1.1" id="Layer_1" xmlns="http://www.w3.org/2000/svg" xmlns:xlink="http://www.w3.org/1999/xlink" x="0px" y="0px"
	 viewBox="0 0 512 512" style="enable-background:new 0 0 512 512;" xml:space="preserve">
<path style="fill:#FBB071;" d="M144.167,494.874c-42.67,0-77.386-34.676-77.386-77.3V244.746c0-7.17,5.819-12.982,12.996-12.982
	c7.178,0,12.996,5.812,12.996,12.982v172.827c0,28.306,23.054,51.336,51.392,51.336s51.392-23.029,51.392-51.336v-28.177
	c0-7.17,5.819-12.982,12.996-12.982c7.178,0,12.996,5.812,12.996,12.982v28.177C221.553,460.197,186.838,494.874,144.167,494.874z"
	/>
<path style="fill:#FBD476;" d="M445.219,4.321v503.359c0,2.387-1.935,4.321-4.325,4.321H294.158c-2.39,0-4.325-1.934-4.325-4.321
	V4.321c0-2.387,1.935-4.321,4.325-4.321h146.736C443.283,0,445.219,1.934,445.219,4.321z"/>
<g>
	<path style="fill:#CCA75E;" d="M311.456,507.679V4.321c0-2.387,1.936-4.321,4.325-4.321h-21.625c-2.389,0-4.325,1.934-4.325,4.321
		v503.359c0,2.386,1.936,4.321,4.325,4.321h21.625C313.392,512,311.456,510.066,311.456,507.679z"/>
	<rect x="390.448" style="fill:#CCA75E;" width="21.625" height="511.997"/>
</g>
<ellipse style="fill:#B06750;" cx="186.96" cy="89.957" rx="24.449" ry="24.423"/>
<g>
	<ellipse style="fill:#C97E67;" cx="311.583" cy="89.957" rx="24.449" ry="24.423"/>
	<path style="fill:#C97E67;" d="M310.694,439.927h-71.037c-45.996,0-83.629-37.633-83.629-83.629v-38.819
		c0-62.193,50.885-113.077,113.077-113.077h0.083c28.528,0,51.869,23.341,51.869,51.869v173.294
		C321.056,435.263,316.392,439.927,310.694,439.927z"/>
</g>
<g>
	<path style="fill:#B06750;" d="M271.138,280.953v6.471c0,8.357,6.782,15.132,15.147,15.132h6.695c2.389,0,4.325,1.934,4.325,4.321
		v42.781c0,2.387-1.936,4.321-4.325,4.321l0,0c-8.365,0-15.147,6.775-15.147,15.132v6.471h43.223v-94.629L271.138,280.953
		L271.138,280.953z"/>
	<path style="fill:#B06750;" d="M177.585,356.338v-38.916c0-57.81,44.033-105.836,100.247-112.278
		c-2.823-0.48-5.717-0.743-8.672-0.743l0,0c-62.223,0-113.134,50.86-113.134,113.021v38.916c0,45.973,37.652,83.587,83.671,83.587
		h21.558C215.237,439.927,177.585,402.312,177.585,356.338z"/>
</g>
<ellipse style="fill:#FBB071;" cx="250.406" cy="142.593" rx="77.14" ry="77.057"/>
<path style="fill:#CC894F;" d="M194.885,142.595c0-38.89,28.847-71.033,66.329-76.287c-3.535-0.496-7.141-0.769-10.813-0.769
	c-42.604,0-77.141,34.499-77.141,77.057s34.537,77.057,77.141,77.057c3.671,0,7.278-0.274,10.813-0.769
	C223.732,213.629,194.885,181.485,194.885,142.595z"/>
<g>
	<ellipse style="fill:#FBE5B0;" cx="216.493" cy="130.937" rx="23.009" ry="22.987"/>
	<ellipse style="fill:#FBE5B0;" cx="283.158" cy="130.937" rx="23.009" ry="22.987"/>
</g>
<g>
	<ellipse style="fill:#B06750;" cx="216.566" cy="131.125" rx="8.109" ry="8.101"/>
	<ellipse style="fill:#B06750;" cx="283.158" cy="131.125" rx="8.109" ry="8.101"/>
</g>
<path style="fill:#FBB071;" d="M278.583,244.1h85.956c10.187,0,18.445,8.25,18.445,18.426l0,0c0,10.177-8.259,18.426-18.445,18.426
	h-94.602c-5.971,0-10.813-4.836-10.813-10.802v-6.614C259.126,252.803,267.838,244.1,278.583,244.1z"/>
<path style="fill:#C97E67;" d="M275.831,375.582h66.608c27.482,0,49.759,22.253,49.759,49.705l0,0c0,8.085-6.562,14.64-14.656,14.64
	H275.831L275.831,375.582L275.831,375.582z"/>
<g>
	<path style="fill:#FFE7AD;" d="M412.076,154.757c-4.479,0-8.109-3.628-8.109-8.101V28.072c0-4.474,3.631-8.101,8.109-8.101
		c4.478,0,8.109,3.628,8.109,8.101v118.584C420.185,151.13,416.555,154.757,412.076,154.757z"/>
	<path style="fill:#FFE7AD;" d="M412.076,416.013c-4.479,0-8.109-3.628-8.109-8.101V207.714c0-4.474,3.631-8.101,8.109-8.101
		c4.478,0,8.109,3.628,8.109,8.101v200.197C420.185,412.386,416.555,416.013,412.076,416.013z"/>
</g>
<g>
</g>
<g>
</g>
<g>
</g>
<g>
</g>
<g>
</g>
<g>
</g>
<g>
</g>
<g>
</g>
<g>
</g>
<g>
</g>
<g>
</g>
<g>
</g>
<g>
</g>
<g>
</g>
<g>
</g>
</svg>
