<?xml version="1.0" encoding="iso-8859-1"?>
<!-- Generator: Adobe Illustrator 19.0.0, SVG Export Plug-In . SVG Version: 6.00 Build 0)  -->
<svg version="1.1" id="Layer_1" xmlns="http://www.w3.org/2000/svg" xmlns:xlink="http://www.w3.org/1999/xlink" x="0px" y="0px"
	 viewBox="0 0 512 512" style="enable-background:new 0 0 512 512;" xml:space="preserve">
<path style="fill:#FBB071;" d="M128.192,329.857H56.267C25.191,329.857,0,355.017,0,386.054v9.403c0,2.041,1.656,3.695,3.699,3.695
	h124.493V329.857z"/>
<path style="fill:#CC894F;" d="M21.558,395.458v-9.404c0-31.037,25.191-56.197,56.267-56.197H56.267
	C25.191,329.857,0,355.017,0,386.054v9.404c0,2.04,1.656,3.694,3.699,3.694h21.558C23.213,399.152,21.558,397.497,21.558,395.458z"
	/>
<path style="fill:#FBB071;" d="M512,143.105c0,4.495-4.008,11.969-7.77,17.989c-3.688,5.904-10.183,9.469-17.151,9.459
	c-7.278-0.009-16.386-0.019-21.029-0.019c-1.535,0-2.922,0.619-3.93,1.616c-0.999,1.006-1.619,2.392-1.619,3.925v89.815
	c0,46.436-37.699,84.081-84.203,84.081H188.02c-2.043,0-3.699,1.654-3.699,3.694v14.704c0,2.041,1.656,3.694,3.7,3.694h15.414
	c5.04,0,9.608,2.014,12.946,5.292c3.43,3.344,5.548,8.007,5.548,13.179v4.311c0,2.378-1.93,4.305-4.311,4.305H111.547
	c-2.043,0-3.699-1.654-3.699-3.694v-65.601c0-65.434,53.115-118.482,118.63-118.482h117.643c19.238,0,34.832-15.572,34.832-34.782
	v-3.26c0-33.405,27.112-60.484,60.55-60.484h3.245c7.379,0,14.129,4.119,17.504,10.667l4.254,8.266
	C471.026,131.782,512,136.603,512,143.105z"/>
<g>
	<path style="fill:#CC894F;" d="M487.61,170.535c-0.011,0-0.022,0.003-0.032,0.003c0.036-0.001,0.071-0.002,0.107-0.003
		C487.66,170.535,487.633,170.535,487.61,170.535z"/>
	<path style="fill:#CC894F;" d="M400.511,176.594v-3.26c0-29.402,21.008-53.894,48.842-59.343c-2.087-0.743-4.315-1.141-6.605-1.141
		h-3.245c-33.438,0-60.55,27.079-60.55,60.484v3.26c0,19.209-15.591,34.782-34.824,34.782h21.558
		C384.921,211.375,400.511,195.803,400.511,176.594z"/>
	<path style="fill:#CC894F;" d="M129.406,395.458v-65.601c0-65.434,53.115-118.482,118.63-118.482h-21.558
		c-65.515,0-118.63,53.048-118.63,118.482v65.601c0,2.041,1.655,3.694,3.699,3.694h21.558
		C131.062,399.152,129.406,397.499,129.406,395.458z"/>
</g>
<path style="fill:#628FA3;" d="M460.503,194.279v71.612c0,46.436-37.69,84.081-84.185,84.081H216.613
	c2.311-23.458,22.137-41.791,46.236-41.791h110.437c29.711,0,53.8-24.059,53.8-53.733v-20.318
	C427.084,214.2,441.51,197.631,460.503,194.279z"/>
<ellipse style="fill:#2F3F4A;" cx="435.587" cy="141.124" rx="8.084" ry="8.073"/>
<path style="fill:#FBB071;" d="M409.028,252.614v116.679h10.939c10.214,0,18.494,8.269,18.494,18.471v7.694
	c0,2.041-1.656,3.694-3.699,3.694h-71.969c-2.043,0-3.699-1.654-3.699-3.694v-98.204L409.028,252.614z"/>
<path style="fill:#CC894F;" d="M380.652,395.458v-89.196c0-10.928-13.454-13.509-18.479-10.796l0,0
	c-1.942,1.513-3.078,3.837-3.078,6.297v93.695c0,2.041,1.656,3.694,3.7,3.694h21.557
	C382.308,399.152,380.652,397.497,380.652,395.458z"/>
<g>
</g>
<g>
</g>
<g>
</g>
<g>
</g>
<g>
</g>
<g>
</g>
<g>
</g>
<g>
</g>
<g>
</g>
<g>
</g>
<g>
</g>
<g>
</g>
<g>
</g>
<g>
</g>
<g>
</g>
</svg>
