<?xml version="1.0" encoding="iso-8859-1"?>
<!-- Generator: Adobe Illustrator 19.0.0, SVG Export Plug-In . SVG Version: 6.00 Build 0)  -->
<svg version="1.1" id="Layer_1" xmlns="http://www.w3.org/2000/svg" xmlns:xlink="http://www.w3.org/1999/xlink" x="0px" y="0px"
	 viewBox="0 0 512 512" style="enable-background:new 0 0 512 512;" xml:space="preserve">
<g>
	<path style="fill:#E1E9F2;" d="M511.999,147.76c0.055-4.266-4.094-9.988-9.736-16.264c0.001,0,0.002,0,0.003,0
		c-0.19-0.211-0.39-0.426-0.583-0.638c-0.292-0.32-0.582-0.641-0.88-0.963c-0.183-0.197-0.369-0.396-0.553-0.595
		c-0.371-0.398-0.744-0.797-1.123-1.199c-0.13-0.137-0.26-0.275-0.391-0.413c-0.47-0.495-0.945-0.993-1.424-1.492
		c-0.039-0.04-0.076-0.079-0.115-0.119c-3.115-3.238-6.404-6.548-9.549-9.825c-0.294-0.305-0.587-0.61-0.877-0.915
		c-0.205-0.215-0.406-0.428-0.609-0.644c-0.37-0.391-0.738-0.781-1.1-1.169c-0.163-0.176-0.325-0.349-0.487-0.525
		c-0.397-0.428-0.791-0.856-1.179-1.281c-0.132-0.144-0.262-0.288-0.393-0.434c-0.422-0.466-0.836-0.931-1.243-1.393
		c-0.092-0.104-0.185-0.209-0.276-0.313c-0.462-0.528-0.914-1.053-1.354-1.575c-0.031-0.038-0.065-0.075-0.096-0.113
		c-1.469-1.747-2.801-3.453-3.939-5.098c0,0.001-0.001,0.002-0.001,0.002c-0.638-0.923-1.221-1.829-1.728-2.709
		c-0.371-0.653-0.539-1.407-0.506-2.161c0.18-3.884,1.393-13.666,2.349-20.961c0.293-2.195,0.551-4.165,0.753-5.673
		c0.27-1.981-0.427-3.962-1.888-5.335c-6.641-6.259-26.296-23.707-41.59-26.139c-35.353-5.662-68.604,18.473-74.257,53.886
		c-0.371,2.342-0.619,4.683-0.73,7.002c-0.067,1.238-0.315,2.443-0.797,3.58c-5.507,13.025-42.387,95.064-108.811,126.651
		c-142.939,67.947-114.633,240.851,29.431,165.419c144.075-75.421,144.446-227.377,147.67-227.512c0,0,0.078,0.033,0.236,0.079
		c19.001,5.954,33.968,8.295,45.7,8.24v0.001c0.066,0,0.129-0.004,0.193-0.005C503.98,176.918,511.864,158.916,511.999,147.76z"/>
	<path style="fill:#E1E9F2;" d="M194.262,408.622h-2.364C86.085,408.622,0,322.387,0,216.39V38.995
		c0-18.65,15.094-33.77,33.713-33.77s33.713,15.12,33.713,33.77v177.394c0,68.754,55.839,124.691,124.475,124.691h2.364
		c18.618,0,33.713,15.12,33.713,33.77C227.975,393.501,212.881,408.622,194.262,408.622z"/>
</g>
<path style="fill:#B3D2F2;" d="M21.558,216.39V38.996c0-14.873,9.603-27.491,22.933-31.997c-3.387-1.144-7.008-1.774-10.779-1.774
	C15.094,5.225,0,20.344,0,38.996V216.39c0,105.998,86.085,192.232,191.899,192.232h2.364c1.932,0,3.822-0.171,5.665-0.484
	C100.404,401.16,21.558,317.83,21.558,216.39z"/>
<path style="fill:#E1E9F2;" d="M366.888,260.252l74.196,177.11c0.231,0.552,0.35,1.144,0.35,1.743v19.598
	c0,1.015,0.342,1.999,0.971,2.795l5.407,6.842c1.77,2.24,1.038,5.544-1.514,6.822l-18.387,9.21
	c-1.522,0.763-2.485,2.322-2.485,4.027v7.198c0,2.487,2.012,4.502,4.495,4.502h38.518c2.483,0,4.495-2.016,4.495-4.502v-75.362
	c0-0.437-0.064-0.871-0.188-1.29l-65.909-220.766L366.888,260.252z"/>
<path style="fill:#B3D2F2;" d="M448.421,495.596v-7.2c0-1.704,16.008-28.36,16.008-28.36c0-0.599-0.119-22.123-0.35-22.674
	l-75.288-178.535c-3.525-8.36-14.967-9.352-19.877-1.723l0,0c-1.268,1.971-1.485,4.441-0.58,6.603l72.749,173.655
	c0.231,0.552,0.35,1.145,0.35,1.744v19.598c0,1.015,0.342,1.999,0.971,2.794l5.407,6.842c1.771,2.241,1.037,5.544-1.516,6.823
	l-18.383,9.208c-1.525,0.764-2.487,2.323-2.487,4.028v7.198c0,2.487,2.015,4.502,4.499,4.502h22.99
	C450.434,500.099,448.421,498.083,448.421,495.596z"/>
<path style="fill:#628FA3;" d="M476.957,71.289c-0.194,1.51-0.452,3.484-0.754,5.674c-0.183,1.402-0.377,2.88-0.56,4.4
	c-15.273,0.087-28.662-1.143-28.662-1.143s-28.522-24.15-44.732-1.38c-1.929,2.718-3.697,6.116-5.217,10.311
	c-0.992,2.74-1.94,5.533-2.878,8.392c-12.525,38.053-22.301,86.084-77.263,130.156c-59.09,47.361-151.605,63.897-144.157,160.604
	c0.355,4.584,0.744,8.888,1.164,12.922c-39.16-34.569-19.51-125.367,74.989-170.29c66.43-31.582,103.306-113.62,108.814-126.65
	c0.485-1.133,0.732-2.341,0.797-3.581c0.108-2.319,0.355-4.659,0.732-7c0.97-6.104,2.77-11.875,5.25-17.215
	c-1.79-6.59-2.814-14.68-2.404-24.69c1.434-35.702,36.023-21.874,49.292-13.482c0.668,0.421,1.261,0.917,1.778,1.467
	c6.564-1.046,13.409-1.078,20.34,0.032c15.295,2.438,34.946,19.878,41.585,26.145C476.537,67.331,477.227,69.316,476.957,71.289z"/>
<path style="fill:#3F5666;" d="M512,147.762c-0.14,11.131-7.977,29.09-39.699,29.392c-0.118,0.01-0.248,0.01-0.377,0.01
	c0.075-7.777-0.592-17.3-2.9-28.476c-5.788-27.947-31.054-17.926-37.371-39.984c-1.034-3.635-1.563-8.132-1.401-13.817
	c1.121-40.21,45.95-17.926,45.95-17.926c-0.949,7.302-2.166,17.085-2.339,20.968c-0.043,0.755,0.13,1.499,0.507,2.158
	c0.507,0.885,1.089,1.79,1.724,2.707c6.101,8.823,17.785,19.383,26.172,28.701C507.903,137.774,512.053,143.501,512,147.762z"/>
<ellipse style="fill:#30454F;" cx="455.408" cy="95.786" rx="8.432" ry="8.432"/>
<path style="fill:#628FA3;" d="M269.915,506.776h83.768c6.844,0,12.391-5.558,12.391-12.413l0,0
	c0-15.944-12.902-28.868-28.819-28.868h-50.349l66.9-132.009c3.24-6.394,4.929-13.464,4.929-20.635l0,0
	c0-17.644-15.441-31.295-32.918-29.099l-85.952,10.795c-159.558,16.121-74.808,184.478,10.19,126.106
	c23.596-16.204,28.5-29.995,28.5-29.995L243.532,470.9C238.015,488.708,251.301,506.776,269.915,506.776z"/>
<g>
	<path style="fill:#476775;" d="M265.092,479.084l24.941-60.648c3.791-9.219-1.25-19.67-10.808-22.482
		c-0.071-0.021-0.141-0.042-0.211-0.063c-1.391-0.412-2.865,0.278-3.446,1.608l-32.033,73.4
		c-5.479,17.68,7.581,35.606,25.985,35.863C264.354,499.248,262.281,489.132,265.092,479.084z"/>
	<path style="fill:#476775;" d="M206.148,301.146c-95.169,29.674-53.64,133.49,8.852,131.729
		C170.799,414.28,148.598,337.247,206.148,301.146z"/>
</g>
<g>
	<path style="fill:#628FA3;" d="M140.341,329.873c-0.15,0.302-0.324,0.594-0.507,0.885l-35.366,56.723
		c-9.636-4.951-18.799-10.71-27.4-17.16l35.333-56.692c0.183-0.302,0.377-0.594,0.592-0.874
		C121.284,319.584,130.468,325.366,140.341,329.873z"/>
	<path style="fill:#628FA3;" d="M83.838,278.23c-0.312,0.151-0.636,0.302-0.959,0.432l-43.773,18.001l-17.98,7.388
		c-4.893-9.546-9.022-19.545-12.288-29.931l19.251-7.917l42.491-17.474c0.334-0.14,0.657-0.259,0.992-0.367
		C74.375,258.934,78.525,268.954,83.838,278.23z"/>
	<rect y="162.973" style="fill:#628FA3;" width="67.427" height="32.358"/>
	<rect y="64.042" style="fill:#628FA3;" width="67.427" height="32.358"/>
</g>
<g>
	<path style="fill:#476775;" d="M39.106,296.663l-17.98,7.388c-4.893-9.546-9.022-19.545-12.288-29.931l19.251-7.917
		C30.914,276.741,34.611,286.924,39.106,296.663z"/>
	<rect y="162.973" style="fill:#476775;" width="21.558" height="32.358"/>
	<rect y="64.042" style="fill:#476775;" width="21.558" height="32.358"/>
</g>
<path style="fill:#3F5666;" d="M375.916,38.995c0,0-9.97,8.295-0.809,30.811c0,0,7.41-16.718,25.735-24.943
	C400.842,44.863,385.616,33.332,375.916,38.995z"/>
<g>
</g>
<g>
</g>
<g>
</g>
<g>
</g>
<g>
</g>
<g>
</g>
<g>
</g>
<g>
</g>
<g>
</g>
<g>
</g>
<g>
</g>
<g>
</g>
<g>
</g>
<g>
</g>
<g>
</g>
</svg>
