<?xml version="1.0" encoding="iso-8859-1"?>
<!-- Generator: Adobe Illustrator 19.0.0, SVG Export Plug-In . SVG Version: 6.00 Build 0)  -->
<svg version="1.1" id="Layer_1" xmlns="http://www.w3.org/2000/svg" xmlns:xlink="http://www.w3.org/1999/xlink" x="0px" y="0px"
	 viewBox="0 0 511.999 511.999" style="enable-background:new 0 0 511.999 511.999;" xml:space="preserve">
<path style="fill:#3F5666;" d="M102.881,241.255H84.732c-26.758,0-50.574,16.952-59.323,42.226L0.248,356.098
	c-1.225,3.535,2.305,6.862,5.761,5.42c11.89-4.96,32.179-15.138,37.152-28.481l17.893-47.993c0.62-1.662,2.195-2.775,3.971-2.803
	l23.092-0.375L102.881,241.255z"/>
<path style="fill:#91AAC4;" d="M339.508,464.236l-2.88,15.113c-0.34,1.799-1.807,3.093-3.506,3.093h-33.937
	c-2.334,0-4.159-2.188-3.935-4.717l1.896-23.848l11.922-150.077l44.84-21.513l-31.125,165.453c-0.09,0.476-0.098,0.953-0.018,1.42
	c0.17,1.138,0.805,2.149,1.762,2.743l13.237,8.15C339.114,460.891,339.821,462.573,339.508,464.236z"/>
<path style="fill:#3F5666;" d="M339.508,464.236l-2.88,15.113c-0.34,1.799-1.807,3.093-3.506,3.093h-33.937
	c-2.334,0-4.159-2.188-3.935-4.717l1.896-23.848l25.619-4.717c0.17,1.138,0.805,2.149,1.762,2.743l13.237,8.15
	C339.114,460.891,339.821,462.573,339.508,464.236z"/>
<path style="fill:#91AAC4;" d="M203.014,322.378l-41.292,68.144c-0.716,1.182-1.955,1.948-3.332,2.062l-21.322,1.764v52.645
	c0,1.348,0.698,2.6,1.845,3.309l15.786,9.756c0.937,0.579,1.585,1.529,1.783,2.612l3.108,17.054c0.435,2.388-1.4,4.586-3.83,4.586
	h-38.285c-2.149,0-3.892-1.741-3.892-3.889V373.412l12.075-65.623L203.014,322.378z"/>
<g>
	<path style="fill:#3F5666;" d="M155.763,484.31h-38.29c-2.15,0-3.892-1.741-3.892-3.89v-26.804l24.337-4.202
		c0.273,0.35,0.603,0.642,0.993,0.885l15.793,9.755c0.934,0.583,1.586,1.537,1.781,2.616l3.104,17.05
		C160.025,482.111,158.186,484.31,155.763,484.31z"/>
	<path style="fill:#3F5666;" d="M432.018,38.874h-31.731c-21.198,0-40.463,12.315-49.353,31.55L281.91,219.771h50.458l57.96-136.16
		h17.535c12.859,0,23.789-9.388,25.723-22.094l2.693-17.686C436.677,41.223,434.657,38.874,432.018,38.874z"/>
</g>
<path style="fill:#E1E9F2;" d="M511.999,92.154v23.176c0,15.304-13.226,27.537-28.435,25.793
	c-28.877-3.296-56.223,14.636-56.223,14.636s-0.42,5.664-1.067,14.764c-0.334,4.599-0.722,10.07-1.143,16.144
	c-0.452,6.484-0.949,13.644-1.454,21.129c-0.345,5.266-0.701,10.693-1.046,16.165c-0.432,6.677-0.852,13.408-1.239,19.977
	c-0.334,5.546-0.647,10.963-0.927,16.132c-0.075,1.475-0.151,2.94-0.227,4.372c-0.323,6.332-1.239,12.611-2.802,18.75
	c-0.657,2.606-1.434,5.191-2.328,7.732c-0.894,2.553-1.768,5.256-2.608,8.077c-1.466,4.889-2.845,10.167-4.139,15.691
	c-1.207,5.126-2.34,10.478-3.406,15.96c-1.121,5.697-2.166,11.545-3.137,17.425c-0.884,5.342-1.714,10.715-2.48,16.047
	c-0.636,4.416-1.239,8.81-1.8,13.118c-0.722,5.514-1.379,10.909-1.983,16.079c-3.277,28.41-4.765,50.293-4.765,50.293
	c0.054,0.473,0.205,0.926,0.41,1.335c0.27,0.506,0.636,0.948,1.089,1.293l20.2,15.379c1.218,0.937,1.778,2.498,1.412,3.996
	l-3.309,13.839c-0.42,1.755-1.983,2.994-3.794,2.994h-36.272c-1.983,0-3.729-1.368-4.183-3.306l-5.454-26.395l-1.563-105.615
	c-0.452-1.885-77.414,6.86-103.984-20.44c-36.552-5.601-73.803,3.866-89.412,8.777c-4.775,1.508-7.523,2.584-7.62,2.681
	l-5.917,5.492c0,0.011,0,0.011,0,0.011l-13.7,12.708l-11.856,11.006l-10.24,9.498l-11.846,10.995l-3.266,3.038
	c-0.797,0.732-1.843,1.142-2.932,1.142H79.796c-2.382,0-4.311,1.938-4.311,4.308v52.737c0,0.7,0.172,1.378,0.495,1.981
	c0.28,0.57,0.701,1.077,1.229,1.465l9.97,7.474c0.787,0.592,1.369,1.454,1.596,2.391l3.676,14.711
	c0.679,2.714-1.369,5.341-4.171,5.341H52.881c-2.372,0-4.301-1.928-4.301-4.308V367.872c0-1.669,0.959-3.188,2.468-3.898
	l12.288-13.817c1.498-0.711,2.468-2.23,2.468-3.888v-58.607c0-35.054,26.074-64.627,60.858-69.042l1.66-0.15l16.212-1.465
	l14.153-1.271l16.384-1.475l19.736-1.777l16.254-1.465l15.985-1.443l16.104-1.453l17.138-1.54l16.114-1.453l15.188-1.368
	l16.234-1.465l15.112-1.356l64.512-139.204h36.314c7.448,0,14.584,2.983,19.833,8.249l6.069,6.117
	c5.25,5.277,12.385,8.239,19.823,8.239h34.686C508.496,84.337,511.999,87.836,511.999,92.154z"/>
<g>
	<path style="fill:#B3D2F2;" d="M70.581,478.144v-110.27c0-1.673,0.963-3.19,2.471-3.901l12.28-13.82
		c1.508-0.709,2.471-2.228,2.471-3.89v-58.607c0-27.811,16.426-56.372,40.58-69.197l-1.726,0.156
		c-34.777,4.416-60.855,33.991-60.855,69.043v58.607c0,1.663-0.963,3.181-2.471,3.89l-12.28,13.82
		c-1.508,0.711-2.472,2.228-2.472,3.901v110.269c0,2.374,1.926,4.299,4.301,4.299h22.001
		C72.507,482.443,70.581,480.518,70.581,478.144z"/>
	<path style="fill:#B3D2F2;" d="M350.218,183.395l59.237-121.66h-22.002l-62.239,134.284l7.696-0.693
		C340.373,194.654,346.94,190.127,350.218,183.395z"/>
	<path style="fill:#B3D2F2;" d="M388.343,479.136l-5.449-26.386l-1.3-87.643c-0.147-9.94-8.598-17.739-18.526-17.076
		c-0.121,0.008-0.243,0.017-0.366,0.024c-1.879,0.124-3.337,1.697-3.309,3.578l1.499,101.117l5.449,26.386
		c0.458,1.946,2.2,3.307,4.184,3.307h22.001C390.543,482.443,388.801,481.081,388.343,479.136z"/>
</g>
<g>
	<path style="fill:#3F5666;" d="M88.281,482.443h-35.4c-2.384,0-4.301-1.926-4.301-4.309v-22.991l27.401-4.075
		c0.282,0.564,0.7,1.07,1.226,1.459l9.974,7.479c0.788,0.594,1.363,1.449,1.596,2.393l3.678,14.705
		C93.126,479.817,91.083,482.443,88.281,482.443z"/>
	<path style="fill:#3F5666;" d="M413.905,465.617l-3.319,13.84c-0.418,1.75-1.975,2.986-3.785,2.986h-36.277
		c-1.985,0-3.727-1.362-4.184-3.307l-5.449-26.386l30.311-7.8c0.262,0.506,0.632,0.944,1.09,1.294l20.191,15.377
		C413.711,462.553,414.265,464.119,413.905,465.617z"/>
	<ellipse style="fill:#3F5666;" cx="433.778" cy="90.686" rx="8.084" ry="8.077"/>
</g>
<path style="fill:#E1E9F2;" d="M387.453,61.735l6.313-21.472c2.192-7.454,9.038-12.574,16.816-12.574l0,0
	c1.876,0,3.377,1.554,3.311,3.426l-1.086,30.873c-0.248,7.049-5.382,12.808-12.08,14.072c-1.611,0.304-3.249-0.408-4.207-1.738
	L387.453,61.735z"/>
<g>
	<path style="fill:#3F5666;" d="M174.985,216.336l-7.362,43.174c-0.669,3.941-4.096,6.72-7.965,6.72
		c-0.442,0-0.906-0.032-1.358-0.118c-4.408-0.743-7.362-4.921-6.618-9.315l7.006-41.063l16.384-1.475
		C175.125,214.936,175.103,215.636,174.985,216.336z"/>
	<path style="fill:#3F5666;" d="M211.051,212.578l-6.296,60.351c-0.432,4.146-3.944,7.237-8.03,7.237c-0.28,0-0.56-0.01-0.852-0.043
		c-4.441-0.463-7.664-4.437-7.2-8.874l6.134-58.768l16.254-1.465C211.105,211.523,211.105,212.05,211.051,212.578z"/>
	<path style="fill:#3F5666;" d="M240.877,293.67c-0.194,0.01-0.377,0.022-0.56,0.022c-4.214,0-7.772-3.263-8.062-7.527
		l-5.206-76.591l16.104-1.453c0.01,0.053,0.022,0.118,0.022,0.183l5.217,76.763C248.691,289.514,245.328,293.369,240.877,293.67z"/>
	<path style="fill:#3F5666;" d="M421.391,243.938c-0.334,5.546-0.647,10.963-0.927,16.132c-0.108,0-0.205,0-0.312-0.01
		l-44.959-4.297c-4.441-0.431-7.707-4.373-7.276-8.81c0.42-4.448,4.366-7.7,8.817-7.269L421.391,243.938z"/>
	<path style="fill:#3F5666;" d="M423.676,207.796c-0.345,5.266-0.701,10.693-1.046,16.165c-0.27-0.022-0.55-0.054-0.819-0.097
		l-45.206-7.571c-4.408-0.743-7.373-4.9-6.64-9.305c0.744-4.394,4.905-7.367,9.313-6.634L423.676,207.796z"/>
	<path style="fill:#3F5666;" d="M426.274,170.523c-0.334,4.599-0.722,10.07-1.143,16.144c-0.259-0.012-0.517-0.043-0.776-0.087
		l-33.167-5.557c-4.398-0.732-7.373-4.9-6.629-9.293c0.732-4.404,4.905-7.367,9.303-6.634L426.274,170.523z"/>
	<path style="fill:#3F5666;" d="M279.325,277.441c-0.42,0.065-0.83,0.097-1.239,0.097c-3.924,0-7.362-2.854-7.977-6.849
		l-9.755-63.614c-0.022-0.162-0.043-0.334-0.065-0.495l16.114-1.453l9.68,63.109C286.762,272.649,283.733,276.773,279.325,277.441z"
		/>
	<path style="fill:#3F5666;" d="M314.217,255.504c-0.732,0.205-1.456,0.29-2.166,0.29c-3.546,0-6.791-2.336-7.793-5.912
		l-12.407-44.682c-0.14-0.473-0.227-0.958-0.259-1.443l16.234-1.465l12.018,43.271C321.029,249.861,318.518,254.309,314.217,255.504
		z"/>
	<path style="fill:#3F5666;" d="M417.436,283.192c-0.657,2.606-1.434,5.191-2.328,7.732c-0.894,2.553-1.768,5.256-2.608,8.077
		h-34.557c-4.463,0-8.084-3.618-8.084-8.077c0-4.469,3.622-8.077,8.084-8.077h37.166
		C415.916,282.847,416.703,282.966,417.436,283.192z"/>
	<path style="fill:#3F5666;" d="M144.469,220.547l-8.235,33.396c-0.905,3.683-4.215,6.149-7.847,6.149
		c-0.636,0-1.283-0.075-1.94-0.237c-4.333-1.067-6.985-5.439-5.907-9.768l7.782-31.619l16.212-1.465
		C144.771,218.145,144.761,219.352,144.469,220.547z"/>
	<path style="fill:#3F5666;" d="M408.36,314.693c-1.207,5.126-2.34,10.478-3.406,15.96h-19.963c-4.473,0-8.084-3.618-8.084-8.077
		c0-4.459,3.611-8.077,8.084-8.077h21.601C407.196,314.499,407.789,314.563,408.36,314.693z"/>
	<path style="fill:#3F5666;" d="M401.817,348.077c-0.884,5.342-1.714,10.715-2.48,16.047h-14.346c-4.473,0-8.084-3.618-8.084-8.077
		c0-4.469,3.611-8.077,8.084-8.077h15.554C400.976,347.97,401.407,348.002,401.817,348.077z"/>
	<path style="fill:#3F5666;" d="M397.538,377.241c-0.722,5.514-1.379,10.909-1.983,16.079h-11.016c-4.463,0-8.084-3.618-8.084-8.077
		s3.622-8.077,8.084-8.077h11.986C396.869,377.166,397.204,377.187,397.538,377.241z"/>
	<path style="fill:#3F5666;" d="M116.595,376.864l-11.846,10.995l-18.022-18.965c-3.082-3.231-2.942-8.347,0.292-11.415
		c3.234-3.07,8.354-2.94,11.426,0.29l18.098,19.03C116.563,376.821,116.584,376.842,116.595,376.864z"/>
	<path style="fill:#3F5666;" d="M138.692,356.359l-11.856,11.006l-31.087-32.954c-3.062-3.241-2.91-8.357,0.334-11.415
		c3.244-3.058,8.364-2.908,11.426,0.334l31.14,32.986C138.659,356.327,138.671,356.349,138.692,356.359z"/>
	<path style="fill:#3F5666;" d="M165.93,335.466c-4.775,1.508-7.523,2.584-7.62,2.681l-5.917,5.492
		c-0.108-0.108-0.205-0.215-0.302-0.333l-21.698-26.148c-2.845-3.436-2.371-8.529,1.067-11.373c3.439-2.854,8.537-2.38,11.383,1.055
		L164.54,333C165.165,333.755,165.628,334.595,165.93,335.466z"/>
</g>
<g>
</g>
<g>
</g>
<g>
</g>
<g>
</g>
<g>
</g>
<g>
</g>
<g>
</g>
<g>
</g>
<g>
</g>
<g>
</g>
<g>
</g>
<g>
</g>
<g>
</g>
<g>
</g>
<g>
</g>
</svg>
