<?xml version="1.0" encoding="iso-8859-1"?>
<!-- Generator: Adobe Illustrator 19.0.0, SVG Export Plug-In . SVG Version: 6.00 Build 0)  -->
<svg version="1.1" id="Layer_1" xmlns="http://www.w3.org/2000/svg" xmlns:xlink="http://www.w3.org/1999/xlink" x="0px" y="0px"
	 viewBox="0 0 512 512" style="enable-background:new 0 0 512 512;" xml:space="preserve">
<path style="fill:#7D4F40;" d="M64.566,267.614H33.334c-6.8,0-12.313-5.495-12.313-12.274v-33.231
	c0-5.787-4.706-10.478-10.511-10.478l0,0C4.706,211.631,0,216.323,0,222.109v36.897c0,17.154,13.949,31.06,31.157,31.06h33.41
	V267.614z"/>
<path style="fill:#B8674D;" d="M506.913,290.875l-1.072,0.854c-5.424,4.292-11.307,7.894-17.515,10.751
	c-11.342,5.236-23.766,7.993-36.434,7.993H88.324c-21.47,0-37.523-19.525-33.479-40.541
	c16.486-85.592,67.065-126.259,162.311-126.259c109.634,0,180.78,65.446,180.78,65.446h3.567c23.208,0,44.83,11.756,57.389,31.218
	l25.397,15.573l21.308,13.059C513.544,273.847,514.22,285.1,506.913,290.875z"/>
<path style="fill:#91523D;" d="M77.564,272.706c12.332-68.168,43.743-109.57,98.65-126.109
	c-69.1,10.701-107.426,50.951-121.369,123.333c-4.045,21.016,12.009,40.541,33.479,40.541h4.792
	C81.569,302.859,74.77,288.164,77.564,272.706z"/>
<g>
	<path style="fill:#E8C1B5;" d="M506.913,290.875l-1.072,0.854c-5.424,4.292-11.307,7.894-17.515,10.751
		c-12.091-18.286-9.036-35.225-4.036-46.568l21.308,13.059C513.544,273.847,514.22,285.1,506.913,290.875z"/>
	<path style="fill:#E8C1B5;" d="M166.82,322.286H84.621c-2.638,0-4.777-2.139-4.777-4.777v-3.486
		c0-15.407,12.49-27.897,27.897-27.897H143.7c15.407,0,27.897,12.49,27.897,27.897v3.486
		C171.597,320.147,169.458,322.286,166.82,322.286z"/>
</g>
<path style="fill:#CCA295;" d="M101.402,317.503v-3.453c0-15.423,12.477-27.925,27.87-27.925h-21.558
	c-15.391,0-27.87,12.502-27.87,27.925v3.453c0,2.642,2.137,4.783,4.773,4.783h21.558
	C103.539,322.286,101.402,320.145,101.402,317.503z"/>
<path style="fill:#E8C1B5;" d="M426.954,344.792c-0.065,5.552-1.498,11.146-4.451,16.276c-0.14,0.27-0.292,0.53-0.452,0.789
	l-2.231,3.673c-1.66,2.744-5.228,3.617-7.977,1.954l-85.359-51.541c-2.738-1.653-3.622-5.217-1.951-7.95l2.231-3.672
	c9.701-15.985,30.57-21.083,46.597-11.405l37.252,22.498C421.274,321.85,427.116,333.213,426.954,344.792z"/>
<path style="fill:#C97E67;" d="M272.356,305.776c21.081,8.847,51.211,19.905,70.816,20.245l30.185-33.109
	c0,0-8.182-14.987-18.045-29.303c-6.789-9.852-19.786-13.185-30.444-7.771l-53.34,27.095
	C261.968,287.789,262.471,301.628,272.356,305.776z"/>
<path style="fill:#91523D;" d="M426.954,344.792c-0.065,5.552-1.498,11.146-4.451,16.276c-0.442-0.172-0.862-0.399-1.272-0.669
	l-34.277-22.465c-3.741-2.441-4.786-7.463-2.339-11.211c2.436-3.748,7.448-4.795,11.189-2.344L426.954,344.792z"/>
<g>
</g>
<g>
</g>
<g>
</g>
<g>
</g>
<g>
</g>
<g>
</g>
<g>
</g>
<g>
</g>
<g>
</g>
<g>
</g>
<g>
</g>
<g>
</g>
<g>
</g>
<g>
</g>
<g>
</g>
</svg>
