<?xml version="1.0" encoding="iso-8859-1"?>
<!-- Generator: Adobe Illustrator 19.0.0, SVG Export Plug-In . SVG Version: 6.00 Build 0)  -->
<svg version="1.1" id="Layer_1" xmlns="http://www.w3.org/2000/svg" xmlns:xlink="http://www.w3.org/1999/xlink" x="0px" y="0px"
	 viewBox="0 0 512 512" style="enable-background:new 0 0 512 512;" xml:space="preserve">
<path style="fill:#FF5845;" d="M373.62,319.867l53.129,141.157c1.821,10.631-1.304,20.302-7.255,27.465
	c-3.482,4.2-7.933,7.539-12.924,9.715c-8.882,3.856-19.466,4.039-29.394-1.174L258.834,393.86c-1.628-1.422-4.042-1.422-5.67,0
	L134.823,497.03c-10.887,5.719-22.571,4.943-31.916-0.054c-4.808-2.575-8.989-6.258-12.126-10.749
	c-4.818-6.883-7.168-15.649-5.53-25.203l53.108-141.157c0.701-1.875,0.022-3.996-1.649-5.105L10.358,230.645
	c-7.836-7.636-10.984-17.47-10.25-26.883c0.41-5.439,2.102-10.727,4.926-15.38c4.926-8.174,13.312-14.4,24.253-15.984l153.784,23.06
	c2.231,0.345,4.333-1.098,4.84-3.285l37.456-162.17c4.861-9.854,13.312-15.887,22.55-18.083c5.303-1.26,10.865-1.26,16.169,0
	c9.238,2.197,17.688,8.229,22.55,18.083l37.436,162.138c0.507,2.186,2.608,3.618,4.84,3.285l153.805-23.027
	c10.94,1.583,19.326,7.809,24.253,15.984c2.824,4.653,4.516,9.941,4.926,15.38c0.733,9.413-2.415,19.247-10.25,26.883
	L375.26,314.763C373.587,315.871,372.908,317.993,373.62,319.867z"/>
<g>
	<circle style="fill:#451712;" cx="332.528" cy="312.633" r="8.084"/>
	<circle style="fill:#451712;" cx="366.487" cy="272.791" r="8.084"/>
	<circle style="fill:#451712;" cx="165.386" cy="280.879" r="8.084"/>
	<circle style="fill:#451712;" cx="195.573" cy="312.633" r="8.084"/>
	<circle style="fill:#451712;" cx="256" cy="353.008" r="8.084"/>
</g>
<path style="fill:#B53C2F;" d="M238.994,377.624L122.985,478.757c-1.346,0.484-2.71,0.728-4.074,0.728
	c-3.643,0.001-7.29-1.745-9.757-4.669c-1.479-1.752-3.073-4.594-2.842-8.562l52.222-138.809c4.257-11.321,0.197-23.907-9.873-30.61
	L24.348,214.073c-3.839-4.653-2.808-9.714-2.135-11.785c0.637-1.96,2.593-6.28,7.762-8.009l149.895,22.486
	c1.269,0.19,2.562,0.287,3.844,0.287c12.115,0.001,22.479-8.239,25.204-20.038l36.758-159.165c3.245-4.778,8.197-5.337,10.325-5.337
	V10.971c-12.186,0-24.371,6.346-30.637,19.036l-37.451,162.164c-0.507,2.192-2.615,3.627-4.841,3.292L29.289,172.394
	c-28.023,4.07-39.212,38.491-18.935,58.247L136.71,314.76c1.67,1.112,2.352,3.227,1.646,5.103L85.248,461.028
	c-4.787,27.897,24.507,49.17,49.572,35.999l118.346-103.171c0.812-0.707,1.823-1.062,2.834-1.062v-21.541
	C249.747,371.254,243.708,373.516,238.994,377.624z"/>
<path style="fill:#FFC3BD;" d="M375.26,314.763l126.385-84.121c20.277-19.756,9.089-54.178-18.935-58.248l-153.804,23.037
	c-2.226,0.333-4.334-1.101-4.84-3.292L286.637,30.007c-6.266-12.69-18.452-19.036-30.637-19.036v21.541
	c2.127,0,7.078,0.559,10.324,5.336L303.06,196.98c2.725,11.8,13.088,20.04,25.203,20.04c1.28,0,2.572-0.096,3.839-0.286
	l149.921-22.455c5.17,1.729,7.126,6.049,7.764,8.01c0.674,2.071,1.705,7.131-2.134,11.784l-124.344,82.763
	c-10.073,6.704-14.132,19.293-9.872,30.613l52.251,138.807c0.229,3.965-1.365,6.806-2.842,8.558
	c-2.468,2.925-6.117,4.672-9.761,4.672c-1.362,0-2.724-0.245-4.071-0.728L273.006,377.626c-4.709-4.107-10.751-6.372-17.007-6.372
	v21.541c1.011,0,2.022,0.354,2.834,1.062l118.346,103.171c25.065,13.171,54.359-8.102,49.572-35.999l-53.137-141.161
	C372.907,317.99,373.589,315.874,375.26,314.763z"/>
<path style="fill:#B53C2F;" d="M269.107,288.353l150.388,200.137c-3.482,4.2-7.933,7.539-12.924,9.715L255.925,297.723
	L102.907,496.976c-4.808-2.575-8.989-6.258-12.126-10.749L242.775,288.31L0.107,203.762c0.41-5.439,2.102-10.727,4.926-15.38
	l242.882,84.613V11.919c5.303-1.26,10.865-1.26,16.169,0v261.075l242.882-84.613c2.824,4.653,4.516,9.941,4.926,15.38
	L269.107,288.353z"/>
<g>
	<circle style="fill:#451712;" cx="308.934" cy="238.226" r="8.084"/>
	<circle style="fill:#451712;" cx="285.853" cy="203.838" r="8.084"/>
	<circle style="fill:#451712;" cx="228.989" cy="203.838" r="8.084"/>
	<circle style="fill:#451712;" cx="203.65" cy="233.733" r="8.084"/>
</g>
<g>
</g>
<g>
</g>
<g>
</g>
<g>
</g>
<g>
</g>
<g>
</g>
<g>
</g>
<g>
</g>
<g>
</g>
<g>
</g>
<g>
</g>
<g>
</g>
<g>
</g>
<g>
</g>
<g>
</g>
</svg>
