<?xml version="1.0" encoding="iso-8859-1"?>
<!-- Generator: Adobe Illustrator 19.0.0, SVG Export Plug-In . SVG Version: 6.00 Build 0)  -->
<svg version="1.1" id="Layer_1" xmlns="http://www.w3.org/2000/svg" xmlns:xlink="http://www.w3.org/1999/xlink" x="0px" y="0px"
	 viewBox="0 0 512 512" style="enable-background:new 0 0 512 512;" xml:space="preserve">
<path style="fill:#D1C1A1;" d="M159.029,256.089l-59.805-6.227c-30.246-3.149-57.322,18.768-60.477,48.953l-5.806,55.553l0,0
	c-20.187-2.101-34.845-20.138-32.74-40.285l3.382-32.363c4.115-39.361,39.422-67.941,78.862-63.835l49.746,5.18
	C148.74,224.789,160.755,239.574,159.029,256.089L159.029,256.089z"/>
<path style="fill:#BDAA81;" d="M18.627,328.2l3.382-32.363c4.114-39.361,39.422-67.941,78.862-63.835l49.746,5.179
	c1.569,0.163,3.097,0.445,4.578,0.834c-4.656-8.088-12.997-13.908-23.003-14.949l-49.746-5.178
	c-39.44-4.106-74.748,24.474-78.862,63.835l-3.382,32.363c-1.808,17.297,8.746,33.028,24.54,38.466
	C20.062,345.651,17.693,337.136,18.627,328.2z"/>
<path style="fill:#968767;" d="M453.523,56.463L453.523,56.463c3.756,1.659,5.278,6.177,3.286,9.764l-11.761,21.186
	c-7.562,13.622-24.293,19.23-38.561,12.927l-15.363-6.787l31.171-31.245C430.487,54.097,442.905,51.773,453.523,56.463z"/>
<g>
	<path style="fill:#BDAA81;" d="M373.661,450.696l-3.068,15.515c-0.398,2.02-2.164,3.47-4.22,3.47h-45.7
		c-2.594,0-4.618-2.235-4.371-4.802l2.497-25.818l12.832-132.518l58.091-21.897l-32.684,147.711
		c-0.108,0.516-0.13,1.031-0.043,1.536c0.15,1.139,0.764,2.17,1.722,2.868l13.252,9.627
		C373.327,447.365,373.995,449.052,373.661,450.696z"/>
	<path style="fill:#BDAA81;" d="M233.955,469.681h-36.808c-1.583,0-3.035-0.848-3.811-2.213l-14.243-24.98l-20.443-35.854
		c-0.172-0.301-0.302-0.634-0.398-0.967l-10.325-36.251l-9.829-39.334l75.693-14.236l-15.664,75.499
		c-0.162,0.752-0.118,1.526,0.13,2.256l12.79,38.808c0.022,0.075,0.053,0.15,0.086,0.226c0.377,0.988,1.109,1.794,2.034,2.288
		l18.636,9.755c1.109,0.58,1.906,1.601,2.217,2.815l4.188,16.739C238.907,467.006,236.808,469.681,233.955,469.681z"/>
</g>
<g>
	<path style="fill:#968767;" d="M233.955,469.681h-36.808c-1.583,0-3.035-0.848-3.811-2.213l-14.243-24.98l32.039-9.852
		c0.377,0.988,1.109,1.794,2.034,2.288l18.636,9.755c1.109,0.58,1.906,1.601,2.217,2.815l4.188,16.739
		C238.907,467.006,236.808,469.681,233.955,469.681z"/>
	<path style="fill:#968767;" d="M373.661,450.696l-3.068,15.515c-0.398,2.02-2.164,3.47-4.22,3.47h-45.7
		c-2.594,0-4.618-2.235-4.371-4.802l2.497-25.818l38.196-5.168c0.15,1.139,0.764,2.17,1.722,2.868l13.252,9.627
		C373.327,447.365,373.995,449.052,373.661,450.696z"/>
</g>
<path style="fill:#F2E5CB;" d="M512,121.46v3.413c0,14.339-9.593,42.435-23.951,42.435l-31.971,10.431
	c0,0-3.137,45.514-14.648,84.181c-2.382,8.02-5.142,15.76-8.3,22.724c-21.989,48.506,9.97,142.677,9.97,142.677
	c0.043,0.323,0.118,0.625,0.227,0.915c0.345,0.948,1.002,1.754,1.876,2.282l21.04,12.38c1.316,0.796,2.135,2.217,2.135,3.756
	l-2.813,18.644c0,2.412-1.962,4.381-4.388,4.381h-46.22c-2.026,0-3.794-1.399-4.258-3.358l-6.446-26.815l-21.342-88.885
	c-0.452-1.905-2.145-3.283-4.118-3.358c0,0-56.374,3.951-100.944-11.809c-39.504-13.972-96.633,4.865-96.633,4.865
	c-1.164-0.043-2.296,0.377-3.147,1.163l-57.905,53.663c-0.819,0.753-1.886,1.173-2.997,1.173h-36.67
	c-2.425,0-4.388,1.959-4.388,4.381v35.04c0,0.463,0.075,0.915,0.215,1.334c0.27,0.861,0.809,1.626,1.541,2.164l10.165,7.611
	c0.809,0.603,1.379,1.464,1.616,2.444l3.751,14.941c0.69,2.767-1.401,5.447-4.258,5.447H53.086c-2.425,0-4.398-1.959-4.398-4.381
	v-93.557c0-1.701,0.981-3.251,2.522-3.973l30.051-14.059c1.541-0.721,2.533-2.272,2.533-3.973v-59.626
	c0-35.663,26.581-65.763,62.022-70.24l118.687-24.748l34.924-7.288c8.526-1.787,15.867-7.126,20.168-14.683
	c0,0,52.752-71.145,67.292-89.714c1.746-2.229,4.43-3.531,7.276-3.531h30.073c7.588,0,14.864,3.025,20.21,8.386l6.187,6.222
	c5.335,5.361,12.622,16.654,20.2,16.654l36.854,5.985C510.071,117.154,512,119.082,512,121.46z"/>
<g>
	<path style="fill:#D1C1A1;" d="M102.969,340.682c1.539-0.72,2.53-2.266,2.53-3.964v-46.604c0-27.048,15.3-55.698,38.152-69.92
		c-34.349,5.41-59.855,34.993-59.855,69.92v59.539L102.969,340.682z"/>
	<path style="fill:#D1C1A1;" d="M70.392,465.297V358.796l-19.183,8.976c-1.539,0.72-2.519,2.267-2.519,3.964v93.56
		c0,2.421,1.966,4.383,4.393,4.383h21.703C72.359,469.681,70.392,467.719,70.392,465.297z"/>
	<path style="fill:#D1C1A1;" d="M432.397,466.318l-6.438-26.807l-21.348-88.886c-0.452-1.912-2.142-3.287-4.113-3.362
		c0,0-7.854,0.55-20.015,0.421c1.19,0.554,2.111,1.611,2.425,2.942l21.348,88.886l6.438,26.807c0.463,1.966,2.239,3.362,4.263,3.362
		h21.703C434.636,469.681,432.86,468.284,432.397,466.318z"/>
</g>
<g>
	<path style="fill:#968767;" d="M89.147,469.681H53.071c-2.422,0-4.381-1.966-4.381-4.383v-24.722l27.635-3.502
		c0.27,0.86,0.808,1.623,1.539,2.17l10.163,7.607c0.808,0.602,1.389,1.462,1.626,2.439l3.746,14.945
		C94.088,467.006,92,469.681,89.147,469.681z"/>
	<path style="fill:#968767;" d="M468.377,446.657l-2.81,18.641c0,2.418-1.97,4.383-4.393,4.383h-46.217
		c-2.024,0-3.8-1.397-4.263-3.362l-6.438-26.807l39.069-11.27c0.345,0.946,1.001,1.751,1.874,2.278l21.046,12.377
		C467.559,443.691,468.377,445.119,468.377,446.657z"/>
</g>
<path style="fill:#EDD4A0;" d="M512,121.46v3.413c0,14.339-9.593,42.435-23.951,42.435l-31.971,10.431
	c0,0-3.137,45.514-14.648,84.181l-15.92-22.649c-0.625-0.893-1.833-1.184-2.792-0.656l-30.903,16.664
	c-1.121,0.603-2.522,0.118-3.018-1.055l-13.7-32.338c-0.41-0.969-1.476-1.507-2.5-1.249l-37.5,9.29
	c-1.476,0.377-2.867-0.883-2.652-2.39l3.966-27.493c0.205-1.443-1.046-2.659-2.48-2.433c-15.478,2.465-48.635-0.312-69.427-2.487
	l34.924-7.288c8.526-1.787,15.867-7.126,20.168-14.683c0,0,52.752-71.145,67.292-89.714c1.746-2.229,4.43-3.531,7.276-3.531h30.073
	c7.588,0,14.864,3.025,20.21,8.386l6.187,6.222c5.335,5.361,12.622,16.654,20.2,16.654l36.854,5.985
	C510.071,117.154,512,119.082,512,121.46z"/>
<ellipse style="fill:#948565;" cx="434.52" cy="117.979" rx="8.084" ry="8.074"/>
<path style="fill:#BDAA81;" d="M416.398,42.318L416.398,42.318c4.109,0,7.331,3.517,6.965,7.601l-2.164,24.124
	c-1.391,15.512-14.415,27.397-30.019,27.397h-16.801l15.833-41.162C394.373,49.458,404.786,42.318,416.398,42.318z"/>
<g>
</g>
<g>
</g>
<g>
</g>
<g>
</g>
<g>
</g>
<g>
</g>
<g>
</g>
<g>
</g>
<g>
</g>
<g>
</g>
<g>
</g>
<g>
</g>
<g>
</g>
<g>
</g>
<g>
</g>
</svg>
