<?xml version="1.0" encoding="iso-8859-1"?>
<!-- Generator: Adobe Illustrator 19.0.0, SVG Export Plug-In . SVG Version: 6.00 Build 0)  -->
<svg version="1.1" id="Layer_1" xmlns="http://www.w3.org/2000/svg" xmlns:xlink="http://www.w3.org/1999/xlink" x="0px" y="0px"
	 viewBox="0 0 512 512" style="enable-background:new 0 0 512 512;" xml:space="preserve">
<path style="fill:#FBD476;" d="M319.709,85.621c0,0,57.774-6.329,111.27,0.794c4.793,0.638,7.526-5.307,3.9-8.503
	c-16.98-14.962-50.647-39.939-86.267-40.028C311.688,37.793,300.756,87.121,319.709,85.621z"/>
<path style="fill:#3F5666;" d="M223.031,511.364V512h-13.727C213.929,512,218.517,511.792,223.031,511.364z"/>
<path style="fill:#F2E5CB;" d="M356.585,364.786c0,72.696-52.703,133.059-122.019,145.036c-3.073,0.539-6.183,0.967-9.329,1.309
	c-0.735,0.086-1.482,0.159-2.228,0.232c-4.517,0.428-9.108,0.636-13.736,0.636H85.491c-5.545,0-10.038-4.49-10.038-10.032
	c0-14.485,5.877-27.6,15.364-37.081c9.5-9.481,22.612-15.354,37.106-15.354h32.087V182.95C160.01,94.741,206.482,0,276.875,0
	c47.439,0,68.741,26.095,68.741,58.296c0,19.954-10.027,37.546-25.317,48.068c-0.013,0.013-0.024,0.013-0.024,0.013
	C360.434,221.439,356.585,364.786,356.585,364.786z"/>
<path style="fill:#3F5666;" d="M345.326,58.296c0,19.954-10.005,37.546-25.263,48.068c-0.013,0.013-0.024,0.013-0.024,0.013
	s-59.65,36.567-53.079,142.977c8.551,138.47,0.562,195.126-32.446,260.469c-3.066,0.539-6.169,0.967-9.309,1.309
	c-0.734,0.086-1.479,0.159-2.224,0.232c-4.508,0.428-9.089,0.636-13.706,0.636H85.759c-5.534,0-10.017-4.49-10.017-10.032
	c0-14.485,5.864-27.6,15.331-37.081c9.479-9.481,22.564-15.354,37.027-15.354h32.018V182.95C160.119,94.741,206.491,0,276.733,0
	C324.07,0,345.326,26.095,345.326,58.296z"/>
<g>
	<path style="fill:#2F3F4A;" d="M97.109,501.968c0-14.485,5.877-27.6,15.364-37.081c5.691-5.679,12.683-11.547,20.485-15.354h-5.035
		c-14.495,0-27.606,5.873-37.106,15.354c-9.488,9.481-15.364,22.596-15.364,37.081c0,5.542,4.493,10.032,10.038,10.032h21.657
		C101.602,512,97.109,507.51,97.109,501.968z"/>
	<path style="fill:#2F3F4A;" d="M166.735,445.35c8.246,0,14.932-6.685,14.932-14.932V182.95
		c0-84.095,42.239-174.127,107.176-182.341C285.053,0.214,281.072,0,276.875,0C206.482,0,160.01,94.741,160.01,182.95v262.4H166.735
		z"/>
</g>
<path style="fill:#344552;" d="M250.221,223.959c-1.451-0.77-3.204,0.244-3.204,1.887v100.947c0,22.502-17.179,40.744-38.37,40.744
	h-2.062V221.438h-10.363c-2.381,0-4.311,1.93-4.311,4.311v170.75c0,1.964,1.592,3.558,3.558,3.558l0,0
	c36.575,0,66.224-29.629,66.224-66.18v-90.882C261.692,234.737,257.041,227.577,250.221,223.959z"/>
<circle style="fill:#232F38;" cx="277.995" cy="37.888" r="8.084"/>
<path style="fill:#FBD476;" d="M391.991,512H227.904c-2.703,0-4.895-2.192-4.895-4.895v-17.719c0-6.759,5.479-12.238,12.238-12.238
	h132.04c16.347,0,29.599,13.251,29.599,29.599v0.358C396.886,509.808,394.694,512,391.991,512z"/>
<path style="fill:#CCA75E;" d="M245.984,507.105v-17.719c0-6.759,5.479-12.238,12.238-12.238h-22.974
	c-6.759,0-12.238,5.479-12.238,12.238v17.719c0,2.703,2.191,4.895,4.895,4.895h22.974C248.176,512,245.984,509.809,245.984,507.105z
	"/>
<g>
</g>
<g>
</g>
<g>
</g>
<g>
</g>
<g>
</g>
<g>
</g>
<g>
</g>
<g>
</g>
<g>
</g>
<g>
</g>
<g>
</g>
<g>
</g>
<g>
</g>
<g>
</g>
<g>
</g>
</svg>
