<?xml version="1.0" encoding="iso-8859-1"?>
<!-- Generator: Adobe Illustrator 19.0.0, SVG Export Plug-In . SVG Version: 6.00 Build 0)  -->
<svg version="1.1" id="Layer_1" xmlns="http://www.w3.org/2000/svg" xmlns:xlink="http://www.w3.org/1999/xlink" x="0px" y="0px"
	 viewBox="0 0 512 512" style="enable-background:new 0 0 512 512;" xml:space="preserve">
<path style="fill:#7FD3E3;" d="M378.997,314.973L378.997,314.973c0,4.367-3.541,7.904-7.903,7.895l-124.766-0.235l-105.055-0.194
	c-10.546,0-22.285-1.749-33.4-1.749c-91.193,0-85.508-124.856-31.176-178.865c28.095-27.927,121.753-78.933,214.034,13.434
	c21.125,25.943,30.4,71.222,34.258,98.876c1.98,14.196,12.769,25.55,26.85,28.16l0,0
	C367.578,285.211,378.997,298.951,378.997,314.973z"/>
<path style="fill:#349FB5;" d="M98.256,137.63c9.84-10.361,27.729-23.713,50.779-32.496c-33.42,6.647-59.608,24.038-72.337,36.691
	C24.62,193.591,17.251,310.429,97.032,320.037C40.75,291.932,51.438,186.925,98.256,137.63z"/>
<path style="fill:#38ACC4;" d="M246.325,322.637c5.275-15.84,16.274-44.192,16.274-60.031c0-22.879-8.792-43.997-22.857-63.356
	c-7.033-8.799-15.825-15.84-24.616-21.118c-10.549-5.28-21.1-8.799-31.649-10.56c-14.066-1.76-26.374,1.76-38.682,5.28
	c-14.066,5.28-55.94,29.195-41.389,66.509c3.26,8.359,14.582,19.02,22.048,21.486c26.055,8.606,32.528-18.059,41.318-23.339
	c21.1-12.319,32.529,11.02,32.529,30.378c0,25.641-21.1,42.238-31.649,47.518c-8.792,3.52-17.582,5.28-26.374,7.039L246.325,322.637
	z"/>
<path style="fill:#CCA295;" d="M506.641,322.868h-39.778v-71.672c0-10.984,8.905-19.889,19.889-19.889l0,0
	c10.984,0,19.889,8.905,19.889,19.889v71.672H506.641z"/>
<path style="fill:#E8C1B5;" d="M512,316.491c0,21.806-7.491,41.854-20.038,57.721c-2.242,2.835-4.656,5.552-7.211,8.117
	c-16.837,16.848-40.087,27.271-65.773,27.271H5.357C2.403,409.6,0,407.207,0,404.243c0-10.477,1.628-20.567,4.646-30.03
	c4.84-15.208,13.258-28.812,24.264-39.828c17.86-17.882,42.534-28.942,69.794-28.942h339.106v-54.25
	c0-10.984,8.904-19.888,19.888-19.888c5.497,0,10.467,2.231,14.066,5.821c3.589,3.601,5.821,8.569,5.821,14.066v54.25h23.38
	C507.063,305.443,512,310.379,512,316.491z"/>
<path style="fill:#CCA295;" d="M29.104,404.243c0-10.477,1.628-20.567,4.646-30.03c4.84-15.208,13.258-28.812,24.264-39.828
	c17.86-17.882,42.534-28.942,69.794-28.942H98.703c-27.26,0-51.932,11.059-69.794,28.942C17.904,345.4,9.486,359.003,4.646,374.212
	C1.628,383.676,0,393.765,0,404.243c0,2.964,2.403,5.357,5.357,5.357h29.104C31.507,409.6,29.104,407.207,29.104,404.243z"/>
<path style="fill:#BD968A;" d="M491.962,374.212c-2.242,2.835-4.656,5.552-7.211,8.117c-16.837,16.848-40.087,27.271-65.773,27.271
	H5.357C2.403,409.6,0,407.207,0,404.243c0-10.477,1.628-20.567,4.646-30.03H491.962z"/>
<path style="fill:#A17F75;" d="M34.461,409.6H5.357C2.403,409.6,0,407.207,0,404.243c0-10.477,1.628-20.567,4.646-30.03h29.104
	c-3.018,9.464-4.646,19.553-4.646,30.03C29.104,407.207,31.507,409.6,34.461,409.6z"/>
<g>
</g>
<g>
</g>
<g>
</g>
<g>
</g>
<g>
</g>
<g>
</g>
<g>
</g>
<g>
</g>
<g>
</g>
<g>
</g>
<g>
</g>
<g>
</g>
<g>
</g>
<g>
</g>
<g>
</g>
</svg>
