<?xml version="1.0" encoding="iso-8859-1"?>
<!-- Generator: Adobe Illustrator 19.0.0, SVG Export Plug-In . SVG Version: 6.00 Build 0)  -->
<svg version="1.1" id="Layer_1" xmlns="http://www.w3.org/2000/svg" xmlns:xlink="http://www.w3.org/1999/xlink" x="0px" y="0px"
	 viewBox="0 0 512 512" style="enable-background:new 0 0 512 512;" xml:space="preserve">
<g>
	<path style="fill:#BDAA81;" d="M391.123,333.681l-30.626,31.829c-6.755,6.967-4.277,18.553,4.739,22.155l0.513,0.205
		c3.684,1.472,6.1,5.036,6.1,9l0,0c0,3.568-2.896,6.462-6.469,6.462h-45.398c-13.362,0-21.625-14.55-14.769-26.006l32.621-61.481
		L391.123,333.681z"/>
	<path style="fill:#BDAA81;" d="M159.71,309.521l28.42,74.464c4.456,11.676,15.347,19.346,27.469,19.346h38.315
		c5.59,0,10.122-4.694,10.122-10.483l0,0c0-3.477-1.665-6.729-4.445-8.679l-4.47-1.979c-9.943-4.402-17.343-13.344-20.022-24.195
		l-7.05-28.56L159.71,309.521z"/>
	<path style="fill:#BDAA81;" d="M462.83,135.551c-1.71,4.455-4.604,7.474-7.757,9.52c-8.598,5.578-20.354,1.335-23.393-8.445
		c-1.114-3.585-1.405-7.751,0.129-12.268c0.925-2.724,2.613-5.722,4.739-8.791c9.097-13.133,29.665-5.715,28.262,10.195
		C464.481,129.48,463.862,132.866,462.83,135.551z"/>
</g>
<path style="fill:#F2E5CB;" d="M507.871,194.518l-7.513,4.119c-8.235,4.528-17.601,6.57-26.969,5.904l-21.299-1.528L433.313,350.29
	l10.046,24.477c1.391,3.42,4.128,6.119,7.556,7.495l14.044,5.613c3.676,1.473,6.101,5.022,6.101,8.99
	c0,1.785-0.732,3.409-1.898,4.57c-1.164,1.172-2.792,1.892-4.581,1.892h-35.441c-7.62,0-14.906-3.129-20.156-8.635l-42.242-44.404
	H151.211c-16.319-24.82-59.596-24.917-59.596-24.917c-44.84,0-69.243-15.335-81.337-42.08C2.602,266.376-0.125,244.9,0.004,219.843
	c0.032-4.786,1.995-9.108,5.142-12.238c3.137-3.119,7.48-5.044,12.266-5.044c9.528,0,17.354,7.786,17.418,17.304
	c0.118,18.862,3.244,33.177,8.72,43.651c8.246,15.743,21.827,22.841,38.588,23.734c11.674,0.624,22.226-7.313,31-12.948
	c25.373-16.282,54.66-25.444,84.819-25.444h157.069c8.03,0,15.252-4.914,18.195-12.388l30.375-77.096
	c4.516-11.431,15.565-18.96,27.874-18.96h3.147c14.584,0,28.607,5.549,39.235,15.518l21.504,20.153l11.296,3.947
	C513.163,182.301,513.919,191.194,507.871,194.518z"/>
<g>
	<path style="fill:#D1C1A1;" d="M396.766,236.469l30.375-77.096c3.437-8.698,10.658-15.124,19.335-17.706
		c-3.871-0.818-7.841-1.254-11.856-1.254h-3.147c-12.309,0-23.358,7.527-27.875,18.96l-30.375,77.096
		c-2.942,7.474-10.164,12.388-18.195,12.388h23.544C386.601,248.858,393.823,243.943,396.766,236.469z"/>
	<path style="fill:#D1C1A1;" d="M369.973,350.29h-3.23l42.242,44.404c5.25,5.507,12.536,8.635,20.156,8.635h23.544
		c-7.62,0-14.906-3.129-20.156-8.635l-28.257-29.703C395.344,355.605,382.943,350.29,369.973,350.29z"/>
</g>
<path style="fill:#3F5666;" d="M43.551,263.516c0,0.01,0,0.01,0,0.01l-33.274,19.766C2.602,266.376-0.125,244.9,0.004,219.843
	c0.032-4.786,1.995-9.108,5.142-12.238c3.137-3.119,7.48-5.044,12.266-5.044c9.528,0,17.354,7.786,17.418,17.304
	C34.95,238.728,38.075,253.041,43.551,263.516z"/>
<ellipse cx="463.078" cy="172.617" rx="8.084" ry="8.066"/>
<path style="fill:#D1C1A1;" d="M438.983,126.764c0.854,4.695-0.05,8.776-1.682,12.159c-4.45,9.225-16.703,11.696-24.383,4.912
	c-2.815-2.486-5.23-5.896-6.266-10.552c-0.625-2.808-0.741-6.245-0.518-9.97c0.95-15.942,22.385-20.266,29.455-5.941
	C437.239,120.719,438.469,123.933,438.983,126.764z"/>
<path style="fill:#BDAA81;" d="M433.409,127.243c0.565,3.113-0.033,5.818-1.116,8.061c-2.95,6.116-11.073,7.753-16.165,3.256
	c-1.866-1.648-3.467-3.909-4.155-6.996c-0.415-1.861-0.491-4.141-0.344-6.61c0.629-10.569,14.84-13.435,19.527-3.939
	C432.253,123.235,433.068,125.367,433.409,127.243z"/>
<path style="fill:#F2E5CB;" d="M133.87,300.544l-28.746,81.437c-3.679,10.424,4.063,21.349,15.127,21.349h38.164
	c5.648,0,10.225-4.572,10.225-10.214v-2.026c0-2.453-0.884-4.825-2.491-6.681l0,0c-3.404-3.932-2.357-9.99,2.169-12.555
	l74.869-42.42L133.87,300.544z"/>
<path style="fill:#D1C1A1;" d="M127.861,381.982l20.412-57.827c3.446-9.762-2.186-20.382-12.214-23.032l0,0
	c-1.236-0.327-2.516,0.349-2.941,1.553l-27.994,79.307c-3.679,10.422,4.063,21.347,15.127,21.347h22.736
	C131.924,403.33,124.182,392.405,127.861,381.982z"/>
<g>
</g>
<g>
</g>
<g>
</g>
<g>
</g>
<g>
</g>
<g>
</g>
<g>
</g>
<g>
</g>
<g>
</g>
<g>
</g>
<g>
</g>
<g>
</g>
<g>
</g>
<g>
</g>
<g>
</g>
</svg>
