<?xml version="1.0" encoding="iso-8859-1"?>
<!-- Generator: Adobe Illustrator 19.0.0, SVG Export Plug-In . SVG Version: 6.00 Build 0)  -->
<svg version="1.1" id="Layer_1" xmlns="http://www.w3.org/2000/svg" xmlns:xlink="http://www.w3.org/1999/xlink" x="0px" y="0px"
	 viewBox="0 0 512 512" style="enable-background:new 0 0 512 512;" xml:space="preserve">
<path style="fill:#3F5666;" d="M27.187,251.989c-4.465,0-8.084-3.615-8.084-8.076v-42.92c0-22.496,18.296-40.797,40.784-40.797
	c4.465,0,8.084,3.615,8.084,8.076s-3.62,8.076-8.084,8.076c-13.573,0-24.616,11.056-24.616,24.645v42.92
	C35.272,248.373,31.652,251.989,27.187,251.989z"/>
<path style="fill:#7A4533;" d="M35.346,275.375v-37.957c0-2.35-1.904-4.255-4.253-4.255l0,0C13.921,233.163,0,247.092,0,264.277
	v37.957c0,2.35,1.904,4.255,4.253,4.255l0,0C21.425,306.488,35.346,292.559,35.346,275.375z"/>
<g>
	<path style="fill:#693B2C;" d="M313.711,414.342l-2.799,14.707c-0.33,1.751-1.756,3.009-3.407,3.009h-32.985
		c-2.268,0-4.043-2.13-3.825-4.59l1.843-23.206l-30.909-143.975l86.08-22.997L297.455,398.29c-0.087,0.464-0.096,0.928-0.018,1.381
		c0.165,1.108,0.783,2.092,1.713,2.669l12.866,7.931C313.328,411.086,314.015,412.723,313.711,414.342z"/>
	<path style="fill:#693B2C;" d="M116.948,344.517v51.228c0,0.87,0.294,1.703,0.822,2.356c0.264,0.341,0.586,0.625,0.964,0.861
		l15.35,9.493c0.908,0.567,1.541,1.495,1.73,2.545l3.017,16.59c0.425,2.328-1.361,4.467-3.717,4.467H97.9
		c-2.09,0-3.784-1.694-3.784-3.786V324.139l11.737-63.854l75.19,14.196l-41.245,68.141L116.948,344.517z"/>
</g>
<g>
	<path style="fill:#3F5666;" d="M313.711,414.342l-2.799,14.707c-0.33,1.751-1.756,3.009-3.407,3.009h-32.985
		c-2.268,0-4.043-2.13-3.825-4.59l1.843-23.206l24.901-4.59c0.165,1.108,0.783,2.092,1.713,2.669l12.866,7.931
		C313.328,411.086,314.015,412.723,313.711,414.342z"/>
	<path style="fill:#3F5666;" d="M135.117,432.058H97.9c-2.09,0-3.784-1.694-3.784-3.786V402.19l23.654-4.089
		c0.264,0.341,0.586,0.625,0.964,0.861l15.35,9.493c0.908,0.567,1.541,1.495,1.73,2.545l3.017,16.59
		C139.259,429.919,137.471,432.058,135.117,432.058z"/>
</g>
<path style="fill:#91523D;" d="M484.382,277.276l6.381,32.574c-3.299,9.642-31.55,16.082-62.022-29.047l-58.842-8.034l-1.283,24.483
	l-5.066,97.02c0.065,0.452,0.194,0.906,0.41,1.305c0.259,0.486,0.614,0.917,1.056,1.252l19.618,14.97
	c1.196,0.906,1.736,2.427,1.391,3.894l-3.223,13.46c-0.41,1.704-1.93,2.912-3.686,2.912h-35.258c-1.93,0-3.622-1.337-4.064-3.226
	l-5.292-25.67l-51.317-84.755c-0.602-0.994-1.662-1.631-2.823-1.702c-112.609-6.904-169.246,0.195-170.051,0.957l-27.95,25.303
	c-0.776,0.712-1.8,1.11-2.857,1.11H61.278c-2.307,0-4.183,1.877-4.183,4.196v51.319c0,0.669,0.162,1.336,0.474,1.931
	c0.28,0.539,0.69,1.046,1.196,1.423l9.69,7.27c0.765,0.582,1.326,1.414,1.552,2.33l3.579,14.302c0.647,2.653-1.336,5.21-4.064,5.21
	H35.118c-2.304,0-4.171-1.866-4.171-4.167V320.571c0-1.618,0.927-3.106,2.393-3.796l11.933-13.439
	c1.476-0.701,2.415-2.169,2.415-3.797l-0.183-33.749l-0.194-34.86l-0.302-53.811c-0.086-16.394,5.454-31.527,14.853-43.531
	c12.353-15.802,31.345-26.188,52.892-26.89l69.47-0.27l38.383-0.323c8.602-0.076,17.138-1.553,25.266-4.378l54.024-18.811
	c6.446-2.243,13.258-3.236,20.081-2.923l71.066,3.322c23.369,1.089,45.326,12.102,59.597,30.643
	c3.395,4.412,6.112,8.919,7.47,13.191h4.56c16.244,0,31.356,8.294,40.086,21.993c1.898,2.977,2.824,6.331,2.824,9.664
	c0,4.972-2.058,9.881-6.004,13.374c-7.211,6.375-16.352,10.603-16.352,10.603S546.027,259.091,484.382,277.276z"/>
<g>
	<path style="fill:#7A4533;" d="M129.12,106.641l-14.368,0.055c-21.547,0.701-40.54,11.088-52.892,26.889
		c-9.399,12.004-14.94,27.137-14.853,43.531l0.302,53.811l0.194,34.86l0.183,33.749c0,1.628-0.937,3.095-2.415,3.796l-11.933,13.439
		c-1.466,0.69-2.393,2.178-2.393,3.796v107.31c0,2.302,1.885,4.185,4.188,4.185h24.69c-1.597-0.588-2.74-2.114-2.74-3.915V320.84
		c0-1.619,0.927-3.106,2.393-3.796l11.933-13.439c1.476-0.701,2.415-2.168,2.415-3.796l-0.183-33.749l-0.194-34.86l-0.302-53.811
		c-0.086-16.394,5.454-31.528,14.853-43.531c9.795-12.53,23.778-21.618,39.889-25.2c0.779-0.173,1.308-0.88,1.252-1.675
		C129.133,106.868,129.126,106.755,129.12,106.641z"/>
	<path style="fill:#7A4533;" d="M365.934,429.109l-5.292-25.67l-43.736-69.881c-5.39-8.612-14.652-14.048-24.804-14.587
		c-2.993-0.159-5.942-0.307-8.85-0.447l51.251,84.645l5.292,25.67c0.442,1.888,2.134,3.226,4.064,3.226h24.684
		C367.265,431.587,366.259,430.499,365.934,429.109z"/>
</g>
<g>
	<path style="fill:#3F5666;" d="M484.382,277.276l6.381,32.574c-3.299,9.642-31.55,16.082-62.022-29.047l-58.842-8.034
		l-1.283,24.483c-1.034-0.183-2.005-0.27-2.9-0.27c-23.951,0-23.951-40.986-47.901-40.986c-23.951,0-23.951,40.986-47.901,40.986
		c-23.962,0-23.962-40.986-47.912-40.986c-23.951,0-23.951,40.986-47.901,40.986c-23.962,0-23.962-40.986-47.913-40.986
		s-23.951,40.986-47.901,40.986c-16.341,0-21.536-19.069-30.785-31.193l-0.194-34.86l-0.302-53.811
		c-0.086-16.394,5.454-31.527,14.853-43.531c12.353-15.802,31.345-26.188,52.892-26.89l69.47-0.27l38.383-0.323
		c8.602-0.076,17.138-1.553,25.266-4.378l54.024-18.811c6.446-2.243,13.258-3.236,20.081-2.923l71.066,3.322
		c23.369,1.089,45.326,12.102,59.597,30.643c3.395,4.412,6.112,8.919,7.47,13.191h4.56c16.244,0,31.356,8.294,40.086,21.993
		c1.898,2.977,2.824,6.331,2.824,9.664c0,4.972-2.058,9.881-6.004,13.374c-7.211,6.375-16.352,10.603-16.352,10.603
		S546.027,259.091,484.382,277.276z"/>
	<path style="fill:#3F5666;" d="M69.528,432.058H35.119c-2.318,0-4.181-1.874-4.181-4.193v-22.372l26.633-3.965
		c0.274,0.549,0.681,1.041,1.191,1.42l9.695,7.278c0.766,0.578,1.324,1.411,1.551,2.328l3.575,14.31
		C74.237,429.502,72.251,432.058,69.528,432.058z"/>
	<path style="fill:#3F5666;" d="M386.023,415.686l-3.226,13.468c-0.406,1.703-1.919,2.906-3.679,2.906h-35.259
		c-1.93,0-3.623-1.325-4.067-3.218l-5.297-25.675l29.462-7.59c0.255,0.492,0.614,0.918,1.06,1.258l19.625,14.963
		C385.834,412.704,386.373,414.228,386.023,415.686z"/>
</g>
<g>
	<path style="fill:#2F3F4A;" d="M73.631,234.927l-0.302-60.417c-0.086-18.408,5.454-35.396,14.853-48.875
		c4.916-7.061,10.702-13.154,17.242-17.988c-17.658,2.951-33.029,12.465-43.564,25.941c-9.399,12.004-14.94,27.137-14.853,43.531
		l0.302,53.811l0.194,34.86c8.34,10.933,13.388,27.509,26.282,30.659L73.631,234.927z"/>
	<ellipse style="fill:#2F3F4A;" cx="475.47" cy="214.246" rx="8.084" ry="8.076"/>
</g>
<path style="fill:#F2E5CB;" d="M455.321,178.581c0,0-6.469-12.947-10.582-27.801c-1.097-3.964-6.565-4.306-8.146-0.509
	c-4.569,10.975-9.16,28.204-1.699,42.909c0,0,10.577,6.205,19.332,0S455.321,178.581,455.321,178.581z"/>
<g>
</g>
<g>
</g>
<g>
</g>
<g>
</g>
<g>
</g>
<g>
</g>
<g>
</g>
<g>
</g>
<g>
</g>
<g>
</g>
<g>
</g>
<g>
</g>
<g>
</g>
<g>
</g>
<g>
</g>
</svg>
