<?xml version="1.0" encoding="iso-8859-1"?>
<!-- Generator: Adobe Illustrator 19.0.0, SVG Export Plug-In . SVG Version: 6.00 Build 0)  -->
<svg version="1.1" id="Layer_1" xmlns="http://www.w3.org/2000/svg" xmlns:xlink="http://www.w3.org/1999/xlink" x="0px" y="0px"
	 viewBox="0 0 512 512" style="enable-background:new 0 0 512 512;" xml:space="preserve">
<path style="fill:#E8C1B5;" d="M85.336,362.215H70.114C31.454,362.215,0,330.585,0,291.706v-41.143
	c0-69.022,55.838-125.176,124.475-125.176h56.211c5.8,0,10.503,4.729,10.503,10.562c0,5.834-4.703,10.562-10.503,10.562h-56.211
	c-57.052,0-103.469,46.678-103.469,104.052v41.143c0,27.23,22.03,49.384,49.108,49.384h15.223c5.8,0,10.503,4.729,10.503,10.562
	C95.839,357.487,91.136,362.215,85.336,362.215z"/>
<path style="fill:#B8674D;" d="M508.785,349.301l-49.997,8.241l-7.543,1.243c-10.678,2.284-21.567,3.431-32.485,3.431H72.714
	c-20.81,0-36.463-19.066-32.542-39.618c15.989-83.96,83.182-141.141,175.758-141.141c106.503,0,157.565,81.425,157.565,81.425h3.47
	c22.545,0,43.557,11.519,55.758,30.596l33.712,21.217l43.757,27.539C513.194,344.115,512.274,348.733,508.785,349.301z"/>
<path style="fill:#91523D;" d="M63.077,322.6c15.308-80.382,77.554-136.212,164.072-140.824c-3.672-0.202-7.406-0.317-11.219-0.317
	c-92.576,0-159.77,57.181-175.758,141.141c-3.92,20.551,11.732,39.618,32.542,39.618H95.62
	C74.811,362.218,59.157,343.151,63.077,322.6z"/>
<path style="fill:#E8C1B5;" d="M508.785,349.301l-49.997,8.241c-6.02-17.322-0.134-32.118,7.649-42.847l43.757,27.539
	C513.194,344.115,512.274,348.733,508.785,349.301z"/>
<g>
	<path style="fill:#91523D;" d="M401.042,362.215L401.042,362.215c0-18.588-11.626-35.167-29.036-41.408l-57.181-11.556
		c-2.443-0.494-3.422,3.027-1.075,3.868l21.444,7.687c17.41,6.241,29.036,22.82,29.036,41.408l0,0H401.042z"/>
	<path style="fill:#91523D;" d="M219.433,362.215V337.34c0-22.26-13.922-42.115-34.772-49.589l-35.094-8.302
		c-1.996-0.472-2.853,2.426-0.922,3.119l14.458,5.183c20.85,7.474,34.772,27.328,34.772,49.589v24.875L219.433,362.215
		L219.433,362.215z"/>
</g>
<ellipse style="fill:#824A37;" cx="407.604" cy="298.841" rx="6.564" ry="6.573"/>
<path style="fill:#E8C1B5;" d="M228.467,386.612h-65.392c-1.933,0-3.5-1.567-3.5-3.5v-23.169c0-2.383,1.932-4.314,4.314-4.314
	h45.773c12.319,0,22.306,9.987,22.306,22.306v5.176C231.967,385.045,230.4,386.612,228.467,386.612z"/>
<path style="fill:#CCA295;" d="M181.132,383.11v-23.163c0-2.384,1.93-4.318,4.311-4.318h-21.558c-2.381,0-4.311,1.933-4.311,4.318
	v23.163c0,1.934,1.566,3.502,3.498,3.502h21.558C182.697,386.612,181.132,385.044,181.132,383.11z"/>
<g>
	<path style="fill:#E8C1B5;" d="M368.918,233.056c12.348-2.964,25.816,15.132,27.97,29.404c3.083,20.434-24.074,28.73-32.538,9.896
		C360.396,263.561,357.776,235.731,368.918,233.056z"/>
	<path style="fill:#E8C1B5;" d="M397.7,386.612h-59.345c-1.846,0-3.344-1.497-3.344-3.344v-23.326c0-2.383,1.932-4.314,4.314-4.314
		h40.414c11.766,0,21.303,9.538,21.303,21.303v6.337C401.042,385.115,399.546,386.612,397.7,386.612z"/>
</g>
<path style="fill:#CCA295;" d="M356.568,383.267v-23.32c0-2.384,1.93-4.318,4.311-4.318h-21.558c-2.381,0-4.311,1.933-4.311,4.318
	v23.32c0,1.847,1.496,3.346,3.341,3.346h21.558C358.065,386.612,356.568,385.114,356.568,383.267z"/>
<g>
</g>
<g>
</g>
<g>
</g>
<g>
</g>
<g>
</g>
<g>
</g>
<g>
</g>
<g>
</g>
<g>
</g>
<g>
</g>
<g>
</g>
<g>
</g>
<g>
</g>
<g>
</g>
<g>
</g>
</svg>
