<?xml version="1.0" encoding="iso-8859-1"?>
<!-- Generator: Adobe Illustrator 19.0.0, SVG Export Plug-In . SVG Version: 6.00 Build 0)  -->
<svg version="1.1" id="Layer_1" xmlns="http://www.w3.org/2000/svg" xmlns:xlink="http://www.w3.org/1999/xlink" x="0px" y="0px"
	 viewBox="0 0 512 512" style="enable-background:new 0 0 512 512;" xml:space="preserve">
<path style="fill:#F2E5CB;" d="M512,111.389v74.62c0,17.498-14.206,31.69-31.722,31.69c-1.596,0-2.997-0.775-3.869-1.981
	c-0.56-0.786-0.894-1.755-0.894-2.789v-101.54H512z"/>
<path style="fill:#D1C1A1;" d="M497.072,111.389v74.62c0,13.611-8.591,25.229-20.663,29.709c-0.56-0.786-0.894-1.755-0.894-2.789
	v-101.54H497.072z"/>
<path style="fill:#FBB071;" d="M500.264,97.175c6.482,0,11.736,5.252,11.736,11.729v1.971c0,19.635-10.63,36.797-26.457,46.036
	c-7.888,4.609-17.063,7.251-26.862,7.251c-1.782,0-3.395,0.722-4.563,1.88c-1.158,1.167-1.881,2.779-1.881,4.56v83.249
	c0,65.545-53.166,118.681-118.752,118.681H42.982v-37.055c0-68.424,55.502-123.894,123.968-123.894h110.855
	c1.424,0,2.755-0.706,3.555-1.885l45.073-66.523c19.489-28.766,51.988-45.998,86.751-45.998H500.264z"/>
<g>
	<path style="fill:#CC894F;" d="M303.864,209.698l45.073-66.523c19.49-28.767,64.247-46,64.247-46
		c-34.763,0-67.261,17.232-86.753,46l-45.073,66.523c-0.798,1.179-2.129,1.885-3.554,1.885h22.505
		C301.734,211.583,303.065,210.877,303.864,209.698z"/>
	<path style="fill:#CC894F;" d="M189.454,211.583h-22.505c-68.465,0-123.968,55.468-123.968,123.894v37.054h22.505v-37.054
		C65.487,267.051,120.989,211.583,189.454,211.583z"/>
</g>
<ellipse style="fill:#9E6A3D;" cx="432.598" cy="118.71" rx="8.084" ry="8.076"/>
<path style="fill:#FBB071;" d="M370.959,354.603v6.547h46.804c25.534,0,46.234,20.687,46.234,46.206v3.16
	c0,2.379-1.93,4.307-4.311,4.307H337.796c-16.668,0-30.181-13.498-30.181-30.149v-35.208c0-2.975,1.932-5.606,4.773-6.499
	l29.877-9.394C356.484,329.103,370.959,339.711,370.959,354.603z"/>
<path style="fill:#CC894F;" d="M329.172,384.031V358.82c0-10.471-10.177-17.93-20.176-14.786l-1.381,0.435v40.207
	c0,16.651,13.513,30.149,30.181,30.149h22.188C342.967,414.824,329.172,401.038,329.172,384.031z"/>
<path style="fill:#DE9556;" d="M39.654,364.672h94.314c2.267,0,4.105,1.838,4.105,4.105l0,0c0,25.431-20.616,46.047-46.047,46.047
	H4.671c-2.58,0-4.671-2.091-4.671-4.671v-5.828C0,382.426,17.754,364.672,39.654,364.672z"/>
<path style="fill:#9E6A3D;" d="M21.558,410.153v-5.828c0-21.9,17.772-39.654,39.695-39.654H39.695
	C17.772,364.672,0,382.426,0,404.326v5.828c0,2.58,2.093,4.671,4.675,4.671h21.558C23.651,414.824,21.558,412.733,21.558,410.153z"
	/>
<g>
</g>
<g>
</g>
<g>
</g>
<g>
</g>
<g>
</g>
<g>
</g>
<g>
</g>
<g>
</g>
<g>
</g>
<g>
</g>
<g>
</g>
<g>
</g>
<g>
</g>
<g>
</g>
<g>
</g>
</svg>
