<?xml version="1.0" encoding="iso-8859-1"?>
<!-- Generator: Adobe Illustrator 19.0.0, SVG Export Plug-In . SVG Version: 6.00 Build 0)  -->
<svg version="1.1" id="Layer_1" xmlns="http://www.w3.org/2000/svg" xmlns:xlink="http://www.w3.org/1999/xlink" x="0px" y="0px"
	 viewBox="0 0 512.001 512.001" style="enable-background:new 0 0 512.001 512.001;" xml:space="preserve">
<path style="fill:#BA7D48;" d="M271.401,327.586c0,0-126.579,82.965-221.101,92.17c-0.637,0.063-1.275,0.115-1.912,0.178
	c-16.457,1.421-31.89,0.564-45.474-3.417c-2.623-0.773-3.751-3.856-2.226-6.113c8.192-12.121,20.459-23.949,35.276-35.286
	c0.313-0.24,0.627-0.481,0.94-0.721c77.093-58.389,221.362-103.131,221.362-103.131L271.401,327.586z"/>
<path style="fill:#FBB071;" d="M509.731,95c4.211,5.555,1.913,17.986-1.634,23.625c-3.439,5.466-12.569,3.853-16.9,3.853
	c-1.432,0-2.726,0.578-3.667,1.509c-0.932,0.939-1.51,2.233-1.51,3.664v194.1c0,43.359-35.164,78.508-78.541,78.508H231.808
	c-1.906,0-3.451,1.544-3.451,3.449v13.726c0,1.905,1.544,3.449,3.45,3.449h14.382c4.702,0,8.963,1.88,12.078,4.94
	c3.201,3.121,5.176,7.475,5.176,12.304v3.734c0,2.38-1.93,4.31-4.311,4.31h-98.67c-1.906,0-3.451-1.544-3.451-3.449v-61.241
	c0-61.089,49.551-110.612,110.676-110.612h109.762c39.262,0,32.489-124.802,32.489-142.735V109.95
	c0-22.823,18.512-41.325,41.349-41.325c0,0,21.182-2.728,34.5,9.958C485.787,78.582,506.063,90.161,509.731,95z"/>
<g>
	<path style="fill:#CC894F;" d="M431.496,128.133v-18.184c0-20.464,14.887-37.443,34.424-40.736
		c-8.094-1.426-14.634-0.587-14.634-0.587c-22.836,0-41.349,18.501-41.349,41.325v18.184c0,17.934,6.772,142.735-32.489,142.735
		h21.558C438.269,270.869,431.496,146.066,431.496,128.133z"/>
	<path style="fill:#CC894F;" d="M178.569,442.723V381.48c0-61.089,49.551-110.612,110.676-110.612h-21.558
		c-61.124,0-110.676,49.523-110.676,110.612v61.242c0,1.905,1.545,3.448,3.451,3.448h21.558
		C180.114,446.171,178.569,444.627,178.569,442.723z"/>
</g>
<path style="fill:#F2E5CB;" d="M486.02,128.513v193.251c0,43.352-35.164,78.495-78.541,78.495H258.482
	c2.157-21.9,20.653-39.014,43.135-39.014H404.65c27.719,0,50.192-22.46,50.192-50.163V163.195
	C454.843,144.59,468.301,131.642,486.02,128.513z"/>
<path style="fill:#D1C1A1;" d="M331.125,361.245h-29.508c-22.482,0-40.979,17.114-43.135,39.014h29.507
	C290.147,378.359,308.644,361.245,331.125,361.245z"/>
<circle style="fill:#9E6A3D;" cx="467.969" cy="94.845" r="8.084"/>
<path style="fill:#EBDEC5;" d="M437.997,338.923v79.374h10.206c9.529,0,17.254,7.722,17.254,17.247v7.18
	c0,1.905-1.544,3.449-3.45,3.449h-67.145c-1.906,0-3.451-1.544-3.451-3.449v-61.381c0-19.279,8.215-37.647,22.588-50.504
	l1.966-1.759C424.479,321.46,437.997,327.502,437.997,338.923z"/>
<path style="fill:#CC894F;" d="M443.456,76.733c1.173-1.682,0.612-4.018-1.206-4.967c-7.978-4.171-28.243-12.542-38.507,3.486
	c-11.098,17.331,6.098,29.503,12.779,33.384c1.41,0.819,3.197,0.519,4.272-0.706C424.855,103.291,438.217,84.247,443.456,76.733z"/>
<path style="fill:#F2E5CB;" d="M432.435,80.82c0.65-0.931,0.339-2.224-0.668-2.75c-4.417-2.309-15.635-6.943-21.317,1.93
	c-6.144,9.594,3.376,16.333,7.075,18.481c0.781,0.453,1.77,0.287,2.365-0.391C422.137,95.523,429.534,84.98,432.435,80.82z"/>
<path style="fill:#9E6A3D;" d="M48.389,419.934c-16.457,1.421-31.89,0.564-45.474-3.417c-2.623-0.773-3.751-3.856-2.226-6.113
	c8.192-12.121,20.459-23.949,35.276-35.286c-4.002,10.125-8.098,19.038-12.685,25.966c-1.567,2.351-0.408,5.548,2.267,6.353
	C32.527,409.506,40.207,414.03,48.389,419.934z"/>
<g>
</g>
<g>
</g>
<g>
</g>
<g>
</g>
<g>
</g>
<g>
</g>
<g>
</g>
<g>
</g>
<g>
</g>
<g>
</g>
<g>
</g>
<g>
</g>
<g>
</g>
<g>
</g>
<g>
</g>
</svg>
