<?xml version="1.0" encoding="iso-8859-1"?>
<!-- Generator: Adobe Illustrator 19.0.0, SVG Export Plug-In . SVG Version: 6.00 Build 0)  -->
<svg version="1.1" id="Layer_1" xmlns="http://www.w3.org/2000/svg" xmlns:xlink="http://www.w3.org/1999/xlink" x="0px" y="0px"
	 viewBox="0 0 512.001 512.001" style="enable-background:new 0 0 512.001 512.001;" xml:space="preserve">
<g>
	<path style="fill:#E64B3C;" d="M427.165,33.437h-0.002c-1.67,0-3.023,1.353-3.023,3.023v24.221c0-1.296-1.05-2.345-2.345-2.345
		h-0.002c-18.55,0-33.587,15.037-33.587,33.587v34.907c0,14.962,12.129,27.091,27.091,27.091h4.66c2.31,0,4.183-1.872,4.183-4.183
		v1.514c0,2.978,2.414,5.392,5.391,5.392h6.007c19.286,0,34.919-15.634,34.919-34.918V76.73
		C470.457,52.82,451.074,33.437,427.165,33.437z"/>
	<path style="fill:#E64B3C;" d="M90.207,58.336h-0.002c-1.295,0-2.345,1.049-2.345,2.345V36.46c0-1.67-1.353-3.023-3.023-3.023
		h-0.002c-23.91,0-43.292,19.383-43.292,43.293v44.994c0,19.286,15.634,34.918,34.919,34.918h6.007c2.977,0,5.391-2.414,5.391-5.392
		v-1.514c0,2.31,1.872,4.183,4.183,4.183h4.66c14.962,0,27.091-12.128,27.091-27.091V91.922
		C123.795,73.373,108.758,58.336,90.207,58.336z"/>
</g>
<g>
	<path style="fill:#B53C2F;" d="M224.185,220.649c-4.465,0-8.084-3.618-8.084-8.083v-61.495c0-4.465,3.62-8.083,8.084-8.083
		s8.084,3.618,8.084,8.083v61.495C232.27,217.031,228.65,220.649,224.185,220.649z"/>
	<path style="fill:#B53C2F;" d="M287.815,220.649c-4.465,0-8.084-3.618-8.084-8.083v-61.495c0-4.465,3.62-8.083,8.084-8.083
		c4.465,0,8.084,3.618,8.084,8.083v61.495C295.9,217.031,292.28,220.649,287.815,220.649z"/>
</g>
<g>
	<path style="fill:#D44637;" d="M92.043,153.92h4.66c14.962,0,27.091-12.129,27.091-27.091V91.922
		c0-18.55-15.037-33.587-33.587-33.587h-0.002c-1.295,0-2.345,1.05-2.345,2.345v89.057C87.861,152.048,89.733,153.92,92.043,153.92z
		"/>
	<path style="fill:#D44637;" d="M179.525,224.499h-59.783c-22.614,0-41.01-18.425-41.01-41.073v-36.055
		c0-5.049,4.088-9.143,9.129-9.143c5.042,0,9.129,4.093,9.129,9.143v36.055c0,12.565,10.207,22.787,22.753,22.787h59.783
		c5.042,0,9.129,4.093,9.129,9.143C188.655,220.406,184.567,224.499,179.525,224.499z"/>
	<path style="fill:#D44637;" d="M419.957,153.92h-4.66c-14.962,0-27.091-12.129-27.091-27.091V91.922
		c0-18.55,15.037-33.587,33.587-33.587h0.002c1.295,0,2.345,1.05,2.345,2.345v89.057C424.14,152.048,422.268,153.92,419.957,153.92z
		"/>
	<path style="fill:#D44637;" d="M332.475,224.499h59.783c22.614,0,41.01-18.425,41.01-41.073v-36.055
		c0-5.049-4.088-9.143-9.129-9.143c-5.042,0-9.129,4.093-9.129,9.143v36.055c0,12.565-10.207,22.787-22.753,22.787h-59.783
		c-5.042,0-9.129,4.093-9.129,9.143C323.346,220.406,327.434,224.499,332.475,224.499z"/>
	<path style="fill:#D44637;" d="M11.885,281.309c-5.003,0.001-9.658-3.19-11.295-8.212c-2.037-6.248,1.371-12.968,7.61-15.008
		l35.55-11.622c23.155-7.572,47.81-8.152,71.298-1.68l35.093,9.668c6.328,1.744,10.048,8.295,8.307,14.633
		c-1.741,6.338-8.284,10.062-14.611,8.319l-35.094-9.668c-18.981-5.23-38.904-4.759-57.618,1.357l-35.55,11.622
		C14.351,281.119,13.108,281.309,11.885,281.309z"/>
	<path style="fill:#D44637;" d="M19.391,352.21c-4.886,1.08-10.118-1.031-12.796-5.583c-3.333-5.662-1.45-12.959,4.204-16.297
		l32.215-19.018c20.983-12.39,44.935-18.275,69.262-17.022l36.349,1.871c6.555,0.338,11.595,5.933,11.259,12.497
		c-0.336,6.565-5.925,11.613-12.478,11.277l-36.349-1.87c-19.66-1.013-39.014,3.745-55.973,13.755l-32.215,19.018
		C21.757,351.493,20.584,351.946,19.391,352.21z"/>
	<path style="fill:#D44637;" d="M54.056,424.131c-4.473,2.244-10.062,1.477-13.771-2.279c-4.614-4.674-4.57-12.211,0.097-16.831
		l26.594-26.33c17.32-17.153,39.108-28.725,63.003-33.468l35.702-7.088c6.439-1.278,12.692,2.913,13.968,9.36
		c1.277,6.448-2.91,12.711-9.347,13.99l-35.703,7.089c-19.31,3.834-36.915,13.186-50.916,27.046L57.09,421.95
		C56.176,422.856,55.149,423.583,54.056,424.131z"/>
	<path style="fill:#D44637;" d="M99.641,476.309c-3.91,2.89-9.385,3.085-13.555,0.104c-5.189-3.707-6.395-10.926-2.692-16.124
		l21.093-29.612c13.738-19.29,32.674-33.98,54.758-42.484l32.995-12.708c5.95-2.291,12.629,0.681,14.916,6.64
		c2.288,5.959-0.681,12.647-6.63,14.939l-32.995,12.708c-17.846,6.873-33.147,18.745-44.252,34.332l-21.093,29.612
		C101.459,474.736,100.596,475.603,99.641,476.309z"/>
	<path style="fill:#D44637;" d="M500.116,281.309c5.003,0.001,9.658-3.19,11.295-8.212c2.036-6.248-1.371-12.968-7.61-15.008
		l-35.549-11.622c-23.155-7.572-47.81-8.152-71.298-1.68l-35.093,9.668c-6.328,1.744-10.048,8.295-8.307,14.633
		c1.741,6.338,8.284,10.062,14.611,8.319l35.094-9.668c18.981-5.23,38.904-4.759,57.618,1.357l35.549,11.622
		C497.65,281.119,498.893,281.309,500.116,281.309z"/>
	<path style="fill:#D44637;" d="M492.61,352.21c4.886,1.08,10.118-1.031,12.796-5.583c3.333-5.662,1.45-12.959-4.204-16.297
		l-32.215-19.018c-20.983-12.39-44.934-18.275-69.262-17.022l-36.349,1.871c-6.555,0.338-11.595,5.933-11.259,12.497
		c0.336,6.565,5.925,11.613,12.478,11.277l36.349-1.87c19.66-1.013,39.014,3.745,55.973,13.755l32.215,19.018
		C490.244,351.493,491.417,351.946,492.61,352.21z"/>
	<path style="fill:#D44637;" d="M457.945,424.131c4.473,2.244,10.062,1.477,13.771-2.279c4.614-4.674,4.57-12.211-0.097-16.831
		l-26.594-26.33c-17.32-17.153-39.108-28.725-63.003-33.468l-35.702-7.088c-6.439-1.278-12.692,2.913-13.968,9.36
		c-1.277,6.448,2.91,12.711,9.347,13.99l35.703,7.089c19.31,3.834,36.915,13.186,50.916,27.046l26.594,26.33
		C455.825,422.856,456.852,423.583,457.945,424.131z"/>
	<path style="fill:#D44637;" d="M412.36,476.309c3.91,2.89,9.385,3.085,13.555,0.104c5.189-3.707,6.395-10.926,2.692-16.124
		l-21.093-29.612c-13.738-19.29-32.674-33.98-54.758-42.484l-32.995-12.708c-5.95-2.291-12.629,0.681-14.917,6.64
		c-2.288,5.959,0.681,12.647,6.63,14.939l32.995,12.708c17.846,6.873,33.147,18.745,44.251,34.332l21.094,29.612
		C410.542,474.736,411.405,475.603,412.36,476.309z"/>
</g>
<path style="fill:#FF5845;" d="M260.268,415.571h-8.534c-68.987,0-124.913-55.925-124.913-124.913v-22.66
	c0-46.48,37.679-84.159,84.159-84.159h90.041c46.48,0,84.159,37.679,84.159,84.159v22.66
	C385.18,359.646,329.255,415.571,260.268,415.571z"/>
<path style="fill:#B53C2F;" d="M148.378,290.664v-22.67c0-46.478,37.681-84.155,84.163-84.155h-21.558
	c-46.482,0-84.163,37.677-84.163,84.155v22.67c0,68.984,55.928,124.907,124.92,124.907h8.521c2.186,0,4.359-0.056,6.518-0.168
	C200.818,412.012,148.378,357.462,148.378,290.664z"/>
<path style="fill:#FF5845;" d="M421.876,169.615h14.911c18.596,0,33.671-15.075,33.671-33.671V98.493h-82.251v37.451
	C388.206,154.541,403.281,169.615,421.876,169.615z"/>
<path style="fill:#B53C2F;" d="M409.764,135.947V98.493h-21.558v37.453c0,18.595,15.076,33.669,33.672,33.669h14.908
	c1.122,0,2.231-0.057,3.325-0.165C423.075,167.78,409.764,153.419,409.764,135.947z"/>
<path style="fill:#FF5845;" d="M90.125,169.615H75.214c-18.596,0-33.671-15.075-33.671-33.671V98.493h82.251v37.451
	C123.795,154.541,108.72,169.615,90.125,169.615z"/>
<path style="fill:#B53C2F;" d="M63.093,135.947V98.493h-21.55v37.453c0,18.595,15.076,33.669,33.672,33.669h14.908
	c1.121,0,2.228-0.057,3.321-0.164C76.406,167.783,63.093,153.421,63.093,135.947z"/>
<g>
	<ellipse style="fill:#FFC3BD;" cx="224.183" cy="145.45" rx="13.967" ry="13.988"/>
	<ellipse style="fill:#FFC3BD;" cx="287.818" cy="145.45" rx="13.967" ry="13.988"/>
</g>
<g>
	<path style="fill:#B53C2F;" d="M224.185,167.519c-12.158,0-22.052-9.901-22.052-22.071c0-12.17,9.892-22.071,22.052-22.071
		s22.05,9.901,22.05,22.071C246.236,157.618,236.344,167.519,224.185,167.519z M224.185,139.543c-3.243,0-5.883,2.649-5.883,5.905
		c0,3.256,2.639,5.905,5.883,5.905c3.243,0,5.882-2.649,5.882-5.905C230.067,142.192,227.429,139.543,224.185,139.543z"/>
	<path style="fill:#B53C2F;" d="M287.815,167.519c-12.159,0-22.05-9.901-22.05-22.071c0-12.17,9.892-22.071,22.05-22.071
		s22.052,9.901,22.052,22.071C309.867,157.618,299.975,167.519,287.815,167.519z M287.815,139.543c-3.243,0-5.882,2.649-5.882,5.905
		c0,3.256,2.639,5.905,5.882,5.905c3.243,0,5.883-2.649,5.883-5.905C293.698,142.192,291.06,139.543,287.815,139.543z"/>
</g>
<g>
</g>
<g>
</g>
<g>
</g>
<g>
</g>
<g>
</g>
<g>
</g>
<g>
</g>
<g>
</g>
<g>
</g>
<g>
</g>
<g>
</g>
<g>
</g>
<g>
</g>
<g>
</g>
<g>
</g>
</svg>
