<?xml version="1.0" encoding="iso-8859-1"?>
<!-- Generator: Adobe Illustrator 19.0.0, SVG Export Plug-In . SVG Version: 6.00 Build 0)  -->
<svg version="1.1" id="Layer_1" xmlns="http://www.w3.org/2000/svg" xmlns:xlink="http://www.w3.org/1999/xlink" x="0px" y="0px"
	 viewBox="0 0 512 512" style="enable-background:new 0 0 512 512;" xml:space="preserve">
<g>
	<path style="fill:#91523D;" d="M317.9,405.242l-3.31,16.797c-0.429,2.187-2.334,3.757-4.553,3.757h-49.3
		c-2.799,0-4.982-2.419-4.716-5.199l2.695-27.952l13.844-110.111l62.668-23.706l-35.259,126.559
		c-0.116,0.558-0.139,1.117-0.046,1.663c0.163,1.233,0.824,2.35,1.858,3.105l14.296,10.422
		C317.539,401.635,318.26,403.462,317.9,405.242z"/>
	<path style="fill:#91523D;" d="M199.86,425.795h-39.707c-1.707,0-3.275-0.918-4.112-2.396l-15.365-27.044
		c0,0-22.38-17.57-22.484-17.93l-11.138-39.246L96.45,308.02l81.656-15.412l-16.898,70.312
		c-0.175,0.814,13.937,22.525,13.937,22.525c0.023,0.082,0.059,0.163,0.093,0.245c0.406,1.07,1.196,1.942,2.195,2.477l20.103,10.562
		c1.196,0.628,2.055,1.733,2.393,3.048l4.518,18.123C205.202,422.899,202.937,425.795,199.86,425.795z"/>
</g>
<g>
	<path style="fill:#F2E5CB;" d="M199.86,425.795h-39.707c-1.707,0-3.275-0.918-4.112-2.396l-15.365-27.044l34.562-10.666
		c0.406,1.07,1.196,1.942,2.195,2.477l20.103,10.562c1.196,0.628,2.055,1.733,2.393,3.048l4.518,18.123
		C205.202,422.899,202.937,425.795,199.86,425.795z"/>
	<path style="fill:#F2E5CB;" d="M317.9,405.242l-3.31,16.797c-0.429,2.187-2.334,3.757-4.553,3.757h-49.3
		c-2.799,0-4.982-2.419-4.716-5.199l2.695-27.952l41.206-5.594c0.163,1.233,0.824,2.35,1.858,3.105l14.296,10.422
		C317.539,401.635,318.26,403.462,317.9,405.242z"/>
</g>
<path style="fill:#2F3F4A;" d="M82.083,197.449c-15.507-14.366-42.697-47.273-41.191-100.433c0.12-4.246-3.262-7.766-7.504-7.766
	l0,0c-19.858,0-35.404,17.273-33.174,37.037c4.158,36.853,22.681,82.571,61.793,105.051c9.302,5.346,21.229-1.751,25.142-11.753l0,0
	C90.171,211.861,88.162,203.081,82.083,197.449z"/>
<path style="fill:#232F38;" d="M23.149,126.286c-1.357-12.027,3.873-23.125,12.648-29.973c2.881-2.249,1.367-7.005-2.288-7.062
	c-0.041-0.001-0.08-0.001-0.121-0.001l0,0c-19.858,0-35.403,17.273-33.174,37.037c4.158,36.854,22.681,82.571,61.793,105.051
	c6.037,3.469,13.177,1.695,18.518-2.71C44.434,205.337,27.145,161.719,23.149,126.286z"/>
<path style="fill:#B8674D;" d="M512,115.743v12.662c0,15.515-12.558,28.091-28.047,28.091H421.88c-2.235,0-4.1,1.708-4.296,3.936
	l-7.486,85.515c-3.117,35.608-11.674,70.529-25.372,103.543l-12.63,30.44c0.046,0.349,0.127,0.687,0.243,1
	c0.372,1.024,1.08,1.897,2.021,2.466l22.705,13.4c1.417,0.861,2.3,2.407,2.3,4.071l-3.031,20.181c0,2.617-2.125,4.746-4.739,4.746
	h-49.857c-2.184,0-4.099-1.512-4.599-3.64l-6.945-29.022l-4.933-72.52c-0.488-2.071-182.297-1.509-182.297-1.509
	c-1.254-0.047-2.473,0.408-3.391,1.256l-62.47,46.678c-0.883,0.814-2.032,1.267-3.229,1.267H34.319c-2.617,0-4.739,2.122-4.739,4.74
	v16.007c0,0.501,0.082,0.988,0.232,1.442c0.29,0.931,0.871,1.756,1.66,2.35l10.963,8.236c0.871,0.651,1.498,1.582,1.753,2.64
	l4.042,16.18c0.743,3.001-1.51,5.897-4.587,5.897H4.739C2.121,425.795,0,423.673,0,421.057v-97.895c0-1.838,1.056-3.513,2.718-4.292
	l32.425-3.8c1.66-0.78,2.729-2.454,2.729-4.292v-46.028c0-38.607,28.674-71.199,66.906-76.05l185.168-23.508l42.127-56.233
	c10.73-14.325,27.566-22.754,45.445-22.754h27.612c8.188,0,16.038,3.28,21.799,9.084l6.678,6.735
	c5.761,5.804,13.611,9.073,21.787,9.073h51.96C509.921,111.096,512,113.177,512,115.743z"/>
<g>
	<path style="fill:#91523D;" d="M306.016,158.838c5.108-0.649,9.736-3.342,12.824-7.464l37.296-49.785
		c4.699-6.271,10.568-11.412,17.182-15.212c-16.29,1.209-31.359,9.383-41.244,22.578l-38.557,51.469L306.016,158.838z"/>
	<path style="fill:#91523D;" d="M358.518,422.155l-6.945-29.022l-4.125-57.75c-0.476-6.675-5.928-11.901-12.616-12.089
		c-2.743-0.076-5.901-0.146-9.402-0.21l4.766,70.049l6.945,29.022c0.499,2.128,2.416,3.64,4.599,3.64h21.379
		C360.934,425.795,359.018,424.283,358.518,422.155z"/>
	<path style="fill:#91523D;" d="M56.522,309.93c1.66-0.779,2.729-2.454,2.729-4.292v-40.889c0-30.65,19.773-62.133,47.05-76.243
		l-1.521,0.193c-38.232,4.85-66.906,37.444-66.906,76.05v46.028c0,0.9-0.259,1.76-0.716,2.495L56.522,309.93z"/>
	<path style="fill:#91523D;" d="M21.707,422.787V319.76c0-1.243,0.492-2.405,1.32-3.273l-20.309,2.38
		C1.056,319.647,0,321.322,0,323.161v97.888c0,2.622,2.121,4.746,4.739,4.746h17.497C21.859,424.975,21.707,423.937,21.707,422.787z
		"/>
</g>
<g>
	<path style="fill:#F2E5CB;" d="M43.644,425.795H4.727c-2.613,0-4.727-2.128-4.727-4.746v-26.765l29.812-3.792
		c0.29,0.931,0.871,1.756,1.66,2.35l10.963,8.236c0.871,0.651,1.498,1.582,1.753,2.64l4.042,16.18
		C48.974,422.899,46.722,425.795,43.644,425.795z"/>
	<path style="fill:#F2E5CB;" d="M399.366,400.868l-3.031,20.181c0,2.617-2.125,4.746-4.739,4.746h-49.857
		c-2.184,0-4.099-1.512-4.599-3.64l-6.945-29.022l42.146-12.202c0.372,1.024,1.08,1.897,2.021,2.466l22.705,13.4
		C398.483,397.657,399.366,399.205,399.366,400.868z"/>
</g>
<circle style="fill:#703F2F;" cx="410.143" cy="116.589" r="8.084"/>
<path style="fill:#2F3F4A;" d="M329.169,162.764L329.169,162.764c-5.312-0.028-9.456-4.615-8.956-9.912l2.962-31.295
	c1.905-20.122,18.828-35.46,39.008-35.353l21.727,0.114l-20.756,53.314C357.699,153.645,344.186,162.843,329.169,162.764z"/>
<g>
</g>
<g>
</g>
<g>
</g>
<g>
</g>
<g>
</g>
<g>
</g>
<g>
</g>
<g>
</g>
<g>
</g>
<g>
</g>
<g>
</g>
<g>
</g>
<g>
</g>
<g>
</g>
<g>
</g>
</svg>
