<?xml version="1.0" encoding="iso-8859-1"?>
<!-- Generator: Adobe Illustrator 19.0.0, SVG Export Plug-In . SVG Version: 6.00 Build 0)  -->
<svg version="1.1" id="Layer_1" xmlns="http://www.w3.org/2000/svg" xmlns:xlink="http://www.w3.org/1999/xlink" x="0px" y="0px"
	 viewBox="0 0 512 512" style="enable-background:new 0 0 512 512;" xml:space="preserve">
<path style="fill:#B8674D;" d="M74.699,231.964c-14.355-0.47-53.834,2.675-74.312,48.399c-1.207,2.694,0.534,5.788,3.468,6.135
	c11.383,1.347,37.201,2.486,52.205-11.942c13.947-13.412,20.198-29.021,22.651-36.956C79.558,234.859,77.568,232.058,74.699,231.964
	z"/>
<path style="fill:#91523D;" d="M327.932,482.659l-3.073,16.114c-0.363,1.918-1.928,3.298-3.742,3.298h-36.214
	c-2.491,0-4.438-2.333-4.199-5.029l2.023-25.426l12.723-160.009l47.849-22.937l-33.214,176.404
	c-0.095,0.509-0.106,1.017-0.019,1.514c0.182,1.213,0.859,2.291,1.88,2.925l14.125,8.689
	C327.512,479.093,328.266,480.886,327.932,482.659z"/>
<path style="fill:#B8674D;" d="M327.932,482.659l-3.073,16.114c-0.363,1.918-1.928,3.298-3.742,3.298h-36.214
	c-2.491,0-4.438-2.333-4.199-5.029l2.023-25.426l27.339-5.029c0.182,1.213,0.859,2.291,1.88,2.925l14.125,8.689
	C327.512,479.093,328.266,480.886,327.932,482.659z"/>
<path style="fill:#91523D;" d="M111.908,406.155v56.129c0,0.954,0.322,1.866,0.904,2.582c0.29,0.373,0.644,0.684,1.06,0.944
	l16.853,10.401c0.997,0.622,1.693,1.638,1.901,2.789l3.312,18.177c0.467,2.551-1.495,4.894-4.08,4.894H90.996
	c-2.295,0-4.153-1.856-4.153-4.148V383.829l12.886-69.962l82.55,15.554l-45.283,74.659L111.908,406.155z"/>
<path style="fill:#B8674D;" d="M131.855,502.071h-40.86c-2.295,0-4.153-1.856-4.153-4.148v-28.578l25.97-4.479
	c0.29,0.373,0.644,0.684,1.06,0.944l16.853,10.401c0.997,0.622,1.693,1.638,1.901,2.789l3.312,18.177
	C136.403,499.727,134.44,502.071,131.855,502.071z"/>
<path style="fill:#C97E67;" d="M512,107.307v19.719c0,15.723-14.2,27.644-29.711,24.942l-52.019-9.062
	c0,0,7.66,78.747-0.408,147.262c-1.561,13.258-5.377,26.157-11.209,38.168c-28.62,58.94-36.002,132.332-36.002,132.332
	c0.063,0.509,0.218,0.996,0.446,1.431c0.28,0.539,0.675,1.006,1.163,1.379l21.546,16.394c1.308,0.996,1.901,2.666,1.516,4.262
	l-3.541,14.756c-0.446,1.866-2.108,3.184-4.04,3.184h-38.71c-2.118,0-3.977-1.451-4.465-3.525l-5.815-28.132l-1.671-112.612
	c-0.478-2.011-2.243-3.452-4.309-3.515l-206.904-7.289c-1.215-0.042-2.399,0.394-3.291,1.234l-60.641,56.233
	c-0.852,0.788-1.973,1.224-3.136,1.224H50.791c-2.54,0-4.6,2.056-4.6,4.593v56.223c0,0.747,0.187,1.472,0.53,2.116
	c0.301,0.601,0.747,1.14,1.308,1.556l10.643,7.974c0.841,0.632,1.453,1.545,1.703,2.551l3.925,15.679
	c0.717,2.893-1.464,5.693-4.454,5.693H22.07c-2.535,0-4.589-2.052-4.589-4.583V379.919c0-1.784,1.028-3.401,2.637-4.158
	l13.104-14.735c1.609-0.757,2.637-2.375,2.637-4.148v-62.486c0-37.371,27.828-68.905,64.939-73.612l157.893,1.44
	c31.854,0.29,60.344-19.742,70.806-49.789l32.954-94.632c0.611-1.753,2.266-2.929,4.125-2.929h51.263
	c7.954,0,15.565,3.173,21.162,8.793l6.479,6.522c5.596,5.621,13.218,8.782,21.152,8.782h37.018
	C508.262,98.969,512,102.703,512,107.307z"/>
<g>
	<path style="fill:#B06750;" d="M38.768,497.488V379.919c0-1.784,1.028-3.401,2.637-4.159l13.104-14.735
		c1.609-0.757,2.637-2.374,2.637-4.147v-62.486c0-33.885,22.878-64.571,54.81-73.511l-11.16-0.101
		c-37.111,4.707-64.939,36.24-64.939,73.612v62.486c0,1.773-1.028,3.391-2.637,4.147l-13.104,14.735
		c-1.609,0.758-2.637,2.375-2.637,4.159v117.568c0,2.532,2.055,4.583,4.589,4.583h21.289
		C40.823,502.071,38.768,500.019,38.768,497.488z"/>
	<path style="fill:#B06750;" d="M279.98,220.274c31.854,0.29,60.344-19.742,70.806-49.789l32.954-94.632
		c0.123-0.355,0.3-0.679,0.502-0.981h-17.665c-1.86,0-3.515,1.176-4.125,2.929l-32.954,94.632
		c-8.47,24.322-28.754,42.078-53.069,47.808L279.98,220.274z"/>
	<path style="fill:#B06750;" d="M377.854,498.546l-5.815-28.132l-1.671-110.673c-0.478-2.011-2.243-3.453-4.309-3.515l-18.259-0.644
		c0.612,0.592,1.072,1.347,1.28,2.22l1.671,112.612l5.815,28.132c0.488,2.074,2.347,3.525,4.465,3.525h21.289
		C380.201,502.071,378.344,500.62,377.854,498.546z"/>
</g>
<g>
	<path style="fill:#B8674D;" d="M59.845,502.071H22.07c-2.544,0-4.589-2.053-4.589-4.593v-24.513l29.24-4.345
		c0.301,0.601,0.747,1.14,1.308,1.556l10.643,7.974c0.841,0.632,1.453,1.545,1.703,2.551l3.925,15.679
		C65.016,499.271,62.836,502.071,59.845,502.071z"/>
	<path style="fill:#B8674D;" d="M407.323,484.132l-3.541,14.756c-0.446,1.866-2.108,3.184-4.04,3.184h-38.71
		c-2.118,0-3.977-1.451-4.465-3.525l-5.815-28.132l32.346-8.316c0.28,0.539,0.675,1.006,1.163,1.379l21.546,16.394
		C407.115,480.866,407.706,482.535,407.323,484.132z"/>
</g>
<ellipse style="fill:#91523D;" cx="428.867" cy="106.034" rx="8.084" ry="8.077"/>
<path style="fill:#F2E5CB;" d="M512,32.753V48.8c0,16.079-13.053,29.113-29.154,29.113H313.797
	c-16.101,0-29.154-13.034-29.154-29.113V32.753c0-12.608,10.235-22.829,22.86-22.829h5.797v24.768h23.111v-7.322
	c0-9.636,7.822-17.447,17.471-17.447h11.931v33.988h65.015V9.924h11.931c9.649,0,17.471,7.812,17.471,17.447v7.322h23.111V9.924
	h5.797C501.765,9.924,512,20.145,512,32.753z"/>
<g>
</g>
<g>
</g>
<g>
</g>
<g>
</g>
<g>
</g>
<g>
</g>
<g>
</g>
<g>
</g>
<g>
</g>
<g>
</g>
<g>
</g>
<g>
</g>
<g>
</g>
<g>
</g>
<g>
</g>
</svg>
