<?xml version="1.0" encoding="iso-8859-1"?>
<!-- Generator: Adobe Illustrator 19.0.0, SVG Export Plug-In . SVG Version: 6.00 Build 0)  -->
<svg version="1.1" id="Layer_1" xmlns="http://www.w3.org/2000/svg" xmlns:xlink="http://www.w3.org/1999/xlink" x="0px" y="0px"
	 viewBox="0 0 512.001 512.001" style="enable-background:new 0 0 512.001 512.001;" xml:space="preserve">
<g>
	<path style="fill:#FF5845;" d="M247.169,171.645c-0.327,0-0.657-0.02-0.991-0.061c-4.424-0.539-7.574-4.552-7.047-8.968l0,0
		c0.256-2.212,5.67-54.442-47.855-78.199c-4.08-1.81-5.917-6.582-4.104-10.656c1.813-4.073,6.591-5.912,10.671-4.099
		c33.735,14.972,47.56,39.934,53.217,58.237c6.098,19.73,4.209,35.969,4.125,36.651
		C254.683,168.643,251.196,171.645,247.169,171.645z"/>
	<path style="fill:#FF5845;" d="M264.828,171.633c-4.027,0-7.509-2.991-8.01-7.082c-0.084-0.682-1.973-16.922,4.125-36.651
		c5.657-18.303,19.481-43.264,53.217-58.237c4.082-1.814,8.858,0.024,10.671,4.099c1.813,4.074-0.024,8.846-4.104,10.656
		c-53.525,23.757-48.112,75.987-47.855,78.199c0.513,4.419-2.65,8.433-7.073,8.959C265.47,171.614,265.147,171.633,264.828,171.633z
		"/>
</g>
<g>
	<path style="fill:#FBD476;" d="M246.113,213.165c0,0-63.303-114.652-177.704-114.757c-136.493-0.124-35.25,158.104,16.663,190.793
		c0,0-39.095,32.69,12.177,49.355c0,0-49.669,111.208,17.624,104.159s74.933-126.847,131.238-124.636V213.165H246.113z"/>
	<path style="fill:#FBD476;" d="M265.887,213.165c0,0,63.303-114.652,177.704-114.757c136.493-0.124,35.25,158.105-16.663,190.794
		c0,0,39.095,32.69-12.177,49.355c0,0,49.669,111.208-17.624,104.159c-67.294-7.05-74.933-126.847-131.238-124.636V213.165H265.887z
		"/>
</g>
<g>
	<path style="fill:#CCA75E;" d="M113.477,337.079c-35.629-13.54-19.675-35.786-11.613-44.357c1.778-1.891,1.464-4.901-0.642-6.42
		c-51.466-37.144-140.241-180-22.639-187.575c-3.346-0.204-6.735-0.316-10.174-0.319c-136.493-0.124-35.25,158.105,16.663,190.794
		c0,0-39.095,32.69,12.177,49.355c0,0-49.669,111.208,17.624,104.159c1.745-0.183,3.442-0.46,5.109-0.79
		c-37.928-9.715-11.44-81.128-4.053-99.214C116.841,340.481,115.731,337.936,113.477,337.079z"/>
	<path style="fill:#CCA75E;" d="M292.187,307.761v-99.752c0,0,52.559-97.958,161.663-109.282c-3.262-0.21-6.675-0.322-10.26-0.319
		c-114.4,0.104-177.704,114.757-177.704,114.757v104.913c56.305-2.211,63.945,117.585,131.238,124.636
		c6.006,0.629,11.064,0.302,15.326-0.79C349.847,429.515,342.232,320.32,292.187,307.761z"/>
</g>
<g>
	<circle style="fill:#FF5845;" cx="96.737" cy="170.245" r="26.321"/>
	<circle style="fill:#FF5845;" cx="154.583" cy="235.259" r="17.441"/>
	<circle style="fill:#FF5845;" cx="415.264" cy="170.245" r="26.321"/>
	<circle style="fill:#FF5845;" cx="357.418" cy="235.259" r="17.441"/>
	<circle style="fill:#FF5845;" cx="147.77" cy="317.231" r="17.441"/>
	<circle style="fill:#FF5845;" cx="364.231" cy="317.231" r="17.441"/>
</g>
<path style="fill:#2F3F4A;" d="M258.29,334.678h-4.578c-9.129,0-16.598-7.469-16.598-16.598V213.164
	c0-9.129,7.469-16.598,16.598-16.598h4.578c9.129,0,16.598,7.469,16.598,16.598v104.915
	C274.887,327.209,267.418,334.678,258.29,334.678z"/>
<path style="fill:#232F38;" d="M257.548,318.091V213.154c0-6.256,3.515-11.73,8.67-14.553c-2.363-1.294-5.069-2.033-7.939-2.033
	h-4.556c-9.134,0-16.609,7.465-16.609,16.587v104.937c0,9.123,7.474,16.587,16.609,16.587h4.556c2.871,0,5.577-0.739,7.939-2.033
	C261.063,329.82,257.548,324.346,257.548,318.091z"/>
<circle style="fill:#2F3F4A;" cx="256" cy="176.128" r="20.434"/>
<path style="fill:#232F38;" d="M256,176.13c0-7.56,4.115-14.145,10.217-17.68c-3.008-1.743-6.491-2.756-10.217-2.756
	c-11.286,0-20.434,9.15-20.434,20.436c0,11.287,9.149,20.437,20.434,20.437c3.726,0,7.209-1.014,10.217-2.756
	C260.115,190.275,256,183.69,256,176.13z"/>
<g>
</g>
<g>
</g>
<g>
</g>
<g>
</g>
<g>
</g>
<g>
</g>
<g>
</g>
<g>
</g>
<g>
</g>
<g>
</g>
<g>
</g>
<g>
</g>
<g>
</g>
<g>
</g>
<g>
</g>
</svg>
