<?xml version="1.0" encoding="iso-8859-1"?>
<!-- Generator: Adobe Illustrator 19.0.0, SVG Export Plug-In . SVG Version: 6.00 Build 0)  -->
<svg version="1.1" id="Layer_1" xmlns="http://www.w3.org/2000/svg" xmlns:xlink="http://www.w3.org/1999/xlink" x="0px" y="0px"
	 viewBox="0 0 512 512" style="enable-background:new 0 0 512 512;" xml:space="preserve">
<path style="fill:#F2E5CB;" d="M157.916,332.632l47.268,13.116c2.959,0.821,4.136,4.376,2.252,6.801
	c-10.312,13.278-41.835,47.099-90.407,39.134c-2.551-0.418-4.25-2.879-3.793-5.433C115.945,371.097,126.942,324.038,157.916,332.632
	z"/>
<path style="fill:#D1C1A1;" d="M140.168,391.682c-2.551-0.418-4.25-2.879-3.793-5.433c2.112-11.807,9.257-42.987,26.965-52.111
	l-5.424-1.505c-30.974-8.594-41.97,38.466-44.68,53.617c-0.457,2.555,1.242,5.016,3.793,5.433c9.287,1.523,17.949,1.516,25.96,0.419
	C142.055,391.977,141.115,391.838,140.168,391.682z"/>
<path style="fill:#38ACC4;" d="M100.039,308.223L7.236,365.194c-3.951,2.425-8.678-1.698-6.819-5.957
	c8.628-19.778,27.026-54.443,49.993-54.443c-22.966,0-41.364-34.657-49.992-54.432c-1.858-4.259,2.868-8.382,6.819-5.958
	l92.802,56.961C102.591,302.932,102.591,306.656,100.039,308.223z"/>
<path style="fill:#7FD3E3;" d="M512,304.793c0,15.71-19.984,31.846-53.098,44.889c-7.216,2.844-15.053,5.535-23.437,8.036
	c-39.255,11.745-90.584,19.48-146.773,19.48c-103.145,0-189.966-50.641-215.616-67.223c-3.752-2.419-3.752-7.933,0-10.363
	c25.649-16.572,112.471-67.203,215.616-67.203c26.477,0,51.888,1.714,75.459,4.755c3.95,0.509,7.847,1.058,11.692,1.64
	C455.873,250.954,512,278.48,512,304.793z"/>
<path style="fill:#38ACC4;" d="M512,304.793c0,15.71-19.984,31.846-53.098,44.889c-7.216,2.844-15.053,5.535-23.437,8.036
	c-34.107-43.226-51.35-84.439-59.621-118.913C455.873,250.954,512,278.48,512,304.793z"/>
<path style="fill:#349FB5;" d="M108.61,309.973c-3.752-2.419-3.752-7.932,0-10.362c24.402-15.766,104.166-62.352,200.679-66.849
	c-6.785-0.23-13.651-0.353-20.596-0.353c-103.145,0-189.966,50.631-215.616,67.203c-3.753,2.43-3.753,7.943,0,10.362
	c25.649,16.583,112.47,67.225,215.616,67.225c6.965,0,13.855-0.12,20.658-0.35C212.81,372.366,133.017,325.752,108.61,309.973z"/>
<ellipse style="fill:#F2E5CB;" cx="436.182" cy="284.066" rx="22.305" ry="22.404"/>
<circle style="fill:#357E8C;" cx="436.182" cy="283.941" r="8.084"/>
<path style="fill:#F2E5CB;" d="M370.224,306.689c-75.054,12.717-158.882-2.458-170.189-4.634c-0.841-0.162-1.596-0.572-2.188-1.186
	c-42.383-44.589-63.822-148.037-69.115-176.847c-0.592-3.266,2.684-5.863,5.712-4.559
	c160.316,69.184,217.098,134.197,223.157,141.516c0.356,0.442,0.625,0.938,0.776,1.487c0.172,0.592,0.345,1.185,0.528,1.778
	c3.589,12.093,8.828,24.422,12.482,32.463c0.7,1.532,1.336,2.91,1.898,4.097C374.472,303.305,372.931,306.225,370.224,306.689z"/>
<g>
	<path style="fill:#D1C1A1;" d="M153.71,127.983c-6.253-2.832-12.66-5.671-19.261-8.519c-3.035-1.31-6.312,1.295-5.712,4.559
		c5.288,28.81,26.732,132.257,69.114,176.843c0.588,0.619,1.35,1.028,2.186,1.189c2.478,0.476,8.447,1.579,17.043,2.876
		C181.423,259.623,161.329,169.059,153.71,127.983z"/>
	<path style="fill:#D1C1A1;" d="M371.389,296.708c-1.002,0.442-2.113,0.691-3.255,0.691c-0.55,0-1.099-0.053-1.66-0.172
		c-0.894-0.183-90.165-18.948-169.423-43.274c-4.268-1.304-6.673-5.831-5.357-10.098c1.304-4.269,5.832-6.661,10.1-5.357
		c55.146,16.922,115.216,31.139,146.432,38.176c-25.028-15.229-92.29-54.43-165.867-82.991c-4.161-1.616-6.219-6.305-4.603-10.466
		c1.616-4.16,6.296-6.229,10.455-4.602c76.994,29.887,147.122,71.199,170.696,85.633
		C362.496,276.338,367.734,288.668,371.389,296.708z"/>
</g>
<g>
</g>
<g>
</g>
<g>
</g>
<g>
</g>
<g>
</g>
<g>
</g>
<g>
</g>
<g>
</g>
<g>
</g>
<g>
</g>
<g>
</g>
<g>
</g>
<g>
</g>
<g>
</g>
<g>
</g>
</svg>
