<?xml version="1.0" encoding="iso-8859-1"?>
<!-- Generator: Adobe Illustrator 19.0.0, SVG Export Plug-In . SVG Version: 6.00 Build 0)  -->
<svg version="1.1" id="Layer_1" xmlns="http://www.w3.org/2000/svg" xmlns:xlink="http://www.w3.org/1999/xlink" x="0px" y="0px"
	 viewBox="0 0 511.999 511.999" style="enable-background:new 0 0 511.999 511.999;" xml:space="preserve">
<path style="fill:#C97E67;" d="M74.301,199.368c-2.65,0-5.24-1.325-6.75-3.737c-0.82-1.288-19.192-29.233-56.735-14.779
	c-4.102,1.579-8.707-0.47-10.284-4.58c-1.577-4.109,0.47-8.721,4.574-10.3c26.013-10.015,45.264-3.802,56.833,3.171
	c12.515,7.544,18.853,17.623,19.116,18.049c2.319,3.74,1.171,8.654-2.563,10.976C77.184,198.981,75.733,199.368,74.301,199.368z"/>
<path style="fill:#BD968A;" d="M311.9,366.28c0.605,1.137,0.658,2.496,0.148,3.685l-3.374,7.817c-0.679,1.551-2.207,2.56-3.905,2.56
	h-42.679c-3.343,0-5.496-3.547-3.958-6.521l7.364-23.058l15.355-48.081h51.518l-25.733,49.791c-0.202,0.382-0.34,0.786-0.403,1.201
	c-0.181,0.924-0.031,1.901,0.424,2.751L311.9,366.28z"/>
<path style="fill:#3F5666;" d="M312.048,369.965l-3.374,7.817c-0.679,1.551-2.207,2.56-3.905,2.56h-42.679
	c-3.343,0-5.496-3.547-3.958-6.521l7.364-23.058l40.737,2.91c-0.181,0.924-0.031,1.901,0.424,2.751l5.242,9.857
	C312.505,367.416,312.557,368.776,312.048,369.965z"/>
<path style="fill:#BD968A;" d="M167.813,380.342h-35.994c-2.005,0-3.777-1.349-4.308-3.282l-6.526-23.791l-17.87-65.202
	l57.291-9.209l-2.929,70.215c-0.021,0.478,0.043,0.946,0.191,1.392c0.095,0.34,0.233,0.658,0.403,0.956l13.391,22.496
	C173.15,376.752,171.113,380.342,167.813,380.342z"/>
<path style="fill:#3F5666;" d="M167.813,380.342h-35.994c-2.005,0-3.777-1.349-4.308-3.282l-6.526-23.791l36.683-2.803
	c0.095,0.34,0.233,0.658,0.403,0.956l13.391,22.496C173.15,376.752,171.113,380.342,167.813,380.342z"/>
<path style="fill:#E8C1B5;" d="M511.277,250.076l-8.606,12.894c-7.842,11.726-21.297,18.438-35.368,17.62l-10.505-0.605
	l-59.87-3.441l-23.026,30.875l7.99,42.952c0.064,0.298,0.169,0.595,0.297,0.86c0.01,0.021,0.021,0.053,0.043,0.074
	c0.435,0.903,1.178,1.635,2.112,2.04l11.959,7.095c1.295,0.563,2.217,1.721,2.483,3.091l3.65,11.768
	c0.509,2.612-1.496,5.045-4.17,5.045h-42.498c-1.539,0-2.95-0.829-3.703-2.167l-10.728-19.16l-1.369-2.453l-19.115-34.141
	c-0.751-1.342-2.167-2.172-3.702-2.172H115.781l-60.665-20.859v-30.366c0-65.701,28.258-118.36,112.3-132.369
	c107.96-18.013,213.893,18.449,213.893,18.449l23.907,4.599c12.107,2.336,23.313,8.04,32.322,16.473l58.394,54.655l14.718,13.764
	C512.168,246.019,512.444,248.345,511.277,250.076z"/>
<g>
	<path style="fill:#C97E67;" d="M511.281,250.076l-8.61,12.89c-7.838,11.733-21.294,18.438-35.372,17.625l-10.498-0.606
		c16.941-14.269,30.455-34.21,39.137-49.154l14.711,13.765C512.172,246.022,512.439,248.342,511.281,250.076z"/>
	<path style="fill:#C97E67;" d="M409.215,201.622l-21.263,26.285c-4.474,5.531-13.403,2.739-13.934-4.358l-2.527-33.759
		c-0.741-9.905,8.743-17.428,18.207-14.444l12.826,4.044C411.964,182.366,415.441,193.924,409.215,201.622z"/>
</g>
<g>
	<path style="fill:#CCA295;" d="M77.047,269.024c0-44.106,15.078-90.974,50.416-121.256
		c-53.299,22.193-72.347,67.328-72.347,121.256v30.366l23.294,8.009L77.047,269.024z"/>
	<path style="fill:#CCA295;" d="M373.994,378.175l-10.728-19.16l-1.369-2.453l-11.561-20.648
		c-5.141-9.183-15.906-13.626-26.015-10.739l0,0c-0.848,0.242-1.249,1.214-0.817,1.985l16.462,29.402l1.369,2.453l10.728,19.16
		c0.753,1.339,2.165,2.167,3.703,2.167h21.93C376.159,380.342,374.747,379.513,373.994,378.175z"/>
</g>
<path style="fill:#3F5666;" d="M398.266,380.342h-42.498c-1.539,0-2.95-0.829-3.703-2.167l-10.728-19.16l40.896-7.71
	c0.435,0.903,1.178,1.635,2.112,2.04l11.959,7.095c1.295,0.563,2.217,1.721,2.483,3.091l3.65,11.768
	C402.946,377.909,400.94,380.342,398.266,380.342z"/>
<ellipse style="fill:#C97E67;" cx="439.483" cy="208.592" rx="7.959" ry="7.97"/>
<path style="fill:#E8C1B5;" d="M145.186,290.053l-63.7,63.492c-0.7,0.701-1.114,1.583-1.22,2.528c-0.074,0.669,0.01,1.37,0.265,2.04
	l6.451,16.431c1.093,2.783-0.965,5.799-3.948,5.799H43.645c-2.706,0-4.796-2.39-4.425-5.077l3.353-24.365l12.967-94.367
	L145.186,290.053z"/>
<path style="fill:#CCA295;" d="M61.151,375.265l3.353-24.364l12.593-86.308l-21.556-8.06L42.573,350.9l-3.353,24.364
	c-0.371,2.687,1.719,5.077,4.425,5.077h21.93C62.87,380.342,60.78,377.952,61.151,375.265z"/>
<path style="fill:#3F5666;" d="M83.035,380.342h-39.39c-2.706,0-4.796-2.39-4.425-5.077l3.353-24.365l37.692,5.172
	c-0.074,0.669,0.01,1.37,0.265,2.04l6.451,16.431C88.076,377.325,86.017,380.342,83.035,380.342z"/>
<g>
</g>
<g>
</g>
<g>
</g>
<g>
</g>
<g>
</g>
<g>
</g>
<g>
</g>
<g>
</g>
<g>
</g>
<g>
</g>
<g>
</g>
<g>
</g>
<g>
</g>
<g>
</g>
<g>
</g>
</svg>
