<?xml version="1.0" encoding="iso-8859-1"?>
<!-- Generator: Adobe Illustrator 19.0.0, SVG Export Plug-In . SVG Version: 6.00 Build 0)  -->
<svg version="1.1" id="Layer_1" xmlns="http://www.w3.org/2000/svg" xmlns:xlink="http://www.w3.org/1999/xlink" x="0px" y="0px"
	 viewBox="0 0 512 512" style="enable-background:new 0 0 512 512;" xml:space="preserve">
<path style="fill:#FBB071;" d="M503.977,141.355l-88.718,23.584l-28.703,7.632c-4.626,1.229-9.165-2.253-9.165-7.028v-62.421
	c0-4.775,4.539-8.257,9.165-7.028l24.39,6.478l93.031,24.726C511.191,129.219,511.191,139.437,503.977,141.355z"/>
<path style="fill:#CC894F;" d="M415.259,164.94l-28.703,7.632c-4.626,1.229-9.165-2.253-9.165-7.028v-62.421
	c0-4.775,4.539-8.257,9.165-7.028l24.39,6.478C414.159,121.942,415.453,143.048,415.259,164.94z"/>
<path style="fill:#FBD476;" d="M341.111,421.191c-35.966,80.72-138.086,113.801-228.089,73.869
	c-90.003-39.93-133.798-137.748-97.832-218.468C54.104,187.828,220.044-42.264,330.587,6.781S381.072,332.892,341.111,421.191z"/>
<path style="fill:#CCA75E;" d="M138.54,495.061C48.538,455.131,4.743,357.313,40.709,276.592
	C74.54,199.423,204.376,15.446,310.355,0.921C200.792-15.438,51.794,193.096,15.191,276.592
	c-35.966,80.72,7.828,178.538,97.831,218.469c30.155,13.379,61.666,18.549,91.597,16.491
	C182.619,510.055,160.229,504.684,138.54,495.061z"/>
<path style="fill:#FBB071;" d="M238.243,429.649c-14.891,5.443-31.215-3.288-35.162-18.604l-0.992-3.88
	c-0.13-0.507-0.312-0.981-0.539-1.423c-0.432-0.884-1.035-1.638-1.747-2.263c-1.747-1.509-4.184-2.166-6.588-1.552l-4.917,1.261
	l-9.888,2.533c-1.305,0.334-2.631,0.572-3.935,0.7c-13.036,1.347-25.446-6.996-28.801-20.038l-2.372-9.216
	c-0.01-0.054-0.022-0.097-0.043-0.151c-1.068-3.794-4.981-6.069-8.82-5.077l-18.945,4.84c-1.229,0.312-2.459,0.539-3.677,0.669
	c-13.123,1.498-25.684-6.856-29.059-19.995l-3.505-13.614c-1.003-3.891,1.348-7.858,5.251-8.85l15.02-3.848l234.218-59.953
	c4.184-1.067,8.378,1.681,9.014,5.939C346.693,303.384,350.035,388.754,238.243,429.649z"/>
<ellipse style="fill:#E1E9F2;" cx="316.458" cy="73.958" rx="23.264" ry="23.285"/>
<circle style="fill:#2F3F4A;" cx="316.458" cy="73.958" r="8.086"/>
<path style="fill:#CC894F;" d="M268.649,370.224c-1.65-4.139-6.361-6.165-10.502-4.506l-78.777,31.474
	c-0.507,0.205-0.971,0.442-1.413,0.732c-4.917-3.946-8.702-9.615-10.448-16.405l-2.588-10.057c-0.087-0.324-0.183-0.625-0.302-0.916
	l95.501-28.942c4.269-1.304,6.685-5.81,5.392-10.089c-1.294-4.268-5.812-6.683-10.093-5.39L117.457,367.94
	c-6.545-4.075-11.731-10.94-13.866-19.241l-3.817-14.865c-0.237-0.905-0.302-1.821-0.248-2.695l-15.02,3.848
	c-3.904,0.992-6.254,4.958-5.251,8.85l3.505,13.614c3.375,13.14,15.937,21.494,29.059,19.995c1.218-0.13,2.447-0.355,3.677-0.669
	l18.945-4.84c3.839-0.992,7.753,1.283,8.82,5.077c0.022,0.053,0.032,0.097,0.043,0.151l2.372,9.216
	c3.353,13.042,15.764,21.385,28.801,20.038c1.305-0.129,2.631-0.367,3.935-0.7l9.888-2.533l4.917-1.261
	c2.404-0.614,4.841,0.043,6.588,1.552c0.712,0.625,1.316,1.38,1.747,2.263c0.227,0.442,0.41,0.916,0.539,1.423l0.992,3.88
	c3.947,15.317,20.271,24.048,35.162,18.604c0.734-0.27,1.445-0.55,2.178-0.83c-6.88-3.784-12.41-10.585-14.632-19.241l-1.089-4.246
	c-0.884-3.482-1.316-5.972-1.612-8.194l41.054-16.404C268.293,379.075,270.31,374.375,268.649,370.224z"/>
<g>
</g>
<g>
</g>
<g>
</g>
<g>
</g>
<g>
</g>
<g>
</g>
<g>
</g>
<g>
</g>
<g>
</g>
<g>
</g>
<g>
</g>
<g>
</g>
<g>
</g>
<g>
</g>
<g>
</g>
</svg>
