<?xml version="1.0" encoding="iso-8859-1"?>
<!-- Generator: Adobe Illustrator 19.0.0, SVG Export Plug-In . SVG Version: 6.00 Build 0)  -->
<svg version="1.1" id="Layer_1" xmlns="http://www.w3.org/2000/svg" xmlns:xlink="http://www.w3.org/1999/xlink" x="0px" y="0px"
	 viewBox="0 0 512 512" style="enable-background:new 0 0 512 512;" xml:space="preserve">
<path style="fill:#3F5666;" d="M143.623,273.894h-27.521C52.083,273.894,0,221.718,0,157.584S52.083,41.273,116.103,41.273h93.388
	c6.699,0,12.129,5.441,12.129,12.151c0,6.711-5.43,12.151-12.129,12.151h-93.388c-50.643,0-91.844,41.276-91.844,92.01
	c0,50.733,41.201,92.008,91.844,92.008h27.521c6.699,0,12.129,5.441,12.129,12.151C155.751,268.453,150.321,273.894,143.623,273.894
	z"/>
<g>
	<path style="fill:#232F38;" d="M400.33,451.009l-3.058,15.526c-0.397,2.022-2.158,3.473-4.208,3.473h-45.562
		c-2.587,0-4.605-2.236-4.357-4.807l2.49-25.838l12.794-132.618l51.492-6.969l-26.161,132.879c-0.108,0.516-0.129,1.032-0.043,1.538
		c0.15,1.14,0.762,2.172,1.717,2.871l13.213,9.634C399.997,447.676,400.663,449.364,400.33,451.009z"/>
	<path style="fill:#232F38;" d="M261.047,470.009H224.35c-1.578,0-3.027-0.85-3.799-2.215l-14.2-24.999l-20.382-35.881
		c-0.171-0.301-0.301-0.634-0.397-0.968l-10.293-36.278l-9.799-39.364l75.465-14.247l-15.617,75.557
		c-0.161,0.752-0.118,1.527,0.129,2.258l12.751,38.838c0.022,0.075,0.053,0.15,0.086,0.226c0.375,0.99,1.105,1.796,2.028,2.29
		l18.579,9.764c1.105,0.581,1.9,1.602,2.211,2.817l4.175,16.752C265.984,467.331,263.891,470.009,261.047,470.009z"/>
</g>
<g>
	<path style="fill:#3F5666;" d="M261.047,470.009H224.35c-1.578,0-3.027-0.85-3.799-2.215l-14.2-24.999l31.941-9.86
		c0.375,0.99,1.105,1.796,2.028,2.29l18.579,9.764c1.105,0.581,1.9,1.602,2.211,2.817l4.175,16.752
		C265.984,467.331,263.891,470.009,261.047,470.009z"/>
	<path style="fill:#3F5666;" d="M400.33,451.727l-3.058,15.526c-0.397,2.022-2.158,3.473-4.208,3.473h-45.562
		c-2.587,0-4.605-2.236-4.357-4.807l2.49-25.838l38.081-5.172c0.15,1.14,0.762,2.172,1.717,2.871l13.213,9.634
		C399.997,448.394,400.663,450.082,400.33,451.727z"/>
</g>
<path style="fill:#2F3F4A;" d="M510.024,135.349c1.236,0.791,1.976,2.156,1.976,3.623v19.411c0,17.524-14.181,31.73-31.674,31.73
	h-17.412l-13.319,69.989c-1.105,9.882-1.03,19.849,0.226,29.709l19.738,137.801c0.043,0.323,0.118,0.634,0.226,0.925
	c0.344,0.947,0.998,1.752,1.867,2.28l20.984,12.386c1.309,0.795,2.125,2.226,2.125,3.764l-2.801,18.656
	c0,2.419-1.964,4.387-4.379,4.387h-46.077c-2.018,0-3.789-1.398-4.251-3.366l-6.419-26.827c0,0-14.49-56.336-25.322-105.843
	c-75.469,14.176-118.902-4.495-118.902-4.495s-81.886,10.077-83.554,11.307l-25.583,33.633
	c-10.629,13.973-27.16,22.175-44.697,22.175h-24.707c-2.424,0-4.39,1.964-4.39,4.386v35.064c0,0.463,0.075,0.914,0.214,1.333
	c0.269,0.86,0.805,1.624,1.535,2.172l10.132,7.612c0.805,0.602,1.384,1.463,1.621,2.441l3.736,14.957
	c0.686,2.774-1.395,5.451-4.239,5.451H80.71c-2.413,0-4.369-1.955-4.369-4.366v-93.652c0-1.699,0.977-3.248,2.512-3.967
	l29.967-14.075c1.535-0.72,2.522-2.268,2.522-3.967v-59.675c0-35.687,26.5-65.815,61.833-70.299l138.176-17.546
	c20.277-2.575,37.48-16.152,44.725-35.3l41.359-63.228l51.212-3.983c12.771-0.994,25.117,4.912,32.341,15.509
	c2.638,3.87,4.349,6.753,4.349,6.753C487.375,122.212,504.024,131.51,510.024,135.349z"/>
<g>
	<path style="fill:#232F38;" d="M450.774,450.367c0,0-11.93-49.542-22.232-98.224c-1.726-8.155-9.523-13.493-17.772-12.255
		c-1.288,0.193-2.566,0.376-3.833,0.551c10.634,47.816,23.895,99.376,23.895,99.376l6.419,26.828
		c0.462,1.968,2.233,3.366,4.251,3.366h13.671L450.774,450.367z"/>
	<path style="fill:#232F38;" d="M96.282,377.922c0-1.815,0.977-3.468,2.512-4.238l29.967-15.033c1.535-0.77,2.522-2.424,2.522-4.238
		v-63.74c0-32.588,19.378-60.821,47.077-71.323l-5.185,0.657c-35.333,4.485-61.833,34.612-61.833,70.3v59.675
		c0,1.698-0.987,3.246-2.522,3.967l-29.967,14.075c-1.535,0.721-2.512,2.27-2.512,3.969v93.642c0,2.418,1.956,4.376,4.369,4.376
		h15.573v-92.089H96.282z"/>
</g>
<g>
	<path style="fill:#3F5666;" d="M116.676,470.009H80.71c-2.415,0-4.369-1.968-4.369-4.387v-24.741l27.552-3.506
		c0.269,0.86,0.805,1.624,1.535,2.172l10.132,7.612c0.805,0.602,1.384,1.463,1.621,2.441l3.736,14.957
		C121.603,467.331,119.521,470.009,116.676,470.009z"/>
	<path style="fill:#3F5666;" d="M494.76,446.967l-2.801,18.656c0,2.419-1.964,4.387-4.379,4.387h-46.077
		c-2.018,0-3.789-1.398-4.251-3.366l-6.419-26.827l38.951-11.279c0.344,0.947,0.998,1.752,1.867,2.28l20.984,12.386
		C493.944,443.999,494.76,445.428,494.76,446.967z"/>
</g>
<circle style="fill:#232F38;" cx="461.312" cy="130.236" r="8.084"/>
<path style="fill:#2F3F4A;" d="M392.685,87.535l16.661,8.097c10.712,5.206,14.822,21.328,9.472,37.162l-2.019,5.975
	c-1.773,5.246-7.194,7.355-10.302,4.007l-21.168-13.853C370.935,114.419,381.645,83.878,392.685,87.535z"/>
<path style="fill:#3F5666;" d="M395.51,98.909l9.885,4.803c6.356,3.089,8.794,12.654,5.619,22.048l-1.197,3.544
	c-1.052,3.113-4.268,4.363-6.113,2.377l-12.559-8.219C382.605,114.859,388.96,96.74,395.51,98.909z"/>
<g>
</g>
<g>
</g>
<g>
</g>
<g>
</g>
<g>
</g>
<g>
</g>
<g>
</g>
<g>
</g>
<g>
</g>
<g>
</g>
<g>
</g>
<g>
</g>
<g>
</g>
<g>
</g>
<g>
</g>
</svg>
