<?xml version="1.0" encoding="iso-8859-1"?>
<!-- Generator: Adobe Illustrator 19.0.0, SVG Export Plug-In . SVG Version: 6.00 Build 0)  -->
<svg version="1.1" id="Layer_1" xmlns="http://www.w3.org/2000/svg" xmlns:xlink="http://www.w3.org/1999/xlink" x="0px" y="0px"
	 viewBox="0 0 512.001 512.001" style="enable-background:new 0 0 512.001 512.001;" xml:space="preserve">
<path style="fill:#D1C1A1;" d="M386.778,3.697c-16.926,29.606-64.264,122.696-13.542,159.285c2.333,1.682,5.607,1.011,7.088-1.453
	c9.726-16.194,40.611-76.688,15.391-156.88C394.434,0.577,388.897-0.009,386.778,3.697z"/>
<path style="fill:#F2E5CB;" d="M118.993,379.086c28.831,97.142,125.979,114.669,125.979,114.669
	c141.367-37.951,152.72-179.301,152.72-179.301c30.011,9.759,54.768-23.055,80.217-42.689c6.048-4.662,10.38-10.08,13.134-15.856
	c8.547-17.919,1.935-39.283-15.556-52.36c-0.564-0.436-1.14-0.845-1.73-1.255c-24.642-16.996-33.42-65.821-97.221-69.049
	c-55.37-2.805-68.146,44.585-68.146,44.585s-29.87,42.177-143.264,57.778C165.126,235.607,90.162,281.944,118.993,379.086z"/>
<path style="fill:#D1C1A1;" d="M140.395,387.709c-28.831-97.142,46.133-143.479,46.133-143.479
	c104.881-14.429,138.308-51.594,142.735-57.093c0.334-0.415,0.578-0.879,0.738-1.386c1.853-5.868,16.556-46.486,67.936-43.884
	c7.587,0.383,14.387,1.419,20.537,2.962c-10.75-6.271-24.221-10.688-41.94-11.585c-55.37-2.805-68.146,44.585-68.146,44.585
	s-29.869,42.177-143.263,57.778c0,0-74.964,46.337-46.133,143.479c21.58,72.711,81.432,100.815,110.174,110.354
	C198.535,474.866,157.476,445.261,140.395,387.709z"/>
<path style="fill:#E8C1B5;" d="M491.043,255.908c-1.909-1.127-3.998-2.575-6.291-4.406c-22.579-17.995-18.58-35.312-9.265-47.954
	C492.978,216.625,499.59,237.989,491.043,255.908z"/>
<circle style="fill:#B0A387;" cx="428.388" cy="188.165" r="8.084"/>
<path style="fill:#D1C1A1;" d="M350.437,495.562v11.318c0,2.824-2.296,5.12-5.12,5.12H224.428
	C74.339,512,41.095,440.33,41.095,371.011c0-70.764,54.316-128.852,123.551-134.888c3.924-0.345,7.902-0.517,11.922-0.517
	c74.829,0,135.473,60.621,135.473,135.405c0,62.798-41.996,104.48-41.996,104.48h60.309
	C341.447,475.491,350.437,484.492,350.437,495.562z"/>
<path style="fill:#EDDBB7;" d="M350.498,372.263c2.903-2.61,7.501-0.334,7.181,3.556c-1.861,22.514-4.545,73.306,7.195,90.105
	c8.067,11.543,15.564,16.377,19.781,22.275c7.117,9.953-0.242,23.803-12.478,23.803h-28.892c-9.388,0-17.56-6.422-19.777-15.545
	l-12.365-50.873c-4.66-19.172,1.583-39.355,16.254-52.548L350.498,372.263z"/>
<path id="SVGCleanerId_0" style="fill:#F2E5CB;" d="M299.921,4.331c-5.555,35.196-17.268,143.684,45.857,160.631
	c2.904,0.779,5.853-1.09,6.385-4.047c3.494-19.425,11.227-89.97-43.159-158.967C306.242-1.556,300.616-0.075,299.921,4.331z"/>
<g>
	<path id="SVGCleanerId_0_1_" style="fill:#F2E5CB;" d="M299.921,4.331c-5.555,35.196-17.268,143.684,45.857,160.631
		c2.904,0.779,5.853-1.09,6.385-4.047c3.494-19.425,11.227-89.97-43.159-158.967C306.242-1.556,300.616-0.075,299.921,4.331z"/>
</g>
<path style="fill:#E8C1B5;" d="M312.37,51.251c-1.647,20.584-4.188,84.129,25.873,95.206c1.382,0.51,2.715-0.536,2.884-2.265
	c1.11-11.353,2.817-52.671-24.562-94.18C315.173,47.904,312.576,48.674,312.37,51.251z"/>
<path style="fill:#E3D2AF;" d="M350.437,495.562v11.318c0,2.824-2.296,5.12-5.12,5.12H200.574
	C50.485,512,17.241,440.33,17.241,371.011c0-74.784,60.654-135.405,135.473-135.405c4.021,0,7.999,0.172,11.933,0.517
	c69.235,6.036,123.54,64.124,123.54,134.888c0,62.798-41.995,104.48-41.995,104.48h84.164
	C341.447,475.491,350.437,484.492,350.437,495.562z"/>
<path style="fill:#B0A387;" d="M38.8,371.011c0-71.16,54.911-129.491,124.693-134.981c-3.557-0.28-7.15-0.426-10.779-0.426
	c-74.822,0-135.472,60.621-135.472,135.407C17.241,440.328,50.484,512,200.572,512h21.558C72.043,512,38.8,440.328,38.8,371.011z"/>
<g>
</g>
<g>
</g>
<g>
</g>
<g>
</g>
<g>
</g>
<g>
</g>
<g>
</g>
<g>
</g>
<g>
</g>
<g>
</g>
<g>
</g>
<g>
</g>
<g>
</g>
<g>
</g>
<g>
</g>
</svg>
