<?xml version="1.0" encoding="iso-8859-1"?>
<!-- Generator: Adobe Illustrator 19.0.0, SVG Export Plug-In . SVG Version: 6.00 Build 0)  -->
<svg version="1.1" id="Layer_1" xmlns="http://www.w3.org/2000/svg" xmlns:xlink="http://www.w3.org/1999/xlink" x="0px" y="0px"
	 viewBox="0 0 512 512" style="enable-background:new 0 0 512 512;" xml:space="preserve">
<g>
	<path style="fill:#825732;" d="M360.604,475.123l-3.332,16.9c-0.433,2.201-2.35,3.78-4.584,3.78h-49.634
		c-2.818,0-5.017-2.435-4.747-5.232l2.713-28.124l13.937-144.356l63.092-23.853L342.55,455.145c-0.117,0.562-0.14,1.123-0.047,1.674
		c0.164,1.24,0.83,2.365,1.87,3.125l14.393,10.487C360.241,471.494,360.966,473.332,360.604,475.123z"/>
	<path style="fill:#825732;" d="M248.431,495.804h-39.976c-1.719,0-3.298-0.925-4.139-2.411l-15.469-27.211l-22.204-39.056
		c-0.187-0.328-0.327-0.691-0.433-1.053l-11.213-39.489l-10.675-42.848l82.208-15.507l-17.012,82.244
		c-0.176,0.819-0.129,1.661,0.14,2.458l13.891,42.274c0.023,0.082,0.059,0.164,0.094,0.246c0.41,1.077,1.205,1.955,2.21,2.493
		l20.24,10.628c1.205,0.632,2.07,1.744,2.408,3.067l4.548,18.234C253.81,492.889,251.53,495.804,248.431,495.804z"/>
</g>
<g>
	<path style="fill:#F2E5CB;" d="M248.431,495.804h-39.976c-1.719,0-3.298-0.925-4.139-2.411l-15.469-27.211l34.796-10.732
		c0.41,1.077,1.205,1.955,2.21,2.493l20.24,10.628c1.205,0.632,2.07,1.744,2.408,3.067l4.548,18.234
		C253.81,492.889,251.53,495.804,248.431,495.804z"/>
	<path style="fill:#F2E5CB;" d="M360.604,475.123l-3.332,16.9c-0.433,2.201-2.35,3.78-4.584,3.78h-49.634
		c-2.818,0-5.017-2.435-4.747-5.232l2.713-28.124l41.485-5.63c0.164,1.24,0.83,2.365,1.87,3.125l14.393,10.487
		C360.241,471.494,360.966,473.332,360.604,475.123z"/>
</g>
<path style="fill:#825732;" d="M13.213,433.38C5.915,433.38,0,427.459,0,420.155v-57.537c0-59.201,48.115-107.363,107.257-107.363
	h16.063c7.298,0,13.213,5.923,13.213,13.226c0,7.304-5.915,13.226-13.213,13.226h-16.063c-44.57,0-80.831,36.297-80.831,80.912
	v57.537C26.425,427.459,20.51,433.38,13.213,433.38z"/>
<path style="fill:#FBB071;" d="M510.847,82.34c0.744,0.798,1.152,1.845,1.152,2.936v28.038c0,15.81-12.805,28.626-28.597,28.626
	h-11.491c-2.242,0-4.128,1.681-4.376,3.912c0,0,7.837,126.477-12.848,160.404c-6.996,11.468-10.854,31.568-12.892,53.156
	c-3.999,42.27-1.034,90.242-1.034,90.242c0.043,0.355,0.13,0.69,0.237,1.014c0.377,1.024,1.089,1.908,2.038,2.479l22.862,13.483
	c1.423,0.862,2.318,2.425,2.318,4.095l-3.05,20.306c0,2.63-2.145,4.775-4.775,4.775h-50.198c-2.198,0-4.128-1.52-4.624-3.664
	l-6.996-29.198l-11.092-91.513c-0.495-2.091-2.328-3.589-4.473-3.664l-194.161-0.27c-1.261-0.043-64.005,47.12-64.005,47.12
	c-0.884,0.819-2.048,1.272-3.244,1.272H81.77c-2.64,0-4.775,2.144-4.775,4.774v38.175c0,0.495,0.087,0.992,0.237,1.444
	c0.29,0.937,0.874,1.768,1.671,2.371l11.037,8.277c0.884,0.657,1.509,1.596,1.768,2.662l4.064,16.274
	c0.754,3.028-1.519,5.938-4.613,5.938H51.976c-2.625,0-4.753-2.128-4.753-4.753V389.113c0-1.854,1.056-3.535,2.727-4.322
	l32.65-15.327c1.671-0.775,2.749-2.468,2.749-4.311v-64.955c0-38.853,28.866-71.639,67.357-76.522l109.751-13.924
	c47.179-5.992,87.212-37.549,104.06-82.073l30.125-79.55l55.792-4.332c13.916-1.089,27.356,5.346,35.226,16.878
	c2.878,4.214,4.743,7.35,4.743,7.35C494.637,68.025,506.939,78.142,510.847,82.34z"/>
<g>
	<path style="fill:#CC894F;" d="M387.57,127.685l29.978-81.18l-20.901,1.625l-30.126,79.556
		c-13.412,35.419-41.5,62.622-76.182,75.283C334.524,195.439,371.534,170.032,387.57,127.685z"/>
	<path style="fill:#CC894F;" d="M103.648,359.068c1.672-0.784,2.748-2.469,2.748-4.319v-54.554c0-32.02,19.624-63.818,48.075-76.745
		l-1.764,0.225c-38.491,4.881-67.359,37.675-67.359,76.52v64.957c0,1.12-0.4,2.178-1.083,3.013L103.648,359.068z"/>
	<path style="fill:#CC894F;" d="M426.614,492.14l-6.992-29.202l-12.662-89.947c-0.491-2.083-2.327-3.582-4.467-3.663l-16.146-0.022
		c0.539,0.585,0.939,1.304,1.132,2.117l11.094,91.515l6.992,29.202c0.503,2.142,2.431,3.663,4.63,3.663h21.049
		C429.046,495.804,427.117,494.282,426.614,492.14z"/>
	<path style="fill:#CC894F;" d="M68.942,375.88v119.924H51.976c-2.63,0-4.753-2.134-4.753-4.764V389.114
		c0-1.854,1.056-3.535,2.727-4.322l14.326-6.726L68.942,375.88z"/>
</g>
<g>
	<path style="fill:#F2E5CB;" d="M454.688,306.256c-6.996,11.468-10.854,31.568-12.892,53.156
		c-33.016-1.746-58.788,8.353-58.788,8.353l-194.161-0.27l13.851-13.034c20.39-19.187,47.336-29.873,75.336-29.873h87.943
		c18.562,0,37.023-2.726,54.792-8.092L454.688,306.256z"/>
	<path style="fill:#F2E5CB;" d="M91.157,495.804H51.976c-2.631,0-4.758-2.142-4.758-4.775v-26.931l30.015-3.816
		c0.293,0.936,0.877,1.767,1.672,2.365l11.037,8.286c0.877,0.655,1.508,1.591,1.766,2.657l4.069,16.281
		C96.523,492.889,94.256,495.804,91.157,495.804z"/>
	<path style="fill:#F2E5CB;" d="M468.211,470.722l-3.052,20.307c0,2.633-2.14,4.775-4.771,4.775h-50.195
		c-2.198,0-4.127-1.521-4.63-3.663l-6.992-29.202l42.431-12.278c0.374,1.03,1.088,1.908,2.034,2.482l22.858,13.483
		C467.323,467.492,468.211,469.049,468.211,470.722z"/>
</g>
<circle style="fill:#825732;" cx="465.648" cy="77.541" r="8.084"/>
<path style="fill:#FBB071;" d="M427.384,23.55l5.696,26.059c3.662,16.755-7.388,34.108-25.471,39.996l-6.823,2.221
	c-5.992,1.951-12.028-2.859-11.471-9.142l3.174-35.785C394.188,18.58,422.103,7.603,427.384,23.55z"/>
<path style="fill:#825732;" d="M420.405,36.109l3.337,15.267c2.146,9.816-4.329,19.982-14.923,23.432l-3.998,1.302
	c-3.511,1.143-7.047-1.675-6.72-5.356l1.86-20.965C400.958,33.198,417.312,26.767,420.405,36.109z"/>
<g>
</g>
<g>
</g>
<g>
</g>
<g>
</g>
<g>
</g>
<g>
</g>
<g>
</g>
<g>
</g>
<g>
</g>
<g>
</g>
<g>
</g>
<g>
</g>
<g>
</g>
<g>
</g>
<g>
</g>
</svg>
