<?xml version="1.0" encoding="iso-8859-1"?>
<!-- Generator: Adobe Illustrator 19.0.0, SVG Export Plug-In . SVG Version: 6.00 Build 0)  -->
<svg version="1.1" id="Layer_1" xmlns="http://www.w3.org/2000/svg" xmlns:xlink="http://www.w3.org/1999/xlink" x="0px" y="0px"
	 viewBox="0 0 512.001 512.001" style="enable-background:new 0 0 512.001 512.001;" xml:space="preserve">
<path style="fill:#3F5666;" d="M381.635,99.544l106.079,9.127c2.523,0.217,3.288-3.343,0.899-4.182L387.716,69.038
	c-2.335-0.82-4.909-0.713-7.138,0.364c-3.999,1.93-9.884,5.823-11.277,12.432c-1.491,7.077,3.717,12.724,7.075,15.537
	C377.868,98.619,379.698,99.378,381.635,99.544z"/>
<path style="fill:#FBD476;" d="M391.921,82.695c-4.741,25.805-28.921,43.18-54.694,39.806l-5.528,30.106
	c0.01,0,34.534,43.698,24.428,98.724c-12.284,66.83-77.678,123.979-89.574,127.493c-1.637,0.474-2.877,1.821-3.179,3.492
	l-14.923,81.208c-4.116,22.388-20.343,39.505-40.687,45.822c-5.387,1.671-11.065,2.587-16.885,2.652
	c-3.739,0.032-7.521-0.28-11.335-0.981c-1.217-0.227-2.241-0.927-2.899-1.876c-0.657-0.949-0.948-2.145-0.722-3.364L284.289,91.286
	c7.478-28.585,20.44-71.313,70.663-65.202C388.667,30.18,396.663,56.869,391.921,82.695z"/>
<path style="fill:#CCA75E;" d="M199.723,509.147c-0.65-0.954-0.945-2.152-0.721-3.371l108.371-414.49
	c6.341-24.242,16.624-58.64,50.223-64.819c-0.867-0.142-1.744-0.276-2.648-0.386c-50.225-6.106-63.179,36.615-70.657,65.205
	l-108.371,414.49c-0.224,1.218,0.071,2.416,0.721,3.371c0.662,0.946,1.679,1.647,2.899,1.87c7.647,1.401,15.215,1.252,22.396-0.199
	C201.024,510.495,200.256,509.907,199.723,509.147z"/>
<circle style="fill:#3F5666;" cx="338.997" cy="60.413" r="8.081"/>
<path style="fill:#7FD3E3;" d="M312.94,232.286c-10.581,18.864-34.136,28.165-61.623,30.299c-2.101,0.172-4.223,0.292-6.379,0.367
	c-13.738,0.528-28.252-0.636-42.475-3.19c-2.769-0.496-5.527-1.046-8.264-1.65c-0.916-0.205-1.832-0.41-2.737-0.614
	c-1.821-0.432-3.631-0.874-5.42-1.336c-1.595-0.42-3.189-0.852-4.763-1.304c-1.089-0.302-2.166-0.625-3.233-0.938
	c-3.513-1.056-6.961-2.198-10.333-3.427c-5.053-1.833-9.923-3.837-14.558-6.004c0,0-0.01-0.01-0.022-0.01
	c-0.01-0.011-0.032-0.022-0.075-0.043c-2.877-1.756-67.71-43.493-67.71-43.493c-10.818-6.941-13.954-21.342-6.994-32.154l3.298-5.13
	c6.961-10.812,3.825-25.212-7.004-32.164l-10.527-6.759c-5.42-3.47-8.911-8.828-10.172-14.626c-1.282-5.895-0.29-12.31,3.319-17.774
	c7.036-10.639,3.523-25.061-7.219-31.96L32.646,49.205c-10.829-6.952-13.954-21.354-7.004-32.142l9.644-14.994
	c1.347-2.091,4.138-2.695,6.228-1.358l14.848,9.528l223.282,143.37c0.572,0.367,1.12,0.723,1.67,1.089
	C313.64,176.72,332.162,198.009,312.94,232.286z"/>
<path style="fill:#3F5666;" d="M313.241,298.17l11.118,32.513c1.335,3.905,5.369,6.208,9.413,5.375l33.799-6.966
	c1.684-0.347,3.215-1.218,4.374-2.489l7.746-8.499c5.836-6.404,14.443-9.542,23.034-8.4l2.802,0.373
	c3.693,0.491,5.312,4.927,2.803,7.679L383.5,345.003c-3.692,4.051-8.54,6.872-13.888,8.082l-34.659,7.84
	c-13.415,3.034-27.022-4.255-31.92-17.1l-14.065-36.891c-2.557-6.705,0.855-14.207,7.591-16.692l0,0
	C303.362,287.731,310.896,291.313,313.241,298.17z"/>
<g>
	<path style="fill:#349FB5;" d="M247.47,351.748l-39.706,157.599c-5.387,1.671-11.065,2.587-16.885,2.652
		c-0.075-0.862,0-1.746,0.215-2.62l40.708-161.576c1.089-4.333,5.485-6.963,9.805-5.864
		C245.94,343.028,248.569,347.426,247.47,351.748z"/>
	<path style="fill:#349FB5;" d="M251.317,262.584c-2.101,0.162-4.235,0.28-6.379,0.367c-13.738,0.517-28.252-0.647-42.475-3.19
		c-2.769-0.496-5.527-1.046-8.264-1.65c-0.916-0.205-1.832-0.41-2.737-0.614c-1.821-0.432-3.631-0.874-5.42-1.336
		c-1.595-0.42-3.189-0.852-4.763-1.304c-1.089-0.302-2.166-0.625-3.233-0.938c-3.513-1.067-6.961-2.21-10.333-3.427
		c-5.053-1.833-9.923-3.848-14.558-6.014c0,0-0.01,0-0.022,0c-0.01-0.011-0.032-0.022-0.075-0.043
		c-2.877-1.756-67.71-43.493-67.71-43.493c-10.818-6.941-13.954-21.342-6.994-32.154l3.298-5.13
		c6.961-10.812,3.825-25.212-7.004-32.164l-10.527-6.759c-5.42-3.47-8.911-8.828-10.172-14.626
		c-1.282-5.895-0.29-12.31,3.319-17.774c7.036-10.639,3.523-25.061-7.219-31.96L32.646,49.205
		c-10.829-6.952-13.954-21.354-7.004-32.142l9.644-14.994c1.347-2.091,4.138-2.695,6.228-1.358l14.848,9.528l-4.385,6.823
		c-6.95,10.79-3.825,25.19,7.004,32.142l17.402,11.168c5.452,3.504,9.04,8.936,10.333,14.843l103.765,69.535
		c3.718,2.49,4.708,7.513,2.219,11.221c-1.552,2.328-4.116,3.579-6.724,3.579c-1.541,0-3.103-0.442-4.483-1.369L83.494,92.515
		c-3.513,5.422-4.483,11.76-3.211,17.591c1.261,5.799,4.752,11.156,10.172,14.626l10.527,6.759
		c5.43,3.492,8.921,8.849,10.183,14.691l102.643,68.78c3.706,2.49,4.698,7.513,2.209,11.22c-1.552,2.328-4.116,3.589-6.712,3.589
		c-1.552,0-3.114-0.442-4.493-1.369l-96.771-64.845c-0.022,0.032-0.032,0.064-0.054,0.097l-3.298,5.13
		c-6.961,10.812-3.825,25.212,6.993,32.154c0,0,67.215,43.267,67.808,43.537C200.405,254.264,226.287,260.806,251.317,262.584z"/>
</g>
<g>
</g>
<g>
</g>
<g>
</g>
<g>
</g>
<g>
</g>
<g>
</g>
<g>
</g>
<g>
</g>
<g>
</g>
<g>
</g>
<g>
</g>
<g>
</g>
<g>
</g>
<g>
</g>
<g>
</g>
</svg>
