<?xml version="1.0" encoding="iso-8859-1"?>
<!-- Generator: Adobe Illustrator 19.0.0, SVG Export Plug-In . SVG Version: 6.00 Build 0)  -->
<svg version="1.1" id="Layer_1" xmlns="http://www.w3.org/2000/svg" xmlns:xlink="http://www.w3.org/1999/xlink" x="0px" y="0px"
	 viewBox="0 0 512.001 512.001" style="enable-background:new 0 0 512.001 512.001;" xml:space="preserve">
<path style="fill:#D1C1A1;" d="M324.583,414.339l-23.521,42.842c-2.041,3.717-1.003,8.375,2.421,10.869l28.62,20.846
	c1.426,1.039,3.144,1.599,4.908,1.599h11.796c8.887,0,17.211,4.365,22.277,11.682l1.648,2.38c2.178,3.144-0.068,7.445-3.888,7.445
	H331.03c-5.623,0-11.109-1.729-15.721-4.954l-29.879-20.896c-11.561-8.085-15.425-23.462-9.061-36.07l24.307-48.165L324.583,414.339
	z"/>
<path style="fill:#B8674D;" d="M453.486,5.54v267.037c0,2.703-0.068,5.359-0.225,8.018
	c-4.157,78.774-69.213,141.356-148.831,141.356H122.937c-4.099,0-5.885-5.182-2.657-7.707L291.732,280.1V5.54
	c0-3.042,2.457-5.537,5.498-5.54c10.079-0.008,19.192,4.07,25.783,10.675c6.607,6.597,10.674,15.74,10.674,25.807v16.641
	c11.551-5.157,24.809-8.084,38.921-8.084c14.112,0,27.393,2.927,38.944,8.107V36.483C411.553,16.327,427.846,0,447.958,0
	c1.528,0,2.922,0.608,3.91,1.622C452.857,2.634,453.486,4.009,453.486,5.54z"/>
<g>
	<path style="fill:#91523D;" d="M418.645,48.035c7.484,1.902,14.735-3.831,14.735-11.552l0,0c0-14.18,8.07-26.457,19.855-32.494
		c-0.266-0.899-0.73-1.714-1.368-2.366C450.88,0.608,449.486,0,447.958,0c-20.112,0-36.404,16.327-36.404,36.483v10.036
		C413.958,46.939,416.324,47.446,418.645,48.035z"/>
	<path style="fill:#91523D;" d="M313.56,5.54c0-0.546,0.103-1.063,0.25-1.561C308.863,1.449,303.266,0.01,297.326,0
		c-3.075-0.005-5.592,2.465-5.592,5.54v274.558L120.281,414.242c-3.229,2.526-1.442,7.707,2.657,7.707h9.319l181.303-141.851V5.54
		H313.56z"/>
</g>
<path style="fill:#B8674D;" d="M453.486,272.577v8.018h-0.225C453.418,277.937,453.486,275.28,453.486,272.577z"/>
<path style="fill:#F2E5CB;" d="M373.589,189.905c0,0-103.055-33.305-75.083-96.266c17.246-38.817,75.083-1.369,75.083-1.369
	s57.837-37.448,75.083,1.369C476.644,156.6,373.589,189.905,373.589,189.905z"/>
<path style="fill:#D1C1A1;" d="M320.063,93.639c4.124-9.284,10.574-14.197,17.996-16.312c-15.404-3.227-31.694-1.378-39.554,16.312
	c-27.972,62.961,75.083,96.266,75.083,96.266s4.245-1.372,10.778-4.086C358.71,175.165,297.768,143.822,320.063,93.639z"/>
<g>
	<circle style="fill:#7A4533;" cx="332.518" cy="118.742" r="8.084"/>
	<circle style="fill:#7A4533;" cx="414.532" cy="117.927" r="8.084"/>
</g>
<path style="fill:#91523D;" d="M383.156,335.764c-0.485,0.345-0.97,0.69-1.466,1.034l-139.798,96.935
	c-9.517,6.607-22.581,4.226-29.156-5.304l-3.137-4.538c-2.717-3.934-6.532-6.651-10.757-8.008
	c-6.014-1.962-12.838-1.186-18.431,2.695l-9.259,6.414c-4.764,3.309-10.412,4.355-15.683,3.396
	c-1.034-0.184-2.058-0.453-3.062-0.798c-4.161-1.422-7.911-4.182-10.573-8.127c-2.608-3.869-6.327-6.511-10.466-7.837
	c-6.057-1.973-13.01-1.121-18.625,2.77l-15.306,10.607c-9.506,6.596-22.581,4.226-29.156-5.303l-9-13.032
	c-1.358-1.961-0.862-4.646,1.089-5.993L307.47,229.322c0.495-0.355,0.981-0.69,1.487-1.014c1.369-0.894,2.76-1.736,4.171-2.512
	c0.712-0.388,1.423-0.765,2.134-1.132c2.856-1.445,5.777-2.652,8.752-3.644c0.377-0.129,0.744-0.248,1.121-0.367
	c0.669-0.216,1.326-0.41,1.994-0.592c0.452-0.119,0.916-0.248,1.379-0.367c1.434-0.367,2.878-0.679,4.333-0.937
	c0.14-0.032,0.27-0.054,0.41-0.076c1.8-0.323,3.6-0.56,5.4-0.722c0.075,0,0.15-0.01,0.227-0.022c2.275-0.194,4.56-0.27,6.844-0.227
	c0.41,0.011,0.819,0.022,1.218,0.032c0.41,0.022,0.819,0.032,1.229,0.054c0.399,0.032,0.809,0.053,1.207,0.087
	c0.399,0.032,0.809,0.065,1.207,0.097c0.41,0.043,0.809,0.087,1.217,0.13c0.388,0.043,0.776,0.087,1.174,0.14
	c0.022,0,0.043,0.011,0.065,0c3.202,0.42,6.381,1.078,9.486,1.983c0.388,0.108,0.776,0.227,1.164,0.345c-0.01,0-0.01,0-0.022,0.01
	c13.549,4.128,25.858,12.698,34.535,25.266C418.358,275.036,411.557,314.897,383.156,335.764z"/>
<g>
	<path style="fill:#6E3E2E;" d="M363.689,220.58c-5.702,1.756-11.242,4.311-16.47,7.728c-0.507,0.323-0.992,0.657-1.487,1.014
		L98.634,400.674c-1.951,1.347-2.447,4.031-1.089,5.993l3.869,5.594l167.402-112.413c3.697-2.49,8.72-1.498,11.21,2.198
		c2.49,3.708,1.509,8.731-2.198,11.221l-146.459,98.358c-6.057-1.973-13.01-1.121-18.625,2.77l-15.306,10.607
		c-9.506,6.596-22.581,4.226-29.156-5.303l-9-13.032c-1.358-1.961-0.862-4.646,1.089-5.994L307.47,229.323
		c0.495-0.355,0.981-0.69,1.487-1.014c1.369-0.894,2.76-1.736,4.171-2.512c0.712-0.388,1.412-0.765,2.134-1.132
		c2.856-1.445,5.777-2.652,8.752-3.644c0.377-0.129,0.744-0.248,1.121-0.367c0.657-0.205,1.326-0.399,1.994-0.592
		c0.452-0.119,0.916-0.248,1.379-0.367c1.434-0.367,2.878-0.679,4.333-0.937c0.14-0.032,0.27-0.054,0.41-0.076
		c1.789-0.312,3.589-0.55,5.4-0.722c0.075,0,0.15-0.01,0.227-0.022c2.285-0.194,4.57-0.27,6.844-0.227
		c0.41,0.011,0.819,0.022,1.218,0.032c0.41,0.022,0.819,0.032,1.229,0.054c0.399,0.032,0.809,0.053,1.207,0.087
		c0.399,0.032,0.809,0.065,1.207,0.097c0.41,0.043,0.809,0.087,1.217,0.13c0.388,0.043,0.776,0.087,1.174,0.14
		c0.022,0,0.043,0.011,0.065,0c3.202,0.432,6.37,1.089,9.486,1.983C362.913,220.343,363.302,220.462,363.689,220.58z"/>
	<path style="fill:#6E3E2E;" d="M344.299,318.194l-145.457,97.69c-6.014-1.962-12.838-1.186-18.431,2.695l-9.259,6.414
		c-4.764,3.309-10.412,4.355-15.683,3.396c-1.034-0.184-2.058-0.453-3.062-0.798l182.88-122.815c3.707-2.49,8.73-1.498,11.22,2.21
		C348.998,310.693,348.006,315.704,344.299,318.194z"/>
</g>
<g>
</g>
<g>
</g>
<g>
</g>
<g>
</g>
<g>
</g>
<g>
</g>
<g>
</g>
<g>
</g>
<g>
</g>
<g>
</g>
<g>
</g>
<g>
</g>
<g>
</g>
<g>
</g>
<g>
</g>
</svg>
