<?xml version="1.0" encoding="iso-8859-1"?>
<!-- Generator: Adobe Illustrator 19.0.0, SVG Export Plug-In . SVG Version: 6.00 Build 0)  -->
<svg version="1.1" id="Layer_1" xmlns="http://www.w3.org/2000/svg" xmlns:xlink="http://www.w3.org/1999/xlink" x="0px" y="0px"
	 viewBox="0 0 512.005 512.005" style="enable-background:new 0 0 512.005 512.005;" xml:space="preserve">
<g>
	<path style="fill:#4D3D2D;" d="M172.841,193.227c-13.572,11.201-30.977,17.93-49.947,17.93H94.941
		c-32.233,0-60.337,17.581-75.306,43.664v-0.051l-0.301,0.573c-0.978,1.735-1.912,3.499-2.774,5.306l-8.408,16.077v21.219
		l-0.002,0.27c16.698-17.723,40.386-28.789,66.656-28.789c5.35,0,10.594,0.46,15.696,1.34l-0.015,0.086
		c3.892,0.593,7.878,0.901,11.931,0.901c43.368,0,78.526-35.157,78.526-78.523L172.841,193.227L172.841,193.227z"/>
	<path style="fill:#4D3D2D;" d="M172.841,193.227c-13.572,11.201-30.977,17.93-49.947,17.93H94.941
		c-32.233,0-60.337,17.581-75.306,43.664v-0.051l-0.301,0.573c-0.978,1.735-1.912,3.499-2.774,5.306l-8.408,16.077v21.219
		l-0.002,0.27c16.698-17.723,40.386-28.789,66.656-28.789c5.35,0,10.594,0.46,15.696,1.34l-0.015,0.086
		c3.892,0.593,7.878,0.901,11.931,0.901c43.368,0,78.526-35.157,78.526-78.523L172.841,193.227L172.841,193.227z"/>
</g>
<g>
	<path style="fill:#65513C;" d="M180.944,172.008c0,43.368-35.157,78.525-78.526,78.525c-4.053,0-8.039-0.308-11.931-0.902
		l0.015-0.085c-5.102-0.881-10.345-1.339-15.696-1.339c-26.269,0-49.957,11.065-66.656,28.788l0.002-0.268
		c0-47.932,38.856-86.788,86.789-86.788h27.951c18.971,0,36.376-6.729,49.947-17.931L180.944,172.008L180.944,172.008z"/>
	<path style="fill:#65513C;" d="M180.944,172.008c0,43.368-35.157,78.525-78.526,78.525c-4.053,0-8.039-0.308-11.931-0.902
		l0.015-0.085c-5.102-0.881-10.345-1.339-15.696-1.339c-26.269,0-49.957,11.065-66.656,28.788l0.002-0.268
		c0-47.932,38.856-86.788,86.789-86.788h27.951c18.971,0,36.376-6.729,49.947-17.931L180.944,172.008L180.944,172.008z"/>
	<path style="fill:#65513C;" d="M470.333,312.678v0.003c-24.381-86.072-102.974-149.359-196.556-150.63v-0.037h-59.344
		c-50.539,0-91.509,40.971-91.509,91.508v88.35c0,4.483,3.636,8.119,8.12,8.119H173.5v-36.21
		c10.661-5.363,19.981-12.986,27.341-22.247h67.351v50.337c0,4.483,3.634,8.119,8.118,8.119h42.457v-83.056h50.045
		c34.983,0,65.225,20.211,79.744,49.579l0.036,0.074c0.989,1.676,2.814,2.798,4.901,2.798h11.98c2.825,0,5.115-2.289,5.115-5.115
		C470.587,313.716,470.498,313.18,470.333,312.678z"/>
</g>
<path style="fill:#967A4A;" d="M365.235,265.249c-1.73-1.265-3.451-2.508-5.177-3.72c-6.954-4.755-13.886-9.013-20.754-12.476
	c-3.385-1.81-6.813-3.312-10.078-4.826c-1.626-0.769-3.302-1.368-4.905-2.034c-1.612-0.642-3.184-1.292-4.739-1.886
	c-3.166-1.069-6.157-2.159-9.051-3.054c-2.922-0.821-5.66-1.657-8.266-2.323c-2.632-0.602-5.074-1.185-7.341-1.676
	c-2.277-0.457-4.384-0.8-6.277-1.118c-0.946-0.156-1.842-0.305-2.683-0.444c-0.842-0.14-1.652-0.196-2.389-0.287
	c-1.481-0.162-2.74-0.299-3.761-0.411c-2.04-0.217-3.128-0.302-3.128-0.302c-2.627-0.199-5.228,1.25-6.35,3.8
	c-1.425,3.235,0.042,7.011,3.275,8.436l0.2,0.087c0,0,0.94,0.414,2.706,1.193c1.759,0.775,4.364,1.797,7.577,3.329
	c1.606,0.766,3.409,1.519,5.326,2.446c1.902,0.966,3.97,1.958,6.159,3.038c2.154,1.141,4.446,2.355,6.863,3.635
	c2.392,1.312,4.856,2.772,7.439,4.237c3.084,1.887,6.308,3.887,9.584,6.045h47.977C366.712,266.361,365.978,265.794,365.235,265.249
	z"/>
<path style="fill:#333E48;" d="M338.824,254.584c-3.2-1.866-6.446-3.437-9.541-5.015c-1.543-0.803-3.135-1.445-4.656-2.146
	c-1.528-0.682-3.031-1.351-4.502-2.005c-3.001-1.178-5.84-2.373-8.591-3.374c-2.783-0.929-5.399-1.845-7.88-2.631
	c-2.507-0.723-4.832-1.428-7.003-2.02c-2.175-0.568-4.2-1-6.008-1.434c-0.906-0.211-1.764-0.411-2.57-0.599
	c-0.804-0.19-1.581-0.294-2.289-0.431c-1.422-0.252-2.63-0.467-3.61-0.641c-1.961-0.331-3.007-0.509-3.007-0.509
	c-1.797-0.305-3.627,0.683-4.31,2.455c-0.777,2.018,0.229,4.286,2.247,5.065l0.169,0.064c0,0,0.953,0.367,2.739,1.055
	c1.779,0.694,4.418,1.601,7.684,2.992c1.634,0.688,3.462,1.395,5.409,2.258c1.933,0.905,4.039,1.819,6.275,2.826
	c2.218,1.055,4.538,2.25,6.995,3.462c2.438,1.257,4.966,2.647,7.615,4.05c4.584,2.674,9.47,5.596,14.417,8.931h29.616
	C351.595,262.291,345.188,258.079,338.824,254.584z"/>
<path style="fill:#1E252B;" d="M351.984,211.685c-4.026,0-7.288,3.262-7.288,7.287c0,4.026,3.262,7.288,7.288,7.288
	c4.021,0,7.286-3.262,7.286-7.288C359.269,214.947,356.005,211.685,351.984,211.685z M503.851,298.719
	c-4.502,0-8.149,3.649-8.149,8.149c0,8.8-7.16,15.96-15.96,15.96c-1.293,0-2.563-0.16-3.788-0.457
	c1.737-2.243,2.783-5.048,2.783-8.098c0-1.354-0.204-2.69-0.61-3.976c-12.409-43.674-39.082-83.147-75.12-111.166
	c-37.024-28.786-81.383-44.411-128.327-45.217c-0.297-0.033-0.599-0.049-0.904-0.049h-59.344c-23.04,0-44.276,7.861-61.174,21.04
	c-9.511,4.559-19.717,6.884-30.361,6.884H94.941c-52.35,0-94.939,42.589-94.939,94.938v21.155L0,298.149
	c-0.026,3.352,2.003,6.378,5.113,7.627c0.984,0.396,2.015,0.588,3.034,0.588c2.203-0.001,4.363-0.894,5.934-2.562
	c15.934-16.913,37.499-26.228,60.724-26.228c4.42,0,8.854,0.349,13.193,1.037c0.41,0.131,0.831,0.23,1.26,0.296
	c4.325,0.66,8.752,0.993,13.159,0.993c4.146,0,8.275-0.303,12.356-0.887v62.859c0,8.971,7.299,16.268,16.27,16.268h57.337
	c4.502,0,8.149-3.649,8.149-8.149c0-4.501-3.648-8.149-8.149-8.149h-6.729v-23.203c8.621-4.981,16.457-11.435,23.009-18.954h55.386
	v42.188c0,8.971,7.298,16.268,16.267,16.268h57.337c4.502,0,8.149-3.649,8.149-8.149c0-4.501-3.648-8.149-8.149-8.149h-6.729
	v-66.757h41.896c30.947,0,58.703,17.258,72.458,45.083c0.095,0.192,0.196,0.38,0.304,0.565c2.477,4.196,7.044,6.803,11.918,6.803
	h1.496c6.096,7.311,15.109,11.592,24.754,11.592c17.787,0,32.259-14.471,32.259-32.259C512,302.368,508.353,298.719,503.851,298.719
	z M114.773,253.524v8.979c-7.221,1.271-14.685,1.44-21.947,0.453c-0.306-0.092-0.619-0.165-0.939-0.221
	c-5.608-0.968-11.355-1.459-17.082-1.459c-21.07,0-41.603,6.776-58.504,18.991v-3.54c0-43.361,35.278-78.639,78.64-78.639h27.956
	c3.057,0,6.083-0.163,9.077-0.472C121.123,213.569,114.773,232.818,114.773,253.524z M455.018,311.237
	c-16.776-32.404-49.635-52.451-86.206-52.451h-50.045c-4.502,0-8.149,3.649-8.149,8.149v74.912l-34.276,0.025v-50.337
	c0-4.501-3.648-8.149-8.149-8.149h-67.351c-2.485,0-4.833,1.133-6.379,3.078c-6.627,8.337-15.142,15.266-24.624,20.037
	c-2.75,1.383-4.487,4.201-4.487,7.28v28.067l-34.279,0.025v-88.35c0-45.965,37.395-83.359,83.36-83.359H273
	c0.218,0.021,0.441,0.033,0.665,0.036c43.661,0.592,84.927,15.046,119.337,41.799c32.348,25.15,56.534,60.276,68.411,99.238H455.018
	z"/>
<g>
</g>
<g>
</g>
<g>
</g>
<g>
</g>
<g>
</g>
<g>
</g>
<g>
</g>
<g>
</g>
<g>
</g>
<g>
</g>
<g>
</g>
<g>
</g>
<g>
</g>
<g>
</g>
<g>
</g>
</svg>
