<?xml version="1.0" encoding="iso-8859-1"?>
<!-- Generator: Adobe Illustrator 19.0.0, SVG Export Plug-In . SVG Version: 6.00 Build 0)  -->
<svg version="1.1" id="Layer_1" xmlns="http://www.w3.org/2000/svg" xmlns:xlink="http://www.w3.org/1999/xlink" x="0px" y="0px"
	 viewBox="0 0 512.001 512.001" style="enable-background:new 0 0 512.001 512.001;" xml:space="preserve">
<path style="fill:#333E48;" d="M121.992,230.837c-62.637,0-113.466,50.532-113.966,113.054c14.684-6.695,31-10.43,48.19-10.43
	c29.647,0,56.698,11.1,77.236,29.366c20.539-18.264,47.59-29.366,77.238-29.366c8.682,0,17.142,0.96,25.283,2.764V230.837H121.992z"
	/>
<path style="fill:#5C6670;" d="M133.017,246.56c-55.536,0-101.785,39.725-111.907,92.308c11.078-3.504,22.87-5.406,35.105-5.406
	c29.647,0,56.698,11.1,77.236,29.366c20.539-18.264,47.59-29.366,77.238-29.366c8.682,0,17.142,0.96,25.283,2.764V246.56H133.017z"
	/>
<path style="fill:#333E48;" d="M390.008,230.837c62.638,0,113.467,50.532,113.967,113.054c-14.684-6.695-31-10.43-48.19-10.43
	c-29.647,0-56.698,11.1-77.236,29.366c-20.539-18.264-47.59-29.366-77.238-29.366c-8.682,0-17.142,0.96-25.281,2.764V230.837
	H390.008z"/>
<path style="fill:#5C6670;" d="M378.982,246.56c55.536,0,101.785,39.725,111.907,92.308c-11.078-3.504-22.87-5.406-35.105-5.406
	c-29.647,0-56.698,11.1-77.236,29.366c-20.539-18.264-47.59-29.366-77.238-29.366c-8.682,0-17.142,0.96-25.281,2.764V246.56H378.982
	z"/>
<path style="fill:#333E48;" d="M319.058,216.013c0-34.826-28.233-63.059-63.059-63.059c-34.827,0-63.059,28.233-63.059,63.059
	c0,7.822,1.434,15.306,4.037,22.217c-2.499,2.858-4.024,6.588-4.024,10.682v68.287c0,17.438,7.081,33.222,18.523,44.635v19.593
	c0,6.764,5.482,12.246,12.246,12.246c6.763,0,12.244-5.485,12.246-12.245v-4.451c6.295,2.109,13.025,3.268,20.03,3.268
	s13.735-1.159,20.03-3.269v4.452c0.001,6.762,5.484,12.245,12.245,12.245c6.765,0,12.246-5.484,12.246-12.246v-19.593
	c11.442-11.413,18.522-27.197,18.522-44.635v-68.287c0-4.095-1.526-7.825-4.024-10.683
	C317.624,231.319,319.058,223.835,319.058,216.013z"/>
<g>
	<polygon style="fill:#FFFFFF;" points="241.832,240.508 236.998,230.837 246.67,230.837 	"/>
	<polygon style="fill:#FFFFFF;" points="270.168,240.508 275.003,230.837 265.331,230.837 	"/>
</g>
<path style="fill:#333E48;" d="M221.374,156.584c0-18.469-16.719-33.44-16.719-33.44s-16.721,14.972-16.721,33.44
	s16.721,33.44,16.721,33.44S221.374,175.053,221.374,156.584z"/>
<path style="fill:#5C6670;" d="M213.883,156.584c0-10.194-9.228-18.456-9.228-18.456s-9.23,8.262-9.23,18.456
	c0,10.194,9.23,18.458,9.23,18.458S213.883,166.778,213.883,156.584z"/>
<path style="fill:#333E48;" d="M290.625,156.584c0-18.469,16.719-33.44,16.719-33.44s16.721,14.972,16.721,33.44
	s-16.721,33.44-16.721,33.44S290.625,175.053,290.625,156.584z"/>
<path style="fill:#5C6670;" d="M298.117,156.584c0-10.194,9.228-18.456,9.228-18.456s9.229,8.262,9.229,18.456
	c0,10.194-9.229,18.458-9.229,18.458S298.117,166.778,298.117,156.584z"/>
<path style="fill:#1E252B;" d="M475.948,258.222c-23.004-22.835-53.524-35.411-85.939-35.411h-63.26
	c0.214-2.251,0.335-4.519,0.335-6.799c0-8.088-1.377-15.856-3.876-23.105c7.726-8.729,15.484-21.035,15.484-35.254
	c0-25.423-25.43-44.913-26.512-45.73c-2.862-2.16-6.81-2.16-9.671,0.001c-0.943,0.712-20.353,15.595-25.342,36.225
	c-6.689-2.091-13.798-3.219-21.167-3.219c-7.369,0-14.479,1.128-21.167,3.219c-4.99-20.629-24.399-35.512-25.342-36.225
	c-2.861-2.16-6.809-2.161-9.671-0.001c-1.082,0.818-26.512,20.307-26.512,45.73c0,14.22,7.759,26.525,15.484,35.254
	c-2.5,7.249-3.877,15.018-3.877,23.105c0,2.28,0.12,4.547,0.335,6.799h-63.26c-32.414,0-62.935,12.576-85.939,35.411
	C13.062,281.044,0.258,311.445,0,343.826c-0.021,2.742,1.357,5.305,3.656,6.797c2.301,1.492,5.204,1.707,7.698,0.569
	c14.124-6.44,29.217-9.706,44.86-9.706c26.544,0,52.08,9.708,71.903,27.337c1.521,1.353,3.426,2.029,5.333,2.029
	c1.906,0,3.812-0.676,5.333-2.029c14.6-12.984,32.177-21.655,51.158-25.335c3.129,7.867,7.67,15.163,13.511,21.562v16.376
	c0,11.177,9.093,20.272,20.272,20.272c9.205,0,16.998-6.171,19.462-14.593c8.438,1.547,17.193,1.547,25.629,0
	c2.462,8.423,10.255,14.593,19.462,14.593c11.177,0,20.272-9.094,20.272-20.272V365.05c5.84-6.399,10.381-13.695,13.51-21.562
	c18.981,3.68,36.557,12.351,51.158,25.335c1.521,1.353,3.427,2.029,5.333,2.029c1.906,0,3.813-0.676,5.333-2.029
	c19.823-17.629,45.359-27.337,71.903-27.337c15.644,0,30.736,3.266,44.86,9.706c2.495,1.137,5.397,0.922,7.698-0.569
	c2.299-1.493,3.679-4.055,3.657-6.797C511.741,311.445,498.937,281.044,475.948,258.222z M133.449,352.347
	c-21.922-17.401-49.085-26.91-77.234-26.91c-5.388,0-10.715,0.353-15.978,1.025c6.22-17.247,17.139-32.7,31.524-44.36
	c17.897-14.508,40.469-22.498,63.559-22.498h49.608V317.2c0,3.633,0.285,7.219,0.816,10.745
	C166.63,331.835,148.791,340.151,133.449,352.347z M185.545,243.553h-50.224c-26.757,0-52.92,9.262-73.667,26.08
	c-19.153,15.526-33.009,36.864-39.387,60.501c-1.821,0.517-3.635,1.065-5.434,1.667c2.863-23.514,13.465-45.253,30.526-62.189
	c19.976-19.831,46.481-30.751,74.631-30.751h65.139C186.442,240.367,185.912,241.939,185.545,243.553z M189.359,157.654
	c0-11.889,9.324-22.844,15.282-28.628c5.488,5.354,13.843,15.125,15.124,25.867c-9.282,5.525-17.202,13.099-23.136,22.099
	C192.76,171.54,189.359,164.74,189.359,157.654z M308.978,243.51c0.932,1.066,2.042,2.869,2.042,5.403V317.2
	c0,14.721-5.741,28.555-16.165,38.953c-1.51,1.506-2.358,3.55-2.358,5.682v19.593c0,2.327-1.894,4.221-4.221,4.221
	s-4.22-1.894-4.22-4.22v-4.452c0-2.582-1.242-5.006-3.338-6.514c-1.384-0.995-3.026-1.511-4.688-1.511
	c-0.856,0-1.716,0.137-2.549,0.416c-11.298,3.786-23.659,3.786-34.961,0c-2.449-0.82-5.14-0.412-7.237,1.096
	c-2.095,1.508-3.337,3.932-3.337,6.513v4.449c-0.001,2.328-1.894,4.222-4.221,4.222c-2.327,0-4.221-1.894-4.221-4.221v-19.593
	c0-2.133-0.849-4.176-2.358-5.682c-10.424-10.397-16.165-24.232-16.165-38.953v-68.287c0-2.534,1.11-4.336,2.041-5.4
	c1.946-2.227,2.51-5.343,1.468-8.111c-2.337-6.205-3.523-12.728-3.523-19.389c0-30.345,24.688-55.033,55.033-55.033
	s55.033,24.688,55.033,55.033c0,6.66-1.185,13.183-3.523,19.388C306.469,238.168,307.033,241.284,308.978,243.51z M315.373,176.991
	c-5.935-9.001-13.856-16.576-23.139-22.1c1.271-10.802,9.606-20.532,15.097-25.866c5.956,5.81,15.311,16.818,15.311,28.628
	C322.641,164.74,319.241,171.54,315.373,176.991z M455.785,325.437c-28.15,0-55.313,9.509-77.234,26.91
	c-15.342-12.195-33.18-20.511-52.296-24.401c0.532-3.526,0.816-7.112,0.816-10.745v-57.596h49.608
	c23.09,0,45.662,7.99,63.559,22.498c14.385,11.66,25.304,27.113,31.524,44.36C466.501,325.789,461.172,325.437,455.785,325.437z
	 M489.732,330.135c-6.377-23.637-20.233-44.976-39.386-60.501c-20.747-16.819-46.909-26.08-73.667-26.08h-50.223
	c-0.368-1.615-0.898-3.185-1.586-4.691h65.139c28.15,0,54.655,10.922,74.631,30.751c17.06,16.935,27.662,38.675,30.526,62.189
	C493.367,331.2,491.554,330.652,489.732,330.135z M221.374,192.994c-3.458,0-6.264,2.805-6.264,6.265
	c0,3.458,2.806,6.264,6.264,6.264c3.46,0,6.265-2.806,6.265-6.264C227.639,195.799,224.835,192.994,221.374,192.994z
	 M290.625,192.994c-3.46,0-6.265,2.805-6.265,6.265c0,3.458,2.805,6.264,6.265,6.264c3.458,0,6.264-2.806,6.264-6.264
	C296.889,195.799,294.083,192.994,290.625,192.994z M263.242,209.757h-14.579c-4.917,0-6.046,2.795-2.509,6.21l3.946,3.81
	c3.536,3.414,9.224,3.314,12.637-0.227l3.238-3.358C269.389,212.652,268.16,209.757,263.242,209.757z"/>
<g>
</g>
<g>
</g>
<g>
</g>
<g>
</g>
<g>
</g>
<g>
</g>
<g>
</g>
<g>
</g>
<g>
</g>
<g>
</g>
<g>
</g>
<g>
</g>
<g>
</g>
<g>
</g>
<g>
</g>
</svg>
