<?xml version="1.0" encoding="iso-8859-1"?>
<!-- Generator: Adobe Illustrator 19.0.0, SVG Export Plug-In . SVG Version: 6.00 Build 0)  -->
<svg version="1.1" id="Layer_1" xmlns="http://www.w3.org/2000/svg" xmlns:xlink="http://www.w3.org/1999/xlink" x="0px" y="0px"
	 viewBox="0 0 512.002 512.002" style="enable-background:new 0 0 512.002 512.002;" xml:space="preserve">
<g>
	<path style="fill:#333E48;" d="M78.805,342.884c-7.474,0-13.534-6.059-13.534-13.533c0-41.949,34.128-76.075,76.076-76.075
		c7.474,0,13.533,6.06,13.533,13.534s-6.059,13.534-13.533,13.534c-27.022,0-49.006,21.982-49.006,49.005
		C92.34,336.826,86.28,342.884,78.805,342.884z"/>
	<path style="fill:#333E48;" d="M78.805,456.988c-7.474,0-13.534-6.058-13.534-13.533c0-41.948,34.128-76.075,76.076-76.075
		c7.474,0,13.533,6.06,13.533,13.534s-6.059,13.534-13.533,13.534c-27.022,0-49.006,21.982-49.006,49.005
		C92.34,450.929,86.28,456.988,78.805,456.988z"/>
	<path style="fill:#333E48;" d="M433.195,342.884c7.475,0,13.534-6.059,13.534-13.533c0-41.949-34.127-76.075-76.076-76.075
		c-7.474,0-13.533,6.06-13.533,13.534s6.059,13.534,13.533,13.534c27.022,0,49.006,21.982,49.006,49.005
		C419.661,336.826,425.72,342.884,433.195,342.884z"/>
	<path style="fill:#333E48;" d="M433.195,456.988c7.475,0,13.534-6.058,13.534-13.533c0-41.948-34.127-76.075-76.076-76.075
		c-7.474,0-13.533,6.06-13.533,13.534s6.059,13.534,13.533,13.534c27.022,0,49.006,21.982,49.006,49.005
		C419.661,450.929,425.72,456.988,433.195,456.988z"/>
	<path style="fill:#333E48;" d="M106.277,125.13c-7.474,0-13.534,6.058-13.534,13.533c0,41.948,34.127,76.075,76.076,76.075
		c7.473,0,13.533-6.06,13.533-13.534s-6.06-13.534-13.533-13.534c-27.022,0-49.006-21.983-49.006-49.005
		C119.812,131.189,113.753,125.13,106.277,125.13z"/>
	<path style="fill:#333E48;" d="M405.724,125.13c7.474,0,13.534,6.058,13.534,13.533c0,41.948-34.127,76.075-76.076,76.075
		c-7.473,0-13.533-6.06-13.533-13.534s6.059-13.534,13.533-13.534c27.022,0,49.006-21.983,49.006-49.005
		C392.188,131.189,398.248,125.13,405.724,125.13z"/>
	<path style="fill:#333E48;" d="M270.763,103.193V88.764h39.802c18.781,0,34.005-15.225,34.005-34.005V20.756
		c0-6.988-5.665-12.653-12.653-12.653c-6.988,0-12.653,5.665-12.653,12.653v16.08c0,8.881-7.199,16.079-16.079,16.079h-94.369
		c-8.88,0-16.079-7.198-16.079-16.079v-16.08c0-6.988-5.665-12.653-12.653-12.653c-6.988,0-12.653,5.665-12.653,12.653V54.76
		c0,18.78,15.224,34.005,34.005,34.005h39.803v14.428c-54.609,7.226-96.762,53.937-96.762,110.521v19.515
		c0,13.319,10.799,24.12,24.119,24.12h174.81c13.32,0,24.118-10.801,24.118-24.12v-19.515
		C367.524,157.13,325.373,110.419,270.763,103.193z"/>
</g>
<path style="fill:#ED9900;" d="M354.297,227.224H157.703c-14.981,0-27.125,12.145-27.125,27.125v124.126
	c0,69.268,56.154,125.422,125.422,125.422s125.422-56.154,125.422-125.422V254.35C381.423,239.37,369.278,227.224,354.297,227.224z"
	/>
<path style="fill:#65513C;" d="M258.373,487.015V245.978c5.089-8.241,12.598-14.83,21.55-18.753h-47.845
	c8.952,3.924,16.461,10.51,21.55,18.753v241.036c-3.099,6.123-7.372,11.547-12.536,15.971c4.892,0.581,9.86,0.913,14.909,0.913
	s10.016-0.332,14.909-0.913C265.745,498.561,261.472,493.136,258.373,487.015z"/>
<path style="fill:#1E252B;" d="M459.657,469.321c-6.084,0-11.615-2.868-15.144-7.461c6.179-3.814,10.32-10.627,10.32-18.406
	c0-39.265-27.622-73.346-65.307-82.029v-68.341c13.203,6.942,22.032,20.886,22.032,36.266c0,9.87,6.65,18.198,15.698,20.788
	c5.503,12.763,18.138,21.285,32.4,21.285c4.475,0,8.103-3.627,8.103-8.103c0-4.476-3.628-8.103-8.103-8.103
	c-6.084,0-11.615-2.868-15.144-7.461c6.179-3.814,10.32-10.627,10.32-18.406c0-39.522-27.984-73.781-66.046-82.189
	c-1.757-8.437-6.541-15.773-13.159-20.824V216.33c31.173-13.026,51.734-43.521,51.734-77.666c0-7.812-4.177-14.651-10.4-18.454
	c3.53-4.566,9.045-7.413,15.108-7.413c4.475,0,8.103-3.627,8.103-8.103s-3.628-8.103-8.103-8.103
	c-14.275,0-26.919,8.537-32.414,21.319c-8.982,2.633-15.568,10.932-15.568,20.755c0,12.957-6.189,25.004-16.296,32.646
	c-14.141-37.048-46.232-65.722-86.199-74.442h28.974c23.218,0,42.108-18.889,42.108-42.108V20.756
	C352.673,9.311,343.362,0,331.917,0c-11.445,0-20.756,9.311-20.756,20.756v16.08c0,4.397-3.577,7.976-7.976,7.976h-94.369
	c-4.398,0-7.976-3.577-7.976-7.976v-16.08C200.84,9.311,191.529,0,180.084,0s-20.756,9.311-20.756,20.756V54.76
	c0,23.218,18.889,42.108,42.108,42.108h28.975c-39.967,8.72-72.058,37.394-86.2,74.442c-10.107-7.642-16.296-19.688-16.296-32.646
	c0-9.823-6.585-18.122-15.568-20.755c-5.495-12.781-18.139-21.319-32.414-21.319c-4.475,0-8.103,3.627-8.103,8.103
	s3.628,8.103,8.103,8.103c6.062,0,11.578,2.848,15.108,7.413c-6.224,3.804-10.4,10.642-10.4,18.454
	c0,34.145,20.561,64.64,51.734,77.666v10.008c-6.619,5.052-11.404,12.388-13.159,20.824c-38.063,8.408-66.046,42.666-66.046,82.189
	c0,7.779,4.141,14.592,10.32,18.406c-3.529,4.593-9.06,7.461-15.144,7.461c-4.475,0-8.103,3.627-8.103,8.103
	s3.628,8.103,8.103,8.103c14.264,0,26.898-8.523,32.4-21.285c9.048-2.59,15.698-10.919,15.698-20.788
	c0-15.38,8.829-29.325,22.032-36.266v68.341c-37.686,8.683-65.307,42.764-65.307,82.029c0,7.779,4.141,14.592,10.32,18.406
	c-3.529,4.593-9.06,7.461-15.144,7.461c-4.475,0-8.103,3.627-8.103,8.103s3.628,8.103,8.103,8.103
	c14.264,0,26.898-8.523,32.4-21.285c9.048-2.59,15.698-10.919,15.698-20.788c0-16.584,10.069-31.293,24.855-37.618
	c12.658,60.547,66.45,106.165,130.702,106.165s118.044-45.618,130.702-106.165c14.786,6.325,24.855,21.034,24.855,37.618
	c0,9.87,6.65,18.198,15.698,20.788c5.502,12.763,18.138,21.285,32.4,21.285c4.475,0,8.103-3.627,8.103-8.103
	S464.132,469.321,459.657,469.321z M389.526,264.048c28.557,8.286,49.101,34.867,49.101,65.302c0,2.994-2.436,5.43-5.431,5.43
	c-2.995,0-5.431-2.436-5.431-5.43c0-24.257-15.739-45.952-38.238-53.886v-11.416H389.526z M84.237,329.351
	c0,2.994-2.436,5.43-5.431,5.43c-2.995,0-5.431-2.436-5.431-5.43c0-30.436,20.544-57.016,49.101-65.302v11.416
	C99.976,283.399,84.237,305.094,84.237,329.351z M84.237,443.454c0,2.994-2.436,5.43-5.431,5.43c-2.995,0-5.431-2.436-5.431-5.43
	c0-30.434,20.544-57.016,49.101-65.302v0.324c0,3.676,0.157,7.317,0.448,10.919C100.121,397.173,84.237,418.84,84.237,443.454z
	 M152.58,213.714c0-51.659,38.572-95.72,89.721-102.487c4.03-0.534,7.04-3.969,7.04-8.033v-14.43c0-4.476-3.628-8.103-8.103-8.103
	h-39.803c-14.282,0-25.902-11.62-25.902-25.902V20.756c0-2.509,2.041-4.55,4.55-4.55c2.509,0,4.55,2.041,4.55,4.55v16.08
	c0,13.334,10.848,24.182,24.182,24.182h94.369c13.334,0,24.182-10.847,24.182-24.182v-16.08c0-2.509,2.041-4.55,4.55-4.55
	c2.509,0,4.55,2.041,4.55,4.55V54.76c0,14.282-11.619,25.902-25.902,25.902h-39.802c-4.475,0-8.103,3.627-8.103,8.103v14.428
	c0,4.064,3.011,7.499,7.04,8.033c51.15,6.769,89.721,50.829,89.721,102.487v5.784c-1.674-0.245-3.383-0.377-5.123-0.377H157.703
	c-1.741,0-3.45,0.132-5.123,0.377v-5.783H152.58z M100.846,138.665c0-2.989,2.429-5.421,5.417-5.429
	c0.003,0,0.005,0.001,0.009,0.001c0.005,0,0.011-0.001,0.016-0.001c2.991,0.006,5.421,2.438,5.421,5.429
	c0,20.083,10.638,38.595,27.586,48.865c-0.842,3.73-1.502,7.523-1.983,11.366C115.139,187.297,100.846,164.247,100.846,138.665z
	 M373.32,378.476c0,64.69-52.629,117.319-117.319,117.319s-117.32-52.629-117.32-117.319V254.35
	c0-10.489,8.533-19.022,19.023-19.022h196.594c10.489,0,19.023,8.533,19.023,19.022V378.476z M372.707,187.528
	c16.948-10.269,27.586-28.782,27.586-48.865c0-2.992,2.431-5.423,5.422-5.429c0.005,0,0.011,0.001,0.016,0.001
	c0.003,0,0.005-0.001,0.009-0.001c2.988,0.009,5.417,2.441,5.417,5.429c0,25.583-14.293,48.633-36.466,60.229
	C374.207,195.051,373.548,191.258,372.707,187.528z M433.195,448.885c-2.995,0-5.431-2.436-5.431-5.43
	c0-24.614-15.885-46.28-38.687-54.059c0.293-3.602,0.448-7.243,0.448-10.919v-0.324c28.557,8.286,49.101,34.868,49.101,65.302
	C438.626,446.449,436.19,448.885,433.195,448.885z"/>
<g>
</g>
<g>
</g>
<g>
</g>
<g>
</g>
<g>
</g>
<g>
</g>
<g>
</g>
<g>
</g>
<g>
</g>
<g>
</g>
<g>
</g>
<g>
</g>
<g>
</g>
<g>
</g>
<g>
</g>
</svg>
