<?xml version="1.0" encoding="iso-8859-1"?>
<!-- Generator: Adobe Illustrator 19.0.0, SVG Export Plug-In . SVG Version: 6.00 Build 0)  -->
<svg version="1.1" id="Layer_1" xmlns="http://www.w3.org/2000/svg" xmlns:xlink="http://www.w3.org/1999/xlink" x="0px" y="0px"
	 viewBox="0 0 511.999 511.999" style="enable-background:new 0 0 511.999 511.999;" xml:space="preserve">
<g>
	<path style="fill:#65513C;" d="M379.313,344.141c43.995,0,79.663,35.667,79.663,79.662c0,13.791-3.507,26.764-9.676,38.076h8.401
		c11.485,0,20.794,9.312,20.794,20.794v11.408c0,5.185-4.2,9.387-9.387,9.387h-89.795c-43.998,0-79.665-35.666-79.665-79.665
		C299.648,379.808,335.316,344.141,379.313,344.141z"/>
	<path style="fill:#65513C;" d="M132.686,344.141c-43.998,0-79.664,35.667-79.664,79.662c0,13.791,3.508,26.764,9.677,38.076h-8.402
		c-11.483,0-20.793,9.312-20.793,20.794v11.408c0,5.185,4.2,9.387,9.387,9.387h89.795c43.998,0,79.665-35.666,79.665-79.665
		C212.351,379.808,176.683,344.141,132.686,344.141z"/>
</g>
<path style="fill:#9C7F4D;" d="M173.85,503.469h164.302c36.51,0,66.387-29.875,66.387-66.385V299.457
	c0-82.036-66.504-148.537-148.539-148.537c-82.034,0-148.537,66.501-148.537,148.537v137.625
	C107.462,473.593,137.336,503.469,173.85,503.469z"/>
<path style="fill:#FFFFFF;" d="M107.462,339.368v88.739c19.833-5.017,34.513-22.977,34.513-44.37S127.295,344.384,107.462,339.368z"
	/>
<path style="fill:#9C7F4D;" d="M344.137,21.89H167.861c-39.174,0-71.226,32.052-71.226,71.226v74.571
	c0,88.016,71.351,159.364,159.365,159.364c88.013,0,159.364-71.348,159.364-159.364V93.115
	C415.364,53.942,383.311,21.89,344.137,21.89z"/>
<path style="fill:#FFFFFF;" d="M316.803,160.503H195.196c-18.733,0-33.916,15.185-33.916,33.917v67.833
	c0,18.733,15.184,33.918,33.916,33.918c18.733,0,33.916-15.186,33.916-33.918v-33.916h53.775v33.916
	c0,18.733,15.184,33.918,33.916,33.918c18.733,0,33.916-15.186,33.916-33.918V194.42
	C350.719,175.687,335.536,160.503,316.803,160.503z"/>
<path style="fill:#826940;" d="M283.234,202.732H228.76c-12.103,0-22.01,9.903-22.01,22.009v12.011
	c0,27.2,22.049,49.244,49.248,49.244c27.198,0,49.246-22.044,49.246-49.244v-12.011C305.246,212.635,295.34,202.732,283.234,202.732
	z"/>
<path style="fill:#333E48;" d="M271.894,177.723c-8.053,8.354-21.472,8.59-29.815,0.533l-9.312-8.987
	c-8.347-8.058-5.681-14.653,5.921-14.653h34.397c11.602,0,14.505,6.835,6.449,15.183L271.894,177.723z"/>
<g>
	<path style="fill:#65513C;" d="M410.001,90.503c-21.349,0.391-39.122-16.768-39.495-38.115l-0.427-23.813
		c-0.375-21.352,11.68-26.465,26.779-11.363l44.77,44.767c15.101,15.101,9.982,27.773-11.368,28.154L410.001,90.503z"/>
	<path style="fill:#65513C;" d="M101.998,90.503c21.35,0.391,39.123-16.768,39.495-38.115l0.427-23.813
		c0.375-21.352-11.68-26.465-26.779-11.363l-44.77,44.767C55.27,77.079,60.389,89.752,81.739,90.133L101.998,90.503z"/>
</g>
<circle style="fill:#FFFFFF;" cx="338.951" cy="104.539" r="38.438"/>
<g>
	<path style="fill:#826940;" d="M215.558,352.374c0-19.241-15.599-34.839-34.839-34.839c-19.241,0-34.839,15.598-34.839,34.839
		v109.505h-28.88c-11.486,0-20.793,9.312-20.793,20.794v11.408c0,5.185,4.2,9.387,9.386,9.387h89.173
		c11.483,0,20.793-9.312,20.793-20.795V352.374z"/>
	<path style="fill:#826940;" d="M296.441,352.374c0-19.241,15.599-34.839,34.839-34.839c19.241,0,34.839,15.598,34.839,34.839
		v109.505h28.88c11.486,0,20.793,9.312,20.793,20.794v11.408c0,5.185-4.2,9.387-9.386,9.387h-89.173
		c-11.483,0-20.793-9.312-20.793-20.795L296.441,352.374L296.441,352.374z"/>
</g>
<path style="fill:#1E252B;" d="M359.25,262.253V194.42c0-23.406-19.041-42.448-42.447-42.448h-27.655
	c-2.633-2.983-7.416-5.886-16.061-5.886h-34.397c-8.723,0-13.468,2.904-16.046,5.886h-27.448c-23.406,0-42.447,19.042-42.447,42.448
	v67.833c0,23.407,19.041,42.449,42.447,42.449c13.478,0,25.945-6.402,33.86-16.865c8.05,4.262,17.218,6.689,26.944,6.689
	c9.726,0,18.893-2.426,26.945-6.69c7.901,10.471,20.324,16.866,33.86,16.866C340.209,304.702,359.25,285.66,359.25,262.253z
	 M273.086,163.149c0.347,0,0.664,0.009,0.957,0.024c-0.192,0.22-0.407,0.455-0.648,0.705l-7.642,7.925
	c-2.371,2.458-5.58,3.814-9.035,3.814c-3.283,0-6.376-1.242-8.712-3.498l-9.293-8.969h34.374V163.149z M255.999,277.463
	c-22.452,0-40.717-18.264-40.717-40.712v-12.011c0-7.432,6.046-13.478,13.479-13.478h54.474c7.433,0,13.48,6.045,13.48,13.478
	v12.011C296.714,259.199,278.449,277.463,255.999,277.463z M296.686,277.727c10.547-10.473,17.09-24.973,17.09-40.976v-12.011
	c0-13.382-8.656-24.772-20.66-28.89v-2.925c0-4.713-3.819-8.532-8.531-8.532c-4.713,0-8.532,3.819-8.532,8.532v1.275h-40.109v-1.275
	c0-4.713-3.819-8.532-8.532-8.532s-8.532,3.819-8.532,8.532v2.923c-12.006,4.117-20.662,15.509-20.662,28.891v12.011
	c0,16.002,6.543,30.502,17.09,40.975c-4.741,6.153-12.131,9.914-20.115,9.914c-13.997,0-25.384-11.389-25.384-25.386V194.42
	c0-13.999,11.388-25.385,25.384-25.385h26.546c1.152,2.009,2.794,4.146,5.103,6.375l9.31,8.987
	c5.533,5.342,12.835,8.285,20.563,8.285c8.132,0,15.705-3.209,21.32-9.033l7.637-7.922c2.272-2.354,3.847-4.594,4.927-6.69h26.204
	c13.997,0,25.384,11.388,25.384,25.385v67.833c0,13.999-11.388,25.386-25.384,25.386
	C308.783,287.639,301.419,283.886,296.686,277.727z M462.294,453.706c3.432-9.547,5.216-19.691,5.216-29.902
	c0-35.934-21.637-67.929-54.438-81.491v-42.856c0-18.037-3.033-35.695-9.017-52.545c12.992-24.25,19.841-51.553,19.841-79.225
	V98.782l6.517-0.118c18.844-0.337,25.076-8.849,27.113-13.894c2.036-5.044,3.464-15.496-9.865-28.824L402.892,11.18
	C395.474,3.762,388.173,0,381.193,0c-4.812,0-9.134,1.811-12.503,5.237c-2.613,2.66-4.508,6.142-5.691,10.395
	c-6.146-1.505-12.456-2.274-18.863-2.274H167.861c-6.408,0-12.718,0.766-18.863,2.271c-1.183-4.252-3.078-7.732-5.69-10.391
	C139.94,1.811,135.618,0,130.805,0c-6.98,0-14.281,3.762-21.696,11.179l-44.77,44.768c-13.327,13.328-11.9,23.78-9.864,28.824
	c2.037,5.045,8.269,13.557,27.11,13.894l6.518,0.118v68.904c0,27.673,6.849,54.976,19.843,79.227
	c-5.985,16.85-9.016,34.506-9.016,52.543v42.855c-32.803,13.559-54.44,45.556-54.44,81.491c0,10.213,1.783,20.356,5.216,29.902
	c-13.997,2.209-24.733,14.358-24.733,28.967v11.408c0,9.879,8.038,17.918,17.918,17.918h426.218c9.881,0,17.918-8.038,17.918-17.918
	v-11.408C487.027,468.064,476.29,455.915,462.294,453.706z M380.992,17.08c0.015-0.005,0.082-0.017,0.201-0.017
	c0.354,0,3.624,0.173,9.633,6.183l44.768,44.767c5.541,5.54,6.508,9.378,6.107,10.369c-0.4,0.991-3.761,3.082-11.598,3.222
	l-20.259,0.37l-0.559,0.006c-16.393,0-29.964-13.341-30.249-29.743l-0.427-23.81C378.465,20.255,380.495,17.355,380.992,17.08z
	 M81.892,81.602c-7.835-0.14-11.196-2.231-11.595-3.222c-0.4-0.991,0.566-4.829,6.106-10.369l44.77-44.768
	c6.006-6.007,9.278-6.181,9.632-6.181c0.116,0,0.182,0.011,0.189,0.011c0.51,0.281,2.539,3.181,2.395,11.348l-0.427,23.818
	c-0.286,16.399-13.856,29.74-30.249,29.74L81.892,81.602z M87.675,482.673v11.408c0,0.289,0.03,0.57,0.043,0.855H42.89
	c-0.472,0-0.855-0.383-0.855-0.855v-11.408c0-6.762,5.501-12.263,12.261-12.263h8.402c3.011,0,5.799-1.588,7.336-4.176
	c1.538-2.589,1.595-5.798,0.154-8.441c-5.649-10.358-8.635-22.111-8.635-33.991c0-26.527,14.618-50.391,37.377-62.633v75.911
	c0,7,0.982,13.865,2.887,20.509C93.347,462.739,87.675,472.057,87.675,482.673z M207.026,482.673
	c0,6.762-5.501,12.264-12.262,12.264h-89.173c-0.471,0-0.854-0.383-0.854-0.855v-11.408c0-6.762,5.501-12.263,12.261-12.263h28.88
	c4.713,0,8.532-3.819,8.532-8.532V352.374c0-14.506,11.802-26.308,26.308-26.308c14.506,0,26.308,11.802,26.308,26.308V482.673z
	 M290.607,494.937h-69.214c1.727-3.733,2.697-7.888,2.697-12.264V352.374c0-23.914-19.456-43.371-43.371-43.371
	s-43.371,19.455-43.371,43.371v100.973h-19.004c-1.555-5.26-2.35-10.706-2.35-16.264V299.457c0-17.285,3.119-34.17,9.271-50.186
	c0.916-2.383,0.716-5.049-0.544-7.27c-12.794-22.548-19.555-48.246-19.555-74.315V98.976c24.526-1.279,44.424-21.619,44.858-46.434
	l0.352-19.621c5.659-1.659,11.519-2.498,17.486-2.498h176.277c5.966,0,11.827,0.843,17.487,2.501l0.351,19.613
	c0.433,24.819,20.33,45.159,44.856,46.439v68.711c0,26.068-6.762,51.765-19.553,74.312c-1.259,2.219-1.458,4.887-0.544,7.27
	c6.153,16.019,9.272,32.904,9.272,50.189v137.625c0,5.561-0.8,11.006-2.356,16.264h-19V352.374
	c0-23.914-19.456-43.371-43.371-43.371c-23.914,0-43.372,19.455-43.372,43.371v130.299
	C287.91,487.049,288.88,491.204,290.607,494.937z M407.261,494.082c0,0.472-0.383,0.855-0.854,0.855h-89.173
	c-6.76,0-12.261-5.502-12.261-12.264V352.374c0-14.506,11.802-26.308,26.308-26.308s26.308,11.802,26.308,26.308v109.505
	c0,4.713,3.819,8.532,8.532,8.532h28.88c6.76,0,12.262,5.501,12.262,12.263L407.261,494.082L407.261,494.082z M469.964,494.082
	c0,0.472-0.383,0.855-0.855,0.855h-44.828c0.014-0.286,0.043-0.566,0.043-0.855v-11.408c0-10.617-5.672-19.934-14.144-25.083
	c1.906-6.641,2.89-13.504,2.89-20.508v-75.91c22.758,12.242,37.375,36.104,37.375,62.632c0,11.878-2.986,23.632-8.635,33.991
	c-1.442,2.642-1.384,5.852,0.154,8.441c1.538,2.588,4.326,4.176,7.336,4.176h8.402c6.76,0,12.261,5.501,12.261,12.263v11.407
	H469.964z M338.951,115.84c6.241,0,11.301-5.059,11.301-11.3s-5.06-11.303-11.301-11.303c-6.242,0-11.301,5.06-11.301,11.303
	C327.649,110.781,332.709,115.84,338.951,115.84z M173.048,115.84c6.242,0,11.301-5.059,11.301-11.3s-5.059-11.303-11.301-11.303
	c-6.241,0-11.301,5.06-11.301,11.303C161.747,110.781,166.808,115.84,173.048,115.84z"/>
<g>
</g>
<g>
</g>
<g>
</g>
<g>
</g>
<g>
</g>
<g>
</g>
<g>
</g>
<g>
</g>
<g>
</g>
<g>
</g>
<g>
</g>
<g>
</g>
<g>
</g>
<g>
</g>
<g>
</g>
</svg>
