<?xml version="1.0" encoding="iso-8859-1"?>
<!-- Generator: Adobe Illustrator 19.0.0, SVG Export Plug-In . SVG Version: 6.00 Build 0)  -->
<svg version="1.1" id="Layer_1" xmlns="http://www.w3.org/2000/svg" xmlns:xlink="http://www.w3.org/1999/xlink" x="0px" y="0px"
	 viewBox="0 0 512.001 512.001" style="enable-background:new 0 0 512.001 512.001;" xml:space="preserve">
<path style="fill:#0075C9;" d="M15.235,188.367c-3.891,0-7.045,3.155-7.045,7.047c0,0.171,0.005,0.342,0.019,0.511H8.19
	c3.506,58.343,47.359,105.786,104.026,114.867l-38.539,38.541c-2.43,2.43-2.43,6.365,0,8.794c0.106,0.106,0.217,0.209,0.329,0.307
	l-0.009,0.013c42.986,38.113,108.778,36.587,149.942-4.574c20.833-20.833,31.482-47.971,32.012-75.27h0.05v-90.235L15.235,188.367
	L15.235,188.367z"/>
<g>
	<circle style="fill:#FFFFFF;" cx="94.733" cy="240.235" r="30.762"/>
	<circle style="fill:#FFFFFF;" cx="176.209" cy="334.4" r="22.11"/>
	<circle style="fill:#FFFFFF;" cx="176.209" cy="236.751" r="16.903"/>
</g>
<path style="fill:#0075C9;" d="M496.765,188.367c3.891,0,7.045,3.155,7.045,7.047c0,0.171-0.005,0.342-0.017,0.511h0.017
	c-3.506,58.343-47.359,105.786-104.026,114.867l38.539,38.541c2.43,2.43,2.43,6.365,0,8.794c-0.106,0.106-0.217,0.209-0.329,0.307
	l0.009,0.013c-42.986,38.113-108.779,36.587-149.942-4.574c-20.831-20.833-31.482-47.971-32.012-75.27h-0.05v-90.235
	L496.765,188.367L496.765,188.367z"/>
<g>
	<circle style="fill:#FFFFFF;" cx="417.273" cy="240.235" r="30.762"/>
	<circle style="fill:#FFFFFF;" cx="335.797" cy="334.4" r="22.111"/>
	<circle style="fill:#FFFFFF;" cx="335.797" cy="236.751" r="16.903"/>
</g>
<path style="fill:#333E48;" d="M280.515,372.736c0,13.538-10.976,24.515-24.515,24.515c-13.539,0-24.515-10.976-24.515-24.515
	V165.701c0-13.54,10.976-24.516,24.515-24.516c13.539,0,24.515,10.976,24.515,24.516V372.736z"/>
<g>
	<rect x="231.487" y="308.879" style="fill:#5C6670;" width="49.03" height="19.095"/>
	<rect x="231.487" y="269.217" style="fill:#5C6670;" width="49.03" height="19.094"/>
</g>
<path style="fill:#1E252B;" d="M496.765,180.177h-208.06V165.7c0-8.307-3.118-15.897-8.239-21.671l23.92-23.427
	c3.231-3.165,3.286-8.351,0.12-11.582c-3.165-3.232-8.35-3.285-11.582-0.121l-26.39,25.845c-3.308-1.129-6.848-1.751-10.534-1.751
	s-7.226,0.621-10.534,1.751l-26.39-25.845c-3.232-3.164-8.417-3.111-11.582,0.121c-3.165,3.231-3.111,8.417,0.12,11.582
	l23.92,23.427c-5.12,5.775-8.239,13.364-8.239,21.671v14.477H15.235c-8.4,0-15.235,6.836-15.235,15.237
	c0,0.099,0.001,0.199,0.003,0.298c-0.007,0.234-0.002,0.47,0.012,0.704c1.8,29.961,13.945,58.703,34.199,80.932
	c16.63,18.253,38.132,31.497,61.668,38.196l-27.996,27.997c-2.721,2.721-4.221,6.34-4.221,10.189c0,3.849,1.499,7.467,4.221,10.189
	c0.059,0.058,0.117,0.115,0.176,0.173c0.159,0.167,0.327,0.329,0.502,0.485c22.258,19.734,50.107,29.514,77.912,29.514
	c27.46,0,54.874-9.541,76.819-28.454v7.1c0,18.034,14.672,32.705,32.705,32.705s32.705-14.671,32.705-32.705v-7.1
	c21.945,18.914,49.356,28.456,76.818,28.453c27.803-0.002,55.659-9.783,77.914-29.514c0.175-0.155,0.342-0.316,0.5-0.482
	c0.06-0.058,0.118-0.116,0.177-0.175c2.722-2.721,4.222-6.34,4.222-10.189c0-3.848-1.499-7.467-4.221-10.189l-27.996-27.997
	c23.535-6.698,45.037-19.943,61.668-38.196c20.254-22.229,32.399-50.971,34.199-80.932c0.014-0.234,0.019-0.466,0.012-0.699
	c0.002-0.102,0.003-0.203,0.003-0.304C512,187.013,505.166,180.177,496.765,180.177z M223.296,342.535
	c-1.645,1.906-3.366,3.764-5.147,5.545c-37.341,37.338-97.215,39.625-137.197,5.559l37.057-37.058
	c2.175-2.176,2.947-5.388,1.999-8.316c-0.948-2.928-3.457-5.076-6.495-5.563c-25.701-4.118-49.563-17.04-67.189-36.387
	c-17.489-19.194-28.075-43.928-29.883-69.758h206.856v145.977H223.296z M272.325,372.736c0,9.002-7.323,16.325-16.325,16.325
	c-9.002,0-16.325-7.323-16.325-16.325V336.16h32.649L272.325,372.736L272.325,372.736z M272.325,319.78h-32.649v-23.276h32.649
	V319.78z M272.325,280.122h-32.649V165.7c0-9.002,7.323-16.326,16.325-16.326c9.002,0,16.325,7.323,16.325,16.326V280.122
	L272.325,280.122z M465.678,266.316c-17.627,19.347-41.488,32.27-67.189,36.387c-3.038,0.487-5.547,2.635-6.495,5.563
	c-0.948,2.928-0.176,6.139,2,8.316l37.057,37.058c-39.98,34.065-99.857,31.78-137.196-5.559c-1.781-1.781-3.503-3.64-5.148-5.545
	V196.557h206.856C493.753,222.389,483.166,247.122,465.678,266.316z"/>
<g>
</g>
<g>
</g>
<g>
</g>
<g>
</g>
<g>
</g>
<g>
</g>
<g>
</g>
<g>
</g>
<g>
</g>
<g>
</g>
<g>
</g>
<g>
</g>
<g>
</g>
<g>
</g>
<g>
</g>
</svg>
