<?xml version="1.0" encoding="iso-8859-1"?>
<!-- Generator: Adobe Illustrator 19.0.0, SVG Export Plug-In . SVG Version: 6.00 Build 0)  -->
<svg version="1.1" id="Layer_1" xmlns="http://www.w3.org/2000/svg" xmlns:xlink="http://www.w3.org/1999/xlink" x="0px" y="0px"
	 viewBox="0 0 512 512" style="enable-background:new 0 0 512 512;" xml:space="preserve">
<g>
	<path style="fill:#967A4A;" d="M262.15,214.237v74.434c-0.002,0,24.717,24.721,24.717,24.721v0.002l-71.43,71.431
		c-4.318,4.318-4.316,11.314,0,15.629l30.376,30.376l8.922,8.921c2.646,2.649,6.938,2.649,9.585,0
		c9.202-9.202,9.202-24.123,0-33.323l-15.017-15.016l65.466-50.099l0.001,0.001c0.002-0.002,0.004-0.004,0.008-0.008v-0.001
		c13.472-13.47,21.805-32.078,21.805-52.634C336.584,247.56,303.261,214.237,262.15,214.237z"/>
	<path style="fill:#967A4A;" d="M149.807,431.139h-21.883l-10.878-81.413l0,0c21.283-30.063,36.125-65.001,42.552-102.806H77.573
		v102.491l22.392,86.796v14.224c0,6.106,4.947,11.053,11.051,11.053h55.575c3.746,0,6.779-3.034,6.779-6.778
		C173.371,441.691,162.82,431.139,149.807,431.139z"/>
</g>
<path style="fill:#BF9B5F;" d="M36.269,206.961c-0.243,2.404-0.381,4.838-0.381,7.306v32.653l-8.997,102.491l11.082,86.796v14.224
	c0,6.106,4.947,11.053,11.051,11.053h55.575c3.744,0,6.778-3.034,6.778-6.778c0-13.015-10.55-23.566-23.563-23.566H65.93
	l0.433-81.413h0.002c12.175-17.198,25.183-35.995,35.29-56.009c23.762,13.483,51.216,21.21,80.489,21.21
	c33.022,0,63.742-9.816,89.443-26.66h4.579l0.159,162.164c0,6.106,4.948,11.053,11.051,11.053h55.577
	c3.743,0,6.777-3.034,6.777-6.778c0-13.015-10.551-23.566-23.564-23.566H304.93l10.823-81.382l0.832-0.013
	c16.824-24.554,29.39-52.23,36.681-81.948c56.837-20.924,100.705-68.665,116.258-127.886h5.359
	c16.044,0,29.049-13.006,29.049-29.048c0-16.044-13.005-29.046-29.049-29.046h-21.528c-6.839-15.962-22.683-27.146-41.145-27.146
	c-24.715,0-44.747,20.035-44.747,44.746v20.801c0,20.19-12.177,37.527-29.581,45.094c-0.999-2.436-2.175-4.915-3.563-7.43
	l-45.403-82.35c-18.387-33.356-48.48-33.356-66.866,0l-26.163,47.454l-26.16-47.454c-18.39-33.356-48.48-33.356-66.87,0
	l-45.399,82.35c-1.884,3.417-3.385,6.764-4.557,10.032c-4.571,5.394-8.361,11.473-11.195,18.06L36.269,206.961z"/>
<path style="fill:#333E48;" d="M486.584,98.722c0-3.569-2.893-6.463-6.463-6.463s-6.463,2.894-6.463,6.463H486.584z"/>
<path style="fill:#BF9B5F;" d="M361.051,62.425c-3.444,3.129-3.697,8.455-0.569,11.899l10.262,11.289
	c3.127,3.445,8.453,3.699,11.898,0.572c3.443-3.13,3.699-8.456,0.567-11.9l-10.259-11.29
	C369.823,59.554,364.496,59.299,361.051,62.425z"/>
<path style="fill:#967A4A;" d="M365.831,67.687c-1.378,1.253-1.482,3.389-0.228,4.767l7.411,8.155
	c1.252,1.379,3.387,1.483,4.767,0.229c1.38-1.254,1.482-3.389,0.229-4.768l-7.41-8.155
	C369.347,66.536,367.212,66.432,365.831,67.687z"/>
<path style="fill:#1E252B;" d="M474.882,73.748h-16.509c-9.254-16.651-26.832-27.146-46.164-27.146
	c-15.422,0-29.319,6.647-38.983,17.223l-1.421-1.564c-2.997-3.298-8.1-3.541-11.399-0.545c-3.298,2.997-3.542,8.1-0.545,11.399
	l4.206,4.628c-2.992,6.619-4.673,13.952-4.673,21.675v20.801c0,13.737-6.839,26.368-17.918,33.933
	c-0.03-0.055-0.061-0.111-0.091-0.165l-45.402-82.35c-14-25.398-31.385-29.19-40.5-29.19c-9.116,0-26.5,3.791-40.5,29.19
	l-19.097,34.637L176.79,71.638c-14.004-25.397-31.387-29.19-40.503-29.19s-26.499,3.791-40.503,29.19l-45.399,82.35
	c-0.435,0.789-1.586,2.741-2.919,5.002c-5.27,8.938-10.583,18.052-12.887,23.136c-2.021,3.222-3.439,7.092-4.437,11.02
	C11.468,203.789,0,223.383,0,245.07v48.793c0,4.456,3.612,8.069,8.069,8.069c4.456,0,8.069-3.613,8.069-8.069V245.07
	c0-11.304,4.277-21.825,11.68-29.752v31.249l-8.966,102.14c-0.051,0.576-0.039,1.154,0.034,1.727l11.016,86.287v13.711
	c0,10.544,8.578,19.122,19.121,19.122h55.575c1.034,0,2.043-0.108,3.02-0.31c1.117,0.2,2.252,0.31,3.399,0.31h55.575
	c8.186,0,14.848-6.66,14.848-14.847c0-17.443-14.19-31.635-31.633-31.635h-14.82l-9.527-71.299
	c7.223-10.476,13.685-21.52,19.291-32.927c12.232,2.734,24.775,4.151,37.394,4.151c30.366,0,59.894-7.962,85.964-23.101
	l0.022,20.824l-58.397,58.4c-7.455,7.455-7.455,19.585,0,27.04l39.295,39.294c2.803,2.807,6.532,4.354,10.501,4.354h0.001
	c3.182,0,6.204-1.009,8.723-2.851l0.003,3.475c0,10.544,8.578,19.122,19.121,19.122h55.577c8.185,0,14.846-6.66,14.846-14.847
	c0-17.443-14.19-31.635-31.633-31.635h-12.024l9.157-68.849c16.85-24.616,29.205-51.638,36.754-80.375
	c55.857-21.966,98.532-68.482,115.592-125.874C495.761,147.565,512,131.074,512,110.862C512,90.398,495.349,73.748,474.882,73.748z
	 M110.46,345.064c-1.178,1.663-1.682,3.711-1.413,5.731l10.878,81.413c0.535,4.008,3.955,7.001,7.998,7.001h21.883
	c8.109,0,14.784,6.263,15.442,14.206h-45.836c-0.401-9.933-5.401-18.698-12.926-24.221l-20.846-80.806v-12.284
	c6.811-10.098,13.454-20.571,19.376-31.436c7.7,3.882,15.681,7.16,23.859,9.831C123.496,325.103,117.332,335.356,110.46,345.064z
	 M88.245,423.082c-0.144-0.002-0.286-0.011-0.43-0.011H74.043l0.288-53.922L88.245,423.082z M259.492,433.095l-38.349-38.348
	c-1.163-1.163-1.163-3.056,0-4.219l47.006-47.01l0.023,23.291l-23.773,18.192c-1.847,1.413-2.994,3.555-3.148,5.875
	c-0.154,2.321,0.7,4.594,2.346,6.239l15.017,15.016c2.926,2.925,4.537,6.816,4.537,10.955
	C263.154,426.793,261.864,430.3,259.492,433.095z M261.525,392.22l6.668-5.103l0.012,11.783L261.525,392.22z M474.882,131.842
	h-5.359c-3.667,0-6.874,2.472-7.804,6.02c-14.82,56.433-56.406,102.176-111.241,122.363c-2.518,0.926-4.41,3.045-5.049,5.649
	c-6.755,27.539-18.181,53.45-33.972,77.054c-1.971,1.241-3.377,3.316-3.702,5.767l-10.823,81.382
	c-0.307,2.306,0.396,4.631,1.929,6.38c1.532,1.749,3.744,2.753,6.07,2.753h21.237c8.109,0,14.784,6.263,15.441,14.206h-54.231
	c-1.644,0-2.982-1.338-2.982-2.992l-0.159-162.164c-0.004-4.453-3.615-8.062-8.069-8.062h-4.579c-1.572,0-3.109,0.459-4.423,1.32
	c-25.295,16.578-54.695,25.34-85.019,25.34c-26.809,0-53.264-6.971-76.506-20.159c-1.92-1.09-4.205-1.344-6.316-0.706
	c-2.114,0.639-3.873,2.115-4.867,4.086c-9.764,19.334-22.484,37.765-34.675,54.984c-0.958,1.351-1.474,2.964-1.484,4.62
	l-0.433,81.413c-0.012,2.147,0.834,4.211,2.349,5.733c1.514,1.522,3.573,2.379,5.72,2.379h21.883
	c8.109,0,14.783,6.263,15.441,14.206H49.024c-1.644,0-2.982-1.338-2.982-2.983v-14.224c0-0.341-0.023-0.683-0.066-1.022
	L35.005,349.25l8.921-101.626c0.02-0.235,0.03-0.47,0.03-0.706v-32.653c0-0.059-0.001-0.118-0.002-0.176
	c-0.117-5.372,0.813-18.211,4.444-23.618c0.279-0.414,0.517-0.852,0.714-1.31c1.892-4.399,8.634-15.834,12.258-21.978
	c1.509-2.562,2.601-4.413,3.15-5.406l45.398-82.35c7.304-13.246,16.916-20.843,26.37-20.843c9.455,0,19.067,7.597,26.369,20.843
	l26.161,47.454c1.419,2.575,4.127,4.173,7.066,4.173s5.647-1.599,7.066-4.173l26.163-47.455
	c7.301-13.246,16.912-20.843,26.367-20.843c9.455,0,19.066,7.597,26.368,20.843l45.404,82.353c1.182,2.142,2.246,4.361,3.161,6.593
	c0.824,2.007,2.421,3.598,4.43,4.414c2.01,0.816,4.264,0.79,6.253-0.076c20.917-9.094,34.434-29.7,34.434-52.494V99.417
	c0-20.223,16.453-36.677,36.678-36.677c14.697,0,27.936,8.736,33.729,22.255c1.272,2.967,4.19,4.891,7.417,4.891h21.528
	c11.568,0,20.98,9.41,20.98,20.976C495.862,122.43,486.45,131.842,474.882,131.842z M425.215,75.583
	c-3.443,0-6.233,2.792-6.233,6.235c0,3.441,2.79,6.232,6.233,6.232s6.234-2.791,6.234-6.232
	C431.448,78.375,428.658,75.583,425.215,75.583z"/>
<g>
</g>
<g>
</g>
<g>
</g>
<g>
</g>
<g>
</g>
<g>
</g>
<g>
</g>
<g>
</g>
<g>
</g>
<g>
</g>
<g>
</g>
<g>
</g>
<g>
</g>
<g>
</g>
<g>
</g>
</svg>
