<?xml version="1.0" encoding="iso-8859-1"?>
<!-- Generator: Adobe Illustrator 19.0.0, SVG Export Plug-In . SVG Version: 6.00 Build 0)  -->
<svg version="1.1" id="Layer_1" xmlns="http://www.w3.org/2000/svg" xmlns:xlink="http://www.w3.org/1999/xlink" x="0px" y="0px"
	 viewBox="0 0 512 512" style="enable-background:new 0 0 512 512;" xml:space="preserve">
<g>
	<path style="fill:#007348;" d="M314.661,297.847c-9.086,0-17.435-5.995-20.024-15.173l-14.525-51.467
		c-2.891-10.244,2.41-21.015,12.289-24.98l46.163-18.505c10.671-4.28,22.792,0.905,27.07,11.577
		c4.278,10.673-0.904,22.795-11.576,27.071l-28.789,11.541l9.439,33.454c3.124,11.065-3.316,22.569-14.381,25.691
		C318.436,297.592,316.533,297.847,314.661,297.847z"/>
	<path style="fill:#007348;" d="M180.202,297.847c-9.087,0-17.436-5.995-20.024-15.173l-14.525-51.467
		c-2.891-10.244,2.411-21.015,12.289-24.98l46.162-18.505c10.671-4.28,22.793,0.905,27.07,11.577
		c4.278,10.673-0.904,22.795-11.577,27.071l-28.789,11.541l9.439,33.454c3.124,11.065-3.316,22.569-14.382,25.691
		C183.977,297.592,182.074,297.847,180.202,297.847z"/>
</g>
<path style="fill:#65513C;" d="M503.946,263.144H8.054v52.342H362.42l47.124,47.125c1.86,1.86,4.299,2.789,6.736,2.789
	c2.438,0,4.876-0.928,6.736-2.789c3.721-3.722,3.721-9.756,0-13.477l-33.649-33.648h114.578V263.144z"/>
<path style="fill:#00945E;" d="M408.802,334.918c-14.073,14.072-14.073,36.881,0,50.952c14.069,14.073,36.882,14.073,50.952,0
	L408.802,334.918z"/>
<path style="fill:#05CE7C;" d="M426.94,94.228c-21.071-25.679-51.706-43.215-86.463-47.156c-0.002,0-0.003,0-0.004,0
	c-0.607-0.088-1.227-0.131-1.858-0.131c-7.276,0-13.177,5.898-13.177,13.176v40.366c-21.415-10.312-45.424-16.089-70.783-16.089
	h-44.504c-90.229,0-163.373,73.144-163.373,163.373v110.599c0,58.831,47.863,106.695,106.696,106.695
	c49.264,0,89.347-40.08,89.347-89.345c0-41.616-33.855-75.471-75.467-75.471c-35.491,0-64.364,28.876-64.364,64.366
	c0,30.592,24.888,55.483,55.482,55.483c11.019,0,19.952-8.932,19.952-19.951c0-11.021-8.933-19.952-19.952-19.952
	c-8.59,0-15.58-6.989-15.58-15.58c0-13.487,10.974-24.462,24.462-24.462c19.611,0,35.565,15.954,35.565,35.567
	c0,27.262-22.182,49.444-49.444,49.444c-36.83,0-66.795-29.965-66.795-66.794V247.766h334.996c42.453,0,76.869-34.418,76.869-76.871
	C498.542,130.216,466.933,96.938,426.94,94.228z"/>
<g>
	<path style="fill:#00945E;" d="M284.765,297.847c-9.087,0-17.437-5.995-20.025-15.173l-14.524-51.467
		c-2.891-10.244,2.411-21.015,12.288-24.98l46.163-18.505c10.672-4.28,22.793,0.905,27.071,11.577
		c4.278,10.673-0.905,22.795-11.577,27.071l-28.789,11.541l9.44,33.454c3.124,11.065-3.316,22.569-14.382,25.691
		C288.54,297.592,286.636,297.847,284.765,297.847z"/>
	<path style="fill:#00945E;" d="M150.306,297.847c-9.086,0-17.436-5.995-20.025-15.173l-14.523-51.467
		c-2.892-10.244,2.411-21.015,12.289-24.98l46.162-18.505c10.671-4.28,22.793,0.905,27.071,11.577
		c4.278,10.673-0.905,22.795-11.577,27.071l-28.788,11.541l9.439,33.454c3.124,11.065-3.316,22.569-14.381,25.691
		C154.08,297.592,152.177,297.847,150.306,297.847z"/>
	<path style="fill:#00945E;" d="M430.452,147.913c0-13.081-10.601-23.677-23.677-23.677c-13.078,0-23.679,10.597-23.679,23.677
		c0,13.08,10.601,23.68,23.679,23.68C419.852,171.592,430.452,160.992,430.452,147.913z"/>
</g>
<g>
	<path style="fill:#28B07F;" d="M171.253,128.055c0-2.113-1.71-3.82-3.819-3.82c-2.108,0-3.818,1.706-3.818,3.82
		c0,2.106,1.71,3.818,3.818,3.818C169.543,131.871,171.253,130.161,171.253,128.055z"/>
	<path style="fill:#28B07F;" d="M181.195,100.683c0-2.111-1.71-3.821-3.818-3.821c-2.11,0-3.819,1.71-3.819,3.821
		c0,2.106,1.708,3.818,3.819,3.818C179.486,104.501,181.195,102.789,181.195,100.683z"/>
	<circle style="fill:#28B07F;" cx="125.244" cy="131.87" r="3.818"/>
	<path style="fill:#28B07F;" d="M145.978,115.957c0-2.11-1.71-3.82-3.818-3.82c-2.108,0-3.819,1.71-3.819,3.82
		c0,2.106,1.71,3.818,3.819,3.818C144.268,119.774,145.978,118.063,145.978,115.957z"/>
	<circle style="fill:#28B07F;" cx="198.964" cy="108.321" r="3.818"/>
	<path style="fill:#28B07F;" d="M295.534,100.683c0-2.111-1.707-3.821-3.818-3.821c-2.108,0-3.818,1.71-3.818,3.821
		c0,2.106,1.71,3.818,3.818,3.818C293.827,104.501,295.534,102.789,295.534,100.683z"/>
	<circle style="fill:#28B07F;" cx="283.144" cy="128.047" r="3.818"/>
	<circle style="fill:#28B07F;" cx="210.412" cy="124.235" r="3.818"/>
	<path style="fill:#28B07F;" d="M236.22,98.948c0-2.111-1.71-3.821-3.819-3.821c-2.108,0-3.818,1.71-3.818,3.821
		c0,2.107,1.71,3.819,3.818,3.819C234.51,102.767,236.22,101.055,236.22,98.948z"/>
	<path style="fill:#28B07F;" d="M266.542,104.501c0-2.11-1.71-3.821-3.818-3.821s-3.818,1.711-3.818,3.821
		c0,2.106,1.71,3.818,3.818,3.818C264.834,108.318,266.542,106.607,266.542,104.501z"/>
	<circle style="fill:#28B07F;" cx="249.436" cy="124.235" r="3.818"/>
</g>
<path style="fill:#1E252B;" d="M503.946,260.459H339.999l-1.309-4.639h82.984c46.827,0,84.923-38.097,84.923-84.925
	c0-43.322-32.947-79.735-75.632-84.396c-22.955-26.648-54.601-43.444-89.495-47.422c-0.931-0.127-1.89-0.192-2.854-0.192
	c-11.707,0-21.231,9.523-21.231,21.23v28.058c-19.92-7.858-40.967-11.835-62.729-11.835h-44.504
	c-94.525,0-171.427,76.901-171.427,171.427v12.693H8.054c-4.448,0-8.054,3.605-8.054,8.054v52.342c0,4.449,3.606,8.054,8.054,8.054
	h30.668v29.456c0,63.273,51.477,114.749,114.75,114.749c53.707,0,97.401-43.693,97.401-97.399c0-17.332-5.309-33.446-14.383-46.806
	h122.595l31.449,31.45c-0.217,1.78-0.339,3.582-0.339,5.404c0,11.775,4.585,22.844,12.912,31.171
	c8.325,8.328,19.395,12.914,31.171,12.914c11.775,0,22.845-4.588,31.172-12.914c3.145-3.145,3.144-8.245,0-11.389l-50.952-50.952
	l-0.011-0.01l-5.673-5.673h95.133c4.448,0,8.054-3.605,8.054-8.054v-52.342C512,264.065,508.394,260.459,503.946,260.459z
	 M38.722,312.802H16.108v-36.234h22.614V312.802z M153.472,457.007c-54.392,0-98.642-44.25-98.642-98.641v-110.6
	c0-85.643,69.676-155.319,155.319-155.319h44.504c23.578,0,46.218,5.145,67.29,15.292c2.497,1.202,5.435,1.036,7.779-0.437
	c2.345-1.474,3.769-4.051,3.769-6.82V60.115c0-2.824,2.298-5.122,5.123-5.122c0.248,0,0.484,0.016,0.702,0.047
	c0.11,0.017,0.22,0.03,0.331,0.041c31.84,3.631,60.627,19.346,81.067,44.255c1.409,1.717,3.465,2.776,5.682,2.926
	c35.94,2.436,64.093,32.583,64.093,68.632c0,37.946-30.87,68.817-68.815,68.817H312.528l14.63-5.864
	c7.158-2.869,12.771-8.354,15.804-15.446c3.033-7.092,3.123-14.938,0.252-22.098c-4.416-11.017-14.938-18.136-26.806-18.136
	c-3.684,0-7.298,0.7-10.737,2.079l-46.166,18.506c-13.734,5.511-21.058,20.403-17.04,34.642l1.783,6.317h-66.18l14.629-5.864
	c7.158-2.869,12.771-8.354,15.804-15.446c3.033-7.092,3.123-14.938,0.252-22.098c-4.416-11.017-14.938-18.136-26.806-18.136
	c-3.684,0-7.298,0.7-10.736,2.079l-46.164,18.505c-13.734,5.512-21.06,20.404-17.041,34.643l1.783,6.318H86.677
	c-4.448,0-8.054,3.605-8.054,8.054v110.599c0,41.272,33.577,74.848,74.849,74.848c31.705,0,57.498-25.794,57.498-57.498
	c0-24.052-19.568-43.621-43.619-43.621c-17.93,0-32.516,14.587-32.516,32.516c0,13.031,10.602,23.633,23.633,23.633
	c6.56,0,11.898,5.338,11.898,11.898c0,6.56-5.337,11.897-11.898,11.897c-26.152,0-47.428-21.276-47.428-47.429
	c0-31.051,25.26-56.312,56.31-56.312c37.173,0,67.414,30.243,67.414,67.417C234.766,420.54,198.297,457.007,153.472,457.007z
	 M287.62,240.101l9.441,33.454c0.926,3.282,0.519,6.728-1.147,9.702c-1.666,2.976-4.39,5.123-7.674,6.05
	c-1.139,0.322-2.309,0.485-3.475,0.485c-5.682,0-10.729-3.827-12.274-9.306l-14.524-51.467c-1.776-6.295,1.464-12.88,7.534-15.316
	l46.165-18.505c1.526-0.612,3.122-0.922,4.742-0.922c5.248,0,9.901,3.15,11.854,8.023c1.269,3.165,1.23,6.635-0.112,9.77
	c-1.34,3.136-3.822,5.56-6.987,6.828l-28.789,11.541C288.553,231.969,286.502,236.137,287.62,240.101z M323.261,260.459h-13.159
	l-1.309-4.639h13.159L323.261,260.459z M250.101,260.459h-44.563l-1.309-4.639h44.563L250.101,260.459z M153.162,240.099
	l9.439,33.456c0.927,3.281,0.519,6.727-1.147,9.701c-1.666,2.976-4.389,5.123-7.672,6.05c-1.142,0.322-2.311,0.485-3.477,0.485
	c-5.681,0-10.729-3.827-12.274-9.306l-14.524-51.468c-1.777-6.294,1.464-12.879,7.535-15.315l46.164-18.505
	c1.526-0.612,3.121-0.922,4.741-0.922c5.248,0,9.901,3.15,11.855,8.023c1.269,3.165,1.23,6.635-0.112,9.77
	c-1.341,3.136-3.822,5.56-6.987,6.829l-28.788,11.54C154.094,231.969,152.044,236.137,153.162,240.099z M94.731,312.802v-36.234
	h25.457l2.34,8.293c1.833,6.496,5.857,11.944,11.112,15.678c-6.194,3.272-11.86,7.412-16.832,12.263H94.731V312.802z
	 M104.372,328.91c-5.81,10.208-9.219,21.953-9.428,34.467c-0.141-1.653-0.212-3.323-0.212-5.011V328.91L104.372,328.91
	L104.372,328.91z M94.731,260.459v-4.639h19.602l1.309,4.639H94.731z M188.801,260.459h-13.159l-1.309-4.639h13.159L188.801,260.459
	z M158.468,372.137c-4.149,0-7.526-3.375-7.526-7.526c0-9.048,7.361-16.409,16.409-16.409c15.17,0,27.511,12.342,27.511,27.513
	c0,9.366-3.128,18.017-8.393,24.961c0.003-0.177,0.005-0.355,0.005-0.534C186.474,384.7,173.911,372.137,158.468,372.137z
	 M409.629,352.505l37.908,37.908c-4.027,2.173-8.555,3.329-13.26,3.329c-7.472,0-14.497-2.91-19.78-8.197
	c-5.284-5.284-8.196-12.31-8.196-19.782C406.302,361.059,407.456,356.532,409.629,352.505z M495.892,312.802H389.368
	c-3.258,0-6.194,1.962-7.441,4.972c-1.247,3.01-0.557,6.473,1.746,8.778l14.262,14.261c-0.572,0.829-1.12,1.674-1.631,2.536
	l-28.189-28.189c-1.51-1.51-3.559-2.358-5.695-2.358H222.196c-12.958-11.311-29.42-18.692-47.529-20.271
	c0.291-0.46,0.576-0.927,0.843-1.406c2.529-4.518,3.769-9.515,3.681-14.558h75.457l2.34,8.293
	c3.493,12.388,14.916,21.04,27.777,21.04c2.647,0,5.29-0.367,7.851-1.091c7.424-2.094,13.585-6.953,17.354-13.684
	c2.529-4.518,3.769-9.515,3.681-14.558h182.242v36.235H495.892z M406.775,179.646c17.496,0,31.731-14.236,31.731-31.734
	c0-17.496-14.235-31.731-31.731-31.731c-17.497,0-31.732,14.235-31.732,31.731C375.042,165.41,389.277,179.646,406.775,179.646z
	 M392.455,141.681c0.102,3.705,3.129,6.678,6.86,6.678c3.791,0,6.867-3.074,6.867-6.868c0-3.793-3.076-6.868-6.867-6.868
	c-0.27,0-0.534,0.02-0.795,0.049c2.399-1.5,5.222-2.383,8.255-2.383c8.615,0,15.624,7.008,15.624,15.624
	c0,8.616-7.009,15.626-15.624,15.626c-8.616,0-15.625-7.009-15.625-15.626C391.15,145.697,391.621,143.591,392.455,141.681z"/>
<g>
</g>
<g>
</g>
<g>
</g>
<g>
</g>
<g>
</g>
<g>
</g>
<g>
</g>
<g>
</g>
<g>
</g>
<g>
</g>
<g>
</g>
<g>
</g>
<g>
</g>
<g>
</g>
<g>
</g>
</svg>
