<?xml version="1.0" encoding="iso-8859-1"?>
<!-- Generator: Adobe Illustrator 19.0.0, SVG Export Plug-In . SVG Version: 6.00 Build 0)  -->
<svg version="1.1" id="Layer_1" xmlns="http://www.w3.org/2000/svg" xmlns:xlink="http://www.w3.org/1999/xlink" x="0px" y="0px"
	 viewBox="0 0 512 512" style="enable-background:new 0 0 512 512;" xml:space="preserve">
<circle style="fill:#333E48;" cx="203.325" cy="330.451" r="60.526"/>
<circle style="fill:#D68512;" cx="203.325" cy="330.451" r="45.141"/>
<circle style="fill:#333E48;" cx="203.325" cy="190.089" r="60.526"/>
<circle style="fill:#D68512;" cx="203.325" cy="190.089" r="45.141"/>
<path style="fill:#333E48;" d="M168.464,302.02c-8.897-8.897-21.188-14.4-34.764-14.4c-27.153,0-49.164,22.011-49.164,49.164v0.004
	c-42.258,0-76.517-34.259-76.517-76.52c-0.001-42.257,34.26-76.515,76.517-76.515c0,27.153,22.011,49.165,49.164,49.165
	c13.576,0,25.868-5.504,34.764-14.401V302.02z"/>
<path style="fill:#D68512;" d="M133.7,232.919c-21.451,0-39.681-13.743-46.397-32.9h-2.768c-33.275,0-60.25,26.975-60.25,60.25
	c0,33.276,26.975,60.251,60.25,60.251h2.768c6.715-19.158,24.946-32.9,46.397-32.9c13.576,0,25.868,5.503,34.764,14.4v-83.503
	C159.567,227.413,147.277,232.919,133.7,232.919z"/>
<g>
	<path style="fill:#333E48;" d="M133.7,232.919c-11.848,0-22.71-4.199-31.194-11.18c5.735,11.621,8.97,24.695,8.97,38.53
		c0,13.836-3.235,26.911-8.971,38.533c8.486-6.982,19.348-11.181,31.195-11.181c13.576,0,25.868,5.503,34.764,14.4v-83.503
		C159.567,227.413,147.277,232.919,133.7,232.919z"/>
	<path style="fill:#333E48;" d="M292.607,251.968V142.729c0-16.448,13.382-29.83,29.83-29.83
		c68.678,0,124.553,55.875,124.553,124.555v14.514H292.607z"/>
</g>
<path style="fill:#D68512;" d="M432.477,237.454c0-60.774-49.267-110.039-110.04-110.039c-8.46,0-15.315,6.856-15.315,15.315v94.725
	h125.355V237.454z"/>
<path style="fill:#333E48;" d="M292.607,260.033v109.239c0,16.449,13.382,29.83,29.83,29.83
	c68.678,0,124.553-55.875,124.553-124.554v-14.515H292.607z"/>
<path style="fill:#D68512;" d="M432.477,274.548c0,60.773-49.267,110.039-110.04,110.039c-8.46,0-15.315-6.857-15.315-15.315
	v-94.724H432.477z"/>
<path style="fill:#FF9E16;" d="M402.561,158.847H218.176c-56.011,0-101.422,45.409-101.422,101.422
	c0,56.014,45.409,101.423,101.422,101.423h184.385c56.013,0,101.422-45.41,101.42-101.423
	C503.983,204.257,458.573,158.847,402.561,158.847z"/>
<g>
	<path style="fill:#E8E8E8;" d="M142.771,192.459c-16.169,17.968-26.017,41.735-26.017,67.81c0,26.074,9.848,49.845,26.017,67.813
		V192.459z"/>
	<rect x="254.774" y="158.848" style="fill:#E8E8E8;" width="37.827" height="202.844"/>
	<path style="fill:#E8E8E8;" d="M378.243,260.269c0-37.561,11.758-72.424,31.77-101.12c-2.462-0.179-4.942-0.303-7.451-0.303h-8.181
		c-18.567,29.383-29.332,64.169-29.332,101.422c0,37.254,10.763,72.039,29.333,101.423h8.18c2.509,0,4.989-0.125,7.452-0.304
		C390,332.693,378.243,297.832,378.243,260.269z"/>
</g>
<path style="fill:#333E48;" d="M283.935,203.483c-26.776,26.776-26.776,70.191,0,96.969l48.487-48.485L283.935,203.483z"/>
<path style="fill:#D68512;" d="M292.344,211.892c-10.256,10.257-16.598,24.425-16.598,40.075c0,15.651,6.343,29.819,16.6,40.075
	l40.076-40.075L292.344,211.892z"/>
<path style="fill:#1E252B;" d="M479.947,182.883c-15.379-15.379-34.531-25.613-55.367-29.848
	c-25.338-30.64-62.389-48.156-102.142-48.156c-20.87,0-37.849,16.979-37.849,37.849v8.099h-25.062
	c-12.834-18.42-33.519-29.285-56.2-29.285c-37.588,0-68.193,30.414-68.53,67.924c-7.898,9.287-14.275,19.904-18.743,31.464
	c-14.13-6.708-23.498-21.092-23.498-37.178c0-4.429-3.59-8.019-8.019-8.019c-22.58,0-43.808,8.793-59.776,24.759
	C8.793,216.461,0,237.689,0,260.268c0,46.615,37.923,84.539,84.536,84.539c4.429,0,8.019-3.595,8.019-8.023
	c0-16.081,9.368-30.467,23.497-37.176c4.469,11.561,10.846,22.178,18.744,31.465c0.338,37.509,30.943,67.923,68.53,67.923
	c22.682,0,43.365-10.863,56.2-29.283H284.6c0.237,20.667,17.115,37.408,37.838,37.408c35.102,0,68.002-13.529,92.977-38.157
	c24.368-2.833,46.924-13.697,64.532-31.308c20.671-20.671,32.054-48.155,32.053-77.387
	C512.001,231.038,500.619,203.555,479.947,182.883z M111.363,284.135c-18.29,7.757-31.303,24.585-34.225,44.237
	c-34.303-3.7-61.1-32.832-61.1-68.104c0-18.296,7.125-35.497,20.063-48.434c11.177-11.177,25.538-18.017,41.037-19.671
	c2.921,19.656,15.932,36.484,34.227,44.24c-1.716,7.685-2.628,15.671-2.628,23.865C108.735,268.464,109.647,276.45,111.363,284.135z
	 M143.321,316.076c-11.645-15.581-18.548-34.903-18.548-55.807s6.903-40.226,18.548-55.806V316.076z M203.325,137.582
	c13.163,0,25.433,4.795,34.892,13.247h-20.041c-23.858,0-45.952,7.679-63.955,20.688C161.74,151.705,180.91,137.582,203.325,137.582
	z M203.325,382.957c-22.414,0-41.584-14.122-49.103-33.931c18.002,13.009,40.097,20.686,63.954,20.686h20.04
	C228.757,378.162,216.487,382.957,203.325,382.957z M239.461,353.674h-21.285c-22.274,0-42.748-7.841-58.818-20.903V187.769
	c16.069-13.061,36.543-20.902,58.818-20.902h21.285V353.674z M300.626,142.729c0-12.027,9.784-21.811,21.811-21.811
	c29.148,0,56.647,10.715,77.901,29.91h-99.714v-8.099H300.626z M338.092,246.297l-30.208-30.206v-49.225h63.449
	c-13.962,28.977-21.295,60.997-21.295,93.403c0,32.401,7.339,64.429,21.301,93.404h-63.456v-65.829l30.208-30.207
	c1.504-1.503,2.349-3.543,2.349-5.67S339.596,247.8,338.092,246.297z M291.846,353.674h-36.347V166.866h36.347v33.187l-2.241-2.241
	c-3.131-3.133-8.208-3.132-11.341,0c-29.86,29.861-29.86,78.448,0,108.309c1.504,1.504,3.544,2.349,5.671,2.349
	s4.167-0.845,5.67-2.349l2.241-2.241V353.674z M284.309,288.738c-16.544-21.618-16.544-51.924,0-73.541l36.773,36.77
	L284.309,288.738z M322.437,391.083c-11.879,0-21.551-9.549-21.79-21.371h89.016C370.138,383.601,346.897,391.083,322.437,391.083z
	 M402.561,353.674h-13.234c-15.21-28.595-23.251-60.788-23.251-93.404c0-32.622,8.038-64.806,23.25-93.403h13.235
	c0.23,0,0.457,0.015,0.686,0.017c-16.373,28.313-24.975,60.336-24.975,93.386c0,33.051,8.603,65.074,24.976,93.388
	C403.018,353.659,402.791,353.674,402.561,353.674z M468.606,326.317c-13.226,13.227-29.72,21.997-47.661,25.56
	c-17.429-27.368-26.636-58.93-26.636-91.606s9.208-64.238,26.635-91.605c17.941,3.563,34.436,12.333,47.662,25.56
	c17.641,17.643,27.357,41.097,27.356,66.046C495.963,285.218,486.248,308.674,468.606,326.317z M427.988,222.818
	c-6.209,0-11.241,5.034-11.241,11.241c0,6.209,5.033,11.241,11.241,11.241c6.209,0,11.241-5.033,11.241-11.241
	C439.23,227.852,434.197,222.818,427.988,222.818z"/>
<g>
</g>
<g>
</g>
<g>
</g>
<g>
</g>
<g>
</g>
<g>
</g>
<g>
</g>
<g>
</g>
<g>
</g>
<g>
</g>
<g>
</g>
<g>
</g>
<g>
</g>
<g>
</g>
<g>
</g>
</svg>
