<?xml version="1.0" encoding="iso-8859-1"?>
<!-- Generator: Adobe Illustrator 19.0.0, SVG Export Plug-In . SVG Version: 6.00 Build 0)  -->
<svg version="1.1" id="Layer_1" xmlns="http://www.w3.org/2000/svg" xmlns:xlink="http://www.w3.org/1999/xlink" x="0px" y="0px"
	 viewBox="0 0 511.999 511.999" style="enable-background:new 0 0 511.999 511.999;" xml:space="preserve">
<g>
	<path style="fill:#9C7F4D;" d="M398.133,381.964c0-7.532,6.104-13.636,13.631-13.636c7.532,0,13.636,6.104,13.636,13.636v13.631
		c0,59.889-48.546,108.437-108.438,108.437v-72.048h44.78c20.097,0,36.39-16.291,36.39-36.39V381.964z"/>
	<path style="fill:#9C7F4D;" d="M337.376,504.033c19.894,0,36.02-16.128,36.02-36.025c0-19.897-16.128-36.023-36.02-36.023H123.092
		c-19.896,0-36.025,16.126-36.025,36.023c0,19.897,16.13,36.025,36.025,36.025H337.376z"/>
	<path style="fill:#9C7F4D;" d="M308.275,55.59c78.458,0,142.061,63.603,142.061,142.066c0,94.37-76.505,170.875-170.875,170.875
		h-46.922c-94.373,0-170.876-76.505-170.876-170.875c0-78.463,63.603-142.066,142.066-142.066H308.275z"/>
</g>
<path style="fill:#BF9B5F;" d="M277.844,209.726c0-40.222-32.609-72.828-72.83-72.828c-40.222,0-72.83,32.605-72.83,72.828
	c0,40.226,32.607,72.832,72.83,72.832C245.235,282.557,277.844,249.952,277.844,209.726z"/>
<circle style="fill:#333E48;" cx="205.014" cy="209.73" r="34.227"/>
<path style="fill:#BF9B5F;" d="M234.155,209.726c0-40.222,32.607-72.828,72.832-72.828c40.22,0,72.828,32.605,72.828,72.828
	c0,40.226-32.607,72.832-72.828,72.832C266.762,282.557,234.155,249.952,234.155,209.726z"/>
<circle style="fill:#333E48;" cx="306.984" cy="209.73" r="34.227"/>
<path style="fill:#E1CB81;" d="M414.315,504.033c19.897,0,36.023-16.128,36.023-36.025c0-19.897-16.126-36.023-36.023-36.023h-91.47
	c-17.018,0-30.822-13.799-30.822-30.822V85.955h-72.047v315.209c0,56.812,46.056,102.869,102.869,102.869H414.315z"/>
<g>
	<rect x="219.971" y="142.986" style="fill:#9C7F4D;" width="72.047" height="5.94"/>
	<rect x="219.971" y="167.992" style="fill:#9C7F4D;" width="72.047" height="5.94"/>
	<rect x="219.971" y="192.988" style="fill:#9C7F4D;" width="72.047" height="5.943"/>
	<rect x="219.971" y="217.995" style="fill:#9C7F4D;" width="72.047" height="5.94"/>
	<rect x="219.971" y="243.001" style="fill:#9C7F4D;" width="72.047" height="5.94"/>
	<rect x="219.971" y="267.997" style="fill:#9C7F4D;" width="72.047" height="5.943"/>
	<rect x="219.971" y="293.004" style="fill:#9C7F4D;" width="72.047" height="5.94"/>
	<rect x="219.971" y="318.01" style="fill:#9C7F4D;" width="72.047" height="5.938"/>
	<rect x="219.971" y="343.017" style="fill:#9C7F4D;" width="72.047" height="5.94"/>
	<rect x="219.971" y="368.013" style="fill:#9C7F4D;" width="72.047" height="5.943"/>
</g>
<g>
	<path style="fill:#BF9B5F;" d="M414.315,431.984h-91.47c-17.018,0-30.822-13.799-30.822-30.822v51.437
		c0,28.404,23.031,51.432,51.434,51.432h70.856c19.897,0,36.023-16.128,36.023-36.025
		C450.337,448.11,434.211,431.984,414.315,431.984z"/>
	<path style="fill:#BF9B5F;" d="M207.61,45.392c-4.184,0-7.577,3.392-7.577,7.58v27.701c0,16.211,13.135,29.348,29.348,29.348
		h53.237c16.213,0,29.35-13.137,29.35-29.348V52.972c0-4.187-3.392-7.58-7.582-7.58C304.387,45.392,207.61,45.392,207.61,45.392z"/>
</g>
<path style="fill:#65513C;" d="M229.381,93.866c-8.916,0-16.171-7.258-16.171-16.174V55.59h85.583v22.103
	c0,8.916-7.255,16.174-16.176,16.174h-53.236V93.866z"/>
<path style="fill:#E1CB81;" d="M310.893,55.561c4.747,0,8.6-3.849,8.6-8.598v-5.701c0-18.389-14.907-33.295-33.295-33.295h-60.396
	c-18.392,0-33.297,14.905-33.297,33.295v5.701c0,4.75,3.849,8.598,8.598,8.598H310.893z"/>
<path style="fill:#BF9B5F;" d="M234.543,7.967v19.424c0,4.548,3.689,8.235,8.241,8.235h26.435c4.55,0,8.239-3.687,8.239-8.235V7.967
	H234.543z"/>
<path style="fill:#1E252B;" d="M429.171,426.605c2.775-10.059,4.196-20.451,4.196-31.01v-13.631
	c0-11.912-9.691-21.603-21.603-21.603c-11.909,0-21.599,9.691-21.599,21.603v13.631c0,15.672-12.751,28.423-28.423,28.423h-38.898
	c-12.601,0-22.854-10.252-22.854-22.854v-25.84c42.13-4.816,81.027-24.388,110.199-55.623
	c31.028-33.22,48.115-76.563,48.115-122.043c0-39.396-15.154-76.615-42.667-104.8c-23.893-24.474-54.809-39.796-88.288-44.028
	c0.068-0.613,0.112-1.233,0.112-1.864v-5.701C327.461,18.511,308.95,0,286.199,0h-60.396c-22.753,0-41.264,18.511-41.264,41.262
	v5.701c0,0.631,0.044,1.25,0.112,1.863c-33.481,4.234-64.396,19.556-88.287,44.03c-27.515,28.184-42.668,65.403-42.668,104.799
	c0,45.456,17.071,88.781,48.069,121.995c29.173,31.259,68.09,50.849,110.242,55.67v25.843c0,7.832,0.821,15.476,2.374,22.854h-91.29
	c-24.258,0-43.992,19.733-43.992,43.99c0,24.258,19.734,43.992,43.992,43.992h291.222c24.257,0,43.99-19.734,43.99-43.992
	C458.304,448.963,446.138,432.712,429.171,426.605z M406.1,395.595v-13.631c0-3.125,2.541-5.668,5.664-5.668
	c3.125,0,5.668,2.543,5.668,5.668v13.631c0,9.701-1.392,19.231-4.098,28.423h-17.569C402.211,416.313,406.1,406.401,406.1,395.595z
	 M319.936,80.672V64.067c31.984,2.745,61.665,16.737,84.299,39.92c24.591,25.191,38.134,58.456,38.134,93.669
	c0,41.428-15.564,80.908-43.825,111.168c-26.156,28.004-60.887,45.717-98.554,50.452V113.683
	C311.839,107.423,319.936,94.978,319.936,80.672z M242.51,15.935h26.98v11.457c0,0.148-0.122,0.268-0.272,0.268h-26.435
	c-0.152,0-0.274-0.12-0.274-0.268V15.935H242.51z M200.475,41.262c0-13.966,11.362-25.327,25.329-25.327h0.772v11.457
	c0,8.934,7.271,16.202,16.209,16.202h26.435c8.936,0,16.206-7.268,16.206-16.202V15.935h0.774c13.965,0,25.327,11.361,25.327,25.327
	v5.701c0,0.347-0.284,0.631-0.633,0.631H201.107c-0.347,0-0.631-0.284-0.631-0.631v-5.701H200.475z M212.008,359.275
	c-37.689-4.739-72.437-22.47-98.594-50.496C85.18,278.527,69.63,239.062,69.63,197.657c0-35.212,13.543-68.478,38.136-93.668
	c22.633-23.185,52.313-37.175,84.298-39.923v16.608c0,14.306,8.096,26.751,19.943,33.01v245.592H212.008z M208,80.672V63.529h21.709
	v8.561c0,4.401,3.566,7.967,7.967,7.967c4.401,0,7.967-3.566,7.967-7.967v-8.561h20.715v8.561c0,4.401,3.566,7.967,7.967,7.967
	c4.401,0,7.967-3.566,7.967-7.967v-8.561h21.709v17.144c0,11.789-9.593,21.381-21.383,21.381h-53.237
	C217.591,102.053,208,92.462,208,80.672z M123.092,496.065c-15.47,0-28.057-12.587-28.057-28.057
	c0-15.47,12.587-28.055,28.057-28.055h95.926c8.816,23.521,25.403,43.274,46.624,56.113H123.092z M227.943,401.164V117.951
	c0.477,0.018,0.955,0.036,1.438,0.036h53.237c0.482,0,0.96-0.019,1.438-0.036v334.648c0,15.767,6.187,30.108,16.246,40.752
	C258.82,483.207,227.943,445.726,227.943,401.164z M414.315,496.065h-70.856c-23.969,0-43.467-19.497-43.467-43.465v-20.122
	c6.414,4.694,14.315,7.474,22.854,7.474h91.469c15.47,0,28.055,12.586,28.055,28.055
	C442.37,483.478,429.784,496.065,414.315,496.065z M213.544,36.716c3.557,0,6.439-2.882,6.439-6.439
	c0-3.552-2.882-6.436-6.439-6.436c-3.554,0-6.434,2.884-6.434,6.436C207.11,33.834,209.99,36.716,213.544,36.716z M298.455,36.716
	c3.557,0,6.439-2.882,6.439-6.439c0-3.552-2.882-6.436-6.439-6.436c-3.554,0-6.434,2.884-6.434,6.436
	C292.022,33.834,294.9,36.716,298.455,36.716z"/>
<g>
</g>
<g>
</g>
<g>
</g>
<g>
</g>
<g>
</g>
<g>
</g>
<g>
</g>
<g>
</g>
<g>
</g>
<g>
</g>
<g>
</g>
<g>
</g>
<g>
</g>
<g>
</g>
<g>
</g>
</svg>
