<?xml version="1.0" encoding="iso-8859-1"?>
<!-- Generator: Adobe Illustrator 19.0.0, SVG Export Plug-In . SVG Version: 6.00 Build 0)  -->
<svg version="1.1" id="Layer_1" xmlns="http://www.w3.org/2000/svg" xmlns:xlink="http://www.w3.org/1999/xlink" x="0px" y="0px"
	 viewBox="0 0 512 512" style="enable-background:new 0 0 512 512;" xml:space="preserve">
<path style="fill:#A4A9AD;" d="M306.878,236.525v35.543c0,34.263,24.444,62.808,56.842,69.173l-1.362,94.407h40.349l15.929-98.739
	V236.524H306.878V236.525z"/>
<g>
	<path style="fill:#333E48;" d="M375.169,343.766c-4.358,0-8.359,1.498-11.542,3.992l-0.423,29.193
		c3.248,2.696,7.416,4.317,11.964,4.317c10.356,0,18.752-8.396,18.752-18.751C393.921,352.159,385.525,343.766,375.169,343.766z"/>
	<path style="fill:#333E48;" d="M387.146,310.153c0,17.136,13.695,31.048,30.733,31.453l0.758-4.697v-58.247
		C401.246,278.661,387.146,292.761,387.146,310.153z"/>
	<polygon style="fill:#333E48;" points="362.629,416.896 362.358,435.649 402.709,435.649 405.733,416.896 	"/>
</g>
<polygon style="fill:#A4A9AD;" points="178.475,435.649 140.212,435.649 128.183,288.68 190.503,288.68 "/>
<g>
	<path style="fill:#333E48;" d="M134.203,362.239l3.503,42.797c9.582-2.271,16.718-10.857,16.718-21.132
		C154.425,372.41,145.498,363.024,134.203,362.239z"/>
	<polygon style="fill:#333E48;" points="138.677,416.896 140.212,435.649 178.475,435.649 180.01,416.896 	"/>
</g>
<circle style="fill:#FF9C9F;" cx="355.418" cy="293.543" r="65.975"/>
<path style="fill:#DADBDC;" d="M442.274,143.569c-12.401-9.708-28.009-15.513-44.978-15.513H224.405v-0.002h-69.674
	c-25.477,0-46.129,20.654-46.129,46.129v69.923c0,40.344,32.705,73.046,73.048,73.046l0,0v0.004h0.571l9.698,118.492h38.262
	l9.699-118.492h135.012c10.159,12.193,24.356,20.906,40.537,24.084l-1.362,94.407h40.348l15.93-98.739V201.105
	c0-13.366-3.607-25.883-9.873-36.659L442.274,143.569z"/>
<g>
	<path style="fill:#333E48;" d="M481.327,228.067l2.584,14.315c0.862,4.774,5.431,7.946,10.205,7.085
		c3.704-0.668,6.446-3.589,7.084-7.085l2.584-14.315c1.118-6.204-3.001-12.137-9.202-13.254c-6.203-1.121-12.135,3-13.255,9.199
		C481.082,225.381,481.099,226.773,481.327,228.067z"/>
	<path style="fill:#333E48;" d="M438.853,310.153c0,17.136,13.694,31.048,30.732,31.453l0.758-4.697v-58.247
		C452.952,278.661,438.853,292.761,438.853,310.153z"/>
	<polygon style="fill:#333E48;" points="414.334,416.896 414.065,435.649 454.413,435.649 457.439,416.896 	"/>
	<path style="fill:#333E48;" d="M200.333,341.645h-16.11l2.577,31.469h13.534c8.69,0,15.734-7.045,15.734-15.733
		C216.068,348.687,209.024,341.645,200.333,341.645z"/>
	<polygon style="fill:#333E48;" points="190.383,416.896 191.917,435.649 230.18,435.649 231.715,416.896 	"/>
</g>
<path style="fill:#DADBDC;" d="M193.803,185.445c0,24.92-20.202,45.121-45.121,45.121H67.235c-32.699,0-59.206-26.51-59.206-59.209
	c0-20.372,10.294-38.339,25.962-48.992v-0.002l0.057-0.039c0.048-0.034,0.096-0.067,0.146-0.098L89.13,84.759l0.004,0.004
	c7.774-5.309,17.175-8.411,27.298-8.411h49.444c15.428,0,27.934,12.507,27.934,27.936c0,0.042-0.006,0.079-0.006,0.123v81.034
	H193.803z"/>
<g>
	<path style="fill:#333E48;" d="M144.885,205.03c-18.102,0-33.767,10.397-41.381,25.536h45.177c11.379,0,21.767-4.223,29.704-11.174
		C169.955,210.549,158.069,205.03,144.885,205.03z"/>
	<circle style="fill:#333E48;" cx="121.01" cy="178.111" r="12.41"/>
	<path style="fill:#333E48;" d="M45.705,114.375l-11.512,7.852c-0.049,0.03-0.096,0.064-0.146,0.098l-0.057,0.039v0.002
		c-8.992,6.114-16.201,14.645-20.722,24.648c4.19,4.354,10.062,7.07,16.58,7.07c12.721,0,23.033-10.311,23.033-23.033
		C52.881,124.484,50.117,118.572,45.705,114.375z"/>
</g>
<path style="fill:#FF9C9F;" d="M29.237,125.989c-12.954,10.859-21.208,27.145-21.208,45.369c0,30.593,23.203,55.764,52.971,58.878
	c2.389-8.64,3.691-17.732,3.691-27.134C64.692,172.252,50.931,144.635,29.237,125.989z"/>
<g>
	<path style="fill:#333E48;" d="M169.027,112.639l5.083,26.611c1.66,8.699-4.045,17.097-12.744,18.756
		c-8.699,1.662-17.096-4.044-18.757-12.742c-0.388-2.031-0.36-4.098,0-6.013l5.081-26.611c1.125-5.891,6.815-9.756,12.708-8.634
		C164.892,104.867,168.208,108.405,169.027,112.639z"/>
	<path style="fill:#333E48;" d="M336.982,128.056h-94.139c-3.417,6.959-5.343,14.787-5.343,23.062
		c0,28.95,23.467,52.414,52.412,52.414c28.946,0,52.412-23.464,52.412-52.414C342.325,142.842,340.398,135.016,336.982,128.056z"/>
	<path style="fill:#333E48;" d="M368.146,249.609c0-8.686-7.042-15.729-15.727-15.729c-8.686,0-15.729,7.043-15.729,15.729
		c0,8.683,7.043,15.727,15.729,15.727C361.104,265.336,368.146,258.292,368.146,249.609z"/>
	<path style="fill:#333E48;" d="M403.869,128.366c-2.168-0.196-4.356-0.309-6.574-0.309h-44.88c-1.13,3.004-1.779,6.247-1.779,9.647
		c0,15.157,12.289,27.449,27.449,27.449c15.158,0,27.447-12.29,27.447-27.449C405.533,134.422,404.926,131.285,403.869,128.366z"/>
	<circle style="fill:#333E48;" cx="227.204" cy="272.508" r="35.984"/>
	<path style="fill:#333E48;" d="M467.029,179.292c-7.714-6.203-17.509-9.924-28.176-9.924c-24.858,0-45.009,20.151-45.009,45.01
		c0,24.857,20.151,45.006,45.009,45.006c12.262,0,23.372-4.907,31.49-12.863v-45.416
		C470.343,193.505,469.181,186.181,467.029,179.292z"/>
</g>
<g>
	<path style="fill:#1E252B;" d="M21.906,166.75c0,4.388,3.557,7.941,7.943,7.941c4.387,0,7.943-3.553,7.943-7.941
		c0-4.387-3.556-7.942-7.943-7.942C25.463,158.808,21.906,162.364,21.906,166.75z M508.523,214.953
		c-1.985-2.858-4.646-5.065-7.716-6.499c-2.448-26.55-18.775-50.087-43.114-61.582c-14.791-16.467-36.231-26.846-60.055-26.846
		H201.832v-15.408c0.004-0.116,0.007-0.229,0.007-0.332c0-19.83-16.132-35.965-35.964-35.965h-49.444
		c-11.311,0-22.214,3.326-31.553,9.625c-0.092,0.057-0.183,0.116-0.273,0.178l-54.86,37.416c-0.104,0.067-0.208,0.139-0.316,0.215
		c-0.009,0.006-0.024,0.017-0.041,0.029C10.984,128.341,0,149.108,0,171.358c0,37.075,30.161,67.237,67.235,67.237h33.339v5.511
		c0,16.985,5.262,32.761,14.225,45.802l11.981,146.395c0.341,4.167,3.822,7.375,8.002,7.375h38.263c4.18,0,7.661-3.207,8.002-7.375
		l1.434-17.525l1.434,17.525c0.34,4.167,3.822,7.375,8.002,7.375h38.262c4.18,0,7.661-3.207,8.002-7.374l9.096-111.118h41.229
		c3.851,8.11,9.127,15.331,15.441,21.423v7.683c0,4.435,3.595,8.029,8.029,8.029c3.123,0,5.822-1.787,7.151-4.39
		c2.548,1.441,5.182,2.732,7.89,3.867v4.55c0,4.435,3.595,8.029,8.029,8.029c4.389,0,7.951-3.523,8.022-7.896
		c3.387,0.582,6.834,0.93,10.322,1.028v1.175c0,1.94,0.687,3.718,1.832,5.105l-0.891,61.746c-0.031,2.15,0.801,4.221,2.31,5.752
		c1.508,1.532,3.568,2.393,5.718,2.393h40.349c2.2,0,4.216-0.893,5.679-2.356c1.505,1.507,3.547,2.356,5.678,2.356h40.348
		c3.941,0,7.299-2.859,7.926-6.751l15.93-98.739c0.069-0.423,0.103-0.85,0.103-1.278v-87.077c3.007,4.737,8.274,7.804,14.173,7.804
		c1,0,2.007-0.091,2.995-0.269c6.857-1.236,12.304-6.68,13.558-13.559l2.586-14.318
		C512.607,224.379,511.483,219.217,508.523,214.953z M54.915,221.029c-22.287-5.53-38.857-25.699-38.857-49.67
		c0-12.828,4.807-25.005,13.259-34.339c17.458,17.508,27.346,41.208,27.346,66.082C56.663,209.115,56.069,215.118,54.915,221.029z
		 M70.968,222.537c1.156-6.417,1.752-12.92,1.752-19.435c0-28.629-11.178-55.924-30.956-76.32L93.4,91.565
		c0.088-0.056,0.176-0.111,0.261-0.17c6.72-4.588,14.593-7.014,22.771-7.014h49.444c10.914,0,19.804,8.83,19.905,19.721
		c-0.004,0.108-0.006,0.213-0.006,0.309v81.034c0,20.452-16.64,37.092-37.092,37.092L70.968,222.537L70.968,222.537z
		 M165.646,427.62h-23.467l-9.751-119.148c11.768,9.021,26.067,14.891,41.632,16.344L165.646,427.62z M361.418,334.587
		c-4.434,0-8.029,3.595-8.029,8.029v8.834c-3.504-0.124-6.953-0.576-10.315-1.32v-6.363c0-4.435-3.595-8.029-8.029-8.029
		s-8.029,3.594-8.029,8.029v0.203c-2.446-1.382-4.789-2.935-7.012-4.651v-2.048c0-4.435-3.595-8.029-8.029-8.029
		c-0.682,0-1.34,0.094-1.972,0.254c-1.103-1.382-2.137-2.824-3.112-4.31h64.359c2.761,3.002,5.75,5.765,8.918,8.287
		c-1.032,1.351-1.652,3.034-1.652,4.865v8.325c-2.929,1.274-5.964,2.297-9.07,3.076v-7.123
		C369.447,338.181,365.853,334.587,361.418,334.587z M407.161,357.639l-11.29,69.981h-25.367l0.892-61.843
		c2.605-0.579,5.169-1.301,7.689-2.154c1.176,2.973,4.07,5.077,7.461,5.077c4.434,0,8.029-3.594,8.029-8.029v-4.37
		c4.191-2.61,8.127-5.649,11.749-9.079c0.329,0.101,0.653,0.208,0.983,0.303L407.161,357.639z M462.315,336.266l-14.739,91.354
		H422.21l1.245-86.262c0.057-3.881-2.672-7.246-6.481-7.995c-13.98-2.746-26.735-10.327-35.915-21.346
		c-1.525-1.831-3.785-2.889-6.168-2.889H239.879c-4.18,0-7.661,3.207-8.002,7.374l-9.096,111.118h-23.465l-9.094-111.117
		c-0.34-4.167-3.822-7.375-8.002-7.375h-0.312c-0.086-0.003-0.173-0.004-0.26-0.004c-35.851,0-65.018-29.167-65.018-65.017v-5.511
		h32.052c29.307,0,53.149-23.842,53.149-53.15v-49.363l22.573,0.002l173.232-0.002c35.664,0,64.678,29.015,64.678,64.678v135.506
		H462.315z M478.372,212.764v-12.004c0-5.328-0.532-10.533-1.522-15.575c4.111,7.002,6.805,14.849,7.798,23.102
		C482.269,209.347,480.141,210.874,478.372,212.764z M495.884,226.639L493.3,240.94c-0.033,0.184-0.203,0.551-0.609,0.624
		c-0.05,0.011-0.101,0.061-0.145,0.014c-0.301,0-0.66-0.218-0.734-0.623l-2.579-14.283c-0.073-0.412-0.074-0.855-0.006-1.234
		c0.291-1.611,1.684-2.781,3.312-2.781c0.202,0,0.409,0.019,0.62,0.057c1.198,0.216,1.876,0.968,2.174,1.397
		C495.631,224.541,496.1,225.441,495.884,226.639z M104.784,110.254c-4.217,0-7.636,3.418-7.636,7.637
		c0,4.217,3.418,7.636,7.636,7.636c4.217,0,7.637-3.418,7.637-7.636C112.421,113.672,109.001,110.254,104.784,110.254z"/>
	<path style="fill:#1E252B;" d="M181.997,137.743l-5.083-26.611c-0.001-0.005-0.002-0.012-0.003-0.018
		c-1.478-7.647-7.367-13.532-15.013-14.998c-10.23-1.944-20.14,4.789-22.096,15.016l-5.084,26.635
		c-0.557,2.961-0.555,6.073,0.004,9.001c1.205,6.313,4.797,11.779,10.113,15.391c4.036,2.743,8.698,4.166,13.47,4.166
		c1.515,0,3.042-0.143,4.564-0.434c6.314-1.204,11.781-4.795,15.393-10.112C181.876,150.464,183.202,144.059,181.997,137.743z
		 M164.982,146.755c-1.202,1.768-3.02,2.964-5.123,3.365c-2.098,0.404-4.23-0.039-5.999-1.241c-1.768-1.201-2.964-3.02-3.366-5.12
		c-0.185-0.974-0.184-2.02,0-3.003l5.08-26.608c0.259-1.358,1.455-2.306,2.784-2.306c0.174,0,0.35,0.017,0.527,0.05
		c1.304,0.249,2.074,1.318,2.259,2.268l5.08,26.597C166.625,142.856,166.184,144.987,164.982,146.755z"/>
</g>
<g>
</g>
<g>
</g>
<g>
</g>
<g>
</g>
<g>
</g>
<g>
</g>
<g>
</g>
<g>
</g>
<g>
</g>
<g>
</g>
<g>
</g>
<g>
</g>
<g>
</g>
<g>
</g>
<g>
</g>
</svg>
