<?xml version="1.0" encoding="iso-8859-1"?>
<!-- Generator: Adobe Illustrator 19.0.0, SVG Export Plug-In . SVG Version: 6.00 Build 0)  -->
<svg version="1.1" id="Layer_1" xmlns="http://www.w3.org/2000/svg" xmlns:xlink="http://www.w3.org/1999/xlink" x="0px" y="0px"
	 viewBox="0 0 512 512" style="enable-background:new 0 0 512 512;" xml:space="preserve">
<g>
	<path style="fill:#A3382A;" d="M45.217,421.192c-9.748,0-17.65-7.902-17.65-17.65c0-38.765,31.537-70.301,70.302-70.301
		c9.748,0,17.65,7.902,17.65,17.65c0,9.748-7.902,17.65-17.65,17.65c-19.301,0-35.003,15.703-35.003,35.003
		C62.867,413.29,54.965,421.192,45.217,421.192z"/>
	<path style="fill:#A3382A;" d="M466.783,421.192c-9.748,0-17.65-7.902-17.65-17.65c0-19.301-15.703-35.003-35.003-35.003
		c-9.748,0-17.65-7.902-17.65-17.65c0-9.748,7.902-17.65,17.65-17.65c38.765,0,70.302,31.537,70.302,70.301
		C484.433,413.29,476.532,421.192,466.783,421.192z"/>
</g>
<path style="fill:#E94F3D;" d="M336.335,221.76c53.107,0,96.159,43.052,96.159,96.159s-43.052,96.159-96.159,96.159H175.665
	c-53.107,0-96.159-43.052-96.159-96.159s43.052-96.159,96.159-96.159H336.335z"/>
<g>
	<path style="fill:#333E48;" d="M212.183,183.823c0,12.1-9.81,21.91-21.91,21.91c-12.1,0-21.91-9.809-21.91-21.91v-17.04
		c0-12.101,9.809-21.91,21.91-21.91c12.099,0,21.91,9.808,21.91,21.91V183.823z"/>
	<path style="fill:#333E48;" d="M299.819,183.823c0,12.1,9.81,21.91,21.91,21.91c12.1,0,21.91-9.809,21.91-21.91v-17.04
		c0-12.101-9.809-21.91-21.91-21.91c-12.099,0-21.91,9.808-21.91,21.91V183.823z"/>
</g>
<path style="fill:#A3382A;" d="M420.908,302.094c-4.517,0-9.034-1.723-12.48-5.17c-6.893-6.892-6.893-18.066,0-24.96
	c19.141-19.142,19.141-50.288,0-69.43c-6.893-6.893-6.893-18.067,0-24.96c6.892-6.893,18.067-6.893,24.96,0
	c32.903,32.904,32.903,86.446,0,119.349C429.942,300.372,425.424,302.094,420.908,302.094z"/>
<path style="fill:#E94F3D;" d="M473.281,161.495c17.112,17.113,17.112,44.857,0,61.97c-17.113,17.113-44.859,17.113-61.971-0.001
	l-30.983-30.984c-34.227-34.226-34.227-89.714,0-123.94L473.281,161.495z"/>
<g>
	<path style="fill:#A3382A;" d="M401.119,177.477c-8.279,22.742,3.448,47.888,26.188,56.166
		c22.743,8.277,47.889-3.448,56.165-26.191l14.989-41.177c16.552-45.482-6.899-95.772-52.38-112.328L401.119,177.477z"/>
	<path style="fill:#A3382A;" d="M91.092,302.094c-4.516,0-9.034-1.723-12.48-5.17c-32.904-32.905-32.904-86.445,0-119.349
		c6.893-6.893,18.069-6.893,24.96,0c6.893,6.892,6.893,18.067,0,24.96c-19.141,19.142-19.141,50.288,0,69.43
		c6.893,6.893,6.893,18.068,0,24.96C100.127,300.372,95.61,302.094,91.092,302.094z"/>
</g>
<path style="fill:#E94F3D;" d="M38.72,161.495c-17.112,17.113-17.112,44.857,0,61.97c17.113,17.113,44.859,17.113,61.971-0.001
	l30.983-30.984c34.227-34.226,34.227-89.714,0-123.94L38.72,161.495z"/>
<path style="fill:#A3382A;" d="M110.881,177.477c8.279,22.742-3.448,47.888-26.188,56.166c-22.743,8.277-47.888-3.448-56.166-26.191
	l-14.989-41.177c-16.552-45.482,6.899-95.772,52.38-112.328L110.881,177.477z"/>
<path style="fill:#E97A6E;" d="M432.495,317.919c0,53.107-43.052,96.159-96.159,96.159h-160.67
	c-53.107,0-96.159-43.052-96.159-96.159H432.495z"/>
<g>
	<path style="fill:#A3382A;" d="M434.972,458.053c-9.748,0-17.65-7.902-17.65-17.65c0-19.301-15.703-35.003-35.003-35.003
		c-9.748,0-17.65-7.902-17.65-17.65c0-9.748,7.902-17.65,17.65-17.65c38.765,0,70.302,31.537,70.302,70.302
		C452.621,450.151,444.719,458.053,434.972,458.053z"/>
	<path style="fill:#A3382A;" d="M77.028,458.053c-9.748,0-17.65-7.902-17.65-17.65c0-38.765,31.537-70.302,70.303-70.302
		c9.748,0,17.65,7.902,17.65,17.65c0,9.748-7.902,17.65-17.65,17.65c-19.301,0-35.003,15.703-35.003,35.003
		C94.678,450.151,86.776,458.053,77.028,458.053z"/>
	<path style="fill:#A3382A;" d="M256.001,335.311c-17.692,0-32.034,14.343-32.034,32.036v46.732h64.068v-46.732
		C288.034,349.654,273.692,335.311,256.001,335.311z"/>
</g>
<path style="fill:#1E252B;" d="M491.225,210.274l14.989-41.178c18.081-49.683-7.629-104.817-57.31-122.901
	c-2.057-0.748-4.326-0.649-6.308,0.275c-1.983,0.925-3.518,2.599-4.266,4.656l-17.012,46.739l-35.157-35.157
	c-3.222-3.223-8.445-3.222-11.666,0c-18.111,18.11-28.087,42.19-28.087,67.803c0,8.604,1.152,17.026,3.333,25.116
	c-4.446-11.123-15.322-19.005-28.012-19.005c-16.63,0-30.159,13.529-30.159,30.159v17.04c0,13.769,9.279,25.405,21.91,29.003v0.684
	H198.522v-0.684c12.631-3.598,21.91-15.234,21.91-29.003v-17.04c0-16.63-13.529-30.159-30.159-30.159
	c-12.69,0-23.566,7.882-28.012,19.005c2.181-8.089,3.333-16.512,3.333-25.116c0-25.613-9.974-49.693-28.087-67.803
	c-3.222-3.223-8.445-3.222-11.666,0L90.683,97.865L73.671,51.126c-0.749-2.057-2.283-3.731-4.266-4.656
	c-1.983-0.925-4.252-1.023-6.308-0.275C13.416,64.279-12.294,119.413,5.787,169.097l14.989,41.177
	c4.542,12.479,13.612,22.458,24.928,28.362c0.368,23.827,9.925,46.769,26.71,63.747c-0.764,5.125-1.157,10.331-1.157,15.537
	c0,1.405,0.031,2.804,0.085,4.198c-33.891,9.481-57.352,40.22-57.352,75.631c0,14.28,11.619,25.899,25.899,25.899
	c5.198,0,10.038-1.544,14.099-4.191c-1.849,6.673-2.859,13.693-2.859,20.947c0,14.28,11.619,25.899,25.899,25.899
	s25.899-11.619,25.899-25.899c0-14.752,12.001-26.754,26.754-26.754c1.241,0,2.461-0.093,3.656-0.263
	c13.343,5.932,27.569,8.94,42.328,8.94h160.67c14.759,0,28.985-3.007,42.329-8.94c1.195,0.169,2.413,0.263,3.654,0.263
	c14.752,0,26.754,12.001,26.754,26.754c0,14.28,11.619,25.899,25.899,25.899c14.28,0,25.899-11.619,25.899-25.899
	c0-7.254-1.01-14.274-2.859-20.947c4.06,2.646,8.902,4.191,14.099,4.191c14.28,0,25.899-11.619,25.899-25.899
	c0-35.411-23.46-66.15-57.352-75.631c0.054-1.395,0.085-2.794,0.085-4.198c0-5.207-0.387-10.415-1.152-15.542
	c16.781-16.976,26.336-39.917,26.704-63.74C477.614,232.732,486.683,222.754,491.225,210.274z M450.866,64.92
	c36.087,17.543,53.859,60.017,39.843,98.532L475.72,204.63c-5.098,14.007-18.529,23.416-33.425,23.416h-0.003
	c-4.139,0-8.232-0.726-12.163-2.156c-4.962-1.807-9.365-4.63-12.989-8.256l0.003-0.003l-0.321-0.322
	c-2.754-2.828-5.047-6.128-6.763-9.811c-4.016-8.611-4.437-18.27-1.187-27.199L450.866,64.92z M380.624,80.505l34.466,34.467
	l-21.724,59.683c-1.908,5.243-2.937,10.657-3.123,16.077l-4.085-4.085c-14.995-14.995-23.254-34.932-23.254-56.137
	C362.906,112.079,369.144,94.607,380.624,80.505z M351.887,183.823v-17.04c0-2.062-0.209-4.077-0.606-6.024
	c4.636,13.996,12.483,26.828,23.212,37.557l30.403,30.404c2.875,2.971,6.1,5.583,9.621,7.793c0.072,3.696-0.354,7.337-1.243,10.845
	c-19.646-21.4-47.501-33.847-76.939-33.847h-6.358v-0.684C342.608,209.227,351.887,197.592,351.887,183.823z M308.068,183.823
	v-17.04c0-7.532,6.128-13.66,13.66-13.66s13.66,6.128,13.66,13.66v17.04c0,7.532-6.128,13.66-13.66,13.66
	C314.196,197.483,308.068,191.355,308.068,183.823z M176.612,166.782c0-7.532,6.128-13.66,13.66-13.66s13.66,6.128,13.66,13.66
	v17.04c0,7.532-6.128,13.66-13.66,13.66s-13.66-6.128-13.66-13.66V166.782z M182.023,212.826v0.684h-6.358
	c-29.44,0-57.292,12.447-76.939,33.846c-0.889-3.509-1.314-7.148-1.243-10.844c3.521-2.211,6.746-4.823,9.621-7.793l30.403-30.404
	c10.729-10.729,18.576-23.562,23.212-37.557c-0.396,1.947-0.606,3.962-0.606,6.024v17.04
	C160.113,197.592,169.392,209.227,182.023,212.826z M131.376,80.505c11.48,14.102,17.718,31.575,17.718,50.006
	c0,21.206-8.258,41.142-23.254,56.137l-4.085,4.084c-0.186-5.418-1.214-10.833-3.123-16.076l-21.724-59.685L131.376,80.505z
	 M36.28,204.631l-14.989-41.177c-14.016-38.517,3.756-80.99,39.843-98.534l41.995,115.379c3.25,8.928,2.829,18.588-1.187,27.199
	c-1.718,3.685-4.01,6.985-6.765,9.813l-0.32,0.321l0.003,0.003c-3.624,3.626-8.027,6.45-12.989,8.256
	c-3.933,1.431-8.025,2.157-12.163,2.157C54.812,228.048,41.379,218.638,36.28,204.631z M62.516,244.034
	c2.362,0.332,4.763,0.513,7.192,0.513c3.901,0,7.769-0.444,11.563-1.313c1.332,12.97,7.036,25.132,16.468,34.564
	c1.775,1.775,2.753,4.136,2.753,6.647c0,2.51-0.978,4.871-2.754,6.647c-1.774,1.774-4.135,2.752-6.646,2.752
	c-2.511,0-4.872-0.978-6.647-2.753C71.807,278.453,64.106,261.712,62.516,244.034z M49.288,397.748c0,5.183-4.216,9.4-9.4,9.4
	c-5.183,0-9.4-4.217-9.4-9.4c0-27.106,17.4-50.745,42.836-59.001c1.241,6.173,3.042,12.189,5.376,18.008
	C61.416,362.539,49.288,378.768,49.288,397.748z M86.203,371.775c0.471,0.779,0.955,1.551,1.446,2.319
	c-8.443,5.371-15.792,12.302-21.643,20.394C67.344,383.408,75.393,374.383,86.203,371.775z M129.681,397.15
	c-23.85,0-43.253,19.403-43.253,43.253c0,5.183-4.216,9.4-9.4,9.4c-5.184,0-9.4-4.216-9.4-9.4c0-34.216,27.837-62.053,62.054-62.053
	c5.183,0,9.4,4.216,9.4,9.4S134.865,397.15,129.681,397.15z M279.785,405.828h-47.569v-38.482c0-13.116,10.669-23.786,23.785-23.786
	c13.115,0,23.784,10.67,23.784,23.786V405.828z M360.938,402.345c-7.931,2.311-16.16,3.482-24.602,3.482h-40.052v-38.482
	c0-22.213-18.071-40.285-40.283-40.285s-40.284,18.072-40.284,40.285v38.482h-40.052c-8.442,0-16.673-1.171-24.602-3.483
	c2.848-4.159,4.517-9.184,4.517-14.594c0-14.28-11.619-25.899-25.899-25.899c-9.54,0-18.687,1.714-27.153,4.842
	c-9.676-14.438-14.774-31.17-14.774-48.775c0-2.589,0.13-5.177,0.354-7.75c0.983,0.112,1.978,0.176,2.983,0.176
	c6.919,0,13.424-2.695,18.313-7.585c4.891-4.891,7.585-11.395,7.585-18.313s-2.694-13.421-7.585-18.313
	c-0.918-0.918-1.775-1.882-2.594-2.87c16.632-20.921,41.959-33.253,68.853-33.253h6.358v14.12h16.499v-14.12h114.957v14.12h16.499
	v-14.12h6.358c26.892,0,52.22,12.334,68.853,33.253c-0.818,0.988-1.674,1.951-2.593,2.87c-4.891,4.891-7.585,11.395-7.585,18.313
	s2.694,13.421,7.584,18.312c4.89,4.892,11.395,7.586,18.314,7.586c1.004,0,1.997-0.064,2.981-0.175
	c0.224,2.574,0.356,5.16,0.356,7.75c0.001,17.606-5.097,34.337-14.773,48.775c-8.466-3.128-17.613-4.842-27.153-4.842
	c-14.28,0-25.899,11.619-25.899,25.899C356.42,393.161,358.09,398.187,360.938,402.345z M434.972,449.803
	c-5.183,0-9.4-4.216-9.4-9.4c0-23.85-19.403-43.253-43.253-43.253c-5.183,0-9.4-4.216-9.4-9.4s4.216-9.4,9.4-9.4
	c34.216,0,62.053,27.837,62.053,62.053C444.372,445.587,440.155,449.803,434.972,449.803z M424.352,374.095
	c0.493-0.768,0.976-1.54,1.446-2.319c10.809,2.608,18.858,11.632,20.195,22.71C440.144,386.395,432.794,379.466,424.352,374.095z
	 M481.512,397.748c0,5.183-4.216,9.4-9.4,9.4c-5.183,0-9.4-4.217-9.4-9.4c0.001-18.979-12.127-35.21-29.412-40.994
	c2.335-5.818,4.136-11.835,5.376-18.007C464.111,347.003,481.512,370.642,481.512,397.748z M427.554,291.092
	c-1.775,1.775-4.135,2.752-6.646,2.752s-4.872-0.978-6.647-2.753c-1.775-1.775-2.753-4.136-2.753-6.646
	c0-2.511,0.978-4.872,2.753-6.647c9.431-9.433,15.136-21.594,16.468-34.564c3.791,0.869,7.66,1.312,11.561,1.313
	c0.003,0,0.002,0,0.004,0c2.429,0,4.828-0.18,7.189-0.511C447.895,261.712,440.194,278.453,427.554,291.092z"/>
<g>
</g>
<g>
</g>
<g>
</g>
<g>
</g>
<g>
</g>
<g>
</g>
<g>
</g>
<g>
</g>
<g>
</g>
<g>
</g>
<g>
</g>
<g>
</g>
<g>
</g>
<g>
</g>
<g>
</g>
</svg>
