<?xml version="1.0" encoding="iso-8859-1"?>
<!-- Generator: Adobe Illustrator 19.0.0, SVG Export Plug-In . SVG Version: 6.00 Build 0)  -->
<svg version="1.1" id="Layer_1" xmlns="http://www.w3.org/2000/svg" xmlns:xlink="http://www.w3.org/1999/xlink" x="0px" y="0px"
	 viewBox="0 0 511.999 511.999" style="enable-background:new 0 0 511.999 511.999;" xml:space="preserve">
<path style="fill:#00833E;" d="M449.904,222.782h-0.286c-2.3-10.629-11.748-18.594-23.063-18.594
	c-11.313,0-20.758,7.965-23.059,18.594h-38.288c0-15.557-12.61-28.166-28.163-28.166c-10.374,0-19.432,5.614-24.318,13.966
	c-2.698-1.217-5.681-1.909-8.834-1.909H116.192c-46.329,0-85.844,29.148-101.224,70.102h488.936
	C503.904,246.956,479.728,222.782,449.904,222.782z"/>
<path style="fill:#006931;" d="M438.457,228.605c0-6.572-5.327-11.899-11.901-11.899c-6.571,0-11.898,5.328-11.898,11.899H438.457z"
	/>
<path style="fill:#E1CB81;" d="M14.968,276.777c-4.439,11.82-6.872,24.622-6.872,37.993h457.816
	c20.983,0,37.991-17.01,37.991-37.992H14.968V276.777z"/>
<path style="fill:#006931;" d="M213.326,304.701c0,5.559,4.509,10.069,10.069,10.069h98.047
	c-9.886-26.325-35.283-45.06-65.061-45.06h-29.202c-7.651,0-13.854,6.205-13.854,13.852v21.138H213.326z"/>
<path style="fill:#00833E;" d="M199.739,314.77c0-20.983-17.008-37.992-37.991-37.992H14.968
	c-4.439,11.819-6.872,24.621-6.872,37.992H199.739z"/>
<g>
	<polygon style="fill:#FFFFFF;" points="366.606,276.777 355.748,295.583 344.89,276.777 	"/>
	<polygon style="fill:#FFFFFF;" points="392.613,276.777 381.754,295.583 370.897,276.777 	"/>
	<polygon style="fill:#FFFFFF;" points="418.618,276.777 407.76,295.583 396.902,276.777 	"/>
	<polygon style="fill:#FFFFFF;" points="444.624,276.777 433.767,295.583 422.91,276.777 	"/>
	<polygon style="fill:#FFFFFF;" points="470.63,276.777 459.772,295.583 448.914,276.777 	"/>
	<polygon style="fill:#FFFFFF;" points="496.637,276.777 485.778,295.583 474.919,276.777 	"/>
</g>
<path style="fill:#1E252B;" d="M455.522,216.244c-5.011-11.215-16.339-18.846-28.967-18.846c-12.531,0-23.783,7.518-28.849,18.594
	h-25.313c-3.689-16.11-18.137-28.166-35.348-28.166c-10.604,0-20.642,4.709-27.467,12.608c-1.863-0.366-3.762-0.551-5.686-0.551
	h-16.697v-0.596c0-4.472-3.624-8.096-8.096-8.096s-8.096,3.624-8.096,8.096v0.596h-20.215v-0.596c0-4.472-3.625-8.096-8.096-8.096
	c-4.471,0-8.096,3.624-8.096,8.096v0.596h-20.216v-0.596c0-4.472-3.625-8.096-8.096-8.096c-4.471,0-8.096,3.624-8.096,8.096v0.596
	H177.97v-0.596c0-4.472-3.625-8.096-8.096-8.096c-4.471,0-8.096,3.624-8.096,8.096v0.596h-20.215v-0.596
	c0-4.472-3.625-8.096-8.096-8.096c-4.471,0-8.096,3.624-8.096,8.096v0.596h-9.179c-24.114,0-47.242,7.321-66.883,21.173
	c-19.197,13.538-33.693,32.274-41.918,54.18C2.486,288.293,0,302.033,0,316.076c0,4.472,3.625,8.096,8.096,8.096h457.816
	c25.413,0,46.087-20.675,46.087-46.088C512,245.74,487.141,219.093,455.522,216.244z M16.515,307.98
	c0.594-7.426,2.022-14.717,4.241-21.8h140.992c13.678,0,25.233,9.238,28.771,21.8H16.515z M223.395,307.98
	c-1.088,0-1.973-0.885-1.973-1.973v-21.138c0-3.174,2.583-5.756,5.758-5.756h29.202c21.308,0,40.971,11.229,52.05,28.867H223.395z
	 M465.912,307.98H326.819c-12.578-27.168-40.198-45.06-70.437-45.06H227.18c-12.103,0-21.95,9.846-21.95,21.948v15.955
	c-6.311-17.938-23.414-30.835-43.481-30.835h-6.265v-0.595c0-4.472-3.625-8.096-8.096-8.096c-4.471,0-8.096,3.624-8.096,8.096v0.595
	h-20.216v-0.595c0-4.472-3.625-8.096-8.096-8.096s-8.096,3.624-8.096,8.096v0.595H82.666v-0.595c0-4.472-3.625-8.096-8.096-8.096
	s-8.096,3.624-8.096,8.096v0.595H46.258v-0.595c0-4.472-3.625-8.096-8.096-8.096s-8.096,3.624-8.096,8.096v0.595h-2.624
	c17.036-32.668,51.337-53.91,88.749-53.91h187.702c1.899,0,3.752,0.402,5.506,1.192c3.774,1.703,8.223,0.283,10.315-3.291
	c3.595-6.142,10.237-9.959,17.332-9.959c11.065,0,20.066,9.003,20.066,20.07c0,4.472,3.624,8.096,8.096,8.096h38.288
	c3.811,0,7.106-2.659,7.913-6.383c1.532-7.076,7.901-12.211,15.146-12.211c7.248,0,13.619,5.135,15.15,12.211
	c0.806,3.724,4.102,6.383,7.913,6.383h0.286c25.311,0,45.903,20.59,45.903,45.899C495.808,294.569,482.396,307.98,465.912,307.98z
	 M337.047,213.57c-5.81,0-10.517,4.708-10.517,10.518c0,5.807,4.708,10.516,10.517,10.516c5.81,0,10.517-4.71,10.517-10.516
	C347.564,218.278,342.855,213.57,337.047,213.57z"/>
<g>
</g>
<g>
</g>
<g>
</g>
<g>
</g>
<g>
</g>
<g>
</g>
<g>
</g>
<g>
</g>
<g>
</g>
<g>
</g>
<g>
</g>
<g>
</g>
<g>
</g>
<g>
</g>
<g>
</g>
</svg>
