<?xml version="1.0" encoding="iso-8859-1"?>
<!-- Generator: Adobe Illustrator 19.0.0, SVG Export Plug-In . SVG Version: 6.00 Build 0)  -->
<svg version="1.1" id="Layer_1" xmlns="http://www.w3.org/2000/svg" xmlns:xlink="http://www.w3.org/1999/xlink" x="0px" y="0px"
	 viewBox="0 0 512 512" style="enable-background:new 0 0 512 512;" xml:space="preserve">
<path style="fill:#B36F0F;" d="M252.641,349.61c-10.783,0-19.526,8.742-19.526,19.528V471.2h-36.637
	c-8.993,0-16.283,7.29-16.283,16.282c0,8.993,7.291,16.283,16.283,16.283h59.406c8.994,0,16.283-7.291,16.283-16.283V369.138
	C272.166,358.353,263.425,349.61,252.641,349.61z"/>
<path style="fill:#D98712;" d="M335.153,349.61c-10.783,0-19.526,8.742-19.526,19.528V471.2H278.99
	c-8.993,0-16.283,7.29-16.283,16.282c0,8.993,7.291,16.283,16.283,16.283h59.405c8.993,0,16.283-7.291,16.283-16.283V369.138
	C354.679,358.353,345.937,349.61,335.153,349.61z"/>
<path style="fill:#FFB648;" d="M284.127,120.668c0-55.253-44.792-100.045-100.045-100.045S84.037,65.415,84.037,120.668v132.663
	c0,80.748,65.462,146.21,146.21,146.21h132.62c62.681,0,113.494-50.814,113.494-113.494v-90.431
	c0-10.416-8.444-18.859-18.859-18.859s-18.86,8.444-18.86,18.859v5.956c-20.094-18.037-46.649-29.019-75.775-29.019h-78.742v-51.885
	H284.127z"/>
<path style="fill:#FF9E16;" d="M391.727,230.937c2.373,0,4.295,1.923,4.295,4.294l0.025,0.001
	c-2.26,60.431-51.964,108.732-112.948,108.732S172.41,295.663,170.153,235.232l0.024-0.001c0-2.372,1.923-4.294,4.294-4.294
	L391.727,230.937L391.727,230.937z"/>
<path style="fill:#D98712;" d="M145.243,125.615H65.682c-16.593,0-30.043,13.45-30.043,30.044c0,16.592,13.45,30.042,30.043,30.042
	h79.561c16.592,0,30.044-13.45,30.044-30.042C175.287,139.066,161.834,125.615,145.243,125.615z"/>
<path style="fill:#1E252B;" d="M189.826,99.693c0-5.805-4.705-10.509-10.509-10.509c-5.804,0-10.509,4.704-10.509,10.509
	c0,5.803,4.705,10.509,10.509,10.509C185.121,110.202,189.826,105.497,189.826,99.693z M457.503,168.522
	c-11.549,0-21.433,7.262-25.325,17.46c-20.261-14.054-44.378-21.663-69.31-21.663h-70.507v-43.651
	c0-52.065-36.94-95.661-85.985-105.966c2.055-3.189,1.691-7.486-1.101-10.277c-3.216-3.216-8.43-3.216-11.645,0l-7.985,7.985
	c-0.522-0.008-1.041-0.02-1.564-0.02c-0.187,0-0.373,0.005-0.56,0.007V8.235c0-4.548-3.687-8.235-8.235-8.235
	c-4.548,0-8.235,3.687-8.235,8.235v5.498c-50.589,8.026-89.622,51.21-91.195,103.647H65.682c-21.107,0-38.278,17.172-38.278,38.279
	c0,21.107,17.172,38.277,38.278,38.277h10.121v59.395c0,83.364,66.392,151.501,149.077,154.342v55.292h-28.402
	c-13.52,0-24.518,10.999-24.518,24.517c0,13.52,10.999,24.518,24.518,24.518h59.405c4.104,0,8.054-1.004,11.572-2.891
	c3.44,1.842,7.368,2.891,11.536,2.891h59.405c13.52,0,24.518-10.999,24.518-24.518v-79.706
	c67.101-0.025,121.683-54.622,121.683-121.728v-90.431C484.597,180.677,472.444,168.522,457.503,168.522z M65.682,177.467
	c-12.025,0-21.808-9.783-21.808-21.807c0-12.025,9.783-21.809,21.808-21.809h79.561c12.026,0,21.809,9.784,21.809,21.809
	s-9.784,21.807-21.809,21.807L65.682,177.467L65.682,177.467z M263.931,468.156c-5.75,4.491-9.459,11.482-9.459,19.327
	c0,2.819,0.484,5.525,1.364,8.048h-59.358c-4.438,0-8.048-3.61-8.048-8.048s3.61-8.047,8.048-8.047h36.637
	c4.548,0,8.235-3.687,8.235-8.235v-63.423h22.581V468.156z M346.445,487.482c0,4.438-3.61,8.048-8.048,8.048h-59.405
	c-4.438,0-8.048-3.61-8.048-8.048c0-4.438,3.61-8.047,8.048-8.047h36.637c4.548,0,8.235-3.687,8.235-8.235v-63.423h22.581
	L346.445,487.482L346.445,487.482z M280.401,462.965v-55.188h26.991v55.188H280.401z M468.127,286.047
	c0,58.04-47.219,105.259-105.259,105.259h-132.62c-76.08,0-137.975-61.896-137.975-137.975v-59.395h52.969
	c21.108,0,38.279-17.172,38.279-38.277c0-21.108-17.173-38.279-38.279-38.279H92.357c1.74-49.104,42.205-88.521,91.726-88.521
	c50.624,0,91.81,41.186,91.81,91.81v51.886c0,4.548,3.687,8.235,8.235,8.235h78.742c25.984,0,50.94,9.558,70.274,26.912
	c2.419,2.171,5.887,2.718,8.855,1.392c2.968-1.324,4.879-4.27,4.879-7.52v-5.956c0-5.858,4.766-10.624,10.625-10.624
	s10.624,4.766,10.624,10.624L468.127,286.047L468.127,286.047z M391.727,222.702H174.47c-6.539,0-11.923,5.034-12.481,11.431
	c-0.061,0.459-0.085,0.928-0.067,1.405c1.174,31.417,14.299,60.767,36.961,82.645c22.72,21.935,52.628,34.015,84.215,34.015
	s61.496-12.08,84.216-34.015c22.66-21.878,35.787-51.228,36.962-82.644c0.018-0.472-0.004-0.938-0.065-1.39
	C403.66,227.745,398.271,222.702,391.727,222.702z M355.874,306.335c-19.633,18.955-45.479,29.394-72.776,29.394
	s-53.143-10.439-72.776-29.394c-18.558-17.917-29.716-41.63-31.698-67.163h208.948C385.591,264.704,374.432,288.418,355.874,306.335
	z"/>
<g>
</g>
<g>
</g>
<g>
</g>
<g>
</g>
<g>
</g>
<g>
</g>
<g>
</g>
<g>
</g>
<g>
</g>
<g>
</g>
<g>
</g>
<g>
</g>
<g>
</g>
<g>
</g>
<g>
</g>
</svg>
