<?xml version="1.0" encoding="iso-8859-1"?>
<!-- Generator: Adobe Illustrator 19.0.0, SVG Export Plug-In . SVG Version: 6.00 Build 0)  -->
<svg version="1.1" id="Layer_1" xmlns="http://www.w3.org/2000/svg" xmlns:xlink="http://www.w3.org/1999/xlink" x="0px" y="0px"
	 viewBox="0 0 512.001 512.001" style="enable-background:new 0 0 512.001 512.001;" xml:space="preserve">
<path style="fill:#4A5159;" d="M162.103,277.044h-49.245c-9.028,0-16.415,7.386-16.415,16.415V398.6
	c0,9.028,7.386,16.415,16.415,16.415h65.66V293.459C178.517,284.431,171.131,277.044,162.103,277.044z"/>
<path style="fill:#A4A9AD;" d="M167.868,403.877v11.138h10.65v-21.789C172.636,393.226,167.868,397.995,167.868,403.877z"/>
<path style="opacity:0.3;fill:#7D868C;enable-background:new    ;" d="M162.903,371.736c-1.914,0-3.464,1.551-3.464,3.466
	c0,1.913,1.551,3.465,3.464,3.465h15.614v-6.931h-15.614V371.736z"/>
<path style="fill:#4A5159;" d="M325.107,277.044h-49.245c-9.029,0-16.416,7.386-16.416,16.415V398.6
	c0,9.028,7.387,16.415,16.416,16.415h65.66V293.459C341.522,284.431,334.134,277.044,325.107,277.044z"/>
<path style="fill:#A4A9AD;" d="M330.872,403.877v11.138h10.65v-21.789C335.64,393.226,330.872,397.995,330.872,403.877z"/>
<path style="opacity:0.3;fill:#7D868C;enable-background:new    ;" d="M325.908,371.736c-1.914,0-3.466,1.551-3.466,3.466
	c0,1.913,1.552,3.465,3.466,3.465h15.613v-6.931h-15.613V371.736z"/>
<g>
	<path style="fill:#5C6670;" d="M227.654,97.195h-67.31c-71.555,0-129.561,58.007-129.561,129.56
		c0,71.555,58.007,129.561,129.561,129.561h67.31c71.554,0,129.561-58.007,129.561-129.561
		C357.215,155.202,299.208,97.195,227.654,97.195z"/>
	<path style="fill:#5C6670;" d="M131.618,277.044H82.372c-9.029,0-16.417,7.386-16.417,16.415V398.6
		c0,9.028,7.387,16.415,16.417,16.415h65.66V293.459C148.032,284.431,140.646,277.044,131.618,277.044z"/>
</g>
<path style="fill:#A4A9AD;" d="M137.382,403.877v11.138h10.65v-21.789C142.15,393.226,137.382,397.995,137.382,403.877z"/>
<path style="opacity:0.3;fill:#7D868C;enable-background:new    ;" d="M132.42,371.736c-1.914,0-3.467,1.551-3.467,3.466
	c0,1.913,1.552,3.465,3.467,3.465h15.612v-6.931H132.42V371.736z"/>
<path style="fill:#5C6670;" d="M294.622,277.044h-49.244c-9.028,0-16.415,7.386-16.415,16.415V398.6
	c0,9.028,7.386,16.415,16.415,16.415h65.661V293.459C311.037,284.431,303.651,277.044,294.622,277.044z"/>
<path style="fill:#A4A9AD;" d="M300.386,403.877v11.138h10.651v-21.789C305.156,393.226,300.386,397.995,300.386,403.877z"/>
<path style="opacity:0.3;fill:#7D868C;enable-background:new    ;" d="M295.423,371.736c-1.914,0-3.465,1.551-3.465,3.466
	c0,1.913,1.552,3.465,3.465,3.465h15.614v-6.931h-15.614V371.736z"/>
<path style="fill:#5C6670;" d="M484.6,266.107c-10.685,0-19.347,8.662-19.347,19.346c0,13.147-10.695,23.84-23.84,23.84
	c-13.145,0-23.84-10.695-23.84-23.84v-70.138c0.134-1.665,0.222-3.343,0.222-5.042v-32.082c0-25.785-15.809-47.867-38.258-57.112
	c-11.291-14.649-29-24.094-48.925-24.094h-32.082c-34.104,0-61.752,27.646-61.752,61.752v113.287h119.265
	c8.07,0,15.771-1.566,22.837-4.379v17.807c0,34.481,28.052,62.532,62.532,62.532s62.533-28.052,62.533-62.532
	C503.946,274.769,495.284,266.107,484.6,266.107z"/>
<path style="opacity:0.3;fill:#7D868C;enable-background:new    ;" d="M398.227,235.209c0,1.913,1.551,3.465,3.464,3.465h15.614
	v-6.932h-15.614C399.778,231.742,398.227,233.294,398.227,235.209z M398.227,281.177c0,1.915,1.551,3.465,3.464,3.465h15.614v-6.93
	h-15.614C399.778,277.711,398.227,279.264,398.227,281.177z M401.691,208.758c-1.914,0-3.464,1.552-3.464,3.467
	c0,1.913,1.551,3.464,3.464,3.464h15.614v-6.931H401.691z M398.227,258.192c0,1.915,1.551,3.465,3.464,3.465h15.614v-6.93h-15.614
	C399.778,254.728,398.227,256.279,398.227,258.192z"/>
<path style="fill:#FADF8D;" d="M431.385,320.915h-16.288c-32.217,0-58.428-26.21-58.428-58.429c0-8.418,6.825-15.242,15.242-15.242
	c8.419,0,15.243,6.823,15.243,15.242c0,15.409,12.535,27.944,27.944,27.944h16.288c8.418,0,15.243,6.825,15.243,15.243
	C446.628,314.09,439.805,320.915,431.385,320.915z"/>
<path style="fill:#A4A9AD;" d="M208.229,229.828c-0.001,23.123,18.744,41.865,41.865,41.865c23.121,0,41.864-18.744,41.862-41.865
	l0.001-106.758c-46.24,0-83.728,37.487-83.728,83.727L208.229,229.828z"/>
<path style="fill:#1E252B;" d="M484.6,258.053c-15.108,0-27.401,12.292-27.401,27.4c0,4.189-1.677,8.082-4.443,10.955
	c-3.59-8.249-11.816-14.032-21.37-14.032h-5.759v-66.742c0.149-1.942,0.222-3.697,0.222-5.36v-32.082
	c0-27.683-16.125-52.458-41.271-63.71c-13.328-16.266-32.875-25.549-53.967-25.549h-32.082c-10.184,0-20.313,2.253-29.509,6.542
	c-13.349-4.204-27.248-6.333-41.367-6.333h-67.31c-42.817,0-81.126,19.657-106.385,50.419C22.571,146.976,0,175.333,0,207.8
	c0,4.448,3.606,8.054,8.054,8.054s8.054-3.606,8.054-8.054c0-17.275,8.297-33.035,21.389-43.02
	c-9.441,18.637-14.769,39.694-14.769,61.976c0,34.089,12.468,66.59,35.174,91.882V398.6c0,13.492,10.977,24.47,24.471,24.47h96.145
	c4.448,0,8.054-3.606,8.054-8.054v-50.643h34.336V398.6c0,13.492,10.977,24.47,24.47,24.47h96.144c4.448,0,8.054-3.606,8.054-8.054
	V290.6c1.012-1.925,1.967-3.878,2.888-5.851c4.931,13.833,14.322,25.557,26.434,33.454c12.135,23.061,36.415,37.836,62.516,37.836
	c38.922,0,70.588-31.666,70.588-70.587C512,270.344,499.709,258.053,484.6,258.053z M170.463,406.961h-14.377v-42.657
	c1.427,0.045,2.848,0.068,4.258,0.068h10.119V406.961z M333.467,406.961h-14.376v-77.386c5.173-4.605,9.971-9.589,14.376-14.884
	V406.961z M348.616,262.486c0,0.51,0.027,1.012,0.039,1.518c-3.187,0.17-5.996,2.192-7.121,5.207
	c-7.284,19.528-19.624,37-35.684,50.524c-1.817,1.53-2.866,3.784-2.866,6.161v81.066h-57.606c-4.61,0-8.361-3.751-8.361-8.361
	v-42.307c0-2.149-0.859-4.21-2.386-5.723c-1.527-1.512-3.578-2.378-5.745-2.331c-0.243,0.002-0.484,0.009-0.726,0.015
	c-0.168,0.004-0.336,0.01-0.505,0.01h-67.31c-3.792,0-7.68-0.185-11.557-0.55c-2.264-0.216-4.501,0.537-6.176,2.062
	c-1.677,1.526-2.633,3.689-2.633,5.956v51.229H82.372c-4.61,0-8.362-3.751-8.362-8.361V315.5c0-2.051-0.783-4.025-2.188-5.518
	c-21.273-22.617-32.988-52.174-32.988-83.226c0-66.999,54.508-121.506,121.507-121.506h67.31c13.484,0,26.734,2.196,39.383,6.527
	c2.107,0.721,4.416,0.538,6.382-0.505c7.799-4.136,16.247-6.233,25.111-6.233h32.082c16.774,0,32.281,7.639,42.545,20.957
	c0.863,1.119,2.006,1.992,3.313,2.53c20.212,8.323,33.271,27.817,33.271,49.665v32.082c0,1.319-0.064,2.757-0.197,4.394
	c-0.017,0.215-0.026,0.431-0.026,0.646v66.249c-8.258-2.419-14.311-10.049-14.311-19.08c0-12.846-10.451-23.296-23.297-23.296
	C359.066,239.189,348.616,249.64,348.616,262.486z M364.724,262.486c0-3.964,3.224-7.188,7.188-7.188s7.189,3.224,7.189,7.188
	c0,19.85,16.149,35.998,35.998,35.998h16.288c3.964,0,7.189,3.225,7.189,7.189s-3.225,7.188-7.189,7.188h-16.288
	C387.322,312.861,364.724,290.262,364.724,262.486z M441.412,339.932c-12.121,0-23.731-4.137-33.1-11.307
	c2.232,0.228,4.495,0.344,6.786,0.344h16.288c9.405,0,17.522-5.606,21.196-13.649c12.248-4.601,20.725-16.482,20.725-29.867
	c0-6.226,5.066-11.292,11.293-11.292c6.226,0,11.292,5.066,11.292,11.292C495.892,315.493,471.453,339.932,441.412,339.932z
	 M291.957,115.016c-50.608,0-91.782,41.173-91.782,91.781l-0.001,23.031c-0.001,13.334,5.192,25.871,14.621,35.3
	c9.429,9.429,21.964,14.621,35.299,14.621c13.334,0,25.869-5.192,35.298-14.621c9.429-9.429,14.62-21.965,14.619-35.299
	l0.001-106.758c0-2.136-0.848-4.185-2.359-5.695C296.142,115.865,294.093,115.016,291.957,115.016z M283.902,229.829
	c0.001,9.031-3.515,17.522-9.901,23.908c-6.385,6.386-14.875,9.903-23.907,9.903c-9.031,0-17.523-3.517-23.909-9.902
	c-6.386-6.386-9.903-14.878-9.902-23.908l0.001-23.032c0-39.006,29.665-71.214,67.619-75.247L283.902,229.829z M377.989,176.328
	c0-4.774-3.872-8.647-8.647-8.647c-4.777,0-8.647,3.872-8.647,8.647c0,4.777,3.87,8.647,8.647,8.647
	C374.116,184.975,377.989,181.103,377.989,176.328z"/>
<g>
</g>
<g>
</g>
<g>
</g>
<g>
</g>
<g>
</g>
<g>
</g>
<g>
</g>
<g>
</g>
<g>
</g>
<g>
</g>
<g>
</g>
<g>
</g>
<g>
</g>
<g>
</g>
<g>
</g>
</svg>
