<?xml version="1.0" encoding="iso-8859-1"?>
<!-- Generator: Adobe Illustrator 19.0.0, SVG Export Plug-In . SVG Version: 6.00 Build 0)  -->
<svg version="1.1" id="Layer_1" xmlns="http://www.w3.org/2000/svg" xmlns:xlink="http://www.w3.org/1999/xlink" x="0px" y="0px"
	 viewBox="0 0 512.001 512.001" style="enable-background:new 0 0 512.001 512.001;" xml:space="preserve">
<g>
	<path style="fill:#65513C;" d="M260.181,487.351c0,7.892,6.397,14.285,14.289,14.285h71.851c4.837,0,8.762-3.923,8.762-8.762
		c0-16.827-13.643-30.465-30.466-30.465h-24.187V327.447c0-42.805-34.701-77.505-77.504-77.505c-42.804,0-77.505,34.7-77.505,77.505
		c0,42.803,34.701,77.503,77.505,77.503c20.576,0,37.255,16.682,37.255,37.257v30.458V487.351L260.181,487.351z"/>
	<path style="fill:#65513C;" d="M450.249,290.194h-54.924v-42.146c0-11.116-9.008-20.122-20.121-20.122s-20.12,9.007-20.12,20.122
		v62.267c0,11.111,9.007,20.118,20.12,20.118h75.046c11.111,0,20.12-9.007,20.12-20.118
		C470.368,299.197,461.36,290.194,450.249,290.194z"/>
</g>
<g>
	<path style="fill:#BF9B5F;" d="M503.907,76.479c0-10.611-8.599-19.212-19.216-19.212H348.438
		c-18.821,0-34.078,15.258-34.078,34.076v70.414c0,16.557-13.422,29.98-29.981,29.98h-40.501c-54.376,0-98.457,44.081-98.457,98.453
		v124.068c0,23.796-19.289,43.087-43.087,43.087H30.237c-12.228,0-22.144,9.915-22.144,22.147c0,12.229,9.916,22.144,22.144,22.144
		h125.4c26.7,0,48.343-21.643,48.343-48.342V380.2c12.2,5.416,25.691,8.448,39.899,8.448h43.145
		c59.704,0,108.108-48.399,108.108-108.105v-88.807c0-21.211,17.193-38.406,38.403-38.406l-0.106-0.283
		C472.884,149.806,503.907,116.778,503.907,76.479z"/>
	<path style="fill:#BF9B5F;" d="M370.41,46.004c0-19.683-17.823-35.64-17.823-35.64s-17.814,15.957-17.814,35.64
		c0,19.681,17.814,35.635,17.814,35.635S370.41,65.685,370.41,46.004z"/>
</g>
<path style="fill:#FF9C9F;" d="M363.261,46.004c0-11.789-10.674-21.34-10.674-21.34s-10.67,9.553-10.67,21.34
	c0,11.783,10.67,21.335,10.67,21.335S363.261,57.787,363.261,46.004z"/>
<g>
	<path style="fill:#9C7F4D;" d="M232.505,487.351c0,7.892,6.397,14.285,14.289,14.285h71.851c4.839,0,8.762-3.923,8.762-8.762
		c0-16.827-13.641-30.465-30.463-30.465h-24.188V327.447c0-42.805-34.704-77.505-77.506-77.505s-77.502,34.7-77.502,77.505
		c0,42.803,34.7,77.503,77.502,77.503c20.576,0,37.256,16.682,37.256,37.257v30.458L232.505,487.351L232.505,487.351z"/>
	<path style="fill:#9C7F4D;" d="M422.571,290.194h-54.924v-42.146c0-11.116-9.008-20.122-20.122-20.122
		c-11.11,0-20.119,9.007-20.119,20.122v62.267c0,11.111,9.009,20.118,20.119,20.118h75.047c11.114,0,20.12-9.007,20.12-20.118
		C442.692,299.197,433.685,290.194,422.571,290.194z"/>
</g>
<path style="fill:#1E252B;" d="M484.692,49.174H378.379c0.082-1.062,0.123-2.12,0.123-3.17c0-23.035-19.678-40.919-20.517-41.669
	c-3.074-2.752-7.726-2.752-10.798,0.001c-0.837,0.75-20.507,18.635-20.507,41.668c0,2.856,0.303,5.758,0.905,8.678
	c-13.001,7.396-21.32,21.32-21.32,36.663v70.414c0,12.068-9.819,21.887-21.888,21.887h-40.501
	c-47.751,0-89.483,31.661-102.465,77.319c-19.358,15.708-31.76,39.67-31.76,66.483c0,24.876,10.675,47.3,27.674,62.953v23.859
	c0,19.296-15.698,34.994-34.994,34.994H30.237C13.565,449.253,0,462.819,0,479.493c0,16.672,13.565,30.237,30.237,30.237h125.4
	c31.118,0,56.436-25.316,56.436-56.435v-34.888c7.457,5.287,12.34,13.982,12.34,23.8v45.144c0,12.34,10.04,22.378,22.381,22.378
	h99.527c9.294,0,16.855-7.561,16.855-16.855c0-21.26-17.297-38.557-38.558-38.557h-16.094v-59.58
	c33.098-6.189,62.093-26.485,79.214-56.213h62.512c15.557,0,28.213-12.654,28.213-28.21c0-15.558-12.656-28.214-28.213-28.214
	h-47.059c0.007-0.518,0.033-1.039,0.033-1.556v-88.807c0-16.714,13.596-30.313,30.31-30.313c1.002,0,1.98-0.186,2.891-0.533
	c20.287-2.229,39.023-11.667,52.978-26.731c14.574-15.736,22.598-36.22,22.598-57.68C512,61.423,499.75,49.174,484.692,49.174z
	 M346.99,492.874c0,0.369-0.3,0.669-0.669,0.669h-10.856c0.009-0.223,0.033-0.443,0.033-0.669c0-8.173-2.564-15.756-6.919-21.999
	C339.029,472.754,346.99,481.893,346.99,492.874z M195.887,453.295c0,22.193-18.056,40.249-40.25,40.249h-125.4
	c-7.748,0-14.051-6.304-14.051-14.051c0-7.751,6.304-14.054,14.051-14.054h72.096c28.22,0,51.18-22.959,51.18-51.18v-12.12
	c12.356,6.933,26.588,10.904,41.735,10.904c0.214,0,0.426,0.012,0.639,0.017L195.887,453.295L195.887,453.295z M319.314,492.874
	c0,0.369-0.3,0.669-0.669,0.669h-71.851c-3.416,0-6.196-2.777-6.196-6.193v-45.144c0-25.007-20.344-45.35-45.349-45.35
	c-38.272,0-69.409-31.137-69.409-69.41c0-38.275,31.137-69.412,69.409-69.412c38.276,0,69.414,31.138,69.414,69.412V462.41
	c0,4.47,3.622,8.093,8.093,8.093h24.188C309.278,470.502,319.314,480.539,319.314,492.874z M280.847,454.317v-57.575h6.176
	c1.779,0,3.549-0.055,5.314-0.135v57.71H280.847z M448.086,298.287h2.163c6.632,0,12.027,5.396,12.027,12.028
	c0,6.631-5.395,12.025-12.027,12.025h-2.163c1.729-3.65,2.699-7.725,2.699-12.025S449.814,301.937,448.086,298.287z
	 M422.571,298.287c6.632,0,12.027,5.396,12.027,12.028c0,6.631-5.395,12.025-12.027,12.025h-75.047
	c-6.632,0-12.026-5.394-12.026-12.025v-62.267c0-6.633,5.394-12.029,12.026-12.029c6.633,0,12.029,5.396,12.029,12.029v42.146
	c0,4.47,3.622,8.093,8.093,8.093H422.571z M477.526,123.162c-11.728,12.664-27.625,20.413-44.76,21.823
	c-0.575,0.047-1.137,0.155-1.679,0.318c-24.506,1.277-44.049,21.615-44.049,46.435v88.807c0,0.518-0.027,1.038-0.033,1.556h-11.264
	v-34.053c0-15.558-12.657-28.215-28.215-28.215c-15.555,0-28.211,12.657-28.211,28.215v62.267c0,15.555,12.656,28.21,28.211,28.21
	h21.011c-18.624,26.212-48.781,42.031-81.512,42.031h-6.176v-53.109c0-47.198-38.4-85.598-85.599-85.598
	c-11,0-21.51,2.108-31.179,5.906c15.398-28.989,45.801-47.923,79.809-47.923h40.501c20.994,0,38.074-17.079,38.074-38.073V91.343
	c0-10.994,6.931-20.807,17.27-24.486c3.75-1.186,6.13-4.925,5.567-8.863c-0.09-0.628-0.251-1.237-0.479-1.816
	c-1.289-3.506-1.943-6.929-1.943-10.174c0-9.426,5.379-18.143,9.722-23.644c4.346,5.504,9.729,14.22,9.729,23.644
	c0,2.812-0.493,5.767-1.464,8.782c-0.999,3.101-0.04,6.499,2.432,8.622c1.516,1.302,3.432,2.001,5.34,1.953h116.067
	c6.133,0,11.123,4.988,11.123,11.12C495.814,93.849,489.32,110.427,477.526,123.162z M409.119,77.354
	c-5.166,0-9.353,4.187-9.353,9.353c0,5.17,4.187,9.357,9.353,9.357c5.168,0,9.354-4.188,9.354-9.357
	C418.473,81.54,414.286,77.354,409.119,77.354z"/>
<g>
</g>
<g>
</g>
<g>
</g>
<g>
</g>
<g>
</g>
<g>
</g>
<g>
</g>
<g>
</g>
<g>
</g>
<g>
</g>
<g>
</g>
<g>
</g>
<g>
</g>
<g>
</g>
<g>
</g>
</svg>
