<?xml version="1.0" encoding="iso-8859-1"?>
<!-- Generator: Adobe Illustrator 19.0.0, SVG Export Plug-In . SVG Version: 6.00 Build 0)  -->
<svg version="1.1" id="Layer_1" xmlns="http://www.w3.org/2000/svg" xmlns:xlink="http://www.w3.org/1999/xlink" x="0px" y="0px"
	 viewBox="0 0 512.001 512.001" style="enable-background:new 0 0 512.001 512.001;" xml:space="preserve">
<path style="fill:#E94F3D;" d="M237.752,281.584c0.001-23.97-19.432-43.402-43.401-43.401c-23.969,0-43.4,19.433-43.4,43.401
	v222.419c47.937,0,86.8-38.862,86.8-86.8V281.584z"/>
<path style="fill:#0075C9;" d="M209.815,265.284c0-16.257-13.177-29.434-29.431-29.433c-16.255,0-29.431,13.178-29.431,29.433
	v162.577c32.508,0,58.862-26.354,58.862-58.863L209.815,265.284z"/>
<path style="fill:#E94F3D;" d="M235.143,130.303c-46.499,0-84.192,37.693-84.192,84.192v76.842
	c0,46.499,37.693,84.193,84.192,84.193s84.193-37.694,84.193-84.193v-76.842C319.336,167.997,281.641,130.303,235.143,130.303z"/>
<path style="fill:#333E48;" d="M344.452,69.612c0,32.615-26.44,59.055-59.057,59.055c-32.615,0-59.055-26.44-59.055-59.055H344.452z
	"/>
<path style="fill:#FADF8D;" d="M267.23,13.095c-37.766,0-70.318,22.292-85.233,54.431h106.698c29.352,0,55.477,13.74,72.349,35.12
	C358.762,52.803,317.636,13.095,267.23,13.095z"/>
<path style="fill:#E94F3D;" d="M273.844,7.998H235.29c-42.584,0-77.104,34.522-77.104,77.105s34.522,77.104,77.104,77.104
	c42.585,0,77.105-34.522,77.105-77.104V46.552C312.394,25.26,295.134,7.998,273.844,7.998z"/>
<path style="fill:#FFFFFF;" d="M274.266,44.455c-6.439-6.438-15.332-10.42-25.156-10.419c-19.648,0-35.576,15.927-35.576,35.576
	c0,9.824,3.982,18.718,10.42,25.155l54.34,54.34c20.568-13.846,34.1-37.343,34.1-64.003v-2.518L274.266,44.455z"/>
<rect x="211.888" y="371.088" style="fill:#65513C;" width="94.401" height="22.339"/>
<path style="fill:#0075C9;" d="M249.43,209.4c0.002-21.251-17.224-38.476-38.473-38.476c-21.247,0-38.474,17.227-38.473,38.476
	l-0.001,170.276c42.495,0,76.947-34.451,76.947-76.947L249.43,209.4L249.43,209.4z"/>
<path style="fill:#00B070;" d="M249.43,209.4c0.002-21.251-17.224-38.476-38.473-38.476c-21.247,0-38.474,17.227-38.473,38.476
	l-0.001,132.273c42.495,0,76.947-34.45,76.947-76.945L249.43,209.4L249.43,209.4z"/>
<path style="fill:#FFB648;" d="M249.43,209.4c0.002-21.251-17.224-38.476-38.473-38.476c-21.247,0-38.474,17.227-38.473,38.476
	l-0.001,107.867c42.495,0,76.947-34.451,76.947-76.945L249.43,209.4L249.43,209.4z"/>
<path style="fill:#A3382A;" d="M249.43,209.4c0.002-21.251-17.224-38.476-38.473-38.476c-21.247,0-38.474,17.227-38.473,38.476
	l-0.001,91.166c42.495,0,76.947-34.45,76.947-76.945L249.43,209.4L249.43,209.4z"/>
<path style="fill:#1E252B;" d="M305.65,12.607C297.321,4.797,286.134,0,273.844,0H235.29c-46.926,0-85.103,38.177-85.103,85.104
	c0,23.262,9.39,44.368,24.57,59.745c-20.066,17.418-31.802,42.791-31.802,69.647v76.842c0,0.007,0,0.015,0,0.022v212.643
	c0,2.121,0.842,4.156,2.343,5.655c1.499,1.5,3.534,2.343,5.655,2.343c52.272,0,94.799-42.526,94.799-94.799v-10.834h66.928
	c4.417,0,7.998-3.581,7.998-7.998v-25.171c0-4.417-3.581-7.998-7.998-7.998h-12.086c-0.982-2.021-2.783-3.564-4.978-4.195
	c19.664-17.058,31.719-42.151,31.719-69.668v-76.842c0-26.771-11.677-52.091-31.643-69.507c3.445-3.473,6.581-7.25,9.391-11.271
	c18.16-5.567,33.002-18.579,40.988-35.534c3.124,2.91,6.04,6.052,8.697,9.417c1.548,1.962,3.882,3.045,6.281,3.045
	c0.934,0,1.88-0.164,2.793-0.504c3.255-1.214,5.355-4.389,5.196-7.861C367.216,62.582,342.394,27.568,305.65,12.607z
	 M158.95,214.495c0-23.061,10.472-44.801,28.261-59.219c4.809,3.305,9.968,6.131,15.417,8.404
	c-9.242,1.664-17.751,6.079-24.53,12.859c-8.778,8.778-13.612,20.449-13.611,32.861l-0.001,110.429
	c-3.615-8.967-5.533-18.611-5.535-28.47v-9.776l0,0v-67.088H158.95z M210.957,178.922c8.14,0,15.794,3.169,21.549,8.926
	c5.756,5.756,8.926,13.409,8.925,21.552v93.329c0,35.313-26.686,64.51-60.95,68.488l0.001-161.817c0-8.14,3.169-15.794,8.926-21.551
	C195.164,182.093,202.817,178.922,210.957,178.922z M229.754,417.201c0,40.752-31.095,74.379-70.804,78.4V343.235
	c1.713,2.513,3.565,4.943,5.535,7.291v29.148c0,2.121,0.842,4.156,2.343,5.655c1.499,1.5,3.534,2.343,5.655,2.343
	c11.091,0,21.682-2.158,31.403-6.042v16.738c0,4.417,3.581,7.998,7.998,7.998h17.869V417.201z M301.253,381.197h3.428v9.173h-84.798
	v-17.172h-0.021c0.38-0.256,0.747-0.53,1.122-0.792v7.269c0,4.417,3.581,7.998,7.998,7.998c2.274,0,4.32-0.953,5.777-2.475
	c1.457,1.523,3.503,2.475,5.777,2.475s4.32-0.953,5.776-2.475c1.457,1.523,3.503,2.475,5.777,2.475c4.273,0,7.753-3.354,7.977-7.571
	c0.751-0.21,1.494-0.431,2.236-0.659v0.23c0,4.417,3.581,7.998,7.998,7.998c2.274,0,4.32-0.953,5.777-2.475
	c1.457,1.523,3.503,2.475,5.777,2.475s4.32-0.953,5.777-2.475c1.457,1.523,3.503,2.475,5.776,2.475
	C297.3,387.674,300.542,384.886,301.253,381.197z M311.337,214.495v76.842c0,33.417-21.488,62.517-52.866,72.546
	c-1.46-1.937-3.772-3.195-6.384-3.195c-2.274,0-4.32,0.952-5.777,2.475c-1.457-1.523-3.503-2.475-5.776-2.475
	c-2.274,0-4.32,0.952-5.777,2.475c-0.438-0.459-0.93-0.864-1.466-1.208c14.919-15.314,24.136-36.21,24.136-59.228v-93.329
	c0.001-12.414-4.833-24.085-13.61-32.863c-2.427-2.427-5.083-4.541-7.907-6.346c17.524-0.127,33.803-5.572,47.301-14.805
	C300.916,169.807,311.338,191.505,311.337,214.495z M279.046,138.548l-49.437-49.437c-5.208-5.208-8.077-12.133-8.077-19.5
	c0-7.367,2.869-14.292,8.077-19.501c5.208-5.208,12.134-8.077,19.501-8.077c7.365,0,14.29,2.868,19.5,8.076l35.766,35.769
	C304.141,107.079,294.323,126.017,279.046,138.548z M304.396,63.276L279.92,38.798c-8.231-8.23-19.173-12.762-30.811-12.761
	c-0.001,0-0.001,0-0.001,0c-11.639,0-22.582,4.532-30.811,12.762c-8.23,8.23-12.762,19.172-12.762,30.811
	s4.533,22.582,12.763,30.811l46.95,46.95c-9.068,4.381-19.232,6.838-29.959,6.838c-38.106,0-69.106-31.001-69.106-69.106
	c0-38.106,31.001-69.107,69.106-69.107h38.554c16.848,0,30.553,13.707,30.553,30.556v16.724H304.396z M316.679,109.967
	c2.408-7.869,3.713-16.215,3.713-24.862v-3.377c4.357,1.784,8.56,3.943,12.565,6.432
	C329.573,96.843,323.912,104.357,316.679,109.967z M320.392,64.687V46.552c0-2.558-0.216-5.067-0.615-7.515
	c13.377,10.353,23.445,24.442,28.86,40.466C340.077,73.097,330.514,68.08,320.392,64.687z M249.11,62.851
	c-3.734,0-6.761,3.027-6.761,6.761c0,3.733,3.027,6.758,6.761,6.758c3.734,0,6.758-3.027,6.758-6.758
	C255.868,65.878,252.843,62.851,249.11,62.851z"/>
<g>
</g>
<g>
</g>
<g>
</g>
<g>
</g>
<g>
</g>
<g>
</g>
<g>
</g>
<g>
</g>
<g>
</g>
<g>
</g>
<g>
</g>
<g>
</g>
<g>
</g>
<g>
</g>
<g>
</g>
</svg>
