<?xml version="1.0" encoding="iso-8859-1"?>
<!-- Generator: Adobe Illustrator 19.0.0, SVG Export Plug-In . SVG Version: 6.00 Build 0)  -->
<svg version="1.1" id="Layer_1" xmlns="http://www.w3.org/2000/svg" xmlns:xlink="http://www.w3.org/1999/xlink" x="0px" y="0px"
	 viewBox="0 0 512.001 512.001" style="enable-background:new 0 0 512.001 512.001;" xml:space="preserve">
<polygon style="fill:#4D3D2D;" points="324.112,480.923 295.124,480.923 295.124,284.811 356.206,284.811 "/>
<polygon style="fill:#333E48;" points="295.124,464.334 295.124,480.923 324.112,480.923 326.828,464.334 "/>
<path style="fill:#4D3D2D;" d="M86.396,295.184v19.975c0,14.474-11.735,26.207-26.21,26.207v139.557h24.047l16.283-94.503
	c25.419-7.11,44.067-30.424,44.067-58.11v-33.127H86.396V295.184z"/>
<polygon style="fill:#333E48;" points="60.186,464.334 60.186,480.923 84.232,480.923 87.092,464.334 "/>
<path style="fill:#FADF8D;" d="M363.248,134.66L363.248,134.66c0.119-0.082,0.248-0.152,0.371-0.229l40.187-24.773V47.743
	c0-9.204,7.459-16.665,16.665-16.665c9.205,0,16.662,7.461,16.662,16.665c0-9.204,7.462-16.665,16.667-16.665
	c9.204,0,16.666,7.461,16.666,16.665c0-9.204,7.457-16.665,16.662-16.665c9.204,0,16.665,7.461,16.665,16.665v64.916
	c0,23.711-19.221,42.933-42.932,42.933h-91.51l-0.007-0.016c-6.169-0.176-11.124-5.222-11.124-11.436
	C358.224,140.196,360.217,136.72,363.248,134.66z"/>
<path style="fill:#65513C;" d="M473.636,159.965L473.636,159.965l-48.286-29.518c-2.941-2.27-6.131-4.228-9.527-5.823l-0.02-0.011
	l-0.002,0.003c-6.589-3.092-13.943-4.829-21.703-4.829h-30.532c-25.703,0-48.521,12.337-62.868,31.406
	c-5.462-1.202-11.132-1.853-16.954-1.853c-31.438,0-58.554,18.455-71.137,45.12h-99.564c-16.487,0-31.782,5.084-44.421,13.757
	c-5.944-2.756-16.76-0.742-27.1,5.602c-12.913,7.927-20.168,19.586-16.206,26.044c2.323,3.784,7.992,4.922,14.877,3.636
	c-3.713,9.135-5.775,19.118-5.775,29.587v42.073c0,14.474-11.735,26.207-26.21,26.207v139.557h24.046l16.285-94.503
	c17.796-4.979,32.263-17.904,39.346-34.709h158.079v129.211h28.987l21.424-130.912c26.794-5.514,48.846-23.982,59.359-48.564
	l4.677,10.444l15.226-33.98l9.523,21.254l18.275-40.784l13.299,29.686l23.977-53.508l1.512,0.36l0.003-0.002
	c3.736,1.125,7.694,1.737,11.797,1.737c22.559,0,40.851-18.29,40.851-40.851C494.874,180.351,486.29,166.905,473.636,159.965z"/>
<g>
	<polygon style="fill:#333E48;" points="245.962,464.334 245.962,480.923 274.949,480.923 277.665,464.334 	"/>
	<polygon style="fill:#333E48;" points="8.206,464.334 8.206,480.923 32.252,480.923 35.112,464.334 	"/>
</g>
<path style="fill:#FADF8D;" d="M362.883,134.66L362.883,134.66c-0.119-0.082-0.245-0.152-0.371-0.229l-40.184-24.773V47.743
	c0-9.204-7.461-16.665-16.666-16.665c-9.204,0-16.666,7.461-16.666,16.665c0-9.204-7.458-16.665-16.664-16.665
	c-9.204,0-16.665,7.461-16.665,16.665c0-9.204-7.462-16.665-16.666-16.665c-9.205,0-16.663,7.461-16.663,16.665v64.916
	c0,23.711,19.22,42.933,42.933,42.933h91.51l0.003-0.016c6.17-0.176,11.127-5.222,11.127-11.436
	C367.911,140.196,365.918,136.72,362.883,134.66z"/>
<path style="fill:#1E252B;" d="M512.001,112.659V47.743c0-13.713-11.156-24.869-24.869-24.869c-6.403,0-12.25,2.434-16.662,6.425
	c-4.414-3.991-10.262-6.425-16.666-6.425c-6.404,0-12.253,2.434-16.666,6.425c-4.413-3.991-10.26-6.425-16.664-6.425
	c-13.713,0-24.869,11.156-24.869,24.869v57.335l-10.549,6.503h-21.487c-6.439,0-12.833,0.715-19.063,2.11l-13.972-8.614V47.742
	c0-13.713-11.156-24.869-24.871-24.869c-6.405,0-12.251,2.434-16.666,6.425c-4.412-3.991-10.259-6.425-16.664-6.425
	s-12.251,2.434-16.665,6.425c-4.413-3.992-10.262-6.425-16.666-6.425c-13.713,0-24.868,11.156-24.868,24.869v64.916
	c0,17.597,8.935,33.144,22.504,42.349c-12.083,7.788-22.061,18.46-29.057,31.247h-94.541c-16.272,0-31.992,4.486-45.719,13.011
	c-8.453-1.633-19.497,1.059-30.095,7.56c-17.597,10.802-25.549,26.499-18.906,37.329c2.295,3.738,5.952,6.233,10.6,7.362
	c-1.802,7.018-2.712,14.236-2.712,21.569v42.073c0,9.927-8.077,18.003-18.005,18.003c-4.532,0-8.205,3.674-8.205,8.205v139.557
	c0,4.531,3.672,8.205,8.205,8.205h24.046c3.993,0,7.407-2.876,8.086-6.812l11.643-67.57v66.176c0,4.531,3.674,8.205,8.205,8.205
	h24.047c3.993,0,7.407-2.876,8.086-6.812l15.442-89.621c15.967-5.865,29.4-17.695,37.288-32.779h92.709v121.006
	c0,4.531,3.674,8.205,8.205,8.205h28.987c4.02,0,7.448-2.912,8.097-6.88l3.873-23.663v22.338c0,4.531,3.672,8.205,8.205,8.205
	h28.988c4.02,0,7.448-2.912,8.097-6.88l26.566-162.337c0.533,0.109,1.075,0.185,1.633,0.185c0.001,0,0.001,0,0.001,0
	c3.233,0,6.166-1.899,7.488-4.85l7.738-17.271l2.035,4.543c1.323,2.95,4.255,4.85,7.488,4.85s6.166-1.899,7.488-4.85l10.786-24.072
	l5.812,12.975c1.323,2.95,4.254,4.851,7.488,4.851c3.233,0,6.166-1.899,7.488-4.85l21.205-47.321
	c2.833,0.504,5.708,0.758,8.596,0.758c27.05,0,49.056-22.007,49.056-49.056c0-14.904-6.778-28.803-18.106-38.028
	C501.172,149.109,512.001,132.024,512.001,112.659z M230.542,112.659V47.743c0-4.665,3.795-8.46,8.459-8.46
	c4.666,0,8.461,3.796,8.461,8.46c0,4.531,3.672,8.205,8.205,8.205c4.532,0,8.205-3.674,8.205-8.205c0-4.665,3.795-8.46,8.46-8.46
	c4.664,0,8.459,3.796,8.459,8.46c0,4.531,3.672,8.205,8.205,8.205c4.531,0,8.205-3.674,8.205-8.205c0-4.665,3.796-8.46,8.461-8.46
	c4.666,0,8.461,3.796,8.461,8.46v61.916c0,2.848,1.476,5.491,3.9,6.984l40.239,24.806l0.1,0.06c0.464,0.339,1.346,1.173,1.346,2.629
	c0,1.765-1.386,3.186-3.156,3.236c-0.096,0.002-0.193,0.008-0.288,0.013h-90.992C246.121,147.388,230.542,131.808,230.542,112.659z
	 M98.304,378.519c-3.05,0.853-5.338,3.387-5.875,6.508l-15.11,87.691H68.39v-86.225c10.365-6.477,18.986-15.665,24.688-26.576
	h32.573C118.82,368.81,109.203,375.47,98.304,378.519z M317.141,472.719h-13.813v-114.4l0.261-1.599
	c13.301-3.625,25.451-10.209,35.657-19.078L317.141,472.719z M486.669,195.804c0,18.001-14.645,32.647-32.647,32.647
	c-3.198,0-6.37-0.467-9.432-1.389c-0.229-0.069-0.461-0.128-0.694-0.176l-1.287-0.306c-3.828-0.91-7.776,1.029-9.389,4.626
	l-16.487,36.797l-5.813-12.975c-1.323-2.95-4.255-4.851-7.488-4.851s-6.166,1.899-7.488,4.85L385.157,279.1l-2.035-4.543
	c-1.323-2.95-4.254-4.85-7.488-4.85s-6.166,1.899-7.488,4.85l-8.758,19.547c-1.133-0.566-2.387-0.901-3.726-0.859
	c-3.259,0.027-6.193,1.981-7.474,4.978c-9.617,22.487-29.605,38.843-53.469,43.754c-3.331,0.686-5.894,3.355-6.444,6.712
	l-20.299,124.033h-13.811V351.712c0-4.531-3.672-8.205-8.205-8.205H87.883c-3.301,0-6.278,1.977-7.561,5.018
	c-6.13,14.54-18.838,25.752-33.995,29.994c-3.05,0.853-5.338,3.387-5.875,6.508L25.34,472.719h-8.929V348.584
	c15.028-3.689,26.21-17.275,26.21-33.424v-42.073c0-9.139,1.741-18.054,5.172-26.497c1.129-2.779,0.652-5.953-1.246-8.277
	c-1.896-2.325-4.91-3.43-7.861-2.877c-3.407,0.636-5.417,0.321-6.246,0.033c0.242-2.309,3.992-8.897,13.372-14.655
	c8.947-5.488,16.841-6.319,19.357-5.153c2.631,1.219,5.707,0.961,8.093-0.678c11.743-8.058,25.5-12.317,39.779-12.317h99.565
	c3.175,0,6.065-1.831,7.419-4.703c7.377-15.63,20.596-28.243,36.473-34.933c2.852,0.496,5.779,0.768,8.772,0.768h91.51
	c0.304,0,0.606-0.018,0.903-0.049c10.388-0.636,18.432-9.125,18.432-19.608c0-6.444-3.153-12.454-8.459-16.147H394.1
	c6.358,0,12.488,1.363,18.218,4.052c0.049,0.023,0.097,0.045,0.147,0.067c2.775,1.315,5.424,2.941,7.872,4.83
	c0.236,0.182,0.481,0.351,0.735,0.507l48.286,29.518c0.111,0.067,0.221,0.131,0.334,0.194
	C480.163,172.904,486.669,183.879,486.669,195.804z M495.591,112.659c0,16.677-11.82,30.86-27.903,34.051l-37.69-23.04
	c-3.291-2.5-6.839-4.655-10.554-6.412c-0.131-0.066-0.263-0.126-0.395-0.184c-2.699-1.253-5.466-2.277-8.28-3.101
	c0.792-1.278,1.244-2.761,1.244-4.315V47.743c0-4.665,3.795-8.46,8.46-8.46c4.664,0,8.458,3.796,8.458,8.46
	c0,4.531,3.674,8.205,8.205,8.205c4.532,0,8.205-3.674,8.205-8.205c0-4.665,3.796-8.46,8.462-8.46c4.666,0,8.461,3.796,8.461,8.46
	c0,4.531,3.672,8.205,8.205,8.205c4.531,0,8.205-3.674,8.205-8.205c0-4.665,3.795-8.46,8.458-8.46c4.666,0,8.46,3.796,8.46,8.46
	v64.916H495.591z M407.647,146.589c-4.081,0-7.387,3.307-7.387,7.387c0,4.078,3.306,7.385,7.387,7.385
	c4.077,0,7.385-3.307,7.385-7.385C415.033,149.896,411.724,146.589,407.647,146.589z"/>
<g>
</g>
<g>
</g>
<g>
</g>
<g>
</g>
<g>
</g>
<g>
</g>
<g>
</g>
<g>
</g>
<g>
</g>
<g>
</g>
<g>
</g>
<g>
</g>
<g>
</g>
<g>
</g>
<g>
</g>
</svg>
