<?xml version="1.0" encoding="iso-8859-1"?>
<!-- Generator: Adobe Illustrator 19.0.0, SVG Export Plug-In . SVG Version: 6.00 Build 0)  -->
<svg version="1.1" id="Layer_1" xmlns="http://www.w3.org/2000/svg" xmlns:xlink="http://www.w3.org/1999/xlink" x="0px" y="0px"
	 viewBox="0 0 512 512" style="enable-background:new 0 0 512 512;" xml:space="preserve">
<path style="fill:#FF9C9F;" d="M138.298,340.43H86.841c-43.443,0-78.788-35.345-78.788-78.789c0-43.443,35.345-78.789,78.788-78.789
	c5.33,0,9.648,4.32,9.648,9.648s-4.318,9.647-9.648,9.647c-32.804,0-59.492,26.689-59.492,59.493s26.688,59.492,59.492,59.492
	h51.457c5.327,0,9.647,4.318,9.647,9.648C147.945,336.109,143.625,340.43,138.298,340.43z"/>
<path style="fill:#7D868C;" d="M439.363,185.365c21.846,0,39.554,17.709,39.554,39.556c0,21.846-17.708,39.555-39.554,39.555
	h-24.124c-8.521,0-15.431-6.909-15.431-15.431v-24.124C399.808,203.074,417.518,185.365,439.363,185.365z"/>
<path style="fill:#FF9C9F;" d="M441.413,260.372c14.619,0,26.512-11.895,26.512-26.514c0-14.619-11.893-26.514-26.512-26.514
	c-14.618,0-26.514,11.895-26.514,26.514v24.124c0,1.32,1.073,2.391,2.391,2.391h24.123V260.372z"/>
<path style="fill:#5C6670;" d="M383.398,224.447c-1.635,0-3.259,0.043-4.877,0.11c-30.786-32.621-74.423-52.988-122.819-52.988
	c-93.258,0-168.861,75.602-168.861,168.861h412.538C499.379,276.374,447.452,224.447,383.398,224.447z"/>
<path style="fill:#7D868C;" d="M347.671,185.365c-21.844,0-39.554,17.709-39.554,39.556c0,21.846,17.709,39.555,39.554,39.555
	h24.125c8.52,0,15.431-6.909,15.431-15.431v-24.124C387.227,203.074,369.516,185.365,347.671,185.365z"/>
<path style="fill:#FF9C9F;" d="M360.711,264.477c-14.619,0-26.515-11.896-26.515-26.515c0-14.618,11.896-26.513,26.515-26.513
	s26.512,11.895,26.512,26.513v24.124c0,1.32-1.071,2.392-2.389,2.392h-24.123V264.477z"/>
<g>
	<path style="fill:#7D868C;" d="M207.136,340.43c0-22.025-17.849-39.876-39.874-39.876c-22.024,0-39.878,17.851-39.878,39.876
		H207.136z"/>
	<path style="fill:#7D868C;" d="M374.36,340.43c0-22.025-17.85-39.876-39.874-39.876c-22.023,0-39.877,17.851-39.877,39.876H374.36z
		"/>
</g>
<path style="fill:#1E252B;" d="M408.664,262.117c-3.315,0-6.001,2.687-6.001,6.002c0,3.315,2.687,6.001,6.001,6.001
	c3.317,0,6.002-2.687,6.002-6.001C414.666,264.803,411.981,262.117,408.664,262.117z M512,327.809c0-4.89-2.785-9.122-6.852-11.217
	c-4.325-22.279-14.703-42.945-30.293-59.941c7.773-8.649,12.113-19.813,12.113-31.729c0-26.251-21.357-47.609-47.607-47.609
	c-21.815,0-40.239,14.756-45.845,34.807c-5.607-20.051-24.031-34.807-45.846-34.807c-5.856,0-11.467,1.069-16.653,3.013
	c-23.623-11.147-48.94-16.807-75.316-16.807c-88.129,0-161.407,64.777-174.739,149.218c-25.605-2.928-45.56-24.719-45.56-51.093
	c0-28.364,23.075-51.44,51.439-51.44c9.76,0,17.701-7.94,17.701-17.7c0-9.759-7.941-17.701-17.701-17.701
	C38.957,174.799,0,213.756,0,261.641s38.957,86.842,86.841,86.842h412.538c4.449,0,8.053-3.606,8.053-8.053
	c0-0.961-0.013-1.919-0.034-2.876C510.208,335.239,512,331.732,512,327.809z M78.996,331.931c-35.323-3.917-62.89-33.94-62.89-70.29
	c0-39.003,31.732-70.736,70.735-70.736c0.879,0,1.595,0.715,1.595,1.595c0,0.878-0.715,1.593-1.595,1.593
	c-37.245,0-67.546,30.301-67.546,67.547c0,34.654,26.238,63.284,59.888,67.099C79.114,329.802,79.047,330.865,78.996,331.931z
	 M439.363,193.418c12.676,0,23.618,7.53,28.612,18.348c-6.346-7.618-15.897-12.476-26.561-12.476
	c-13.603,0-25.748,8.054-31.329,19.984c-0.548-0.119-1.094-0.243-1.642-0.354C411.252,204.41,424.045,193.418,439.363,193.418z
	 M459.871,233.858c0,2.682-0.581,5.262-1.658,7.626c-9.88-7.497-20.754-13.421-32.298-17.624c3.332-5.133,9.109-8.463,15.497-8.463
	C451.591,215.397,459.871,223.677,459.871,233.858z M379.171,237.96h0.002v11.083c0,4.068-3.309,7.378-7.378,7.378h-11.105
	c-10.172-0.012-18.442-8.288-18.442-18.461c0-10.178,8.282-18.46,18.462-18.46C370.891,219.5,379.171,227.782,379.171,237.96z
	 M347.671,193.418c10.016,0,18.947,4.704,24.722,12.013c-3.651-1.315-7.584-2.036-11.681-2.036
	c-19.061,0-34.568,15.506-34.568,34.566c0,4.096,0.72,8.028,2.035,11.678c-7.307-5.774-12.009-14.704-12.009-24.719
	C316.17,207.55,330.301,193.418,347.671,193.418z M136.473,332.377c3.576-13.66,16.024-23.77,30.79-23.77
	c14.764,0,27.211,10.109,30.786,23.77H136.473z M303.697,332.377c3.576-13.66,16.024-23.77,30.789-23.77
	c14.765,0,27.21,10.109,30.786,23.77H303.697z M487.625,332.377H381.723c-3.843-22.606-23.556-39.876-47.237-39.876
	c-23.684,0-43.397,17.27-47.24,39.876h-72.747c-3.842-22.606-23.556-39.876-47.237-39.876c-23.685,0-43.398,17.27-47.241,39.876
	H95.094c4.21-84.942,74.64-152.754,160.608-152.754c20.453,0,40.2,3.735,58.883,11.116c-8.943,8.66-14.519,20.779-14.519,34.183
	c0,26.251,21.357,47.608,47.607,47.608h13c0.015,0,0.028,0.001,0.042,0.001v-0.001h11.083c12.949,0,23.484-10.536,23.484-23.484
	v-15.894c24.909,2.72,47.952,13.951,65.597,32.141c14.839,15.3,24.618,34.284,28.52,54.817c-1.647,2.132-2.637,4.799-2.637,7.701
	C486.759,329.422,487.073,330.959,487.625,332.377z"/>
<g>
</g>
<g>
</g>
<g>
</g>
<g>
</g>
<g>
</g>
<g>
</g>
<g>
</g>
<g>
</g>
<g>
</g>
<g>
</g>
<g>
</g>
<g>
</g>
<g>
</g>
<g>
</g>
<g>
</g>
</svg>
