<?xml version="1.0" encoding="iso-8859-1"?>
<!-- Generator: Adobe Illustrator 19.0.0, SVG Export Plug-In . SVG Version: 6.00 Build 0)  -->
<svg version="1.1" id="Layer_1" xmlns="http://www.w3.org/2000/svg" xmlns:xlink="http://www.w3.org/1999/xlink" x="0px" y="0px"
	 viewBox="0 0 512 512" style="enable-background:new 0 0 512 512;" xml:space="preserve">
<path style="fill:#A3382A;" d="M468.032,315.621c-13.641,0-24.7,11.06-24.7,24.7c0,17.443-14.191,31.633-31.633,31.633
	c-17.443,0-31.634-14.19-31.634-31.633V132.195C380.067,63.674,324.521,8.128,256.001,8.128S131.935,63.674,131.935,132.195v208.126
	c0,17.443-14.191,31.633-31.634,31.633c-17.442,0-31.633-14.19-31.633-31.633c0-13.64-11.059-24.7-24.7-24.7s-24.7,11.06-24.7,24.7
	c0,44.681,36.351,81.032,81.032,81.032s81.033-36.351,81.033-81.032V265.1h16.167v214.072c0,13.643,11.059,24.7,24.7,24.7
	s24.699-11.056,24.699-24.7V265.099h18.201v214.072c0,13.643,11.058,24.7,24.699,24.7s24.699-11.056,24.699-24.7V265.099h16.169
	v75.221c0,44.681,36.351,81.032,81.032,81.032s81.032-36.351,81.032-81.032C492.732,326.681,481.674,315.621,468.032,315.621z"/>
<g>
	<circle style="fill:#E97A6E;" cx="153.797" cy="200.072" r="30.697"/>
	<circle style="fill:#E97A6E;" cx="358.203" cy="200.072" r="30.697"/>
	<circle style="fill:#E97A6E;" cx="299.334" cy="68.808" r="14.3"/>
	<circle style="fill:#E97A6E;" cx="336.604" cy="68.808" r="9.099"/>
	<circle style="fill:#E97A6E;" cx="280.704" cy="37.184" r="9.1"/>
</g>
<path style="fill:#1E252B;" d="M468.032,307.492c-18.102,0-32.828,14.727-32.828,32.828c0,12.961-10.544,23.504-23.504,23.504
	c-12.961,0-23.506-10.544-23.506-23.504V224.699c5.514-6.706,8.83-15.285,8.83-24.624c0-9.34-3.316-17.919-8.83-24.625v-43.256
	C388.195,59.303,328.893,0,256.001,0S123.807,59.303,123.807,132.195v43.256c-5.514,6.706-8.83,15.285-8.83,24.625
	c0,9.339,3.316,17.918,8.83,24.624v115.622c0,12.961-10.544,23.504-23.506,23.504c-12.961,0-23.504-10.544-23.504-23.504
	c0-18.101-14.726-32.828-32.828-32.828s-32.828,14.727-32.828,32.828c0,49.163,39.997,89.16,89.16,89.16
	c23.706,0,45.74-9.322,62.043-26.251c16.089-16.707,24.95-39.049,24.95-62.911v-67.093h2.079v205.944
	c0,18.101,14.726,32.828,32.828,32.828c18.101,0,32.827-14.727,32.827-32.828V273.227h1.944v205.944
	c0,18.101,14.726,32.828,32.827,32.828s32.827-14.727,32.827-32.828V273.227h2.08v67.093c0,23.862,8.861,46.204,24.95,62.911
	c16.303,16.927,38.337,26.251,62.043,26.251c49.163,0,89.16-39.997,89.16-89.16C500.86,322.22,486.134,307.492,468.032,307.492z
	 M380.769,200.075c0,12.445-10.124,22.569-22.569,22.569c-12.445,0-22.569-10.124-22.569-22.569s10.124-22.57,22.569-22.57
	C370.645,177.505,380.769,187.63,380.769,200.075z M153.802,177.505c12.445,0,22.569,10.126,22.569,22.57
	s-10.124,22.569-22.569,22.569s-22.569-10.124-22.569-22.569S141.357,177.505,153.802,177.505z M411.7,413.226
	c-39.665,0-70.737-32.024-70.737-72.904V265.1c0-4.49-3.639-8.128-8.128-8.128h-18.336c-4.489,0-8.128,3.638-8.128,8.128v214.072
	c0,9.138-7.434,16.572-16.571,16.572s-16.571-7.433-16.571-16.572V265.099c0-4.49-3.639-8.128-8.128-8.128h-18.201
	c-4.489,0-8.128,3.638-8.128,8.128v214.072c0,9.138-7.433,16.572-16.571,16.572c-9.138,0-16.572-7.433-16.572-16.572V265.099
	c0-4.49-3.639-8.128-8.128-8.128h-18.335c-4.489,0-8.128,3.638-8.128,8.128v75.221c0,40.881-31.071,72.904-70.738,72.904
	c-40.2,0-72.904-32.706-72.904-72.904c0-9.138,7.433-16.572,16.572-16.572s16.572,7.434,16.572,16.572
	c0,21.923,17.836,39.761,39.761,39.761s39.762-17.836,39.762-39.761V236.382c4.274,1.622,8.902,2.519,13.739,2.519
	c21.408,0,38.825-17.417,38.825-38.825c0-21.41-17.417-38.827-38.825-38.827c-4.836,0-9.464,0.896-13.739,2.519v-31.573
	c0-63.928,52.009-115.938,115.938-115.938s115.938,52.009,115.938,115.939v31.573c-4.274-1.622-8.902-2.519-13.739-2.519
	c-21.408,0-38.826,17.417-38.826,38.827c0,21.408,17.417,38.825,38.826,38.825c4.836,0,9.464-0.896,13.739-2.519v103.938
	c0,21.923,17.836,39.761,39.761,39.761c21.924,0,39.761-17.836,39.761-39.761c0-9.138,7.433-16.572,16.572-16.572
	s16.572,7.433,16.572,16.572C484.604,380.52,451.899,413.226,411.7,413.226z M348.109,200.075c0,5.572,4.518,10.092,10.092,10.092
	c5.573,0,10.091-4.52,10.091-10.092c0-5.574-4.518-10.093-10.091-10.093C352.627,189.982,348.109,194.502,348.109,200.075z
	 M153.802,210.167c5.574,0,10.092-4.52,10.092-10.092c0-5.574-4.518-10.093-10.092-10.093c-5.573,0-10.091,4.52-10.091,10.093
	C143.711,205.647,148.228,210.167,153.802,210.167z"/>
<circle style="fill:#E97A6E;" cx="52.476" cy="370.492" r="12.458"/>
<circle style="fill:#E94F3D;" cx="52.476" cy="370.492" r="5.932"/>
<circle style="fill:#E97A6E;" cx="81.077" cy="392.861" r="12.459"/>
<circle style="fill:#E94F3D;" cx="81.077" cy="392.861" r="5.932"/>
<circle style="fill:#E97A6E;" cx="119.474" cy="393.804" r="12.458"/>
<path style="fill:#E94F3D;" d="M125.409,393.809c0-3.278-2.656-5.936-5.932-5.936s-5.932,2.656-5.932,5.936
	c0,3.274,2.656,5.934,5.932,5.934C122.754,399.742,125.409,397.083,125.409,393.809z"/>
<circle style="fill:#E97A6E;" cx="147.305" cy="369.994" r="12.459"/>
<path style="fill:#E94F3D;" d="M153.235,369.999c0-3.279-2.656-5.936-5.932-5.936s-5.932,2.655-5.932,5.936
	c0,3.274,2.656,5.932,5.932,5.932S153.235,373.274,153.235,369.999z"/>
<circle style="fill:#E97A6E;" cx="155.487" cy="325.202" r="12.458"/>
<circle style="fill:#E94F3D;" cx="155.487" cy="325.202" r="5.932"/>
<circle style="fill:#E97A6E;" cx="459.751" cy="370.492" r="12.458"/>
<circle style="fill:#E94F3D;" cx="459.751" cy="370.492" r="5.932"/>
<circle style="fill:#E97A6E;" cx="431.151" cy="392.861" r="12.459"/>
<circle style="fill:#E94F3D;" cx="431.151" cy="392.861" r="5.932"/>
<circle style="fill:#E97A6E;" cx="392.753" cy="393.804" r="12.458"/>
<path style="fill:#E94F3D;" d="M386.817,393.809c0-3.278,2.656-5.936,5.932-5.936c3.276,0,5.932,2.656,5.932,5.936
	c0,3.274-2.656,5.934-5.932,5.934C389.473,399.742,386.817,397.083,386.817,393.809z"/>
<circle style="fill:#E97A6E;" cx="364.923" cy="369.994" r="12.459"/>
<path style="fill:#E94F3D;" d="M358.991,369.999c0-3.279,2.656-5.936,5.932-5.936c3.276,0,5.932,2.655,5.932,5.936
	c0,3.274-2.656,5.932-5.932,5.932C361.648,375.931,358.991,373.274,358.991,369.999z"/>
<circle style="fill:#E97A6E;" cx="356.74" cy="325.202" r="12.458"/>
<circle style="fill:#E94F3D;" cx="356.74" cy="325.202" r="5.932"/>
<circle style="fill:#E97A6E;" cx="222.203" cy="325.776" r="12.458"/>
<circle style="fill:#E94F3D;" cx="222.203" cy="325.776" r="5.932"/>
<circle style="fill:#E97A6E;" cx="222.203" cy="374.307" r="12.458"/>
<path style="fill:#E94F3D;" d="M228.134,374.309c0-3.278-2.656-5.936-5.932-5.936c-3.277,0-5.932,2.656-5.932,5.936
	c0,3.274,2.655,5.934,5.932,5.934C225.478,380.242,228.134,377.583,228.134,374.309z"/>
<circle style="fill:#E97A6E;" cx="222.203" cy="422.837" r="12.458"/>
<circle style="fill:#E94F3D;" cx="222.203" cy="422.837" r="5.932"/>
<circle style="fill:#E97A6E;" cx="222.203" cy="471.379" r="12.458"/>
<circle style="fill:#E94F3D;" cx="222.203" cy="471.379" r="5.932"/>
<circle style="fill:#E97A6E;" cx="289.797" cy="325.776" r="12.458"/>
<circle style="fill:#E94F3D;" cx="289.797" cy="325.776" r="5.932"/>
<circle style="fill:#E97A6E;" cx="289.797" cy="374.307" r="12.458"/>
<path style="fill:#E94F3D;" d="M283.867,374.309c0-3.278,2.656-5.936,5.932-5.936c3.277,0,5.932,2.656,5.932,5.936
	c0,3.274-2.655,5.934-5.932,5.934C286.523,380.242,283.867,377.583,283.867,374.309z"/>
<circle style="fill:#E97A6E;" cx="289.797" cy="422.837" r="12.458"/>
<circle style="fill:#E94F3D;" cx="289.797" cy="422.837" r="5.932"/>
<circle style="fill:#E97A6E;" cx="289.797" cy="471.379" r="12.458"/>
<circle style="fill:#E94F3D;" cx="289.797" cy="471.379" r="5.932"/>
<g>
</g>
<g>
</g>
<g>
</g>
<g>
</g>
<g>
</g>
<g>
</g>
<g>
</g>
<g>
</g>
<g>
</g>
<g>
</g>
<g>
</g>
<g>
</g>
<g>
</g>
<g>
</g>
<g>
</g>
</svg>
