<?xml version="1.0" encoding="iso-8859-1"?>
<!-- Generator: Adobe Illustrator 19.0.0, SVG Export Plug-In . SVG Version: 6.00 Build 0)  -->
<svg version="1.1" id="Layer_1" xmlns="http://www.w3.org/2000/svg" xmlns:xlink="http://www.w3.org/1999/xlink" x="0px" y="0px"
	 viewBox="0 0 512.001 512.001" style="enable-background:new 0 0 512.001 512.001;" xml:space="preserve">
<path style="fill:#D48284;" d="M265.215,481.583h-12.433l-22.638-92.399l33.012-21.94c10.805-5.934,18.131-17.419,18.131-30.618
	c0-19.28-15.629-34.911-34.91-34.911c-16.479,0-30.281,11.421-33.947,26.776l-0.003-0.001l-15.051,48.194l0.013,0.005
	c-0.576,1.648-0.905,3.412-0.905,5.257l25.983,106.045c0,8.805,7.138,15.943,15.943,15.943h37.589c2.131,0,3.858-1.727,3.858-3.855
	v-3.857C279.856,488.138,273.302,481.583,265.215,481.583z"/>
<path style="fill:#FFB648;" d="M414.054,63.332l37.695-7.587c4.496,0,8.14-3.645,8.139-8.139c0.001-4.496-3.644-8.141-8.138-8.141
	l-37.696-7.587V63.332z"/>
<path style="fill:#5C6670;" d="M94.3,151.81c-10.906,0-19.746,8.841-19.746,19.746v14.586h39.491v-14.586
	C114.045,160.651,105.206,151.81,94.3,151.81z"/>
<path style="fill:#333E48;" d="M328.531,162.43v23.712H91.607v-14.586c0-10.905-8.841-19.746-19.746-19.746
	s-19.746,8.841-19.746,19.746v14.586c0,92.464,74.956,167.42,167.42,167.42s167.42-74.957,167.42-167.42V162.43L328.531,162.43
	L328.531,162.43z"/>
<path style="fill:#FF9C9F;" d="M220.337,481.583h-12.433l-22.639-92.399l33.012-21.94c10.806-5.934,18.131-17.419,18.131-30.618
	c0-19.28-15.629-34.911-34.91-34.911c-16.479,0-30.281,11.421-33.947,26.776l-0.002-0.001l-15.05,48.194l0.013,0.005
	c-0.577,1.648-0.906,3.412-0.906,5.257l25.983,106.045c0,8.805,7.138,15.943,15.944,15.943h37.589c2.13,0,3.857-1.727,3.857-3.855
	v-3.857C234.977,488.138,228.423,481.583,220.337,481.583z"/>
<path style="fill:#FFFFFF;" d="M278.449,207.85c-0.046,0-0.09,0.006-0.138,0.006H140.839c0,8.157,1.222,16.027,3.477,23.448h-14.449
	c0,47.505,38.511,86.017,86.017,86.017s86.017-38.512,86.017-86.017C301.901,218.351,291.404,207.85,278.449,207.85z"/>
<path style="fill:#FF9C9F;" d="M391.872,17.721h-9.205c-5.724-5.95-13.763-9.658-22.671-9.658
	c-17.378,0-31.465,14.087-31.465,31.465V162.43h58.425V77.489h4.916c16.504,0,29.883-13.379,29.883-29.883
	C421.755,31.1,408.376,17.721,391.872,17.721z"/>
<path style="fill:#1E252B;" d="M463.208,36.148c-2.84-2.839-6.548-4.496-10.523-4.721l-30.089-6.055
	c-6.902-9.512-18.099-15.714-30.723-15.714h-5.992C378.698,3.406,369.634,0,359.996,0c-21.796,0-39.528,17.732-39.528,39.528v138.55
	H122.109v-6.523c0-15.334-12.475-27.809-27.808-27.809c-3.902,0-7.703,0.824-11.215,2.375c-3.435-1.522-7.231-2.375-11.224-2.375
	c-15.334,0-27.809,12.476-27.809,27.809v14.586c0,71.201,43.412,135.485,108.8,162.361l-8.051,25.78
	c-0.029,0.096-0.057,0.19-0.084,0.286c-0.781,2.407-1.176,4.888-1.176,7.381c0,0.647,0.077,1.291,0.231,1.919l25.774,105.195
	c0.561,12.742,11.105,22.937,23.984,22.937h37.589c2.037,0,3.958-0.516,5.637-1.421c2.587,0.927,5.331,1.421,8.103,1.421h37.589
	c6.573,0,11.921-5.347,11.921-11.919v-3.857c0-12.518-10.185-22.704-22.704-22.704h-6.107l-19.785-80.754l28.027-18.627
	c11.062-6.198,18.901-17.144,21.241-29.537c19.714-9.403,37.678-22.512,52.919-38.871c30.346-32.574,47.056-75.045,47.056-119.588
	V85.426c11.327-0.934,21.253-6.872,27.575-15.585l30.088-6.056c3.977-0.225,7.684-1.88,10.523-4.72
	c3.061-3.061,4.746-7.13,4.745-11.454C467.952,43.278,466.266,39.209,463.208,36.148z M105.982,171.555v6.523H99.67v-6.523
	c0-4.017-0.863-7.835-2.402-11.286C102.274,161.588,105.982,166.14,105.982,171.555z M193.532,495.873
	c-4.346,0-7.881-3.535-7.881-7.88c0-0.647-0.077-1.291-0.231-1.919l-25.708-104.923c0.064-0.6,0.202-1.201,0.411-1.797
	c0.083-0.238,0.154-0.476,0.214-0.716l14.843-47.533c0.083-0.242,0.155-0.489,0.215-0.741c1.018-4.266,3.109-8.234,6.014-11.522
	c10.68,4.221,22.312,6.541,34.475,6.541c3.293,0,6.546-0.172,9.753-0.503c1.773,3.633,2.709,7.619,2.709,11.746
	c0,9.801-5.344,18.825-13.949,23.549c-0.199,0.11-0.393,0.227-0.583,0.353l-33.012,21.94c-2.83,1.88-4.177,5.334-3.368,8.634
	l22.639,92.399c0.884,3.607,4.118,6.144,7.832,6.144h12.433c3.509,0,6.384,2.762,6.567,6.226h-33.374V495.873z M152.031,228.96
	c-1.294-4.259-2.191-8.621-2.682-13.039h128.963c0.106,0,0.21-0.002,0.314-0.005c8.404,0.095,15.212,6.963,15.212,15.389
	c0,42.984-34.97,77.954-77.954,77.954c-40.261,0-73.491-30.682-77.54-69.89h5.971c2.555,0,4.956-1.211,6.478-3.262
	C152.314,234.054,152.774,231.403,152.031,228.96z M196.885,391.144l20.183,82.376h-2.838l-19.786-80.754L196.885,391.144z
	 M265.726,360.177c-0.198,0.11-0.392,0.226-0.582,0.353l-33.012,21.94c-2.83,1.88-4.177,5.334-3.368,8.634l22.638,92.399
	c0.884,3.607,4.118,6.144,7.832,6.144h12.433c3.509,0,6.384,2.762,6.567,6.226h-33.373c-0.674,0-1.286-0.088-1.848-0.224
	c-0.169-6.699-3.24-12.683-8.017-16.734l-23.83-97.261l11.308-7.515c5.938-3.325,10.889-7.938,14.582-13.378
	c12.695-1.259,25.102-3.891,37.046-7.79C271.854,355.893,269.016,358.37,265.726,360.177z M378.893,186.142
	c0,40.45-15.176,79.016-42.73,108.595c-24.607,26.413-57.016,43.502-92.288,48.906c0.381-2.299,0.6-4.64,0.6-7.015
	c0-5.147-0.9-10.164-2.643-14.883c39.298-11.29,68.134-47.56,68.134-90.44c0-17.378-14.138-31.518-31.516-31.518
	c-0.114,0-0.227,0.002-0.339,0.006H140.839c-4.453,0-8.064,3.61-8.064,8.064c0,5.172,0.448,10.317,1.34,15.384h-4.247
	c-4.453,0-8.063,3.61-8.063,8.063c0,33.856,17.978,63.589,44.888,80.162c-3.213,4.446-5.581,9.484-6.901,14.825l-2.108,6.753
	c-58.653-24.719-97.501-82.716-97.501-146.902v-14.586c0-6.441,5.241-11.682,11.682-11.682s11.682,5.24,11.682,11.682v14.586
	c0,4.453,3.61,8.064,8.063,8.064h236.924c4.454,0,8.064-3.61,8.064-8.064v-15.649h42.298v15.649H378.893z M391.872,69.426h-4.915
	c-4.453,0-8.064,3.61-8.064,8.063v76.877h-42.298V39.528c0-12.904,10.498-23.401,23.401-23.401c6.415,0,12.403,2.552,16.86,7.185
	c1.52,1.58,3.619,2.473,5.811,2.473h9.205c12.031,0,21.82,9.788,21.82,21.82C413.691,59.637,403.902,69.426,391.872,69.426z
	 M451.748,47.681c-0.534,0-1.068,0.053-1.59,0.158l-20.601,4.147c0.166-1.439,0.261-2.899,0.261-4.381
	c0-1.483-0.095-2.943-0.26-4.382l20.601,4.147c0.524,0.105,1.131,0.233,1.665,0.233C451.824,47.605,451.748,47.68,451.748,47.681z
	 M391.264,31.878c-2.571,0-4.652,2.084-4.652,4.653s2.081,4.653,4.652,4.653c2.57,0,4.652-2.084,4.652-4.653
	C395.917,33.96,393.834,31.878,391.264,31.878z"/>
<g>
</g>
<g>
</g>
<g>
</g>
<g>
</g>
<g>
</g>
<g>
</g>
<g>
</g>
<g>
</g>
<g>
</g>
<g>
</g>
<g>
</g>
<g>
</g>
<g>
</g>
<g>
</g>
<g>
</g>
</svg>
