<?xml version="1.0" encoding="iso-8859-1"?>
<!-- Generator: Adobe Illustrator 19.0.0, SVG Export Plug-In . SVG Version: 6.00 Build 0)  -->
<svg version="1.1" id="Layer_1" xmlns="http://www.w3.org/2000/svg" xmlns:xlink="http://www.w3.org/1999/xlink" x="0px" y="0px"
	 viewBox="0 0 512 512" style="enable-background:new 0 0 512 512;" xml:space="preserve">
<rect x="127.369" y="450.998" style="fill:#65513C;" width="257.25" height="52.912"/>
<path style="fill:#5C6670;" d="M382.434,8.087c-22.645,0-41.092,17.935-41.937,40.372C318.102,28.323,288.487,16.058,256,16.058
	s-62.102,12.266-84.497,32.401c-0.844-22.436-19.291-40.372-41.937-40.372v126.775h0.251c-0.151,2.528-0.251,5.067-0.251,7.631
	v228.625c0,44.118,35.765,79.883,79.883,79.883h93.102c44.118,0,79.883-35.765,79.883-79.883V142.493c0-2.564-0.1-5.104-0.251-7.631
	h0.251V8.087z"/>
<path style="fill:#7D868C;" d="M382.434,142.493c0-45.18-36.626-81.805-81.805-81.805c-16.47,0-31.791,4.885-44.629,13.259
	c-12.837-8.374-28.159-13.258-44.629-13.258c-45.18-0.001-81.806,36.624-81.804,81.805c0,22.588,9.156,43.04,23.96,57.844h-0.002
	L255.999,302.81l102.474-102.472h-0.001C373.276,185.535,382.434,165.083,382.434,142.493z"/>
<g>
	<circle style="fill:#5C6670;" cx="190.007" cy="134.863" r="35.329"/>
	<circle style="fill:#5C6670;" cx="322.002" cy="134.863" r="35.329"/>
</g>
<path style="fill:#FFB648;" d="M276.903,176.5l-20.901,20.904L235.1,176.5c0-11.542,9.359-20.9,20.902-20.9
	C267.545,155.602,276.903,164.958,276.903,176.5z"/>
<g>
	<path style="fill:#333E48;" d="M203.422,251.74c0-30.154-24.44-54.592-54.59-54.592c-30.148,0-54.589,24.442-54.588,54.592v156.734
		c60.294,0,109.175-48.877,109.178-109.176V251.74z"/>
	<path style="fill:#333E48;" d="M308.578,251.74c0-30.154,24.439-54.592,54.59-54.592c30.148,0,54.589,24.442,54.588,54.592v156.734
		c-60.295,0-109.175-48.877-109.178-109.176V251.74z"/>
</g>
<path style="fill:#1E252B;" d="M190.003,124.186c-5.896,0-10.675,4.779-10.675,10.676c0,5.896,4.78,10.675,10.675,10.675
	c5.896,0,10.675-4.78,10.675-10.676C200.678,128.965,195.899,124.186,190.003,124.186z M407.487,207.418
	c-5.025-5.025-10.757-9.08-16.966-12.096V8.087C390.521,3.62,386.9,0,382.434,0c-21.965,0-40.587,13.964-47.342,33.686
	C312.198,17.02,284.589,7.971,256,7.971c-28.588,0-56.197,9.05-79.091,25.715C170.153,13.964,151.531,0,129.566,0
	c-4.466,0-8.087,3.62-8.087,8.087v187.236c-6.209,3.016-11.941,7.071-16.966,12.096c-11.838,11.839-18.357,27.579-18.356,44.32
	v156.734c0,4.466,3.621,8.087,8.087,8.087c12.784,0,25.095-2.064,36.624-5.865c6.566,13.092,16.093,24.054,27.589,32.218h-31.09
	c-4.466,0-8.087,3.62-8.087,8.087v52.911c0,4.467,3.621,8.087,8.087,8.087h257.254c4.466,0,8.087-3.62,8.087-8.087v-52.911
	c0-4.467-3.621-8.087-8.087-8.087h-31.081c11.497-8.165,21.025-19.127,27.589-32.218c11.529,3.8,23.839,5.865,36.624,5.865
	c4.466,0,8.087-3.621,8.087-8.087V251.74C425.844,234.998,419.325,219.258,407.487,207.418z M102.332,400.066V251.74
	c0-12.422,4.836-24.101,13.619-32.884c8.784-8.784,20.461-13.621,32.882-13.621c25.642,0,46.503,20.862,46.503,46.505v47.557
	C195.332,352.316,154.305,395.933,102.332,400.066z M376.537,459.089v36.737h-241.08v-36.737h37.421
	c0.933,3.435,4.065,5.966,7.796,5.966c3.731,0,6.863-2.531,7.796-5.966h0.411c0.933,3.435,4.065,5.966,7.796,5.966
	c3.731,0,6.864-2.531,7.796-5.966h0.411c0.933,3.435,4.065,5.966,7.796,5.966c3.731,0,6.863-2.531,7.796-5.966h71.033
	c0.933,3.435,4.065,5.966,7.796,5.966c3.731,0,6.863-2.531,7.796-5.966h0.411c0.933,3.435,4.065,5.966,7.796,5.966
	c3.732,0,6.864-2.531,7.796-5.966h0.411c0.933,3.435,4.065,5.966,7.796,5.966s6.863-2.531,7.796-5.966H376.537z M335.332,435.07
	c-1.184-0.678-2.551-1.072-4.013-1.072c-3.678,0-6.777,2.457-7.758,5.82c-0.151,0.045-0.303,0.086-0.453,0.13
	c-0.939-3.428-4.067-5.949-7.793-5.949c-4.089,0-7.46,3.036-8.002,6.977c-0.542-3.939-3.913-6.977-8.002-6.977
	c-4.466,0-8.087,3.62-8.087,8.087v0.83h-70.452v-0.83c0-4.467-3.621-8.087-8.087-8.087c-4.089,0-7.46,3.036-8.002,6.977
	c-0.542-3.939-3.914-6.977-8.002-6.977c-3.724,0-6.853,2.521-7.792,5.948c-0.151-0.044-0.304-0.085-0.454-0.13
	c-0.982-3.36-4.081-5.817-7.758-5.817c-1.461,0-2.827,0.393-4.01,1.07c-12.981-6.628-23.785-17.169-30.774-30.514
	c38.831-19.131,65.616-59.122,65.619-105.256V251.74c0-34.562-28.117-62.679-62.677-62.679c-3.79,0-7.524,0.352-11.179,1.006V17.135
	c14.411,3.495,25.185,16.14,25.768,31.629c0.118,3.136,2.039,5.92,4.929,7.144c2.889,1.222,6.226,0.664,8.56-1.434
	c21.749-19.557,49.838-30.327,79.09-30.327s57.341,10.77,79.09,30.327c2.335,2.097,5.67,2.658,8.56,1.434
	c2.89-1.224,4.811-4.008,4.929-7.144c0.582-15.489,11.357-28.134,25.768-31.629v172.931c-3.654-0.653-7.388-1.006-11.179-1.006
	c-34.561,0-62.677,28.118-62.677,62.679v47.557c0.002,46.134,26.788,86.125,65.619,105.256
	C359.12,417.901,348.314,428.44,335.332,435.07z M409.668,400.066c-51.972-4.133-93-47.749-93.003-100.768V251.74
	c0-25.643,20.862-46.505,46.503-46.505c12.421,0,24.098,4.837,32.882,13.621c8.783,8.783,13.619,20.462,13.619,32.884V400.066z
	 M256.002,147.515c-15.985,0-28.989,13.004-28.989,28.987c0,2.145,0.852,4.201,2.368,5.718l20.902,20.904
	c1.517,1.517,3.573,2.369,5.719,2.369c2.145,0,4.202-0.852,5.719-2.369l20.901-20.904c1.516-1.516,2.368-3.573,2.368-5.718
	C284.99,160.518,271.986,147.515,256.002,147.515z M256.002,185.967l-12.461-12.462c1.352-5.624,6.427-9.817,12.461-9.817
	c6.034,0,11.108,4.192,12.46,9.817L256.002,185.967z M190.003,91.445c-11.597,0-22.501,4.516-30.701,12.716
	c-8.2,8.2-12.716,19.104-12.715,30.701c0,23.939,19.477,43.417,43.417,43.417c23.94,0,43.418-19.477,43.418-43.418
	C233.419,110.921,213.943,91.445,190.003,91.445z M190.003,162.104c-15.022,0-27.242-12.22-27.242-27.242
	c0-7.277,2.833-14.118,7.978-19.264c5.145-5.145,11.986-7.978,19.264-7.978c15.022,0,27.243,12.22,27.243,27.242
	C217.245,149.882,205.024,162.104,190.003,162.104z M332.674,134.861c0-5.897-4.779-10.675-10.675-10.675
	s-10.675,4.779-10.675,10.676c0,5.896,4.78,10.675,10.675,10.675C327.893,145.537,332.674,140.758,332.674,134.861z
	 M365.415,134.862c0-11.597-4.516-22.5-12.716-30.701c-8.2-8.199-19.103-12.716-30.701-12.716c-23.94,0-43.418,19.477-43.418,43.417
	c0,23.94,19.477,43.418,43.418,43.418C345.938,178.278,365.415,158.801,365.415,134.862z M294.755,134.861
	c0-15.022,12.22-27.242,27.243-27.242c7.277,0,14.118,2.834,19.264,7.978c5.146,5.146,7.978,11.986,7.978,19.264
	c0,15.022-12.22,27.242-27.242,27.242C306.975,162.104,294.755,149.882,294.755,134.861z"/>
<g>
</g>
<g>
</g>
<g>
</g>
<g>
</g>
<g>
</g>
<g>
</g>
<g>
</g>
<g>
</g>
<g>
</g>
<g>
</g>
<g>
</g>
<g>
</g>
<g>
</g>
<g>
</g>
<g>
</g>
</svg>
