<?xml version="1.0" encoding="iso-8859-1"?>
<!-- Generator: Adobe Illustrator 19.0.0, SVG Export Plug-In . SVG Version: 6.00 Build 0)  -->
<svg version="1.1" id="Layer_1" xmlns="http://www.w3.org/2000/svg" xmlns:xlink="http://www.w3.org/1999/xlink" x="0px" y="0px"
	 viewBox="0 0 512 512" style="enable-background:new 0 0 512 512;" xml:space="preserve">
<g>
	<path style="fill:#2D3740;" d="M357.145,390.106h-9.021V132.901c0-22.37,0-53.316,0-53.316H215.485
		c17.491,11.296,29.077,30.947,29.077,53.316l0.001,0.003v257.202c0,28.598,23.181,51.78,51.779,51.78h60.801
		c14.3,0,25.892-11.591,25.892-25.891C383.037,401.698,371.444,390.106,357.145,390.106z"/>
	<path style="fill:#2D3740;" d="M154.526,390.106h-9.022V128.588c0.028-19.623,8.963-37.154,22.978-48.773
		c-7.861,0.449-15.54,1.575-22.978,3.319V83.13C86.147,97.041,41.947,150.312,41.947,213.908v176.198
		c0,28.598,23.18,51.78,51.78,51.78h60.8c14.3,0,25.891-11.591,25.891-25.891C180.417,401.698,168.825,390.106,154.526,390.106z"/>
</g>
<circle style="fill:#333E48;" cx="37.47" cy="114.634" r="29.209"/>
<path style="fill:#DADBDC;" d="M387.6,79.585H144.788v0.029c-0.735-0.014-1.467-0.029-2.204-0.029
	c-74.184,0-134.324,60.139-134.324,134.323c0,74.185,60.14,134.325,134.324,134.325h108.025c35.552,0,67.872-13.818,91.899-36.369
	H387.6c64.143,0,116.14-51.996,116.14-116.138C503.739,131.583,451.742,79.585,387.6,79.585z"/>
<g>
	<path style="fill:#333E48;" d="M323.46,390.106h-9.023V132.901c0-22.37,11.588-42.02,29.077-53.316H181.802
		c17.49,11.296,29.076,30.947,29.076,53.316l0.002,0.003v257.202c0,28.598,23.181,51.78,51.779,51.78h60.801
		c14.3,0,25.89-11.591,25.89-25.891C349.35,401.698,337.76,390.106,323.46,390.106z"/>
	<path style="fill:#333E48;" d="M120.841,390.106h-9.023V128.588c0.029-19.623,8.964-37.154,22.979-48.773
		c-7.86,0.449-15.539,1.575-22.979,3.319V83.13C52.462,97.04,8.261,150.312,8.261,213.908v176.198
		c0,28.598,23.181,51.78,51.779,51.78h60.801c14.3,0,25.891-11.591,25.891-25.891C146.731,401.698,135.14,390.106,120.841,390.106z"
		/>
	<path style="fill:#333E48;" d="M454.387,141.616c-8.761-8.758-22.964-8.756-31.726,0.002l-24.994,24.994
		c-8.762,8.763-8.762,22.966-0.002,31.726c8.762,8.762,22.968,8.764,31.727,0.002l24.995-24.994
		C463.147,164.585,463.147,150.379,454.387,141.616z"/>
	<path style="fill:#333E48;" d="M362.636,133.334c-5.222,0-10.127-2.033-13.818-5.721c-0.529-0.529-1.033-1.093-1.493-1.679
		l-0.176-0.221l-0.178-0.24c-4.902-6.602-7.298-14.801-6.724-23.059c0.578-8.351,4.16-16.213,10.082-22.135
		c5.923-5.922,13.784-9.505,22.137-10.082c0.797-0.056,1.607-0.083,2.408-0.083c7.406,0,14.749,2.423,20.677,6.828l0.459,0.351
		c0.598,0.478,1.165,0.984,1.684,1.51c3.654,3.652,5.689,8.562,5.689,13.785c0,5.223-2.031,10.13-5.721,13.819l-21.203,21.205
		C372.767,131.301,367.859,133.334,362.636,133.334z"/>
</g>
<path style="fill:#2D3740;" d="M367.927,119.082c-2.918,2.918-7.664,2.918-10.581,0c-0.203-0.204-0.394-0.417-0.572-0.643
	l-0.052-0.064l-0.048-0.068c-3.21-4.319-4.77-9.667-4.396-15.057c0.378-5.446,2.714-10.577,6.579-14.442
	c3.867-3.864,8.994-6.2,14.44-6.581c5.392-0.374,10.74,1.187,15.061,4.397l0.066,0.05l0.065,0.052
	c0.225,0.177,0.442,0.369,0.642,0.573c2.918,2.914,2.918,7.662,0,10.579L367.927,119.082z"/>
<path style="fill:#1E252B;" d="M438.524,166.13c4.776,0,8.649-3.874,8.649-8.65c-0.002-4.775-3.875-8.648-8.649-8.648
	c-4.779,0-8.65,3.874-8.649,8.652C429.875,162.257,433.744,166.13,438.524,166.13z M387.6,320.124
	c68.594,0,124.4-55.805,124.4-124.398c-0.001-31.118-11.547-60.901-32.515-83.863c-20.127-22.041-47.267-36.034-76.706-39.619
	c-0.517-0.481-1.05-0.954-1.618-1.406c-0.043-0.035-0.087-0.069-0.131-0.104l-0.459-0.351c-0.032-0.024-0.065-0.05-0.097-0.073
	c-7.341-5.453-16.434-8.458-25.603-8.458c-1.007,0-2.011,0.034-2.977,0.102c-8.778,0.607-17.111,3.902-23.92,9.37H144.788
	c-0.182,0-0.361,0.006-0.54,0.018c-0.554-0.01-1.108-0.018-1.664-0.018c-27.435,0-53.08,7.796-74.851,21.278
	C60.782,83.11,49.571,77.164,37.47,77.164C16.809,77.164,0,93.972,0,114.632c0,13.042,6.625,24.735,17.168,31.496
	C6.222,166.299,0,189.391,0,213.908v176.198c0,33.107,26.934,60.041,60.04,60.041h94.486c18.832,0,34.151-15.319,34.151-34.151
	c0-18.831-15.319-34.15-34.151-34.15h-0.761v-25.353h48.855v33.614c0,33.107,26.934,60.041,60.04,60.041h94.485
	c18.832,0,34.152-15.319,34.152-34.151c0-18.831-15.321-34.15-34.152-34.15h-0.76v-61.722H387.6z M348.486,102.985
	c0.439-6.362,3.169-12.351,7.682-16.865c4.516-4.515,10.505-7.243,16.875-7.685c0.59-0.041,1.206-0.063,1.828-0.063
	c5.626,0,11.201,1.834,15.706,5.164l0.334,0.254c0.334,0.269,0.638,0.543,0.942,0.851c2.107,2.106,3.268,4.927,3.268,7.942
	c0,3.016-1.172,5.85-3.302,7.979l-21.202,21.204c-2.13,2.13-4.964,3.302-7.98,3.302c-3.013,0-5.847-1.173-7.976-3.302
	c-0.307-0.306-0.591-0.626-0.872-0.982l-0.094-0.117l-0.093-0.124C349.866,115.516,348.048,109.279,348.486,102.985z
	 M322.697,336.934c5.997-3.522,11.737-7.483,17.165-11.847v60.967c-4.871-2.68-10.461-4.207-16.403-4.207h-0.762V336.934z
	 M120.077,354.71c5.668,0.899,11.404,1.459,17.165,1.674v29.671c-4.872-2.68-10.461-4.206-16.403-4.206h-0.762V354.71z
	 M16.521,114.632c0-11.55,9.397-20.948,20.949-20.948c6.669,0,12.856,3.226,16.755,8.398c-10.829,8.576-20.387,18.689-28.344,30.004
	C20.125,128.287,16.521,121.826,16.521,114.632z M120.841,433.626H60.04c-23.996,0-43.519-19.522-43.519-43.52V213.908
	c0-59.767,41.807-109.95,97.712-122.847c-6.883,11.159-10.657,24.104-10.676,37.527v261.519c0,4.563,3.697,8.261,8.261,8.261h9.023
	c9.721,0,17.63,7.909,17.63,17.629C138.471,425.717,130.562,433.626,120.841,433.626z M154.526,398.367
	c9.721,0,17.63,7.909,17.63,17.629c0,9.721-7.909,17.63-17.63,17.63h-4.447c3.117-5.15,4.913-11.183,4.913-17.63
	c0-6.445-1.796-12.479-4.913-17.629H154.526z M202.62,339.973h-60.035c-7.571,0-15.113-0.681-22.507-2.011v-209.36
	c0.023-15.528,6.568-30.23,17.997-40.666c1.497-0.053,3-0.089,4.51-0.089c0.633,0,1.262,0.013,1.894,0.024l0.153,0.003
	c0.281,0.006,0.563-0.004,0.841-0.028h33.758c14.677,10.361,23.386,27.023,23.386,45.055c0,0.063,0.001,0.124,0.002,0.187
	L202.62,339.973L202.62,339.973z M323.46,433.626H262.66c-23.996,0-43.519-19.524-43.519-43.52V132.904
	c0-0.067-0.001-0.132-0.002-0.199c-0.045-16.618-5.77-32.337-15.913-44.859h118.866c-10.184,12.571-15.914,28.366-15.914,45.055
	v257.206c0,4.563,3.697,8.261,8.261,8.261h9.023c9.721,0,17.629,7.909,17.629,17.629C341.09,425.717,333.181,433.626,323.46,433.626
	z M357.145,398.367c9.722,0,17.631,7.909,17.631,17.629c0,9.721-7.909,17.63-17.631,17.63h-4.447
	c3.116-5.15,4.913-11.183,4.913-17.63c0-6.445-1.797-12.479-4.913-17.629H357.145z M342.508,303.603c-2.1,0-4.121,0.801-5.654,2.237
	c-4.441,4.169-9.181,7.994-14.157,11.471v-184.41c0-11.108,3.322-21.688,9.285-30.609c-0.591,10.07,2.361,20.032,8.362,28.112
	l0.178,0.24c0.053,0.072,0.108,0.142,0.162,0.211l0.149,0.186c0.656,0.833,1.377,1.643,2.146,2.412
	c5.251,5.249,12.232,8.139,19.658,8.139c7.428,0,14.41-2.891,19.661-8.142l21.202-21.204c5.25-5.248,8.142-12.23,8.142-19.661
	c0-0.688-0.033-1.37-0.082-2.05c21.321,4.838,40.759,16.076,55.726,32.467c14.903,16.321,24.307,36.619,27.217,58.271l-1.56,0.02
	c-7.229,0.031-8.872,4.147-3.65,9.144l5.821,5.576c0.115,0.111,0.24,0.207,0.358,0.312
	c-0.325,59.208-48.586,107.277-107.872,107.277L342.508,303.603L342.508,303.603z"/>
<g>
</g>
<g>
</g>
<g>
</g>
<g>
</g>
<g>
</g>
<g>
</g>
<g>
</g>
<g>
</g>
<g>
</g>
<g>
</g>
<g>
</g>
<g>
</g>
<g>
</g>
<g>
</g>
<g>
</g>
</svg>
