<?xml version="1.0" encoding="iso-8859-1"?>
<!-- Generator: Adobe Illustrator 19.0.0, SVG Export Plug-In . SVG Version: 6.00 Build 0)  -->
<svg version="1.1" id="Layer_1" xmlns="http://www.w3.org/2000/svg" xmlns:xlink="http://www.w3.org/1999/xlink" x="0px" y="0px"
	 viewBox="0 0 512.001 512.001" style="enable-background:new 0 0 512.001 512.001;" xml:space="preserve">
<g>
	<path style="fill:#DADBDC;" d="M229.523,397.972c0-8.774,7.111-15.89,15.885-15.89c8.776,0,15.889,7.116,15.889,15.89v13.83
		c0,8.774-7.112,15.889-15.889,15.889c-8.774,0-15.885-7.114-15.885-15.889V397.972z"/>
	<path style="fill:#DADBDC;" d="M187.795,397.972c0-8.774,7.112-15.89,15.886-15.89c8.776,0,15.888,7.116,15.888,15.89v13.83
		c0,8.774-7.111,15.889-15.888,15.889c-8.775,0-15.886-7.114-15.886-15.889V397.972z"/>
	<path style="fill:#DADBDC;" d="M371.14,245.324l0.008-0.011l-78.796-78.797c2.977-2.297,5.851-4.786,8.583-7.513
		c34.498-34.498,34.498-90.432-0.001-124.931c-34.498-34.497-90.431-34.497-124.929,0.001c-34.498,34.499-34.497,90.428,0,124.93
		l59.175,59.174H27.729v41.078c0,82.501,66.879,149.378,149.377,149.378h127.479c52.593,0,95.228-42.636,95.228-95.228
		C399.812,286.72,388.823,262.614,371.14,245.324z"/>
</g>
<path style="fill:#E8E8E8;" d="M246.638,370.114c33.361,0.001,60.404-27.043,60.401-60.401c0-33.36-27.044-60.403-60.402-60.399
	l-175.55-0.003c0,66.716,54.084,120.805,120.801,120.805L246.638,370.114z"/>
<path style="fill:#333E48;" d="M95.022,249.31H71.087c0,66.716,54.084,120.805,120.801,120.805h23.915
	C149.096,370.105,95.022,316.02,95.022,249.31z"/>
<path style="fill:#ED9900;" d="M222.836,117.879l101.443,101.442h-0.002c16.962,16.963,40.391,27.452,66.27,27.451
	c51.763,0,93.723-41.958,93.723-93.718v-35.174H222.836z"/>
<path style="fill:#FFB648;" d="M222.836,117.879c0-16.089,13.041-29.129,29.128-29.129h203.175c16.09,0,29.13,13.041,29.13,29.129
	H222.836z"/>
<path style="fill:#1E252B;" d="M252.366,77.326c6.28,0,11.371-5.092,11.371-11.372c0-6.279-5.091-11.371-11.371-11.371
	c-6.278,0-11.371,5.092-11.371,11.371C240.997,72.234,246.088,77.326,252.366,77.326z M455.139,80.505H333.7
	c-3.32-19.705-12.714-38.041-26.937-52.263c-37.658-37.656-98.931-37.656-136.59,0.002c-37.654,37.655-37.654,98.928,0,136.589
	l45.102,45.099H27.729c-4.554,0-8.244,3.69-8.244,8.244v41.078c0,86.914,70.709,157.623,157.622,157.623h2.986
	c1.753,8.155,7.634,14.795,15.346,17.608v69.271c0,4.554,3.69,8.244,8.244,8.244h35.28c1.164,0,2.269-0.244,3.274-0.678
	c1.004,0.435,2.109,0.678,3.274,0.678h35.28c4.554,0,8.244-3.69,8.244-8.244c0-4.554-3.69-8.244-8.244-8.244h-27.035v-61.063
	c7.663-2.833,13.502-9.45,15.248-17.571h35.585c57.055,0,103.472-46.418,103.472-103.472c0-21.182-6.306-41.341-18.038-58.403
	c0.176,0.001,0.351,0.013,0.528,0.013c56.225,0,101.967-45.74,101.967-101.963V117.88C492.514,97.271,475.748,80.505,455.139,80.505
	z M455.139,96.994c8.589,0,15.978,5.214,19.183,12.64H232.783c3.204-7.427,10.594-12.64,19.181-12.64H455.139z M203.681,419.448
	c-2.267,0-4.299-0.997-5.701-2.57h11.4C207.981,418.449,205.949,419.448,203.681,419.448z M237.262,495.511h-25.337v-61.026
	c5.337-1.947,9.797-5.729,12.619-10.577c2.839,4.876,7.336,8.675,12.716,10.61v60.993H237.262z M245.408,419.448
	c-2.266,0-4.299-0.997-5.701-2.57h11.4C249.708,418.449,247.676,419.448,245.408,419.448z M391.568,313.405
	c0,47.963-39.02,86.983-86.983,86.983H177.105c-77.821,0-141.133-63.313-141.133-141.134v-32.834h199.207
	c3.334,0,6.342-2.008,7.617-5.09c1.276-3.081,0.572-6.626-1.786-8.985l-59.175-59.173c-31.227-31.23-31.227-82.043-0.001-113.27
	c31.23-31.228,82.041-31.229,113.271-0.001c11.134,11.134,18.694,25.307,21.824,40.603h-64.964
	c-20.608,0-37.373,16.766-37.373,37.374h0.021c0,2.145,0.818,4.253,2.394,5.83L318.447,225.15
	c13.391,13.391,29.852,22.586,47.793,26.955C382.57,268.52,391.568,290.232,391.568,313.405z M476.025,153.053
	c0,47.131-38.345,85.474-85.478,85.474c-22.832,0.001-44.296-8.89-60.437-25.036l-87.37-87.368h233.286L476.025,153.053
	L476.025,153.053z M246.637,241.068l-175.55-0.003c-2.186,0-4.283,0.868-5.83,2.414c-1.546,1.547-2.414,3.643-2.414,5.83
	c0,71.157,57.889,129.05,129.045,129.05l30.464-0.001c0.015,0,0.03,0.001,0.046,0.001v-0.001h24.241c0.001,0,0.001,0,0.001,0
	c18.337,0,35.575-7.141,48.541-20.105c12.966-12.966,20.105-30.205,20.103-48.54C315.283,271.862,284.493,241.068,246.637,241.068z
	 M79.63,257.554h14.013c2.374,37.463,20.801,70.633,48.466,92.692C107.278,332.996,82.59,298.243,79.63,257.554z M283.52,346.593
	c-9.85,9.852-22.949,15.276-36.882,15.276h-24.285c-59.26-0.032-107.954-46.106-112.189-104.314l136.48,0.002
	c28.756,0,52.15,23.397,52.15,52.155C298.796,323.644,293.372,336.741,283.52,346.593z"/>
<g>
</g>
<g>
</g>
<g>
</g>
<g>
</g>
<g>
</g>
<g>
</g>
<g>
</g>
<g>
</g>
<g>
</g>
<g>
</g>
<g>
</g>
<g>
</g>
<g>
</g>
<g>
</g>
<g>
</g>
</svg>
