<?xml version="1.0" encoding="iso-8859-1"?>
<!-- Generator: Adobe Illustrator 19.0.0, SVG Export Plug-In . SVG Version: 6.00 Build 0)  -->
<svg version="1.1" id="Layer_1" xmlns="http://www.w3.org/2000/svg" xmlns:xlink="http://www.w3.org/1999/xlink" x="0px" y="0px"
	 viewBox="0 0 512.001 512.001" style="enable-background:new 0 0 512.001 512.001;" xml:space="preserve">
<rect x="127.827" y="316.334" style="fill:#DB8689;" width="73.349" height="98.333"/>
<polygon style="fill:#283038;" points="127.829,414.669 127.829,435.812 180.72,435.812 188.385,428.147 196.052,435.812 
	201.177,435.812 201.177,414.669 "/>
<rect x="294.252" y="316.334" style="fill:#DB8689;" width="73.349" height="98.333"/>
<polygon style="fill:#283038;" points="294.255,414.669 294.255,435.812 347.144,435.812 354.81,428.147 362.477,435.812 
	367.6,435.812 367.6,414.669 "/>
<path style="fill:#FF9C9F;" d="M377.759,113.511c15.911-25.547,57.118-46.501,83.01-30.942l-35.68,59.381L377.759,113.511z"/>
<path style="fill:#FFB6B6;" d="M465.352,155.52c9.903-23.126,11.046-57.143-4.581-72.949c-21.292-6.378-50.793,10.604-66.563,30.202
	c-0.009,0.019-0.247,0.379-0.352,0.551c-2.405,4.001-1.107,9.192,2.891,11.595l56.691,34.064c4,2.403,9.19,1.108,11.595-2.892
	C465.134,155.918,465.341,155.538,465.352,155.52z"/>
<polygon style="fill:#333E48;" points="76.824,414.669 76.824,435.812 129.715,435.812 137.381,428.147 145.046,435.812 
	150.171,435.812 150.171,414.669 "/>
<path style="fill:#FF9C9F;" d="M371.089,96.976c-40.473,0-76.164,20.478-97.279,51.637H161.457
	c-64.395,0-116.594,52.201-116.594,116.595c0,31.067,12.151,59.293,31.96,80.19v69.271h73.348v-33.413
	c3.714,0.356,7.477,0.545,11.286,0.545h81.788v32.867h73.349v-39.383c23.355-8.169,43.319-23.558,57.213-43.496
	c63.596-1.446,114.705-53.448,114.705-117.39C488.512,149.55,435.941,96.976,371.089,96.976z"/>
<path style="fill:#DB8689;" d="M469.963,251.819h-55.699c-18.66,0-33.79-15.128-33.79-33.79c0-18.663,15.129-33.791,33.79-33.791
	h55.699V251.819z"/>
<path style="fill:#FFB6B6;" d="M469.963,184.238c18.66,0,33.79,15.128,33.79,33.791c0,18.662-15.129,33.79-33.79,33.79h-33.801
	c-18.663,0-33.79-15.128-33.79-33.79c0-18.663,15.128-33.791,33.79-33.791H469.963z"/>
<g>
	<path style="fill:#DB8689;" d="M430.224,208.62c0-4.644,3.766-8.409,8.409-8.409c4.644,0,8.409,3.765,8.409,8.409v18.817
		c0,4.644-3.765,8.408-8.409,8.408s-8.409-3.764-8.409-8.408V208.62z"/>
	<path style="fill:#DB8689;" d="M484.261,208.62c0-4.644-3.765-8.409-8.409-8.409c-4.645,0-8.408,3.765-8.408,8.409v18.817
		c0,4.644,3.763,8.408,8.408,8.408s8.409-3.764,8.409-8.408V208.62z"/>
</g>
<polygon style="fill:#333E48;" points="243.245,414.669 243.245,435.812 296.137,435.812 303.802,428.147 311.467,435.812 
	316.595,435.812 316.595,414.669 "/>
<g>
	<circle style="fill:#DB8689;" cx="97.564" cy="229.393" r="15.932"/>
	<circle style="fill:#DB8689;" cx="150.172" cy="200.208" r="15.932"/>
	<circle style="fill:#DB8689;" cx="140.561" cy="244.129" r="9.484"/>
</g>
<path style="fill:#FF9C9F;" d="M279.422,164.574c-14.168-26.553-11.712-72.715,14.709-87.362l33.585,60.591L279.422,164.574z"/>
<path style="fill:#FFB6B6;" d="M359.6,109.72c-15.078-20.137-43.965-38.137-65.467-32.508c-16.172,15.253-6.306,56.228-1.893,70.092
	c1.416,4.448,2.473,8.79,6.553,6.53l57.846-32.063c4.08-2.263,5.555-7.405,3.292-11.488
	C359.835,110.106,359.61,109.738,359.6,109.72z"/>
<path style="fill:#1E252B;" d="M385.249,172.1c5.183,0,9.381-4.2,9.381-9.38c0-5.181-4.199-9.38-9.381-9.38
	c-5.178,0-9.377,4.2-9.377,9.38C375.872,167.899,380.07,172.1,385.249,172.1z M492.699,182.699
	c-3.305-12.686-8.608-24.77-15.636-35.787c6.389-23.12,5.81-53.715-10.428-70.139c-0.485-0.492-1.03-0.918-1.618-1.271l0.001-0.001
	c-11.835-7.111-28.055-8.973-45.675-5.243c-14.677,3.107-29.155,9.877-40.282,18.757c-2.65-0.17-5.307-0.284-7.972-0.284
	c-6.208,0-12.424,0.465-18.538,1.37c-4.527-3.998-9.433-7.653-14.534-10.782c-16.205-9.941-32.645-13.572-45.973-10.082
	c-0.669,0.175-1.31,0.433-1.909,0.765l-0.001-0.001c-12.149,6.733-20.764,19.039-24.914,35.585
	c-2.749,10.962-3.327,23.011-1.738,34.783H161.458c-34.163,0-65.162,13.798-87.725,36.11c-4.883-8.2-13.834-13.709-24.051-13.709
	c-6.738,0-12.927,2.395-17.76,6.377c-1.172-4.104-5.318-6.682-9.575-5.81C9.398,165.984,0,177.511,0,190.742
	c0,15.425,12.55,27.975,27.975,27.975h17.625c-5.79,14.377-8.984,30.066-8.984,46.491c0,30.975,11.326,60.465,31.96,83.414v87.19
	c0,4.555,3.692,8.248,8.248,8.248h52.891c2.187,0,4.284-0.869,5.833-2.416l1.833-1.834l1.833,1.834
	c1.547,1.547,3.644,2.416,5.833,2.416h35.674c2.187,0,4.284-0.869,5.833-2.416l1.833-1.834l1.835,1.834
	c1.546,1.546,3.644,2.415,5.832,2.415h5.125c4.556,0,8.248-3.693,8.248-8.248v-45.762h25.573v45.762
	c0,4.555,3.692,8.248,8.248,8.248h52.892c2.187,0,4.285-0.87,5.833-2.416l1.832-1.833l1.833,1.833
	c1.547,1.547,3.644,2.416,5.833,2.416h35.676c2.187,0,4.285-0.869,5.832-2.415l1.835-1.834l1.835,1.834
	c1.546,1.546,3.643,2.415,5.832,2.415h5.123c4.556,0,8.248-3.693,8.248-8.248v-92.983c0.777-0.975,1.545-1.957,2.293-2.956
	c51.177-2.837,95.404-36.388,111.916-84.93c13.063-7.139,21.944-21.008,21.944-36.915C512,203.223,504.3,190.19,492.699,182.699z
	 M23.836,201.438c-4.289-1.667-7.34-5.827-7.34-10.697c0-4.79,2.998-9.032,7.347-10.712c-1.374,3.301-2.136,6.919-2.136,10.712
	C21.705,194.529,22.466,198.14,23.836,201.438z M456.423,90.087c6.093,7.676,9.682,22.204,7.418,39.573
	c-4.289-4.702-8.926-9.108-13.912-13.129c-6.786-5.474-14.117-10.186-21.832-14.107C439.543,93.907,449.726,89.407,456.423,90.087z
	 M421.854,86.542c-3.51,2.441-7.228,5.313-11.15,8.64c-2.429-0.807-4.878-1.555-7.352-2.214
	C409.426,89.972,415.716,87.846,421.854,86.542z M298.485,84.723c1.314-0.205,2.69-0.308,4.112-0.308
	c15.713,0,37.193,12.829,50.137,29.897c0.032,0.092-0.002,0.197-0.065,0.231l-49.824,27.378c-0.045,0.024-0.103,0.044-0.166,0.056
	C297.96,130.468,290.245,96.279,298.485,84.723z M38.201,190.742c0-6.33,5.15-11.48,11.48-11.48s11.48,5.15,11.48,11.48
	c0,0.08-0.015,0.158-0.018,0.238c-2.452,3.306-4.743,6.737-6.865,10.281c-1.441,0.629-3.001,0.962-4.598,0.962
	C43.352,202.222,38.201,197.072,38.201,190.742z M192.929,421.261c-3.202-2.117-7.556-1.767-10.377,1.053l-5.249,5.25h-18.885
	v-37.552c1.017,0.025,2.03,0.037,3.038,0.037h31.472V421.261z M359.352,421.261c-3.202-2.116-7.555-1.767-10.374,1.053l-5.251,5.25
	h-18.886v-46.578c12.535-5.083,24.219-12.263,34.511-21.086V421.261z M373.62,323.546c-2.63,0.059-5.074,1.371-6.578,3.53
	c-12.973,18.614-31.855,32.972-53.171,40.426c-3.309,1.158-5.524,4.28-5.524,7.786v45.978c-1.338-0.884-2.916-1.365-4.545-1.365
	c-2.187,0-4.285,0.87-5.833,2.416l-5.248,5.249h-41.228v-45.762c0-4.555-3.692-8.248-8.248-8.248h-81.788
	c-3.456,0-6.988-0.17-10.498-0.508c-2.315-0.222-4.614,0.543-6.335,2.106c-1.72,1.563-2.701,3.78-2.701,6.104v40.005
	c-3.202-2.118-7.556-1.767-10.375,1.052l-5.249,5.25H85.071v-82.167c0-2.111-0.809-4.142-2.262-5.674
	c-19.152-20.203-29.699-46.667-29.699-74.517c0-59.742,48.604-108.347,108.346-108.347h111.98c2.538,0,4.934-1.169,6.497-3.167
	c1.564-1.999,2.119-4.607,1.507-7.07c-2.236-8.995-2.86-19.016-1.728-28.463c2.184,14.168,6.383,27.031,8.068,30.943
	c2.456,5.697,8.246,9.38,14.75,9.38h0.001c2.912,0,5.783-0.739,8.279-2.122l49.828-27.379c8.047-4.464,10.967-14.646,6.499-22.712
	c-0.108-0.192-0.315-0.54-0.449-0.762c-0.037-0.064-0.082-0.121-0.122-0.184c1.507-0.063,3.014-0.102,4.521-0.102
	c25.218,0,48.898,8.35,68.484,24.146c8.876,7.159,16.523,15.666,22.728,25.096c-1.327-0.719-2.847-1.127-4.464-1.127
	c-5.178,0-9.377,4.2-9.377,9.38c0,5.181,4.199,9.38,9.377,9.38c5.183,0,9.38-4.2,9.38-9.38c0-0.008-0.001-0.015-0.001-0.023
	c2.34,4.337,4.397,8.825,6.131,13.442c-1.118-0.089-2.246-0.148-3.386-0.148h-55.699c-23.179,0-42.037,18.858-42.037,42.039
	s18.857,42.037,42.037,42.037h55.699c0.11,0,0.216-0.008,0.324-0.009C453.048,297.614,415.801,322.585,373.62,323.546z
	 M399.783,239.054c-6.675-4.612-11.062-12.314-11.062-21.025s4.386-16.413,11.062-21.025c-3.592,6.19-5.659,13.368-5.659,21.025
	C394.123,225.685,396.192,232.864,399.783,239.054z M469.963,243.571h-33.801c-14.085,0-25.542-11.459-25.542-25.542
	c0-14.084,11.459-25.543,25.542-25.543h33.801c14.085,0,25.542,11.459,25.542,25.543
	C495.505,232.114,484.047,243.571,469.963,243.571z"/>
<g>
</g>
<g>
</g>
<g>
</g>
<g>
</g>
<g>
</g>
<g>
</g>
<g>
</g>
<g>
</g>
<g>
</g>
<g>
</g>
<g>
</g>
<g>
</g>
<g>
</g>
<g>
</g>
<g>
</g>
</svg>
