<?xml version="1.0" encoding="iso-8859-1"?>
<!-- Generator: Adobe Illustrator 19.0.0, SVG Export Plug-In . SVG Version: 6.00 Build 0)  -->
<svg version="1.1" id="Layer_1" xmlns="http://www.w3.org/2000/svg" xmlns:xlink="http://www.w3.org/1999/xlink" x="0px" y="0px"
	 viewBox="0 0 512.001 512.001" style="enable-background:new 0 0 512.001 512.001;" xml:space="preserve">
<g>
	<path style="fill:#C8C9C9;" d="M236.739,433.003c0.78-4.345,1.208-8.813,1.208-13.384v-49.546
		c0-41.614-33.734-75.348-75.347-75.348c-41.615,0-75.348,33.734-75.348,75.348v49.546c0,41.614,33.733,75.348,75.348,75.348H274.69
		c6.582,0,11.918-5.336,11.918-11.918C286.607,455.467,264.297,433.101,236.739,433.003z"/>
	<path style="fill:#C8C9C9;" d="M398.849,433.218v-92.551c0-22.969-18.621-41.59-41.59-41.59c-22.97,0-41.59,18.619-41.59,41.59
		v112.71c0,22.969,18.619,41.59,41.59,41.59h75.111c6.582,0,11.918-5.336,11.918-11.918
		C444.287,456.963,424.327,435.547,398.849,433.218z"/>
</g>
<circle style="fill:#E8E8E8;" cx="64.896" cy="246.125" r="43.049"/>
<path style="fill:#DADBDC;" d="M433.216,17.034c-18.799,0-34.041,15.241-34.041,34.04v131.411h68.081V51.074
	C467.257,32.276,452.017,17.034,433.216,17.034z"/>
<path style="fill:#FF9C9F;" d="M467.257,51.074c0-9.421-7.637-17.058-17.058-17.058c-9.422,0-17.059,7.637-17.059,17.058v94.254
	c0,9.421,7.637,17.058,17.058,17.058c9.422,0,17.059-7.637,17.059-17.058C467.257,144.811,467.257,51.591,467.257,51.074z"/>
<g>
	<path style="fill:#DADBDC;" d="M375.665,133.491c-49.916,0-93.157,28.565-114.281,70.237h-94.357
		c-72.463,0-131.204,58.743-131.204,131.205S94.564,466.14,167.027,466.14h155.534c61.855,0,113.704-42.807,127.561-100.408
		c32.449-23.23,53.597-61.239,53.597-104.189C503.718,190.822,446.386,133.491,375.665,133.491z"/>
	<path style="fill:#DADBDC;" d="M317.822,17.034c-18.798,0-34.041,15.241-34.041,34.04v131.411h68.081V51.074
		C351.863,32.276,336.623,17.034,317.822,17.034z"/>
</g>
<g>
	<path style="fill:#FF9C9F;" d="M351.863,51.074c0-9.421-7.637-17.058-17.058-17.058c-9.422,0-17.059,7.637-17.059,17.058v94.254
		c0,9.421,7.637,17.058,17.058,17.058c9.422,0,17.059-7.637,17.059-17.058C351.863,144.811,351.863,51.591,351.863,51.074z"/>
	<path style="fill:#FF9C9F;" d="M434.538,258.961c-5.245,5.439-13.984,5.594-19.419,0.346l-6.061-5.853
		c-5.435-5.249-3.701-9.543,3.854-9.543h22.402c7.556,0,9.446,4.45,4.202,9.889L434.538,258.961z"/>
</g>
<g>
	<path style="fill:#E8E8E8;" d="M157.769,433.003c0.78-4.345,1.208-8.813,1.208-13.384v-49.546
		c0-41.614-33.734-75.348-75.347-75.348c-41.615,0-75.348,33.734-75.348,75.348v49.546c0,41.614,33.733,75.348,75.348,75.348
		h112.089c6.582,0,11.918-5.336,11.918-11.918C207.637,455.467,185.327,433.101,157.769,433.003z"/>
	<path style="fill:#E8E8E8;" d="M319.876,433.218v-92.551c0-22.969-18.619-41.59-41.59-41.59c-22.968,0-41.59,18.619-41.59,41.59
		v112.71c0,22.969,18.621,41.59,41.59,41.59h75.113c6.582,0,11.918-5.336,11.918-11.918
		C365.316,456.963,345.356,435.547,319.876,433.218z"/>
</g>
<path style="fill:#1E252B;" d="M379.978,215.179c-4.883,0-8.841,3.959-8.841,8.842s3.958,8.841,8.841,8.841s8.842-3.959,8.842-8.841
	C388.821,219.137,384.862,215.179,379.978,215.179z M457.892,215.179c-4.883,0-8.841,3.959-8.841,8.842s3.958,8.841,8.841,8.841
	s8.842-3.959,8.842-8.841C466.735,219.137,462.776,215.179,457.892,215.179z M475.54,168.847V51.074
	c0-23.337-18.986-42.322-42.323-42.322c-23.337,0-42.323,18.985-42.323,42.322v74.99c-5.001-0.558-10.08-0.855-15.229-0.855
	c-5.17,0-10.36,0.297-15.52,0.886V51.074c0-23.337-18.986-42.322-42.323-42.322s-42.323,18.985-42.323,42.322v117.998
	c-7.414,8.026-13.816,16.868-19.095,26.374h-89.379c-23.081,0-45.066,5.683-64.479,15.82c-9.643-10.418-23.222-16.473-37.652-16.473
	c-28.304,0-51.331,23.027-51.331,51.332c0,17.068,8.262,32.613,21.978,42.128c-1.968,5.55-3.602,11.272-4.868,17.146
	C11.962,320.748,0,344.038,0,370.072v49.546c0,46.114,37.516,83.63,83.63,83.63h348.739c11.138,0,20.2-9.062,20.2-20.2
	c0-21.43-11.824-40.822-29.954-50.953c16.448-16.941,28.616-38.018,34.807-61.448c34.232-25.698,54.579-66.252,54.579-109.105
	C512,225.778,498.149,193.191,475.54,168.847z M407.458,51.074c0-14.202,11.555-25.758,25.759-25.758
	c14.203,0,25.759,11.555,25.759,25.758v102.629c-15.006-11.618-32.492-20.179-51.516-24.742V51.074H407.458z M30.128,246.124
	c0-19.171,15.597-34.768,34.766-34.768c8.588,0,16.738,3.165,23.023,8.722c-19.217,13.238-35.041,31.214-45.67,52.426
	C34.633,265.998,30.128,256.481,30.128,246.124z M195.719,486.685H83.63c-36.981,0-67.066-30.085-67.066-67.066v-49.546
	c0-36.981,30.085-67.066,67.066-67.066c36.979,0,67.065,30.085,67.065,67.066v49.546c0,3.92-0.363,7.931-1.079,11.923
	c-0.432,2.408,0.224,4.884,1.791,6.764c1.567,1.88,3.885,2.971,6.332,2.979c22.947,0.082,41.615,18.818,41.615,41.764
	C199.355,485.054,197.724,486.685,195.719,486.685z M215.574,486.685c0.215-1.182,0.346-2.393,0.346-3.635
	c0-2.931-0.229-5.81-0.649-8.628h17.819c2.098,4.489,4.841,8.619,8.118,12.262h-25.633V486.685z M353.399,486.685h-75.113
	c-18.365,0-33.308-14.942-33.308-33.308v-112.71c0-18.366,14.941-33.308,33.308-33.308c18.366,0,33.308,14.941,33.308,33.308v92.551
	c0,4.281,3.263,7.858,7.528,8.248c21.613,1.977,37.911,19.853,37.911,41.583C357.033,485.054,355.404,486.685,353.399,486.685z
	 M436.005,483.049c0,2.004-1.631,3.635-3.635,3.635h-59.116c0.215-1.182,0.346-2.393,0.346-3.635c0-6.017-0.898-11.821-2.569-17.283
	c13.98-5.182,26.885-12.543,38.32-21.65C425.23,450.279,436.005,465.735,436.005,483.049z M445.3,358.997
	c-1.619,1.158-2.765,2.861-3.231,4.797c-9.694,40.289-39.349,73.05-78.148,86.914c-8.108-12.239-20.747-21.223-35.763-24.565
	v-85.478c0-27.499-22.372-49.872-49.872-49.872c-27.499,0-49.872,22.372-49.872,49.872v112.71c0,1.511,0.08,3.004,0.211,4.481
	h-18.447c-8.114-16.846-24.091-29.243-43.131-32.369c0.141-1.967,0.212-3.926,0.212-5.87v-49.546
	c0-46.114-37.516-83.63-83.629-83.63c-11.376,0-22.225,2.291-32.121,6.424c17.383-47.808,63.254-80.855,115.516-80.855h94.357
	c3.121,0,5.976-1.754,7.387-4.538c5.453-10.757,12.503-20.626,20.955-29.333c1.5-1.545,2.339-3.614,2.339-5.769V51.074
	c0-14.202,11.555-25.758,25.759-25.758c14.203,0,25.759,11.555,25.759,25.758v84.64c0,2.465,1.098,4.801,2.995,6.375
	c1.897,1.574,4.396,2.222,6.818,1.765c7.338-1.379,14.831-2.079,22.27-2.079c66.042,0,119.771,53.728,119.771,119.769
	C495.436,300.091,476.692,336.523,445.3,358.997z"/>
<g>
</g>
<g>
</g>
<g>
</g>
<g>
</g>
<g>
</g>
<g>
</g>
<g>
</g>
<g>
</g>
<g>
</g>
<g>
</g>
<g>
</g>
<g>
</g>
<g>
</g>
<g>
</g>
<g>
</g>
</svg>
