<?xml version="1.0" encoding="iso-8859-1"?>
<!-- Generator: Adobe Illustrator 19.0.0, SVG Export Plug-In . SVG Version: 6.00 Build 0)  -->
<svg version="1.1" id="Layer_1" xmlns="http://www.w3.org/2000/svg" xmlns:xlink="http://www.w3.org/1999/xlink" x="0px" y="0px"
	 viewBox="0 0 512.001 512.001" style="enable-background:new 0 0 512.001 512.001;" xml:space="preserve">
<path style="fill:#545D66;" d="M127.876,349.367v78.268h49.647v-37.812c24.235-16.096,40.217-43.627,40.217-74.901L127.876,349.367z
	"/>
<path style="fill:#333E48;" d="M188.576,427.635h-60.699v15.255c0,8.427,6.83,15.258,15.258,15.258h53.07
	c4.213,0,7.629-3.416,7.629-7.628v-7.629C203.832,434.465,197.001,427.635,188.576,427.635z"/>
<path style="fill:#545D66;" d="M63.327,53.852c-30.493,0-55.213,24.719-55.213,55.213v150.645c0,30.494,24.72,55.213,55.213,55.213
	s55.212-24.72,55.212-55.213V109.065C118.54,78.571,93.82,53.852,63.327,53.852z"/>
<path style="fill:#333E48;" d="M8.115,259.709c0,4.473,0.545,8.817,1.549,12.982h107.327c1.004-4.165,1.549-8.508,1.549-12.982
	v-11.698H8.115V259.709z M8.115,222.048H118.54v-24.679H8.115V222.048z M8.115,171.405H118.54v-24.68H8.115V171.405z
	 M116.991,96.083H9.664c-1.004,4.165-1.549,8.508-1.549,12.981v11.699H118.54v-11.699
	C118.54,104.592,117.995,100.249,116.991,96.083z"/>
<rect x="308.496" y="349.371" style="fill:#545D66;" width="49.646" height="78.268"/>
<path style="fill:#333E48;" d="M369.196,427.635h-60.699v15.255c0,8.427,6.831,15.258,15.257,15.258h53.071
	c4.212,0,7.629-3.416,7.629-7.628v-7.629C384.453,434.465,377.622,427.635,369.196,427.635z"/>
<g>
	<path style="fill:#5C6670;" d="M385.62,373.033c13.07,0,23.665-10.596,23.665-23.667c0-0.926-0.054-1.841-0.158-2.74
		c-12.764-86.412-87.238-152.728-177.2-152.728c-89.961,0-164.435,66.316-177.2,152.728c-0.104,0.899-0.158,1.813-0.158,2.74
		c0,13.07,10.596,23.667,23.665,23.667H385.62z"/>
	<path style="fill:#5C6670;" d="M279.63,244.722c-12.673,0-17.858-8.979-11.521-19.954l38.886-67.352
		c6.334-10.976,16.705-10.976,23.041,0l38.886,67.352c6.336,10.974,1.151,19.954-11.522,19.954L279.63,244.722L279.63,244.722z"/>
</g>
<path style="fill:#FF9C9F;" d="M300.004,227.243c-8.741,0-12.317-6.193-7.948-13.762l18.513-32.067
	c4.371-7.569,11.521-7.569,15.889,0l18.514,32.067c4.37,7.569,0.795,13.762-7.947,13.762H300.004z"/>
<path style="fill:#5C6670;" d="M479.129,244.722c12.674,0,17.859-8.979,11.523-19.954l-38.886-67.352
	c-6.336-10.976-16.707-10.976-23.041,0l-38.887,67.352c-6.336,10.974-1.152,19.954,11.522,19.954L479.129,244.722L479.129,244.722z"
	/>
<path style="fill:#FF9C9F;" d="M458.757,227.243c8.74,0,12.316-6.193,7.946-13.762l-18.513-32.067c-4.37-7.569-11.52-7.569-15.889,0
	l-18.512,32.067c-4.371,7.569-0.795,13.762,7.946,13.762H458.757z"/>
<path style="fill:#5C6670;" d="M447.056,203.586H311.705c-14.545,0-29.087,5.548-40.185,16.645
	c-22.192,22.193-22.192,58.174,0,80.366l67.678,67.644c11.095,11.096,25.639,16.645,40.182,16.645
	c14.544,0,29.086-5.548,40.183-16.645l67.665-67.633c10.291-10.285,16.658-24.496,16.658-40.195
	C503.885,229.029,478.443,203.586,447.056,203.586z"/>
<path style="fill:#7D868C;" d="M391.443,321.444h-24.125c-7.95,0-14.395,6.445-14.395,14.396c0,7.95,6.445,14.396,14.395,14.396
	h24.125c7.949,0,14.395-6.445,14.395-14.396C405.838,327.889,399.392,321.444,391.443,321.444z"/>
<path style="fill:#333E48;" d="M327.545,244.802c-28.54,0-53.732,14.287-68.853,36.087c2.769,7.18,7.035,13.916,12.826,19.708
	l16.822,16.813c9.193-11.503,23.333-18.881,39.203-18.881c14.838,0,26.864-12.027,26.864-26.864
	C354.409,256.829,342.383,244.802,327.545,244.802z"/>
<circle style="fill:#FFFFFF;" cx="327.549" cy="271.666" r="11.095"/>
<path style="fill:#333E48;" d="M431.214,244.802c28.541,0,53.732,14.287,68.854,36.087c-2.77,7.18-7.035,13.916-12.827,19.708
	l-16.822,16.813c-9.193-11.503-23.333-18.881-39.204-18.881c-14.836,0-26.864-12.027-26.864-26.864
	C404.351,256.829,416.379,244.802,431.214,244.802z"/>
<circle style="fill:#FFFFFF;" cx="431.21" cy="271.666" r="11.095"/>
<path style="fill:#333E48;" d="M387.525,315.701h-16.288c-1.751,0-3.501,0.669-4.836,2.004c-2.671,2.671-2.671,7,0,9.67l8.143,8.139
	c1.335,1.335,3.087,2.003,4.835,2.003c1.751,0,3.501-0.668,4.835-2.003l8.144-8.138c1.237-1.238,2.004-2.947,2.004-4.836
	C394.362,318.763,391.3,315.701,387.525,315.701z"/>
<path style="fill:#5C6670;" d="M54.569,349.367v78.268h49.646v-37.812c24.236-16.096,40.218-43.627,40.218-74.901L54.569,349.367z"
	/>
<path style="fill:#333E48;" d="M115.266,427.635H54.569v15.255c0,8.427,6.83,15.258,15.257,15.258h53.071
	c4.212,0,7.629-3.416,7.629-7.628v-7.629C130.524,434.465,123.692,427.635,115.266,427.635z"/>
<rect x="235.183" y="349.371" style="fill:#5C6670;" width="49.647" height="78.268"/>
<path style="fill:#333E48;" d="M295.889,427.635h-60.7v15.255c0,8.427,6.831,15.258,15.259,15.258h53.068
	c4.214,0,7.629-3.416,7.629-7.628v-7.629C311.143,434.465,304.314,427.635,295.889,427.635z"/>
<path style="fill:#1E252B;" d="M453.404,181.939c-3.098-5.362-7.894-8.437-13.16-8.437c-0.001,0-0.002,0-0.002,0
	c-5.266,0.001-10.062,3.077-13.156,8.438l-10.156,17.589c-2.241,3.881-0.911,8.844,2.97,11.085c3.878,2.241,8.843,0.911,11.085-2.97
	l9.26-16.039l9.77,16.923c1.503,2.603,4.23,4.059,7.035,4.059c1.376,0,2.771-0.351,4.05-1.088c3.881-2.241,5.211-7.204,2.97-11.085
	L453.404,181.939z M495.884,217.6l-37.091-64.242c-4.508-7.809-11.27-12.289-18.55-12.289s-14.04,4.48-18.547,12.289l-24.316,42.113
	h-36.003l-24.315-42.113c-4.507-7.811-11.268-12.29-18.548-12.29c-7.28,0-14.042,4.48-18.548,12.289l-22.015,38.132
	c-14.98-3.785-30.431-5.704-46.026-5.705c-37.735,0-74.382,11.386-105.272,32.395V109.065c0-34.919-28.409-63.327-63.326-63.327
	C28.409,45.737,0,74.146,0,109.065v150.645c0,16.737,6.469,32.52,18.212,44.442c9.219,9.357,20.865,15.483,33.533,17.814
	c-2.176,7.679-3.871,15.517-5.047,23.476c-0.012,0.086-0.023,0.171-0.034,0.258c-0.14,1.214-0.21,2.448-0.21,3.669v93.523
	c0,12.887,10.484,23.372,23.371,23.372h53.071c3.359,0,6.47-1.067,9.031-2.867c3.386,1.851,7.226,2.867,11.208,2.867h53.069
	c8.68,0,15.743-7.062,15.743-15.742v-7.629c0-12.887-10.484-23.37-23.371-23.37h-2.937v-25.467
	c5.22-3.815,10.045-8.142,14.421-12.909h27.014v61.743c0,12.887,10.485,23.372,23.373,23.372h53.068c3.359,0,6.469-1.067,9.03-2.866
	c3.385,1.851,7.224,2.866,11.207,2.866h53.073c8.68,0,15.743-7.062,15.743-15.742v-7.629c0-12.887-10.484-23.37-23.371-23.37h-2.939
	v-27.846c4.272,0.872,8.661,1.326,13.122,1.326c17.346,0,33.653-6.756,45.919-19.02l67.665-67.633
	c12.276-12.268,19.036-28.582,19.036-45.935C512,244.618,506.284,229.452,495.884,217.6z M16.229,259.709V109.065
	c0-25.97,21.128-47.098,47.098-47.098s47.097,21.128,47.097,47.098v121.505c-0.458,0.391-0.921,0.774-1.375,1.17
	c-23.413,20.377-41.238,46.082-52.126,74.618C34.027,303.198,16.229,283.359,16.229,259.709z M188.576,435.75
	c3.938,0,7.142,3.204,7.142,7.141v7.143h-52.583c-1.663,0-3.238-0.586-4.497-1.609v-5.534c0-3.889-0.96-7.554-2.646-10.783v-50.961
	h39.792c-0.905,0.655-1.818,1.297-2.749,1.916c-2.265,1.504-3.626,4.041-3.626,6.76v37.812c0,4.481,3.632,8.115,8.115,8.115
	L188.576,435.75L188.576,435.75z M284.835,364.918c-4.483,0-8.115,3.633-8.115,8.115v54.602c0,4.481,3.632,8.115,8.115,8.115h11.053
	c3.937,0,7.141,3.204,7.141,7.141v7.143h-52.583c-3.939,0-7.144-3.204-7.144-7.143v-69.858c0-4.481-3.632-8.115-8.115-8.115H123.093
	c-2.381,0-4.643,1.046-6.185,2.862c-5.004,5.892-10.786,11.035-17.182,15.284c-2.265,1.504-3.626,4.041-3.626,6.76v37.812
	c0,4.481,3.633,8.115,8.115,8.115h11.052c3.938,0,7.143,3.204,7.143,7.141v7.143H69.825c-3.938,0-7.142-3.204-7.142-7.143v-93.523
	c0-0.564,0.03-1.132,0.091-1.693c5.958-40.102,26.172-76.923,56.931-103.694c31.093-27.062,70.948-41.965,112.222-41.965
	c12.698,0.001,25.282,1.409,37.55,4.156l-6.584,11.403c-22.581,25.676-21.38,64.493,2.891,88.764l58.61,58.582H284.835z
	 M300.383,381.147v38.811c-1.456-0.285-2.957-0.438-4.494-0.438h-2.939v-38.372H300.383z M119.762,388.038v31.921
	c-1.456-0.285-2.957-0.438-4.495-0.438h-2.937v-25.466C114.903,392.172,117.381,390.163,119.762,388.038z M267.998,281.945
	c14.308-18.254,36.247-29.028,59.547-29.028c10.339,0,18.749,8.411,18.749,18.749c0,10.338-8.41,18.749-18.749,18.749
	c-14.77,0-28.699,5.515-39.381,15.345l-10.906-10.902C273.383,290.983,270.301,286.609,267.998,281.945z M369.196,435.75
	c3.938,0,7.142,3.204,7.142,7.141v7.143h-52.586c-1.662,0-3.237-0.586-4.494-1.609v-5.534c0-3.887-0.96-7.553-2.645-10.782v-50.962
	h25.369c2.573,1.821,5.26,3.442,8.048,4.857v41.63c0,4.481,3.632,8.115,8.115,8.115h11.052V435.75z M481.491,294.869l-10.896,10.892
	c-10.681-9.831-24.611-15.346-39.381-15.346c-10.339,0-18.749-8.411-18.749-18.749s8.41-18.749,18.749-18.749
	c23.302,0,45.244,10.776,59.551,29.032C488.433,286.672,485.327,291.036,481.491,294.869z M495.69,263.147
	c-17.043-16.791-40.148-26.46-64.475-26.46c-19.287,0-34.978,15.691-34.978,34.978s15.691,34.978,34.978,34.978
	c10.415,0,20.259,3.795,27.898,10.594l-45.286,45.264c-9.202,9.201-21.436,14.269-34.446,14.269
	c-13.012,0-25.244-5.067-34.446-14.27l-45.286-45.264c7.639-6.799,17.483-10.593,27.898-10.593
	c19.287,0,34.978-15.691,34.978-34.978c0-19.287-15.691-34.978-34.978-34.978c-24.333,0-47.443,9.673-64.487,26.471
	c-0.711-12.553,3.411-25.346,12.467-35.369c0.383-0.424,0.721-0.887,1.006-1.383l37.492-64.935c1.663-2.882,3.455-4.173,4.491-4.173
	c1.038,0,2.828,1.291,4.493,4.174l26.657,46.17c1.45,2.51,4.128,4.057,7.027,4.057h45.373c2.9,0,5.577-1.547,7.027-4.057
	l26.659-46.172c1.663-2.883,3.454-4.173,4.49-4.173c1.038,0,2.829,1.291,4.494,4.174l37.505,64.959
	c0.285,0.493,0.62,0.954,1.001,1.377c8.079,8.959,12.527,20.538,12.527,32.606C495.771,261.329,495.738,262.24,495.69,263.147z
	 M331.676,181.941c-3.095-5.363-7.892-8.439-13.158-8.439c-0.001,0-0.001,0-0.001,0c-5.267,0-10.064,3.075-13.161,8.438
	l-10.666,18.474c-2.241,3.881-0.911,8.844,2.97,11.085c1.279,0.738,2.673,1.088,4.05,1.088c2.804,0,5.532-1.456,7.035-4.059
	l9.77-16.923l9.26,16.039c2.242,3.882,7.207,5.21,11.085,2.97c3.881-2.241,5.211-7.204,2.97-11.085L331.676,181.941z
	 M387.525,315.701h-16.288c-1.751,0-3.501,0.669-4.836,2.004c-2.671,2.671-2.671,7,0,9.67l8.143,8.139
	c1.335,1.335,3.087,2.003,4.835,2.003c1.751,0,3.501-0.668,4.835-2.003l8.144-8.138c1.237-1.238,2.004-2.947,2.004-4.836
	C394.362,318.763,391.3,315.701,387.525,315.701z"/>
<g>
</g>
<g>
</g>
<g>
</g>
<g>
</g>
<g>
</g>
<g>
</g>
<g>
</g>
<g>
</g>
<g>
</g>
<g>
</g>
<g>
</g>
<g>
</g>
<g>
</g>
<g>
</g>
<g>
</g>
</svg>
