<?xml version="1.0" encoding="iso-8859-1"?>
<!-- Generator: Adobe Illustrator 19.0.0, SVG Export Plug-In . SVG Version: 6.00 Build 0)  -->
<svg version="1.1" id="Layer_1" xmlns="http://www.w3.org/2000/svg" xmlns:xlink="http://www.w3.org/1999/xlink" x="0px" y="0px"
	 viewBox="0 0 512.002 512.002" style="enable-background:new 0 0 512.002 512.002;" xml:space="preserve">
<path style="fill:#7C98AB;" d="M457.744,109.027L367.786,88.53c-4.191-1.275-8.537-2.183-13.001-2.712V68.104
	c0-8.917-7.23-16.148-16.148-16.148c-8.918,0-16.148,7.231-16.148,16.148v8.46c-17.511-16.068-40.851-25.883-66.49-25.883
	c-25.639,0-48.98,9.814-66.49,25.884v-8.461c0-8.917-7.229-16.148-16.148-16.148c-8.917,0-16.148,7.231-16.148,16.148v17.717
	c-4.389,0.523-8.739,1.421-12.999,2.715l-0.001-0.006l-89.958,20.497c-26.253,4.691-46.186,27.622-46.186,55.225
	c0,22.078,12.753,41.169,31.291,50.331l178.922,101.153l0.003-0.008c7.829,4.526,16.295,7.53,24.968,9.014v68.08
	c0,23.712-19.291,43.003-43.002,43.003c-11.49,0-22.289-4.474-30.409-12.595c-4.978-4.978-13.049-4.978-18.027-0.003
	c-4.979,4.978-4.979,13.049-0.002,18.029c12.935,12.938,30.138,20.065,48.439,20.065c37.769,0,68.499-30.728,68.499-68.499v-68.08
	c8.674-1.484,17.14-4.488,24.968-9.015l0.004,0.009l178.926-101.155c18.534-9.163,31.286-28.253,31.286-50.328
	C503.932,136.649,483.999,113.718,457.744,109.027z"/>
<path style="fill:#5F7585;" d="M457.744,109.027L367.786,88.53c-4.191-1.275-8.537-2.183-13.001-2.712V68.104
	c0-8.917-7.23-16.148-16.148-16.148c-8.918,0-16.148,7.231-16.148,16.148v8.46c-17.511-16.068-40.851-25.883-66.49-25.883
	c-25.639,0-48.98,9.814-66.49,25.884v-8.461c0-8.917-7.229-16.148-16.148-16.148c-8.917,0-16.148,7.231-16.148,16.148v17.717
	c-4.389,0.523-8.739,1.421-12.999,2.715l-0.001-0.006l-89.958,20.497c-23.029,4.116-41.193,22.265-45.308,45.292
	c3.176,17.771,14.721,32.64,30.41,40.393l178.922,101.153l0.003-0.009c11.632,6.729,24.672,10.106,37.717,10.106
	c13.045,0,26.084-3.377,37.716-10.107l0.004,0.01L472.644,194.71c15.687-7.755,27.228-22.62,30.406-40.39
	C498.938,131.293,480.774,113.143,457.744,109.027z"/>
<g>
	<circle style="fill:#7C98AB;" cx="174.42" cy="208.445" r="11.261"/>
	<circle style="fill:#7C98AB;" cx="320.797" cy="238.026" r="11.26"/>
	<path style="fill:#7C98AB;" d="M331.839,261.654c0-3.05-2.474-5.524-5.524-5.524c-3.051,0-5.526,2.474-5.526,5.524
		c0,3.054,2.475,5.525,5.526,5.525C329.365,267.179,331.839,264.708,331.839,261.654z"/>
	<circle style="fill:#7C98AB;" cx="345.86" cy="225.892" r="5.525"/>
	<circle style="fill:#7C98AB;" cx="442.294" cy="173.905" r="5.525"/>
	<circle style="fill:#7C98AB;" cx="153.606" cy="238.026" r="5.525"/>
	<circle style="fill:#7C98AB;" cx="69.712" cy="149.057" r="5.525"/>
</g>
<path style="fill:#1E252B;" d="M459.358,101.12l-89.507-20.394c-2.29-0.687-4.629-1.278-6.998-1.766V68.104
	c0-13.352-10.863-24.215-24.215-24.215c-10.817,0-19.999,7.127-23.097,16.932c-17.488-11.823-38.142-18.207-59.542-18.207
	c-21.399,0-42.053,6.384-59.542,18.208c-3.098-9.806-12.28-16.933-23.097-16.933c-13.352,0-24.215,10.863-24.215,24.216v10.862
	c-2.335,0.482-4.643,1.063-6.903,1.737l-89.6,20.416C22.129,106.668,0,133.188,0,164.252c0,24.522,13.626,46.517,35.578,57.46
	L214.31,322.759c0.088,0.049,0.177,0.098,0.268,0.144c6.484,3.71,13.391,6.511,20.608,8.36v61.558
	c0,19.263-15.671,34.936-34.935,34.936c-9.334,0-18.107-3.634-24.704-10.232c-3.932-3.932-9.159-6.098-14.721-6.098
	c-5.559,0-10.784,2.164-14.716,6.094c-8.116,8.114-8.118,21.319-0.003,29.438c14.459,14.462,33.688,22.429,54.144,22.429
	c42.218,0,76.566-34.347,76.566-76.566v-61.559c7.208-1.848,14.107-4.644,20.584-8.348c0.099-0.051,0.196-0.103,0.293-0.157
	l178.737-101.049c21.948-10.945,35.571-32.939,35.571-57.458C512,133.188,489.872,106.668,459.358,101.12z M469.072,207.349
	c-0.134,0.067-0.266,0.137-0.396,0.209L290.091,308.52c-0.14,0.07-0.278,0.145-0.413,0.224c-6.896,3.989-14.396,6.696-22.29,8.046
	c-3.875,0.663-6.707,4.021-6.707,7.952v68.08c0,33.322-27.109,60.431-60.431,60.431c-16.145,0-31.321-6.286-42.733-17.7
	c-1.825-1.825-1.825-4.796-0.001-6.62c0.884-0.883,2.059-1.369,3.31-1.369c1.251,0,2.427,0.487,3.31,1.37
	c9.646,9.647,22.471,14.958,36.115,14.958c28.16,0,51.07-22.91,51.07-51.071v-68.08c0-3.93-2.832-7.289-6.707-7.952
	c-7.893-1.351-15.394-4.057-22.292-8.046c-0.128-0.073-0.257-0.144-0.388-0.21L43.329,207.56c-0.13-0.073-0.262-0.143-0.396-0.209
	c-9.752-4.819-17.3-12.556-21.871-21.862c4.311,3.899,9.182,7.239,14.516,9.899L214.31,296.435c0.095,0.053,0.189,0.104,0.286,0.154
	c12.569,7.19,26.878,10.988,41.405,10.988c14.519,0,28.819-3.794,41.384-10.976c0.103-0.053,0.205-0.109,0.308-0.165
	l178.738-101.049c5.336-2.662,10.208-6.022,14.529-9.94C486.392,194.768,478.837,202.521,469.072,207.349z M469.071,181.023
	c-0.133,0.066-0.265,0.137-0.395,0.209l-178.57,100.955c-0.145,0.072-0.288,0.151-0.429,0.231
	c-10.202,5.902-21.847,9.023-33.677,9.023c-11.83,0-23.475-3.119-33.677-9.022c-0.133-0.077-0.269-0.151-0.407-0.219L43.329,181.234
	c-0.13-0.073-0.262-0.143-0.397-0.209c-12.264-6.06-21.265-16.91-24.961-29.95c4.912-17.295,19.271-30.813,37.703-34.107
	c0.125-0.023,0.25-0.047,0.373-0.075l89.644-20.425c0.292-0.054,0.581-0.125,0.868-0.212c3.74-1.136,7.646-1.95,11.61-2.423
	c4.057-0.483,7.112-3.924,7.112-8.011V68.104c0-4.455,3.625-8.08,8.08-8.08s8.08,3.625,8.08,8.08v8.461
	c0,3.2,1.891,6.098,4.821,7.386c2.93,1.286,6.343,0.723,8.701-1.441c16.697-15.322,38.372-23.76,61.036-23.76
	c22.661,0,44.338,8.438,61.036,23.759c2.357,2.163,5.772,2.727,8.701,1.441c2.93-1.288,4.82-4.187,4.82-7.386v-8.46
	c0-4.455,3.625-8.08,8.08-8.08c4.455,0,8.08,3.625,8.08,8.08v17.714c0,4.089,3.058,7.53,7.117,8.012
	c3.967,0.47,7.872,1.283,11.604,2.419c0.183,0.056,0.368,0.105,0.555,0.147l89.958,20.497c0.124,0.028,0.247,0.054,0.373,0.075
	c18.432,3.295,32.789,16.811,37.702,34.103C490.331,164.101,481.298,174.979,469.071,181.023z M198.22,103.896
	c-3.871,0-7.011,3.14-7.011,7.012c0,3.871,3.139,7.011,7.011,7.011s7.011-3.14,7.011-7.011
	C205.232,107.036,202.094,103.896,198.22,103.896z M313.78,103.896c-3.871,0-7.011,3.14-7.011,7.012c0,3.871,3.14,7.011,7.011,7.011
	s7.011-3.14,7.011-7.011C320.791,107.036,317.651,103.896,313.78,103.896z"/>
<g>
</g>
<g>
</g>
<g>
</g>
<g>
</g>
<g>
</g>
<g>
</g>
<g>
</g>
<g>
</g>
<g>
</g>
<g>
</g>
<g>
</g>
<g>
</g>
<g>
</g>
<g>
</g>
<g>
</g>
</svg>
