<?xml version="1.0" encoding="iso-8859-1"?>
<!-- Generator: Adobe Illustrator 19.0.0, SVG Export Plug-In . SVG Version: 6.00 Build 0)  -->
<svg version="1.1" id="Layer_1" xmlns="http://www.w3.org/2000/svg" xmlns:xlink="http://www.w3.org/1999/xlink" x="0px" y="0px"
	 viewBox="0 0 512 512" style="enable-background:new 0 0 512 512;" xml:space="preserve">
<path style="fill:#454D54;" d="M164.54,373.291v-95.879H93.155v106.778c0,6.933,5.619,12.551,12.551,12.551h62.951
	c3.155,0,5.712-2.558,5.712-5.712C174.369,383.549,170.438,377.001,164.54,373.291z"/>
<path style="fill:#A4A9AD;" d="M169.988,378.238c-5.156,3.944-8.497,10.139-8.497,17.13c0,0.465,0.041,0.916,0.07,1.372h7.096
	c3.155,0,5.712-2.558,5.712-5.712C174.369,386.206,172.724,381.779,169.988,378.238z"/>
<path style="fill:#454D54;" d="M341.207,373.291v-95.879h-71.385v106.778c0,6.933,5.619,12.551,12.551,12.551h62.951
	c3.154,0,5.712-2.558,5.712-5.712C351.036,383.549,347.105,377.001,341.207,373.291z"/>
<path style="fill:#A4A9AD;" d="M346.656,378.238c-5.156,3.944-8.497,10.139-8.497,17.13c0,0.465,0.041,0.916,0.07,1.372h7.097
	c3.154,0,5.712-2.558,5.712-5.712C351.036,386.206,349.392,381.779,346.656,378.238z"/>
<path style="fill:#5C6670;" d="M273.194,141.996H115.078c-45.323,0-82.064,36.741-82.064,82.064v44.92
	c0,19.902,11.046,37.22,27.339,46.17v69.039c0,6.933,5.619,12.551,12.551,12.551h62.951c3.155,0,5.712-2.558,5.712-5.712
	c0-7.48-3.931-14.028-9.829-17.738v-51.663h105.283v62.561c0,6.933,5.619,12.551,12.551,12.551h62.951
	c3.155,0,5.712-2.558,5.712-5.712c0-7.48-3.931-14.028-9.829-17.738v-51.988c26.35-2.885,46.855-25.206,46.855-52.324v-44.92
	C355.258,178.735,318.516,141.996,273.194,141.996z"/>
<g>
	<path style="fill:#A4A9AD;" d="M137.185,378.238c-5.156,3.944-8.497,10.139-8.497,17.13c0,0.465,0.041,0.916,0.069,1.372h7.097
		c3.155,0,5.712-2.558,5.712-5.712C141.565,386.206,139.921,381.779,137.185,378.238z"/>
	<path style="fill:#A4A9AD;" d="M313.852,378.238c-5.157,3.944-8.497,10.139-8.497,17.13c0,0.465,0.041,0.916,0.07,1.372h7.095
		c3.155,0,5.712-2.558,5.712-5.712C318.233,386.206,316.588,381.779,313.852,378.238z"/>
</g>
<path style="fill:#566069;" d="M295.248,115.26c-18.969,0-36.054,8.024-48.078,20.853H115.078
	c-48.495,0-87.948,39.453-87.948,87.947v19.235c0,10.623,8.613,19.236,19.236,19.236h295.539c10.624,0,19.236-8.613,19.236-19.236
	v-3.603h0.01v-58.531C361.152,144.764,331.646,115.26,295.248,115.26z"/>
<g>
	<circle style="fill:#454D54;" cx="89.765" cy="183.568" r="7.06"/>
	<circle style="fill:#454D54;" cx="164.544" cy="161.159" r="7.06"/>
	<circle style="fill:#454D54;" cx="229.962" cy="183.568" r="7.06"/>
</g>
<path style="fill:#5C6670;" d="M449.824,180.134l0.002-0.003l-54.274-46.419c-1.538-1.465-3.151-2.849-4.842-4.141l-0.104-0.089
	l-0.003,0.005c-9.785-7.437-21.987-11.858-35.227-11.858c-32.182,0-58.272,26.09-58.272,58.273v43.535l0.036,0.035
	c0.758,24.15,20.562,43.5,44.899,43.5h77.61c25.913,0,46.918-21.005,46.918-46.919C466.568,201.635,460.058,188.741,449.824,180.134
	z"/>
<g>
	<path style="fill:#FBE298;" d="M500.823,182.908c0,0-0.45,0.555-1.237,1.522c-0.394,0.485-0.873,1.074-1.42,1.748
		c-0.276,0.338-0.571,0.698-0.88,1.08c-0.477,0.464-0.978,0.953-1.501,1.463c-1.056,1.018-2.224,2.118-3.485,3.272
		c-0.647,0.619-1.244,1.05-1.886,1.57c-0.643,0.505-1.297,1.02-1.965,1.544c-0.676,0.523-1.363,1.054-2.059,1.592
		c-0.705,0.528-1.471,0.976-2.223,1.473c-1.521,0.956-3.059,1.989-4.67,2.888c-1.635,0.845-3.293,1.682-4.942,2.496l-1.237,0.603
		c-0.422,0.168-0.843,0.333-1.261,0.499c-0.843,0.327-1.675,0.648-2.494,0.965c-1.65,0.612-3.244,1.284-4.815,1.664
		c-1.574,0.426-3.061,0.829-4.435,1.201c-1.383,0.405-2.667,0.6-3.811,0.794c-1.149,0.191-2.151,0.355-2.976,0.491
		c-1.665,0.256-2.615,0.404-2.615,0.404l-0.208,0.032c-11.391,1.757-22.05-6.051-23.807-17.442
		c-1.758-11.391,6.051-22.05,17.442-23.807c2.208-0.341,4.48-0.302,6.573,0.032c0,0,0.458,0.076,1.261,0.208
		c0.408,0.074,0.904,0.162,1.473,0.266c0.573,0.108,1.232,0.266,1.935,0.268c0.72,0.051,1.499,0.109,2.322,0.169
		c0.849,0.125,1.702,0.011,2.621-0.003c0.463-0.013,0.933-0.025,1.41-0.038l0.728-0.013l0.714-0.106
		c0.979-0.131,1.973-0.266,2.968-0.4c0.994-0.18,1.954-0.476,2.949-0.694c0.488-0.127,1.003-0.206,1.47-0.37
		c0.468-0.168,0.931-0.336,1.386-0.5c0.464-0.162,0.92-0.324,1.366-0.48c0.436-0.156,0.948-0.305,1.243-0.457
		c0.68-0.299,1.351-0.573,1.989-0.823c0.325-0.124,0.636-0.243,0.932-0.356c0.405-0.269,0.788-0.523,1.149-0.762
		c0.724-0.481,1.355-0.902,1.875-1.248c1.04-0.691,1.634-1.087,1.634-1.087c6.391-4.254,15.019-2.519,19.272,3.869
		C505.063,171.63,504.554,178.309,500.823,182.908z"/>
	<path style="fill:#FBE298;" d="M414.95,168.993c-6.173,0-11.179-5.006-11.179-11.178c0-6.175,5.005-11.18,11.179-11.18
		c8.55,0,16.898-2.344,24.142-6.777c5.263-3.221,12.146-1.567,15.37,3.701c3.222,5.265,1.566,12.145-3.7,15.369
		C440.004,165.512,427.62,168.993,414.95,168.993z"/>
</g>
<path style="fill:#A4A9AD;" d="M293.973,157.815c0,10.072,8.166,18.238,18.238,18.238s18.238-8.166,18.238-18.238H293.973z"/>
<path style="fill:#1E252B;" d="M508.295,161.985c-4.077-6.123-10.907-9.779-18.269-9.779c-4.329,0-8.526,1.27-12.14,3.675
	c-6.007,3.998-11.957,5.929-18.297,5.905c5.193-6.155,6.152-15.187,1.724-22.422c-3.52-5.752-9.65-9.186-16.399-9.186
	c-3.532,0-6.996,0.978-10.019,2.827c-5.979,3.661-12.877,5.596-19.947,5.596c-0.421,0-0.832,0.036-1.246,0.063l-12.77-10.922
	c-1.655-1.567-3.391-3.052-5.164-4.418c-0.183-0.153-0.373-0.298-0.567-0.434c-11.562-8.7-25.326-13.297-39.824-13.297
	c-9.432,0-18.488,1.984-26.723,5.598c-10.308-5.222-21.762-7.967-33.407-7.967c-19.157,0-37.707,7.559-51.44,20.853H115.078
	c-40.402,0-75.05,25.094-89.187,60.511C10.079,196.503,0,212.663,0,230.501v6.039c0,4.437,3.597,8.034,8.034,8.034
	s8.034-3.597,8.034-8.034v-6.039c0-4.926,1.186-9.65,3.313-13.868c-0.189,2.452-0.285,4.929-0.285,7.428v19.235
	c0,6.241,2.067,12.133,5.884,16.929v8.755c0,20.519,10.362,39.529,27.339,50.703v64.507c0,11.35,9.235,20.585,20.585,20.585h95.755
	c7.58,0,13.745-6.166,13.745-13.745c0-8.438-3.606-16.278-9.829-21.738v-39.63h56.411v54.528c0,11.35,9.235,20.585,20.585,20.585
	h95.755c7.58,0,13.745-6.166,13.745-13.745c0-8.439-3.606-16.278-9.829-21.738v-61.441c8.396-10.077,13.549-22.895,14.008-36.842
	h56.401c14.678,0,28.478-5.716,38.857-16.095c10.38-10.379,16.095-24.179,16.095-38.857c0-1.279-0.06-2.557-0.149-3.833
	c0.129-0.05,0.262-0.095,0.39-0.147c4.825-1.935,9.452-4.358,13.754-7.201c9.002-5.951,15.228-11.689,19.033-17.541
	C513.219,178.738,513.455,169.735,508.295,161.985z M414.95,154.67c10.032,0,19.831-2.752,28.335-7.959
	c0.502-0.307,1.052-0.464,1.63-0.464c1.11,0,2.118,0.562,2.694,1.506c0.905,1.477,0.437,3.417-1.041,4.322
	c-9.495,5.811-20.429,8.883-31.618,8.883c-1.734,0-3.145-1.41-3.145-3.144C411.805,156.081,413.215,154.67,414.95,154.67z
	 M149.498,388.706c-0.598-7.543-4.08-14.461-9.727-19.416v-39.628h16.736v43.629c0,2.762,1.418,5.33,3.757,6.801
	c3.13,1.969,5.221,5.087,5.864,8.614H149.498z M326.165,388.706c-0.598-7.543-4.079-14.461-9.727-19.415v-41.217
	c5.986-1.386,11.607-3.646,16.736-6.63v51.847c0,2.763,1.418,5.33,3.757,6.801c3.13,1.969,5.222,5.087,5.865,8.614h-16.63V388.706z
	 M307.529,313.318c-4.074,0.447-7.16,3.887-7.16,7.987v51.988c0,2.763,1.418,5.33,3.757,6.801c3.13,1.969,5.222,5.087,5.865,8.614
	h-60.42c-2.49,0-4.517-2.027-4.517-4.517v-62.561c0-4.437-3.597-8.034-8.034-8.034H131.736c-4.437,0-8.034,3.597-8.034,8.034v51.663
	c0,2.763,1.419,5.33,3.757,6.801c3.13,1.969,5.222,5.087,5.864,8.614H72.904c-2.49,0-4.517-2.027-4.517-4.517v-69.039
	c0-2.931-1.597-5.63-4.166-7.041c-14.293-7.853-23.173-22.846-23.173-39.129v-11.845c0-2.309-0.984-4.429-2.597-5.912
	c-2.121-2.118-3.287-4.925-3.287-7.928v-19.235c0-44.065,35.849-79.913,79.915-79.913H247.17c2.221,0,4.343-0.919,5.862-2.54
	c11.07-11.809,26.062-18.313,42.216-18.313c5.686,0,11.312,0.839,16.697,2.456c-7.46,6.46-13.503,14.616-17.525,24.031h-0.448
	c-4.437,0-8.034,3.597-8.034,8.034c0,4.649,1.219,9.017,3.347,12.81c-0.138,1.756-0.216,3.521-0.215,5.278v43.535
	c0,0.345,0.024,0.689,0.069,1.029c1.276,28.401,24.373,50.541,52.9,50.541h5.137C346.2,292.9,329.485,310.913,307.529,313.318z
	 M318.497,165.849c-1.734,1.359-3.916,2.17-6.286,2.17c-2.369,0-4.551-0.811-6.286-2.17H318.497z M447.146,243.55
	c-7.344,7.344-17.109,11.389-27.496,11.389h-77.61c-20.044,0-36.239-15.69-36.869-35.719c-0.005-0.168-0.016-0.335-0.032-0.502
	v-35.606c2.253,0.63,4.622,0.975,7.073,0.975c14.487,0,26.272-11.785,26.272-26.272c0-4.437-3.597-8.034-8.034-8.034h-18.013
	c8.959-14.772,25.069-24.119,42.941-24.119c11.054,0,21.539,3.524,30.328,10.193c0.042,0.033,0.084,0.065,0.125,0.097
	c1.432,1.095,2.839,2.298,4.178,3.575c0.104,0.1,0.211,0.196,0.32,0.289l8.623,7.375c-2.028,3.045-3.217,6.696-3.217,10.622
	c0,10.593,8.619,19.212,19.213,19.212c2.247,0,4.484-0.109,6.71-0.303c-2.578,5.165-3.647,11.142-2.703,17.269
	c2.189,14.195,14.192,24.498,28.54,24.498c1.474,0,2.966-0.115,4.45-0.344c2.153-0.337,4.358-0.761,6.566-1.225
	C458.294,226.982,454.285,236.412,447.146,243.55z M494.158,178.576c-2.543,3.911-7.395,8.25-14.422,12.895
	c-3.397,2.245-7.055,4.16-10.875,5.692c-3.734,1.498-7.79,2.743-12.055,3.704c-2.477,0.557-4.949,1.03-7.328,1.403
	c-0.658,0.102-1.325,0.153-1.983,0.153c-6.261,0-11.704-4.678-12.66-10.88c-1.079-6.991,3.731-13.559,10.719-14.641
	c0.468-0.073,0.973-0.108,1.543-0.108c1.411,0,3.033,0.221,4.751,0.454c1.583,0.215,3.22,0.438,4.997,0.544
	c10.411,0.628,20.508-2.255,29.943-8.534c0.967-0.645,2.088-0.984,3.238-0.984c1.974,0,3.804,0.978,4.894,2.616
	C495.957,172.446,496.84,174.454,494.158,178.576z M372.73,173.103c-4.451,0-8.059,3.609-8.059,8.059
	c0,4.451,3.608,8.057,8.059,8.057c4.451,0,8.057-3.607,8.057-8.057C380.789,176.712,377.181,173.103,372.73,173.103z"/>
<g>
</g>
<g>
</g>
<g>
</g>
<g>
</g>
<g>
</g>
<g>
</g>
<g>
</g>
<g>
</g>
<g>
</g>
<g>
</g>
<g>
</g>
<g>
</g>
<g>
</g>
<g>
</g>
<g>
</g>
</svg>
