<?xml version="1.0" encoding="iso-8859-1"?>
<!-- Generator: Adobe Illustrator 19.0.0, SVG Export Plug-In . SVG Version: 6.00 Build 0)  -->
<svg version="1.1" id="Layer_1" xmlns="http://www.w3.org/2000/svg" xmlns:xlink="http://www.w3.org/1999/xlink" x="0px" y="0px"
	 viewBox="0 0 512.001 512.001" style="enable-background:new 0 0 512.001 512.001;" xml:space="preserve">
<path style="fill:#5C6670;" d="M438.742,183.172c32.725,0,59.255,26.53,59.255,59.258c0,32.724-26.53,59.254-59.255,59.254h-81.65
	c-32.724,0-59.255-26.53-59.255-59.254c0-32.727,26.531-59.258,59.255-59.258L438.742,183.172L438.742,183.172z"/>
<path style="fill:#7D868C;" d="M503.799,203.982c-1.079-31.777-27.164-57.213-59.204-57.213h-81.649
	c-13.353,0-25.674,4.42-35.584,11.875H198.114c-46.165,0-84.584,33.076-92.91,76.816c-0.007,0.016-0.028,0.029-0.033,0.046
	c-1.598,6.212-6.558,11.07-12.824,12.53H55.831c-26.333,0-47.681,21.346-47.681,47.68s21.348,47.681,47.681,47.681h40.262
	c15.947,0,30.056-7.838,38.712-19.863c16.766,15.112,38.959,24.317,63.31,24.317h130.351c48.166,0,87.896-36.009,93.815-82.567
	h6.508c6.589,12.82,19.938,21.596,35.341,21.596c21.936,0,39.723-17.787,39.723-39.724v-41.129
	C503.851,205.341,503.834,204.66,503.799,203.982z"/>
<g>
	<path style="fill:#5C6670;" d="M363.158,324.621c0,22.427-18.183,40.611-40.612,40.611c-22.43,0-40.612-18.183-40.612-40.611
		v-55.959c0-22.428,18.182-40.611,40.612-40.611c22.428,0,40.612,18.182,40.612,40.611V324.621z"/>
	<circle style="fill:#5C6670;" cx="195.24" cy="185.265" r="3.517"/>
	<circle style="fill:#5C6670;" cx="232.054" cy="173.389" r="3.517"/>
	<circle style="fill:#5C6670;" cx="163.283" cy="180.419" r="3.517"/>
	<circle style="fill:#5C6670;" cx="211.126" cy="202.509" r="3.517"/>
	<circle style="fill:#5C6670;" cx="249.407" cy="194.49" r="3.518"/>
	<circle style="fill:#5C6670;" cx="269.379" cy="180.419" r="3.517"/>
	<circle style="fill:#5C6670;" cx="288.655" cy="169.868" r="3.517"/>
</g>
<path style="fill:#1E252B;" d="M511.941,203.63c-0.613-17.487-7.878-33.829-20.463-46.024
	c-12.635-12.244-29.285-18.987-46.883-18.987h-81.649c-13.794,0-26.948,4.098-38.212,11.875H198.114
	c-49.073,0-91.371,34.811-100.803,82.86c-0.011,0.04-0.022,0.08-0.033,0.122c-0.773,3.004-3.095,5.448-6.023,6.41H55.831
	C25.045,239.886,0,264.931,0,295.716s25.045,55.831,55.831,55.831h40.262c14.981,0,29.291-6.088,39.704-16.605
	C153.644,348.574,175.473,356,198.114,356h87.148c8.951,10.618,22.34,17.382,37.284,17.382c17.798,0,33.392-9.589,41.906-23.868
	c20.554-7.7,37.838-21.825,49.663-39.679h24.627c18.424,0,36.123-7.629,48.812-20.954c14.576-8.216,24.446-23.836,24.446-41.725
	v-41.129C512,205.223,511.982,204.425,511.941,203.63z M355.008,324.621c0,17.9-14.563,32.461-32.462,32.461
	s-32.462-14.562-32.462-32.461v-55.959c0-17.9,14.563-32.461,32.462-32.461s32.462,14.562,32.462,32.461V324.621z M438.742,293.536
	h-15.813c2.068-4.818,3.778-9.809,5.091-14.939c5.583,6.435,12.751,11.225,20.767,13.924
	C445.5,293.183,442.138,293.536,438.742,293.536z M495.701,247.155c0,17.41-14.164,31.574-31.573,31.574
	c-11.885,0-22.649-6.58-28.093-17.173c-1.396-2.716-4.194-4.424-7.249-4.424h-6.508c-4.103,0-7.567,3.051-8.084,7.122
	c-3.439,27.059-19.767,50.852-43.049,64.158c0.097-1.252,0.161-2.514,0.161-3.79v-55.959c0-26.886-21.874-48.76-48.761-48.76
	c-26.887,0-48.761,21.874-48.761,48.76v55.959c0,5.262,0.849,10.327,2.398,15.079h-78.069c-21.41,0-41.956-7.892-57.853-22.221
	c-1.721-1.551-4.023-2.309-6.324-2.049c-2.304,0.247-4.393,1.461-5.747,3.341c-7.426,10.316-19.425,16.475-32.099,16.475h-40.26
	c-21.797,0-39.532-17.733-39.532-39.532c0-21.797,17.733-39.53,39.532-39.53h36.516c0.623,0,1.243-0.071,1.849-0.212
	c9.065-2.112,16.181-8.918,18.705-17.835c0.13-0.377,0.234-0.762,0.309-1.153c7.741-40.671,43.449-70.191,84.904-70.191h129.248
	c1.767,0,3.487-0.574,4.899-1.637c8.904-6.698,19.514-10.238,30.685-10.238h81.649c27.692,0,50.12,21.672,51.059,49.34l0.007,0.143
	c0.027,0.539,0.041,1.08,0.041,1.624V247.155z M419.852,173.386c-3.885,0-7.036,3.149-7.036,7.035s3.15,7.035,7.036,7.035
	c3.886,0,7.036-3.15,7.036-7.035S423.737,173.386,419.852,173.386z"/>
<g>
</g>
<g>
</g>
<g>
</g>
<g>
</g>
<g>
</g>
<g>
</g>
<g>
</g>
<g>
</g>
<g>
</g>
<g>
</g>
<g>
</g>
<g>
</g>
<g>
</g>
<g>
</g>
<g>
</g>
</svg>
