<?xml version="1.0" encoding="iso-8859-1"?>
<!-- Generator: Adobe Illustrator 19.0.0, SVG Export Plug-In . SVG Version: 6.00 Build 0)  -->
<svg version="1.1" id="Layer_1" xmlns="http://www.w3.org/2000/svg" xmlns:xlink="http://www.w3.org/1999/xlink" x="0px" y="0px"
	 viewBox="0 0 511.999 511.999" style="enable-background:new 0 0 511.999 511.999;" xml:space="preserve">
<path style="fill:#545D66;" d="M206.976,343.444c10.388-10.387,10.388-27.226,0-37.615c-10.386-10.386-27.226-10.386-37.612,0.001
	l-56.09,56.09c20.773,20.772,54.451,20.773,75.223,0L206.976,343.444z"/>
<path style="fill:#5C6670;" d="M433.258,205.193v-70.689c-29.377-0.001-53.191,23.813-53.193,53.19v17.498H249.729v-61.215
	c-39.476,0-72.938,25.667-84.663,61.215H27.798c-10.903,0-19.744,8.84-19.744,19.746c0,0.773,0.044,1.536,0.131,2.285
	C18.838,299.32,80.972,354.65,156.031,354.65h125.567c63.808,0,118.267-39.988,139.708-96.268h29.451
	c29.376,0,53.189-23.814,53.189-53.191L433.258,205.193z"/>
<path style="fill:#7D868C;" d="M30.703,286.643c26.66,40.939,72.83,68.009,125.328,68.009h125.567
	c52.498,0,98.668-27.07,125.33-68.009H30.703z"/>
<path style="fill:#333E48;" d="M30.703,227.477c-0.54,0-1.083-0.206-1.494-0.619c-0.825-0.826-0.825-2.164,0-2.989l7.352-7.352
	c0.825-0.825,2.164-0.825,2.988,0c0.826,0.825,0.826,2.164,0,2.988l-7.351,7.352C31.786,227.27,31.245,227.477,30.703,227.477z"/>
<path style="fill:#5C6670;" d="M198.844,343.444c-10.387-10.387-10.387-27.226,0-37.615c10.386-10.386,27.226-10.386,37.612,0.001
	l56.09,56.09c-20.774,20.772-54.452,20.773-75.225,0L198.844,343.444z"/>
<path style="fill:#1E252B;" d="M93.121,225.583c-5.109,0-9.251,4.141-9.251,9.251c0,5.11,4.141,9.252,9.251,9.252
	c5.109,0,9.252-4.142,9.252-9.252C102.373,229.724,98.231,225.583,93.121,225.583z M509.642,199.496
	c-1.511-1.511-3.559-2.359-5.696-2.359h-62.633v-62.635c0-4.448-3.605-8.054-8.054-8.054c-0.002,0,0,0-0.002,0
	c-33.766,0-61.243,27.475-61.245,61.244v9.444H257.784v-53.161c0-4.448-3.606-8.054-8.054-8.054
	c-40.073,0-75.652,24.367-90.303,61.215H27.798C12.47,197.138,0,209.61,0,224.939c0,1.066,0.061,2.144,0.183,3.202
	c0.01,0.087,0.021,0.174,0.034,0.26c5.466,37,24.093,70.968,52.45,95.648c16.378,14.255,35.398,24.84,55.79,31.297l-0.877,0.877
	c-1.511,1.51-2.359,3.559-2.359,5.695c0,2.136,0.848,4.185,2.359,5.695c11.942,11.941,27.622,17.911,43.308,17.91
	c15.681-0.001,31.367-5.971,43.306-17.909l4.912-4.911h7.611l4.91,4.91c11.567,11.568,26.948,17.938,43.307,17.938
	s31.74-6.37,43.308-17.938c1.511-1.511,2.359-3.559,2.359-5.696c0-0.125-0.013-0.248-0.019-0.373
	c26.396-3.169,51.45-12.91,73.16-28.596c23.555-17.019,41.792-39.929,53.009-66.513h24.006c33.769,0,61.243-27.475,61.243-61.245
	C512,203.055,511.152,201.007,509.642,199.496z M125.175,361.411l1.476-1.476c9.626,1.826,19.458,2.771,29.381,2.771h18.581
	C159.458,372.07,139.924,371.643,125.175,361.411z M254.933,369.445c-12.057,0-23.391-4.695-31.917-13.22l-18.477-18.477
	c-7.23-7.23-7.23-18.993,0-26.224c3.502-3.502,8.157-5.43,13.11-5.43c4.953,0,9.609,1.929,13.111,5.431l49.891,49.891
	C273.155,366.635,264.258,369.445,254.933,369.445z M450.757,250.329h-29.451c-3.342,0-6.336,2.064-7.527,5.187
	c-20.113,52.799-69.133,88.223-125.352,90.894l-46.276-46.276c-6.544-6.544-15.246-10.15-24.501-10.15
	c-9.256,0-17.957,3.604-24.501,10.149c-12.693,12.694-13.457,32.865-2.3,46.463h-34.816c-34.127,0-67.079-12.323-92.788-34.698
	c-25.424-22.127-42.136-52.561-47.069-85.707c-0.044-0.415-0.065-0.836-0.065-1.252c0-6.447,5.244-11.692,11.69-11.692h137.268
	c3.476,0,6.559-2.231,7.65-5.532c10.137-30.73,37.271-52.158,68.96-55.287v52.765c0,4.448,3.606,8.054,8.054,8.054h130.335
	c4.449,0,8.054-3.606,8.054-8.054v-17.498c0.002-22.141,16.025-40.609,37.084-44.417v61.916c0,2.136,0.848,4.185,2.358,5.695
	c1.511,1.511,3.559,2.359,5.696,2.359h61.913C491.364,234.306,472.897,250.329,450.757,250.329z M164.031,243.698
	c-3.754,2.387-4.862,7.365-2.475,11.118c6.042,9.502,9.235,20.508,9.234,31.827c0,11.321-3.194,22.326-9.234,31.824
	c-2.386,3.754-1.278,8.732,2.475,11.118c1.34,0.853,2.836,1.259,4.314,1.259c2.663,0,5.27-1.32,6.805-3.734
	c7.685-12.087,11.748-26.081,11.749-40.467s-4.062-28.38-11.749-40.47C172.763,242.42,167.784,241.31,164.031,243.698z
	 M157.656,257.273c-2.387-3.754-7.365-4.862-11.119-2.475c-3.753,2.387-4.862,7.365-2.475,11.119
	c3.934,6.186,6.013,13.353,6.013,20.727s-2.079,14.541-6.013,20.727c-2.386,3.754-1.278,8.732,2.475,11.119
	c1.34,0.852,2.836,1.259,4.314,1.259c2.663,0,5.27-1.32,6.804-3.734c5.579-8.774,8.527-18.93,8.527-29.371
	C166.183,276.203,163.234,266.047,157.656,257.273z M140.122,268.397c-2.387-3.753-7.365-4.863-11.119-2.474
	c-3.753,2.386-4.862,7.364-2.475,11.118c1.821,2.864,2.785,6.185,2.785,9.603c0,3.418-0.962,6.738-2.784,9.602
	c-2.387,3.753-1.279,8.732,2.474,11.119c1.34,0.852,2.836,1.259,4.315,1.259c2.662,0,5.27-1.32,6.804-3.733
	c3.468-5.452,5.3-11.762,5.3-18.247C145.421,280.158,143.589,273.849,140.122,268.397z"/>
<g>
</g>
<g>
</g>
<g>
</g>
<g>
</g>
<g>
</g>
<g>
</g>
<g>
</g>
<g>
</g>
<g>
</g>
<g>
</g>
<g>
</g>
<g>
</g>
<g>
</g>
<g>
</g>
<g>
</g>
</svg>
