<?xml version="1.0" encoding="iso-8859-1"?>
<!-- Generator: Adobe Illustrator 19.0.0, SVG Export Plug-In . SVG Version: 6.00 Build 0)  -->
<svg version="1.1" id="Layer_1" xmlns="http://www.w3.org/2000/svg" xmlns:xlink="http://www.w3.org/1999/xlink" x="0px" y="0px"
	 viewBox="0 0 512.002 512.002" style="enable-background:new 0 0 512.002 512.002;" xml:space="preserve">
<path style="fill:#333E48;" d="M129.883,454.382c20.048,20.047,52.543,20.047,72.59,0c20.045-20.044,20.046-52.545-0.002-72.589
	L98.264,277.587c-40.088,40.088-40.09,105.083-0.001,145.175L129.883,454.382z"/>
<path style="fill:#2D3740;" d="M175.351,373.503c-36.03,0-65.239,29.208-65.239,65.238c0,11.295,2.872,21.919,7.924,31.181h-6.879
	c-9.405,0-17.03,7.626-17.03,17.03v9.342c0,4.246,3.441,7.687,7.687,7.687h73.536c36.031,0,65.24-29.21,65.24-65.24
	S211.383,373.503,175.351,373.503z"/>
<path style="fill:#DADBDC;" d="M117.549,469.921h-6.392c-9.405,0-17.03,7.626-17.03,17.03v9.342c0,4.246,3.441,7.687,7.687,7.687
	h33.103c0.014-0.434,0.033-0.867,0.033-1.303C134.951,489.045,128.05,477.025,117.549,469.921z"/>
<path style="fill:#2D3740;" d="M362.526,373.503c36.03,0,65.239,29.208,65.239,65.238c0,11.295-2.873,21.919-7.924,31.181h6.88
	c9.403,0,17.029,7.626,17.029,17.03v9.342c0,4.246-3.441,7.687-7.687,7.687h-73.536c-36.031,0-65.24-29.21-65.24-65.24
	S326.496,373.503,362.526,373.503z"/>
<path style="fill:#DADBDC;" d="M420.33,469.921h6.392c9.403,0,17.029,7.626,17.029,17.03v9.342c0,4.246-3.441,7.687-7.687,7.687
	H402.96c-0.014-0.434-0.033-0.867-0.033-1.303C402.927,489.045,409.829,477.025,420.33,469.921z"/>
<path style="fill:#333E48;" d="M209.091,503.98h119.493c26.551,0,48.28-21.726,48.28-48.278V301.598
	c0-59.661-48.366-108.026-108.028-108.026c-59.66,0-108.026,48.364-108.026,108.026v154.104
	C160.81,482.255,182.537,503.98,209.091,503.98z"/>
<path style="fill:#FFFFFF;" d="M268.94,304.943c-31.849,0-57.665,25.819-57.665,57.665v141.374h115.33V362.607
	C326.604,330.761,300.787,304.943,268.94,304.943z"/>
<path style="fill:#333E48;" d="M338.165,16.141C348.871,5.35,366.3,5.278,377.093,15.985c5.395,5.351,8.111,12.386,8.141,19.43
	l0.001,0.001l0.53,130.163l-69.475,0.283c-20.66,0.084-37.475-16.595-37.559-37.255l-0.214-52.329L338.165,16.141z"/>
<path style="fill:#FF9C9F;" d="M364.867,152.637l-0.45-110.622c-0.006-1.23-0.32-3.61-2.363-5.636
	c-2.043-2.025-4.42-2.319-5.655-2.314c-1.235,0.004-3.608,0.32-5.635,2.36l-53.947,54.387l0.18,44.236
	c0.04,9.851,8.086,17.832,17.937,17.791L364.867,152.637z"/>
<path style="fill:#333E48;" d="M198.457,16.712c-10.793-10.705-28.221-10.633-38.926,0.158c-5.352,5.395-8.011,12.452-7.984,19.495
	l-0.002,0.002l0.53,130.163l69.475-0.284c20.66-0.083,37.339-16.899,37.255-37.558l-0.213-52.331L198.457,16.712z"/>
<path style="fill:#FF9C9F;" d="M172.869,153.417l-0.45-110.621c-0.004-1.231,0.29-3.612,2.317-5.656
	c2.025-2.041,4.4-2.355,5.635-2.361c1.235-0.005,3.612,0.29,5.654,2.315l54.388,53.947l0.18,44.236
	c0.041,9.85-7.941,17.896-17.791,17.936L172.869,153.417z"/>
<path style="fill:#333E48;" d="M385.765,165.579c-0.262-64.533-52.789-116.633-117.32-116.369
	c-64.308,0.26-116.264,52.425-116.364,116.652h-0.005v27.234h0.009c-0.001,0.319-0.01,0.634-0.009,0.953
	c0.263,64.533,52.789,116.632,117.32,116.37c64.533-0.262,116.632-52.789,116.369-117.321v-27.234h-0.002
	C385.763,165.768,385.766,165.673,385.765,165.579z"/>
<path style="fill:#FFFFFF;" d="M359.051,148.719c-0.123-30.048-24.579-54.307-54.628-54.184c-8.13,0.033-15.83,1.859-22.744,5.086
	l-0.042-10.303c-0.03-7.197-5.887-13.007-13.081-12.976c-7.196,0.027-13.006,5.886-12.977,13.079l0.042,10.305
	c-6.94-3.17-14.654-4.934-22.785-4.901c-30.047,0.122-54.306,24.579-54.184,54.628l0.073,17.976
	c0.055,13.436,4.987,25.707,13.1,35.169h-0.001l51.135,59.789c6.057,7.955,15.639,13.075,26.408,13.031
	c10.768-0.044,20.308-5.24,26.301-13.243l50.647-60.207h-0.001c8.035-9.525,12.867-21.836,12.811-35.273L359.051,148.719z"/>
<path style="fill:#FF9C9F;" d="M268.837,212.564c-4.746,4.007-10.553,6.795-16.937,7.894v15.894c0,9.355,7.583,16.938,16.937,16.938
	s16.938-7.583,16.938-16.938v-15.894C279.39,219.36,273.584,216.572,268.837,212.564z"/>
<g>
	<circle style="fill:#0075C9;" cx="213.013" cy="149.717" r="8.833"/>
	<circle style="fill:#0075C9;" cx="324.657" cy="149.717" r="8.833"/>
</g>
<path style="fill:#333E48;" d="M280.164,182.299c-5.639,5.898-15.073,6.101-20.963,0.46l-6.573-6.292
	c-5.893-5.643-4.037-10.288,4.122-10.321l24.187-0.099c8.159-0.032,10.219,4.767,4.578,10.659L280.164,182.299z"/>
<path style="fill:#2D3740;" d="M240.592,348.776c0-15.757-12.774-28.531-28.531-28.531c-15.757,0-28.531,12.773-28.531,28.531
	v121.146h-23.65c-9.406,0-17.028,7.626-17.028,17.03v9.342c0,4.246,3.44,7.687,7.686,7.687h73.026
	c9.403,0,17.028-7.624,17.028-17.03L240.592,348.776L240.592,348.776z"/>
<path style="fill:#DADBDC;" d="M183.53,438.742v31.178h-23.65c-9.406,0-17.028,7.626-17.028,17.03v9.342
	c0,4.246,3.44,7.687,7.686,7.687h73.026c9.403,0,17.028-7.624,17.028-17.03v-48.208L183.53,438.742L183.53,438.742z"/>
<path style="fill:#2D3740;" d="M297.286,348.776c0-15.757,12.775-28.531,28.531-28.531s28.531,12.773,28.531,28.531v121.146h23.649
	c9.406,0,17.028,7.626,17.028,17.03v9.342c0,4.246-3.44,7.687-7.685,7.687h-73.026c-9.403,0-17.028-7.624-17.028-17.03V348.776z"/>
<path style="fill:#DADBDC;" d="M354.348,438.742v31.178h23.649c9.406,0,17.028,7.626,17.028,17.03v9.342
	c0,4.246-3.44,7.687-7.685,7.687h-73.026c-9.403,0-17.028-7.624-17.028-17.03v-48.208L354.348,438.742L354.348,438.742z"/>
<path style="fill:#1E252B;" d="M320.659,70.613c14.811,8.139,27.724,19.818,37.34,33.775c1.525,2.212,4.015,3.469,6.603,3.469
	c0.788,0,1.585-0.117,2.366-0.358c3.349-1.035,5.638-4.124,5.652-7.63l0.232-57.043c0.01-2.474-0.581-7.236-4.643-11.334
	c-4.06-4.093-8.819-4.722-11.359-4.732c-4.249,0-8.251,1.648-11.269,4.64l-26.707,26.49c-1.795,1.781-2.645,4.303-2.294,6.807
	C316.931,67.203,318.443,69.395,320.659,70.613z M356.815,42.764l-0.143,35.077c-5.877-5.883-12.331-11.184-19.24-15.791
	L356.815,42.764z M179.254,104.389c9.616-13.957,22.529-25.637,37.34-33.775c2.215-1.219,3.727-3.411,4.079-5.914
	c0.352-2.504-0.499-5.026-2.294-6.807L191.67,31.401c-3.017-2.992-7.019-4.639-11.333-4.639c-2.474,0.011-7.233,0.639-11.295,4.734
	c-4.06,4.096-4.651,8.858-4.641,11.334l0.232,57.041c0.014,3.505,2.303,6.595,5.652,7.63c0.782,0.242,1.578,0.358,2.366,0.358
	C175.238,107.858,177.729,106.601,179.254,104.389z M199.806,62.059c-6.911,4.611-13.37,9.917-19.248,15.806l-0.181-35.077
	L199.806,62.059z M431.854,462.431c2.588-7.592,3.93-15.614,3.93-23.69c0-16.698-5.769-33.036-16.243-46.003
	c-8.997-11.138-21.139-19.427-34.659-23.77v-67.369c0-15.258-2.925-30.068-8.701-44.083c11.621-19.451,17.695-41.638,17.602-64.419
	l-0.001-27.24l0.001-0.308l-0.531-130.165c-0.041-9.496-3.774-18.406-10.512-25.09c-13.915-13.803-36.466-13.712-50.269,0.201
	l-33.954,34.232c-9.819-2.389-19.92-3.583-30.106-3.535c-10.18,0.042-20.274,1.312-30.075,3.781l-34.233-33.955
	c-13.915-13.8-36.464-13.709-50.265,0.204c-6.645,6.697-10.303,15.57-10.31,25c-0.001,0.06-0.002,0.119-0.002,0.179l0.53,130.131
	v26.565c0,0.096,0.001,0.191,0.005,0.287l-0.001,0.012c-0.003,0.231-0.005,0.462-0.004,0.688
	c0.091,22.388,6.129,44.169,17.501,63.274c-5.818,14.06-8.766,28.922-8.766,44.244v19.176l-48.857-48.856
	c-3.132-3.131-8.209-3.131-11.341,0c-43.15,43.151-43.151,113.363,0,156.516l9.518,9.517c-0.003,0.264-0.017,0.526-0.017,0.79
	c0,8.077,1.342,16.099,3.93,23.69C94.668,464.808,86.11,474.9,86.11,486.953v9.343c0,8.66,7.046,15.706,15.706,15.706h334.249
	c8.66,0,15.706-7.046,15.706-15.706v-9.343C451.77,474.899,443.212,464.806,431.854,462.431z M160.094,194.009l0.009-0.886
	c0.001-0.13-0.002-0.261-0.009-0.391V166.5l-0.529-130.006c0.001-0.053,0.001-0.106,0.001-0.158
	c-0.02-5.212,1.989-10.119,5.658-13.817c7.573-7.638,19.95-7.688,27.586-0.112l37.519,37.214c2.074,2.057,5.101,2.822,7.904,2.002
	c9.789-2.872,19.965-4.348,30.245-4.39c10.304-0.04,20.471,1.354,30.28,4.143c2.809,0.798,5.831,0.009,7.887-2.067l37.213-37.518
	c7.575-7.636,19.951-7.686,27.588-0.111c3.697,3.668,5.747,8.559,5.77,13.77l0.53,130.188c0,0.094-0.001,0.188,0,0.281v27.212
	c0.087,21.149-5.906,41.68-17.328,59.374c-1.482,2.294-1.693,5.188-0.559,7.675c5.964,13.083,8.988,27.018,8.988,41.421v154.104
	c0,2.085-0.167,4.156-0.486,6.2h-5.992V348.776c0-20.154-16.396-36.55-36.55-36.55c-4.331,0-8.487,0.761-12.347,2.151
	c-6.209-5.724-13.486-10.266-21.362-13.236c-1.344-0.508-2.8-0.645-4.217-0.395c-6.103,1.072-12.335,1.627-18.528,1.653
	c-6.48,0.051-13.032-0.526-19.4-1.644c-1.418-0.249-2.875-0.111-4.22,0.396c-7.866,2.971-15.134,7.51-21.336,13.228
	c-3.859-1.39-8.016-2.152-12.347-2.152c-20.154,0-36.55,16.396-36.55,36.55v113.127h-6.195c-0.32-2.044-0.488-4.115-0.488-6.2
	V301.598c0-14.457,3.044-28.439,9.047-41.556c1.138-2.485,0.931-5.378-0.548-7.677C166.139,234.974,160.178,214.798,160.094,194.009
	z M346.329,348.776v81.948h-41.024v-81.948c0-11.31,9.201-20.512,20.512-20.512C337.128,328.264,346.329,337.466,346.329,348.776z
	 M105.054,418.213l-1.119-1.121c-34.988-34.99-36.798-90.784-5.431-127.926l54.29,54.289v25.581
	c-13.437,4.362-25.503,12.621-34.454,23.702C112.241,400.285,107.752,408.975,105.054,418.213z M102.147,495.962v-9.011
	c0-4.969,4.043-9.011,9.011-9.011h3.766c5.776,4.557,9.726,10.936,11.272,18.021h-24.049V495.962z M136.321,478.449
	c-3.005-5.071-6.954-9.599-11.716-13.303c-4.224-8.101-6.473-17.201-6.473-26.406c0-23.387,13.834-43.784,34.66-52.624v69.586
	c0,2.381,0.159,4.75,0.458,7.098C145.394,464.96,139.07,470.854,136.321,478.449z M232.573,486.951c0,4.968-4.042,9.011-9.009,9.011
	H150.87v-9.011c0-4.969,4.042-9.011,9.009-9.011h23.65c4.429,0,8.019-3.589,8.019-8.019v-23.16h41.024L232.573,486.951
	L232.573,486.951z M232.573,430.723h-41.024v-81.948c0-11.31,9.201-20.512,20.512-20.512s20.512,9.201,20.512,20.512V430.723z
	 M290.95,495.962h-44.022c1.083-2.798,1.683-5.835,1.683-9.011V348.776c0-9.808-3.891-18.719-10.2-25.289
	c3.396-2.65,7.12-4.868,11.069-6.556c6.572,1.027,13.276,1.562,19.949,1.506c6.325-0.025,12.688-0.535,18.949-1.515
	c3.957,1.688,7.688,3.91,11.09,6.565c-6.309,6.571-10.2,15.482-10.2,25.289v138.175C289.267,490.127,289.868,493.164,290.95,495.962
	z M387.007,495.962h-72.694c-4.967,0-9.009-4.042-9.009-9.011v-40.189h41.024v23.16c0,4.43,3.59,8.019,8.019,8.019h23.65
	c4.968,0,9.009,4.042,9.009,9.011V495.962z M401.558,478.449c-2.772-7.66-9.178-13.59-17.125-15.705
	c0.294-2.329,0.45-4.679,0.45-7.042v-69.674c20.94,8.792,34.863,29.247,34.863,52.713c0,9.205-2.25,18.304-6.473,26.406
	C408.511,468.85,404.563,473.378,401.558,478.449z M435.732,495.962h-24.049c1.545-7.085,5.497-13.465,11.271-18.021h3.767
	c4.969,0,9.011,4.042,9.011,9.011V495.962z M236.724,267.436c7.836,10.172,19.668,16.001,32.5,16.001h0.174
	c12.902-0.052,24.748-5.977,32.543-16.264l50.501-60.032c9.54-11.31,14.761-25.685,14.7-40.476l-0.073-17.976
	c-0.14-34.281-28.141-62.17-62.419-62.17h-0.261c-5.03,0.021-9.964,0.631-14.759,1.82c-0.544-11.119-9.783-20.012-21.106-20.012
	c-5.623,0.021-10.9,2.231-14.859,6.224c-3.736,3.767-5.877,8.692-6.088,13.959c-4.723-1.131-9.575-1.7-14.515-1.7h-0.259
	c-16.674,0.067-32.324,6.625-44.066,18.464c-11.743,11.838-18.173,27.542-18.104,44.215l0.073,17.976
	c0.061,14.79,5.398,29.121,15.023,40.348L236.724,267.436z M200.124,116.566c8.726-8.797,20.355-13.669,32.745-13.72h0.194
	c6.691,0,13.159,1.404,19.227,4.176c2.487,1.134,5.382,0.925,7.68-0.557c2.298-1.483,3.681-4.034,3.67-6.77l-0.042-10.304
	c-0.005-1.338,0.51-2.598,1.453-3.548c0.942-0.951,2.197-1.475,3.563-1.481c2.748,0,4.993,2.239,5.005,4.989l0.042,10.303
	c0.011,2.735,1.416,5.276,3.725,6.74c2.311,1.464,5.207,1.651,7.685,0.495c6.103-2.848,12.625-4.306,19.385-4.334h0.196
	c25.47,0,46.277,20.724,46.381,46.197l0.073,17.976c0.045,10.988-3.834,21.668-10.928,30.079l-50.647,60.207
	c-0.097,0.115-0.191,0.235-0.282,0.356c-4.749,6.342-12.008,9.997-19.916,10.03h-0.107c-7.863,0-15.112-3.598-19.888-9.87
	c-0.092-0.12-0.187-0.238-0.287-0.354l-51.141-59.796c-7.156-8.347-11.123-18.994-11.168-29.981l-0.073-17.976
	C186.62,137.032,191.399,125.363,200.124,116.566z"/>
<g>
</g>
<g>
</g>
<g>
</g>
<g>
</g>
<g>
</g>
<g>
</g>
<g>
</g>
<g>
</g>
<g>
</g>
<g>
</g>
<g>
</g>
<g>
</g>
<g>
</g>
<g>
</g>
<g>
</g>
</svg>
