<?xml version="1.0" encoding="iso-8859-1"?>
<!-- Generator: Adobe Illustrator 19.0.0, SVG Export Plug-In . SVG Version: 6.00 Build 0)  -->
<svg version="1.1" id="Layer_1" xmlns="http://www.w3.org/2000/svg" xmlns:xlink="http://www.w3.org/1999/xlink" x="0px" y="0px"
	 viewBox="0 0 512 512" style="enable-background:new 0 0 512 512;" xml:space="preserve">
<g>
	<path style="fill:#826940;" d="M363.7,421.363c-41.74,0-75.579-33.839-75.579-75.578v-85.277c0-20.87,16.919-37.789,37.789-37.789
		c20.87,0,37.79,16.919,37.79,37.789L363.7,421.363L363.7,421.363z"/>
	<path style="fill:#826940;" d="M208.661,421.363c-41.742,0-75.578-33.839-75.578-75.578v-85.277
		c0-20.87,16.918-37.789,37.789-37.789c20.87,0,37.789,16.919,37.789,37.789V421.363z"/>
</g>
<path style="fill:#65513C;" d="M483.963,282.018H8.067v61.277h381.914l55.169,55.171c2.177,2.178,5.033,3.266,7.887,3.266
	c2.854,0,5.709-1.088,7.887-3.266c4.356-4.356,4.356-11.418,0-15.774l-39.396-39.397h62.435V282.018z"/>
<path style="fill:#05CE7C;" d="M444.281,366.048c-16.474,16.473-16.474,43.181,0,59.652c16.471,16.473,43.179,16.473,59.652,0
	L444.281,366.048z"/>
<path style="fill:#9C7F4D;" d="M362.145,110.749H59.191c-9.822,0-17.786,7.961-17.786,17.785c0,8.829,6.442,16.135,14.876,17.526
	c-10.282,14.129-16.363,31.511-16.363,50.323c0,25.352,11.025,48.122,28.532,63.801c-0.001,0.109-0.009,0.216-0.009,0.325v160.854
	c41.741,0,75.578-33.839,75.578-75.578v-63.767h79.459v139.346c41.741,0,75.578-33.839,75.578-75.578v-63.767h63.088
	c47.295,0,85.634-38.34,85.634-85.635C447.779,149.088,409.44,110.749,362.145,110.749z"/>
<circle style="fill:#967A4A;" cx="362.145" cy="175.919" r="106.105"/>
<path style="fill:#9C7F4D;" d="M428.785,164.397c0-36.804-29.835-66.64-66.64-66.64s-66.64,29.836-66.64,66.64
	c0,9.423,1.966,18.383,5.493,26.509l-0.004,0.011l0.11,0.222c0.829,1.893,1.741,3.739,2.738,5.534l14.762,29.849l0.004-0.002
	c7.723,16.29,24.312,27.557,43.538,27.557s35.815-11.269,43.537-27.558l0.002,0.003l14.771-29.862
	c0.988-1.782,1.892-3.616,2.717-5.494l0.124-0.248l-0.005-0.013C426.819,182.779,428.785,173.821,428.785,164.397z"/>
<path style="fill:#333E48;" d="M333.956,160.781c-4.07-14.64-19.236-23.211-33.875-19.144l-41.571,11.551
	c-1.599,7.326-2.466,14.924-2.466,22.729c0,11.73,1.932,23.002,5.447,33.55l53.318-14.814
	C329.451,190.587,338.021,175.42,333.956,160.781z"/>
<circle style="fill:#5C6670;" cx="310.711" cy="164.83" r="10.161"/>
<path style="fill:#333E48;" d="M390.335,160.781c4.07-14.64,19.236-23.211,33.874-19.144l41.57,11.551
	c1.6,7.326,2.467,14.924,2.467,22.729c0,11.73-1.932,23.002-5.447,33.55l-53.32-14.814
	C394.841,190.587,386.269,175.42,390.335,160.781z"/>
<circle style="fill:#5C6670;" cx="413.579" cy="164.83" r="10.162"/>
<path style="fill:#1E252B;" d="M355.078,206.076c4.683,4.521,12.212,4.388,16.729-0.298l4.287-4.446
	c4.52-4.685,2.892-8.52-3.617-8.52h-19.301c-6.509,0-8.004,3.7-3.321,8.222L355.078,206.076z M509.637,419.996l-59.652-59.652
	c-0.003-0.003-0.008-0.006-0.011-0.01l-8.972-8.971h42.961c4.456,0,8.067-3.612,8.067-8.067v-61.277
	c0-4.455-3.611-8.067-8.067-8.067h-63.369c33.345-19.956,55.72-56.429,55.72-98.034c0-62.952-51.215-114.168-114.168-114.168
	c-35.103,0-66.552,15.929-87.512,40.934H59.191c-14.255,0-25.852,11.597-25.852,25.851c0,8.694,4.262,16.459,10.973,21.156
	c-8.179,14.162-12.459,30.12-12.459,46.693c0,25.371,10.351,49.691,28.523,67.301v10.267H8.067c-4.455,0-8.067,3.612-8.067,8.067
	v61.277c0,4.455,3.612,8.067,8.067,8.067h52.309v90.82c0,4.455,3.612,8.067,8.067,8.067s8.067-3.612,8.067-8.067v-13.15
	c1.026-0.099,2.04-0.23,3.056-0.366v13.515c0,4.455,3.612,8.067,8.067,8.067c4.455,0,8.067-3.612,8.067-8.067v-17.336
	c1.028-0.356,2.046-0.73,3.056-1.124v18.461c0,4.455,3.612,8.067,8.067,8.067s8.067-3.612,8.067-8.067v-26.871
	c7.839-5.254,14.744-11.794,20.411-19.32c5.734,7.652,12.667,14.181,20.464,19.386v26.805c0,4.455,3.612,8.067,8.067,8.067
	s8.067-3.612,8.067-8.067v-18.415c1.01,0.392,2.03,0.76,3.056,1.113v17.302c0,4.455,3.612,8.067,8.067,8.067
	s8.067-3.612,8.067-8.067v-13.494c1.014,0.134,2.033,0.25,3.056,0.347v13.147c0,4.455,3.612,8.067,8.067,8.067
	s8.067-3.612,8.067-8.067v-90.82h5.139v44.044c-0.063,0.407-0.105,0.82-0.105,1.243v45.532c0,4.455,3.612,8.067,8.067,8.067
	c4.455,0,8.067-3.612,8.067-8.067v-13.141c1.025-0.097,2.041-0.226,3.056-0.36v13.501c0,4.455,3.612,8.067,8.067,8.067
	s8.067-3.612,8.067-8.067v-17.299c1.028-0.354,2.046-0.726,3.056-1.119v18.419c0,4.455,3.611,8.067,8.067,8.067
	c4.456,0,8.067-3.612,8.067-8.067v-26.804c9.436-6.304,17.514-14.479,23.723-23.984c6.254,9.663,14.348,17.803,23.713,24.044v26.744
	c0,4.455,3.611,8.067,8.067,8.067c4.456,0,8.067-3.612,8.067-8.067v-18.379c1.009,0.39,2.03,0.758,3.056,1.11v17.269
	c0,4.455,3.611,8.067,8.067,8.067c4.456,0,8.067-3.612,8.067-8.067v-13.495c1.013,0.133,2.033,0.248,3.056,0.346v13.149
	c0,4.455,3.611,8.067,8.067,8.067c4.456,0,8.067-3.612,8.067-8.067v-90.82h14.873l37.686,37.687
	c-0.303,2.245-0.468,4.522-0.468,6.824c0,13.422,5.227,26.04,14.718,35.529c9.49,9.491,22.108,14.718,35.529,14.718
	c13.422,0,26.041-5.227,35.531-14.718C512.787,428.254,512.787,423.146,509.637,419.996z M60.376,335.229H16.134v-45.144h44.243
	V335.229z M362.145,77.882c54.057,0,98.034,43.978,98.034,98.034s-43.978,98.034-98.034,98.034s-98.035-43.978-98.035-98.034
	S308.088,77.882,362.145,77.882z M194.141,412.818c-1.025-0.123-2.043-0.275-3.056-0.443V396.65c0-4.455-3.612-8.067-8.067-8.067
	s-8.067,3.612-8.067,8.067v10.92c-1.031-0.454-2.049-0.937-3.056-1.441v-9.479c0-4.455-3.612-8.067-8.067-8.067
	c-3.88,0-7.118,2.741-7.89,6.391c-4.414-4.156-8.3-8.939-11.52-14.265c4.17-9.036,6.772-18.931,7.462-29.347h42.259v61.456H194.141z
	 M215.413,335.229h-63.325v-45.144h63.325L215.413,335.229L215.413,335.229z M290.992,282.018v63.767
	c0,19.386-8.214,36.888-21.343,49.213c-0.763-3.662-4.008-6.415-7.897-6.415c-4.456,0-8.067,3.612-8.067,8.067v9.487
	c-1.005,0.505-2.023,0.986-3.056,1.441V396.65c0-4.455-3.612-8.067-8.067-8.067s-8.067,3.612-8.067,8.067v15.745
	c-0.977,0.16-1.96,0.304-2.95,0.423v-130.8c0-4.455-3.612-8.067-8.067-8.067H144.02c-4.455,0-8.067,3.612-8.067,8.067v63.767
	c0,19.343-8.179,36.81-21.258,49.13c-0.795-3.621-4.016-6.333-7.875-6.333c-4.455,0-8.067,3.612-8.067,8.067v9.434
	c-1.005,0.507-2.023,0.988-3.056,1.447v-10.88c0-4.455-3.612-8.067-8.067-8.067c-4.455,0-8.067,3.612-8.067,8.067v15.729
	c-1.011,0.168-2.03,0.315-3.056,0.438V260.583l0.008-0.32c0.023-2.321-0.956-4.539-2.685-6.088
	c-16.426-14.711-25.847-35.776-25.847-57.792c0-16.496,5.124-32.255,14.818-45.575c1.647-2.263,2.003-5.218,0.941-7.806
	c-1.062-2.59-3.389-4.444-6.15-4.899c-4.707-0.777-8.123-4.8-8.123-9.567c0-5.358,4.359-9.718,9.719-9.718h204.121
	c-9.748,16.807-15.335,36.312-15.335,57.1c0,41.605,22.375,78.079,55.72,98.034h-4.639
	C294.602,273.951,290.992,277.563,290.992,282.018z M355.633,412.823c-1.025-0.122-2.043-0.274-3.056-0.441V396.65
	c0-4.455-3.611-8.067-8.067-8.067c-4.456,0-8.067,3.612-8.067,8.067v10.954c-1.033-0.453-2.049-0.935-3.056-1.437v-9.517
	c0-4.455-3.611-8.067-8.067-8.067c-3.897,0-7.147,2.762-7.901,6.434c-6.26-5.896-11.434-13.048-15.146-21.191
	c2.534-7.099,4.126-14.635,4.643-22.464h48.715v61.46H355.633z M415.823,348.999l17.508,17.509c-1.243,1.719-2.373,3.503-3.381,5.35
	l-34.266-34.268c-1.513-1.513-3.566-2.363-5.705-2.363h-82.856v-45.144h55.02c0.52,0,1.037-0.013,1.554-0.02v0.02h112.197v45.144
	h-54.368c-3.262,0-6.205,1.965-7.453,4.98C412.827,343.222,413.517,346.692,415.823,348.999z M474.105,429.989
	c-9.112,0-17.678-3.548-24.122-9.993c-6.444-6.443-9.993-15.01-9.993-24.121c0-6.359,1.728-12.453,4.964-17.745l46.896,46.896
	C486.558,428.26,480.464,429.989,474.105,429.989z"/>
<g>
</g>
<g>
</g>
<g>
</g>
<g>
</g>
<g>
</g>
<g>
</g>
<g>
</g>
<g>
</g>
<g>
</g>
<g>
</g>
<g>
</g>
<g>
</g>
<g>
</g>
<g>
</g>
<g>
</g>
</svg>
