<?xml version="1.0" encoding="iso-8859-1"?>
<!-- Generator: Adobe Illustrator 19.0.0, SVG Export Plug-In . SVG Version: 6.00 Build 0)  -->
<svg version="1.1" id="Layer_1" xmlns="http://www.w3.org/2000/svg" xmlns:xlink="http://www.w3.org/1999/xlink" x="0px" y="0px"
	 viewBox="0 0 512 512" style="enable-background:new 0 0 512 512;" xml:space="preserve">
<circle style="fill:#2D3740;" cx="256.003" cy="235.822" r="128.517"/>
<path style="fill:#E94F3D;" d="M256,107.302c-16.405,0-32.085,3.077-46.507,8.679c4.078,21.986,23.341,38.638,46.507,38.638
	c23.166,0,42.43-16.652,46.509-38.638C288.086,110.38,272.405,107.302,256,107.302z"/>
<circle style="fill:#333E48;" cx="256.003" cy="310.456" r="87.079"/>
<g>
	<circle style="fill:#7D868C;" cx="215.039" cy="290.695" r="11.054"/>
	<circle style="fill:#7D868C;" cx="238.339" cy="299.398" r="8.707"/>
	<circle style="fill:#7D868C;" cx="296.966" cy="290.695" r="11.054"/>
	<circle style="fill:#7D868C;" cx="273.666" cy="299.398" r="8.708"/>
</g>
<path style="fill:#1E252B;" d="M511.509,275.312l-54.395-149.106c-0.862-2.359-2.772-4.185-5.17-4.934
	c-2.395-0.751-5.004-0.343-7.06,1.106l-68.757,48.486c-23.141-42.625-68.31-71.63-120.127-71.63
	c-51.816,0-96.985,29.005-120.126,71.63l-68.758-48.486c-2.055-1.45-4.663-1.855-7.06-1.106c-2.397,0.75-4.307,2.575-5.169,4.934
	L0.491,275.312c-1.528,4.187,0.628,8.817,4.815,10.344c0.913,0.333,1.846,0.491,2.764,0.491c3.294,0,6.387-2.032,7.581-5.306
	L66.433,141.64l62.502,44.075c-1.404,3.547-2.654,7.168-3.761,10.851l-43.847-31.127c-2.054-1.458-4.669-1.873-7.069-1.125
	c-2.402,0.748-4.319,2.575-5.181,4.939L14.682,318.358c-1.528,4.187,0.628,8.817,4.815,10.344c0.913,0.333,1.846,0.491,2.764,0.491
	c3.294,0,6.387-2.032,7.581-5.306l50.77-139.169l40.629,28.842c-0.535,3.244-0.954,6.526-1.253,9.843l-23.718-16.52
	c-2.056-1.432-4.659-1.824-7.045-1.072c-2.387,0.755-4.288,2.576-5.146,4.928L29.682,359.843c-1.528,4.187,0.628,8.817,4.815,10.344
	c0.913,0.333,1.846,0.491,2.764,0.491c3.293,0,6.386-2.032,7.581-5.306l50.805-139.259l23.954,16.686
	c0.193,3.752,0.536,7.481,1.031,11.178l-7.19-5.008c-2.056-1.431-4.659-1.824-7.045-1.072c-2.387,0.755-4.288,2.576-5.146,4.928
	L46.853,401.931c-1.528,4.187,0.628,8.817,4.815,10.344c0.913,0.333,1.846,0.491,2.764,0.491c3.294,0,6.387-2.032,7.581-5.306
	l50.805-139.261l13.06,9.097c7.307,22.921,20.617,43.734,38.882,60.145c11.663,39.359,48.15,68.156,91.242,68.156
	c43.085,0,79.565-28.789,91.235-68.137c18.24-16.383,31.548-37.235,38.867-60.15l13.081-9.113l50.805,139.261
	c1.194,3.273,4.286,5.306,7.581,5.306c0.918,0,1.852-0.158,2.764-0.491c4.187-1.528,6.342-6.159,4.815-10.344l-54.395-149.106
	c-0.858-2.353-2.759-4.173-5.146-4.928c-2.386-0.752-4.988-0.358-7.045,1.072l-7.196,5.011c0.498-3.699,0.844-7.43,1.038-11.182
	l23.953-16.685l50.805,139.26c1.194,3.273,4.286,5.306,7.581,5.306c0.917,0,1.852-0.158,2.764-0.491
	c4.187-1.528,6.342-6.159,4.815-10.344l-54.395-149.104c-0.858-2.353-2.759-4.173-5.146-4.928c-2.386-0.752-4.989-0.359-7.045,1.072
	l-23.718,16.52c-0.3-3.316-0.719-6.6-1.253-9.844l40.629-28.841l50.77,139.169c1.194,3.273,4.286,5.306,7.581,5.306
	c0.918,0,1.852-0.157,2.764-0.491c4.187-1.528,6.341-6.159,4.815-10.344l-54.395-149.106c-0.863-2.363-2.779-4.19-5.181-4.939
	c-2.399-0.747-5.015-0.332-7.069,1.125l-43.847,31.127c-1.107-3.683-2.357-7.305-3.761-10.851l62.502-44.075l50.782,139.202
	c1.194,3.273,4.286,5.305,7.581,5.305c0.917,0,1.852-0.157,2.764-0.491C510.881,284.129,513.036,279.499,511.509,275.312z
	 M256,115.37c12.81,0,25.155,2.017,36.744,5.738c-5.642,15.076-20.159,25.443-36.744,25.443s-31.1-10.368-36.743-25.443
	C230.847,117.387,243.192,115.37,256,115.37z M256.002,389.463c-43.567,0-79.011-35.443-79.011-79.009s35.444-79.009,79.011-79.009
	c43.566,0,79.01,35.443,79.01,79.009S299.568,389.463,256.002,389.463z M351.137,309.665c-0.426-52.101-42.936-94.357-95.135-94.357
	c-52.203,0-94.716,42.26-95.139,94.365c-16.274-20.962-25.311-46.88-25.311-73.854c0-47.905,28.114-89.363,68.706-108.754
	c8.043,21.122,28.447,35.623,51.743,35.623s43.7-14.501,51.744-35.623c40.593,19.391,68.706,60.849,68.706,108.754
	C376.45,262.715,367.401,288.689,351.137,309.665z M263.859,315.572c-3.834,0-7.034,2.674-7.857,6.258
	c-0.823-3.583-4.023-6.258-7.857-6.258c-4.457,0-8.068,3.611-8.068,8.068v13.499c0,4.457,3.611,8.068,8.068,8.068
	c3.833,0,7.034-2.674,7.857-6.258c0.823,3.583,4.023,6.258,7.857,6.258c4.457,0,8.068-3.611,8.068-8.068V323.64
	C271.927,319.183,268.314,315.572,263.859,315.572z"/>
<g>
</g>
<g>
</g>
<g>
</g>
<g>
</g>
<g>
</g>
<g>
</g>
<g>
</g>
<g>
</g>
<g>
</g>
<g>
</g>
<g>
</g>
<g>
</g>
<g>
</g>
<g>
</g>
<g>
</g>
</svg>
