<?xml version="1.0" encoding="iso-8859-1"?>
<!-- Generator: Adobe Illustrator 19.0.0, SVG Export Plug-In . SVG Version: 6.00 Build 0)  -->
<svg version="1.1" id="Layer_1" xmlns="http://www.w3.org/2000/svg" xmlns:xlink="http://www.w3.org/1999/xlink" x="0px" y="0px"
	 viewBox="0 0 511.999 511.999" style="enable-background:new 0 0 511.999 511.999;" xml:space="preserve">
<path style="fill:#65513C;" d="M252.385,131.257v177.969c0,33.726,27.341,61.067,61.069,61.067v48.861h-98.471
	c-48.749,0-88.268-39.52-88.268-88.268v-30.522c0-24.51-15.286-45.45-36.844-53.806l-0.002,0.004
	C42.255,229.893,8.108,184.562,8.108,131.257c0-67.455,54.684-122.138,122.139-122.138S252.385,63.802,252.385,131.257z"/>
<path style="fill:#E1CB81;" d="M130.246,9.119c10.918,0,21.498,1.44,31.57,4.128c42.368,21.054,70.961,64.761,70.961,114.529
	v180.561c0,31.985,26.022,58.006,58.007,58.006h1.049c6.723,2.544,14.006,3.95,21.621,3.95v3.951h-22.669
	c-36.343,0-65.909-29.566-65.909-65.908V127.777c0-59.264-43.193-109.389-101.208-118.48C125.846,9.181,128.038,9.119,130.246,9.119
	z"/>
<path style="fill:#9C7F4D;" d="M272.491,282.718V95.762c0-15.759,12.771-28.523,28.527-28.527c15.752,0,28.523,12.768,28.523,28.525
	v10.525c13.491-6.607,28.652-10.329,44.685-10.329h18.668c56.187,0,101.736,45.549,101.736,101.736
	c0,37.087-19.851,69.526-49.5,87.306c22.815,22.56,36.956,53.876,36.956,88.496c0,68.739-55.723,124.462-124.461,124.462
	s-124.461-55.723-124.461-124.462C233.165,337.69,248.289,305.424,272.491,282.718z"/>
<g>
	<path style="fill:#826940;" d="M318.209,332.796c46.966,0,85.041,38.075,85.041,85.04v37.429h31.543
		c13.152,0,23.811,10.659,23.811,23.806c0,13.15-10.659,23.81-23.811,23.81h-73.889c-0.009,0-0.017-0.001-0.026-0.001h-42.67
		c-46.968,0-85.042-38.076-85.042-85.045C233.165,370.87,271.24,332.796,318.209,332.796z"/>
	<path style="fill:#826940;" d="M496.918,361.996c9.299,9.299,9.298,24.374,0.001,33.671c-9.298,9.299-24.373,9.299-33.672,0
		l-42.959-42.959c-9.299-9.299-9.297-24.372,0.001-33.671c9.297-9.297,24.37-9.299,33.669,0L496.918,361.996z"/>
</g>
<path style="fill:#1E252B;" d="M423.552,182.546c6.031,0,10.919-4.888,10.919-10.921c0-6.03-4.888-10.919-10.919-10.919
	c-6.032,0-10.921,4.889-10.921,10.919C412.631,177.656,417.52,182.546,423.552,182.546z M502.651,356.262l-16.913-16.914
	c-5.201-19.549-14.826-37.638-28.137-52.908c28.063-20.546,45.137-53.706,45.137-88.749c0-60.568-49.276-109.844-109.844-109.844
	h-18.668c-12.643,0-24.911,2.099-36.615,6.254c-0.869-19.434-16.95-34.976-36.596-34.976c-20.2,0.005-36.633,16.439-36.633,36.635
	v183.512c-1.33,1.317-2.623,2.666-3.891,4.034V131.257c0-71.818-58.428-130.245-130.246-130.245C58.428,1.011,0,59.44,0,131.257
	C0,186.539,35.033,235.95,87.179,254.21c18.809,7.405,31.429,25.92,31.429,46.153v30.522c0,53.142,43.233,96.376,96.376,96.376
	h10.55c4.74,46.954,44.493,83.725,92.674,83.725h42.566c0.043,0.001,0.088,0.001,0.13,0.001h73.889
	c17.6,0,31.918-14.318,31.918-31.917c0-7.782-2.804-14.921-7.452-20.466c11.84-14.131,20.61-30.587,25.717-48.232
	c6.667-1.019,12.817-4.117,17.675-8.975c6.028-6.028,9.348-14.043,9.348-22.568C512,370.306,508.679,362.29,502.651,356.262z
	 M225.332,411.048h-10.349c-44.201,0-80.16-35.96-80.16-80.16v-30.522c0-26.962-16.887-51.623-42.021-61.367
	c-0.17-0.066-0.339-0.124-0.51-0.178c-45.514-16.059-76.077-59.25-76.077-107.564c0-62.877,51.154-114.03,114.031-114.03
	s114.031,51.153,114.031,114.03v173.576c-12.424,20.551-19.218,44.332-19.218,68.661c0,8.135,0.75,16.265,2.215,24.211
	C226.313,402.048,225.661,406.503,225.332,411.048z M434.793,494.774h-73.785c-0.043-0.001-0.088-0.001-0.13-0.001h-42.67
	c-42.422,0-76.934-34.514-76.934-76.938c0-42.421,34.513-76.932,76.934-76.932s76.933,34.512,76.933,76.932v37.429
	c0,4.479,3.63,8.108,8.108,8.108h31.543c8.659,0,15.703,7.043,15.703,15.699C450.496,487.73,443.452,494.774,434.793,494.774z
	 M445.978,449.185c-3.483-1.308-7.25-2.028-11.185-2.028h-23.436v-29.322c0-51.362-41.786-93.148-93.149-93.148
	c-31.736,0-59.8,15.964-76.626,40.27c2.083-29.202,14.839-56.047,36.455-76.327c1.633-1.533,2.561-3.673,2.561-5.913V95.762
	c0-11.256,9.162-20.416,20.419-20.42c11.258,0,20.415,9.16,20.415,20.417v10.525c0,2.799,1.443,5.399,3.817,6.879
	c2.375,1.481,5.344,1.635,7.857,0.402c12.874-6.306,26.709-9.502,41.12-9.502h18.668c45.373,0,83.305,32.444,91.832,75.349
	l-0.314,0.004c-7.202,0.029-8.84,4.131-3.638,9.11l5.666,5.426c0.049,1.241,0.081,2.489,0.081,3.741
	c0,33.207-17.033,63.244-45.562,80.352c-2.148,1.289-3.581,3.497-3.88,5.985c-0.299,2.487,0.568,4.974,2.349,6.735
	c5.693,5.628,10.758,11.791,15.141,18.377c-5.142-3.372-11.155-5.186-17.448-5.186c-8.525,0-16.54,3.319-22.568,9.348
	c-12.443,12.446-12.443,32.694,0,45.137l42.959,42.959c3.201,3.2,6.965,5.628,11.064,7.212
	C463.876,423.469,456.177,437.288,445.978,449.185z M491.187,389.934c-2.966,2.965-6.909,4.599-11.102,4.599
	c-4.194,0-8.138-1.633-11.104-4.6l-42.959-42.958c-6.121-6.122-6.12-16.083,0.001-22.205c2.965-2.965,6.908-4.599,11.102-4.599
	c4.193,0,8.136,1.633,11.101,4.599l42.96,42.96c2.966,2.965,4.6,6.909,4.6,11.103C495.785,383.025,494.151,386.968,491.187,389.934z
	"/>
<g>
</g>
<g>
</g>
<g>
</g>
<g>
</g>
<g>
</g>
<g>
</g>
<g>
</g>
<g>
</g>
<g>
</g>
<g>
</g>
<g>
</g>
<g>
</g>
<g>
</g>
<g>
</g>
<g>
</g>
</svg>
