<?xml version="1.0" encoding="iso-8859-1"?>
<!-- Generator: Adobe Illustrator 19.0.0, SVG Export Plug-In . SVG Version: 6.00 Build 0)  -->
<svg version="1.1" id="Layer_1" xmlns="http://www.w3.org/2000/svg" xmlns:xlink="http://www.w3.org/1999/xlink" x="0px" y="0px"
	 viewBox="0 0 512 512" style="enable-background:new 0 0 512 512;" xml:space="preserve">
<path style="fill:#FFB648;" d="M402.692,145.376c6.859-6.859,17.978-6.859,24.837,0l46.702,31.051
	c4.637,4.637,12.154,4.637,16.789,0c4.637-4.636,4.637-12.154,0.001-16.789l-31.051-46.701c-6.86-6.861-6.86-17.98,0-24.837
	L402.692,145.376z"/>
<path style="fill:#DADBDC;" d="M476.079,269.598L354.226,147.744c-2.013-2.013-5.391-6.379-5.391-13.011
	c0-0.622,0.032-1.236,0.092-1.841c0.922-9.064,8.578-16.138,17.886-16.138c4.966,0,9.462,2.015,12.715,5.269l0.003-0.003
	l18.651,18.652c17.611,17.611,46.164,17.611,63.776,0c17.612-17.613,17.612-46.165,0-63.777c-0.841-0.842-1.713-1.628-2.601-2.389
	L432.263,49.19c-0.294-0.309-0.624-0.622-1.003-0.938c-22.461-18.638-64.028-12.203-64.028-12.203
	c-54.415,0-98.683,44.269-98.683,98.684c0,26.363,10.268,51.145,28.908,69.784l86.804,86.805H162.478
	c-42.831,0-79.838-24.928-97.312-61.065c-34.56,24.548-57.111,64.902-57.111,110.521c0,74.821,60.656,135.477,135.477,135.477
	H388.69c45.407,0,83.143-32.739,90.957-75.892c15.701-17.476,24.298-39.822,24.298-63.495
	C503.945,311.457,494.049,287.566,476.079,269.598z"/>
<path style="fill:#586069;" d="M474.514,101.18c0,0,0,0-0.001,0.001c-7.927,7.927-20.781,7.927-28.707,0.002l-9.924-9.924
	c-3.15-3.15-8.258-3.15-11.408,0s-3.15,8.257,0,11.407l20.291,20.291c7.815,7.818,7.909,20.413,0.31,28.362
	c6.166-2.17,11.954-5.718,16.886-10.648C472.706,129.923,476.882,115.103,474.514,101.18z"/>
<path style="fill:#E8E8E8;" d="M215.103,410.171c21.118,21.12,55.357,21.12,76.475,0c21.118-21.118,21.118-55.356-0.002-76.473
	L116.7,158.821c-42.234,42.234-42.235,110.711-0.001,152.947L215.103,410.171z"/>
<path style="fill:#DADBDC;" d="M268.273,410.171c21.118,21.12,55.357,21.12,76.475,0c21.118-21.118,21.118-55.356-0.001-76.473
	L169.87,158.821c-42.234,42.234-42.235,110.711,0,152.947L268.273,410.171z"/>
<path style="fill:#E8E8E8;" d="M321.443,410.171c21.118,21.12,55.357,21.12,76.474,0c21.118-21.118,21.118-55.356-0.001-76.473
	L223.039,158.821c-42.234,42.234-42.235,110.711,0,152.947L321.443,410.171z"/>
<path style="fill:#1E252B;" d="M481.775,263.902L359.92,142.046c-1.132-1.131-3.03-3.585-3.03-7.314
	c0-0.338,0.018-0.688,0.052-1.026c0.516-5.073,4.76-8.898,9.871-8.898c2.651,0,5.144,1.033,7.019,2.91
	c0.061,0.061,0.122,0.12,0.185,0.179l18.469,18.47c12.157,12.157,28.786,17.172,44.642,15.065l32.058,21.315
	c3.681,3.368,8.418,5.213,13.439,5.213c5.323,0,10.327-2.073,14.09-5.836c3.763-3.763,5.837-8.768,5.837-14.091
	c0-5.022-1.844-9.759-5.212-13.439l-17.713-26.641c7.315-18.996,3.356-41.374-11.906-56.687c-0.122-0.131-0.336-0.367-0.632-0.693
	c-13.143-14.455-23.76-24.261-31.553-29.146c-25.699-16.108-64.251-13.761-68.626-13.433
	c-58.709,0.174-106.418,47.99-106.418,106.738c0,28.513,11.104,55.319,31.267,75.48l73.054,73.054h-5.938L228.735,153.125
	c-1.51-1.511-3.559-2.36-5.696-2.36s-4.186,0.848-5.696,2.36c-7.216,7.215-13.277,15.155-18.195,23.583l-23.583-23.583
	c-3.146-3.146-8.246-3.146-11.391,0c-7.147,7.147-13.241,15.064-18.219,23.559l-23.559-23.559c-3.146-3.146-8.246-3.146-11.391,0
	c-21.905,21.905-33.987,51.015-34.034,81.986c-1.642-2.707-3.166-5.493-4.554-8.362c-1.032-2.134-2.951-3.705-5.248-4.295
	c-2.298-0.591-4.738-0.137-6.669,1.235C22.617,250.6,0,294.372,0,340.779c0,79.143,64.388,143.533,143.533,143.533H388.69
	c47.876,0,88.92-33.624,98.452-80.274C503.189,385.366,512,361.604,512,336.869C512,309.305,501.265,283.391,481.775,263.902z
	 M470.479,143.29l13.835,20.808c0.295,0.445,0.635,0.858,1.012,1.236c0.972,0.972,1.117,2.107,1.117,2.698s-0.145,1.727-1.119,2.7
	c-0.972,0.973-2.107,1.118-2.698,1.118c-0.591,0-1.727-0.145-2.699-1.118c-0.377-0.378-0.792-0.716-1.235-1.012l-22.252-14.796
	c4.013-2.292,7.794-5.136,11.216-8.557C468.65,145.374,469.58,144.34,470.479,143.29z M223.263,170.437l168.957,168.957
	c8.692,8.691,13.48,20.249,13.48,32.54c0,12.292-4.786,23.849-13.479,32.541c-8.692,8.693-20.249,13.48-32.541,13.48
	c-12.292,0-23.849-4.788-32.541-13.48l-98.405-98.405c-18.905-18.905-29.316-44.041-29.316-70.777
	C199.418,211.26,207.83,188.521,223.263,170.437z M170.097,170.439l21.576,21.576c-16.739,41.875-8.185,91.592,25.669,125.447
	l98.404,98.405c0.323,0.323,0.661,0.627,0.988,0.942c-15.116,3.415-31.408-0.973-42.767-12.333l-98.404-98.405
	C138.456,268.962,136.634,209.723,170.097,170.439z M116.927,170.439l21.531,21.53c-5.456,13.592-8.319,28.236-8.319,43.323
	c0,31.04,12.087,60.221,34.035,82.169l98.403,98.404c0.323,0.323,0.661,0.626,0.99,0.941c-15.116,3.415-31.408-0.972-42.767-12.332
	l-98.404-98.405C85.286,268.962,83.464,209.723,116.927,170.439z M473.656,394.98c-0.999,1.112-1.669,2.479-1.934,3.948
	c-7.268,40.139-42.188,69.272-83.03,69.272H143.533C73.272,468.201,16.11,411.04,16.11,340.779
	c0-38.134,17.203-74.264,46.437-98.377c5.105,8.622,11.31,16.521,18.505,23.601c5.248,19.279,15.442,36.951,29.953,51.46
	l98.404,98.404c11.937,11.939,27.911,18.174,44.032,18.174c9.023,0,18.092-1.958,26.525-5.958
	c8.357,3.935,17.476,5.958,26.644,5.958c9,0,18.045-1.948,26.46-5.928c8.212,3.897,17.253,5.953,26.611,5.953
	c16.596,0,32.198-6.464,43.933-18.199c11.735-11.735,18.197-27.337,18.197-43.932c0-16.596-6.464-32.198-18.198-43.932
	l-28.625-28.625h9.274c3.259,0,6.195-1.962,7.442-4.973c1.247-3.011,0.557-6.474-1.746-8.778l-86.804-86.805
	c-17.12-17.118-26.548-39.878-26.548-64.088c0-49.973,40.656-90.629,90.628-90.629c0.22,0,0.448-0.01,0.667-0.027
	c0.368-0.028,36.975-2.856,59.084,11.001c3.686,2.309,12.25,8.804,28.189,26.333c0.592,0.651,0.97,1.057,1.092,1.178
	c14.441,14.443,14.441,37.942,0,52.386c-14.444,14.44-37.942,14.441-52.385,0l-18.651-18.652c-0.072-0.072-0.145-0.143-0.22-0.212
	c-4.893-4.784-11.342-7.414-18.194-7.414c-13.409,0-24.544,10.051-25.901,23.395c-0.088,0.883-0.133,1.77-0.133,2.64
	c0,9.535,4.856,15.814,7.749,18.708l121.853,121.853c16.448,16.447,25.507,38.314,25.507,61.575
	C495.889,358.386,487.993,379.023,473.656,394.98z"/>
<g>
</g>
<g>
</g>
<g>
</g>
<g>
</g>
<g>
</g>
<g>
</g>
<g>
</g>
<g>
</g>
<g>
</g>
<g>
</g>
<g>
</g>
<g>
</g>
<g>
</g>
<g>
</g>
<g>
</g>
</svg>
