<?xml version="1.0" encoding="iso-8859-1"?>
<!-- Generator: Adobe Illustrator 19.0.0, SVG Export Plug-In . SVG Version: 6.00 Build 0)  -->
<svg version="1.1" id="Layer_1" xmlns="http://www.w3.org/2000/svg" xmlns:xlink="http://www.w3.org/1999/xlink" x="0px" y="0px"
	 viewBox="0 0 511.999 511.999" style="enable-background:new 0 0 511.999 511.999;" xml:space="preserve">
<path style="fill:#2D3740;" d="M256.206,302.284c-26.693,0-48.325-21.634-48.325-48.326c0-26.688,21.635-48.324,48.325-48.322
	H394.96c0,53.374-43.272,96.645-96.652,96.648H256.206z"/>
<path id="SVGCleanerId_0" style="fill:#333E48;" d="M112.449,467.678c96.764,0,175.21-78.443,175.21-175.21V44.321
	c-96.764,0-175.208,78.443-175.208,175.21"/>
<g>
	<path id="SVGCleanerId_0_1_" style="fill:#333E48;" d="M112.449,467.678c96.764,0,175.21-78.443,175.21-175.21V44.321
		c-96.764,0-175.208,78.443-175.208,175.21"/>
</g>
<path style="fill:#333E48;" d="M112.449,467.678H8.2l104.249-104.249l0.002-143.898c0-96.767,78.443-175.21,175.208-175.21v248.147
	C287.659,389.235,209.214,467.678,112.449,467.678"/>
<path style="fill:#FFFFFF;" d="M198.166,152.391c0,33.147,18.031,62.061,44.808,77.527v65.118c0,25.852,12.63,48.741,32.043,62.874
	v-0.001c8.149-20.22,12.643-42.304,12.643-65.441V62.897C238.233,62.897,198.166,102.965,198.166,152.391z"/>
<path style="fill:#2D3740;" d="M152.902,304.324c26.693,0,48.326-21.634,48.326-48.325c0-26.689-21.635-48.324-48.326-48.323H14.15
	c0,53.375,43.271,96.647,96.65,96.648H152.902z"/>
<path style="fill:#ED9900;" d="M503.8,152.391c0-59.686-48.384-108.07-108.07-108.07H287.658v108.07H503.8z"/>
<path style="fill:#333E48;" d="M472.511,76.357c-22.923,12.904-38.415,37.451-38.415,65.629c0,3.534,0.261,7.001,0.731,10.405H503.8
	C503.8,122.739,491.85,95.884,472.511,76.357z"/>
<rect x="287.656" y="152.388" style="fill:#B36F0F;" width="216.141" height="18.171"/>
<path style="fill:#1E252B;" d="M395.73,36.121H287.658c-46.829,0-91.407,17.645-125.527,49.685
	c-32.085,30.131-52.066,70.252-56.787,113.668H14.15c-4.529,0-8.2,3.67-8.2,8.2c0,55.611,43.526,101.244,98.3,104.638l-0.001,47.72
	L2.402,461.879c-2.345,2.346-3.047,5.872-1.778,8.937c1.269,3.065,4.26,5.062,7.576,5.062h104.249
	c57.45,0,108.807-26.559,142.461-68.035c2.285-0.397,4.244-1.736,5.462-3.609c1.462,2.249,3.992,3.739,6.875,3.739
	c2.883,0,5.413-1.49,6.875-3.739c1.462,2.249,3.992,3.739,6.875,3.739c4.53,0,8.2-3.67,8.2-8.2V387.2c0-4.53-3.67-8.2-8.2-8.2
	c-2.883,0-5.413,1.49-6.875,3.739c-0.353-0.542-0.769-1.039-1.237-1.483c11.865-21.353,19.592-45.306,22.087-70.771h3.335
	c57.817-0.003,104.852-47.038,104.852-104.848c0-4.53-3.671-8.2-8.2-8.2h-99.102v-12.112h207.941c4.53,0,8.2-3.67,8.2-8.2v-24.731
	C512,88.28,459.842,36.121,395.73,36.121z M22.727,215.875h130.175c10.718,0,20.795,4.172,28.373,11.751
	c7.579,7.579,11.752,17.655,11.752,28.372c0,22.125-18.001,40.125-40.126,40.125h-42.101
	C64.794,296.122,26.879,260.814,22.727,215.875z M279.459,292.468c0,31.724-8.893,61.409-24.314,86.697
	c-0.532-0.108-1.082-0.165-1.647-0.165c-2.882,0-5.413,1.49-6.875,3.739c-1.462-2.249-3.993-3.739-6.875-3.739
	c-2.882,0-5.413,1.49-6.875,3.739C231.413,380.49,228.882,379,226,379h-10.451c-4.529,0-8.2,3.67-8.2,8.2c0,4.53,3.671,8.2,8.2,8.2
	h2.251v4.373c0,4.53,3.671,8.2,8.2,8.2c2.882,0,5.413-1.49,6.875-3.739c0.482,0.742,1.08,1.399,1.77,1.949
	c-30.512,32.765-73.997,53.294-122.194,53.294H27.997l90.25-90.25c1.538-1.538,2.402-3.623,2.402-5.799l0.001-50.906h32.251
	c31.169,0,56.526-25.357,56.526-56.525c0-15.098-5.88-29.294-16.556-39.969c-10.676-10.676-24.872-16.556-39.97-16.555h-31.051
	c4.646-38.842,22.729-74.689,51.508-101.713c29.068-27.297,66.478-43.12,106.1-45.042V292.468z M386.384,213.835
	c-4.152,44.938-42.068,80.245-88.076,80.248h-2.47c0.004-0.539,0.021-1.075,0.021-1.616v-78.634h90.525V213.835z M471.072,86.938
	c13.577,15.607,22.414,35.441,24.195,57.253h-52.931c-0.025-0.74-0.039-1.476-0.039-2.205
	C442.296,119.961,453.178,99.412,471.072,86.938z M295.859,52.521h99.872c24.066,0,46.158,8.572,63.421,22.803
	c-20.745,15.655-33.255,40.31-33.255,66.664c0,0.729,0.02,1.467,0.039,2.205H295.859V52.521z M495.6,168.923H295.859v-8.331H495.6
	V168.923z M247.191,129.637c6.162,0,11.155-4.995,11.155-11.155c0-6.16-4.993-11.156-11.155-11.156
	c-6.161,0-11.156,4.997-11.156,11.156C236.034,124.642,241.03,129.637,247.191,129.637z"/>
<g>
</g>
<g>
</g>
<g>
</g>
<g>
</g>
<g>
</g>
<g>
</g>
<g>
</g>
<g>
</g>
<g>
</g>
<g>
</g>
<g>
</g>
<g>
</g>
<g>
</g>
<g>
</g>
<g>
</g>
</svg>
