<?xml version="1.0" encoding="iso-8859-1"?>
<!-- Generator: Adobe Illustrator 19.0.0, SVG Export Plug-In . SVG Version: 6.00 Build 0)  -->
<svg version="1.1" id="Layer_1" xmlns="http://www.w3.org/2000/svg" xmlns:xlink="http://www.w3.org/1999/xlink" x="0px" y="0px"
	 viewBox="0 0 512.002 512.002" style="enable-background:new 0 0 512.002 512.002;" xml:space="preserve">
<path style="fill:#00833E;" d="M161.218,198.416c-15.879,15.882-41.629,15.882-57.513,0L8.243,102.951
	c28.292-28.292,74.163-28.292,102.455,0l72.995,72.992L161.218,198.416z"/>
<g>
	<path style="fill:#006931;" d="M18.172,94.669l94.64,94.638c10.851,10.853,28.449,10.853,39.301,0.001l22.473-22.472l9.108,9.106
		l-22.475,22.472c-15.879,15.882-41.629,15.882-57.513,0L8.243,102.951C11.353,99.842,14.683,97.095,18.172,94.669z"/>
	<circle style="fill:#006931;" cx="115.524" cy="150.704" r="8.801"/>
	<circle style="fill:#006931;" cx="97.756" cy="114.28" r="5.654"/>
	<circle style="fill:#006931;" cx="52.444" cy="106.282" r="9.738"/>
</g>
<path style="fill:#00833E;" d="M360.556,347.357c-15.882,15.88-15.882,41.63,0,57.514l95.464,95.462
	c28.291-28.292,28.291-74.163,0-102.455l-72.993-72.994L360.556,347.357z"/>
<g>
	<path style="fill:#006931;" d="M464.302,490.402l-94.64-94.638c-10.851-10.851-10.851-28.448-0.001-39.3l22.472-22.473
		l-9.106-9.108l-22.47,22.474c-15.882,15.88-15.882,41.63,0,57.514l95.464,95.462C459.128,497.222,461.876,493.892,464.302,490.402z
		"/>
	<circle style="fill:#006931;" cx="408.264" cy="393.055" r="8.801"/>
	<circle style="fill:#006931;" cx="444.687" cy="410.822" r="5.653"/>
	<circle style="fill:#006931;" cx="452.686" cy="456.134" r="9.738"/>
</g>
<path style="fill:#00833E;" d="M151.448,347.357c15.882,15.88,15.882,41.63,0,57.514l-95.464,95.462
	c-28.291-28.292-28.291-74.163,0-102.455l72.993-72.994L151.448,347.357z"/>
<g>
	<path style="fill:#006931;" d="M47.702,490.402l94.64-94.638c10.851-10.851,10.851-28.448,0.001-39.3l-22.472-22.473l9.106-9.108
		l22.47,22.474c15.882,15.88,15.882,41.63,0,57.514l-95.464,95.462C52.876,497.222,50.128,493.892,47.702,490.402z"/>
	<circle style="fill:#006931;" cx="103.746" cy="393.055" r="8.801"/>
	<circle style="fill:#006931;" cx="67.311" cy="410.822" r="5.653"/>
	<circle style="fill:#006931;" cx="59.318" cy="456.134" r="9.738"/>
</g>
<path style="fill:#00833E;" d="M350.785,198.416c15.88,15.882,41.63,15.882,57.514,0l95.462-95.464
	c-28.292-28.292-74.163-28.292-102.455,0l-72.995,72.992L350.785,198.416z"/>
<g>
	<path style="fill:#006931;" d="M493.831,94.669l-94.638,94.638c-10.851,10.853-28.449,10.853-39.301,0.001l-22.473-22.472
		l-9.108,9.106l22.474,22.472c15.88,15.882,41.63,15.882,57.514,0l95.462-95.464C500.651,99.842,497.32,97.095,493.831,94.669z"/>
	<circle style="fill:#006931;" cx="396.474" cy="150.704" r="8.801"/>
	<circle style="fill:#006931;" cx="414.252" cy="114.28" r="5.654"/>
	<circle style="fill:#006931;" cx="459.564" cy="106.282" r="9.738"/>
	<path style="fill:#006931;" d="M280.221,438.504c3.601-9.211-1.545-16.747-11.434-16.747h-25.571
		c-9.889,0-15.035,7.536-11.434,16.747l17.673,45.22c3.601,9.21,9.492,9.21,13.093,0L280.221,438.504z"/>
</g>
<path style="fill:#00833E;" d="M256.001,11.666c-30.312,0-54.887,24.575-54.887,54.887v92.556h109.774V66.554
	C310.889,36.241,286.316,11.666,256.001,11.666z"/>
<path style="fill:#6BB587;" d="M256.001,452.961c-81.885,0-148.506-66.619-148.506-148.507v-50.271
	c0-81.886,66.62-148.507,148.506-148.507c81.887,0,148.506,66.619,148.506,148.507v50.271
	C404.508,386.341,337.89,452.961,256.001,452.961z"/>
<path style="fill:#00833E;" d="M256.001,126.059c-70.76,0-128.124,57.362-128.124,128.124v50.271
	c0,70.763,57.363,128.125,128.124,128.125s128.124-57.362,128.124-128.125v-50.271C384.126,183.421,326.763,126.059,256.001,126.059
	z"/>
<g>
	<path style="fill:#006931;" d="M384.126,272.186H268.359l68.004-117.787c-3.716-2.998-7.6-5.795-11.643-8.369l-68.718,119.021
		l-68.717-119.022c-4.042,2.574-7.926,5.372-11.643,8.369l68.004,117.787H127.878v14.265h115.767l-68.004,117.788
		c3.717,2.997,7.601,5.795,11.643,8.369l68.717-119.021l68.717,119.021c4.043-2.574,7.927-5.372,11.643-8.369L268.358,286.45
		h115.767v-14.264H384.126z"/>
	<polygon style="fill:#006931;" points="224.919,333.154 193.839,279.319 224.919,225.483 287.085,225.483 318.165,279.319 
		287.085,333.154 	"/>
</g>
<path style="fill:#1E252B;" d="M217.398,58.563c-3.619,0-6.557,2.937-6.557,6.558c0,3.621,2.938,6.557,6.557,6.557
	c3.619,0,6.558-2.936,6.558-6.557C223.955,61.5,221.017,58.563,217.398,58.563z M294.607,71.679c3.618,0,6.556-2.936,6.556-6.557
	c0-3.621-2.938-6.558-6.556-6.558c-3.62,0-6.558,2.937-6.558,6.558C288.049,68.743,290.987,71.679,294.607,71.679z M256.001,124.766
	c-71.99,0-130.557,58.568-130.557,130.558v47.992c0,71.99,58.568,130.558,130.557,130.558s130.557-58.568,130.557-130.558v-47.992
	C386.559,183.333,327.991,124.766,256.001,124.766z M256.001,141.247c21.628,0,41.869,6.05,59.12,16.547l-32.895,59.449h-52.448
	l-32.895-59.449C214.133,147.297,234.375,141.247,256.001,141.247z M282.326,233.723l26.323,45.596l-26.323,45.596h-52.65
	l-26.323-45.596l26.323-45.596L282.326,233.723L282.326,233.723z M141.926,255.322c0-35.331,16.146-66.961,41.446-87.902
	l32.081,57.977l-26.372,45.682h-47.155V255.322z M141.926,303.315v-15.756h47.155l26.372,45.682l-32.081,57.977
	C158.072,370.276,141.926,338.646,141.926,303.315z M256.001,417.392c-21.628,0-41.869-6.05-59.121-16.547l32.897-59.449h52.448
	l32.897,59.449C297.871,411.341,277.629,417.392,256.001,417.392z M370.078,303.315c0,35.331-16.145,66.961-41.446,87.902
	l-32.081-57.977l26.372-45.682h47.155V303.315z M370.078,271.078h-47.155l-26.372-45.682l32.081-57.977
	c25.299,20.941,41.446,52.571,41.446,87.902V271.078z M509.588,108.779c3.218-3.218,3.218-8.436,0-11.653
	c-15.24-15.24-35.502-23.632-57.055-23.632s-41.816,8.392-57.055,23.632l-37.836,37.835c-11.521-9.837-24.479-18.035-38.513-24.235
	V66.554c0-34.808-28.318-63.127-63.127-63.127s-63.127,28.319-63.127,63.127v44.172c-14.034,6.2-26.991,14.398-38.513,24.235
	l-37.836-37.835c-15.24-15.24-35.503-23.632-57.056-23.632c-21.552,0-41.815,8.392-57.055,23.632c-3.218,3.218-3.218,8.436,0,11.653
	l95.463,95.464c2.334,2.334,4.878,4.4,7.596,6.202c-4.042,13.888-6.218,28.563-6.218,43.739v50.271
	c0,11.898,1.34,23.489,3.864,34.635l-52.962,52.963c-31.458,31.459-31.458,82.649,0,114.108c1.546,1.546,3.641,2.414,5.828,2.414
	c2.185,0,4.281-0.868,5.828-2.414l87.234-87.233c22.263,20.812,50.573,35.226,81.979,40.276l10.756,27.523
	c4.133,10.57,10.684,12.148,14.221,12.148c3.538,0,10.089-1.578,14.221-12.149l10.756-27.52
	c31.406-5.051,59.717-19.463,81.979-40.277l87.234,87.233c1.546,1.546,3.641,2.414,5.828,2.414c2.185,0,4.282-0.868,5.828-2.414
	c31.458-31.459,31.458-82.649,0-114.108l-52.962-52.963c2.524-11.146,3.864-22.735,3.864-34.635v-50.271
	c0-15.176-2.176-29.85-6.218-43.739c2.717-1.802,5.262-3.868,7.596-6.202L509.588,108.779z M209.355,66.554
	c0-25.721,20.926-46.646,46.646-46.646c25.721,0,46.646,20.926,46.646,46.646v37.969c-14.741-4.604-30.409-7.087-46.646-7.087
	s-31.905,2.483-46.646,7.087V66.554z M20.269,103.324c25.161-19.424,61.542-17.604,84.602,5.454l37.522,37.521
	c-13.117,13.806-23.745,29.995-31.174,47.837c-0.574-0.5-1.145-1.005-1.688-1.548L20.269,103.324z M56.357,488.306
	c-19.423-25.16-17.604-61.542,5.455-84.601l46.563-46.564c6.616,18.482,16.602,35.374,29.227,49.923L56.357,488.306z
	 M256.001,477.836l-6.56-16.781c2.176,0.089,4.362,0.147,6.56,0.147c2.197,0,4.382-0.057,6.56-0.147L256.001,477.836z
	 M256.001,444.72c-77.343,0-140.265-62.923-140.265-140.266v-50.271c0-77.343,62.923-140.266,140.265-140.266
	s140.265,62.923,140.265,140.266v50.271C396.268,381.797,333.344,444.72,256.001,444.72z M450.192,403.705
	c23.059,23.059,24.878,59.441,5.455,84.601l-81.244-81.244c12.624-14.548,22.61-31.441,29.227-49.923L450.192,403.705z
	 M402.471,192.589c-0.543,0.543-1.114,1.048-1.688,1.548c-7.429-17.843-18.057-34.032-31.173-47.837l37.522-37.521
	c12.126-12.127,28.25-18.805,45.4-18.805c14.372,0,28.022,4.691,39.206,13.345L402.471,192.589z"/>
<g>
</g>
<g>
</g>
<g>
</g>
<g>
</g>
<g>
</g>
<g>
</g>
<g>
</g>
<g>
</g>
<g>
</g>
<g>
</g>
<g>
</g>
<g>
</g>
<g>
</g>
<g>
</g>
<g>
</g>
</svg>
