<?xml version="1.0" encoding="iso-8859-1"?>
<!-- Generator: Adobe Illustrator 19.0.0, SVG Export Plug-In . SVG Version: 6.00 Build 0)  -->
<svg version="1.1" id="Layer_1" xmlns="http://www.w3.org/2000/svg" xmlns:xlink="http://www.w3.org/1999/xlink" x="0px" y="0px"
	 viewBox="0 0 511.999 511.999" style="enable-background:new 0 0 511.999 511.999;" xml:space="preserve">
<path style="fill:#0075C9;" d="M339.844,123.367c-11.358,0-21.518,5.218-28.214,13.383c-6.695-8.163-16.856-13.383-28.214-13.383
	c-20.115,0-36.481,16.367-36.481,36.481c0,4.567,3.701,8.267,8.267,8.267c4.567,0,8.267-3.7,8.267-8.267
	c0-10.997,8.948-19.947,19.947-19.947c10.997,0,19.947,8.949,19.947,19.947v23.772c0,4.567,3.7,8.267,8.267,8.267
	c4.567,0,8.267-3.7,8.267-8.267v-23.772c0-10.997,8.948-19.947,19.947-19.947c10.998,0,19.947,8.949,19.947,19.947
	c0,4.567,3.7,8.267,8.267,8.267c4.567,0,8.267-3.7,8.267-8.267C376.324,139.734,359.959,123.367,339.844,123.367z"/>
<g>
	<path style="fill:#7D868C;" d="M8.267,180.313c22.428-22.431,58.791-22.431,81.222-0.002l33.662,33.662
		c3.477,3.479,5.872,7.628,7.192,12.028c2.941,9.794,0.546,20.848-7.192,28.584L89.487,288.25
		c-22.427,22.427-58.79,22.427-81.22-0.002l53.967-53.966L8.267,180.313z"/>
	<path style="fill:#7D868C;" d="M105.336,208.762c-11.774,0-21.319,9.546-21.319,21.32c0,0.833,0.049,1.658,0.142,2.467
		c11.499,77.844,78.588,137.582,159.629,137.582h100.175c81.041,0,148.129-59.738,159.629-137.582
		c0.094-0.809,0.141-1.634,0.141-2.467c0-11.775-9.545-21.32-21.318-21.32L105.336,208.762L105.336,208.762z"/>
</g>
<g>
	<circle style="fill:#5F7585;" cx="231.721" cy="235.479" r="12.735"/>
	<circle style="fill:#5F7585;" cx="191.862" cy="248.21" r="12.735"/>
	<circle style="fill:#5F7585;" cx="157.46" cy="227.057" r="9.153"/>
	<path style="fill:#5F7585;" d="M501.302,220.214c1.545,2.952,2.432,6.304,2.432,9.866c0,0.833-0.047,1.658-0.141,2.467
		c-11.501,77.844-78.588,137.582-159.629,137.582h-1.919C350.446,288.171,417.994,223.745,501.302,220.214z"/>
</g>
<path style="fill:#5C6670;" d="M260.374,337.243c11.908,0,21.561,9.654,21.561,21.56c0,11.908-9.653,21.562-21.561,21.562h-64.306
	c0.001-23.815,19.306-43.12,43.121-43.122H260.374z"/>
<path style="fill:#1E252B;" d="M482.415,200.495H121.363l-26.028-26.029c-12.41-12.409-28.909-19.243-46.459-19.243
	c-17.548,0.001-34.047,6.835-46.455,19.246c-3.229,3.229-3.227,8.462,0,11.691l48.122,48.122L2.422,282.401
	C0.871,283.953,0,286.055,0,288.248c0,2.192,0.871,4.294,2.422,5.846c25.615,25.616,67.294,25.617,92.911,0.001l1.154-1.155
	c20.514,35.845,53.465,63.091,92.515,76.412c-0.779,3.55-1.201,7.232-1.201,11.013c0,2.192,0.871,4.296,2.422,5.845
	c1.55,1.551,3.653,2.422,5.845,2.422h64.306c8.952,0,16.989-3.97,22.461-10.235h61.128c40.941,0,80.475-14.785,111.32-41.631
	c30.54-26.58,50.601-63.164,56.488-103.011c0.012-0.085,0.023-0.171,0.033-0.257c0.13-1.124,0.196-2.274,0.196-3.418
	C512,213.767,498.729,200.495,482.415,200.495z M260.374,372.098h-55.048c3.722-15.24,17.493-26.587,33.863-26.588h21.185
	c7.329,0,13.293,5.963,13.293,13.293C273.667,366.135,267.703,372.098,260.374,372.098z M334.747,361.863h-44.702
	c0.104-1.005,0.157-2.027,0.157-3.059c0-16.447-13.381-29.828-29.826-29.828H239.19c-18.684,0.001-35.067,10.03-44.062,24.982
	c-38.849-13.016-71.098-41.272-89.13-78.395c-1.168-2.405-3.428-4.097-6.066-4.54c-2.638-0.441-5.325,0.416-7.217,2.308
	l-9.074,9.073c-17.178,17.178-44.006,18.961-63.191,5.352l47.63-47.628c1.551-1.551,2.422-3.653,2.422-5.846
	c0-2.192-0.871-4.294-2.422-5.846l-47.636-47.637c8.252-5.875,18.098-9.042,28.432-9.042c13.133,0,25.479,5.115,34.767,14.4
	l28.449,28.45c1.55,1.551,3.653,2.422,5.845,2.422h347.955c-29.027,7.257-55.936,21.883-77.989,42.725
	C359.127,286.948,340.429,322.973,334.747,361.863z M495.394,231.484c-5.339,35.893-23.434,68.85-50.965,92.81
	c-25.934,22.572-58.68,35.691-92.917,37.377c5.583-34.229,22.318-65.868,47.749-89.903c26.309-24.863,60.244-39.955,96.145-42.899
	c0.036,0.399,0.062,0.801,0.062,1.211C495.466,230.554,495.442,231.025,495.394,231.484z M329.567,307.833
	c-5.295,0-9.588,4.293-9.588,9.584c0,5.296,4.293,9.589,9.588,9.589c5.295,0,9.586-4.293,9.586-9.589
	C339.155,312.125,334.863,307.833,329.567,307.833z"/>
<g>
</g>
<g>
</g>
<g>
</g>
<g>
</g>
<g>
</g>
<g>
</g>
<g>
</g>
<g>
</g>
<g>
</g>
<g>
</g>
<g>
</g>
<g>
</g>
<g>
</g>
<g>
</g>
<g>
</g>
</svg>
